0
SECTION
2
HEADER
9
$INSUNITS
70
4
9
$ACADVER
1
AC1014
9
$HANDSEED
5
FFFF
0
ENDSEC
0
SECTION
2
TABLES
0
TABLE
2
VPORT
5
8
100
AcDbSymbolTable
0
ENDTAB
0
TABLE
2
LTYPE
5
5
100
AcDbSymbolTable
0
LTYPE
5
14
100
AcDbSymbolTableRecord
100
AcDbLinetypeTableRecord
2
BYBLOCK
70
0
0
LTYPE
5
15
100
AcDbSymbolTableRecord
100
AcDbLinetypeTableRecord
2
BYLAYER
70
0
0
ENDTAB
0
TABLE
2
LAYER
5
2
100
AcDbSymbolTable
70
2
0
LAYER
5
50
100
AcDbSymbolTableRecord
100
AcDbLayerTableRecord
2
0
70
0
6
CONTINUOUS
0
ENDTAB
0
TABLE
2
STYLE
5
3
100
AcDbSymbolTable
70
1
0
STYLE
5
11
100
AcDbSymbolTableRecord
100
AcDbTextStyleTableRecord
2
STANDARD
70
0
0
ENDTAB
0
TABLE
2
VIEW
5
6
100
AcDbSymbolTable
70
0
0
ENDTAB
0
TABLE
2
UCS
5
7
100
AcDbSymbolTable
70
0
0
ENDTAB
0
TABLE
2
APPID
5
9
100
AcDbSymbolTable
70
2
0
APPID
5
12
100
AcDbSymbolTableRecord
100
AcDbRegAppTableRecord
2
ACAD
70
0
0
ENDTAB
0
TABLE
2
DIMSTYLE
5
A
100
AcDbSymbolTable
70
1
0
ENDTAB
0
TABLE
2
BLOCK_RECORD
5
1
100
AcDbSymbolTable
70
1
0
BLOCK_RECORD
5
1F
100
AcDbSymbolTableRecord
100
AcDbBlockTableRecord
2
*MODEL_SPACE
0
BLOCK_RECORD
5
1B
100
AcDbSymbolTableRecord
100
AcDbBlockTableRecord
2
*PAPER_SPACE
0
ENDTAB
0
ENDSEC
0
SECTION
2
BLOCKS
0
BLOCK
5
20
100
AcDbEntity
100
AcDbBlockBegin
2
*MODEL_SPACE
0
ENDBLK
5
21
100
AcDbEntity
100
AcDbBlockEnd
0
BLOCK
5
1C
100
AcDbEntity
100
AcDbBlockBegin
2
*PAPER_SPACE
0
ENDBLK
5
1D
100
AcDbEntity
100
AcDbBlockEnd
0
ENDSEC
0
SECTION
2
ENTITIES
0
CIRCLE
5
100
100
AcDbEntity
8
0
100
AcDbCircle
10
7.5000000000000169
20
3.0200000000000404
30
0
40
0.55000000000000049
210
0
220
0
230
1
0
CIRCLE
5
101
100
AcDbEntity
8
0
100
AcDbCircle
10
7.5000000000000169
20
-2.0599999999999596
30
0
40
0.55000000000000049
210
0
220
0
230
1
0
CIRCLE
5
102
100
AcDbEntity
8
0
100
AcDbCircle
10
7.5000000000000169
20
-7.1399999999999597
30
0
40
0.55000000000000049
210
0
220
0
230
1
0
CIRCLE
5
103
100
AcDbEntity
8
0
100
AcDbCircle
10
-7.4999999999999902
20
-12.219999999999969
30
0
40
0.54999999999999927
210
0
220
0
230
1
0
CIRCLE
5
104
100
AcDbEntity
8
0
100
AcDbCircle
10
-7.4999999999999902
20
-17.299999999999969
30
0
40
0.54999999999999927
210
0
220
0
230
1
0
CIRCLE
5
105
100
AcDbEntity
8
0
100
AcDbCircle
10
7.5000000000000169
20
-22.37999999999996
30
0
40
0.55000000000000049
210
0
220
0
230
1
0
CIRCLE
5
106
100
AcDbEntity
8
0
100
AcDbCircle
10
7.5000000000000169
20
-27.459999999999958
30
0
40
0.55000000000000049
210
0
220
0
230
1
0
CIRCLE
5
107
100
AcDbEntity
8
0
100
AcDbCircle
10
7.5000000000000169
20
-29.999999999999961
30
0
40
0.55000000000000049
210
0
220
0
230
1
0
CIRCLE
5
108
100
AcDbEntity
8
0
100
AcDbCircle
10
7.5000000000000169
20
-24.919999999999959
30
0
40
0.55000000000000049
210
0
220
0
230
1
0
CIRCLE
5
109
100
AcDbEntity
8
0
100
AcDbCircle
10
7.5000000000000169
20
-19.839999999999961
30
0
40
0.55000000000000049
210
0
220
0
230
1
0
CIRCLE
5
110
100
AcDbEntity
8
0
100
AcDbCircle
10
-7.4999999999999902
20
-14.75999999999997
30
0
40
0.54999999999999927
210
0
220
0
230
1
0
CIRCLE
5
111
100
AcDbEntity
8
0
100
AcDbCircle
10
7.5000000000000169
20
-9.6799999999999606
30
0
40
0.55000000000000049
210
0
220
0
230
1
0
CIRCLE
5
112
100
AcDbEntity
8
0
100
AcDbCircle
10
7.5000000000000169
20
-4.5999999999999597
30
0
40
0.55000000000000049
210
0
220
0
230
1
0
CIRCLE
5
113
100
AcDbEntity
8
0
100
AcDbCircle
10
7.5000000000000169
20
0.48000000000004039
30
0
40
0.55000000000000049
210
0
220
0
230
1
0
CIRCLE
5
114
100
AcDbEntity
8
0
100
AcDbCircle
10
7.5000000000000169
20
5.5600000000000405
30
0
40
0.55000000000000049
210
0
220
0
230
1
0
CIRCLE
5
115
100
AcDbEntity
8
0
100
AcDbCircle
10
-7.4999999999999902
20
3.0200000000000315
30
0
40
0.54999999999999927
210
0
220
0
230
1
0
CIRCLE
5
116
100
AcDbEntity
8
0
100
AcDbCircle
10
-7.4999999999999902
20
-2.0599999999999685
30
0
40
0.54999999999999927
210
0
220
0
230
1
0
CIRCLE
5
117
100
AcDbEntity
8
0
100
AcDbCircle
10
-7.4999999999999902
20
-7.1399999999999686
30
0
40
0.54999999999999927
210
0
220
0
230
1
0
CIRCLE
5
118
100
AcDbEntity
8
0
100
AcDbCircle
10
7.5000000000000169
20
-12.21999999999996
30
0
40
0.55000000000000049
210
0
220
0
230
1
0
CIRCLE
5
119
100
AcDbEntity
8
0
100
AcDbCircle
10
7.5000000000000169
20
-17.299999999999962
30
0
40
0.55000000000000049
210
0
220
0
230
1
0
CIRCLE
5
120
100
AcDbEntity
8
0
100
AcDbCircle
10
-7.4999999999999902
20
-22.379999999999967
30
0
40
0.54999999999999927
210
0
220
0
230
1
0
CIRCLE
5
121
100
AcDbEntity
8
0
100
AcDbCircle
10
-7.4999999999999902
20
-27.459999999999969
30
0
40
0.54999999999999927
210
0
220
0
230
1
0
CIRCLE
5
122
100
AcDbEntity
8
0
100
AcDbCircle
10
-7.4999999999999902
20
-29.999999999999968
30
0
40
0.54999999999999927
210
0
220
0
230
1
0
CIRCLE
5
123
100
AcDbEntity
8
0
100
AcDbCircle
10
-7.4999999999999902
20
-24.91999999999997
30
0
40
0.54999999999999927
210
0
220
0
230
1
0
CIRCLE
5
124
100
AcDbEntity
8
0
100
AcDbCircle
10
-7.4999999999999902
20
-19.839999999999968
30
0
40
0.54999999999999927
210
0
220
0
230
1
0
CIRCLE
5
125
100
AcDbEntity
8
0
100
AcDbCircle
10
7.5000000000000169
20
-14.759999999999959
30
0
40
0.55000000000000049
210
0
220
0
230
1
0
CIRCLE
5
126
100
AcDbEntity
8
0
100
AcDbCircle
10
-7.4999999999999902
20
-9.6799999999999677
30
0
40
0.54999999999999927
210
0
220
0
230
1
0
CIRCLE
5
127
100
AcDbEntity
8
0
100
AcDbCircle
10
-7.4999999999999902
20
-4.5999999999999686
30
0
40
0.54999999999999927
210
0
220
0
230
1
0
CIRCLE
5
128
100
AcDbEntity
8
0
100
AcDbCircle
10
-7.4999999999999902
20
0.48000000000003151
30
0
40
0.54999999999999927
210
0
220
0
230
1
0
CIRCLE
5
129
100
AcDbEntity
8
0
100
AcDbCircle
10
-7.4999999999999902
20
5.5600000000000316
30
0
40
0.54999999999999927
210
0
220
0
230
1
0
CIRCLE
5
130
100
AcDbEntity
8
0
100
AcDbCircle
10
-15.00000000000006
20
42.000000000000071
30
0
40
1.9999999999999996
210
0
220
0
230
1
0
CIRCLE
5
131
100
AcDbEntity
8
0
100
AcDbCircle
10
-14.999999999999989
20
-41.999999999999957
30
0
40
1.9999999999999973
210
0
220
0
230
1
0
CIRCLE
5
132
100
AcDbEntity
8
0
100
AcDbCircle
10
15.000000000000025
20
42.000000000000071
30
0
40
1.9999999999999996
210
0
220
0
230
1
0
CIRCLE
5
133
100
AcDbEntity
8
0
100
AcDbCircle
10
15.000000000000027
20
-41.999999999999957
30
0
40
2.0000000000000018
210
0
220
0
230
1
0
LWPOLYLINE
5
134
100
AcDbEntity
8
0
100
AcDbPolyline
90
8
70
1
43
0.0
10
15.000000000000018
20
-44.999999999999957
42
0.41421356237309592
10
18.000000000000025
20
-41.999999999999957
10
18.000000000000011
20
42.000000000000064
42
0.41421356237309725
10
15.000000000000011
20
45.000000000000057
10
-15.000000000000046
20
45.000000000000043
42
0.41421356237309892
10
-18.000000000000039
20
42.000000000000043
10
-17.999999999999982
20
-41.999999999999964
42
0.41421356237309503
10
-14.99999999999998
20
-44.999999999999943
0
LWPOLYLINE
5
135
100
AcDbEntity
8
0
100
AcDbPolyline
90
8
70
1
43
0.0
10
-14.99999999999998
20
-44.999999999999957
10
15.00000000000002
20
-44.999999999999964
42
0.4142135623730957
10
18.000000000000025
20
-41.999999999999957
10
18.000000000000011
20
42.000000000000064
42
0.41421356237309725
10
15.000000000000011
20
45.000000000000057
10
-15.000000000000046
20
45.000000000000043
42
0.41421356237309892
10
-18.000000000000039
20
42.000000000000043
10
-17.999999999999982
20
-41.999999999999964
42
0.41421356237309503
0
ENDSEC
0
SECTION
2
OBJECTS
0
DICTIONARY
5
C
100
AcDbDictionary
3
ACAD_GROUP
350
D
3
ACAD_MLINESTYLE
350
17
0
DICTIONARY
5
D
100
AcDbDictionary
0
DICTIONARY
5
1A
330
C
100
AcDbDictionary
0
DICTIONARY
5
17
100
AcDbDictionary
0
ENDSEC
0
EOF
