M48
; DRILL file {KiCad 8.0.1} date 2024-06-19T16:46:33+0200
; FORMAT={-:-/ absolute / inch / decimal}
; #@! TF.CreationDate,2024-06-19T16:46:33+02:00
; #@! TF.GenerationSoftware,Kicad,Pcbnew,8.0.1
; #@! TF.FileFunction,Plated,1,4,PTH
FMAT,2
INCH
; #@! TA.AperFunction,Plated,PTH,ViaDrill
T1C0.0118
; #@! TA.AperFunction,Plated,PTH,ComponentDrill
T2C0.0130
; #@! TA.AperFunction,Plated,PTH,ComponentDrill
T3C0.0374
; #@! TA.AperFunction,Plated,PTH,ComponentDrill
T4C0.0394
; #@! TA.AperFunction,Plated,PTH,ComponentDrill
T5C0.1260
%
G90
G05
T1
X4.39Y-4.24
X4.395Y-4.605
X4.4Y-5.195
X4.405Y-4.86
X4.42Y-2.36
X4.43Y-2.84
X4.43Y-3.395
X4.435Y-3.745
X4.435Y-4.1
X4.46Y-4.315
X4.515Y-5.265
X4.525Y-4.775
X4.525Y-4.98
X4.535Y-3.35
X4.54Y-3.48
X4.54Y-4.2
X4.545Y-3.915
X4.55Y-3.065
X4.595Y-2.5
X4.61Y-2.76
X4.6142Y-4.2323
X4.615Y-4.28
X4.62Y-3.155
X4.62Y-3.305
X4.645Y-2.34
X4.655Y-3.605
X4.655Y-3.805
X4.7Y-4.645
X4.71Y-4.28
X4.74Y-5.3
X4.78Y-4.89
X4.785Y-4.795
X4.795Y-3.035
X4.795Y-3.355
X4.805Y-4.395
X4.81Y-2.855
X4.81Y-5.29
X4.82Y-2.44
X4.83Y-2.935
X4.83Y-3.77
X4.84Y-3.41
X4.84Y-3.475
X4.8425Y-3.3543
X4.855Y-2.625
X4.87Y-5.275
X4.8738Y-4.0903
X4.8843Y-4.7583
X4.885Y-4.95
X4.895Y-2.965
X4.9055Y-3.2087
X4.9055Y-3.3543
X4.9055Y-3.4488
X4.91Y-3.13
X4.925Y-4.28
X4.9291Y-4.0866
X4.93Y-2.625
X4.9331Y-2.29
X4.9449Y-3.7441
X4.9528Y-3.3346
X4.9528Y-3.9213
X4.9588Y-2.9087
X4.9764Y-4.6457
X4.99Y-2.29
X4.99Y-4.07
X4.99Y-4.585
X4.995Y-4.5
X5.015Y-5.365
X5.02Y-3.15
X5.025Y-4.995
X5.025Y-5.095
X5.0335Y-2.3935
X5.035Y-2.845
X5.0354Y-4.26
X5.04Y-2.735
X5.045Y-2.805
X5.0472Y-3.7323
X5.0647Y-3.374
X5.065Y-3.2185
X5.065Y-4.595
X5.0709Y-3.9173
X5.0748Y-4.4724
X5.075Y-4.315
X5.085Y-3.46
X5.09Y-4.07
X5.1Y-2.79
X5.1Y-3.075
X5.11Y-2.9
X5.1122Y-4.1555
X5.125Y-2.17
X5.126Y-3.8091
X5.135Y-5.27
X5.14Y-2.74
X5.145Y-4.985
X5.155Y-3.735
X5.155Y-4.81
X5.16Y-3.23
X5.175Y-3.315
X5.18Y-4.17
X5.185Y-2.3
X5.195Y-3.465
X5.2Y-3.374
X5.205Y-3.8
X5.235Y-2.995
X5.29Y-2.335
X5.305Y-4.51
X5.305Y-4.58
X5.311Y-4.2992
X5.33Y-2.47
X5.36Y-5.295
X5.365Y-2.605
X5.395Y-3.475
X5.4Y-5.32
X5.405Y-4.4
X5.4075Y-4.2185
X5.42Y-4.94
X5.425Y-4.32
X5.435Y-3.15
X5.44Y-2.85
X5.44Y-2.985
X5.445Y-3.205
X5.445Y-3.285
X5.46Y-2.7
X5.4606Y-4.195
X5.49Y-5.25
X5.4921Y-4.7756
X5.4941Y-4.5925
X5.54Y-4.73
X5.555Y-4.275
X5.555Y-4.95
X5.575Y-2.465
X5.59Y-4.65
X5.595Y-4.51
X5.6Y-2.61
X5.61Y-3.745
X5.61Y-3.875
X5.61Y-4.1
X5.61Y-4.18
X5.615Y-2.965
X5.615Y-3.515
X5.63Y-2.845
X5.67Y-4.975
X5.68Y-4.41
X5.685Y-4.655
X5.6887Y-5.2774
X5.69Y-2.36
T2
X4.6171Y-5.002
X4.6171Y-5.0531
X4.6683Y-5.002
X4.6683Y-5.0531
X4.7195Y-5.002
X4.7195Y-5.0531
X5.2386Y-5.0006
X5.2386Y-5.0518
X5.2898Y-5.0006
X5.2898Y-5.0518
X5.3409Y-5.0006
X5.3409Y-5.0518
T3
X4.4331Y-3.0297
X4.4331Y-3.1281
X4.4331Y-3.2266
X4.4331Y-3.325
X4.6847Y-2.18
X4.7831Y-2.18
X4.8816Y-2.18
X4.98Y-2.18
X5.6142Y-3.0381
X5.6142Y-3.1366
X5.6142Y-3.235
X5.6142Y-3.3334
T4
X4.4331Y-2.6716
X4.4331Y-2.77
X4.4331Y-3.5827
X4.4331Y-3.6811
X4.4331Y-3.937
X4.4331Y-4.0354
X4.6908Y-5.4782
X4.7244Y-2.7559
X4.7244Y-2.8559
X4.7244Y-2.9559
X4.7244Y-3.0559
X4.7244Y-3.1559
X4.7244Y-3.2559
X4.7244Y-3.3559
X4.7244Y-3.4559
X4.7244Y-3.5559
X4.7244Y-3.6559
X4.7244Y-3.7559
X4.7244Y-3.8559
X4.7244Y-3.9559
X4.7244Y-4.0559
X4.7244Y-4.1559
X4.7892Y-5.4782
X4.8708Y-3.04
X5.17Y-3.04
X5.2616Y-5.48
X5.2666Y-2.18
X5.3244Y-2.7535
X5.3244Y-2.8535
X5.3244Y-2.9535
X5.3244Y-3.0535
X5.3244Y-3.1535
X5.3244Y-3.2535
X5.3244Y-3.3535
X5.3244Y-3.4535
X5.3244Y-3.5535
X5.3244Y-3.6535
X5.3244Y-3.7535
X5.3244Y-3.8535
X5.3244Y-3.9535
X5.3244Y-4.0535
X5.3244Y-4.1535
X5.36Y-5.48
X5.365Y-2.18
X5.6142Y-3.5827
X5.6142Y-3.6811
X5.6142Y-3.937
X5.6142Y-4.0354
T5
X4.4331Y-2.1772
X4.4331Y-5.4843
X5.6142Y-2.1772
X5.6142Y-5.4843
M30
