%TF.GenerationSoftware,KiCad,Pcbnew,8.0.1*%
%TF.CreationDate,2024-06-19T16:46:37+02:00*%
%TF.ProjectId,MotorShield,4d6f746f-7253-4686-9965-6c642e6b6963,V_1*%
%TF.SameCoordinates,Original*%
%TF.FileFunction,Copper,L4,Bot*%
%TF.FilePolarity,Positive*%
%FSLAX46Y46*%
G04 Gerber Fmt 4.6, Leading zero omitted, Abs format (unit mm)*
G04 Created by KiCad (PCBNEW 8.0.1) date 2024-06-19 16:46:37*
%MOMM*%
%LPD*%
G01*
G04 APERTURE LIST*
G04 Aperture macros list*
%AMRoundRect*
0 Rectangle with rounded corners*
0 $1 Rounding radius*
0 $2 $3 $4 $5 $6 $7 $8 $9 X,Y pos of 4 corners*
0 Add a 4 corners polygon primitive as box body*
4,1,4,$2,$3,$4,$5,$6,$7,$8,$9,$2,$3,0*
0 Add four circle primitives for the rounded corners*
1,1,$1+$1,$2,$3*
1,1,$1+$1,$4,$5*
1,1,$1+$1,$6,$7*
1,1,$1+$1,$8,$9*
0 Add four rect primitives between the rounded corners*
20,1,$1+$1,$2,$3,$4,$5,0*
20,1,$1+$1,$4,$5,$6,$7,0*
20,1,$1+$1,$6,$7,$8,$9,0*
20,1,$1+$1,$8,$9,$2,$3,0*%
G04 Aperture macros list end*
%TA.AperFunction,ComponentPad*%
%ADD10C,2.000000*%
%TD*%
%TA.AperFunction,ComponentPad*%
%ADD11R,2.000000X2.000000*%
%TD*%
%TA.AperFunction,ComponentPad*%
%ADD12RoundRect,0.250000X-0.600000X-0.750000X0.600000X-0.750000X0.600000X0.750000X-0.600000X0.750000X0*%
%TD*%
%TA.AperFunction,ComponentPad*%
%ADD13O,1.700000X2.000000*%
%TD*%
%TA.AperFunction,ComponentPad*%
%ADD14RoundRect,0.250000X0.725000X-0.600000X0.725000X0.600000X-0.725000X0.600000X-0.725000X-0.600000X0*%
%TD*%
%TA.AperFunction,ComponentPad*%
%ADD15O,1.950000X1.700000*%
%TD*%
%TA.AperFunction,ComponentPad*%
%ADD16RoundRect,0.250000X-0.725000X0.600000X-0.725000X-0.600000X0.725000X-0.600000X0.725000X0.600000X0*%
%TD*%
%TA.AperFunction,ComponentPad*%
%ADD17O,2.000000X1.700000*%
%TD*%
%TA.AperFunction,ComponentPad*%
%ADD18RoundRect,0.250000X0.750000X-0.600000X0.750000X0.600000X-0.750000X0.600000X-0.750000X-0.600000X0*%
%TD*%
%TA.AperFunction,ComponentPad*%
%ADD19RoundRect,0.250000X0.600000X0.750000X-0.600000X0.750000X-0.600000X-0.750000X0.600000X-0.750000X0*%
%TD*%
%TA.AperFunction,ComponentPad*%
%ADD20R,1.700000X1.700000*%
%TD*%
%TA.AperFunction,ComponentPad*%
%ADD21O,1.700000X1.700000*%
%TD*%
%TA.AperFunction,ComponentPad*%
%ADD22RoundRect,0.250000X-0.750000X0.600000X-0.750000X-0.600000X0.750000X-0.600000X0.750000X0.600000X0*%
%TD*%
%TA.AperFunction,ComponentPad*%
%ADD23C,3.600000*%
%TD*%
%TA.AperFunction,ConnectorPad*%
%ADD24C,5.600000*%
%TD*%
%TA.AperFunction,ComponentPad*%
%ADD25C,0.630000*%
%TD*%
%TA.AperFunction,SMDPad,CuDef*%
%ADD26R,3.300000X2.600000*%
%TD*%
%TA.AperFunction,ComponentPad*%
%ADD27O,1.700000X1.950000*%
%TD*%
%TA.AperFunction,ComponentPad*%
%ADD28RoundRect,0.250000X0.600000X0.725000X-0.600000X0.725000X-0.600000X-0.725000X0.600000X-0.725000X0*%
%TD*%
%TA.AperFunction,ViaPad*%
%ADD29C,0.600000*%
%TD*%
%TA.AperFunction,ViaPad*%
%ADD30C,0.500000*%
%TD*%
%TA.AperFunction,Conductor*%
%ADD31C,0.279400*%
%TD*%
%TA.AperFunction,Conductor*%
%ADD32C,0.304800*%
%TD*%
%TA.AperFunction,Conductor*%
%ADD33C,0.762000*%
%TD*%
G04 APERTURE END LIST*
D10*
%TO.P,BZ1,2,-*%
%TO.N,Net-(BZ1--)*%
X123718000Y-77216000D03*
D11*
%TO.P,BZ1,1,+*%
%TO.N,+5V*%
X131318000Y-77216000D03*
%TD*%
D12*
%TO.P,J13,1,Pin_1*%
%TO.N,/OUTB_M2*%
X119146000Y-139146000D03*
D13*
%TO.P,J13,2,Pin_2*%
%TO.N,/OUTA_M2*%
X121646000Y-139146000D03*
%TD*%
D14*
%TO.P,J11,1,Pin_1*%
%TO.N,/ENCODER_2B*%
X142600000Y-84669000D03*
D15*
%TO.P,J11,2,Pin_2*%
%TO.N,/ENCODER_2A*%
X142600000Y-82169000D03*
%TO.P,J11,3,Pin_3*%
%TO.N,+3.3V*%
X142600000Y-79669000D03*
%TO.P,J11,4,Pin_4*%
%TO.N,GND*%
X142600000Y-77169000D03*
%TD*%
D16*
%TO.P,J7,1,Pin_1*%
%TO.N,/ENCODER_1A*%
X112600000Y-76955000D03*
D15*
%TO.P,J7,2,Pin_2*%
%TO.N,/ENCODER_1B*%
X112600000Y-79455000D03*
%TO.P,J7,3,Pin_3*%
%TO.N,+3.3V*%
X112600000Y-81955000D03*
%TO.P,J7,4,Pin_4*%
%TO.N,GND*%
X112600000Y-84455000D03*
%TD*%
D17*
%TO.P,J5,2,Pin_2*%
%TO.N,GND*%
X142600000Y-100000000D03*
D18*
%TO.P,J5,1,Pin_1*%
%TO.N,/IN_GPIO{slash}IT_3*%
X142600000Y-102500000D03*
%TD*%
D13*
%TO.P,J8,2,Pin_2*%
%TO.N,GND*%
X133771000Y-55372000D03*
D19*
%TO.P,J8,1,Pin_1*%
%TO.N,+BATT*%
X136271000Y-55372000D03*
%TD*%
D20*
%TO.P,J2,1,Pin_1*%
%TO.N,unconnected-(J2-Pin_1-Pad1)*%
X135240000Y-105500000D03*
D21*
%TO.P,J2,2,Pin_2*%
%TO.N,+3.3V*%
X135240000Y-102960000D03*
%TO.P,J2,3,Pin_3*%
X135240000Y-100420000D03*
%TO.P,J2,4,Pin_4*%
%TO.N,unconnected-(J2-Pin_4-Pad4)*%
X135240000Y-97880000D03*
%TO.P,J2,5,Pin_5*%
%TO.N,/ENCODER_2A*%
X135240000Y-95340000D03*
%TO.P,J2,6,Pin_6*%
%TO.N,/UART2-STLINK*%
X135240000Y-92800000D03*
%TO.P,J2,7,Pin_7*%
%TO.N,/ADC9*%
X135240000Y-90260000D03*
%TO.P,J2,8,Pin_8*%
%TO.N,/ENCODER_2B*%
X135240000Y-87720000D03*
%TO.P,J2,9,Pin_9*%
%TO.N,/GPIO{slash}IT_6*%
X135240000Y-85180000D03*
%TO.P,J2,10,Pin_10*%
%TO.N,/GPIO{slash}IT_5*%
X135240000Y-82640000D03*
%TO.P,J2,11,Pin_11*%
%TO.N,unconnected-(J2-Pin_11-Pad11)*%
X135240000Y-80100000D03*
%TO.P,J2,12,Pin_12*%
%TO.N,+5V*%
X135240000Y-77560000D03*
%TO.P,J2,13,Pin_13*%
%TO.N,unconnected-(J2-Pin_13-Pad13)*%
X135240000Y-75020000D03*
%TO.P,J2,14,Pin_14*%
%TO.N,GND*%
X135240000Y-72480000D03*
%TO.P,J2,15,Pin_15*%
%TO.N,VCC*%
X135240000Y-69940000D03*
%TD*%
D17*
%TO.P,J4,2,Pin_2*%
%TO.N,GND*%
X112600000Y-93500000D03*
D22*
%TO.P,J4,1,Pin_1*%
%TO.N,/IN_GPIO{slash}IT_1*%
X112600000Y-91000000D03*
%TD*%
D13*
%TO.P,J10,2,Pin_2*%
%TO.N,/OUTA_M1*%
X136144000Y-139192000D03*
D12*
%TO.P,J10,1,Pin_1*%
%TO.N,/OUTB_M1*%
X133644000Y-139192000D03*
%TD*%
D23*
%TO.P,REF\u002A\u002A,1*%
%TO.N,N/C*%
X112600000Y-55300000D03*
D24*
X112600000Y-55300000D03*
%TD*%
D17*
%TO.P,J12,2,Pin_2*%
%TO.N,GND*%
X112600000Y-70358000D03*
D22*
%TO.P,J12,1,Pin_1*%
%TO.N,/UART2-STLINK*%
X112600000Y-67858000D03*
%TD*%
D17*
%TO.P,J6,2,Pin_2*%
%TO.N,GND*%
X112600000Y-102500000D03*
D22*
%TO.P,J6,1,Pin_1*%
%TO.N,/IN_GPIO{slash}IT_2*%
X112600000Y-100000000D03*
%TD*%
D25*
%TO.P,U6,9,GND*%
%TO.N,GND*%
X117275000Y-128350000D03*
X118575000Y-128350000D03*
X119875000Y-128350000D03*
D26*
X118575000Y-127700000D03*
D25*
X117275000Y-127050000D03*
X118575000Y-127050000D03*
X119875000Y-127050000D03*
%TD*%
D20*
%TO.P,J1,1,Pin_1*%
%TO.N,/ENCODER_1A*%
X120000000Y-70000000D03*
D21*
%TO.P,J1,2,Pin_2*%
%TO.N,/PWM_2*%
X120000000Y-72540000D03*
%TO.P,J1,3,Pin_3*%
%TO.N,unconnected-(J1-Pin_3-Pad3)*%
X120000000Y-75080000D03*
%TO.P,J1,4,Pin_4*%
%TO.N,GND*%
X120000000Y-77620000D03*
%TO.P,J1,5,Pin_5*%
%TO.N,/GPIO{slash}IT_4*%
X120000000Y-80160000D03*
%TO.P,J1,6,Pin_6*%
%TO.N,/ADC15*%
X120000000Y-82700000D03*
%TO.P,J1,7,Pin_7*%
%TO.N,/UART1-RX*%
X120000000Y-85240000D03*
%TO.P,J1,8,Pin_8*%
%TO.N,/UART1-TX*%
X120000000Y-87780000D03*
%TO.P,J1,9,Pin_9*%
%TO.N,/GPIO{slash}IT_3*%
X120000000Y-90320000D03*
%TO.P,J1,10,Pin_10*%
%TO.N,unconnected-(J1-Pin_10-Pad10)*%
X120000000Y-92860000D03*
%TO.P,J1,11,Pin_11*%
%TO.N,unconnected-(J1-Pin_11-Pad11)*%
X120000000Y-95400000D03*
%TO.P,J1,12,Pin_12*%
%TO.N,/ENCODER_1B*%
X120000000Y-97940000D03*
%TO.P,J1,13,Pin_13*%
%TO.N,/PWM_1*%
X120000000Y-100480000D03*
%TO.P,J1,14,Pin_14*%
%TO.N,/GPIO{slash}IT_2*%
X120000000Y-103020000D03*
%TO.P,J1,15,Pin_15*%
%TO.N,/GPIO{slash}IT_1*%
X120000000Y-105560000D03*
%TD*%
D25*
%TO.P,U5,9,GND*%
%TO.N,GND*%
X133060000Y-128315000D03*
X134360000Y-128315000D03*
X135660000Y-128315000D03*
D26*
X134360000Y-127665000D03*
D25*
X133060000Y-127015000D03*
X134360000Y-127015000D03*
X135660000Y-127015000D03*
%TD*%
D17*
%TO.P,J3,2,Pin_2*%
%TO.N,GND*%
X142600000Y-91000000D03*
D18*
%TO.P,J3,1,Pin_1*%
%TO.N,/IN_GPIO{slash}IT_4*%
X142600000Y-93500000D03*
%TD*%
D23*
%TO.P,REF\u002A\u002A,1*%
%TO.N,N/C*%
X142600000Y-55300000D03*
D24*
X142600000Y-55300000D03*
%TD*%
D23*
%TO.P,REF\u002A\u002A,1*%
%TO.N,N/C*%
X142600000Y-139300000D03*
D24*
X142600000Y-139300000D03*
%TD*%
D27*
%TO.P,J9,4,Pin_4*%
%TO.N,GNDD-EXT*%
X118992000Y-55372000D03*
%TO.P,J9,3,Pin_3*%
%TO.N,/UART1-TX-EXT*%
X121492000Y-55372000D03*
%TO.P,J9,2,Pin_2*%
%TO.N,/UART1-RX-EXT*%
X123992000Y-55372000D03*
D28*
%TO.P,J9,1,Pin_1*%
%TO.N,+3.3V-EXT*%
X126492000Y-55372000D03*
%TD*%
D23*
%TO.P,REF\u002A\u002A,1*%
%TO.N,N/C*%
X112600000Y-139300000D03*
D24*
X112600000Y-139300000D03*
%TD*%
D29*
%TO.N,GND*%
X127635000Y-129413000D03*
X118237000Y-91567000D03*
X122936000Y-86614000D03*
X122174000Y-72517000D03*
X138176000Y-72390000D03*
X142494000Y-104140000D03*
X142494000Y-95123000D03*
X139446000Y-133350000D03*
X141986000Y-118110000D03*
X117221000Y-108712000D03*
X117348000Y-83947000D03*
X111633000Y-116967000D03*
X144399000Y-118237000D03*
X121793000Y-77089000D03*
X115316000Y-106680000D03*
X115189000Y-85090000D03*
X131445000Y-84201000D03*
X129540000Y-70866000D03*
X129794000Y-73660000D03*
X127508000Y-80010000D03*
%TO.N,/UART2-STLINK*%
X132969000Y-76073000D03*
%TO.N,/UART1-RX*%
X122682000Y-74549000D03*
%TO.N,GND*%
X126746000Y-58166000D03*
X119380000Y-117983000D03*
X134747000Y-114554000D03*
X134747000Y-116332000D03*
X128651000Y-116713000D03*
X124079000Y-125730000D03*
X119634000Y-108712000D03*
X117983000Y-59436000D03*
X138684000Y-68580000D03*
X130556000Y-69596000D03*
X142494000Y-98425000D03*
X130429000Y-133858000D03*
X138049000Y-80010000D03*
X130175000Y-55118000D03*
X131064000Y-82042000D03*
X122047000Y-111633000D03*
X122936000Y-88265000D03*
X115570000Y-77851000D03*
X143002000Y-72263000D03*
X142621000Y-75311000D03*
X111887000Y-123444000D03*
X115443000Y-99441000D03*
X121412000Y-124206000D03*
X117348000Y-80137000D03*
X141097000Y-108585000D03*
X128905000Y-109601000D03*
X131699000Y-58420000D03*
X144493664Y-134045788D03*
X123698000Y-133985000D03*
X135382000Y-62738000D03*
X116713000Y-63500000D03*
X129540000Y-78105000D03*
X132207000Y-96520000D03*
X142113000Y-114554000D03*
X141097000Y-125730000D03*
X127889000Y-72263000D03*
X112522000Y-72136000D03*
X112522000Y-86233000D03*
X122682000Y-95758000D03*
X129286000Y-103378000D03*
X115316000Y-88392000D03*
X123317000Y-66675000D03*
X130683000Y-126619000D03*
X136144000Y-134493000D03*
X142621000Y-89281000D03*
X144272000Y-112014000D03*
X126873000Y-114300000D03*
X136271000Y-66167000D03*
X131572000Y-105918000D03*
X127635000Y-126873000D03*
X114935000Y-126492000D03*
X134366000Y-59309000D03*
X138303000Y-83439000D03*
X114935000Y-121285000D03*
X144018000Y-126365000D03*
X130937000Y-94869000D03*
X127381000Y-136271000D03*
X114681000Y-133731000D03*
X137287000Y-111760000D03*
X126746000Y-116459000D03*
X112649000Y-104140000D03*
X144526000Y-59944000D03*
X120396000Y-134620000D03*
X121539000Y-121793000D03*
X137668000Y-125476000D03*
X125222000Y-66675000D03*
X128016000Y-69469000D03*
X112649000Y-95123000D03*
X137795000Y-109728000D03*
X130937000Y-122174000D03*
X117094000Y-70104000D03*
X112268000Y-59944000D03*
X140716000Y-120142000D03*
X131953000Y-88011000D03*
X137033000Y-88265000D03*
X121793000Y-85217000D03*
X129159000Y-87884000D03*
X124333000Y-75311000D03*
X142240000Y-66294000D03*
X111760000Y-131953000D03*
X111506000Y-107696000D03*
X125095000Y-108712000D03*
X141605000Y-62611000D03*
X113284000Y-109601000D03*
X126746000Y-103378000D03*
X118237000Y-96647000D03*
X142494000Y-106172000D03*
X138176000Y-75819000D03*
D30*
%TO.N,+3.3V*%
X125200000Y-103800000D03*
X128143000Y-71247000D03*
X124600000Y-87600000D03*
X127900000Y-108204000D03*
X125800000Y-84700000D03*
D29*
X128651000Y-81749000D03*
D30*
%TO.N,/UART1-TX*%
X125952250Y-73882250D03*
X124600000Y-81500000D03*
D29*
%TO.N,+3.3V-EXT*%
X127852000Y-60796000D03*
%TO.N,GNDD-EXT*%
X122428000Y-61976000D03*
D30*
%TO.N,VCC*%
X139550000Y-116650000D03*
X126400000Y-118000000D03*
%TO.N,/PWM_2*%
X124060000Y-120860000D03*
%TO.N,/GPIO{slash}IT_4*%
X124714000Y-79502000D03*
%TO.N,/GPIO{slash}IT_2*%
X123793750Y-103893750D03*
X128800000Y-99500000D03*
%TO.N,/GPIO{slash}IT_1*%
X125800000Y-99600000D03*
%TO.N,/GPIO{slash}IT_3*%
X130200000Y-96750000D03*
X129850000Y-105550000D03*
%TO.N,/PWM_1*%
X139500000Y-121300000D03*
%TO.N,/ADC15*%
X117200000Y-107500000D03*
%TO.N,/ADC9*%
X137350000Y-107150000D03*
X128900000Y-113600000D03*
D29*
%TO.N,/ENCODER_2A*%
X138303000Y-81407000D03*
D30*
%TO.N,/GPIO{slash}IT_5*%
X138700000Y-106553000D03*
%TO.N,/GPIO{slash}IT_6*%
X134900000Y-109200000D03*
%TO.N,/Avionic - GPIO/OUT_ISO_N1*%
X124600000Y-85200000D03*
X128200000Y-94800000D03*
%TO.N,/Avionic - GPIO/OUT_ISO_N2*%
X123000000Y-85200000D03*
X125600000Y-95100000D03*
D29*
%TO.N,/UART1-RX-EXT*%
X125300000Y-58166000D03*
%TO.N,/OUTB_M1*%
X137160000Y-135128000D03*
%TO.N,/OUTB_M2*%
X122174000Y-134366000D03*
%TO.N,/IN_GPIO{slash}IT_4*%
X132080000Y-85700000D03*
X128642500Y-85700000D03*
%TD*%
D31*
%TO.N,/UART2-STLINK*%
X127675000Y-67858000D02*
X112600000Y-67858000D01*
X132969000Y-73152000D02*
X127675000Y-67858000D01*
X134964000Y-92800000D02*
X132969000Y-90805000D01*
X135240000Y-92800000D02*
X134964000Y-92800000D01*
X132969000Y-90805000D02*
X132969000Y-73152000D01*
%TO.N,+3.3V*%
X128651000Y-71755000D02*
X128651000Y-81749000D01*
X128143000Y-71247000D02*
X128651000Y-71755000D01*
X112903000Y-81788000D02*
X112767000Y-81788000D01*
X114300000Y-76327000D02*
X114300000Y-80391000D01*
X112767000Y-81788000D02*
X112600000Y-81955000D01*
X119380000Y-71247000D02*
X114300000Y-76327000D01*
X114300000Y-80391000D02*
X112903000Y-81788000D01*
X128143000Y-71247000D02*
X119380000Y-71247000D01*
%TO.N,/UART1-TX*%
X124600000Y-80600000D02*
X124600000Y-81500000D01*
X125700000Y-74134500D02*
X125700000Y-79500000D01*
X125952250Y-73882250D02*
X125700000Y-74134500D01*
X125700000Y-79500000D02*
X124600000Y-80600000D01*
%TO.N,/UART1-RX*%
X119253000Y-76327000D02*
X120904000Y-76327000D01*
X120904000Y-76327000D02*
X122682000Y-74549000D01*
X118110000Y-80518000D02*
X118110000Y-77470000D01*
X118110000Y-77470000D02*
X119253000Y-76327000D01*
X118999000Y-81407000D02*
X118110000Y-80518000D01*
X121031000Y-81407000D02*
X118999000Y-81407000D01*
X121539000Y-81915000D02*
X121031000Y-81407000D01*
X121539000Y-83701000D02*
X121539000Y-81915000D01*
X120000000Y-85240000D02*
X121539000Y-83701000D01*
%TO.N,+3.3V*%
X124600000Y-87600000D02*
X124600000Y-90100000D01*
X135240000Y-100420000D02*
X135240000Y-102960000D01*
X127300000Y-107604000D02*
X127300000Y-105329000D01*
X133800000Y-96900000D02*
X133800000Y-99000000D01*
X132700000Y-95800000D02*
X133800000Y-96900000D01*
X133800000Y-99000000D02*
X135220000Y-100420000D01*
X124600000Y-90100000D02*
X130300000Y-95800000D01*
X126111000Y-104140000D02*
X125540000Y-104140000D01*
X125800000Y-84700000D02*
X125800000Y-84600000D01*
X127300000Y-105329000D02*
X126111000Y-104140000D01*
X135220000Y-100420000D02*
X135240000Y-100420000D01*
X127900000Y-108204000D02*
X127300000Y-107604000D01*
X125540000Y-104140000D02*
X125200000Y-103800000D01*
X130300000Y-95800000D02*
X132700000Y-95800000D01*
X125800000Y-84600000D02*
X128651000Y-81749000D01*
D32*
%TO.N,+3.3V-EXT*%
X127852000Y-60796000D02*
X128524000Y-60124000D01*
X128524000Y-57404000D02*
X126492000Y-55372000D01*
X128524000Y-60124000D02*
X128524000Y-57404000D01*
D31*
%TO.N,GNDD-EXT*%
X118999000Y-55372000D02*
X118992000Y-55372000D01*
X122428000Y-61976000D02*
X122428000Y-58801000D01*
X122428000Y-58801000D02*
X118999000Y-55372000D01*
D33*
%TO.N,VCC*%
X138200000Y-118000000D02*
X126400000Y-118000000D01*
X139600000Y-72100000D02*
X137500000Y-70000000D01*
X139550000Y-116650000D02*
X138200000Y-118000000D01*
X135300000Y-70000000D02*
X135240000Y-69940000D01*
X139550000Y-116650000D02*
X139600000Y-116600000D01*
X137500000Y-70000000D02*
X135300000Y-70000000D01*
X139600000Y-116600000D02*
X139600000Y-72100000D01*
D31*
%TO.N,/PWM_2*%
X124060000Y-120360000D02*
X116500000Y-112800000D01*
X124060000Y-120860000D02*
X124060000Y-120360000D01*
X116500000Y-112800000D02*
X116500000Y-76040000D01*
X116500000Y-76040000D02*
X120000000Y-72540000D01*
%TO.N,/GPIO{slash}IT_4*%
X124714000Y-79502000D02*
X124212000Y-79000000D01*
X124212000Y-79000000D02*
X121160000Y-79000000D01*
X121160000Y-79000000D02*
X120000000Y-80160000D01*
%TO.N,/GPIO{slash}IT_2*%
X128800000Y-100308000D02*
X128800000Y-99500000D01*
X126238000Y-102870000D02*
X128800000Y-100308000D01*
X124817500Y-102870000D02*
X126238000Y-102870000D01*
X123793750Y-103893750D02*
X124817500Y-102870000D01*
%TO.N,/GPIO{slash}IT_1*%
X121500000Y-104300000D02*
X121500000Y-101900000D01*
X120000000Y-105560000D02*
X120240000Y-105560000D01*
X125800000Y-100100000D02*
X125800000Y-99600000D01*
X120240000Y-105560000D02*
X121500000Y-104300000D01*
X121500000Y-101900000D02*
X122300000Y-101100000D01*
X122300000Y-101100000D02*
X124800000Y-101100000D01*
X124800000Y-101100000D02*
X125800000Y-100100000D01*
%TO.N,/GPIO{slash}IT_3*%
X121412000Y-92512000D02*
X121412000Y-91732000D01*
X130200000Y-105200000D02*
X130200000Y-96750000D01*
X121412000Y-91732000D02*
X120000000Y-90320000D01*
X130200000Y-96750000D02*
X125650000Y-96750000D01*
X125650000Y-96750000D02*
X121412000Y-92512000D01*
X129850000Y-105550000D02*
X130200000Y-105200000D01*
%TO.N,/PWM_1*%
X118000000Y-102480000D02*
X120000000Y-100480000D01*
X124500000Y-119400000D02*
X117900000Y-112800000D01*
X118000000Y-102500000D02*
X118000000Y-102480000D01*
X117900000Y-112800000D02*
X117900000Y-102600000D01*
X137600000Y-119400000D02*
X124500000Y-119400000D01*
X117900000Y-102600000D02*
X118000000Y-102500000D01*
X139500000Y-121300000D02*
X137600000Y-119400000D01*
%TO.N,/ADC15*%
X117348000Y-107352000D02*
X117348000Y-85352000D01*
X117200000Y-107500000D02*
X117348000Y-107352000D01*
X117348000Y-85352000D02*
X120000000Y-82700000D01*
%TO.N,/ADC9*%
X137300000Y-107100000D02*
X137300000Y-91834000D01*
X133900000Y-108600000D02*
X128900000Y-113600000D01*
X137350000Y-107150000D02*
X135900000Y-108600000D01*
X137300000Y-91834000D02*
X135726000Y-90260000D01*
X135900000Y-108600000D02*
X133900000Y-108600000D01*
X137350000Y-107150000D02*
X137300000Y-107100000D01*
X135726000Y-90260000D02*
X135240000Y-90260000D01*
%TO.N,/ENCODER_2A*%
X135240000Y-95340000D02*
X135240000Y-94600000D01*
X135240000Y-95340000D02*
X135546000Y-95340000D01*
X136641513Y-94244487D02*
X136641513Y-92265500D01*
X134747000Y-91567000D02*
X133731000Y-90551000D01*
X133731000Y-90551000D02*
X133731000Y-81915000D01*
X133731000Y-81915000D02*
X134239000Y-81407000D01*
X135943013Y-91567000D02*
X134747000Y-91567000D01*
X134239000Y-81407000D02*
X138303000Y-81407000D01*
X136641513Y-92265500D02*
X135943013Y-91567000D01*
X135546000Y-95340000D02*
X136641513Y-94244487D01*
%TO.N,/GPIO{slash}IT_5*%
X138700000Y-86100000D02*
X135240000Y-82640000D01*
X138700000Y-106553000D02*
X138700000Y-86100000D01*
%TO.N,/GPIO{slash}IT_6*%
X136300000Y-109200000D02*
X138000000Y-107500000D01*
X138000000Y-87940000D02*
X135240000Y-85180000D01*
X138000000Y-107500000D02*
X138000000Y-87940000D01*
X134900000Y-109200000D02*
X136300000Y-109200000D01*
%TO.N,/Avionic - GPIO/OUT_ISO_N1*%
X124000000Y-90600000D02*
X124000000Y-85800000D01*
X128200000Y-94800000D02*
X124000000Y-90600000D01*
X124000000Y-85800000D02*
X124600000Y-85200000D01*
%TO.N,/Avionic - GPIO/OUT_ISO_N2*%
X125100000Y-95100000D02*
X122047000Y-92047000D01*
X125600000Y-95100000D02*
X125100000Y-95100000D01*
X122047000Y-92047000D02*
X122047000Y-86153000D01*
X122047000Y-86153000D02*
X123000000Y-85200000D01*
%TO.N,/UART1-RX-EXT*%
X125300000Y-56680000D02*
X123992000Y-55372000D01*
X125300000Y-58166000D02*
X125300000Y-56680000D01*
D33*
%TO.N,/OUTB_M1*%
X137160000Y-135128000D02*
X133644000Y-138644000D01*
X133644000Y-138644000D02*
X133644000Y-139192000D01*
%TO.N,/OUTB_M2*%
X122174000Y-134366000D02*
X119146000Y-137394000D01*
X119146000Y-137394000D02*
X119146000Y-139146000D01*
D31*
%TO.N,/IN_GPIO{slash}IT_4*%
X132080000Y-85700000D02*
X128642500Y-85700000D01*
%TD*%
%TA.AperFunction,Conductor*%
%TO.N,GND*%
G36*
X121393420Y-93402517D02*
G01*
X121413237Y-93418617D01*
X125241892Y-97247273D01*
X125241896Y-97247276D01*
X125346747Y-97317336D01*
X125346748Y-97317336D01*
X125346752Y-97317339D01*
X125402613Y-97340477D01*
X125463260Y-97365598D01*
X125586941Y-97390199D01*
X125586945Y-97390200D01*
X125586946Y-97390200D01*
X125713054Y-97390200D01*
X129435800Y-97390200D01*
X129502839Y-97409885D01*
X129548594Y-97462689D01*
X129559800Y-97514200D01*
X129559800Y-98899071D01*
X129540115Y-98966110D01*
X129487311Y-99011865D01*
X129418153Y-99021809D01*
X129354597Y-98992784D01*
X129348119Y-98986752D01*
X129270890Y-98909523D01*
X129270884Y-98909518D01*
X129127697Y-98819547D01*
X129127694Y-98819545D01*
X128968056Y-98763685D01*
X128800003Y-98744751D01*
X128799997Y-98744751D01*
X128631943Y-98763685D01*
X128472305Y-98819545D01*
X128472302Y-98819547D01*
X128329115Y-98909518D01*
X128329109Y-98909523D01*
X128209523Y-99029109D01*
X128209518Y-99029115D01*
X128119547Y-99172302D01*
X128119545Y-99172305D01*
X128063685Y-99331943D01*
X128044751Y-99499997D01*
X128044751Y-99500002D01*
X128063686Y-99668057D01*
X128119542Y-99827687D01*
X128119544Y-99827690D01*
X128140793Y-99861507D01*
X128159800Y-99927479D01*
X128159800Y-99991458D01*
X128140115Y-100058497D01*
X128123481Y-100079139D01*
X126009139Y-102193481D01*
X125947816Y-102226966D01*
X125921458Y-102229800D01*
X124754441Y-102229800D01*
X124630765Y-102254400D01*
X124630753Y-102254404D01*
X124597716Y-102268088D01*
X124582501Y-102274391D01*
X124514256Y-102302658D01*
X124514254Y-102302659D01*
X124409395Y-102372723D01*
X123644152Y-103137966D01*
X123597426Y-103167326D01*
X123466061Y-103213293D01*
X123466050Y-103213298D01*
X123322865Y-103303268D01*
X123322859Y-103303273D01*
X123203273Y-103422859D01*
X123203268Y-103422865D01*
X123113297Y-103566052D01*
X123113295Y-103566055D01*
X123057435Y-103725693D01*
X123038501Y-103893747D01*
X123038501Y-103893752D01*
X123057435Y-104061806D01*
X123113295Y-104221444D01*
X123113297Y-104221447D01*
X123203268Y-104364634D01*
X123203273Y-104364640D01*
X123322859Y-104484226D01*
X123322865Y-104484231D01*
X123466052Y-104574202D01*
X123466055Y-104574204D01*
X123466059Y-104574205D01*
X123466060Y-104574206D01*
X123538663Y-104599610D01*
X123625693Y-104630064D01*
X123793747Y-104648999D01*
X123793750Y-104648999D01*
X123793753Y-104648999D01*
X123961806Y-104630064D01*
X123961809Y-104630063D01*
X124121440Y-104574206D01*
X124121442Y-104574204D01*
X124121444Y-104574204D01*
X124121447Y-104574202D01*
X124264634Y-104484231D01*
X124264635Y-104484230D01*
X124264640Y-104484227D01*
X124384227Y-104364640D01*
X124424614Y-104300363D01*
X124476947Y-104254073D01*
X124546000Y-104243424D01*
X124609849Y-104271799D01*
X124617288Y-104278655D01*
X124729109Y-104390476D01*
X124729115Y-104390481D01*
X124872302Y-104480452D01*
X124872307Y-104480455D01*
X124872310Y-104480456D01*
X125003677Y-104526423D01*
X125050401Y-104555781D01*
X125096736Y-104602116D01*
X125131897Y-104637277D01*
X125236747Y-104707336D01*
X125236748Y-104707336D01*
X125236752Y-104707339D01*
X125304999Y-104735607D01*
X125305000Y-104735608D01*
X125305001Y-104735608D01*
X125353260Y-104755598D01*
X125373772Y-104759677D01*
X125373780Y-104759681D01*
X125373781Y-104759679D01*
X125476944Y-104780201D01*
X125476946Y-104780201D01*
X125609168Y-104780201D01*
X125609188Y-104780200D01*
X125794458Y-104780200D01*
X125861497Y-104799885D01*
X125882139Y-104816519D01*
X126623481Y-105557861D01*
X126656966Y-105619184D01*
X126659800Y-105645542D01*
X126659800Y-107667058D01*
X126684400Y-107790734D01*
X126684401Y-107790738D01*
X126684402Y-107790740D01*
X126690111Y-107804523D01*
X126732658Y-107907243D01*
X126732659Y-107907245D01*
X126802723Y-108012104D01*
X126802726Y-108012107D01*
X127144214Y-108353594D01*
X127173574Y-108400320D01*
X127219542Y-108531689D01*
X127219543Y-108531691D01*
X127309518Y-108674884D01*
X127309523Y-108674890D01*
X127429109Y-108794476D01*
X127429115Y-108794481D01*
X127572302Y-108884452D01*
X127572305Y-108884454D01*
X127572309Y-108884455D01*
X127572310Y-108884456D01*
X127644913Y-108909860D01*
X127731943Y-108940314D01*
X127899997Y-108959249D01*
X127900000Y-108959249D01*
X127900003Y-108959249D01*
X128068056Y-108940314D01*
X128068059Y-108940313D01*
X128227690Y-108884456D01*
X128227692Y-108884454D01*
X128227694Y-108884454D01*
X128227697Y-108884452D01*
X128370884Y-108794481D01*
X128370885Y-108794480D01*
X128370890Y-108794477D01*
X128490477Y-108674890D01*
X128580452Y-108531697D01*
X128580454Y-108531694D01*
X128580455Y-108531691D01*
X128580456Y-108531690D01*
X128636313Y-108372059D01*
X128636313Y-108372058D01*
X128636314Y-108372056D01*
X128655249Y-108204002D01*
X128655249Y-108203997D01*
X128636314Y-108035943D01*
X128591581Y-107908104D01*
X128580456Y-107876310D01*
X128580455Y-107876309D01*
X128580454Y-107876305D01*
X128580452Y-107876302D01*
X128490481Y-107733115D01*
X128490476Y-107733109D01*
X128370890Y-107613523D01*
X128370884Y-107613518D01*
X128227691Y-107523543D01*
X128227689Y-107523542D01*
X128096320Y-107477574D01*
X128049594Y-107448214D01*
X127976519Y-107375139D01*
X127943034Y-107313816D01*
X127940200Y-107287458D01*
X127940200Y-105265945D01*
X127940199Y-105265941D01*
X127931520Y-105222310D01*
X127915598Y-105142260D01*
X127867477Y-105026086D01*
X127867339Y-105025752D01*
X127867338Y-105025750D01*
X127867337Y-105025748D01*
X127797276Y-104920896D01*
X127797273Y-104920892D01*
X126514797Y-103638416D01*
X126515780Y-103637432D01*
X126480405Y-103585503D01*
X126478532Y-103515659D01*
X126514717Y-103455889D01*
X126539959Y-103438028D01*
X126541244Y-103437340D01*
X126541248Y-103437339D01*
X126646104Y-103367276D01*
X127924783Y-102088597D01*
X129297270Y-100716111D01*
X129297271Y-100716108D01*
X129297276Y-100716104D01*
X129332699Y-100663089D01*
X129386311Y-100618286D01*
X129455636Y-100609579D01*
X129518663Y-100639734D01*
X129555382Y-100699177D01*
X129559800Y-100731982D01*
X129559800Y-104777455D01*
X129540115Y-104844494D01*
X129501772Y-104882449D01*
X129379109Y-104959523D01*
X129259523Y-105079109D01*
X129259518Y-105079115D01*
X129169547Y-105222302D01*
X129169545Y-105222305D01*
X129113685Y-105381943D01*
X129094751Y-105549997D01*
X129094751Y-105550002D01*
X129113685Y-105718056D01*
X129169545Y-105877694D01*
X129169547Y-105877697D01*
X129259518Y-106020884D01*
X129259523Y-106020890D01*
X129379109Y-106140476D01*
X129379115Y-106140481D01*
X129522302Y-106230452D01*
X129522305Y-106230454D01*
X129522309Y-106230455D01*
X129522310Y-106230456D01*
X129594913Y-106255860D01*
X129681943Y-106286314D01*
X129849997Y-106305249D01*
X129850000Y-106305249D01*
X129850003Y-106305249D01*
X130018056Y-106286314D01*
X130018059Y-106286313D01*
X130177690Y-106230456D01*
X130177692Y-106230454D01*
X130177694Y-106230454D01*
X130177697Y-106230452D01*
X130320884Y-106140481D01*
X130320885Y-106140480D01*
X130320890Y-106140477D01*
X130440477Y-106020890D01*
X130530454Y-105877694D01*
X130530455Y-105877692D01*
X130559249Y-105795403D01*
X130576423Y-105746321D01*
X130605781Y-105699598D01*
X130697276Y-105608104D01*
X130767339Y-105503248D01*
X130809501Y-105401459D01*
X130815598Y-105386740D01*
X130823801Y-105345496D01*
X130827960Y-105324593D01*
X130827960Y-105324591D01*
X130840201Y-105263055D01*
X130840201Y-105131836D01*
X130840200Y-105131810D01*
X130840200Y-97177479D01*
X130859206Y-97111507D01*
X130880456Y-97077690D01*
X130936313Y-96918059D01*
X130955249Y-96750000D01*
X130951531Y-96716998D01*
X130935879Y-96578084D01*
X130947933Y-96509262D01*
X130995282Y-96457882D01*
X131059099Y-96440200D01*
X132383458Y-96440200D01*
X132450497Y-96459885D01*
X132471139Y-96476519D01*
X133123481Y-97128861D01*
X133156966Y-97190184D01*
X133159800Y-97216542D01*
X133159800Y-99063058D01*
X133184400Y-99186733D01*
X133184401Y-99186735D01*
X133184402Y-99186740D01*
X133196134Y-99215063D01*
X133196135Y-99215065D01*
X133196134Y-99215065D01*
X133232657Y-99303241D01*
X133232664Y-99303254D01*
X133302723Y-99408103D01*
X133302726Y-99408107D01*
X133891142Y-99996521D01*
X133924627Y-100057844D01*
X133923236Y-100116293D01*
X133904937Y-100184589D01*
X133904937Y-100184590D01*
X133884341Y-100419999D01*
X133884341Y-100420000D01*
X133904936Y-100655403D01*
X133904938Y-100655413D01*
X133966094Y-100883655D01*
X133966096Y-100883659D01*
X133966097Y-100883663D01*
X134032730Y-101026558D01*
X134065965Y-101097830D01*
X134065967Y-101097834D01*
X134201501Y-101291395D01*
X134201506Y-101291402D01*
X134368597Y-101458493D01*
X134368603Y-101458498D01*
X134546923Y-101583359D01*
X134590548Y-101637936D01*
X134599800Y-101684934D01*
X134599800Y-101695066D01*
X134580115Y-101762105D01*
X134546923Y-101796641D01*
X134368597Y-101921505D01*
X134201505Y-102088597D01*
X134065965Y-102282169D01*
X134065964Y-102282171D01*
X133966098Y-102496335D01*
X133966094Y-102496344D01*
X133904938Y-102724586D01*
X133904936Y-102724596D01*
X133884341Y-102959999D01*
X133884341Y-102960000D01*
X133904936Y-103195403D01*
X133904938Y-103195413D01*
X133966094Y-103423655D01*
X133966096Y-103423659D01*
X133966097Y-103423663D01*
X134044560Y-103591927D01*
X134065965Y-103637830D01*
X134065967Y-103637834D01*
X134107977Y-103697830D01*
X134201501Y-103831396D01*
X134201506Y-103831402D01*
X134323430Y-103953326D01*
X134356915Y-104014649D01*
X134351931Y-104084341D01*
X134310059Y-104140274D01*
X134279083Y-104157189D01*
X134147669Y-104206203D01*
X134147664Y-104206206D01*
X134032455Y-104292452D01*
X134032452Y-104292455D01*
X133946206Y-104407664D01*
X133946202Y-104407671D01*
X133895908Y-104542517D01*
X133889501Y-104602116D01*
X133889500Y-104602135D01*
X133889500Y-106397870D01*
X133889501Y-106397876D01*
X133895908Y-106457483D01*
X133946202Y-106592328D01*
X133946206Y-106592335D01*
X134032452Y-106707544D01*
X134032455Y-106707547D01*
X134147664Y-106793793D01*
X134147671Y-106793797D01*
X134282517Y-106844091D01*
X134282516Y-106844091D01*
X134289444Y-106844835D01*
X134342127Y-106850500D01*
X136137872Y-106850499D01*
X136197483Y-106844091D01*
X136332331Y-106793796D01*
X136447546Y-106707546D01*
X136447548Y-106707542D01*
X136448119Y-106706973D01*
X136448831Y-106706583D01*
X136454645Y-106702232D01*
X136455270Y-106703067D01*
X136509442Y-106673488D01*
X136579134Y-106678472D01*
X136635067Y-106720344D01*
X136659484Y-106785808D01*
X136659800Y-106794654D01*
X136659800Y-106829088D01*
X136652841Y-106870043D01*
X136623576Y-106953676D01*
X136594216Y-107000402D01*
X135671139Y-107923481D01*
X135609816Y-107956966D01*
X135583458Y-107959800D01*
X133836941Y-107959800D01*
X133713266Y-107984400D01*
X133713255Y-107984403D01*
X133682178Y-107997275D01*
X133682179Y-107997276D01*
X133596748Y-108032662D01*
X133491896Y-108102723D01*
X133491892Y-108102726D01*
X128750402Y-112844216D01*
X128703676Y-112873576D01*
X128572311Y-112919543D01*
X128572300Y-112919548D01*
X128429115Y-113009518D01*
X128429109Y-113009523D01*
X128309523Y-113129109D01*
X128309518Y-113129115D01*
X128219547Y-113272302D01*
X128219545Y-113272305D01*
X128163685Y-113431943D01*
X128144751Y-113599997D01*
X128144751Y-113600002D01*
X128163685Y-113768056D01*
X128219545Y-113927694D01*
X128219547Y-113927697D01*
X128309518Y-114070884D01*
X128309523Y-114070890D01*
X128429109Y-114190476D01*
X128429115Y-114190481D01*
X128572302Y-114280452D01*
X128572305Y-114280454D01*
X128572309Y-114280455D01*
X128572310Y-114280456D01*
X128644913Y-114305860D01*
X128731943Y-114336314D01*
X128899997Y-114355249D01*
X128900000Y-114355249D01*
X128900003Y-114355249D01*
X129068056Y-114336314D01*
X129068059Y-114336313D01*
X129227690Y-114280456D01*
X129227692Y-114280454D01*
X129227694Y-114280454D01*
X129227697Y-114280452D01*
X129370884Y-114190481D01*
X129370885Y-114190480D01*
X129370890Y-114190477D01*
X129490477Y-114070890D01*
X129580454Y-113927694D01*
X129580456Y-113927689D01*
X129626423Y-113796321D01*
X129655781Y-113749597D01*
X133991389Y-109413989D01*
X134052710Y-109380506D01*
X134122402Y-109385490D01*
X134178335Y-109427362D01*
X134196110Y-109460718D01*
X134219544Y-109527692D01*
X134219547Y-109527697D01*
X134309518Y-109670884D01*
X134309523Y-109670890D01*
X134429108Y-109790475D01*
X134429115Y-109790481D01*
X134572302Y-109880452D01*
X134572305Y-109880454D01*
X134572309Y-109880455D01*
X134572310Y-109880456D01*
X134644913Y-109905860D01*
X134731943Y-109936314D01*
X134899997Y-109955249D01*
X134900000Y-109955249D01*
X134900003Y-109955249D01*
X135068056Y-109936314D01*
X135068059Y-109936313D01*
X135227690Y-109880456D01*
X135261508Y-109859207D01*
X135327481Y-109840200D01*
X136363055Y-109840200D01*
X136363056Y-109840199D01*
X136486740Y-109815598D01*
X136547387Y-109790477D01*
X136603248Y-109767339D01*
X136708104Y-109697276D01*
X138497276Y-107908104D01*
X138497278Y-107908100D01*
X138498646Y-107906435D01*
X138499586Y-107905794D01*
X138501584Y-107903797D01*
X138501962Y-107904175D01*
X138556391Y-107867100D01*
X138626236Y-107865229D01*
X138686005Y-107901416D01*
X138716721Y-107964171D01*
X138718500Y-107985099D01*
X138718500Y-116183508D01*
X138698815Y-116250547D01*
X138682181Y-116271189D01*
X137871189Y-117082181D01*
X137809866Y-117115666D01*
X137783508Y-117118500D01*
X126313178Y-117118500D01*
X126142881Y-117152374D01*
X126142871Y-117152377D01*
X125982459Y-117218821D01*
X125982446Y-117218828D01*
X125838077Y-117315293D01*
X125838073Y-117315296D01*
X125715296Y-117438073D01*
X125715293Y-117438077D01*
X125618828Y-117582446D01*
X125618821Y-117582459D01*
X125552377Y-117742871D01*
X125552374Y-117742881D01*
X125518500Y-117913177D01*
X125518500Y-117913180D01*
X125518500Y-118086820D01*
X125518500Y-118086822D01*
X125518499Y-118086822D01*
X125552374Y-118257118D01*
X125552377Y-118257128D01*
X125618821Y-118417540D01*
X125618828Y-118417553D01*
X125718625Y-118566909D01*
X125739503Y-118633587D01*
X125721018Y-118700967D01*
X125669040Y-118747657D01*
X125615523Y-118759800D01*
X124816542Y-118759800D01*
X124749503Y-118740115D01*
X124728861Y-118723481D01*
X118576519Y-112571139D01*
X118543034Y-112509816D01*
X118540200Y-112483458D01*
X118540200Y-106184332D01*
X118559885Y-106117293D01*
X118612689Y-106071538D01*
X118681847Y-106061594D01*
X118745403Y-106090619D01*
X118776580Y-106131925D01*
X118822525Y-106230452D01*
X118825965Y-106237830D01*
X118825967Y-106237834D01*
X118873172Y-106305249D01*
X118961505Y-106431401D01*
X119128599Y-106598495D01*
X119225384Y-106666265D01*
X119322165Y-106734032D01*
X119322167Y-106734033D01*
X119322170Y-106734035D01*
X119536337Y-106833903D01*
X119536343Y-106833904D01*
X119536344Y-106833905D01*
X119591285Y-106848626D01*
X119764592Y-106895063D01*
X119952918Y-106911539D01*
X119999999Y-106915659D01*
X120000000Y-106915659D01*
X120000001Y-106915659D01*
X120039234Y-106912226D01*
X120235408Y-106895063D01*
X120463663Y-106833903D01*
X120677830Y-106734035D01*
X120871401Y-106598495D01*
X121038495Y-106431401D01*
X121174035Y-106237830D01*
X121273903Y-106023663D01*
X121335063Y-105795408D01*
X121355659Y-105560000D01*
X121343780Y-105424237D01*
X121357546Y-105355741D01*
X121379624Y-105325755D01*
X121997276Y-104708104D01*
X122067339Y-104603248D01*
X122099605Y-104525348D01*
X122107434Y-104506449D01*
X122107436Y-104506443D01*
X122115598Y-104486740D01*
X122140200Y-104363054D01*
X122140200Y-102216542D01*
X122159885Y-102149503D01*
X122176519Y-102128861D01*
X122528861Y-101776519D01*
X122590184Y-101743034D01*
X122616542Y-101740200D01*
X124863055Y-101740200D01*
X124863056Y-101740199D01*
X124986740Y-101715598D01*
X125039116Y-101693903D01*
X125103248Y-101667339D01*
X125208104Y-101597276D01*
X126297276Y-100508104D01*
X126367339Y-100403248D01*
X126412897Y-100293261D01*
X126415598Y-100286740D01*
X126421862Y-100255249D01*
X126435917Y-100184590D01*
X126440201Y-100163056D01*
X126440201Y-100031836D01*
X126440200Y-100031810D01*
X126440200Y-100027479D01*
X126459206Y-99961507D01*
X126480456Y-99927690D01*
X126536313Y-99768059D01*
X126545799Y-99683870D01*
X126555249Y-99600002D01*
X126555249Y-99599997D01*
X126536314Y-99431943D01*
X126491284Y-99303254D01*
X126480456Y-99272310D01*
X126480455Y-99272309D01*
X126480454Y-99272305D01*
X126480452Y-99272302D01*
X126390481Y-99129115D01*
X126390476Y-99129109D01*
X126270890Y-99009523D01*
X126270884Y-99009518D01*
X126127697Y-98919547D01*
X126127694Y-98919545D01*
X125968056Y-98863685D01*
X125800003Y-98844751D01*
X125799997Y-98844751D01*
X125631943Y-98863685D01*
X125472305Y-98919545D01*
X125472302Y-98919547D01*
X125329115Y-99009518D01*
X125329109Y-99009523D01*
X125209523Y-99129109D01*
X125209518Y-99129115D01*
X125119547Y-99272302D01*
X125119545Y-99272305D01*
X125063685Y-99431943D01*
X125044751Y-99599997D01*
X125044751Y-99600002D01*
X125063686Y-99768056D01*
X125080172Y-99815172D01*
X125083733Y-99884951D01*
X125050811Y-99943807D01*
X124571139Y-100423481D01*
X124509816Y-100456966D01*
X124483458Y-100459800D01*
X122236941Y-100459800D01*
X122113265Y-100484400D01*
X122113253Y-100484404D01*
X122080216Y-100498088D01*
X122065001Y-100504391D01*
X121996756Y-100532658D01*
X121996754Y-100532659D01*
X121891895Y-100602723D01*
X121499725Y-100994893D01*
X121438402Y-101028378D01*
X121368710Y-101023394D01*
X121312777Y-100981522D01*
X121288360Y-100916058D01*
X121292269Y-100875119D01*
X121325044Y-100752799D01*
X121335063Y-100715408D01*
X121355659Y-100480000D01*
X121335063Y-100244592D01*
X121279425Y-100036946D01*
X121273905Y-100016344D01*
X121273904Y-100016343D01*
X121273903Y-100016337D01*
X121174035Y-99802171D01*
X121156359Y-99776926D01*
X121038494Y-99608597D01*
X120871402Y-99441506D01*
X120871396Y-99441501D01*
X120685842Y-99311575D01*
X120642217Y-99256998D01*
X120635023Y-99187500D01*
X120666546Y-99125145D01*
X120685842Y-99108425D01*
X120747652Y-99065145D01*
X120871401Y-98978495D01*
X121038495Y-98811401D01*
X121174035Y-98617830D01*
X121273903Y-98403663D01*
X121335063Y-98175408D01*
X121355659Y-97940000D01*
X121335063Y-97704592D01*
X121273903Y-97476337D01*
X121174035Y-97262171D01*
X121163606Y-97247276D01*
X121038494Y-97068597D01*
X120871402Y-96901506D01*
X120871396Y-96901501D01*
X120685842Y-96771575D01*
X120642217Y-96716998D01*
X120635023Y-96647500D01*
X120666546Y-96585145D01*
X120685842Y-96568425D01*
X120770335Y-96509262D01*
X120871401Y-96438495D01*
X121038495Y-96271401D01*
X121174035Y-96077830D01*
X121273903Y-95863663D01*
X121335063Y-95635408D01*
X121355659Y-95400000D01*
X121335063Y-95164592D01*
X121273903Y-94936337D01*
X121174035Y-94722171D01*
X121153407Y-94692710D01*
X121038494Y-94528597D01*
X120871402Y-94361506D01*
X120871396Y-94361501D01*
X120685842Y-94231575D01*
X120642217Y-94176998D01*
X120635023Y-94107500D01*
X120666546Y-94045145D01*
X120685842Y-94028425D01*
X120726437Y-94000000D01*
X120871401Y-93898495D01*
X121038495Y-93731401D01*
X121174035Y-93537830D01*
X121213176Y-93453891D01*
X121259345Y-93401455D01*
X121326538Y-93382302D01*
X121393420Y-93402517D01*
G37*
%TD.AperFunction*%
%TA.AperFunction,Conductor*%
G36*
X118564879Y-85143011D02*
G01*
X118620813Y-85184882D01*
X118645074Y-85248385D01*
X118664936Y-85475403D01*
X118664938Y-85475413D01*
X118726094Y-85703655D01*
X118726096Y-85703659D01*
X118726097Y-85703663D01*
X118799796Y-85861710D01*
X118825965Y-85917830D01*
X118825967Y-85917834D01*
X118961501Y-86111395D01*
X118961506Y-86111402D01*
X119128597Y-86278493D01*
X119128603Y-86278498D01*
X119314158Y-86408425D01*
X119357783Y-86463002D01*
X119364977Y-86532500D01*
X119333454Y-86594855D01*
X119314158Y-86611575D01*
X119128597Y-86741505D01*
X118961505Y-86908597D01*
X118825965Y-87102169D01*
X118825964Y-87102171D01*
X118726098Y-87316335D01*
X118726094Y-87316344D01*
X118664938Y-87544586D01*
X118664936Y-87544596D01*
X118644341Y-87779999D01*
X118644341Y-87780000D01*
X118664936Y-88015403D01*
X118664938Y-88015413D01*
X118726094Y-88243655D01*
X118726096Y-88243659D01*
X118726097Y-88243663D01*
X118797988Y-88397834D01*
X118825965Y-88457830D01*
X118825967Y-88457834D01*
X118961501Y-88651395D01*
X118961506Y-88651402D01*
X119128597Y-88818493D01*
X119128603Y-88818498D01*
X119314158Y-88948425D01*
X119357783Y-89003002D01*
X119364977Y-89072500D01*
X119333454Y-89134855D01*
X119314158Y-89151575D01*
X119128597Y-89281505D01*
X118961505Y-89448597D01*
X118825965Y-89642169D01*
X118825964Y-89642171D01*
X118726098Y-89856335D01*
X118726094Y-89856344D01*
X118664938Y-90084586D01*
X118664936Y-90084596D01*
X118644341Y-90319999D01*
X118644341Y-90320000D01*
X118664936Y-90555403D01*
X118664938Y-90555413D01*
X118726094Y-90783655D01*
X118726096Y-90783659D01*
X118726097Y-90783663D01*
X118796282Y-90934174D01*
X118825965Y-90997830D01*
X118825967Y-90997834D01*
X118961501Y-91191395D01*
X118961506Y-91191402D01*
X119128597Y-91358493D01*
X119128603Y-91358498D01*
X119314158Y-91488425D01*
X119357783Y-91543002D01*
X119364977Y-91612500D01*
X119333454Y-91674855D01*
X119314158Y-91691575D01*
X119128597Y-91821505D01*
X118961505Y-91988597D01*
X118825965Y-92182169D01*
X118825964Y-92182171D01*
X118726098Y-92396335D01*
X118726094Y-92396344D01*
X118664938Y-92624586D01*
X118664936Y-92624596D01*
X118644341Y-92859999D01*
X118644341Y-92860000D01*
X118664936Y-93095403D01*
X118664938Y-93095413D01*
X118726094Y-93323655D01*
X118726096Y-93323659D01*
X118726097Y-93323663D01*
X118797988Y-93477834D01*
X118825965Y-93537830D01*
X118825967Y-93537834D01*
X118961501Y-93731395D01*
X118961506Y-93731402D01*
X119128597Y-93898493D01*
X119128603Y-93898498D01*
X119314158Y-94028425D01*
X119357783Y-94083002D01*
X119364977Y-94152500D01*
X119333454Y-94214855D01*
X119314158Y-94231575D01*
X119128597Y-94361505D01*
X118961505Y-94528597D01*
X118825965Y-94722169D01*
X118825964Y-94722171D01*
X118726098Y-94936335D01*
X118726094Y-94936344D01*
X118664938Y-95164586D01*
X118664936Y-95164596D01*
X118644341Y-95399999D01*
X118644341Y-95400000D01*
X118664936Y-95635403D01*
X118664938Y-95635413D01*
X118726094Y-95863655D01*
X118726096Y-95863659D01*
X118726097Y-95863663D01*
X118797988Y-96017834D01*
X118825965Y-96077830D01*
X118825967Y-96077834D01*
X118961501Y-96271395D01*
X118961506Y-96271402D01*
X119128597Y-96438493D01*
X119128603Y-96438498D01*
X119314158Y-96568425D01*
X119357783Y-96623002D01*
X119364977Y-96692500D01*
X119333454Y-96754855D01*
X119314158Y-96771575D01*
X119128597Y-96901505D01*
X118961505Y-97068597D01*
X118825965Y-97262169D01*
X118825964Y-97262171D01*
X118726098Y-97476335D01*
X118726094Y-97476344D01*
X118664938Y-97704586D01*
X118664936Y-97704596D01*
X118644341Y-97939999D01*
X118644341Y-97940000D01*
X118664936Y-98175403D01*
X118664938Y-98175413D01*
X118726094Y-98403655D01*
X118726096Y-98403659D01*
X118726097Y-98403663D01*
X118797988Y-98557834D01*
X118825965Y-98617830D01*
X118825967Y-98617834D01*
X118961501Y-98811395D01*
X118961506Y-98811402D01*
X119128597Y-98978493D01*
X119128603Y-98978498D01*
X119314158Y-99108425D01*
X119357783Y-99163002D01*
X119364977Y-99232500D01*
X119333454Y-99294855D01*
X119314158Y-99311575D01*
X119128597Y-99441505D01*
X118961505Y-99608597D01*
X118825965Y-99802169D01*
X118825964Y-99802171D01*
X118726098Y-100016335D01*
X118726094Y-100016344D01*
X118664938Y-100244586D01*
X118664936Y-100244596D01*
X118644341Y-100479999D01*
X118644341Y-100480000D01*
X118664937Y-100715408D01*
X118687462Y-100799477D01*
X118685799Y-100869327D01*
X118655368Y-100919250D01*
X118199881Y-101374738D01*
X118138558Y-101408223D01*
X118068867Y-101403239D01*
X118012933Y-101361368D01*
X117988516Y-101295903D01*
X117988200Y-101287057D01*
X117988200Y-85668540D01*
X118007885Y-85601501D01*
X118024515Y-85580863D01*
X118433868Y-85171510D01*
X118495188Y-85138027D01*
X118564879Y-85143011D01*
G37*
%TD.AperFunction*%
%TA.AperFunction,Conductor*%
G36*
X123279134Y-85928759D02*
G01*
X123335067Y-85970631D01*
X123359484Y-86036095D01*
X123359800Y-86044941D01*
X123359800Y-90663054D01*
X123378541Y-90757276D01*
X123378541Y-90757278D01*
X123384399Y-90786732D01*
X123384402Y-90786741D01*
X123432661Y-90903248D01*
X123432662Y-90903250D01*
X123502723Y-91008103D01*
X123502726Y-91008107D01*
X127444214Y-94949594D01*
X127473574Y-94996320D01*
X127519542Y-95127689D01*
X127519543Y-95127691D01*
X127609518Y-95270884D01*
X127609523Y-95270890D01*
X127729109Y-95390476D01*
X127729115Y-95390481D01*
X127872302Y-95480452D01*
X127872305Y-95480454D01*
X127872309Y-95480455D01*
X127872310Y-95480456D01*
X127944913Y-95505860D01*
X128031943Y-95536314D01*
X128199997Y-95555249D01*
X128200000Y-95555249D01*
X128200003Y-95555249D01*
X128368056Y-95536314D01*
X128368059Y-95536313D01*
X128527690Y-95480456D01*
X128527692Y-95480454D01*
X128527694Y-95480454D01*
X128527697Y-95480452D01*
X128670884Y-95390481D01*
X128670885Y-95390480D01*
X128670890Y-95390477D01*
X128740313Y-95321054D01*
X128801636Y-95287569D01*
X128871328Y-95292553D01*
X128915675Y-95321054D01*
X129492740Y-95898119D01*
X129526225Y-95959442D01*
X129521241Y-96029134D01*
X129479369Y-96085067D01*
X129413905Y-96109484D01*
X129405059Y-96109800D01*
X125966542Y-96109800D01*
X125899503Y-96090115D01*
X125878861Y-96073481D01*
X125813992Y-96008612D01*
X125780507Y-95947289D01*
X125785491Y-95877597D01*
X125827363Y-95821664D01*
X125860716Y-95803891D01*
X125927690Y-95780456D01*
X125927693Y-95780453D01*
X125927697Y-95780452D01*
X126070884Y-95690481D01*
X126070885Y-95690480D01*
X126070890Y-95690477D01*
X126190477Y-95570890D01*
X126212203Y-95536314D01*
X126280452Y-95427697D01*
X126280454Y-95427694D01*
X126280454Y-95427692D01*
X126280456Y-95427690D01*
X126336313Y-95268059D01*
X126336313Y-95268058D01*
X126336314Y-95268056D01*
X126355249Y-95100002D01*
X126355249Y-95099997D01*
X126336314Y-94931943D01*
X126304141Y-94839998D01*
X126280456Y-94772310D01*
X126280455Y-94772309D01*
X126280454Y-94772305D01*
X126280452Y-94772302D01*
X126190481Y-94629115D01*
X126190476Y-94629109D01*
X126070890Y-94509523D01*
X126070884Y-94509518D01*
X125927697Y-94419547D01*
X125927694Y-94419545D01*
X125768056Y-94363685D01*
X125600003Y-94344751D01*
X125599997Y-94344751D01*
X125431941Y-94363686D01*
X125431938Y-94363687D01*
X125384824Y-94380172D01*
X125315045Y-94383733D01*
X125256191Y-94350811D01*
X122723519Y-91818139D01*
X122690034Y-91756816D01*
X122687200Y-91730458D01*
X122687200Y-86469541D01*
X122706885Y-86402502D01*
X122723515Y-86381864D01*
X123148119Y-85957259D01*
X123209442Y-85923775D01*
X123279134Y-85928759D01*
G37*
%TD.AperFunction*%
%TA.AperFunction,Conductor*%
G36*
X127425497Y-68517885D02*
G01*
X127446139Y-68534519D01*
X132292481Y-73380861D01*
X132325966Y-73442184D01*
X132328800Y-73468542D01*
X132328800Y-75551540D01*
X132309793Y-75617513D01*
X132284684Y-75657473D01*
X132232349Y-75703764D01*
X132179691Y-75715500D01*
X130270129Y-75715500D01*
X130270123Y-75715501D01*
X130210516Y-75721908D01*
X130075671Y-75772202D01*
X130075664Y-75772206D01*
X129960455Y-75858452D01*
X129960452Y-75858455D01*
X129874206Y-75973664D01*
X129874202Y-75973671D01*
X129823908Y-76108517D01*
X129817501Y-76168116D01*
X129817500Y-76168135D01*
X129817500Y-78263870D01*
X129817501Y-78263876D01*
X129823908Y-78323483D01*
X129874202Y-78458328D01*
X129874206Y-78458335D01*
X129960452Y-78573544D01*
X129960455Y-78573547D01*
X130075664Y-78659793D01*
X130075671Y-78659797D01*
X130210517Y-78710091D01*
X130210516Y-78710091D01*
X130217444Y-78710835D01*
X130270127Y-78716500D01*
X132204800Y-78716499D01*
X132271839Y-78736184D01*
X132317594Y-78788987D01*
X132328800Y-78840499D01*
X132328800Y-84783711D01*
X132309115Y-84850750D01*
X132256311Y-84896505D01*
X132190917Y-84906931D01*
X132080004Y-84894435D01*
X132079996Y-84894435D01*
X131900750Y-84914630D01*
X131900745Y-84914631D01*
X131730476Y-84974211D01*
X131624512Y-85040794D01*
X131558540Y-85059800D01*
X129163960Y-85059800D01*
X129097988Y-85040794D01*
X128992023Y-84974211D01*
X128821754Y-84914631D01*
X128821749Y-84914630D01*
X128642504Y-84894435D01*
X128642496Y-84894435D01*
X128463250Y-84914630D01*
X128463245Y-84914631D01*
X128292976Y-84974211D01*
X128140237Y-85070184D01*
X128012684Y-85197737D01*
X127916711Y-85350476D01*
X127857131Y-85520745D01*
X127857130Y-85520750D01*
X127836935Y-85699996D01*
X127836935Y-85700003D01*
X127857130Y-85879249D01*
X127857131Y-85879254D01*
X127916711Y-86049523D01*
X127958822Y-86116542D01*
X128012684Y-86202262D01*
X128140238Y-86329816D01*
X128230580Y-86386582D01*
X128274271Y-86414035D01*
X128292978Y-86425789D01*
X128393700Y-86461033D01*
X128463245Y-86485368D01*
X128463250Y-86485369D01*
X128642496Y-86505565D01*
X128642500Y-86505565D01*
X128642504Y-86505565D01*
X128821749Y-86485369D01*
X128821752Y-86485368D01*
X128821755Y-86485368D01*
X128992022Y-86425789D01*
X129097988Y-86359205D01*
X129163960Y-86340200D01*
X131558540Y-86340200D01*
X131624511Y-86359205D01*
X131652889Y-86377036D01*
X131711771Y-86414035D01*
X131730478Y-86425789D01*
X131831200Y-86461033D01*
X131900745Y-86485368D01*
X131900750Y-86485369D01*
X132079996Y-86505565D01*
X132080000Y-86505565D01*
X132080003Y-86505565D01*
X132190916Y-86493068D01*
X132259738Y-86505122D01*
X132311118Y-86552471D01*
X132328800Y-86616288D01*
X132328800Y-90868058D01*
X132353400Y-90991732D01*
X132353402Y-90991740D01*
X132372207Y-91037139D01*
X132372207Y-91037140D01*
X132401657Y-91108241D01*
X132401664Y-91108254D01*
X132471723Y-91213103D01*
X132471726Y-91213107D01*
X133857475Y-92598855D01*
X133890960Y-92660178D01*
X133893322Y-92697343D01*
X133884341Y-92799997D01*
X133884341Y-92800000D01*
X133904936Y-93035403D01*
X133904938Y-93035413D01*
X133966094Y-93263655D01*
X133966096Y-93263659D01*
X133966097Y-93263663D01*
X134045608Y-93434174D01*
X134065965Y-93477830D01*
X134065967Y-93477834D01*
X134201501Y-93671395D01*
X134201506Y-93671402D01*
X134368597Y-93838493D01*
X134368603Y-93838498D01*
X134554158Y-93968425D01*
X134597783Y-94023002D01*
X134604977Y-94092500D01*
X134573454Y-94154855D01*
X134554158Y-94171575D01*
X134368597Y-94301505D01*
X134201505Y-94468597D01*
X134065965Y-94662169D01*
X134065964Y-94662171D01*
X133966098Y-94876335D01*
X133966094Y-94876344D01*
X133904938Y-95104586D01*
X133904936Y-95104596D01*
X133884341Y-95339999D01*
X133884341Y-95340000D01*
X133904936Y-95575403D01*
X133904938Y-95575413D01*
X133966094Y-95803655D01*
X133966096Y-95803659D01*
X133966097Y-95803663D01*
X133974491Y-95821664D01*
X133980867Y-95835337D01*
X133991359Y-95904415D01*
X133962839Y-95968199D01*
X133904363Y-96006438D01*
X133834495Y-96006993D01*
X133780804Y-95975423D01*
X133108104Y-95302723D01*
X133003245Y-95232659D01*
X133003243Y-95232658D01*
X132934999Y-95204391D01*
X132912776Y-95195186D01*
X132886746Y-95184404D01*
X132886734Y-95184400D01*
X132763058Y-95159800D01*
X132763054Y-95159800D01*
X130616541Y-95159800D01*
X130549502Y-95140115D01*
X130528860Y-95123481D01*
X125276519Y-89871139D01*
X125243034Y-89809816D01*
X125240200Y-89783458D01*
X125240200Y-88027479D01*
X125259206Y-87961507D01*
X125280456Y-87927690D01*
X125336313Y-87768059D01*
X125355249Y-87600000D01*
X125355249Y-87599997D01*
X125336314Y-87431943D01*
X125280454Y-87272305D01*
X125280452Y-87272302D01*
X125190481Y-87129115D01*
X125190476Y-87129109D01*
X125070890Y-87009523D01*
X125070884Y-87009518D01*
X124927697Y-86919547D01*
X124927692Y-86919544D01*
X124768053Y-86863685D01*
X124750316Y-86861687D01*
X124685902Y-86834620D01*
X124646347Y-86777025D01*
X124640200Y-86738467D01*
X124640200Y-86116542D01*
X124659885Y-86049503D01*
X124676515Y-86028864D01*
X124749598Y-85955781D01*
X124796321Y-85926423D01*
X124927690Y-85880456D01*
X124927692Y-85880455D01*
X124927697Y-85880452D01*
X125070884Y-85790481D01*
X125070885Y-85790480D01*
X125070890Y-85790477D01*
X125190477Y-85670890D01*
X125228976Y-85609620D01*
X125280452Y-85527697D01*
X125280455Y-85527692D01*
X125295489Y-85484727D01*
X125306385Y-85453588D01*
X125347105Y-85396814D01*
X125412058Y-85371066D01*
X125464881Y-85380604D01*
X125465738Y-85378156D01*
X125472308Y-85380455D01*
X125472310Y-85380456D01*
X125519059Y-85396814D01*
X125631943Y-85436314D01*
X125799997Y-85455249D01*
X125800000Y-85455249D01*
X125800003Y-85455249D01*
X125968056Y-85436314D01*
X125968059Y-85436313D01*
X126127690Y-85380456D01*
X126127692Y-85380454D01*
X126127694Y-85380454D01*
X126127697Y-85380452D01*
X126270884Y-85290481D01*
X126270885Y-85290480D01*
X126270890Y-85290477D01*
X126390477Y-85170890D01*
X126395713Y-85162557D01*
X126480452Y-85027697D01*
X126480454Y-85027694D01*
X126480454Y-85027692D01*
X126480456Y-85027690D01*
X126536313Y-84868059D01*
X126538194Y-84851371D01*
X126544025Y-84799613D01*
X126571091Y-84735198D01*
X126579554Y-84725824D01*
X128732809Y-82572569D01*
X128794130Y-82539086D01*
X128806592Y-82537033D01*
X128830255Y-82534368D01*
X129000522Y-82474789D01*
X129153262Y-82378816D01*
X129280816Y-82251262D01*
X129376789Y-82098522D01*
X129436368Y-81928255D01*
X129444966Y-81851945D01*
X129456565Y-81749003D01*
X129456565Y-81748996D01*
X129436369Y-81569750D01*
X129436368Y-81569745D01*
X129389773Y-81436585D01*
X129376789Y-81399478D01*
X129334353Y-81331941D01*
X129310206Y-81293511D01*
X129291200Y-81227539D01*
X129291200Y-71691945D01*
X129291199Y-71691941D01*
X129274720Y-71609095D01*
X129266598Y-71568260D01*
X129218338Y-71451751D01*
X129218337Y-71451750D01*
X129218334Y-71451744D01*
X129148276Y-71346896D01*
X129148273Y-71346892D01*
X129054785Y-71253404D01*
X129054762Y-71253383D01*
X128898783Y-71097404D01*
X128869423Y-71050678D01*
X128823456Y-70919310D01*
X128823455Y-70919307D01*
X128823452Y-70919302D01*
X128733481Y-70776115D01*
X128733476Y-70776109D01*
X128613890Y-70656523D01*
X128613884Y-70656518D01*
X128470697Y-70566547D01*
X128470694Y-70566545D01*
X128311056Y-70510685D01*
X128143003Y-70491751D01*
X128142997Y-70491751D01*
X127974943Y-70510685D01*
X127815306Y-70566545D01*
X127781492Y-70587793D01*
X127715519Y-70606800D01*
X121474500Y-70606800D01*
X121407461Y-70587115D01*
X121361706Y-70534311D01*
X121350500Y-70482800D01*
X121350499Y-69102129D01*
X121350498Y-69102123D01*
X121350497Y-69102116D01*
X121344091Y-69042517D01*
X121293796Y-68907669D01*
X121293795Y-68907668D01*
X121293793Y-68907664D01*
X121207547Y-68792456D01*
X121207548Y-68792456D01*
X121207546Y-68792454D01*
X121112718Y-68721465D01*
X121070848Y-68665533D01*
X121065864Y-68595841D01*
X121099349Y-68534518D01*
X121160673Y-68501034D01*
X121187030Y-68498200D01*
X127358458Y-68498200D01*
X127425497Y-68517885D01*
G37*
%TD.AperFunction*%
%TA.AperFunction,Conductor*%
G36*
X136806132Y-87651512D02*
G01*
X137082308Y-87927687D01*
X137323481Y-88168860D01*
X137356966Y-88230183D01*
X137359800Y-88256541D01*
X137359800Y-90689058D01*
X137340115Y-90756097D01*
X137287311Y-90801852D01*
X137218153Y-90811796D01*
X137154597Y-90782771D01*
X137148119Y-90776739D01*
X136624147Y-90252767D01*
X136590662Y-90191444D01*
X136588300Y-90175893D01*
X136575063Y-90024592D01*
X136513903Y-89796337D01*
X136414035Y-89582171D01*
X136320508Y-89448599D01*
X136278494Y-89388597D01*
X136111402Y-89221506D01*
X136111396Y-89221501D01*
X135925842Y-89091575D01*
X135882217Y-89036998D01*
X135875023Y-88967500D01*
X135906546Y-88905145D01*
X135925842Y-88888425D01*
X136108800Y-88760316D01*
X136111401Y-88758495D01*
X136278495Y-88591401D01*
X136414035Y-88397830D01*
X136513903Y-88183663D01*
X136575063Y-87955408D01*
X136594925Y-87728386D01*
X136620377Y-87663318D01*
X136676968Y-87622339D01*
X136746730Y-87618461D01*
X136806132Y-87651512D01*
G37*
%TD.AperFunction*%
%TA.AperFunction,Conductor*%
G36*
X127781492Y-71906207D02*
G01*
X127815307Y-71927454D01*
X127815307Y-71927455D01*
X127815310Y-71927456D01*
X127927754Y-71966801D01*
X127984530Y-72007523D01*
X128010278Y-72072475D01*
X128010800Y-72083843D01*
X128010800Y-81227539D01*
X127991794Y-81293511D01*
X127925210Y-81399477D01*
X127865630Y-81569750D01*
X127862966Y-81593396D01*
X127835898Y-81657810D01*
X127827427Y-81667191D01*
X125489629Y-84004989D01*
X125467921Y-84022301D01*
X125329111Y-84109521D01*
X125209523Y-84229109D01*
X125209518Y-84229115D01*
X125119547Y-84372302D01*
X125119542Y-84372313D01*
X125093614Y-84446410D01*
X125052892Y-84503186D01*
X124987939Y-84528933D01*
X124935116Y-84519403D01*
X124934262Y-84521844D01*
X124927691Y-84519544D01*
X124927690Y-84519544D01*
X124880941Y-84503186D01*
X124768056Y-84463685D01*
X124600003Y-84444751D01*
X124599997Y-84444751D01*
X124431943Y-84463685D01*
X124272305Y-84519545D01*
X124272302Y-84519547D01*
X124129115Y-84609518D01*
X124129109Y-84609523D01*
X124009523Y-84729109D01*
X124009518Y-84729115D01*
X123919548Y-84872300D01*
X123919543Y-84872311D01*
X123917040Y-84879465D01*
X123876317Y-84936240D01*
X123811364Y-84961985D01*
X123742803Y-84948527D01*
X123692401Y-84900139D01*
X123682958Y-84879460D01*
X123680456Y-84872310D01*
X123680452Y-84872302D01*
X123590481Y-84729115D01*
X123590476Y-84729109D01*
X123470890Y-84609523D01*
X123470884Y-84609518D01*
X123327697Y-84519547D01*
X123327694Y-84519545D01*
X123168056Y-84463685D01*
X123000003Y-84444751D01*
X122999997Y-84444751D01*
X122831943Y-84463685D01*
X122672305Y-84519545D01*
X122672302Y-84519547D01*
X122529115Y-84609518D01*
X122529109Y-84609523D01*
X122409523Y-84729109D01*
X122409518Y-84729115D01*
X122319548Y-84872300D01*
X122319543Y-84872311D01*
X122273576Y-85003676D01*
X122244216Y-85050402D01*
X121549723Y-85744895D01*
X121479659Y-85849753D01*
X121453355Y-85913257D01*
X121453355Y-85913260D01*
X121436558Y-85953814D01*
X121431402Y-85966261D01*
X121431400Y-85966268D01*
X121406800Y-86089941D01*
X121406800Y-87042557D01*
X121387115Y-87109596D01*
X121334311Y-87155351D01*
X121265153Y-87165295D01*
X121201597Y-87136270D01*
X121175414Y-87104560D01*
X121174037Y-87102175D01*
X121174035Y-87102171D01*
X121132293Y-87042557D01*
X121038494Y-86908597D01*
X120871402Y-86741506D01*
X120871396Y-86741501D01*
X120685842Y-86611575D01*
X120642217Y-86556998D01*
X120635023Y-86487500D01*
X120666546Y-86425145D01*
X120685842Y-86408425D01*
X120798107Y-86329816D01*
X120871401Y-86278495D01*
X121038495Y-86111401D01*
X121174035Y-85917830D01*
X121273903Y-85703663D01*
X121335063Y-85475408D01*
X121355659Y-85240000D01*
X121335063Y-85004592D01*
X121312536Y-84920519D01*
X121314199Y-84850673D01*
X121344628Y-84800750D01*
X122036276Y-84109104D01*
X122106339Y-84004248D01*
X122106340Y-84004245D01*
X122106342Y-84004242D01*
X122134284Y-83936782D01*
X122146994Y-83906097D01*
X122154598Y-83887740D01*
X122163112Y-83844937D01*
X122179201Y-83764054D01*
X122179201Y-83637946D01*
X122179201Y-83632836D01*
X122179200Y-83632810D01*
X122179200Y-81851945D01*
X122179199Y-81851941D01*
X122158723Y-81749000D01*
X122154598Y-81728260D01*
X122106338Y-81611751D01*
X122106337Y-81611750D01*
X122106334Y-81611744D01*
X122036276Y-81506896D01*
X122036273Y-81506892D01*
X121942784Y-81413403D01*
X121942763Y-81413383D01*
X121439107Y-80909726D01*
X121439103Y-80909723D01*
X121334254Y-80839664D01*
X121334249Y-80839662D01*
X121334248Y-80839661D01*
X121318925Y-80833314D01*
X121264522Y-80789472D01*
X121242458Y-80723178D01*
X121253996Y-80666351D01*
X121273903Y-80623663D01*
X121335063Y-80395408D01*
X121355659Y-80160000D01*
X121335063Y-79924592D01*
X121312537Y-79840522D01*
X121314200Y-79770673D01*
X121344632Y-79720748D01*
X121388863Y-79676518D01*
X121450186Y-79643033D01*
X121476543Y-79640200D01*
X123879255Y-79640200D01*
X123946294Y-79659885D01*
X123992049Y-79712689D01*
X123996296Y-79723245D01*
X124033543Y-79829690D01*
X124033543Y-79829691D01*
X124123518Y-79972884D01*
X124123523Y-79972890D01*
X124134944Y-79984311D01*
X124168429Y-80045634D01*
X124163445Y-80115326D01*
X124134947Y-80159671D01*
X124102723Y-80191896D01*
X124032662Y-80296748D01*
X124011956Y-80346739D01*
X123984403Y-80413257D01*
X123984400Y-80413267D01*
X123959800Y-80536941D01*
X123959800Y-81072518D01*
X123940794Y-81138490D01*
X123919545Y-81172307D01*
X123863685Y-81331943D01*
X123844751Y-81499997D01*
X123844751Y-81500002D01*
X123863685Y-81668056D01*
X123919545Y-81827694D01*
X123919547Y-81827697D01*
X124009518Y-81970884D01*
X124009523Y-81970890D01*
X124129109Y-82090476D01*
X124129115Y-82090481D01*
X124272302Y-82180452D01*
X124272305Y-82180454D01*
X124272309Y-82180455D01*
X124272310Y-82180456D01*
X124337575Y-82203293D01*
X124431943Y-82236314D01*
X124599997Y-82255249D01*
X124600000Y-82255249D01*
X124600003Y-82255249D01*
X124768056Y-82236314D01*
X124768059Y-82236313D01*
X124927690Y-82180456D01*
X124927692Y-82180454D01*
X124927694Y-82180454D01*
X124927697Y-82180452D01*
X125070884Y-82090481D01*
X125070885Y-82090480D01*
X125070890Y-82090477D01*
X125190477Y-81970890D01*
X125190481Y-81970884D01*
X125280452Y-81827697D01*
X125280454Y-81827694D01*
X125280454Y-81827692D01*
X125280456Y-81827690D01*
X125336313Y-81668059D01*
X125336313Y-81668058D01*
X125336314Y-81668056D01*
X125355249Y-81500002D01*
X125355249Y-81499997D01*
X125336314Y-81331943D01*
X125306655Y-81247184D01*
X125280456Y-81172310D01*
X125259461Y-81138896D01*
X125259206Y-81138490D01*
X125240200Y-81072518D01*
X125240200Y-80916542D01*
X125259885Y-80849503D01*
X125276519Y-80828861D01*
X126197273Y-79908107D01*
X126197276Y-79908104D01*
X126267339Y-79803248D01*
X126295608Y-79734999D01*
X126315598Y-79686740D01*
X126340200Y-79563054D01*
X126340200Y-74593373D01*
X126359885Y-74526334D01*
X126398227Y-74488380D01*
X126423140Y-74472727D01*
X126542727Y-74353140D01*
X126542731Y-74353134D01*
X126632702Y-74209947D01*
X126632704Y-74209944D01*
X126632704Y-74209942D01*
X126632706Y-74209940D01*
X126688563Y-74050309D01*
X126688563Y-74050308D01*
X126688564Y-74050306D01*
X126707499Y-73882252D01*
X126707499Y-73882247D01*
X126688564Y-73714193D01*
X126632704Y-73554555D01*
X126632702Y-73554552D01*
X126542731Y-73411365D01*
X126542726Y-73411359D01*
X126423140Y-73291773D01*
X126423134Y-73291768D01*
X126279947Y-73201797D01*
X126279944Y-73201795D01*
X126120306Y-73145935D01*
X125952253Y-73127001D01*
X125952247Y-73127001D01*
X125784193Y-73145935D01*
X125624555Y-73201795D01*
X125624552Y-73201797D01*
X125481365Y-73291768D01*
X125481359Y-73291773D01*
X125361773Y-73411359D01*
X125361768Y-73411365D01*
X125271798Y-73554550D01*
X125271793Y-73554561D01*
X125225566Y-73686670D01*
X125206096Y-73721324D01*
X125206108Y-73721332D01*
X125206007Y-73721482D01*
X125204384Y-73724372D01*
X125202729Y-73726388D01*
X125132661Y-73831251D01*
X125132657Y-73831259D01*
X125126568Y-73845961D01*
X125126567Y-73845965D01*
X125084403Y-73947757D01*
X125084400Y-73947767D01*
X125059800Y-74071441D01*
X125059800Y-76140323D01*
X125040115Y-76207362D01*
X124987311Y-76253117D01*
X124918153Y-76263061D01*
X124854597Y-76234036D01*
X124844570Y-76224306D01*
X124826931Y-76205145D01*
X124737744Y-76108262D01*
X124541509Y-75955526D01*
X124541507Y-75955525D01*
X124541506Y-75955524D01*
X124322811Y-75837172D01*
X124322802Y-75837169D01*
X124087616Y-75756429D01*
X123842335Y-75715500D01*
X123593665Y-75715500D01*
X123348383Y-75756429D01*
X123113197Y-75837169D01*
X123113188Y-75837172D01*
X122894493Y-75955524D01*
X122698257Y-76108261D01*
X122529833Y-76291217D01*
X122393826Y-76499393D01*
X122293936Y-76727118D01*
X122232892Y-76968175D01*
X122232890Y-76968187D01*
X122212357Y-77215994D01*
X122212357Y-77216005D01*
X122232890Y-77463812D01*
X122232892Y-77463824D01*
X122293936Y-77704881D01*
X122393826Y-77932606D01*
X122529833Y-78140782D01*
X122539992Y-78151817D01*
X122570914Y-78214471D01*
X122563054Y-78283898D01*
X122518907Y-78338053D01*
X122452489Y-78359744D01*
X122448762Y-78359800D01*
X121339227Y-78359800D01*
X121272188Y-78340115D01*
X121226433Y-78287311D01*
X121216489Y-78218153D01*
X121226845Y-78183395D01*
X121273429Y-78083492D01*
X121273432Y-78083486D01*
X121330636Y-77870000D01*
X120433012Y-77870000D01*
X120465925Y-77812993D01*
X120500000Y-77685826D01*
X120500000Y-77554174D01*
X120465925Y-77427007D01*
X120433012Y-77370000D01*
X121330636Y-77370000D01*
X121330635Y-77369999D01*
X121273432Y-77156513D01*
X121273430Y-77156507D01*
X121209454Y-77019312D01*
X121198962Y-76950235D01*
X121227481Y-76886451D01*
X121252945Y-76863805D01*
X121312104Y-76824276D01*
X121312107Y-76824273D01*
X121674938Y-76461442D01*
X122763809Y-75372569D01*
X122825130Y-75339086D01*
X122837592Y-75337033D01*
X122861255Y-75334368D01*
X123031522Y-75274789D01*
X123184262Y-75178816D01*
X123311816Y-75051262D01*
X123407789Y-74898522D01*
X123467368Y-74728255D01*
X123467369Y-74728249D01*
X123487565Y-74549003D01*
X123487565Y-74548996D01*
X123467369Y-74369750D01*
X123467368Y-74369745D01*
X123411450Y-74209940D01*
X123407789Y-74199478D01*
X123311816Y-74046738D01*
X123184262Y-73919184D01*
X123163224Y-73905965D01*
X123031523Y-73823211D01*
X122861254Y-73763631D01*
X122861249Y-73763630D01*
X122682004Y-73743435D01*
X122681996Y-73743435D01*
X122502750Y-73763630D01*
X122502745Y-73763631D01*
X122332476Y-73823211D01*
X122179737Y-73919184D01*
X122052184Y-74046737D01*
X121956210Y-74199478D01*
X121896630Y-74369750D01*
X121893966Y-74393396D01*
X121866898Y-74457810D01*
X121858427Y-74467191D01*
X121517777Y-74807841D01*
X121456454Y-74841326D01*
X121386762Y-74836342D01*
X121330829Y-74794470D01*
X121310321Y-74752253D01*
X121273905Y-74616344D01*
X121273904Y-74616343D01*
X121273903Y-74616337D01*
X121174035Y-74402171D01*
X121151331Y-74369745D01*
X121038494Y-74208597D01*
X120871402Y-74041506D01*
X120871396Y-74041501D01*
X120685842Y-73911575D01*
X120642217Y-73856998D01*
X120635023Y-73787500D01*
X120666546Y-73725145D01*
X120685842Y-73708425D01*
X120748800Y-73664341D01*
X120871401Y-73578495D01*
X121038495Y-73411401D01*
X121174035Y-73217830D01*
X121273903Y-73003663D01*
X121335063Y-72775408D01*
X121355659Y-72540000D01*
X121335063Y-72304592D01*
X121273903Y-72076337D01*
X121267964Y-72063602D01*
X121257474Y-71994526D01*
X121285995Y-71930742D01*
X121344471Y-71892503D01*
X121380348Y-71887200D01*
X127715519Y-71887200D01*
X127781492Y-71906207D01*
G37*
%TD.AperFunction*%
%TA.AperFunction,Conductor*%
G36*
X137847511Y-82066205D02*
G01*
X137953478Y-82132789D01*
X138123739Y-82192366D01*
X138123745Y-82192368D01*
X138123750Y-82192369D01*
X138302996Y-82212565D01*
X138303000Y-82212565D01*
X138303004Y-82212565D01*
X138482249Y-82192369D01*
X138482251Y-82192368D01*
X138482255Y-82192368D01*
X138482258Y-82192366D01*
X138482262Y-82192366D01*
X138553545Y-82167423D01*
X138623323Y-82163860D01*
X138683951Y-82198589D01*
X138716179Y-82260582D01*
X138718500Y-82284464D01*
X138718500Y-84913758D01*
X138698815Y-84980797D01*
X138646011Y-85026552D01*
X138576853Y-85036496D01*
X138513297Y-85007471D01*
X138506819Y-85001439D01*
X136584630Y-83079250D01*
X136551145Y-83017927D01*
X136552536Y-82959476D01*
X136575063Y-82875408D01*
X136595659Y-82640000D01*
X136575063Y-82404592D01*
X136521126Y-82203293D01*
X136522789Y-82133443D01*
X136561952Y-82075581D01*
X136626180Y-82048077D01*
X136640901Y-82047200D01*
X137781540Y-82047200D01*
X137847511Y-82066205D01*
G37*
%TD.AperFunction*%
%TA.AperFunction,Conductor*%
G36*
X118564880Y-74983011D02*
G01*
X118620813Y-75024883D01*
X118645074Y-75088385D01*
X118664936Y-75315403D01*
X118664938Y-75315413D01*
X118726094Y-75543655D01*
X118726096Y-75543659D01*
X118726097Y-75543663D01*
X118816136Y-75736752D01*
X118818154Y-75741079D01*
X118828646Y-75810157D01*
X118800126Y-75873941D01*
X118793453Y-75881165D01*
X117612726Y-77061892D01*
X117612723Y-77061896D01*
X117542664Y-77166745D01*
X117542657Y-77166758D01*
X117522262Y-77215999D01*
X117494404Y-77283253D01*
X117494400Y-77283267D01*
X117469800Y-77406941D01*
X117469800Y-80581058D01*
X117494400Y-80704730D01*
X117494403Y-80704742D01*
X117542661Y-80821248D01*
X117542662Y-80821250D01*
X117612723Y-80926103D01*
X117612726Y-80926107D01*
X118590892Y-81904273D01*
X118590896Y-81904276D01*
X118695747Y-81974336D01*
X118695748Y-81974336D01*
X118695752Y-81974339D01*
X118703903Y-81977715D01*
X118758307Y-82021553D01*
X118780375Y-82087846D01*
X118768836Y-82144681D01*
X118726099Y-82236330D01*
X118726094Y-82236344D01*
X118664938Y-82464586D01*
X118664936Y-82464596D01*
X118644341Y-82699999D01*
X118644341Y-82700000D01*
X118664937Y-82935408D01*
X118687462Y-83019477D01*
X118685799Y-83089327D01*
X118655368Y-83139250D01*
X117351881Y-84442738D01*
X117290558Y-84476223D01*
X117220866Y-84471239D01*
X117164933Y-84429367D01*
X117140516Y-84363903D01*
X117140200Y-84355057D01*
X117140200Y-76356540D01*
X117159885Y-76289501D01*
X117176514Y-76268864D01*
X118433867Y-75011510D01*
X118495188Y-74978027D01*
X118564880Y-74983011D01*
G37*
%TD.AperFunction*%
%TA.AperFunction,Conductor*%
G36*
X137150547Y-70901185D02*
G01*
X137171189Y-70917819D01*
X138682181Y-72428810D01*
X138715666Y-72490133D01*
X138718500Y-72516491D01*
X138718500Y-80529535D01*
X138698815Y-80596574D01*
X138646011Y-80642329D01*
X138576853Y-80652273D01*
X138553546Y-80646577D01*
X138482257Y-80621632D01*
X138482249Y-80621630D01*
X138303004Y-80601435D01*
X138302996Y-80601435D01*
X138123750Y-80621630D01*
X138123745Y-80621631D01*
X137953476Y-80681211D01*
X137866075Y-80736130D01*
X137848593Y-80747115D01*
X137847512Y-80747794D01*
X137781540Y-80766800D01*
X136613819Y-80766800D01*
X136546780Y-80747115D01*
X136501025Y-80694311D01*
X136491081Y-80625153D01*
X136501438Y-80590394D01*
X136513903Y-80563663D01*
X136575063Y-80335408D01*
X136595659Y-80100000D01*
X136575063Y-79864592D01*
X136513903Y-79636337D01*
X136414035Y-79422171D01*
X136365434Y-79352760D01*
X136278494Y-79228597D01*
X136111402Y-79061506D01*
X136111396Y-79061501D01*
X135925842Y-78931575D01*
X135882217Y-78876998D01*
X135875023Y-78807500D01*
X135906546Y-78745145D01*
X135925842Y-78728425D01*
X135952026Y-78710091D01*
X136111401Y-78598495D01*
X136278495Y-78431401D01*
X136414035Y-78237830D01*
X136513903Y-78023663D01*
X136575063Y-77795408D01*
X136595659Y-77560000D01*
X136575063Y-77324592D01*
X136513903Y-77096337D01*
X136414035Y-76882171D01*
X136410655Y-76877343D01*
X136278494Y-76688597D01*
X136111402Y-76521506D01*
X136111396Y-76521501D01*
X135925842Y-76391575D01*
X135882217Y-76336998D01*
X135875023Y-76267500D01*
X135906546Y-76205145D01*
X135925842Y-76188425D01*
X135954846Y-76168116D01*
X136111401Y-76058495D01*
X136278495Y-75891401D01*
X136414035Y-75697830D01*
X136513903Y-75483663D01*
X136575063Y-75255408D01*
X136595659Y-75020000D01*
X136575063Y-74784592D01*
X136513903Y-74556337D01*
X136414035Y-74342171D01*
X136321452Y-74209947D01*
X136278494Y-74148597D01*
X136111402Y-73981506D01*
X136111401Y-73981505D01*
X135925405Y-73851269D01*
X135881781Y-73796692D01*
X135874588Y-73727193D01*
X135906110Y-73664839D01*
X135925405Y-73648119D01*
X136111082Y-73518105D01*
X136278105Y-73351082D01*
X136413600Y-73157578D01*
X136513429Y-72943492D01*
X136513432Y-72943486D01*
X136570636Y-72730000D01*
X135673012Y-72730000D01*
X135705925Y-72672993D01*
X135740000Y-72545826D01*
X135740000Y-72414174D01*
X135705925Y-72287007D01*
X135673012Y-72230000D01*
X136570636Y-72230000D01*
X136570635Y-72229999D01*
X136513432Y-72016513D01*
X136513429Y-72016507D01*
X136413600Y-71802422D01*
X136413599Y-71802420D01*
X136278113Y-71608926D01*
X136278108Y-71608920D01*
X136111078Y-71441890D01*
X135925405Y-71311879D01*
X135881780Y-71257302D01*
X135874588Y-71187804D01*
X135906110Y-71125449D01*
X135925406Y-71108730D01*
X136111401Y-70978495D01*
X136172077Y-70917819D01*
X136233400Y-70884334D01*
X136259758Y-70881500D01*
X137083508Y-70881500D01*
X137150547Y-70901185D01*
G37*
%TD.AperFunction*%
%TA.AperFunction,Conductor*%
G36*
X140195178Y-52820185D02*
G01*
X140240933Y-52872989D01*
X140250877Y-52942147D01*
X140221852Y-53005703D01*
X140213423Y-53014513D01*
X140206099Y-53021450D01*
X140200328Y-53026917D01*
X140200324Y-53026922D01*
X139968641Y-53299680D01*
X139968634Y-53299690D01*
X139767790Y-53595913D01*
X139767784Y-53595922D01*
X139600151Y-53912111D01*
X139600142Y-53912129D01*
X139467674Y-54244600D01*
X139467672Y-54244607D01*
X139371932Y-54589434D01*
X139371926Y-54589460D01*
X139314029Y-54942614D01*
X139314028Y-54942631D01*
X139298225Y-55234108D01*
X139294652Y-55300000D01*
X139309019Y-55564993D01*
X139314028Y-55657368D01*
X139314029Y-55657385D01*
X139371926Y-56010539D01*
X139371932Y-56010565D01*
X139467672Y-56355392D01*
X139467674Y-56355399D01*
X139600142Y-56687870D01*
X139600151Y-56687888D01*
X139767784Y-57004077D01*
X139767787Y-57004082D01*
X139767789Y-57004085D01*
X139799088Y-57050248D01*
X139968634Y-57300309D01*
X139968641Y-57300319D01*
X140100499Y-57455554D01*
X140200332Y-57573086D01*
X140460163Y-57819211D01*
X140745081Y-58035800D01*
X141051747Y-58220315D01*
X141051749Y-58220316D01*
X141051751Y-58220317D01*
X141051755Y-58220319D01*
X141321789Y-58345249D01*
X141376565Y-58370591D01*
X141715726Y-58484868D01*
X142065254Y-58561805D01*
X142421052Y-58600500D01*
X142421058Y-58600500D01*
X142778942Y-58600500D01*
X142778948Y-58600500D01*
X143134746Y-58561805D01*
X143484274Y-58484868D01*
X143823435Y-58370591D01*
X144148253Y-58220315D01*
X144454919Y-58035800D01*
X144739837Y-57819211D01*
X144890227Y-57676753D01*
X144952432Y-57644943D01*
X145021964Y-57651812D01*
X145076743Y-57695183D01*
X145099378Y-57761284D01*
X145099500Y-57766778D01*
X145099500Y-136833221D01*
X145079815Y-136900260D01*
X145027011Y-136946015D01*
X144957853Y-136955959D01*
X144894297Y-136926934D01*
X144890247Y-136923265D01*
X144739837Y-136780789D01*
X144739829Y-136780783D01*
X144739827Y-136780781D01*
X144672245Y-136729407D01*
X144454919Y-136564200D01*
X144148253Y-136379685D01*
X144148252Y-136379684D01*
X144148248Y-136379682D01*
X144148244Y-136379680D01*
X143823447Y-136229414D01*
X143823441Y-136229411D01*
X143823435Y-136229409D01*
X143653854Y-136172270D01*
X143484273Y-136115131D01*
X143134744Y-136038194D01*
X142778949Y-135999500D01*
X142778948Y-135999500D01*
X142421052Y-135999500D01*
X142421050Y-135999500D01*
X142065255Y-136038194D01*
X141715726Y-136115131D01*
X141459970Y-136201306D01*
X141376565Y-136229409D01*
X141376563Y-136229410D01*
X141376552Y-136229414D01*
X141051755Y-136379680D01*
X141051751Y-136379682D01*
X140823367Y-136517096D01*
X140745081Y-136564200D01*
X140656768Y-136631333D01*
X140460172Y-136780781D01*
X140460163Y-136780789D01*
X140200331Y-137026914D01*
X139968641Y-137299680D01*
X139968634Y-137299690D01*
X139767790Y-137595913D01*
X139767784Y-137595922D01*
X139600151Y-137912111D01*
X139600142Y-137912129D01*
X139467674Y-138244600D01*
X139467672Y-138244607D01*
X139371932Y-138589434D01*
X139371926Y-138589460D01*
X139314029Y-138942614D01*
X139314028Y-138942631D01*
X139294652Y-139299997D01*
X139294652Y-139300002D01*
X139314028Y-139657368D01*
X139314029Y-139657385D01*
X139371926Y-140010539D01*
X139371932Y-140010565D01*
X139467672Y-140355392D01*
X139467674Y-140355399D01*
X139600142Y-140687870D01*
X139600151Y-140687888D01*
X139767784Y-141004077D01*
X139767790Y-141004086D01*
X139968634Y-141300309D01*
X139968641Y-141300319D01*
X140200324Y-141573077D01*
X140200328Y-141573082D01*
X140200331Y-141573084D01*
X140200332Y-141573086D01*
X140213414Y-141585478D01*
X140248547Y-141645869D01*
X140245452Y-141715670D01*
X140205111Y-141772718D01*
X140140332Y-141798899D01*
X140128139Y-141799500D01*
X115071861Y-141799500D01*
X115004822Y-141779815D01*
X114959067Y-141727011D01*
X114949123Y-141657853D01*
X114978148Y-141594297D01*
X114986576Y-141585486D01*
X114999668Y-141573086D01*
X115231365Y-141300311D01*
X115432211Y-141004085D01*
X115599853Y-140687880D01*
X115732324Y-140355403D01*
X115828071Y-140010552D01*
X115838654Y-139946001D01*
X117795500Y-139946001D01*
X117795501Y-139946018D01*
X117806000Y-140048796D01*
X117806001Y-140048799D01*
X117861185Y-140215331D01*
X117861187Y-140215336D01*
X117865169Y-140221792D01*
X117953288Y-140364656D01*
X118077344Y-140488712D01*
X118226666Y-140580814D01*
X118393203Y-140635999D01*
X118495991Y-140646500D01*
X119796008Y-140646499D01*
X119898797Y-140635999D01*
X120065334Y-140580814D01*
X120214656Y-140488712D01*
X120338712Y-140364656D01*
X120430814Y-140215334D01*
X120430814Y-140215331D01*
X120434178Y-140209879D01*
X120486126Y-140163154D01*
X120555088Y-140151931D01*
X120619170Y-140179774D01*
X120627398Y-140187294D01*
X120766213Y-140326109D01*
X120938179Y-140451048D01*
X120938181Y-140451049D01*
X120938184Y-140451051D01*
X121127588Y-140547557D01*
X121329757Y-140613246D01*
X121539713Y-140646500D01*
X121539714Y-140646500D01*
X121752286Y-140646500D01*
X121752287Y-140646500D01*
X121962243Y-140613246D01*
X122164412Y-140547557D01*
X122353816Y-140451051D01*
X122409414Y-140410657D01*
X122525786Y-140326109D01*
X122525788Y-140326106D01*
X122525792Y-140326104D01*
X122676104Y-140175792D01*
X122676106Y-140175788D01*
X122676109Y-140175786D01*
X122801048Y-140003820D01*
X122801047Y-140003820D01*
X122801051Y-140003816D01*
X122807071Y-139992001D01*
X132293500Y-139992001D01*
X132293501Y-139992018D01*
X132304000Y-140094796D01*
X132304001Y-140094799D01*
X132349894Y-140233294D01*
X132359186Y-140261334D01*
X132451288Y-140410656D01*
X132575344Y-140534712D01*
X132724666Y-140626814D01*
X132891203Y-140681999D01*
X132993991Y-140692500D01*
X134294008Y-140692499D01*
X134396797Y-140681999D01*
X134563334Y-140626814D01*
X134712656Y-140534712D01*
X134836712Y-140410656D01*
X134928814Y-140261334D01*
X134928814Y-140261331D01*
X134932178Y-140255879D01*
X134984126Y-140209154D01*
X135053088Y-140197931D01*
X135117170Y-140225774D01*
X135125398Y-140233294D01*
X135264213Y-140372109D01*
X135436179Y-140497048D01*
X135436181Y-140497049D01*
X135436184Y-140497051D01*
X135625588Y-140593557D01*
X135827757Y-140659246D01*
X136037713Y-140692500D01*
X136037714Y-140692500D01*
X136250286Y-140692500D01*
X136250287Y-140692500D01*
X136460243Y-140659246D01*
X136662412Y-140593557D01*
X136851816Y-140497051D01*
X136873789Y-140481086D01*
X137023786Y-140372109D01*
X137023788Y-140372106D01*
X137023792Y-140372104D01*
X137174104Y-140221792D01*
X137174106Y-140221788D01*
X137174109Y-140221786D01*
X137299048Y-140049820D01*
X137299047Y-140049820D01*
X137299051Y-140049816D01*
X137395557Y-139860412D01*
X137461246Y-139658243D01*
X137494500Y-139448287D01*
X137494500Y-138935713D01*
X137461246Y-138725757D01*
X137395557Y-138523588D01*
X137299051Y-138334184D01*
X137299049Y-138334181D01*
X137299048Y-138334179D01*
X137174109Y-138162213D01*
X137023786Y-138011890D01*
X136851820Y-137886951D01*
X136662414Y-137790444D01*
X136662413Y-137790443D01*
X136662412Y-137790443D01*
X136460243Y-137724754D01*
X136460241Y-137724753D01*
X136460240Y-137724753D01*
X136295424Y-137698649D01*
X136250287Y-137691500D01*
X136142491Y-137691500D01*
X136075452Y-137671815D01*
X136029697Y-137619011D01*
X136019753Y-137549853D01*
X136048778Y-137486297D01*
X136054810Y-137479819D01*
X137844701Y-135689929D01*
X137844702Y-135689928D01*
X137844702Y-135689927D01*
X137844706Y-135689924D01*
X137941175Y-135545546D01*
X138007625Y-135385124D01*
X138041500Y-135214821D01*
X138041500Y-135041179D01*
X138007625Y-134870876D01*
X137971450Y-134783542D01*
X137941176Y-134710454D01*
X137844704Y-134566073D01*
X137721926Y-134443295D01*
X137577545Y-134346823D01*
X137417124Y-134280375D01*
X137417116Y-134280373D01*
X137246825Y-134246500D01*
X137246821Y-134246500D01*
X137073179Y-134246500D01*
X137073174Y-134246500D01*
X136902883Y-134280373D01*
X136902875Y-134280375D01*
X136742456Y-134346823D01*
X136598071Y-134443297D01*
X133386187Y-137655181D01*
X133324864Y-137688666D01*
X133298506Y-137691500D01*
X132993999Y-137691500D01*
X132993980Y-137691501D01*
X132891203Y-137702000D01*
X132891200Y-137702001D01*
X132724668Y-137757185D01*
X132724663Y-137757187D01*
X132575342Y-137849289D01*
X132451289Y-137973342D01*
X132359187Y-138122663D01*
X132359186Y-138122666D01*
X132304001Y-138289203D01*
X132304001Y-138289204D01*
X132304000Y-138289204D01*
X132293500Y-138391983D01*
X132293500Y-139992001D01*
X122807071Y-139992001D01*
X122897557Y-139814412D01*
X122963246Y-139612243D01*
X122996500Y-139402287D01*
X122996500Y-138889713D01*
X122963246Y-138679757D01*
X122897557Y-138477588D01*
X122801051Y-138288184D01*
X122801049Y-138288181D01*
X122801048Y-138288179D01*
X122676109Y-138116213D01*
X122525786Y-137965890D01*
X122353820Y-137840951D01*
X122164414Y-137744444D01*
X122164413Y-137744443D01*
X122164412Y-137744443D01*
X121962243Y-137678754D01*
X121962241Y-137678753D01*
X121962240Y-137678753D01*
X121800957Y-137653208D01*
X121752287Y-137645500D01*
X121539713Y-137645500D01*
X121491042Y-137653208D01*
X121329760Y-137678753D01*
X121127585Y-137744444D01*
X120938179Y-137840951D01*
X120766215Y-137965889D01*
X120627398Y-138104706D01*
X120566075Y-138138190D01*
X120496383Y-138133206D01*
X120440450Y-138091334D01*
X120434178Y-138082120D01*
X120338712Y-137927344D01*
X120214656Y-137803288D01*
X120214653Y-137803286D01*
X120205058Y-137797367D01*
X120158335Y-137745417D01*
X120147116Y-137676454D01*
X120174962Y-137612373D01*
X120182467Y-137604161D01*
X122858706Y-134927923D01*
X122955175Y-134783546D01*
X123021625Y-134623124D01*
X123055500Y-134452820D01*
X123055500Y-134279179D01*
X123021625Y-134108876D01*
X122988400Y-134028664D01*
X122955176Y-133948454D01*
X122858704Y-133804073D01*
X122735926Y-133681295D01*
X122591545Y-133584823D01*
X122431124Y-133518375D01*
X122431116Y-133518373D01*
X122260825Y-133484500D01*
X122260821Y-133484500D01*
X122087180Y-133484500D01*
X122087175Y-133484500D01*
X121916883Y-133518373D01*
X121916875Y-133518375D01*
X121756457Y-133584823D01*
X121756447Y-133584828D01*
X121612076Y-133681293D01*
X121612073Y-133681296D01*
X118461296Y-136832072D01*
X118461295Y-136832073D01*
X118364822Y-136976456D01*
X118298377Y-137136871D01*
X118298374Y-137136881D01*
X118264500Y-137307177D01*
X118264500Y-137618642D01*
X118244815Y-137685681D01*
X118205597Y-137724181D01*
X118077342Y-137803289D01*
X117953289Y-137927342D01*
X117861187Y-138076663D01*
X117861185Y-138076668D01*
X117856325Y-138091334D01*
X117806001Y-138243203D01*
X117806001Y-138243204D01*
X117806000Y-138243204D01*
X117795500Y-138345983D01*
X117795500Y-139946001D01*
X115838654Y-139946001D01*
X115860226Y-139814414D01*
X115885970Y-139657385D01*
X115885970Y-139657382D01*
X115885972Y-139657371D01*
X115905348Y-139300000D01*
X115885972Y-138942629D01*
X115884838Y-138935713D01*
X115828073Y-138589460D01*
X115828072Y-138589459D01*
X115828071Y-138589448D01*
X115744426Y-138288184D01*
X115732327Y-138244607D01*
X115732325Y-138244600D01*
X115731768Y-138243203D01*
X115665413Y-138076663D01*
X115599857Y-137912129D01*
X115599848Y-137912111D01*
X115432215Y-137595922D01*
X115432213Y-137595919D01*
X115432211Y-137595915D01*
X115231365Y-137299689D01*
X115231361Y-137299684D01*
X115231358Y-137299680D01*
X114999668Y-137026914D01*
X114946397Y-136976453D01*
X114739837Y-136780789D01*
X114739830Y-136780783D01*
X114739827Y-136780781D01*
X114672245Y-136729407D01*
X114454919Y-136564200D01*
X114148253Y-136379685D01*
X114148252Y-136379684D01*
X114148248Y-136379682D01*
X114148244Y-136379680D01*
X113823447Y-136229414D01*
X113823441Y-136229411D01*
X113823435Y-136229409D01*
X113653854Y-136172270D01*
X113484273Y-136115131D01*
X113134744Y-136038194D01*
X112778949Y-135999500D01*
X112778948Y-135999500D01*
X112421052Y-135999500D01*
X112421050Y-135999500D01*
X112065255Y-136038194D01*
X111715726Y-136115131D01*
X111459970Y-136201306D01*
X111376565Y-136229409D01*
X111376563Y-136229410D01*
X111376552Y-136229414D01*
X111051755Y-136379680D01*
X111051751Y-136379682D01*
X110823367Y-136517096D01*
X110745081Y-136564200D01*
X110656768Y-136631333D01*
X110460172Y-136780781D01*
X110460165Y-136780786D01*
X110460163Y-136780789D01*
X110309772Y-136923246D01*
X110247567Y-136955057D01*
X110178036Y-136948187D01*
X110123257Y-136904816D01*
X110100622Y-136838714D01*
X110100500Y-136833221D01*
X110100500Y-127950000D01*
X116425000Y-127950000D01*
X116425000Y-129047844D01*
X116431401Y-129107372D01*
X116431403Y-129107379D01*
X116481645Y-129242086D01*
X116481649Y-129242093D01*
X116567809Y-129357187D01*
X116567812Y-129357190D01*
X116682906Y-129443350D01*
X116682913Y-129443354D01*
X116817620Y-129493596D01*
X116817627Y-129493598D01*
X116877155Y-129499999D01*
X116877172Y-129500000D01*
X118325000Y-129500000D01*
X118325000Y-128382821D01*
X118410000Y-128382821D01*
X118435119Y-128443465D01*
X118481535Y-128489881D01*
X118542179Y-128515000D01*
X118607821Y-128515000D01*
X118668465Y-128489881D01*
X118714881Y-128443465D01*
X118740000Y-128382821D01*
X118740000Y-128317179D01*
X118714881Y-128256535D01*
X118668465Y-128210119D01*
X118607821Y-128185000D01*
X118542179Y-128185000D01*
X118481535Y-128210119D01*
X118435119Y-128256535D01*
X118410000Y-128317179D01*
X118410000Y-128382821D01*
X118325000Y-128382821D01*
X118325000Y-127950000D01*
X118825000Y-127950000D01*
X118825000Y-129500000D01*
X120272828Y-129500000D01*
X120272844Y-129499999D01*
X120332372Y-129493598D01*
X120332379Y-129493596D01*
X120467086Y-129443354D01*
X120467093Y-129443350D01*
X120582187Y-129357190D01*
X120582190Y-129357187D01*
X120668350Y-129242093D01*
X120668354Y-129242086D01*
X120718596Y-129107379D01*
X120718598Y-129107372D01*
X120724999Y-129047844D01*
X120725000Y-129047827D01*
X120725000Y-127950000D01*
X118825000Y-127950000D01*
X118325000Y-127950000D01*
X116425000Y-127950000D01*
X110100500Y-127950000D01*
X110100500Y-127915000D01*
X132210000Y-127915000D01*
X132210000Y-129012844D01*
X132216401Y-129072372D01*
X132216403Y-129072379D01*
X132266645Y-129207086D01*
X132266649Y-129207093D01*
X132352809Y-129322187D01*
X132352812Y-129322190D01*
X132467906Y-129408350D01*
X132467913Y-129408354D01*
X132602620Y-129458596D01*
X132602627Y-129458598D01*
X132662155Y-129464999D01*
X132662172Y-129465000D01*
X134110000Y-129465000D01*
X134110000Y-128347821D01*
X134195000Y-128347821D01*
X134220119Y-128408465D01*
X134266535Y-128454881D01*
X134327179Y-128480000D01*
X134392821Y-128480000D01*
X134453465Y-128454881D01*
X134499881Y-128408465D01*
X134525000Y-128347821D01*
X134525000Y-128282179D01*
X134499881Y-128221535D01*
X134453465Y-128175119D01*
X134392821Y-128150000D01*
X134327179Y-128150000D01*
X134266535Y-128175119D01*
X134220119Y-128221535D01*
X134195000Y-128282179D01*
X134195000Y-128347821D01*
X134110000Y-128347821D01*
X134110000Y-127915000D01*
X134610000Y-127915000D01*
X134610000Y-129465000D01*
X136057828Y-129465000D01*
X136057844Y-129464999D01*
X136117372Y-129458598D01*
X136117379Y-129458596D01*
X136252086Y-129408354D01*
X136252093Y-129408350D01*
X136367187Y-129322190D01*
X136367190Y-129322187D01*
X136453350Y-129207093D01*
X136453354Y-129207086D01*
X136503596Y-129072379D01*
X136503598Y-129072372D01*
X136509999Y-129012844D01*
X136510000Y-129012827D01*
X136510000Y-127915000D01*
X134610000Y-127915000D01*
X134110000Y-127915000D01*
X132210000Y-127915000D01*
X110100500Y-127915000D01*
X110100500Y-127450000D01*
X116425000Y-127450000D01*
X118325000Y-127450000D01*
X118325000Y-127082821D01*
X118410000Y-127082821D01*
X118435119Y-127143465D01*
X118481535Y-127189881D01*
X118542179Y-127215000D01*
X118607821Y-127215000D01*
X118668465Y-127189881D01*
X118714881Y-127143465D01*
X118740000Y-127082821D01*
X118740000Y-127017179D01*
X118714881Y-126956535D01*
X118668465Y-126910119D01*
X118607821Y-126885000D01*
X118542179Y-126885000D01*
X118481535Y-126910119D01*
X118435119Y-126956535D01*
X118410000Y-127017179D01*
X118410000Y-127082821D01*
X118325000Y-127082821D01*
X118325000Y-125900000D01*
X118825000Y-125900000D01*
X118825000Y-127450000D01*
X120725000Y-127450000D01*
X120725000Y-127415000D01*
X132210000Y-127415000D01*
X134110000Y-127415000D01*
X134110000Y-127047821D01*
X134195000Y-127047821D01*
X134220119Y-127108465D01*
X134266535Y-127154881D01*
X134327179Y-127180000D01*
X134392821Y-127180000D01*
X134453465Y-127154881D01*
X134499881Y-127108465D01*
X134525000Y-127047821D01*
X134525000Y-126982179D01*
X134499881Y-126921535D01*
X134453465Y-126875119D01*
X134392821Y-126850000D01*
X134327179Y-126850000D01*
X134266535Y-126875119D01*
X134220119Y-126921535D01*
X134195000Y-126982179D01*
X134195000Y-127047821D01*
X134110000Y-127047821D01*
X134110000Y-125865000D01*
X134610000Y-125865000D01*
X134610000Y-127415000D01*
X136510000Y-127415000D01*
X136510000Y-126317172D01*
X136509999Y-126317155D01*
X136503598Y-126257627D01*
X136503596Y-126257620D01*
X136453354Y-126122913D01*
X136453350Y-126122906D01*
X136367190Y-126007812D01*
X136367187Y-126007809D01*
X136252093Y-125921649D01*
X136252086Y-125921645D01*
X136117379Y-125871403D01*
X136117372Y-125871401D01*
X136057844Y-125865000D01*
X134610000Y-125865000D01*
X134110000Y-125865000D01*
X132662155Y-125865000D01*
X132602627Y-125871401D01*
X132602620Y-125871403D01*
X132467913Y-125921645D01*
X132467906Y-125921649D01*
X132352812Y-126007809D01*
X132352809Y-126007812D01*
X132266649Y-126122906D01*
X132266645Y-126122913D01*
X132216403Y-126257620D01*
X132216401Y-126257627D01*
X132210000Y-126317155D01*
X132210000Y-127415000D01*
X120725000Y-127415000D01*
X120725000Y-126352172D01*
X120724999Y-126352155D01*
X120718598Y-126292627D01*
X120718596Y-126292620D01*
X120668354Y-126157913D01*
X120668350Y-126157906D01*
X120582190Y-126042812D01*
X120582187Y-126042809D01*
X120467093Y-125956649D01*
X120467086Y-125956645D01*
X120332379Y-125906403D01*
X120332372Y-125906401D01*
X120272844Y-125900000D01*
X118825000Y-125900000D01*
X118325000Y-125900000D01*
X116877155Y-125900000D01*
X116817627Y-125906401D01*
X116817620Y-125906403D01*
X116682913Y-125956645D01*
X116682906Y-125956649D01*
X116567812Y-126042809D01*
X116567809Y-126042812D01*
X116481649Y-126157906D01*
X116481645Y-126157913D01*
X116431403Y-126292620D01*
X116431401Y-126292627D01*
X116425000Y-126352155D01*
X116425000Y-127450000D01*
X110100500Y-127450000D01*
X110100500Y-100650001D01*
X111099500Y-100650001D01*
X111099501Y-100650018D01*
X111110000Y-100752796D01*
X111110001Y-100752799D01*
X111151972Y-100879458D01*
X111165186Y-100919334D01*
X111257288Y-101068656D01*
X111381344Y-101192712D01*
X111401718Y-101205279D01*
X111536558Y-101288448D01*
X111583283Y-101340396D01*
X111594506Y-101409358D01*
X111566663Y-101473441D01*
X111559144Y-101481668D01*
X111420271Y-101620541D01*
X111295379Y-101792442D01*
X111198904Y-101981782D01*
X111133242Y-102183870D01*
X111133242Y-102183873D01*
X111122769Y-102250000D01*
X112166988Y-102250000D01*
X112134075Y-102307007D01*
X112100000Y-102434174D01*
X112100000Y-102565826D01*
X112134075Y-102692993D01*
X112166988Y-102750000D01*
X111122769Y-102750000D01*
X111133242Y-102816126D01*
X111133242Y-102816129D01*
X111198904Y-103018217D01*
X111295379Y-103207557D01*
X111420272Y-103379459D01*
X111420276Y-103379464D01*
X111570535Y-103529723D01*
X111570540Y-103529727D01*
X111742442Y-103654620D01*
X111931782Y-103751095D01*
X112133870Y-103816757D01*
X112343754Y-103850000D01*
X112350000Y-103850000D01*
X112350000Y-102933012D01*
X112407007Y-102965925D01*
X112534174Y-103000000D01*
X112665826Y-103000000D01*
X112792993Y-102965925D01*
X112850000Y-102933012D01*
X112850000Y-103850000D01*
X112856246Y-103850000D01*
X113066127Y-103816757D01*
X113066130Y-103816757D01*
X113268217Y-103751095D01*
X113457557Y-103654620D01*
X113629459Y-103529727D01*
X113629464Y-103529723D01*
X113779723Y-103379464D01*
X113779727Y-103379459D01*
X113904620Y-103207557D01*
X114001095Y-103018217D01*
X114066757Y-102816129D01*
X114066757Y-102816126D01*
X114077231Y-102750000D01*
X113033012Y-102750000D01*
X113065925Y-102692993D01*
X113100000Y-102565826D01*
X113100000Y-102434174D01*
X113065925Y-102307007D01*
X113033012Y-102250000D01*
X114077231Y-102250000D01*
X114066757Y-102183873D01*
X114066757Y-102183870D01*
X114001095Y-101981782D01*
X113904620Y-101792442D01*
X113779727Y-101620540D01*
X113779723Y-101620535D01*
X113640856Y-101481668D01*
X113607371Y-101420345D01*
X113612355Y-101350653D01*
X113654227Y-101294720D01*
X113663441Y-101288448D01*
X113669331Y-101284814D01*
X113669334Y-101284814D01*
X113818656Y-101192712D01*
X113942712Y-101068656D01*
X114034814Y-100919334D01*
X114089999Y-100752797D01*
X114100500Y-100650009D01*
X114100499Y-99349992D01*
X114089999Y-99247203D01*
X114034814Y-99080666D01*
X113942712Y-98931344D01*
X113818656Y-98807288D01*
X113669334Y-98715186D01*
X113502797Y-98660001D01*
X113502795Y-98660000D01*
X113400010Y-98649500D01*
X111799998Y-98649500D01*
X111799981Y-98649501D01*
X111697203Y-98660000D01*
X111697200Y-98660001D01*
X111530668Y-98715185D01*
X111530663Y-98715187D01*
X111381342Y-98807289D01*
X111257289Y-98931342D01*
X111165187Y-99080663D01*
X111165185Y-99080668D01*
X111137349Y-99164670D01*
X111110001Y-99247203D01*
X111110001Y-99247204D01*
X111110000Y-99247204D01*
X111099500Y-99349983D01*
X111099500Y-100650001D01*
X110100500Y-100650001D01*
X110100500Y-91650001D01*
X111099500Y-91650001D01*
X111099501Y-91650018D01*
X111110000Y-91752796D01*
X111110001Y-91752799D01*
X111151972Y-91879458D01*
X111165186Y-91919334D01*
X111257288Y-92068656D01*
X111381344Y-92192712D01*
X111401718Y-92205279D01*
X111536558Y-92288448D01*
X111583283Y-92340396D01*
X111594506Y-92409358D01*
X111566663Y-92473441D01*
X111559144Y-92481668D01*
X111420271Y-92620541D01*
X111295379Y-92792442D01*
X111198904Y-92981782D01*
X111133242Y-93183870D01*
X111133242Y-93183873D01*
X111122769Y-93250000D01*
X112166988Y-93250000D01*
X112134075Y-93307007D01*
X112100000Y-93434174D01*
X112100000Y-93565826D01*
X112134075Y-93692993D01*
X112166988Y-93750000D01*
X111122769Y-93750000D01*
X111133242Y-93816126D01*
X111133242Y-93816129D01*
X111198904Y-94018217D01*
X111295379Y-94207557D01*
X111420272Y-94379459D01*
X111420276Y-94379464D01*
X111570535Y-94529723D01*
X111570540Y-94529727D01*
X111742442Y-94654620D01*
X111931782Y-94751095D01*
X112133870Y-94816757D01*
X112343754Y-94850000D01*
X112350000Y-94850000D01*
X112350000Y-93933012D01*
X112407007Y-93965925D01*
X112534174Y-94000000D01*
X112665826Y-94000000D01*
X112792993Y-93965925D01*
X112850000Y-93933012D01*
X112850000Y-94850000D01*
X112856246Y-94850000D01*
X113066127Y-94816757D01*
X113066130Y-94816757D01*
X113268217Y-94751095D01*
X113457557Y-94654620D01*
X113629459Y-94529727D01*
X113629464Y-94529723D01*
X113779723Y-94379464D01*
X113779727Y-94379459D01*
X113904620Y-94207557D01*
X114001095Y-94018217D01*
X114066757Y-93816129D01*
X114066757Y-93816126D01*
X114077231Y-93750000D01*
X113033012Y-93750000D01*
X113065925Y-93692993D01*
X113100000Y-93565826D01*
X113100000Y-93434174D01*
X113065925Y-93307007D01*
X113033012Y-93250000D01*
X114077231Y-93250000D01*
X114066757Y-93183873D01*
X114066757Y-93183870D01*
X114001095Y-92981782D01*
X113904620Y-92792442D01*
X113779727Y-92620540D01*
X113779723Y-92620535D01*
X113640856Y-92481668D01*
X113607371Y-92420345D01*
X113612355Y-92350653D01*
X113654227Y-92294720D01*
X113663441Y-92288448D01*
X113669331Y-92284814D01*
X113669334Y-92284814D01*
X113818656Y-92192712D01*
X113942712Y-92068656D01*
X114034814Y-91919334D01*
X114089999Y-91752797D01*
X114100500Y-91650009D01*
X114100499Y-90349992D01*
X114089999Y-90247203D01*
X114034814Y-90080666D01*
X113942712Y-89931344D01*
X113818656Y-89807288D01*
X113669334Y-89715186D01*
X113502797Y-89660001D01*
X113502795Y-89660000D01*
X113400010Y-89649500D01*
X111799998Y-89649500D01*
X111799981Y-89649501D01*
X111697203Y-89660000D01*
X111697200Y-89660001D01*
X111530668Y-89715185D01*
X111530663Y-89715187D01*
X111381342Y-89807289D01*
X111257289Y-89931342D01*
X111165187Y-90080663D01*
X111165185Y-90080668D01*
X111151975Y-90120535D01*
X111110001Y-90247203D01*
X111110001Y-90247204D01*
X111110000Y-90247204D01*
X111099500Y-90349983D01*
X111099500Y-91650001D01*
X110100500Y-91650001D01*
X110100500Y-68508001D01*
X111099500Y-68508001D01*
X111099501Y-68508018D01*
X111110000Y-68610796D01*
X111110001Y-68610799D01*
X111141616Y-68706204D01*
X111165186Y-68777334D01*
X111257288Y-68926656D01*
X111381344Y-69050712D01*
X111491246Y-69118500D01*
X111536558Y-69146448D01*
X111583283Y-69198396D01*
X111594506Y-69267358D01*
X111566663Y-69331441D01*
X111559144Y-69339668D01*
X111420271Y-69478541D01*
X111295379Y-69650442D01*
X111198904Y-69839782D01*
X111133242Y-70041870D01*
X111133242Y-70041873D01*
X111122769Y-70108000D01*
X112166988Y-70108000D01*
X112134075Y-70165007D01*
X112100000Y-70292174D01*
X112100000Y-70423826D01*
X112134075Y-70550993D01*
X112166988Y-70608000D01*
X111122769Y-70608000D01*
X111133242Y-70674126D01*
X111133242Y-70674129D01*
X111198904Y-70876217D01*
X111295379Y-71065557D01*
X111420272Y-71237459D01*
X111420276Y-71237464D01*
X111570535Y-71387723D01*
X111570540Y-71387727D01*
X111742442Y-71512620D01*
X111931782Y-71609095D01*
X112133870Y-71674757D01*
X112343754Y-71708000D01*
X112350000Y-71708000D01*
X112350000Y-70791012D01*
X112407007Y-70823925D01*
X112534174Y-70858000D01*
X112665826Y-70858000D01*
X112792993Y-70823925D01*
X112850000Y-70791012D01*
X112850000Y-71708000D01*
X112856246Y-71708000D01*
X113066127Y-71674757D01*
X113066130Y-71674757D01*
X113268217Y-71609095D01*
X113457557Y-71512620D01*
X113629459Y-71387727D01*
X113629464Y-71387723D01*
X113779723Y-71237464D01*
X113779727Y-71237459D01*
X113904620Y-71065557D01*
X114001095Y-70876217D01*
X114066757Y-70674129D01*
X114066757Y-70674126D01*
X114077231Y-70608000D01*
X113033012Y-70608000D01*
X113065925Y-70550993D01*
X113100000Y-70423826D01*
X113100000Y-70292174D01*
X113065925Y-70165007D01*
X113033012Y-70108000D01*
X114077231Y-70108000D01*
X114066757Y-70041873D01*
X114066757Y-70041870D01*
X114001095Y-69839782D01*
X113904620Y-69650442D01*
X113779727Y-69478540D01*
X113779723Y-69478535D01*
X113640856Y-69339668D01*
X113607371Y-69278345D01*
X113612355Y-69208653D01*
X113654227Y-69152720D01*
X113663441Y-69146448D01*
X113669331Y-69142814D01*
X113669334Y-69142814D01*
X113818656Y-69050712D01*
X113942712Y-68926656D01*
X114034814Y-68777334D01*
X114089999Y-68610797D01*
X114090000Y-68610788D01*
X114090123Y-68609591D01*
X114090404Y-68608900D01*
X114091417Y-68604173D01*
X114092260Y-68604353D01*
X114116522Y-68544900D01*
X114173705Y-68504752D01*
X114213480Y-68498200D01*
X118812970Y-68498200D01*
X118880009Y-68517885D01*
X118925764Y-68570689D01*
X118935708Y-68639847D01*
X118906683Y-68703403D01*
X118887283Y-68721464D01*
X118792454Y-68792454D01*
X118792453Y-68792455D01*
X118792452Y-68792456D01*
X118706206Y-68907664D01*
X118706202Y-68907671D01*
X118655908Y-69042517D01*
X118652659Y-69072744D01*
X118649501Y-69102123D01*
X118649500Y-69102135D01*
X118649500Y-70897870D01*
X118649501Y-70897876D01*
X118655908Y-70957483D01*
X118657461Y-70961645D01*
X118662445Y-71031337D01*
X118628960Y-71092658D01*
X113964174Y-75757444D01*
X113902851Y-75790929D01*
X113833159Y-75785945D01*
X113800666Y-75765062D01*
X113799319Y-75766766D01*
X113793658Y-75762290D01*
X113793656Y-75762288D01*
X113644334Y-75670186D01*
X113477797Y-75615001D01*
X113477795Y-75615000D01*
X113375010Y-75604500D01*
X111824998Y-75604500D01*
X111824981Y-75604501D01*
X111722203Y-75615000D01*
X111722200Y-75615001D01*
X111555668Y-75670185D01*
X111555663Y-75670187D01*
X111406342Y-75762289D01*
X111282289Y-75886342D01*
X111190187Y-76035663D01*
X111190185Y-76035668D01*
X111162349Y-76119670D01*
X111135001Y-76202203D01*
X111135001Y-76202204D01*
X111135000Y-76202204D01*
X111124500Y-76304983D01*
X111124500Y-77605001D01*
X111124501Y-77605018D01*
X111135000Y-77707796D01*
X111135001Y-77707799D01*
X111182227Y-77850315D01*
X111190186Y-77874334D01*
X111282288Y-78023656D01*
X111406344Y-78147712D01*
X111512723Y-78213327D01*
X111561120Y-78243178D01*
X111607845Y-78295126D01*
X111619068Y-78364088D01*
X111591224Y-78428171D01*
X111583706Y-78436398D01*
X111444889Y-78575215D01*
X111319951Y-78747179D01*
X111223444Y-78936585D01*
X111157753Y-79138760D01*
X111124500Y-79348713D01*
X111124500Y-79561286D01*
X111157663Y-79770673D01*
X111157754Y-79771243D01*
X111223273Y-79972890D01*
X111223444Y-79973414D01*
X111319951Y-80162820D01*
X111444890Y-80334786D01*
X111595209Y-80485105D01*
X111595214Y-80485109D01*
X111759793Y-80604682D01*
X111802459Y-80660011D01*
X111808438Y-80729625D01*
X111775833Y-80791420D01*
X111759793Y-80805318D01*
X111595214Y-80924890D01*
X111595209Y-80924894D01*
X111444890Y-81075213D01*
X111319951Y-81247179D01*
X111223444Y-81436585D01*
X111157753Y-81638760D01*
X111127830Y-81827690D01*
X111124500Y-81848713D01*
X111124500Y-82061287D01*
X111130398Y-82098523D01*
X111155220Y-82255249D01*
X111157754Y-82271243D01*
X111220578Y-82464596D01*
X111223444Y-82473414D01*
X111319951Y-82662820D01*
X111444890Y-82834786D01*
X111595209Y-82985105D01*
X111595214Y-82985109D01*
X111760218Y-83104991D01*
X111802884Y-83160320D01*
X111808863Y-83229934D01*
X111776258Y-83291729D01*
X111760218Y-83305627D01*
X111595540Y-83425272D01*
X111595535Y-83425276D01*
X111445276Y-83575535D01*
X111445272Y-83575540D01*
X111320379Y-83747442D01*
X111223904Y-83936782D01*
X111158242Y-84138870D01*
X111158242Y-84138873D01*
X111147769Y-84205000D01*
X112195854Y-84205000D01*
X112157370Y-84271657D01*
X112125000Y-84392465D01*
X112125000Y-84517535D01*
X112157370Y-84638343D01*
X112195854Y-84705000D01*
X111147769Y-84705000D01*
X111158242Y-84771126D01*
X111158242Y-84771129D01*
X111223904Y-84973217D01*
X111320379Y-85162557D01*
X111445272Y-85334459D01*
X111445276Y-85334464D01*
X111595535Y-85484723D01*
X111595540Y-85484727D01*
X111767442Y-85609620D01*
X111956782Y-85706095D01*
X112158872Y-85771757D01*
X112350000Y-85802029D01*
X112350000Y-84859145D01*
X112416657Y-84897630D01*
X112537465Y-84930000D01*
X112662535Y-84930000D01*
X112783343Y-84897630D01*
X112850000Y-84859145D01*
X112850000Y-85802028D01*
X113041127Y-85771757D01*
X113243217Y-85706095D01*
X113432557Y-85609620D01*
X113604459Y-85484727D01*
X113604464Y-85484723D01*
X113754723Y-85334464D01*
X113754727Y-85334459D01*
X113879620Y-85162557D01*
X113976095Y-84973217D01*
X114041757Y-84771129D01*
X114041757Y-84771126D01*
X114052231Y-84705000D01*
X113004146Y-84705000D01*
X113042630Y-84638343D01*
X113075000Y-84517535D01*
X113075000Y-84392465D01*
X113042630Y-84271657D01*
X113004146Y-84205000D01*
X114052231Y-84205000D01*
X114041757Y-84138873D01*
X114041757Y-84138870D01*
X113976095Y-83936782D01*
X113879620Y-83747442D01*
X113754727Y-83575540D01*
X113754723Y-83575535D01*
X113604464Y-83425276D01*
X113604459Y-83425272D01*
X113439781Y-83305627D01*
X113397115Y-83250297D01*
X113391136Y-83180684D01*
X113423741Y-83118889D01*
X113439776Y-83104994D01*
X113604792Y-82985104D01*
X113755104Y-82834792D01*
X113755106Y-82834788D01*
X113755109Y-82834786D01*
X113880048Y-82662820D01*
X113880047Y-82662820D01*
X113880051Y-82662816D01*
X113976557Y-82473412D01*
X114042246Y-82271243D01*
X114075500Y-82061287D01*
X114075500Y-81848713D01*
X114042246Y-81638757D01*
X114042245Y-81638753D01*
X114042071Y-81638026D01*
X114042085Y-81637741D01*
X114041484Y-81633945D01*
X114042281Y-81633818D01*
X114045569Y-81568244D01*
X114074965Y-81521413D01*
X114708101Y-80888277D01*
X114708104Y-80888276D01*
X114797276Y-80799104D01*
X114867338Y-80694249D01*
X114915598Y-80577740D01*
X114940200Y-80454054D01*
X114940200Y-76643541D01*
X114959885Y-76576502D01*
X114976514Y-76555865D01*
X115648120Y-75884259D01*
X115709442Y-75850775D01*
X115779134Y-75855759D01*
X115835067Y-75897631D01*
X115859484Y-75963095D01*
X115859800Y-75971941D01*
X115859800Y-112863058D01*
X115884400Y-112986730D01*
X115884403Y-112986742D01*
X115932661Y-113103248D01*
X115932662Y-113103250D01*
X116002723Y-113208103D01*
X116002726Y-113208107D01*
X123310811Y-120516191D01*
X123344296Y-120577514D01*
X123340172Y-120644824D01*
X123323687Y-120691938D01*
X123323686Y-120691941D01*
X123304751Y-120859997D01*
X123304751Y-120860002D01*
X123323685Y-121028056D01*
X123379545Y-121187694D01*
X123379547Y-121187697D01*
X123469518Y-121330884D01*
X123469523Y-121330890D01*
X123589109Y-121450476D01*
X123589115Y-121450481D01*
X123732302Y-121540452D01*
X123732305Y-121540454D01*
X123732309Y-121540455D01*
X123732310Y-121540456D01*
X123804913Y-121565860D01*
X123891943Y-121596314D01*
X124059997Y-121615249D01*
X124060000Y-121615249D01*
X124060003Y-121615249D01*
X124228056Y-121596314D01*
X124228059Y-121596313D01*
X124387690Y-121540456D01*
X124387692Y-121540454D01*
X124387694Y-121540454D01*
X124387697Y-121540452D01*
X124530884Y-121450481D01*
X124530885Y-121450480D01*
X124530890Y-121450477D01*
X124650477Y-121330890D01*
X124650481Y-121330884D01*
X124740452Y-121187697D01*
X124740454Y-121187694D01*
X124740454Y-121187692D01*
X124740456Y-121187690D01*
X124796313Y-121028059D01*
X124796313Y-121028058D01*
X124796314Y-121028056D01*
X124815249Y-120860002D01*
X124815249Y-120859997D01*
X124796314Y-120691943D01*
X124770980Y-120619543D01*
X124740456Y-120532310D01*
X124730328Y-120516191D01*
X124719206Y-120498490D01*
X124700200Y-120432518D01*
X124700200Y-120429188D01*
X124700201Y-120429167D01*
X124700201Y-120296943D01*
X124678608Y-120188392D01*
X124684835Y-120118800D01*
X124727698Y-120063623D01*
X124793587Y-120040378D01*
X124800225Y-120040200D01*
X137283458Y-120040200D01*
X137350497Y-120059885D01*
X137371139Y-120076519D01*
X138744214Y-121449594D01*
X138773574Y-121496320D01*
X138819542Y-121627689D01*
X138819543Y-121627691D01*
X138909518Y-121770884D01*
X138909523Y-121770890D01*
X139029109Y-121890476D01*
X139029115Y-121890481D01*
X139172302Y-121980452D01*
X139172305Y-121980454D01*
X139172309Y-121980455D01*
X139172310Y-121980456D01*
X139244913Y-122005860D01*
X139331943Y-122036314D01*
X139499997Y-122055249D01*
X139500000Y-122055249D01*
X139500003Y-122055249D01*
X139668056Y-122036314D01*
X139668059Y-122036313D01*
X139827690Y-121980456D01*
X139827692Y-121980454D01*
X139827694Y-121980454D01*
X139827697Y-121980452D01*
X139970884Y-121890481D01*
X139970885Y-121890480D01*
X139970890Y-121890477D01*
X140090477Y-121770890D01*
X140180452Y-121627697D01*
X140180454Y-121627694D01*
X140180455Y-121627691D01*
X140180456Y-121627690D01*
X140236313Y-121468059D01*
X140236313Y-121468058D01*
X140236314Y-121468056D01*
X140255249Y-121300002D01*
X140255249Y-121299997D01*
X140236314Y-121131943D01*
X140180454Y-120972305D01*
X140180452Y-120972302D01*
X140090481Y-120829115D01*
X140090476Y-120829109D01*
X139970890Y-120709523D01*
X139970884Y-120709518D01*
X139827691Y-120619543D01*
X139827689Y-120619542D01*
X139696320Y-120573574D01*
X139649594Y-120544214D01*
X138198562Y-119093181D01*
X138165077Y-119031858D01*
X138170061Y-118962166D01*
X138211933Y-118906233D01*
X138277397Y-118881816D01*
X138286243Y-118881500D01*
X138286823Y-118881500D01*
X138401393Y-118858709D01*
X138457124Y-118847624D01*
X138537335Y-118814399D01*
X138617543Y-118781177D01*
X138617544Y-118781176D01*
X138617547Y-118781175D01*
X138761924Y-118684706D01*
X140101714Y-117344913D01*
X140101719Y-117344910D01*
X140111922Y-117334706D01*
X140111924Y-117334706D01*
X140284706Y-117161923D01*
X140337988Y-117082181D01*
X140347766Y-117067548D01*
X140347766Y-117067547D01*
X140381175Y-117017547D01*
X140407280Y-116954523D01*
X140447625Y-116857124D01*
X140481500Y-116686820D01*
X140481500Y-116513179D01*
X140481500Y-103150001D01*
X141099500Y-103150001D01*
X141099501Y-103150018D01*
X141110000Y-103252796D01*
X141110001Y-103252799D01*
X141165185Y-103419331D01*
X141165187Y-103419336D01*
X141176716Y-103438028D01*
X141257288Y-103568656D01*
X141381344Y-103692712D01*
X141530666Y-103784814D01*
X141697203Y-103839999D01*
X141799991Y-103850500D01*
X143400008Y-103850499D01*
X143502797Y-103839999D01*
X143669334Y-103784814D01*
X143818656Y-103692712D01*
X143942712Y-103568656D01*
X144034814Y-103419334D01*
X144089999Y-103252797D01*
X144100500Y-103150009D01*
X144100499Y-101849992D01*
X144089999Y-101747203D01*
X144034814Y-101580666D01*
X143942712Y-101431344D01*
X143818656Y-101307288D01*
X143669334Y-101215186D01*
X143669332Y-101215185D01*
X143663440Y-101211551D01*
X143616716Y-101159603D01*
X143605493Y-101090641D01*
X143633337Y-101026558D01*
X143640856Y-101018330D01*
X143779728Y-100879458D01*
X143904620Y-100707557D01*
X144001095Y-100518217D01*
X144066757Y-100316129D01*
X144066757Y-100316126D01*
X144077231Y-100250000D01*
X143033012Y-100250000D01*
X143065925Y-100192993D01*
X143100000Y-100065826D01*
X143100000Y-99934174D01*
X143065925Y-99807007D01*
X143033012Y-99750000D01*
X144077231Y-99750000D01*
X144066757Y-99683873D01*
X144066757Y-99683870D01*
X144001095Y-99481782D01*
X143904620Y-99292442D01*
X143779727Y-99120540D01*
X143779723Y-99120535D01*
X143629464Y-98970276D01*
X143629459Y-98970272D01*
X143457557Y-98845379D01*
X143268217Y-98748904D01*
X143066129Y-98683242D01*
X142856246Y-98650000D01*
X142850000Y-98650000D01*
X142850000Y-99566988D01*
X142792993Y-99534075D01*
X142665826Y-99500000D01*
X142534174Y-99500000D01*
X142407007Y-99534075D01*
X142350000Y-99566988D01*
X142350000Y-98650000D01*
X142343754Y-98650000D01*
X142133872Y-98683242D01*
X142133869Y-98683242D01*
X141931782Y-98748904D01*
X141742442Y-98845379D01*
X141570540Y-98970272D01*
X141570535Y-98970276D01*
X141420276Y-99120535D01*
X141420272Y-99120540D01*
X141295379Y-99292442D01*
X141198904Y-99481782D01*
X141133242Y-99683870D01*
X141133242Y-99683873D01*
X141122769Y-99750000D01*
X142166988Y-99750000D01*
X142134075Y-99807007D01*
X142100000Y-99934174D01*
X142100000Y-100065826D01*
X142134075Y-100192993D01*
X142166988Y-100250000D01*
X141122769Y-100250000D01*
X141133242Y-100316126D01*
X141133242Y-100316129D01*
X141198904Y-100518217D01*
X141295379Y-100707557D01*
X141420272Y-100879459D01*
X141420276Y-100879464D01*
X141559143Y-101018331D01*
X141592628Y-101079654D01*
X141587644Y-101149346D01*
X141545772Y-101205279D01*
X141536559Y-101211551D01*
X141381342Y-101307289D01*
X141257289Y-101431342D01*
X141165187Y-101580663D01*
X141165185Y-101580668D01*
X141140874Y-101654035D01*
X141110001Y-101747203D01*
X141110001Y-101747204D01*
X141110000Y-101747204D01*
X141099500Y-101849983D01*
X141099500Y-103150001D01*
X140481500Y-103150001D01*
X140481500Y-94150001D01*
X141099500Y-94150001D01*
X141099501Y-94150018D01*
X141110000Y-94252796D01*
X141110001Y-94252799D01*
X141165185Y-94419331D01*
X141165187Y-94419336D01*
X141165316Y-94419545D01*
X141257288Y-94568656D01*
X141381344Y-94692712D01*
X141530666Y-94784814D01*
X141697203Y-94839999D01*
X141799991Y-94850500D01*
X143400008Y-94850499D01*
X143502797Y-94839999D01*
X143669334Y-94784814D01*
X143818656Y-94692712D01*
X143942712Y-94568656D01*
X144034814Y-94419334D01*
X144089999Y-94252797D01*
X144100500Y-94150009D01*
X144100499Y-92849992D01*
X144089999Y-92747203D01*
X144034814Y-92580666D01*
X143942712Y-92431344D01*
X143818656Y-92307288D01*
X143669334Y-92215186D01*
X143669332Y-92215185D01*
X143663440Y-92211551D01*
X143616716Y-92159603D01*
X143605493Y-92090641D01*
X143633337Y-92026558D01*
X143640856Y-92018330D01*
X143779728Y-91879458D01*
X143904620Y-91707557D01*
X144001095Y-91518217D01*
X144066757Y-91316129D01*
X144066757Y-91316126D01*
X144077231Y-91250000D01*
X143033012Y-91250000D01*
X143065925Y-91192993D01*
X143100000Y-91065826D01*
X143100000Y-90934174D01*
X143065925Y-90807007D01*
X143033012Y-90750000D01*
X144077231Y-90750000D01*
X144066757Y-90683873D01*
X144066757Y-90683870D01*
X144001095Y-90481782D01*
X143904620Y-90292442D01*
X143779727Y-90120540D01*
X143779723Y-90120535D01*
X143629464Y-89970276D01*
X143629459Y-89970272D01*
X143457557Y-89845379D01*
X143268217Y-89748904D01*
X143066129Y-89683242D01*
X142856246Y-89650000D01*
X142850000Y-89650000D01*
X142850000Y-90566988D01*
X142792993Y-90534075D01*
X142665826Y-90500000D01*
X142534174Y-90500000D01*
X142407007Y-90534075D01*
X142350000Y-90566988D01*
X142350000Y-89650000D01*
X142343754Y-89650000D01*
X142133872Y-89683242D01*
X142133869Y-89683242D01*
X141931782Y-89748904D01*
X141742442Y-89845379D01*
X141570540Y-89970272D01*
X141570535Y-89970276D01*
X141420276Y-90120535D01*
X141420272Y-90120540D01*
X141295379Y-90292442D01*
X141198904Y-90481782D01*
X141133242Y-90683870D01*
X141133242Y-90683873D01*
X141122769Y-90750000D01*
X142166988Y-90750000D01*
X142134075Y-90807007D01*
X142100000Y-90934174D01*
X142100000Y-91065826D01*
X142134075Y-91192993D01*
X142166988Y-91250000D01*
X141122769Y-91250000D01*
X141133242Y-91316126D01*
X141133242Y-91316129D01*
X141198904Y-91518217D01*
X141295379Y-91707557D01*
X141420272Y-91879459D01*
X141420276Y-91879464D01*
X141559143Y-92018331D01*
X141592628Y-92079654D01*
X141587644Y-92149346D01*
X141545772Y-92205279D01*
X141536559Y-92211551D01*
X141381342Y-92307289D01*
X141257289Y-92431342D01*
X141165187Y-92580663D01*
X141165185Y-92580668D01*
X141151975Y-92620535D01*
X141110001Y-92747203D01*
X141110001Y-92747204D01*
X141110000Y-92747204D01*
X141099500Y-92849983D01*
X141099500Y-94150001D01*
X140481500Y-94150001D01*
X140481500Y-85319001D01*
X141124500Y-85319001D01*
X141124501Y-85319018D01*
X141135000Y-85421796D01*
X141135001Y-85421799D01*
X141170091Y-85527692D01*
X141190186Y-85588334D01*
X141282288Y-85737656D01*
X141406344Y-85861712D01*
X141555666Y-85953814D01*
X141722203Y-86008999D01*
X141824991Y-86019500D01*
X143375008Y-86019499D01*
X143477797Y-86008999D01*
X143644334Y-85953814D01*
X143793656Y-85861712D01*
X143917712Y-85737656D01*
X144009814Y-85588334D01*
X144064999Y-85421797D01*
X144075500Y-85319009D01*
X144075499Y-84018992D01*
X144073993Y-84004254D01*
X144064999Y-83916203D01*
X144064998Y-83916200D01*
X144009814Y-83749666D01*
X143917712Y-83600344D01*
X143793656Y-83476288D01*
X143644334Y-83384186D01*
X143644333Y-83384185D01*
X143638878Y-83380821D01*
X143592154Y-83328873D01*
X143580931Y-83259910D01*
X143608775Y-83195828D01*
X143616272Y-83187623D01*
X143755104Y-83048792D01*
X143776403Y-83019477D01*
X143880048Y-82876820D01*
X143880047Y-82876820D01*
X143880051Y-82876816D01*
X143976557Y-82687412D01*
X144042246Y-82485243D01*
X144075500Y-82275287D01*
X144075500Y-82062713D01*
X144042246Y-81852757D01*
X143976557Y-81650588D01*
X143880051Y-81461184D01*
X143880049Y-81461181D01*
X143880048Y-81461179D01*
X143755109Y-81289213D01*
X143604792Y-81138896D01*
X143517132Y-81075208D01*
X143440204Y-81019316D01*
X143397540Y-80963989D01*
X143391561Y-80894376D01*
X143424166Y-80832580D01*
X143440199Y-80818686D01*
X143604792Y-80699104D01*
X143755104Y-80548792D01*
X143755106Y-80548788D01*
X143755109Y-80548786D01*
X143880048Y-80376820D01*
X143880047Y-80376820D01*
X143880051Y-80376816D01*
X143976557Y-80187412D01*
X144042246Y-79985243D01*
X144075500Y-79775287D01*
X144075500Y-79562713D01*
X144042246Y-79352757D01*
X143976557Y-79150588D01*
X143880051Y-78961184D01*
X143880049Y-78961181D01*
X143880048Y-78961179D01*
X143755109Y-78789213D01*
X143604790Y-78638894D01*
X143604785Y-78638890D01*
X143439781Y-78519008D01*
X143397115Y-78463678D01*
X143391136Y-78394065D01*
X143423741Y-78332270D01*
X143439781Y-78318371D01*
X143604466Y-78198721D01*
X143754723Y-78048464D01*
X143754727Y-78048459D01*
X143879620Y-77876557D01*
X143976095Y-77687217D01*
X144041757Y-77485129D01*
X144041757Y-77485126D01*
X144052231Y-77419000D01*
X143004146Y-77419000D01*
X143042630Y-77352343D01*
X143075000Y-77231535D01*
X143075000Y-77106465D01*
X143042630Y-76985657D01*
X143004146Y-76919000D01*
X144052231Y-76919000D01*
X144041757Y-76852873D01*
X144041757Y-76852870D01*
X143976095Y-76650782D01*
X143879620Y-76461442D01*
X143754727Y-76289540D01*
X143754723Y-76289535D01*
X143604464Y-76139276D01*
X143604459Y-76139272D01*
X143432557Y-76014379D01*
X143243217Y-75917904D01*
X143041128Y-75852242D01*
X142850000Y-75821969D01*
X142850000Y-76764854D01*
X142783343Y-76726370D01*
X142662535Y-76694000D01*
X142537465Y-76694000D01*
X142416657Y-76726370D01*
X142350000Y-76764854D01*
X142350000Y-75821969D01*
X142158872Y-75852242D01*
X142158869Y-75852242D01*
X141956782Y-75917904D01*
X141767442Y-76014379D01*
X141595540Y-76139272D01*
X141595535Y-76139276D01*
X141445276Y-76289535D01*
X141445272Y-76289540D01*
X141320379Y-76461442D01*
X141223904Y-76650782D01*
X141158242Y-76852870D01*
X141158242Y-76852873D01*
X141147769Y-76919000D01*
X142195854Y-76919000D01*
X142157370Y-76985657D01*
X142125000Y-77106465D01*
X142125000Y-77231535D01*
X142157370Y-77352343D01*
X142195854Y-77419000D01*
X141147769Y-77419000D01*
X141158242Y-77485126D01*
X141158242Y-77485129D01*
X141223904Y-77687217D01*
X141320379Y-77876557D01*
X141445272Y-78048459D01*
X141445276Y-78048464D01*
X141595535Y-78198723D01*
X141595540Y-78198727D01*
X141760218Y-78318372D01*
X141802884Y-78373701D01*
X141808863Y-78443315D01*
X141776258Y-78505110D01*
X141760218Y-78519008D01*
X141595214Y-78638890D01*
X141595209Y-78638894D01*
X141444890Y-78789213D01*
X141319951Y-78961179D01*
X141223444Y-79150585D01*
X141157753Y-79352760D01*
X141124500Y-79562713D01*
X141124500Y-79775286D01*
X141155796Y-79972884D01*
X141157754Y-79985243D01*
X141215451Y-80162816D01*
X141223444Y-80187414D01*
X141319951Y-80376820D01*
X141444890Y-80548786D01*
X141595209Y-80699105D01*
X141595214Y-80699109D01*
X141759793Y-80818682D01*
X141802459Y-80874011D01*
X141808438Y-80943625D01*
X141775833Y-81005420D01*
X141759793Y-81019318D01*
X141595214Y-81138890D01*
X141595209Y-81138894D01*
X141444890Y-81289213D01*
X141319951Y-81461179D01*
X141223444Y-81650585D01*
X141157753Y-81852760D01*
X141124500Y-82062713D01*
X141124500Y-82275286D01*
X141154483Y-82464596D01*
X141157754Y-82485243D01*
X141215451Y-82662816D01*
X141223444Y-82687414D01*
X141319951Y-82876820D01*
X141444890Y-83048786D01*
X141583705Y-83187601D01*
X141617190Y-83248924D01*
X141612206Y-83318616D01*
X141570334Y-83374549D01*
X141561121Y-83380821D01*
X141406342Y-83476289D01*
X141282289Y-83600342D01*
X141190187Y-83749663D01*
X141190185Y-83749668D01*
X141168856Y-83814035D01*
X141135001Y-83916203D01*
X141135001Y-83916204D01*
X141135000Y-83916204D01*
X141124500Y-84018983D01*
X141124500Y-85319001D01*
X140481500Y-85319001D01*
X140481500Y-72013180D01*
X140481500Y-72013177D01*
X140447625Y-71842881D01*
X140447624Y-71842880D01*
X140447624Y-71842876D01*
X140391757Y-71708000D01*
X140381178Y-71682459D01*
X140381171Y-71682446D01*
X140284707Y-71538078D01*
X140259249Y-71512620D01*
X140161923Y-71415294D01*
X139644499Y-70897870D01*
X138061927Y-69315296D01*
X138061926Y-69315295D01*
X137917543Y-69218822D01*
X137757128Y-69152377D01*
X137757118Y-69152374D01*
X137586823Y-69118500D01*
X137586821Y-69118500D01*
X137586820Y-69118500D01*
X136377987Y-69118500D01*
X136310948Y-69098815D01*
X136282957Y-69071918D01*
X136281974Y-69072744D01*
X136278496Y-69068599D01*
X136111402Y-68901506D01*
X136111395Y-68901501D01*
X135917834Y-68765967D01*
X135917830Y-68765965D01*
X135917828Y-68765964D01*
X135703663Y-68666097D01*
X135703659Y-68666096D01*
X135703655Y-68666094D01*
X135475413Y-68604938D01*
X135475403Y-68604936D01*
X135240001Y-68584341D01*
X135239999Y-68584341D01*
X135004596Y-68604936D01*
X135004586Y-68604938D01*
X134776344Y-68666094D01*
X134776335Y-68666098D01*
X134562171Y-68765964D01*
X134562169Y-68765965D01*
X134368597Y-68901505D01*
X134201505Y-69068597D01*
X134065965Y-69262169D01*
X134065964Y-69262171D01*
X133966098Y-69476335D01*
X133966094Y-69476344D01*
X133904938Y-69704586D01*
X133904936Y-69704596D01*
X133884341Y-69939999D01*
X133884341Y-69940000D01*
X133904936Y-70175403D01*
X133904938Y-70175413D01*
X133966094Y-70403655D01*
X133966096Y-70403659D01*
X133966097Y-70403663D01*
X134060822Y-70606800D01*
X134065965Y-70617830D01*
X134065967Y-70617834D01*
X134174281Y-70772521D01*
X134201505Y-70811401D01*
X134368599Y-70978495D01*
X134538418Y-71097404D01*
X134554594Y-71108730D01*
X134598219Y-71163307D01*
X134605413Y-71232805D01*
X134573890Y-71295160D01*
X134554595Y-71311880D01*
X134368922Y-71441890D01*
X134368920Y-71441891D01*
X134201891Y-71608920D01*
X134201886Y-71608926D01*
X134066400Y-71802420D01*
X134066399Y-71802422D01*
X133966570Y-72016507D01*
X133966567Y-72016513D01*
X133909364Y-72229999D01*
X133909364Y-72230000D01*
X134806988Y-72230000D01*
X134774075Y-72287007D01*
X134740000Y-72414174D01*
X134740000Y-72545826D01*
X134774075Y-72672993D01*
X134806988Y-72730000D01*
X133909364Y-72730000D01*
X133966567Y-72943486D01*
X133966570Y-72943492D01*
X134066399Y-73157578D01*
X134201894Y-73351082D01*
X134368917Y-73518105D01*
X134554595Y-73648119D01*
X134598219Y-73702696D01*
X134605412Y-73772195D01*
X134573890Y-73834549D01*
X134554595Y-73851269D01*
X134368594Y-73981508D01*
X134201505Y-74148597D01*
X134065965Y-74342169D01*
X134065964Y-74342171D01*
X133966098Y-74556335D01*
X133966094Y-74556344D01*
X133904938Y-74784586D01*
X133904936Y-74784596D01*
X133884341Y-75019999D01*
X133884341Y-75020000D01*
X133904936Y-75255403D01*
X133904938Y-75255413D01*
X133966094Y-75483655D01*
X133966096Y-75483659D01*
X133966097Y-75483663D01*
X134047146Y-75657473D01*
X134065965Y-75697830D01*
X134065967Y-75697834D01*
X134201501Y-75891395D01*
X134201506Y-75891402D01*
X134368597Y-76058493D01*
X134368603Y-76058498D01*
X134554158Y-76188425D01*
X134597783Y-76243002D01*
X134604977Y-76312500D01*
X134573454Y-76374855D01*
X134554158Y-76391575D01*
X134368597Y-76521505D01*
X134201505Y-76688597D01*
X134065965Y-76882169D01*
X134065964Y-76882171D01*
X133966098Y-77096335D01*
X133966094Y-77096344D01*
X133904938Y-77324586D01*
X133904936Y-77324596D01*
X133884341Y-77559999D01*
X133884341Y-77560000D01*
X133904936Y-77795403D01*
X133904938Y-77795413D01*
X133966094Y-78023655D01*
X133966095Y-78023657D01*
X133966097Y-78023663D01*
X134056789Y-78218153D01*
X134065965Y-78237830D01*
X134065967Y-78237834D01*
X134151330Y-78359744D01*
X134199243Y-78428171D01*
X134201501Y-78431395D01*
X134201506Y-78431402D01*
X134368597Y-78598493D01*
X134368603Y-78598498D01*
X134554158Y-78728425D01*
X134597783Y-78783002D01*
X134604977Y-78852500D01*
X134573454Y-78914855D01*
X134554158Y-78931575D01*
X134368597Y-79061505D01*
X134201505Y-79228597D01*
X134065965Y-79422169D01*
X134065964Y-79422171D01*
X133966098Y-79636335D01*
X133966094Y-79636344D01*
X133904938Y-79864586D01*
X133904936Y-79864596D01*
X133884341Y-80099999D01*
X133884341Y-80100000D01*
X133904936Y-80335403D01*
X133904938Y-80335413D01*
X133966094Y-80563655D01*
X133966099Y-80563669D01*
X134014307Y-80667052D01*
X134024799Y-80736130D01*
X133996279Y-80799913D01*
X133949379Y-80834016D01*
X133935759Y-80839657D01*
X133935744Y-80839665D01*
X133830896Y-80909723D01*
X133830892Y-80909726D01*
X133820881Y-80919738D01*
X133759558Y-80953223D01*
X133689866Y-80948239D01*
X133633933Y-80906367D01*
X133609516Y-80840903D01*
X133609200Y-80832057D01*
X133609200Y-76594459D01*
X133628207Y-76528486D01*
X133694788Y-76422524D01*
X133735915Y-76304991D01*
X133754368Y-76252255D01*
X133757517Y-76224306D01*
X133774565Y-76073003D01*
X133774565Y-76072996D01*
X133754369Y-75893750D01*
X133754368Y-75893745D01*
X133716647Y-75785945D01*
X133694789Y-75723478D01*
X133678676Y-75697834D01*
X133628206Y-75617511D01*
X133609200Y-75551539D01*
X133609200Y-73221188D01*
X133609201Y-73221167D01*
X133609201Y-73088943D01*
X133584599Y-72965265D01*
X133584598Y-72965263D01*
X133584598Y-72965261D01*
X133577491Y-72948104D01*
X133549768Y-72881174D01*
X133536339Y-72848752D01*
X133466276Y-72743896D01*
X133466273Y-72743892D01*
X128083104Y-67360723D01*
X127978245Y-67290659D01*
X127978243Y-67290658D01*
X127909999Y-67262391D01*
X127887776Y-67253186D01*
X127861746Y-67242404D01*
X127861734Y-67242400D01*
X127738058Y-67217800D01*
X127738054Y-67217800D01*
X114213479Y-67217800D01*
X114146440Y-67198115D01*
X114100685Y-67145311D01*
X114091582Y-67111783D01*
X114091415Y-67111819D01*
X114090754Y-67108733D01*
X114090121Y-67106401D01*
X114089999Y-67105203D01*
X114034814Y-66938666D01*
X113942712Y-66789344D01*
X113818656Y-66665288D01*
X113669334Y-66573186D01*
X113502797Y-66518001D01*
X113502795Y-66518000D01*
X113400010Y-66507500D01*
X111799998Y-66507500D01*
X111799981Y-66507501D01*
X111697203Y-66518000D01*
X111697200Y-66518001D01*
X111530668Y-66573185D01*
X111530663Y-66573187D01*
X111381342Y-66665289D01*
X111257289Y-66789342D01*
X111165187Y-66938663D01*
X111165186Y-66938666D01*
X111110001Y-67105203D01*
X111110001Y-67105204D01*
X111110000Y-67105204D01*
X111099500Y-67207983D01*
X111099500Y-68508001D01*
X110100500Y-68508001D01*
X110100500Y-57766778D01*
X110120185Y-57699739D01*
X110172989Y-57653984D01*
X110242147Y-57644040D01*
X110305703Y-57673065D01*
X110309752Y-57676734D01*
X110460163Y-57819211D01*
X110745081Y-58035800D01*
X111051747Y-58220315D01*
X111051749Y-58220316D01*
X111051751Y-58220317D01*
X111051755Y-58220319D01*
X111321789Y-58345249D01*
X111376565Y-58370591D01*
X111715726Y-58484868D01*
X112065254Y-58561805D01*
X112421052Y-58600500D01*
X112421058Y-58600500D01*
X112778942Y-58600500D01*
X112778948Y-58600500D01*
X113134746Y-58561805D01*
X113484274Y-58484868D01*
X113823435Y-58370591D01*
X114148253Y-58220315D01*
X114454919Y-58035800D01*
X114739837Y-57819211D01*
X114999668Y-57573086D01*
X115231365Y-57300311D01*
X115432211Y-57004085D01*
X115599853Y-56687880D01*
X115732324Y-56355403D01*
X115828071Y-56010552D01*
X115862727Y-55799159D01*
X115885970Y-55657385D01*
X115885970Y-55657382D01*
X115885972Y-55657371D01*
X115888904Y-55603287D01*
X117641500Y-55603287D01*
X117674754Y-55813243D01*
X117693845Y-55872000D01*
X117740444Y-56015414D01*
X117836951Y-56204820D01*
X117961890Y-56376786D01*
X118112213Y-56527109D01*
X118284179Y-56652048D01*
X118284181Y-56652049D01*
X118284184Y-56652051D01*
X118473588Y-56748557D01*
X118675757Y-56814246D01*
X118885713Y-56847500D01*
X118885714Y-56847500D01*
X119098286Y-56847500D01*
X119098287Y-56847500D01*
X119308243Y-56814246D01*
X119407777Y-56781904D01*
X119477617Y-56779910D01*
X119533775Y-56812155D01*
X121751481Y-59029860D01*
X121784966Y-59091183D01*
X121787800Y-59117541D01*
X121787800Y-61454539D01*
X121768794Y-61520511D01*
X121702211Y-61626476D01*
X121642631Y-61796745D01*
X121642630Y-61796750D01*
X121622435Y-61975996D01*
X121622435Y-61976003D01*
X121642630Y-62155249D01*
X121642631Y-62155254D01*
X121702211Y-62325523D01*
X121798184Y-62478262D01*
X121925738Y-62605816D01*
X122078478Y-62701789D01*
X122248745Y-62761368D01*
X122248750Y-62761369D01*
X122427996Y-62781565D01*
X122428000Y-62781565D01*
X122428004Y-62781565D01*
X122607249Y-62761369D01*
X122607252Y-62761368D01*
X122607255Y-62761368D01*
X122777522Y-62701789D01*
X122930262Y-62605816D01*
X123057816Y-62478262D01*
X123153789Y-62325522D01*
X123213368Y-62155255D01*
X123233565Y-61976000D01*
X123213368Y-61796745D01*
X123153789Y-61626478D01*
X123125445Y-61581369D01*
X123087206Y-61520511D01*
X123068200Y-61454539D01*
X123068200Y-58737945D01*
X123068199Y-58737941D01*
X123043599Y-58614267D01*
X123043598Y-58614260D01*
X122995338Y-58497751D01*
X122995337Y-58497750D01*
X122995334Y-58497744D01*
X122925276Y-58392896D01*
X122925273Y-58392892D01*
X122831785Y-58299404D01*
X122831762Y-58299383D01*
X121581825Y-57049446D01*
X121548340Y-56988123D01*
X121553324Y-56918431D01*
X121595196Y-56862498D01*
X121650106Y-56839292D01*
X121808243Y-56814246D01*
X122010412Y-56748557D01*
X122199816Y-56652051D01*
X122221789Y-56636086D01*
X122371786Y-56527109D01*
X122371788Y-56527106D01*
X122371792Y-56527104D01*
X122522104Y-56376792D01*
X122641683Y-56212204D01*
X122697011Y-56169540D01*
X122766624Y-56163561D01*
X122828420Y-56196166D01*
X122842313Y-56212199D01*
X122887793Y-56274797D01*
X122961896Y-56376792D01*
X123112213Y-56527109D01*
X123284179Y-56652048D01*
X123284181Y-56652049D01*
X123284184Y-56652051D01*
X123473588Y-56748557D01*
X123675757Y-56814246D01*
X123885713Y-56847500D01*
X123885714Y-56847500D01*
X124098286Y-56847500D01*
X124098287Y-56847500D01*
X124308243Y-56814246D01*
X124402495Y-56783620D01*
X124472333Y-56781626D01*
X124528492Y-56813871D01*
X124623481Y-56908860D01*
X124656966Y-56970183D01*
X124659800Y-56996541D01*
X124659800Y-57644539D01*
X124640794Y-57710511D01*
X124574211Y-57816476D01*
X124514631Y-57986745D01*
X124514630Y-57986750D01*
X124494435Y-58165996D01*
X124494435Y-58166003D01*
X124514630Y-58345249D01*
X124514631Y-58345254D01*
X124574211Y-58515523D01*
X124670184Y-58668262D01*
X124797738Y-58795816D01*
X124950478Y-58891789D01*
X125120745Y-58951368D01*
X125120750Y-58951369D01*
X125299996Y-58971565D01*
X125300000Y-58971565D01*
X125300004Y-58971565D01*
X125479249Y-58951369D01*
X125479252Y-58951368D01*
X125479255Y-58951368D01*
X125649522Y-58891789D01*
X125802262Y-58795816D01*
X125929816Y-58668262D01*
X126025789Y-58515522D01*
X126085368Y-58345255D01*
X126085369Y-58345249D01*
X126105565Y-58166003D01*
X126105565Y-58165996D01*
X126085369Y-57986750D01*
X126085368Y-57986745D01*
X126025789Y-57816478D01*
X126025788Y-57816476D01*
X125959206Y-57710511D01*
X125940200Y-57644539D01*
X125940200Y-56971499D01*
X125959885Y-56904460D01*
X126012689Y-56858705D01*
X126064200Y-56847499D01*
X126992796Y-56847499D01*
X127059835Y-56867184D01*
X127080477Y-56883818D01*
X127834781Y-57638121D01*
X127868266Y-57699444D01*
X127871100Y-57725802D01*
X127871100Y-59802195D01*
X127851415Y-59869234D01*
X127834781Y-59889876D01*
X127749948Y-59974709D01*
X127688625Y-60008194D01*
X127676163Y-60010246D01*
X127672745Y-60010632D01*
X127672744Y-60010632D01*
X127502478Y-60070210D01*
X127349737Y-60166184D01*
X127222184Y-60293737D01*
X127126211Y-60446476D01*
X127066631Y-60616745D01*
X127066630Y-60616750D01*
X127046435Y-60795996D01*
X127046435Y-60796003D01*
X127066630Y-60975249D01*
X127066631Y-60975254D01*
X127126211Y-61145523D01*
X127222184Y-61298262D01*
X127349738Y-61425816D01*
X127502478Y-61521789D01*
X127672745Y-61581368D01*
X127672750Y-61581369D01*
X127851996Y-61601565D01*
X127852000Y-61601565D01*
X127852004Y-61601565D01*
X128031249Y-61581369D01*
X128031252Y-61581368D01*
X128031255Y-61581368D01*
X128201522Y-61521789D01*
X128354262Y-61425816D01*
X128481816Y-61298262D01*
X128577789Y-61145522D01*
X128637368Y-60975255D01*
X128637751Y-60971854D01*
X128638611Y-60969806D01*
X128638917Y-60968468D01*
X128639151Y-60968521D01*
X128664813Y-60907439D01*
X128673281Y-60898058D01*
X129031141Y-60540199D01*
X129102593Y-60433263D01*
X129151809Y-60314443D01*
X129176900Y-60188305D01*
X129176900Y-60059695D01*
X129176900Y-57339695D01*
X129176900Y-57339692D01*
X129151810Y-57213561D01*
X129151809Y-57213560D01*
X129151809Y-57213556D01*
X129102592Y-57094736D01*
X129072867Y-57050249D01*
X129072867Y-57050248D01*
X129031139Y-56987798D01*
X127878818Y-55835477D01*
X127845333Y-55774154D01*
X127842499Y-55747796D01*
X127842499Y-55628246D01*
X132421000Y-55628246D01*
X132454242Y-55838127D01*
X132454242Y-55838130D01*
X132519904Y-56040217D01*
X132616379Y-56229557D01*
X132741272Y-56401459D01*
X132741276Y-56401464D01*
X132891535Y-56551723D01*
X132891540Y-56551727D01*
X133063442Y-56676620D01*
X133252782Y-56773095D01*
X133454871Y-56838757D01*
X133521000Y-56849231D01*
X133521000Y-55805012D01*
X133578007Y-55837925D01*
X133705174Y-55872000D01*
X133836826Y-55872000D01*
X133963993Y-55837925D01*
X134021000Y-55805012D01*
X134021000Y-56849230D01*
X134087126Y-56838757D01*
X134087129Y-56838757D01*
X134289217Y-56773095D01*
X134478557Y-56676620D01*
X134650458Y-56551728D01*
X134789330Y-56412856D01*
X134850653Y-56379371D01*
X134920345Y-56384355D01*
X134976279Y-56426226D01*
X134982551Y-56435440D01*
X134986185Y-56441331D01*
X134986186Y-56441334D01*
X135078288Y-56590656D01*
X135202344Y-56714712D01*
X135351666Y-56806814D01*
X135518203Y-56861999D01*
X135620991Y-56872500D01*
X136921008Y-56872499D01*
X137023797Y-56861999D01*
X137190334Y-56806814D01*
X137339656Y-56714712D01*
X137463712Y-56590656D01*
X137555814Y-56441334D01*
X137610999Y-56274797D01*
X137621500Y-56172009D01*
X137621499Y-54571992D01*
X137610999Y-54469203D01*
X137555814Y-54302666D01*
X137463712Y-54153344D01*
X137339656Y-54029288D01*
X137190334Y-53937186D01*
X137023797Y-53882001D01*
X137023795Y-53882000D01*
X136921010Y-53871500D01*
X135620998Y-53871500D01*
X135620981Y-53871501D01*
X135518203Y-53882000D01*
X135518200Y-53882001D01*
X135351668Y-53937185D01*
X135351663Y-53937187D01*
X135202342Y-54029289D01*
X135078289Y-54153342D01*
X134982551Y-54308559D01*
X134930603Y-54355283D01*
X134861640Y-54366506D01*
X134797558Y-54338662D01*
X134789331Y-54331143D01*
X134650464Y-54192276D01*
X134650459Y-54192272D01*
X134478557Y-54067379D01*
X134289215Y-53970903D01*
X134087124Y-53905241D01*
X134021000Y-53894768D01*
X134021000Y-54938988D01*
X133963993Y-54906075D01*
X133836826Y-54872000D01*
X133705174Y-54872000D01*
X133578007Y-54906075D01*
X133521000Y-54938988D01*
X133521000Y-53894768D01*
X133520999Y-53894768D01*
X133454875Y-53905241D01*
X133252784Y-53970903D01*
X133063442Y-54067379D01*
X132891540Y-54192272D01*
X132891535Y-54192276D01*
X132741276Y-54342535D01*
X132741272Y-54342540D01*
X132616379Y-54514442D01*
X132519904Y-54703782D01*
X132454242Y-54905869D01*
X132454242Y-54905872D01*
X132421000Y-55115753D01*
X132421000Y-55122000D01*
X133337988Y-55122000D01*
X133305075Y-55179007D01*
X133271000Y-55306174D01*
X133271000Y-55437826D01*
X133305075Y-55564993D01*
X133337988Y-55622000D01*
X132421000Y-55622000D01*
X132421000Y-55628246D01*
X127842499Y-55628246D01*
X127842499Y-54596998D01*
X127842498Y-54596981D01*
X127831999Y-54494203D01*
X127831998Y-54494200D01*
X127816829Y-54448423D01*
X127776814Y-54327666D01*
X127684712Y-54178344D01*
X127560656Y-54054288D01*
X127411334Y-53962186D01*
X127244797Y-53907001D01*
X127244795Y-53907000D01*
X127142010Y-53896500D01*
X125841998Y-53896500D01*
X125841981Y-53896501D01*
X125739203Y-53907000D01*
X125739200Y-53907001D01*
X125572668Y-53962185D01*
X125572663Y-53962187D01*
X125423342Y-54054289D01*
X125299289Y-54178342D01*
X125203821Y-54333121D01*
X125151873Y-54379845D01*
X125082910Y-54391068D01*
X125018828Y-54363224D01*
X125010601Y-54355705D01*
X124871786Y-54216890D01*
X124699820Y-54091951D01*
X124510414Y-53995444D01*
X124510413Y-53995443D01*
X124510412Y-53995443D01*
X124308243Y-53929754D01*
X124308241Y-53929753D01*
X124308240Y-53929753D01*
X124146957Y-53904208D01*
X124098287Y-53896500D01*
X123885713Y-53896500D01*
X123837042Y-53904208D01*
X123675760Y-53929753D01*
X123473585Y-53995444D01*
X123284179Y-54091951D01*
X123112213Y-54216890D01*
X122961894Y-54367209D01*
X122961890Y-54367214D01*
X122842318Y-54531793D01*
X122786989Y-54574459D01*
X122717375Y-54580438D01*
X122655580Y-54547833D01*
X122641682Y-54531793D01*
X122522109Y-54367214D01*
X122522105Y-54367209D01*
X122371786Y-54216890D01*
X122199820Y-54091951D01*
X122010414Y-53995444D01*
X122010413Y-53995443D01*
X122010412Y-53995443D01*
X121808243Y-53929754D01*
X121808241Y-53929753D01*
X121808240Y-53929753D01*
X121646957Y-53904208D01*
X121598287Y-53896500D01*
X121385713Y-53896500D01*
X121337042Y-53904208D01*
X121175760Y-53929753D01*
X120973585Y-53995444D01*
X120784179Y-54091951D01*
X120612213Y-54216890D01*
X120461894Y-54367209D01*
X120461890Y-54367214D01*
X120342318Y-54531793D01*
X120286989Y-54574459D01*
X120217375Y-54580438D01*
X120155580Y-54547833D01*
X120141682Y-54531793D01*
X120022109Y-54367214D01*
X120022105Y-54367209D01*
X119871786Y-54216890D01*
X119699820Y-54091951D01*
X119510414Y-53995444D01*
X119510413Y-53995443D01*
X119510412Y-53995443D01*
X119308243Y-53929754D01*
X119308241Y-53929753D01*
X119308240Y-53929753D01*
X119146957Y-53904208D01*
X119098287Y-53896500D01*
X118885713Y-53896500D01*
X118837042Y-53904208D01*
X118675760Y-53929753D01*
X118473585Y-53995444D01*
X118284179Y-54091951D01*
X118112213Y-54216890D01*
X117961890Y-54367213D01*
X117836951Y-54539179D01*
X117740444Y-54728585D01*
X117674753Y-54930760D01*
X117672873Y-54942631D01*
X117641500Y-55140713D01*
X117641500Y-55603287D01*
X115888904Y-55603287D01*
X115905348Y-55300000D01*
X115885972Y-54942629D01*
X115884026Y-54930760D01*
X115828073Y-54589460D01*
X115828072Y-54589459D01*
X115828071Y-54589448D01*
X115788916Y-54448423D01*
X115732327Y-54244607D01*
X115732325Y-54244600D01*
X115721284Y-54216890D01*
X115671504Y-54091951D01*
X115599857Y-53912129D01*
X115599848Y-53912111D01*
X115597138Y-53907000D01*
X115432211Y-53595915D01*
X115231365Y-53299689D01*
X115231361Y-53299684D01*
X115231358Y-53299680D01*
X114999675Y-53026922D01*
X114999671Y-53026917D01*
X114999668Y-53026914D01*
X114986585Y-53014521D01*
X114951453Y-52954131D01*
X114954548Y-52884330D01*
X114994889Y-52827282D01*
X115059668Y-52801101D01*
X115071861Y-52800500D01*
X140128139Y-52800500D01*
X140195178Y-52820185D01*
G37*
%TD.AperFunction*%
%TD*%
%TA.AperFunction,NonConductor*%
G36*
X124974295Y-78173803D02*
G01*
X125031911Y-78213327D01*
X125059013Y-78277726D01*
X125059800Y-78291676D01*
X125059800Y-78643057D01*
X125040115Y-78710096D01*
X124987311Y-78755851D01*
X124918153Y-78765795D01*
X124854597Y-78736770D01*
X124848119Y-78730738D01*
X124670233Y-78552852D01*
X124636748Y-78491529D01*
X124641732Y-78421837D01*
X124681752Y-78367318D01*
X124737744Y-78323738D01*
X124844571Y-78207691D01*
X124904457Y-78171703D01*
X124974295Y-78173803D01*
G37*
%TD.AperFunction*%
%TA.AperFunction,NonConductor*%
G36*
X118955403Y-78485037D02*
G01*
X118961881Y-78491069D01*
X119128917Y-78658105D01*
X119314595Y-78788119D01*
X119358219Y-78842696D01*
X119365412Y-78912195D01*
X119333890Y-78974549D01*
X119314595Y-78991269D01*
X119128594Y-79121508D01*
X118961881Y-79288222D01*
X118900558Y-79321707D01*
X118830866Y-79316723D01*
X118774933Y-79274851D01*
X118750516Y-79209387D01*
X118750200Y-79200541D01*
X118750200Y-78578750D01*
X118769885Y-78511711D01*
X118822689Y-78465956D01*
X118891847Y-78456012D01*
X118955403Y-78485037D01*
G37*
%TD.AperFunction*%
%TA.AperFunction,NonConductor*%
G36*
X136806134Y-85111514D02*
G01*
X138023481Y-86328861D01*
X138056966Y-86390184D01*
X138059800Y-86416542D01*
X138059800Y-86795058D01*
X138040115Y-86862097D01*
X137987311Y-86907852D01*
X137918153Y-86917796D01*
X137854597Y-86888771D01*
X137848119Y-86882739D01*
X136584630Y-85619250D01*
X136551145Y-85557927D01*
X136552536Y-85499476D01*
X136575063Y-85415408D01*
X136594925Y-85188386D01*
X136620378Y-85123319D01*
X136676968Y-85082340D01*
X136746730Y-85078462D01*
X136806134Y-85111514D01*
G37*
%TD.AperFunction*%
%TA.AperFunction,NonConductor*%
G36*
X121359448Y-88419970D02*
G01*
X121399979Y-88476882D01*
X121406800Y-88517443D01*
X121406800Y-89582557D01*
X121387115Y-89649596D01*
X121334311Y-89695351D01*
X121265153Y-89705295D01*
X121201597Y-89676270D01*
X121175414Y-89644560D01*
X121174037Y-89642175D01*
X121174035Y-89642171D01*
X121132023Y-89582171D01*
X121038494Y-89448597D01*
X120871402Y-89281506D01*
X120871396Y-89281501D01*
X120685842Y-89151575D01*
X120642217Y-89096998D01*
X120635023Y-89027500D01*
X120666546Y-88965145D01*
X120685842Y-88948425D01*
X120763519Y-88894035D01*
X120871401Y-88818495D01*
X121038495Y-88651401D01*
X121174035Y-88457830D01*
X121174037Y-88457824D01*
X121175411Y-88455447D01*
X121176292Y-88454606D01*
X121177140Y-88453396D01*
X121177383Y-88453566D01*
X121225976Y-88407229D01*
X121294583Y-88394004D01*
X121359448Y-88419970D01*
G37*
%TD.AperFunction*%
%TA.AperFunction,NonConductor*%
G36*
X136603664Y-95946331D02*
G01*
X136648999Y-95999496D01*
X136659800Y-96050112D01*
X136659800Y-97169887D01*
X136640115Y-97236926D01*
X136587311Y-97282681D01*
X136518153Y-97292625D01*
X136454597Y-97263600D01*
X136423418Y-97222293D01*
X136420736Y-97216542D01*
X136414035Y-97202171D01*
X136326871Y-97077687D01*
X136278494Y-97008597D01*
X136111402Y-96841506D01*
X136111396Y-96841501D01*
X135925842Y-96711575D01*
X135882217Y-96656998D01*
X135875023Y-96587500D01*
X135906546Y-96525145D01*
X135925842Y-96508425D01*
X136025715Y-96438493D01*
X136111401Y-96378495D01*
X136278495Y-96211401D01*
X136414035Y-96017830D01*
X136423419Y-95997705D01*
X136469589Y-95945268D01*
X136536783Y-95926116D01*
X136603664Y-95946331D01*
G37*
%TD.AperFunction*%
%TA.AperFunction,NonConductor*%
G36*
X136603664Y-98486331D02*
G01*
X136648999Y-98539496D01*
X136659800Y-98590112D01*
X136659800Y-99709887D01*
X136640115Y-99776926D01*
X136587311Y-99822681D01*
X136518153Y-99832625D01*
X136454597Y-99803600D01*
X136423418Y-99762293D01*
X136414035Y-99742171D01*
X136391430Y-99709887D01*
X136278494Y-99548597D01*
X136111402Y-99381506D01*
X136111396Y-99381501D01*
X135925842Y-99251575D01*
X135882217Y-99196998D01*
X135875023Y-99127500D01*
X135906546Y-99065145D01*
X135925842Y-99048425D01*
X136037450Y-98970276D01*
X136111401Y-98918495D01*
X136278495Y-98751401D01*
X136414035Y-98557830D01*
X136423419Y-98537705D01*
X136469589Y-98485268D01*
X136536783Y-98466116D01*
X136603664Y-98486331D01*
G37*
%TD.AperFunction*%
%TA.AperFunction,NonConductor*%
G36*
X136603664Y-101026331D02*
G01*
X136648999Y-101079496D01*
X136659800Y-101130112D01*
X136659800Y-102249887D01*
X136640115Y-102316926D01*
X136587311Y-102362681D01*
X136518153Y-102372625D01*
X136454597Y-102343600D01*
X136423418Y-102302293D01*
X136414035Y-102282171D01*
X136414033Y-102282168D01*
X136278494Y-102088597D01*
X136111402Y-101921506D01*
X136111401Y-101921505D01*
X135933077Y-101796641D01*
X135933076Y-101796640D01*
X135889451Y-101742063D01*
X135880200Y-101695065D01*
X135880200Y-101684934D01*
X135899885Y-101617895D01*
X135933077Y-101583359D01*
X136063699Y-101491896D01*
X136111401Y-101458495D01*
X136278495Y-101291401D01*
X136414035Y-101097830D01*
X136423419Y-101077705D01*
X136469589Y-101025268D01*
X136536783Y-101006116D01*
X136603664Y-101026331D01*
G37*
%TD.AperFunction*%
%TA.AperFunction,NonConductor*%
G36*
X136603664Y-103566331D02*
G01*
X136648999Y-103619496D01*
X136659800Y-103670112D01*
X136659800Y-104205346D01*
X136640115Y-104272385D01*
X136587311Y-104318140D01*
X136518153Y-104328084D01*
X136454597Y-104299059D01*
X136448119Y-104293027D01*
X136447544Y-104292452D01*
X136332335Y-104206206D01*
X136332328Y-104206202D01*
X136200917Y-104157189D01*
X136144983Y-104115318D01*
X136120566Y-104049853D01*
X136135418Y-103981580D01*
X136156563Y-103953332D01*
X136278495Y-103831401D01*
X136414035Y-103637830D01*
X136423419Y-103617705D01*
X136469589Y-103565268D01*
X136536783Y-103546116D01*
X136603664Y-103566331D01*
G37*
%TD.AperFunction*%
%TA.AperFunction,NonConductor*%
G36*
X118745403Y-103550619D02*
G01*
X118776580Y-103591925D01*
X118823578Y-103692712D01*
X118825965Y-103697830D01*
X118825967Y-103697834D01*
X118961501Y-103891395D01*
X118961506Y-103891402D01*
X119128597Y-104058493D01*
X119128603Y-104058498D01*
X119314158Y-104188425D01*
X119357783Y-104243002D01*
X119364977Y-104312500D01*
X119333454Y-104374855D01*
X119314158Y-104391575D01*
X119128597Y-104521505D01*
X118961505Y-104688597D01*
X118825965Y-104882169D01*
X118825964Y-104882171D01*
X118776582Y-104988072D01*
X118730409Y-105040511D01*
X118663216Y-105059663D01*
X118596335Y-105039447D01*
X118551000Y-104986282D01*
X118540200Y-104935667D01*
X118540200Y-103644332D01*
X118559885Y-103577293D01*
X118612689Y-103531538D01*
X118681847Y-103521594D01*
X118745403Y-103550619D01*
G37*
%TD.AperFunction*%
M02*
