%TF.GenerationSoftware,KiCad,Pcbnew,8.0.1*%
%TF.CreationDate,2024-06-19T16:46:37+02:00*%
%TF.ProjectId,MotorShield,4d6f746f-7253-4686-9965-6c642e6b6963,V_1*%
%TF.SameCoordinates,Original*%
%TF.FileFunction,Legend,Top*%
%TF.FilePolarity,Positive*%
%FSLAX46Y46*%
G04 Gerber Fmt 4.6, Leading zero omitted, Abs format (unit mm)*
G04 Created by KiCad (PCBNEW 8.0.1) date 2024-06-19 16:46:37*
%MOMM*%
%LPD*%
G01*
G04 APERTURE LIST*
%ADD10C,0.158750*%
%ADD11C,0.127000*%
%ADD12C,0.120000*%
%ADD13C,0.150000*%
G04 APERTURE END LIST*
D10*
G36*
X125500969Y-140039292D02*
G01*
X125537464Y-140040194D01*
X125572738Y-140042100D01*
X125606530Y-140045903D01*
X125619684Y-140048673D01*
X125649231Y-140059374D01*
X125675932Y-140075424D01*
X125699787Y-140096822D01*
X125711810Y-140111021D01*
X125729728Y-140140286D01*
X125740733Y-140170028D01*
X125747104Y-140203279D01*
X125748878Y-140235252D01*
X125747185Y-140266756D01*
X125741332Y-140298308D01*
X125730066Y-140328817D01*
X125727475Y-140333892D01*
X125709808Y-140361481D01*
X125687027Y-140385907D01*
X125673192Y-140396705D01*
X125646272Y-140412695D01*
X125616823Y-140424247D01*
X125606191Y-140426948D01*
X125573261Y-140431774D01*
X125541093Y-140434347D01*
X125508700Y-140435661D01*
X125472345Y-140436099D01*
X125388128Y-140436099D01*
X125388128Y-140684250D01*
X125258935Y-140684250D01*
X125258935Y-140148244D01*
X125388128Y-140148244D01*
X125388128Y-140326912D01*
X125458851Y-140326912D01*
X125493845Y-140326302D01*
X125525657Y-140324155D01*
X125557488Y-140318325D01*
X125560903Y-140317142D01*
X125588723Y-140300372D01*
X125601228Y-140286123D01*
X125613757Y-140257091D01*
X125615807Y-140237113D01*
X125610689Y-140205823D01*
X125595334Y-140180504D01*
X125570475Y-140161501D01*
X125543378Y-140152587D01*
X125511455Y-140149470D01*
X125478777Y-140148452D01*
X125450476Y-140148244D01*
X125388128Y-140148244D01*
X125258935Y-140148244D01*
X125258935Y-140039058D01*
X125466141Y-140039058D01*
X125500969Y-140039292D01*
G37*
G36*
X126065498Y-140208735D02*
G01*
X126099296Y-140212094D01*
X126131039Y-140218792D01*
X126153673Y-140227342D01*
X126180442Y-140243481D01*
X126203181Y-140266060D01*
X126210128Y-140276972D01*
X126220146Y-140306510D01*
X126224625Y-140337967D01*
X126226423Y-140372624D01*
X126226568Y-140387244D01*
X126225172Y-140531172D01*
X126225638Y-140563167D01*
X126227474Y-140595342D01*
X126231065Y-140621747D01*
X126239518Y-140651951D01*
X126252091Y-140682170D01*
X126253089Y-140684250D01*
X126131960Y-140684250D01*
X126122301Y-140653955D01*
X126120173Y-140646407D01*
X126115830Y-140631362D01*
X126091607Y-140652751D01*
X126063986Y-140670901D01*
X126048520Y-140678511D01*
X126018717Y-140688653D01*
X125987277Y-140693625D01*
X125972213Y-140694176D01*
X125938354Y-140691713D01*
X125904782Y-140683058D01*
X125875994Y-140668169D01*
X125859460Y-140654782D01*
X125839517Y-140630966D01*
X125825013Y-140600620D01*
X125818849Y-140569812D01*
X125818205Y-140555056D01*
X125819229Y-140544820D01*
X125940884Y-140544820D01*
X125949974Y-140575362D01*
X125960116Y-140587161D01*
X125988215Y-140602355D01*
X126008971Y-140604841D01*
X126041385Y-140599684D01*
X126070365Y-140585483D01*
X126072249Y-140584214D01*
X126094035Y-140561774D01*
X126101407Y-140545750D01*
X126105647Y-140514586D01*
X126106215Y-140488986D01*
X126106215Y-140465877D01*
X126075777Y-140474058D01*
X126043942Y-140481161D01*
X126031614Y-140483713D01*
X126000712Y-140490713D01*
X125970682Y-140500765D01*
X125964924Y-140503875D01*
X125944265Y-140527430D01*
X125940884Y-140544820D01*
X125819229Y-140544820D01*
X125821302Y-140524104D01*
X125831565Y-140493977D01*
X125836971Y-140484023D01*
X125856271Y-140459430D01*
X125881330Y-140440478D01*
X125889548Y-140436099D01*
X125919115Y-140424241D01*
X125950186Y-140415260D01*
X125983148Y-140407876D01*
X125987102Y-140407096D01*
X126022170Y-140400015D01*
X126056068Y-140392195D01*
X126086324Y-140383745D01*
X126106215Y-140376543D01*
X126106215Y-140363980D01*
X126101833Y-140333039D01*
X126088689Y-140312489D01*
X126059333Y-140300073D01*
X126025923Y-140297149D01*
X126022929Y-140297134D01*
X125990628Y-140301306D01*
X125971748Y-140310317D01*
X125951598Y-140334611D01*
X125942125Y-140356691D01*
X125830922Y-140336838D01*
X125841992Y-140306091D01*
X125858478Y-140276598D01*
X125879233Y-140252504D01*
X125895442Y-140239439D01*
X125924773Y-140224145D01*
X125956737Y-140214752D01*
X125989254Y-140209778D01*
X126020504Y-140207924D01*
X126031614Y-140207800D01*
X126065498Y-140208735D01*
G37*
G36*
X126649820Y-140684250D02*
G01*
X126649820Y-140614922D01*
X126628613Y-140640477D01*
X126602914Y-140661538D01*
X126583284Y-140673083D01*
X126554460Y-140685092D01*
X126521719Y-140692507D01*
X126496277Y-140694176D01*
X126462711Y-140691275D01*
X126431806Y-140682573D01*
X126412681Y-140673548D01*
X126385942Y-140654049D01*
X126365961Y-140629073D01*
X126359018Y-140615698D01*
X126348906Y-140583673D01*
X126344044Y-140550888D01*
X126342439Y-140516642D01*
X126342423Y-140512560D01*
X126342423Y-140217726D01*
X126464948Y-140217726D01*
X126464948Y-140434393D01*
X126465182Y-140468969D01*
X126466048Y-140502472D01*
X126468100Y-140534729D01*
X126471617Y-140556297D01*
X126487115Y-140583674D01*
X126496277Y-140591813D01*
X126525486Y-140603569D01*
X126541719Y-140604841D01*
X126573168Y-140599895D01*
X126597863Y-140587316D01*
X126620949Y-140564949D01*
X126631984Y-140543889D01*
X126637909Y-140510305D01*
X126640053Y-140477296D01*
X126640992Y-140440701D01*
X126641135Y-140416557D01*
X126641135Y-140217726D01*
X126763659Y-140217726D01*
X126763659Y-140684250D01*
X126649820Y-140684250D01*
G37*
G36*
X126887734Y-140684250D02*
G01*
X126887734Y-140039058D01*
X127010414Y-140039058D01*
X127010414Y-140684250D01*
X126887734Y-140684250D01*
G37*
G36*
X127380779Y-140684250D02*
G01*
X127380779Y-140039058D01*
X127574026Y-140039058D01*
X127690037Y-140479215D01*
X127804806Y-140039058D01*
X127998364Y-140039058D01*
X127998364Y-140684250D01*
X127878476Y-140684250D01*
X127878476Y-140176316D01*
X127751454Y-140684250D01*
X127627224Y-140684250D01*
X127500667Y-140176316D01*
X127500667Y-140684250D01*
X127380779Y-140684250D01*
G37*
G36*
X128121664Y-140148244D02*
G01*
X128121664Y-140039058D01*
X128244343Y-140039058D01*
X128244343Y-140148244D01*
X128121664Y-140148244D01*
G37*
G36*
X128121664Y-140684250D02*
G01*
X128121664Y-140217726D01*
X128244343Y-140217726D01*
X128244343Y-140684250D01*
X128121664Y-140684250D01*
G37*
G36*
X128583607Y-140208735D02*
G01*
X128617406Y-140212094D01*
X128649149Y-140218792D01*
X128671783Y-140227342D01*
X128698551Y-140243481D01*
X128721291Y-140266060D01*
X128728237Y-140276972D01*
X128738255Y-140306510D01*
X128742735Y-140337967D01*
X128744533Y-140372624D01*
X128744677Y-140387244D01*
X128743281Y-140531172D01*
X128743748Y-140563167D01*
X128745584Y-140595342D01*
X128749175Y-140621747D01*
X128757628Y-140651951D01*
X128770200Y-140682170D01*
X128771198Y-140684250D01*
X128650070Y-140684250D01*
X128640411Y-140653955D01*
X128638283Y-140646407D01*
X128633940Y-140631362D01*
X128609716Y-140652751D01*
X128582096Y-140670901D01*
X128566629Y-140678511D01*
X128536827Y-140688653D01*
X128505386Y-140693625D01*
X128490323Y-140694176D01*
X128456464Y-140691713D01*
X128422891Y-140683058D01*
X128394103Y-140668169D01*
X128377569Y-140654782D01*
X128357627Y-140630966D01*
X128343123Y-140600620D01*
X128336959Y-140569812D01*
X128336314Y-140555056D01*
X128337338Y-140544820D01*
X128458994Y-140544820D01*
X128468084Y-140575362D01*
X128478225Y-140587161D01*
X128506324Y-140602355D01*
X128527080Y-140604841D01*
X128559495Y-140599684D01*
X128588475Y-140585483D01*
X128590359Y-140584214D01*
X128612144Y-140561774D01*
X128619516Y-140545750D01*
X128623756Y-140514586D01*
X128624324Y-140488986D01*
X128624324Y-140465877D01*
X128593887Y-140474058D01*
X128562051Y-140481161D01*
X128549724Y-140483713D01*
X128518822Y-140490713D01*
X128488792Y-140500765D01*
X128483033Y-140503875D01*
X128462374Y-140527430D01*
X128458994Y-140544820D01*
X128337338Y-140544820D01*
X128339411Y-140524104D01*
X128349674Y-140493977D01*
X128355081Y-140484023D01*
X128374381Y-140459430D01*
X128399440Y-140440478D01*
X128407658Y-140436099D01*
X128437225Y-140424241D01*
X128468295Y-140415260D01*
X128501257Y-140407876D01*
X128505212Y-140407096D01*
X128540279Y-140400015D01*
X128574177Y-140392195D01*
X128604433Y-140383745D01*
X128624324Y-140376543D01*
X128624324Y-140363980D01*
X128619943Y-140333039D01*
X128606799Y-140312489D01*
X128577442Y-140300073D01*
X128544033Y-140297149D01*
X128541039Y-140297134D01*
X128508738Y-140301306D01*
X128489858Y-140310317D01*
X128469707Y-140334611D01*
X128460235Y-140356691D01*
X128349032Y-140336838D01*
X128360102Y-140306091D01*
X128376588Y-140276598D01*
X128397343Y-140252504D01*
X128413551Y-140239439D01*
X128442883Y-140224145D01*
X128474847Y-140214752D01*
X128507364Y-140209778D01*
X128538614Y-140207924D01*
X128549724Y-140207800D01*
X128583607Y-140208735D01*
G37*
G36*
X128863014Y-140148244D02*
G01*
X128863014Y-140039058D01*
X128985694Y-140039058D01*
X128985694Y-140148244D01*
X128863014Y-140148244D01*
G37*
G36*
X128863014Y-140684250D02*
G01*
X128863014Y-140217726D01*
X128985694Y-140217726D01*
X128985694Y-140684250D01*
X128863014Y-140684250D01*
G37*
G36*
X129109924Y-140684250D02*
G01*
X129109924Y-140039058D01*
X129232604Y-140039058D01*
X129232604Y-140684250D01*
X129109924Y-140684250D01*
G37*
G36*
X129479048Y-140039058D02*
G01*
X129479048Y-140273870D01*
X129502083Y-140251417D01*
X129531025Y-140231092D01*
X129562193Y-140217091D01*
X129595588Y-140209413D01*
X129620804Y-140207800D01*
X129653824Y-140210411D01*
X129684079Y-140218244D01*
X129697111Y-140223620D01*
X129725273Y-140240359D01*
X129747200Y-140262421D01*
X129748292Y-140263944D01*
X129763519Y-140291513D01*
X129771866Y-140318382D01*
X129776213Y-140350761D01*
X129777921Y-140385074D01*
X129778225Y-140410974D01*
X129778225Y-140684250D01*
X129655701Y-140684250D01*
X129655701Y-140434858D01*
X129655264Y-140401173D01*
X129653492Y-140368583D01*
X129648721Y-140340716D01*
X129631285Y-140314472D01*
X129624061Y-140308922D01*
X129594078Y-140298067D01*
X129579860Y-140297134D01*
X129547548Y-140301943D01*
X129525266Y-140312334D01*
X129502295Y-140334116D01*
X129490060Y-140357776D01*
X129482533Y-140389956D01*
X129479575Y-140423070D01*
X129479048Y-140447731D01*
X129479048Y-140684250D01*
X129356524Y-140684250D01*
X129356524Y-140039058D01*
X129479048Y-140039058D01*
G37*
G36*
X130107686Y-140209470D02*
G01*
X130142335Y-140215882D01*
X130173920Y-140227103D01*
X130202440Y-140243134D01*
X130227896Y-140263973D01*
X130239475Y-140276197D01*
X130259728Y-140304403D01*
X130275586Y-140337723D01*
X130285443Y-140369397D01*
X130292249Y-140404623D01*
X130296003Y-140443400D01*
X130296809Y-140476979D01*
X130296705Y-140485729D01*
X129989619Y-140485729D01*
X129993045Y-140518559D01*
X130002936Y-140549005D01*
X130019241Y-140573512D01*
X130044606Y-140593797D01*
X130074577Y-140603740D01*
X130089964Y-140604841D01*
X130120811Y-140599866D01*
X130138199Y-140590728D01*
X130159064Y-140566361D01*
X130167977Y-140545285D01*
X130290191Y-140565137D01*
X130276698Y-140594818D01*
X130257440Y-140623714D01*
X130233863Y-140647850D01*
X130215746Y-140661296D01*
X130185194Y-140677190D01*
X130154638Y-140686951D01*
X130120883Y-140692602D01*
X130088724Y-140694176D01*
X130052457Y-140692241D01*
X130019265Y-140686436D01*
X129989147Y-140676762D01*
X129957064Y-140660044D01*
X129929409Y-140637754D01*
X129909745Y-140614922D01*
X129891917Y-140585514D01*
X129878469Y-140552930D01*
X129870426Y-140522472D01*
X129865601Y-140489680D01*
X129863992Y-140454555D01*
X129865461Y-140419625D01*
X129867267Y-140406321D01*
X129991790Y-140406321D01*
X130174956Y-140406321D01*
X130171742Y-140375393D01*
X130161448Y-140344917D01*
X130147504Y-140325051D01*
X130122403Y-140305967D01*
X130090699Y-140297380D01*
X130083761Y-140297134D01*
X130051390Y-140302745D01*
X130024304Y-140319577D01*
X130017535Y-140326447D01*
X130000642Y-140353845D01*
X129992863Y-140385270D01*
X129991790Y-140406321D01*
X129867267Y-140406321D01*
X129869869Y-140387150D01*
X129879036Y-140351417D01*
X129892435Y-140319218D01*
X129910065Y-140290553D01*
X129924169Y-140273405D01*
X129947858Y-140251110D01*
X129973794Y-140233427D01*
X130001976Y-140220357D01*
X130032405Y-140211900D01*
X130065080Y-140208056D01*
X130076471Y-140207800D01*
X130107686Y-140209470D01*
G37*
G36*
X126112728Y-141631937D02*
G01*
X126112728Y-141751050D01*
X125682962Y-141751050D01*
X125688196Y-141719449D01*
X125696920Y-141688702D01*
X125709134Y-141658807D01*
X125724837Y-141629766D01*
X125743363Y-141602871D01*
X125764427Y-141576972D01*
X125785639Y-141553381D01*
X125810174Y-141527966D01*
X125838034Y-141500725D01*
X125862716Y-141477618D01*
X125887078Y-141454884D01*
X125912175Y-141430791D01*
X125935747Y-141407079D01*
X125957026Y-141383550D01*
X125964458Y-141373860D01*
X125979863Y-141345725D01*
X125988529Y-141315541D01*
X125989738Y-141299415D01*
X125985523Y-141267452D01*
X125970382Y-141239719D01*
X125967715Y-141236912D01*
X125939588Y-141219849D01*
X125906918Y-141215044D01*
X125874335Y-141220088D01*
X125847242Y-141236586D01*
X125845811Y-141237998D01*
X125828774Y-141266197D01*
X125821180Y-141298374D01*
X125819600Y-141314304D01*
X125697386Y-141302207D01*
X125701918Y-141270845D01*
X125710366Y-141237039D01*
X125722096Y-141207410D01*
X125739930Y-141178122D01*
X125762232Y-141154518D01*
X125765782Y-141151610D01*
X125792397Y-141133783D01*
X125821757Y-141120334D01*
X125853864Y-141111264D01*
X125888716Y-141106572D01*
X125909865Y-141105858D01*
X125943919Y-141107646D01*
X125975128Y-141113011D01*
X126007941Y-141123792D01*
X126036879Y-141139440D01*
X126058600Y-141156728D01*
X126079691Y-141180112D01*
X126097452Y-141209761D01*
X126108446Y-141242532D01*
X126112517Y-141273767D01*
X126112728Y-141283130D01*
X126110547Y-141314784D01*
X126104004Y-141345304D01*
X126097219Y-141365020D01*
X126083057Y-141394645D01*
X126065630Y-141422760D01*
X126048209Y-141446444D01*
X126026442Y-141471104D01*
X126003534Y-141494180D01*
X125978432Y-141517987D01*
X125967870Y-141527714D01*
X125944526Y-141549160D01*
X125920489Y-141571761D01*
X125897637Y-141594530D01*
X125894355Y-141598127D01*
X125875105Y-141622616D01*
X125869230Y-141631937D01*
X126112728Y-141631937D01*
G37*
G36*
X126433790Y-141108197D02*
G01*
X126464317Y-141115214D01*
X126496348Y-141129314D01*
X126524520Y-141149781D01*
X126545596Y-141172393D01*
X126563558Y-141199544D01*
X126578475Y-141231753D01*
X126590348Y-141269021D01*
X126597654Y-141302478D01*
X126603012Y-141339172D01*
X126606422Y-141379104D01*
X126607700Y-141411178D01*
X126607944Y-141433572D01*
X126607392Y-141466812D01*
X126605736Y-141498253D01*
X126601810Y-141537376D01*
X126595921Y-141573299D01*
X126588069Y-141606024D01*
X126578255Y-141635550D01*
X126563226Y-141667960D01*
X126545131Y-141695371D01*
X126520448Y-141720934D01*
X126491861Y-141740218D01*
X126459371Y-141753223D01*
X126428415Y-141759374D01*
X126400428Y-141760976D01*
X126366686Y-141758446D01*
X126335485Y-141750856D01*
X126306824Y-141738206D01*
X126280705Y-141720496D01*
X126257126Y-141697726D01*
X126249831Y-141689012D01*
X126230435Y-141658061D01*
X126217337Y-141626213D01*
X126207025Y-141588860D01*
X126200783Y-141555013D01*
X126196324Y-141517642D01*
X126193648Y-141476748D01*
X126192812Y-141443766D01*
X126192763Y-141433572D01*
X126321020Y-141433572D01*
X126321296Y-141466071D01*
X126322357Y-141500662D01*
X126324602Y-141534940D01*
X126328494Y-141566099D01*
X126332341Y-141583858D01*
X126343376Y-141614354D01*
X126360879Y-141638296D01*
X126389639Y-141650946D01*
X126400428Y-141651789D01*
X126431078Y-141644025D01*
X126440132Y-141637986D01*
X126458889Y-141612250D01*
X126467118Y-141588666D01*
X126473266Y-141557900D01*
X126476657Y-141527016D01*
X126478594Y-141495700D01*
X126479637Y-141459913D01*
X126479836Y-141433572D01*
X126479560Y-141401121D01*
X126478498Y-141366588D01*
X126476254Y-141332378D01*
X126472362Y-141301296D01*
X126468514Y-141283596D01*
X126457450Y-141252964D01*
X126439822Y-141228847D01*
X126411207Y-141215907D01*
X126400428Y-141215044D01*
X126369777Y-141222808D01*
X126360724Y-141228847D01*
X126341967Y-141254583D01*
X126333737Y-141278167D01*
X126327590Y-141309146D01*
X126324199Y-141340127D01*
X126322262Y-141371479D01*
X126321218Y-141407259D01*
X126321020Y-141433572D01*
X126192763Y-141433572D01*
X126192757Y-141432331D01*
X126193309Y-141399257D01*
X126194965Y-141367966D01*
X126198891Y-141329018D01*
X126204779Y-141293239D01*
X126212631Y-141260631D01*
X126222446Y-141231192D01*
X126237474Y-141198851D01*
X126255570Y-141171462D01*
X126280260Y-141145900D01*
X126308869Y-141126615D01*
X126341396Y-141113610D01*
X126372396Y-141107459D01*
X126400428Y-141105858D01*
X126433790Y-141108197D01*
G37*
G36*
X127101609Y-141631937D02*
G01*
X127101609Y-141751050D01*
X126671843Y-141751050D01*
X126677077Y-141719449D01*
X126685801Y-141688702D01*
X126698015Y-141658807D01*
X126713718Y-141629766D01*
X126732243Y-141602871D01*
X126753308Y-141576972D01*
X126774519Y-141553381D01*
X126799055Y-141527966D01*
X126826915Y-141500725D01*
X126851597Y-141477618D01*
X126875959Y-141454884D01*
X126901055Y-141430791D01*
X126924628Y-141407079D01*
X126945907Y-141383550D01*
X126953339Y-141373860D01*
X126968744Y-141345725D01*
X126977409Y-141315541D01*
X126978619Y-141299415D01*
X126974404Y-141267452D01*
X126959263Y-141239719D01*
X126956596Y-141236912D01*
X126928468Y-141219849D01*
X126895799Y-141215044D01*
X126863215Y-141220088D01*
X126836122Y-141236586D01*
X126834692Y-141237998D01*
X126817655Y-141266197D01*
X126810061Y-141298374D01*
X126808481Y-141314304D01*
X126686266Y-141302207D01*
X126690799Y-141270845D01*
X126699247Y-141237039D01*
X126710977Y-141207410D01*
X126728811Y-141178122D01*
X126751112Y-141154518D01*
X126754663Y-141151610D01*
X126781278Y-141133783D01*
X126810638Y-141120334D01*
X126842744Y-141111264D01*
X126877597Y-141106572D01*
X126898745Y-141105858D01*
X126932800Y-141107646D01*
X126964009Y-141113011D01*
X126996821Y-141123792D01*
X127025760Y-141139440D01*
X127047481Y-141156728D01*
X127068572Y-141180112D01*
X127086332Y-141209761D01*
X127097327Y-141242532D01*
X127101397Y-141273767D01*
X127101609Y-141283130D01*
X127099428Y-141314784D01*
X127092885Y-141345304D01*
X127086099Y-141365020D01*
X127071937Y-141394645D01*
X127054510Y-141422760D01*
X127037090Y-141446444D01*
X127015323Y-141471104D01*
X126992414Y-141494180D01*
X126967313Y-141517987D01*
X126956751Y-141527714D01*
X126933407Y-141549160D01*
X126909369Y-141571761D01*
X126886518Y-141594530D01*
X126883236Y-141598127D01*
X126863986Y-141622616D01*
X126858111Y-141631937D01*
X127101609Y-141631937D01*
G37*
G36*
X127540991Y-141512825D02*
G01*
X127620399Y-141512825D01*
X127620399Y-141622011D01*
X127540991Y-141622011D01*
X127540991Y-141751050D01*
X127422344Y-141751050D01*
X127422344Y-141622011D01*
X127160700Y-141622011D01*
X127160700Y-141513290D01*
X127161025Y-141512825D01*
X127275469Y-141512825D01*
X127422344Y-141512825D01*
X127422344Y-141302517D01*
X127275469Y-141512825D01*
X127161025Y-141512825D01*
X127438163Y-141115784D01*
X127540991Y-141115784D01*
X127540991Y-141512825D01*
G37*
G36*
X127637304Y-141751050D02*
G01*
X127795655Y-141105858D01*
X127887626Y-141105858D01*
X127727569Y-141751050D01*
X127637304Y-141751050D01*
G37*
G36*
X128337399Y-141631937D02*
G01*
X128337399Y-141751050D01*
X127907633Y-141751050D01*
X127912868Y-141719449D01*
X127921592Y-141688702D01*
X127933805Y-141658807D01*
X127949509Y-141629766D01*
X127968034Y-141602871D01*
X127989099Y-141576972D01*
X128010310Y-141553381D01*
X128034846Y-141527966D01*
X128062706Y-141500725D01*
X128087387Y-141477618D01*
X128111750Y-141454884D01*
X128136846Y-141430791D01*
X128160419Y-141407079D01*
X128181697Y-141383550D01*
X128189129Y-141373860D01*
X128204534Y-141345725D01*
X128213200Y-141315541D01*
X128214410Y-141299415D01*
X128210194Y-141267452D01*
X128195053Y-141239719D01*
X128192386Y-141236912D01*
X128164259Y-141219849D01*
X128131589Y-141215044D01*
X128099006Y-141220088D01*
X128071913Y-141236586D01*
X128070482Y-141237998D01*
X128053445Y-141266197D01*
X128045852Y-141298374D01*
X128044271Y-141314304D01*
X127922057Y-141302207D01*
X127926589Y-141270845D01*
X127935037Y-141237039D01*
X127946767Y-141207410D01*
X127964601Y-141178122D01*
X127986903Y-141154518D01*
X127990454Y-141151610D01*
X128017068Y-141133783D01*
X128046429Y-141120334D01*
X128078535Y-141111264D01*
X128113388Y-141106572D01*
X128134536Y-141105858D01*
X128168591Y-141107646D01*
X128199799Y-141113011D01*
X128232612Y-141123792D01*
X128261550Y-141139440D01*
X128283271Y-141156728D01*
X128304362Y-141180112D01*
X128322123Y-141209761D01*
X128333118Y-141242532D01*
X128337188Y-141273767D01*
X128337399Y-141283130D01*
X128335218Y-141314784D01*
X128328675Y-141345304D01*
X128321890Y-141365020D01*
X128307728Y-141394645D01*
X128290301Y-141422760D01*
X128272880Y-141446444D01*
X128251114Y-141471104D01*
X128228205Y-141494180D01*
X128203104Y-141517987D01*
X128192541Y-141527714D01*
X128169198Y-141549160D01*
X128145160Y-141571761D01*
X128122308Y-141594530D01*
X128119027Y-141598127D01*
X128099777Y-141622616D01*
X128093901Y-141631937D01*
X128337399Y-141631937D01*
G37*
G36*
X128658461Y-141108197D02*
G01*
X128688988Y-141115214D01*
X128721019Y-141129314D01*
X128749191Y-141149781D01*
X128770267Y-141172393D01*
X128788229Y-141199544D01*
X128803146Y-141231753D01*
X128815019Y-141269021D01*
X128822325Y-141302478D01*
X128827683Y-141339172D01*
X128831093Y-141379104D01*
X128832372Y-141411178D01*
X128832615Y-141433572D01*
X128832063Y-141466812D01*
X128830407Y-141498253D01*
X128826481Y-141537376D01*
X128820592Y-141573299D01*
X128812741Y-141606024D01*
X128802926Y-141635550D01*
X128787898Y-141667960D01*
X128769802Y-141695371D01*
X128745119Y-141720934D01*
X128716533Y-141740218D01*
X128684042Y-141753223D01*
X128653086Y-141759374D01*
X128625099Y-141760976D01*
X128591357Y-141758446D01*
X128560156Y-141750856D01*
X128531496Y-141738206D01*
X128505376Y-141720496D01*
X128481798Y-141697726D01*
X128474503Y-141689012D01*
X128455106Y-141658061D01*
X128442008Y-141626213D01*
X128431697Y-141588860D01*
X128425454Y-141555013D01*
X128420995Y-141517642D01*
X128418320Y-141476748D01*
X128417484Y-141443766D01*
X128417434Y-141433572D01*
X128545691Y-141433572D01*
X128545967Y-141466071D01*
X128547029Y-141500662D01*
X128549273Y-141534940D01*
X128553165Y-141566099D01*
X128557013Y-141583858D01*
X128568047Y-141614354D01*
X128585550Y-141638296D01*
X128614310Y-141650946D01*
X128625099Y-141651789D01*
X128655750Y-141644025D01*
X128664803Y-141637986D01*
X128683560Y-141612250D01*
X128691790Y-141588666D01*
X128697937Y-141557900D01*
X128701328Y-141527016D01*
X128703265Y-141495700D01*
X128704309Y-141459913D01*
X128704507Y-141433572D01*
X128704231Y-141401121D01*
X128703169Y-141366588D01*
X128700925Y-141332378D01*
X128697033Y-141301296D01*
X128693185Y-141283596D01*
X128682121Y-141252964D01*
X128664493Y-141228847D01*
X128635878Y-141215907D01*
X128625099Y-141215044D01*
X128594449Y-141222808D01*
X128585395Y-141228847D01*
X128566638Y-141254583D01*
X128558409Y-141278167D01*
X128552261Y-141309146D01*
X128548870Y-141340127D01*
X128546933Y-141371479D01*
X128545890Y-141407259D01*
X128545691Y-141433572D01*
X128417434Y-141433572D01*
X128417428Y-141432331D01*
X128417980Y-141399257D01*
X128419636Y-141367966D01*
X128423562Y-141329018D01*
X128429451Y-141293239D01*
X128437302Y-141260631D01*
X128447117Y-141231192D01*
X128462146Y-141198851D01*
X128480241Y-141171462D01*
X128504931Y-141145900D01*
X128533540Y-141126615D01*
X128566068Y-141113610D01*
X128597067Y-141107459D01*
X128625099Y-141105858D01*
X128658461Y-141108197D01*
G37*
G36*
X129326280Y-141631937D02*
G01*
X129326280Y-141751050D01*
X128896514Y-141751050D01*
X128901748Y-141719449D01*
X128910472Y-141688702D01*
X128922686Y-141658807D01*
X128938389Y-141629766D01*
X128956915Y-141602871D01*
X128977979Y-141576972D01*
X128999191Y-141553381D01*
X129023726Y-141527966D01*
X129051586Y-141500725D01*
X129076268Y-141477618D01*
X129100630Y-141454884D01*
X129125727Y-141430791D01*
X129149299Y-141407079D01*
X129170578Y-141383550D01*
X129178010Y-141373860D01*
X129193415Y-141345725D01*
X129202081Y-141315541D01*
X129203290Y-141299415D01*
X129199075Y-141267452D01*
X129183934Y-141239719D01*
X129181267Y-141236912D01*
X129153140Y-141219849D01*
X129120470Y-141215044D01*
X129087887Y-141220088D01*
X129060794Y-141236586D01*
X129059363Y-141237998D01*
X129042326Y-141266197D01*
X129034732Y-141298374D01*
X129033152Y-141314304D01*
X128910938Y-141302207D01*
X128915470Y-141270845D01*
X128923918Y-141237039D01*
X128935648Y-141207410D01*
X128953482Y-141178122D01*
X128975784Y-141154518D01*
X128979334Y-141151610D01*
X129005949Y-141133783D01*
X129035309Y-141120334D01*
X129067416Y-141111264D01*
X129102268Y-141106572D01*
X129123417Y-141105858D01*
X129157471Y-141107646D01*
X129188680Y-141113011D01*
X129221493Y-141123792D01*
X129250431Y-141139440D01*
X129272152Y-141156728D01*
X129293243Y-141180112D01*
X129311004Y-141209761D01*
X129321998Y-141242532D01*
X129326069Y-141273767D01*
X129326280Y-141283130D01*
X129324099Y-141314784D01*
X129317556Y-141345304D01*
X129310771Y-141365020D01*
X129296609Y-141394645D01*
X129279182Y-141422760D01*
X129261761Y-141446444D01*
X129239994Y-141471104D01*
X129217086Y-141494180D01*
X129191984Y-141517987D01*
X129181422Y-141527714D01*
X129158078Y-141549160D01*
X129134041Y-141571761D01*
X129111189Y-141594530D01*
X129107907Y-141598127D01*
X129088657Y-141622616D01*
X129082782Y-141631937D01*
X129326280Y-141631937D01*
G37*
G36*
X129408480Y-141566487D02*
G01*
X129530539Y-141552529D01*
X129537373Y-141584183D01*
X129551274Y-141612469D01*
X129561558Y-141625113D01*
X129587398Y-141644260D01*
X129618718Y-141651763D01*
X129620804Y-141651789D01*
X129652174Y-141646446D01*
X129678972Y-141630415D01*
X129685788Y-141623872D01*
X129703060Y-141596380D01*
X129710797Y-141565799D01*
X129712465Y-141539346D01*
X129709349Y-141506032D01*
X129697634Y-141474788D01*
X129686099Y-141459938D01*
X129659971Y-141441808D01*
X129627727Y-141433831D01*
X129617392Y-141433417D01*
X129585495Y-141438263D01*
X129555718Y-141452803D01*
X129530731Y-141474177D01*
X129522784Y-141483047D01*
X129423369Y-141467692D01*
X129486182Y-141115784D01*
X129810174Y-141115784D01*
X129810174Y-141234896D01*
X129579084Y-141234896D01*
X129559852Y-141346874D01*
X129588221Y-141333982D01*
X129619672Y-141326021D01*
X129643603Y-141324230D01*
X129678099Y-141327058D01*
X129710205Y-141335541D01*
X129739922Y-141349679D01*
X129767249Y-141369472D01*
X129781792Y-141383321D01*
X129803910Y-141410798D01*
X129820596Y-141441658D01*
X129831849Y-141475903D01*
X129837170Y-141507950D01*
X129838556Y-141536554D01*
X129836367Y-141570087D01*
X129829799Y-141602016D01*
X129818852Y-141632342D01*
X129803527Y-141661066D01*
X129792803Y-141676759D01*
X129772135Y-141701021D01*
X129744203Y-141724707D01*
X129712858Y-141742471D01*
X129678100Y-141754314D01*
X129646528Y-141759660D01*
X129619563Y-141760976D01*
X129587504Y-141759122D01*
X129553010Y-141752273D01*
X129521648Y-141740377D01*
X129493417Y-141723435D01*
X129475170Y-141708243D01*
X129452895Y-141683437D01*
X129434925Y-141655156D01*
X129421259Y-141623403D01*
X129412971Y-141593421D01*
X129408480Y-141566487D01*
G37*
D11*
X127550333Y-76301406D02*
X127380999Y-76059501D01*
X127260047Y-76301406D02*
X127260047Y-75793406D01*
X127260047Y-75793406D02*
X127453571Y-75793406D01*
X127453571Y-75793406D02*
X127501952Y-75817596D01*
X127501952Y-75817596D02*
X127526142Y-75841787D01*
X127526142Y-75841787D02*
X127550333Y-75890168D01*
X127550333Y-75890168D02*
X127550333Y-75962739D01*
X127550333Y-75962739D02*
X127526142Y-76011120D01*
X127526142Y-76011120D02*
X127501952Y-76035311D01*
X127501952Y-76035311D02*
X127453571Y-76059501D01*
X127453571Y-76059501D02*
X127260047Y-76059501D01*
X127743856Y-75841787D02*
X127768047Y-75817596D01*
X127768047Y-75817596D02*
X127816428Y-75793406D01*
X127816428Y-75793406D02*
X127937380Y-75793406D01*
X127937380Y-75793406D02*
X127985761Y-75817596D01*
X127985761Y-75817596D02*
X128009952Y-75841787D01*
X128009952Y-75841787D02*
X128034142Y-75890168D01*
X128034142Y-75890168D02*
X128034142Y-75938549D01*
X128034142Y-75938549D02*
X128009952Y-76011120D01*
X128009952Y-76011120D02*
X127719666Y-76301406D01*
X127719666Y-76301406D02*
X128034142Y-76301406D01*
X129201333Y-76301406D02*
X129031999Y-76059501D01*
X128911047Y-76301406D02*
X128911047Y-75793406D01*
X128911047Y-75793406D02*
X129104571Y-75793406D01*
X129104571Y-75793406D02*
X129152952Y-75817596D01*
X129152952Y-75817596D02*
X129177142Y-75841787D01*
X129177142Y-75841787D02*
X129201333Y-75890168D01*
X129201333Y-75890168D02*
X129201333Y-75962739D01*
X129201333Y-75962739D02*
X129177142Y-76011120D01*
X129177142Y-76011120D02*
X129152952Y-76035311D01*
X129152952Y-76035311D02*
X129104571Y-76059501D01*
X129104571Y-76059501D02*
X128911047Y-76059501D01*
X129685142Y-76301406D02*
X129394856Y-76301406D01*
X129539999Y-76301406D02*
X129539999Y-75793406D01*
X129539999Y-75793406D02*
X129491618Y-75865977D01*
X129491618Y-75865977D02*
X129443237Y-75914358D01*
X129443237Y-75914358D02*
X129394856Y-75938549D01*
X129491619Y-70126787D02*
X129443238Y-70102596D01*
X129443238Y-70102596D02*
X129394857Y-70054216D01*
X129394857Y-70054216D02*
X129322285Y-69981644D01*
X129322285Y-69981644D02*
X129273904Y-69957454D01*
X129273904Y-69957454D02*
X129225523Y-69957454D01*
X129249714Y-70078406D02*
X129201333Y-70054216D01*
X129201333Y-70054216D02*
X129152952Y-70005835D01*
X129152952Y-70005835D02*
X129128761Y-69909073D01*
X129128761Y-69909073D02*
X129128761Y-69739739D01*
X129128761Y-69739739D02*
X129152952Y-69642977D01*
X129152952Y-69642977D02*
X129201333Y-69594596D01*
X129201333Y-69594596D02*
X129249714Y-69570406D01*
X129249714Y-69570406D02*
X129346476Y-69570406D01*
X129346476Y-69570406D02*
X129394857Y-69594596D01*
X129394857Y-69594596D02*
X129443238Y-69642977D01*
X129443238Y-69642977D02*
X129467428Y-69739739D01*
X129467428Y-69739739D02*
X129467428Y-69909073D01*
X129467428Y-69909073D02*
X129443238Y-70005835D01*
X129443238Y-70005835D02*
X129394857Y-70054216D01*
X129394857Y-70054216D02*
X129346476Y-70078406D01*
X129346476Y-70078406D02*
X129249714Y-70078406D01*
X129951237Y-70078406D02*
X129660951Y-70078406D01*
X129806094Y-70078406D02*
X129806094Y-69570406D01*
X129806094Y-69570406D02*
X129757713Y-69642977D01*
X129757713Y-69642977D02*
X129709332Y-69691358D01*
X129709332Y-69691358D02*
X129660951Y-69715549D01*
X127133047Y-78744406D02*
X127133047Y-78236406D01*
X127133047Y-78236406D02*
X127253999Y-78236406D01*
X127253999Y-78236406D02*
X127326571Y-78260596D01*
X127326571Y-78260596D02*
X127374952Y-78308977D01*
X127374952Y-78308977D02*
X127399142Y-78357358D01*
X127399142Y-78357358D02*
X127423333Y-78454120D01*
X127423333Y-78454120D02*
X127423333Y-78526692D01*
X127423333Y-78526692D02*
X127399142Y-78623454D01*
X127399142Y-78623454D02*
X127374952Y-78671835D01*
X127374952Y-78671835D02*
X127326571Y-78720216D01*
X127326571Y-78720216D02*
X127253999Y-78744406D01*
X127253999Y-78744406D02*
X127133047Y-78744406D01*
X127907142Y-78744406D02*
X127616856Y-78744406D01*
X127761999Y-78744406D02*
X127761999Y-78236406D01*
X127761999Y-78236406D02*
X127713618Y-78308977D01*
X127713618Y-78308977D02*
X127665237Y-78357358D01*
X127665237Y-78357358D02*
X127616856Y-78381549D01*
X130054047Y-59664406D02*
X130054047Y-59156406D01*
X130054047Y-59156406D02*
X130174999Y-59156406D01*
X130174999Y-59156406D02*
X130247571Y-59180596D01*
X130247571Y-59180596D02*
X130295952Y-59228977D01*
X130295952Y-59228977D02*
X130320142Y-59277358D01*
X130320142Y-59277358D02*
X130344333Y-59374120D01*
X130344333Y-59374120D02*
X130344333Y-59446692D01*
X130344333Y-59446692D02*
X130320142Y-59543454D01*
X130320142Y-59543454D02*
X130295952Y-59591835D01*
X130295952Y-59591835D02*
X130247571Y-59640216D01*
X130247571Y-59640216D02*
X130174999Y-59664406D01*
X130174999Y-59664406D02*
X130054047Y-59664406D01*
X130537856Y-59204787D02*
X130562047Y-59180596D01*
X130562047Y-59180596D02*
X130610428Y-59156406D01*
X130610428Y-59156406D02*
X130731380Y-59156406D01*
X130731380Y-59156406D02*
X130779761Y-59180596D01*
X130779761Y-59180596D02*
X130803952Y-59204787D01*
X130803952Y-59204787D02*
X130828142Y-59253168D01*
X130828142Y-59253168D02*
X130828142Y-59301549D01*
X130828142Y-59301549D02*
X130803952Y-59374120D01*
X130803952Y-59374120D02*
X130513666Y-59664406D01*
X130513666Y-59664406D02*
X130828142Y-59664406D01*
X135388047Y-59029406D02*
X135388047Y-58521406D01*
X135388047Y-58521406D02*
X135508999Y-58521406D01*
X135508999Y-58521406D02*
X135581571Y-58545596D01*
X135581571Y-58545596D02*
X135629952Y-58593977D01*
X135629952Y-58593977D02*
X135654142Y-58642358D01*
X135654142Y-58642358D02*
X135678333Y-58739120D01*
X135678333Y-58739120D02*
X135678333Y-58811692D01*
X135678333Y-58811692D02*
X135654142Y-58908454D01*
X135654142Y-58908454D02*
X135629952Y-58956835D01*
X135629952Y-58956835D02*
X135581571Y-59005216D01*
X135581571Y-59005216D02*
X135508999Y-59029406D01*
X135508999Y-59029406D02*
X135388047Y-59029406D01*
X135847666Y-58521406D02*
X136162142Y-58521406D01*
X136162142Y-58521406D02*
X135992809Y-58714930D01*
X135992809Y-58714930D02*
X136065380Y-58714930D01*
X136065380Y-58714930D02*
X136113761Y-58739120D01*
X136113761Y-58739120D02*
X136137952Y-58763311D01*
X136137952Y-58763311D02*
X136162142Y-58811692D01*
X136162142Y-58811692D02*
X136162142Y-58932644D01*
X136162142Y-58932644D02*
X136137952Y-58981025D01*
X136137952Y-58981025D02*
X136113761Y-59005216D01*
X136113761Y-59005216D02*
X136065380Y-59029406D01*
X136065380Y-59029406D02*
X135920237Y-59029406D01*
X135920237Y-59029406D02*
X135871856Y-59005216D01*
X135871856Y-59005216D02*
X135847666Y-58981025D01*
X125200047Y-127355406D02*
X125200047Y-126847406D01*
X125200047Y-126847406D02*
X125320999Y-126847406D01*
X125320999Y-126847406D02*
X125393571Y-126871596D01*
X125393571Y-126871596D02*
X125441952Y-126919977D01*
X125441952Y-126919977D02*
X125466142Y-126968358D01*
X125466142Y-126968358D02*
X125490333Y-127065120D01*
X125490333Y-127065120D02*
X125490333Y-127137692D01*
X125490333Y-127137692D02*
X125466142Y-127234454D01*
X125466142Y-127234454D02*
X125441952Y-127282835D01*
X125441952Y-127282835D02*
X125393571Y-127331216D01*
X125393571Y-127331216D02*
X125320999Y-127355406D01*
X125320999Y-127355406D02*
X125200047Y-127355406D01*
X125925761Y-127016739D02*
X125925761Y-127355406D01*
X125804809Y-126823216D02*
X125683856Y-127186073D01*
X125683856Y-127186073D02*
X125998333Y-127186073D01*
X125064761Y-137261406D02*
X125064761Y-137624263D01*
X125064761Y-137624263D02*
X125040570Y-137696835D01*
X125040570Y-137696835D02*
X124992189Y-137745216D01*
X124992189Y-137745216D02*
X124919618Y-137769406D01*
X124919618Y-137769406D02*
X124871237Y-137769406D01*
X125572761Y-137769406D02*
X125282475Y-137769406D01*
X125427618Y-137769406D02*
X125427618Y-137261406D01*
X125427618Y-137261406D02*
X125379237Y-137333977D01*
X125379237Y-137333977D02*
X125330856Y-137382358D01*
X125330856Y-137382358D02*
X125282475Y-137406549D01*
X125742095Y-137261406D02*
X126056571Y-137261406D01*
X126056571Y-137261406D02*
X125887238Y-137454930D01*
X125887238Y-137454930D02*
X125959809Y-137454930D01*
X125959809Y-137454930D02*
X126008190Y-137479120D01*
X126008190Y-137479120D02*
X126032381Y-137503311D01*
X126032381Y-137503311D02*
X126056571Y-137551692D01*
X126056571Y-137551692D02*
X126056571Y-137672644D01*
X126056571Y-137672644D02*
X126032381Y-137721025D01*
X126032381Y-137721025D02*
X126008190Y-137745216D01*
X126008190Y-137745216D02*
X125959809Y-137769406D01*
X125959809Y-137769406D02*
X125814666Y-137769406D01*
X125814666Y-137769406D02*
X125766285Y-137745216D01*
X125766285Y-137745216D02*
X125742095Y-137721025D01*
X139801406Y-80421238D02*
X140164263Y-80421238D01*
X140164263Y-80421238D02*
X140236835Y-80445429D01*
X140236835Y-80445429D02*
X140285216Y-80493810D01*
X140285216Y-80493810D02*
X140309406Y-80566381D01*
X140309406Y-80566381D02*
X140309406Y-80614762D01*
X140309406Y-79913238D02*
X140309406Y-80203524D01*
X140309406Y-80058381D02*
X139801406Y-80058381D01*
X139801406Y-80058381D02*
X139873977Y-80106762D01*
X139873977Y-80106762D02*
X139922358Y-80155143D01*
X139922358Y-80155143D02*
X139946549Y-80203524D01*
X140309406Y-79429428D02*
X140309406Y-79719714D01*
X140309406Y-79574571D02*
X139801406Y-79574571D01*
X139801406Y-79574571D02*
X139873977Y-79622952D01*
X139873977Y-79622952D02*
X139922358Y-79671333D01*
X139922358Y-79671333D02*
X139946549Y-79719714D01*
X114909406Y-81195333D02*
X115272263Y-81195333D01*
X115272263Y-81195333D02*
X115344835Y-81219524D01*
X115344835Y-81219524D02*
X115393216Y-81267905D01*
X115393216Y-81267905D02*
X115417406Y-81340476D01*
X115417406Y-81340476D02*
X115417406Y-81388857D01*
X114909406Y-81001809D02*
X114909406Y-80663142D01*
X114909406Y-80663142D02*
X115417406Y-80880857D01*
X120810928Y-109578406D02*
X120641594Y-109336501D01*
X120520642Y-109578406D02*
X120520642Y-109070406D01*
X120520642Y-109070406D02*
X120714166Y-109070406D01*
X120714166Y-109070406D02*
X120762547Y-109094596D01*
X120762547Y-109094596D02*
X120786737Y-109118787D01*
X120786737Y-109118787D02*
X120810928Y-109167168D01*
X120810928Y-109167168D02*
X120810928Y-109239739D01*
X120810928Y-109239739D02*
X120786737Y-109288120D01*
X120786737Y-109288120D02*
X120762547Y-109312311D01*
X120762547Y-109312311D02*
X120714166Y-109336501D01*
X120714166Y-109336501D02*
X120520642Y-109336501D01*
X121270547Y-109070406D02*
X121028642Y-109070406D01*
X121028642Y-109070406D02*
X121004451Y-109312311D01*
X121004451Y-109312311D02*
X121028642Y-109288120D01*
X121028642Y-109288120D02*
X121077023Y-109263930D01*
X121077023Y-109263930D02*
X121197975Y-109263930D01*
X121197975Y-109263930D02*
X121246356Y-109288120D01*
X121246356Y-109288120D02*
X121270547Y-109312311D01*
X121270547Y-109312311D02*
X121294737Y-109360692D01*
X121294737Y-109360692D02*
X121294737Y-109481644D01*
X121294737Y-109481644D02*
X121270547Y-109530025D01*
X121270547Y-109530025D02*
X121246356Y-109554216D01*
X121246356Y-109554216D02*
X121197975Y-109578406D01*
X121197975Y-109578406D02*
X121077023Y-109578406D01*
X121077023Y-109578406D02*
X121028642Y-109554216D01*
X121028642Y-109554216D02*
X121004451Y-109530025D01*
X121464071Y-109070406D02*
X121778547Y-109070406D01*
X121778547Y-109070406D02*
X121609214Y-109263930D01*
X121609214Y-109263930D02*
X121681785Y-109263930D01*
X121681785Y-109263930D02*
X121730166Y-109288120D01*
X121730166Y-109288120D02*
X121754357Y-109312311D01*
X121754357Y-109312311D02*
X121778547Y-109360692D01*
X121778547Y-109360692D02*
X121778547Y-109481644D01*
X121778547Y-109481644D02*
X121754357Y-109530025D01*
X121754357Y-109530025D02*
X121730166Y-109554216D01*
X121730166Y-109554216D02*
X121681785Y-109578406D01*
X121681785Y-109578406D02*
X121536642Y-109578406D01*
X121536642Y-109578406D02*
X121488261Y-109554216D01*
X121488261Y-109554216D02*
X121464071Y-109530025D01*
X122512666Y-107520406D02*
X122512666Y-107883263D01*
X122512666Y-107883263D02*
X122488475Y-107955835D01*
X122488475Y-107955835D02*
X122440094Y-108004216D01*
X122440094Y-108004216D02*
X122367523Y-108028406D01*
X122367523Y-108028406D02*
X122319142Y-108028406D01*
X122754571Y-108028406D02*
X122754571Y-107520406D01*
X122754571Y-107520406D02*
X122948095Y-107520406D01*
X122948095Y-107520406D02*
X122996476Y-107544596D01*
X122996476Y-107544596D02*
X123020666Y-107568787D01*
X123020666Y-107568787D02*
X123044857Y-107617168D01*
X123044857Y-107617168D02*
X123044857Y-107689739D01*
X123044857Y-107689739D02*
X123020666Y-107738120D01*
X123020666Y-107738120D02*
X122996476Y-107762311D01*
X122996476Y-107762311D02*
X122948095Y-107786501D01*
X122948095Y-107786501D02*
X122754571Y-107786501D01*
X123238380Y-107568787D02*
X123262571Y-107544596D01*
X123262571Y-107544596D02*
X123310952Y-107520406D01*
X123310952Y-107520406D02*
X123431904Y-107520406D01*
X123431904Y-107520406D02*
X123480285Y-107544596D01*
X123480285Y-107544596D02*
X123504476Y-107568787D01*
X123504476Y-107568787D02*
X123528666Y-107617168D01*
X123528666Y-107617168D02*
X123528666Y-107665549D01*
X123528666Y-107665549D02*
X123504476Y-107738120D01*
X123504476Y-107738120D02*
X123214190Y-108028406D01*
X123214190Y-108028406D02*
X123528666Y-108028406D01*
X121933428Y-126990906D02*
X121764094Y-126749001D01*
X121643142Y-126990906D02*
X121643142Y-126482906D01*
X121643142Y-126482906D02*
X121836666Y-126482906D01*
X121836666Y-126482906D02*
X121885047Y-126507096D01*
X121885047Y-126507096D02*
X121909237Y-126531287D01*
X121909237Y-126531287D02*
X121933428Y-126579668D01*
X121933428Y-126579668D02*
X121933428Y-126652239D01*
X121933428Y-126652239D02*
X121909237Y-126700620D01*
X121909237Y-126700620D02*
X121885047Y-126724811D01*
X121885047Y-126724811D02*
X121836666Y-126749001D01*
X121836666Y-126749001D02*
X121643142Y-126749001D01*
X122368856Y-126482906D02*
X122272094Y-126482906D01*
X122272094Y-126482906D02*
X122223713Y-126507096D01*
X122223713Y-126507096D02*
X122199523Y-126531287D01*
X122199523Y-126531287D02*
X122151142Y-126603858D01*
X122151142Y-126603858D02*
X122126951Y-126700620D01*
X122126951Y-126700620D02*
X122126951Y-126894144D01*
X122126951Y-126894144D02*
X122151142Y-126942525D01*
X122151142Y-126942525D02*
X122175332Y-126966716D01*
X122175332Y-126966716D02*
X122223713Y-126990906D01*
X122223713Y-126990906D02*
X122320475Y-126990906D01*
X122320475Y-126990906D02*
X122368856Y-126966716D01*
X122368856Y-126966716D02*
X122393047Y-126942525D01*
X122393047Y-126942525D02*
X122417237Y-126894144D01*
X122417237Y-126894144D02*
X122417237Y-126773192D01*
X122417237Y-126773192D02*
X122393047Y-126724811D01*
X122393047Y-126724811D02*
X122368856Y-126700620D01*
X122368856Y-126700620D02*
X122320475Y-126676430D01*
X122320475Y-126676430D02*
X122223713Y-126676430D01*
X122223713Y-126676430D02*
X122175332Y-126700620D01*
X122175332Y-126700620D02*
X122151142Y-126724811D01*
X122151142Y-126724811D02*
X122126951Y-126773192D01*
X122901047Y-126990906D02*
X122610761Y-126990906D01*
X122755904Y-126990906D02*
X122755904Y-126482906D01*
X122755904Y-126482906D02*
X122707523Y-126555477D01*
X122707523Y-126555477D02*
X122659142Y-126603858D01*
X122659142Y-126603858D02*
X122610761Y-126628049D01*
X127912952Y-95332906D02*
X127912952Y-95744144D01*
X127912952Y-95744144D02*
X127937142Y-95792525D01*
X127937142Y-95792525D02*
X127961333Y-95816716D01*
X127961333Y-95816716D02*
X128009714Y-95840906D01*
X128009714Y-95840906D02*
X128106476Y-95840906D01*
X128106476Y-95840906D02*
X128154857Y-95816716D01*
X128154857Y-95816716D02*
X128179047Y-95792525D01*
X128179047Y-95792525D02*
X128203238Y-95744144D01*
X128203238Y-95744144D02*
X128203238Y-95332906D01*
X128711237Y-95840906D02*
X128420951Y-95840906D01*
X128566094Y-95840906D02*
X128566094Y-95332906D01*
X128566094Y-95332906D02*
X128517713Y-95405477D01*
X128517713Y-95405477D02*
X128469332Y-95453858D01*
X128469332Y-95453858D02*
X128420951Y-95478049D01*
X124798428Y-116687406D02*
X124629094Y-116445501D01*
X124508142Y-116687406D02*
X124508142Y-116179406D01*
X124508142Y-116179406D02*
X124701666Y-116179406D01*
X124701666Y-116179406D02*
X124750047Y-116203596D01*
X124750047Y-116203596D02*
X124774237Y-116227787D01*
X124774237Y-116227787D02*
X124798428Y-116276168D01*
X124798428Y-116276168D02*
X124798428Y-116348739D01*
X124798428Y-116348739D02*
X124774237Y-116397120D01*
X124774237Y-116397120D02*
X124750047Y-116421311D01*
X124750047Y-116421311D02*
X124701666Y-116445501D01*
X124701666Y-116445501D02*
X124508142Y-116445501D01*
X125233856Y-116348739D02*
X125233856Y-116687406D01*
X125112904Y-116155216D02*
X124991951Y-116518073D01*
X124991951Y-116518073D02*
X125306428Y-116518073D01*
X125741857Y-116179406D02*
X125499952Y-116179406D01*
X125499952Y-116179406D02*
X125475761Y-116421311D01*
X125475761Y-116421311D02*
X125499952Y-116397120D01*
X125499952Y-116397120D02*
X125548333Y-116372930D01*
X125548333Y-116372930D02*
X125669285Y-116372930D01*
X125669285Y-116372930D02*
X125717666Y-116397120D01*
X125717666Y-116397120D02*
X125741857Y-116421311D01*
X125741857Y-116421311D02*
X125766047Y-116469692D01*
X125766047Y-116469692D02*
X125766047Y-116590644D01*
X125766047Y-116590644D02*
X125741857Y-116639025D01*
X125741857Y-116639025D02*
X125717666Y-116663216D01*
X125717666Y-116663216D02*
X125669285Y-116687406D01*
X125669285Y-116687406D02*
X125548333Y-116687406D01*
X125548333Y-116687406D02*
X125499952Y-116663216D01*
X125499952Y-116663216D02*
X125475761Y-116639025D01*
X122515333Y-95892525D02*
X122491142Y-95916716D01*
X122491142Y-95916716D02*
X122418571Y-95940906D01*
X122418571Y-95940906D02*
X122370190Y-95940906D01*
X122370190Y-95940906D02*
X122297618Y-95916716D01*
X122297618Y-95916716D02*
X122249237Y-95868335D01*
X122249237Y-95868335D02*
X122225047Y-95819954D01*
X122225047Y-95819954D02*
X122200856Y-95723192D01*
X122200856Y-95723192D02*
X122200856Y-95650620D01*
X122200856Y-95650620D02*
X122225047Y-95553858D01*
X122225047Y-95553858D02*
X122249237Y-95505477D01*
X122249237Y-95505477D02*
X122297618Y-95457096D01*
X122297618Y-95457096D02*
X122370190Y-95432906D01*
X122370190Y-95432906D02*
X122418571Y-95432906D01*
X122418571Y-95432906D02*
X122491142Y-95457096D01*
X122491142Y-95457096D02*
X122515333Y-95481287D01*
X122999142Y-95940906D02*
X122708856Y-95940906D01*
X122853999Y-95940906D02*
X122853999Y-95432906D01*
X122853999Y-95432906D02*
X122805618Y-95505477D01*
X122805618Y-95505477D02*
X122757237Y-95553858D01*
X122757237Y-95553858D02*
X122708856Y-95578049D01*
X137849428Y-126974406D02*
X137680094Y-126732501D01*
X137559142Y-126974406D02*
X137559142Y-126466406D01*
X137559142Y-126466406D02*
X137752666Y-126466406D01*
X137752666Y-126466406D02*
X137801047Y-126490596D01*
X137801047Y-126490596D02*
X137825237Y-126514787D01*
X137825237Y-126514787D02*
X137849428Y-126563168D01*
X137849428Y-126563168D02*
X137849428Y-126635739D01*
X137849428Y-126635739D02*
X137825237Y-126684120D01*
X137825237Y-126684120D02*
X137801047Y-126708311D01*
X137801047Y-126708311D02*
X137752666Y-126732501D01*
X137752666Y-126732501D02*
X137559142Y-126732501D01*
X138284856Y-126466406D02*
X138188094Y-126466406D01*
X138188094Y-126466406D02*
X138139713Y-126490596D01*
X138139713Y-126490596D02*
X138115523Y-126514787D01*
X138115523Y-126514787D02*
X138067142Y-126587358D01*
X138067142Y-126587358D02*
X138042951Y-126684120D01*
X138042951Y-126684120D02*
X138042951Y-126877644D01*
X138042951Y-126877644D02*
X138067142Y-126926025D01*
X138067142Y-126926025D02*
X138091332Y-126950216D01*
X138091332Y-126950216D02*
X138139713Y-126974406D01*
X138139713Y-126974406D02*
X138236475Y-126974406D01*
X138236475Y-126974406D02*
X138284856Y-126950216D01*
X138284856Y-126950216D02*
X138309047Y-126926025D01*
X138309047Y-126926025D02*
X138333237Y-126877644D01*
X138333237Y-126877644D02*
X138333237Y-126756692D01*
X138333237Y-126756692D02*
X138309047Y-126708311D01*
X138309047Y-126708311D02*
X138284856Y-126684120D01*
X138284856Y-126684120D02*
X138236475Y-126659930D01*
X138236475Y-126659930D02*
X138139713Y-126659930D01*
X138139713Y-126659930D02*
X138091332Y-126684120D01*
X138091332Y-126684120D02*
X138067142Y-126708311D01*
X138067142Y-126708311D02*
X138042951Y-126756692D01*
X138768666Y-126635739D02*
X138768666Y-126974406D01*
X138647714Y-126442216D02*
X138526761Y-126805073D01*
X138526761Y-126805073D02*
X138841238Y-126805073D01*
X140643428Y-118671025D02*
X140619237Y-118695216D01*
X140619237Y-118695216D02*
X140546666Y-118719406D01*
X140546666Y-118719406D02*
X140498285Y-118719406D01*
X140498285Y-118719406D02*
X140425713Y-118695216D01*
X140425713Y-118695216D02*
X140377332Y-118646835D01*
X140377332Y-118646835D02*
X140353142Y-118598454D01*
X140353142Y-118598454D02*
X140328951Y-118501692D01*
X140328951Y-118501692D02*
X140328951Y-118429120D01*
X140328951Y-118429120D02*
X140353142Y-118332358D01*
X140353142Y-118332358D02*
X140377332Y-118283977D01*
X140377332Y-118283977D02*
X140425713Y-118235596D01*
X140425713Y-118235596D02*
X140498285Y-118211406D01*
X140498285Y-118211406D02*
X140546666Y-118211406D01*
X140546666Y-118211406D02*
X140619237Y-118235596D01*
X140619237Y-118235596D02*
X140643428Y-118259787D01*
X141127237Y-118719406D02*
X140836951Y-118719406D01*
X140982094Y-118719406D02*
X140982094Y-118211406D01*
X140982094Y-118211406D02*
X140933713Y-118283977D01*
X140933713Y-118283977D02*
X140885332Y-118332358D01*
X140885332Y-118332358D02*
X140836951Y-118356549D01*
X141562666Y-118380739D02*
X141562666Y-118719406D01*
X141441714Y-118187216D02*
X141320761Y-118550073D01*
X141320761Y-118550073D02*
X141635238Y-118550073D01*
X139801406Y-101007333D02*
X140164263Y-101007333D01*
X140164263Y-101007333D02*
X140236835Y-101031524D01*
X140236835Y-101031524D02*
X140285216Y-101079905D01*
X140285216Y-101079905D02*
X140309406Y-101152476D01*
X140309406Y-101152476D02*
X140309406Y-101200857D01*
X139801406Y-100523523D02*
X139801406Y-100765428D01*
X139801406Y-100765428D02*
X140043311Y-100789619D01*
X140043311Y-100789619D02*
X140019120Y-100765428D01*
X140019120Y-100765428D02*
X139994930Y-100717047D01*
X139994930Y-100717047D02*
X139994930Y-100596095D01*
X139994930Y-100596095D02*
X140019120Y-100547714D01*
X140019120Y-100547714D02*
X140043311Y-100523523D01*
X140043311Y-100523523D02*
X140091692Y-100499333D01*
X140091692Y-100499333D02*
X140212644Y-100499333D01*
X140212644Y-100499333D02*
X140261025Y-100523523D01*
X140261025Y-100523523D02*
X140285216Y-100547714D01*
X140285216Y-100547714D02*
X140309406Y-100596095D01*
X140309406Y-100596095D02*
X140309406Y-100717047D01*
X140309406Y-100717047D02*
X140285216Y-100765428D01*
X140285216Y-100765428D02*
X140261025Y-100789619D01*
X138641666Y-57632406D02*
X138641666Y-57995263D01*
X138641666Y-57995263D02*
X138617475Y-58067835D01*
X138617475Y-58067835D02*
X138569094Y-58116216D01*
X138569094Y-58116216D02*
X138496523Y-58140406D01*
X138496523Y-58140406D02*
X138448142Y-58140406D01*
X138956142Y-57850120D02*
X138907761Y-57825930D01*
X138907761Y-57825930D02*
X138883571Y-57801739D01*
X138883571Y-57801739D02*
X138859380Y-57753358D01*
X138859380Y-57753358D02*
X138859380Y-57729168D01*
X138859380Y-57729168D02*
X138883571Y-57680787D01*
X138883571Y-57680787D02*
X138907761Y-57656596D01*
X138907761Y-57656596D02*
X138956142Y-57632406D01*
X138956142Y-57632406D02*
X139052904Y-57632406D01*
X139052904Y-57632406D02*
X139101285Y-57656596D01*
X139101285Y-57656596D02*
X139125476Y-57680787D01*
X139125476Y-57680787D02*
X139149666Y-57729168D01*
X139149666Y-57729168D02*
X139149666Y-57753358D01*
X139149666Y-57753358D02*
X139125476Y-57801739D01*
X139125476Y-57801739D02*
X139101285Y-57825930D01*
X139101285Y-57825930D02*
X139052904Y-57850120D01*
X139052904Y-57850120D02*
X138956142Y-57850120D01*
X138956142Y-57850120D02*
X138907761Y-57874311D01*
X138907761Y-57874311D02*
X138883571Y-57898501D01*
X138883571Y-57898501D02*
X138859380Y-57946882D01*
X138859380Y-57946882D02*
X138859380Y-58043644D01*
X138859380Y-58043644D02*
X138883571Y-58092025D01*
X138883571Y-58092025D02*
X138907761Y-58116216D01*
X138907761Y-58116216D02*
X138956142Y-58140406D01*
X138956142Y-58140406D02*
X139052904Y-58140406D01*
X139052904Y-58140406D02*
X139101285Y-58116216D01*
X139101285Y-58116216D02*
X139125476Y-58092025D01*
X139125476Y-58092025D02*
X139149666Y-58043644D01*
X139149666Y-58043644D02*
X139149666Y-57946882D01*
X139149666Y-57946882D02*
X139125476Y-57898501D01*
X139125476Y-57898501D02*
X139101285Y-57874311D01*
X139101285Y-57874311D02*
X139052904Y-57850120D01*
X119591666Y-65887406D02*
X119591666Y-66250263D01*
X119591666Y-66250263D02*
X119567475Y-66322835D01*
X119567475Y-66322835D02*
X119519094Y-66371216D01*
X119519094Y-66371216D02*
X119446523Y-66395406D01*
X119446523Y-66395406D02*
X119398142Y-66395406D01*
X119833571Y-66395406D02*
X119833571Y-65887406D01*
X119833571Y-65887406D02*
X120027095Y-65887406D01*
X120027095Y-65887406D02*
X120075476Y-65911596D01*
X120075476Y-65911596D02*
X120099666Y-65935787D01*
X120099666Y-65935787D02*
X120123857Y-65984168D01*
X120123857Y-65984168D02*
X120123857Y-66056739D01*
X120123857Y-66056739D02*
X120099666Y-66105120D01*
X120099666Y-66105120D02*
X120075476Y-66129311D01*
X120075476Y-66129311D02*
X120027095Y-66153501D01*
X120027095Y-66153501D02*
X119833571Y-66153501D01*
X120293190Y-65887406D02*
X120631857Y-65887406D01*
X120631857Y-65887406D02*
X120414142Y-66395406D01*
X128476666Y-107570406D02*
X128476666Y-107933263D01*
X128476666Y-107933263D02*
X128452475Y-108005835D01*
X128452475Y-108005835D02*
X128404094Y-108054216D01*
X128404094Y-108054216D02*
X128331523Y-108078406D01*
X128331523Y-108078406D02*
X128283142Y-108078406D01*
X128718571Y-108078406D02*
X128718571Y-107570406D01*
X128718571Y-107570406D02*
X128912095Y-107570406D01*
X128912095Y-107570406D02*
X128960476Y-107594596D01*
X128960476Y-107594596D02*
X128984666Y-107618787D01*
X128984666Y-107618787D02*
X129008857Y-107667168D01*
X129008857Y-107667168D02*
X129008857Y-107739739D01*
X129008857Y-107739739D02*
X128984666Y-107788120D01*
X128984666Y-107788120D02*
X128960476Y-107812311D01*
X128960476Y-107812311D02*
X128912095Y-107836501D01*
X128912095Y-107836501D02*
X128718571Y-107836501D01*
X129178190Y-107570406D02*
X129492666Y-107570406D01*
X129492666Y-107570406D02*
X129323333Y-107763930D01*
X129323333Y-107763930D02*
X129395904Y-107763930D01*
X129395904Y-107763930D02*
X129444285Y-107788120D01*
X129444285Y-107788120D02*
X129468476Y-107812311D01*
X129468476Y-107812311D02*
X129492666Y-107860692D01*
X129492666Y-107860692D02*
X129492666Y-107981644D01*
X129492666Y-107981644D02*
X129468476Y-108030025D01*
X129468476Y-108030025D02*
X129444285Y-108054216D01*
X129444285Y-108054216D02*
X129395904Y-108078406D01*
X129395904Y-108078406D02*
X129250761Y-108078406D01*
X129250761Y-108078406D02*
X129202380Y-108054216D01*
X129202380Y-108054216D02*
X129178190Y-108030025D01*
X124260428Y-108028406D02*
X124091094Y-107786501D01*
X123970142Y-108028406D02*
X123970142Y-107520406D01*
X123970142Y-107520406D02*
X124163666Y-107520406D01*
X124163666Y-107520406D02*
X124212047Y-107544596D01*
X124212047Y-107544596D02*
X124236237Y-107568787D01*
X124236237Y-107568787D02*
X124260428Y-107617168D01*
X124260428Y-107617168D02*
X124260428Y-107689739D01*
X124260428Y-107689739D02*
X124236237Y-107738120D01*
X124236237Y-107738120D02*
X124212047Y-107762311D01*
X124212047Y-107762311D02*
X124163666Y-107786501D01*
X124163666Y-107786501D02*
X123970142Y-107786501D01*
X124744237Y-108028406D02*
X124453951Y-108028406D01*
X124599094Y-108028406D02*
X124599094Y-107520406D01*
X124599094Y-107520406D02*
X124550713Y-107592977D01*
X124550713Y-107592977D02*
X124502332Y-107641358D01*
X124502332Y-107641358D02*
X124453951Y-107665549D01*
X124913571Y-107520406D02*
X125228047Y-107520406D01*
X125228047Y-107520406D02*
X125058714Y-107713930D01*
X125058714Y-107713930D02*
X125131285Y-107713930D01*
X125131285Y-107713930D02*
X125179666Y-107738120D01*
X125179666Y-107738120D02*
X125203857Y-107762311D01*
X125203857Y-107762311D02*
X125228047Y-107810692D01*
X125228047Y-107810692D02*
X125228047Y-107931644D01*
X125228047Y-107931644D02*
X125203857Y-107980025D01*
X125203857Y-107980025D02*
X125179666Y-108004216D01*
X125179666Y-108004216D02*
X125131285Y-108028406D01*
X125131285Y-108028406D02*
X124986142Y-108028406D01*
X124986142Y-108028406D02*
X124937761Y-108004216D01*
X124937761Y-108004216D02*
X124913571Y-107980025D01*
X124276666Y-79603406D02*
X124276666Y-79966263D01*
X124276666Y-79966263D02*
X124252475Y-80038835D01*
X124252475Y-80038835D02*
X124204094Y-80087216D01*
X124204094Y-80087216D02*
X124131523Y-80111406D01*
X124131523Y-80111406D02*
X124083142Y-80111406D01*
X124518571Y-80111406D02*
X124518571Y-79603406D01*
X124518571Y-79603406D02*
X124712095Y-79603406D01*
X124712095Y-79603406D02*
X124760476Y-79627596D01*
X124760476Y-79627596D02*
X124784666Y-79651787D01*
X124784666Y-79651787D02*
X124808857Y-79700168D01*
X124808857Y-79700168D02*
X124808857Y-79772739D01*
X124808857Y-79772739D02*
X124784666Y-79821120D01*
X124784666Y-79821120D02*
X124760476Y-79845311D01*
X124760476Y-79845311D02*
X124712095Y-79869501D01*
X124712095Y-79869501D02*
X124518571Y-79869501D01*
X125244285Y-79772739D02*
X125244285Y-80111406D01*
X125123333Y-79579216D02*
X125002380Y-79942073D01*
X125002380Y-79942073D02*
X125316857Y-79942073D01*
X124006428Y-74015406D02*
X123837094Y-73773501D01*
X123716142Y-74015406D02*
X123716142Y-73507406D01*
X123716142Y-73507406D02*
X123909666Y-73507406D01*
X123909666Y-73507406D02*
X123958047Y-73531596D01*
X123958047Y-73531596D02*
X123982237Y-73555787D01*
X123982237Y-73555787D02*
X124006428Y-73604168D01*
X124006428Y-73604168D02*
X124006428Y-73676739D01*
X124006428Y-73676739D02*
X123982237Y-73725120D01*
X123982237Y-73725120D02*
X123958047Y-73749311D01*
X123958047Y-73749311D02*
X123909666Y-73773501D01*
X123909666Y-73773501D02*
X123716142Y-73773501D01*
X124175761Y-73507406D02*
X124490237Y-73507406D01*
X124490237Y-73507406D02*
X124320904Y-73700930D01*
X124320904Y-73700930D02*
X124393475Y-73700930D01*
X124393475Y-73700930D02*
X124441856Y-73725120D01*
X124441856Y-73725120D02*
X124466047Y-73749311D01*
X124466047Y-73749311D02*
X124490237Y-73797692D01*
X124490237Y-73797692D02*
X124490237Y-73918644D01*
X124490237Y-73918644D02*
X124466047Y-73967025D01*
X124466047Y-73967025D02*
X124441856Y-73991216D01*
X124441856Y-73991216D02*
X124393475Y-74015406D01*
X124393475Y-74015406D02*
X124248332Y-74015406D01*
X124248332Y-74015406D02*
X124199951Y-73991216D01*
X124199951Y-73991216D02*
X124175761Y-73967025D01*
X124683761Y-73555787D02*
X124707952Y-73531596D01*
X124707952Y-73531596D02*
X124756333Y-73507406D01*
X124756333Y-73507406D02*
X124877285Y-73507406D01*
X124877285Y-73507406D02*
X124925666Y-73531596D01*
X124925666Y-73531596D02*
X124949857Y-73555787D01*
X124949857Y-73555787D02*
X124974047Y-73604168D01*
X124974047Y-73604168D02*
X124974047Y-73652549D01*
X124974047Y-73652549D02*
X124949857Y-73725120D01*
X124949857Y-73725120D02*
X124659571Y-74015406D01*
X124659571Y-74015406D02*
X124974047Y-74015406D01*
X124767025Y-96084571D02*
X124791216Y-96108762D01*
X124791216Y-96108762D02*
X124815406Y-96181333D01*
X124815406Y-96181333D02*
X124815406Y-96229714D01*
X124815406Y-96229714D02*
X124791216Y-96302286D01*
X124791216Y-96302286D02*
X124742835Y-96350667D01*
X124742835Y-96350667D02*
X124694454Y-96374857D01*
X124694454Y-96374857D02*
X124597692Y-96399048D01*
X124597692Y-96399048D02*
X124525120Y-96399048D01*
X124525120Y-96399048D02*
X124428358Y-96374857D01*
X124428358Y-96374857D02*
X124379977Y-96350667D01*
X124379977Y-96350667D02*
X124331596Y-96302286D01*
X124331596Y-96302286D02*
X124307406Y-96229714D01*
X124307406Y-96229714D02*
X124307406Y-96181333D01*
X124307406Y-96181333D02*
X124331596Y-96108762D01*
X124331596Y-96108762D02*
X124355787Y-96084571D01*
X124815406Y-95600762D02*
X124815406Y-95891048D01*
X124815406Y-95745905D02*
X124307406Y-95745905D01*
X124307406Y-95745905D02*
X124379977Y-95794286D01*
X124379977Y-95794286D02*
X124428358Y-95842667D01*
X124428358Y-95842667D02*
X124452549Y-95891048D01*
X124815406Y-95116952D02*
X124815406Y-95407238D01*
X124815406Y-95262095D02*
X124307406Y-95262095D01*
X124307406Y-95262095D02*
X124379977Y-95310476D01*
X124379977Y-95310476D02*
X124428358Y-95358857D01*
X124428358Y-95358857D02*
X124452549Y-95407238D01*
X125941666Y-82020406D02*
X125941666Y-82383263D01*
X125941666Y-82383263D02*
X125917475Y-82455835D01*
X125917475Y-82455835D02*
X125869094Y-82504216D01*
X125869094Y-82504216D02*
X125796523Y-82528406D01*
X125796523Y-82528406D02*
X125748142Y-82528406D01*
X126183571Y-82528406D02*
X126183571Y-82020406D01*
X126183571Y-82020406D02*
X126377095Y-82020406D01*
X126377095Y-82020406D02*
X126425476Y-82044596D01*
X126425476Y-82044596D02*
X126449666Y-82068787D01*
X126449666Y-82068787D02*
X126473857Y-82117168D01*
X126473857Y-82117168D02*
X126473857Y-82189739D01*
X126473857Y-82189739D02*
X126449666Y-82238120D01*
X126449666Y-82238120D02*
X126425476Y-82262311D01*
X126425476Y-82262311D02*
X126377095Y-82286501D01*
X126377095Y-82286501D02*
X126183571Y-82286501D01*
X126933476Y-82020406D02*
X126691571Y-82020406D01*
X126691571Y-82020406D02*
X126667380Y-82262311D01*
X126667380Y-82262311D02*
X126691571Y-82238120D01*
X126691571Y-82238120D02*
X126739952Y-82213930D01*
X126739952Y-82213930D02*
X126860904Y-82213930D01*
X126860904Y-82213930D02*
X126909285Y-82238120D01*
X126909285Y-82238120D02*
X126933476Y-82262311D01*
X126933476Y-82262311D02*
X126957666Y-82310692D01*
X126957666Y-82310692D02*
X126957666Y-82431644D01*
X126957666Y-82431644D02*
X126933476Y-82480025D01*
X126933476Y-82480025D02*
X126909285Y-82504216D01*
X126909285Y-82504216D02*
X126860904Y-82528406D01*
X126860904Y-82528406D02*
X126739952Y-82528406D01*
X126739952Y-82528406D02*
X126691571Y-82504216D01*
X126691571Y-82504216D02*
X126667380Y-82480025D01*
X129593025Y-128723571D02*
X129617216Y-128747762D01*
X129617216Y-128747762D02*
X129641406Y-128820333D01*
X129641406Y-128820333D02*
X129641406Y-128868714D01*
X129641406Y-128868714D02*
X129617216Y-128941286D01*
X129617216Y-128941286D02*
X129568835Y-128989667D01*
X129568835Y-128989667D02*
X129520454Y-129013857D01*
X129520454Y-129013857D02*
X129423692Y-129038048D01*
X129423692Y-129038048D02*
X129351120Y-129038048D01*
X129351120Y-129038048D02*
X129254358Y-129013857D01*
X129254358Y-129013857D02*
X129205977Y-128989667D01*
X129205977Y-128989667D02*
X129157596Y-128941286D01*
X129157596Y-128941286D02*
X129133406Y-128868714D01*
X129133406Y-128868714D02*
X129133406Y-128820333D01*
X129133406Y-128820333D02*
X129157596Y-128747762D01*
X129157596Y-128747762D02*
X129181787Y-128723571D01*
X129641406Y-128239762D02*
X129641406Y-128530048D01*
X129641406Y-128384905D02*
X129133406Y-128384905D01*
X129133406Y-128384905D02*
X129205977Y-128433286D01*
X129205977Y-128433286D02*
X129254358Y-128481667D01*
X129254358Y-128481667D02*
X129278549Y-128530048D01*
X129351120Y-127949476D02*
X129326930Y-127997857D01*
X129326930Y-127997857D02*
X129302739Y-128022047D01*
X129302739Y-128022047D02*
X129254358Y-128046238D01*
X129254358Y-128046238D02*
X129230168Y-128046238D01*
X129230168Y-128046238D02*
X129181787Y-128022047D01*
X129181787Y-128022047D02*
X129157596Y-127997857D01*
X129157596Y-127997857D02*
X129133406Y-127949476D01*
X129133406Y-127949476D02*
X129133406Y-127852714D01*
X129133406Y-127852714D02*
X129157596Y-127804333D01*
X129157596Y-127804333D02*
X129181787Y-127780142D01*
X129181787Y-127780142D02*
X129230168Y-127755952D01*
X129230168Y-127755952D02*
X129254358Y-127755952D01*
X129254358Y-127755952D02*
X129302739Y-127780142D01*
X129302739Y-127780142D02*
X129326930Y-127804333D01*
X129326930Y-127804333D02*
X129351120Y-127852714D01*
X129351120Y-127852714D02*
X129351120Y-127949476D01*
X129351120Y-127949476D02*
X129375311Y-127997857D01*
X129375311Y-127997857D02*
X129399501Y-128022047D01*
X129399501Y-128022047D02*
X129447882Y-128046238D01*
X129447882Y-128046238D02*
X129544644Y-128046238D01*
X129544644Y-128046238D02*
X129593025Y-128022047D01*
X129593025Y-128022047D02*
X129617216Y-127997857D01*
X129617216Y-127997857D02*
X129641406Y-127949476D01*
X129641406Y-127949476D02*
X129641406Y-127852714D01*
X129641406Y-127852714D02*
X129617216Y-127804333D01*
X129617216Y-127804333D02*
X129593025Y-127780142D01*
X129593025Y-127780142D02*
X129544644Y-127755952D01*
X129544644Y-127755952D02*
X129447882Y-127755952D01*
X129447882Y-127755952D02*
X129399501Y-127780142D01*
X129399501Y-127780142D02*
X129375311Y-127804333D01*
X129375311Y-127804333D02*
X129351120Y-127852714D01*
X139325047Y-127243406D02*
X139325047Y-126735406D01*
X139325047Y-126735406D02*
X139445999Y-126735406D01*
X139445999Y-126735406D02*
X139518571Y-126759596D01*
X139518571Y-126759596D02*
X139566952Y-126807977D01*
X139566952Y-126807977D02*
X139591142Y-126856358D01*
X139591142Y-126856358D02*
X139615333Y-126953120D01*
X139615333Y-126953120D02*
X139615333Y-127025692D01*
X139615333Y-127025692D02*
X139591142Y-127122454D01*
X139591142Y-127122454D02*
X139566952Y-127170835D01*
X139566952Y-127170835D02*
X139518571Y-127219216D01*
X139518571Y-127219216D02*
X139445999Y-127243406D01*
X139445999Y-127243406D02*
X139325047Y-127243406D01*
X139784666Y-126735406D02*
X140123333Y-126735406D01*
X140123333Y-126735406D02*
X139905618Y-127243406D01*
X114909406Y-92244333D02*
X115272263Y-92244333D01*
X115272263Y-92244333D02*
X115344835Y-92268524D01*
X115344835Y-92268524D02*
X115393216Y-92316905D01*
X115393216Y-92316905D02*
X115417406Y-92389476D01*
X115417406Y-92389476D02*
X115417406Y-92437857D01*
X115078739Y-91784714D02*
X115417406Y-91784714D01*
X114885216Y-91905666D02*
X115248073Y-92026619D01*
X115248073Y-92026619D02*
X115248073Y-91712142D01*
X130736025Y-104351666D02*
X130760216Y-104375857D01*
X130760216Y-104375857D02*
X130784406Y-104448428D01*
X130784406Y-104448428D02*
X130784406Y-104496809D01*
X130784406Y-104496809D02*
X130760216Y-104569381D01*
X130760216Y-104569381D02*
X130711835Y-104617762D01*
X130711835Y-104617762D02*
X130663454Y-104641952D01*
X130663454Y-104641952D02*
X130566692Y-104666143D01*
X130566692Y-104666143D02*
X130494120Y-104666143D01*
X130494120Y-104666143D02*
X130397358Y-104641952D01*
X130397358Y-104641952D02*
X130348977Y-104617762D01*
X130348977Y-104617762D02*
X130300596Y-104569381D01*
X130300596Y-104569381D02*
X130276406Y-104496809D01*
X130276406Y-104496809D02*
X130276406Y-104448428D01*
X130276406Y-104448428D02*
X130300596Y-104375857D01*
X130300596Y-104375857D02*
X130324787Y-104351666D01*
X130784406Y-104109762D02*
X130784406Y-104013000D01*
X130784406Y-104013000D02*
X130760216Y-103964619D01*
X130760216Y-103964619D02*
X130736025Y-103940428D01*
X130736025Y-103940428D02*
X130663454Y-103892047D01*
X130663454Y-103892047D02*
X130566692Y-103867857D01*
X130566692Y-103867857D02*
X130373168Y-103867857D01*
X130373168Y-103867857D02*
X130324787Y-103892047D01*
X130324787Y-103892047D02*
X130300596Y-103916238D01*
X130300596Y-103916238D02*
X130276406Y-103964619D01*
X130276406Y-103964619D02*
X130276406Y-104061381D01*
X130276406Y-104061381D02*
X130300596Y-104109762D01*
X130300596Y-104109762D02*
X130324787Y-104133952D01*
X130324787Y-104133952D02*
X130373168Y-104158143D01*
X130373168Y-104158143D02*
X130494120Y-104158143D01*
X130494120Y-104158143D02*
X130542501Y-104133952D01*
X130542501Y-104133952D02*
X130566692Y-104109762D01*
X130566692Y-104109762D02*
X130590882Y-104061381D01*
X130590882Y-104061381D02*
X130590882Y-103964619D01*
X130590882Y-103964619D02*
X130566692Y-103916238D01*
X130566692Y-103916238D02*
X130542501Y-103892047D01*
X130542501Y-103892047D02*
X130494120Y-103867857D01*
X129721428Y-87128406D02*
X129552094Y-86886501D01*
X129431142Y-87128406D02*
X129431142Y-86620406D01*
X129431142Y-86620406D02*
X129624666Y-86620406D01*
X129624666Y-86620406D02*
X129673047Y-86644596D01*
X129673047Y-86644596D02*
X129697237Y-86668787D01*
X129697237Y-86668787D02*
X129721428Y-86717168D01*
X129721428Y-86717168D02*
X129721428Y-86789739D01*
X129721428Y-86789739D02*
X129697237Y-86838120D01*
X129697237Y-86838120D02*
X129673047Y-86862311D01*
X129673047Y-86862311D02*
X129624666Y-86886501D01*
X129624666Y-86886501D02*
X129431142Y-86886501D01*
X129914951Y-86668787D02*
X129939142Y-86644596D01*
X129939142Y-86644596D02*
X129987523Y-86620406D01*
X129987523Y-86620406D02*
X130108475Y-86620406D01*
X130108475Y-86620406D02*
X130156856Y-86644596D01*
X130156856Y-86644596D02*
X130181047Y-86668787D01*
X130181047Y-86668787D02*
X130205237Y-86717168D01*
X130205237Y-86717168D02*
X130205237Y-86765549D01*
X130205237Y-86765549D02*
X130181047Y-86838120D01*
X130181047Y-86838120D02*
X129890761Y-87128406D01*
X129890761Y-87128406D02*
X130205237Y-87128406D01*
X130447142Y-87128406D02*
X130543904Y-87128406D01*
X130543904Y-87128406D02*
X130592285Y-87104216D01*
X130592285Y-87104216D02*
X130616476Y-87080025D01*
X130616476Y-87080025D02*
X130664857Y-87007454D01*
X130664857Y-87007454D02*
X130689047Y-86910692D01*
X130689047Y-86910692D02*
X130689047Y-86717168D01*
X130689047Y-86717168D02*
X130664857Y-86668787D01*
X130664857Y-86668787D02*
X130640666Y-86644596D01*
X130640666Y-86644596D02*
X130592285Y-86620406D01*
X130592285Y-86620406D02*
X130495523Y-86620406D01*
X130495523Y-86620406D02*
X130447142Y-86644596D01*
X130447142Y-86644596D02*
X130422952Y-86668787D01*
X130422952Y-86668787D02*
X130398761Y-86717168D01*
X130398761Y-86717168D02*
X130398761Y-86838120D01*
X130398761Y-86838120D02*
X130422952Y-86886501D01*
X130422952Y-86886501D02*
X130447142Y-86910692D01*
X130447142Y-86910692D02*
X130495523Y-86934882D01*
X130495523Y-86934882D02*
X130592285Y-86934882D01*
X130592285Y-86934882D02*
X130640666Y-86910692D01*
X130640666Y-86910692D02*
X130664857Y-86886501D01*
X130664857Y-86886501D02*
X130689047Y-86838120D01*
X126983428Y-123293406D02*
X126814094Y-123051501D01*
X126693142Y-123293406D02*
X126693142Y-122785406D01*
X126693142Y-122785406D02*
X126886666Y-122785406D01*
X126886666Y-122785406D02*
X126935047Y-122809596D01*
X126935047Y-122809596D02*
X126959237Y-122833787D01*
X126959237Y-122833787D02*
X126983428Y-122882168D01*
X126983428Y-122882168D02*
X126983428Y-122954739D01*
X126983428Y-122954739D02*
X126959237Y-123003120D01*
X126959237Y-123003120D02*
X126935047Y-123027311D01*
X126935047Y-123027311D02*
X126886666Y-123051501D01*
X126886666Y-123051501D02*
X126693142Y-123051501D01*
X127443047Y-122785406D02*
X127201142Y-122785406D01*
X127201142Y-122785406D02*
X127176951Y-123027311D01*
X127176951Y-123027311D02*
X127201142Y-123003120D01*
X127201142Y-123003120D02*
X127249523Y-122978930D01*
X127249523Y-122978930D02*
X127370475Y-122978930D01*
X127370475Y-122978930D02*
X127418856Y-123003120D01*
X127418856Y-123003120D02*
X127443047Y-123027311D01*
X127443047Y-123027311D02*
X127467237Y-123075692D01*
X127467237Y-123075692D02*
X127467237Y-123196644D01*
X127467237Y-123196644D02*
X127443047Y-123245025D01*
X127443047Y-123245025D02*
X127418856Y-123269216D01*
X127418856Y-123269216D02*
X127370475Y-123293406D01*
X127370475Y-123293406D02*
X127249523Y-123293406D01*
X127249523Y-123293406D02*
X127201142Y-123269216D01*
X127201142Y-123269216D02*
X127176951Y-123245025D01*
X127902666Y-122785406D02*
X127805904Y-122785406D01*
X127805904Y-122785406D02*
X127757523Y-122809596D01*
X127757523Y-122809596D02*
X127733333Y-122833787D01*
X127733333Y-122833787D02*
X127684952Y-122906358D01*
X127684952Y-122906358D02*
X127660761Y-123003120D01*
X127660761Y-123003120D02*
X127660761Y-123196644D01*
X127660761Y-123196644D02*
X127684952Y-123245025D01*
X127684952Y-123245025D02*
X127709142Y-123269216D01*
X127709142Y-123269216D02*
X127757523Y-123293406D01*
X127757523Y-123293406D02*
X127854285Y-123293406D01*
X127854285Y-123293406D02*
X127902666Y-123269216D01*
X127902666Y-123269216D02*
X127926857Y-123245025D01*
X127926857Y-123245025D02*
X127951047Y-123196644D01*
X127951047Y-123196644D02*
X127951047Y-123075692D01*
X127951047Y-123075692D02*
X127926857Y-123027311D01*
X127926857Y-123027311D02*
X127902666Y-123003120D01*
X127902666Y-123003120D02*
X127854285Y-122978930D01*
X127854285Y-122978930D02*
X127757523Y-122978930D01*
X127757523Y-122978930D02*
X127709142Y-123003120D01*
X127709142Y-123003120D02*
X127684952Y-123027311D01*
X127684952Y-123027311D02*
X127660761Y-123075692D01*
X134218428Y-121530025D02*
X134194237Y-121554216D01*
X134194237Y-121554216D02*
X134121666Y-121578406D01*
X134121666Y-121578406D02*
X134073285Y-121578406D01*
X134073285Y-121578406D02*
X134000713Y-121554216D01*
X134000713Y-121554216D02*
X133952332Y-121505835D01*
X133952332Y-121505835D02*
X133928142Y-121457454D01*
X133928142Y-121457454D02*
X133903951Y-121360692D01*
X133903951Y-121360692D02*
X133903951Y-121288120D01*
X133903951Y-121288120D02*
X133928142Y-121191358D01*
X133928142Y-121191358D02*
X133952332Y-121142977D01*
X133952332Y-121142977D02*
X134000713Y-121094596D01*
X134000713Y-121094596D02*
X134073285Y-121070406D01*
X134073285Y-121070406D02*
X134121666Y-121070406D01*
X134121666Y-121070406D02*
X134194237Y-121094596D01*
X134194237Y-121094596D02*
X134218428Y-121118787D01*
X134702237Y-121578406D02*
X134411951Y-121578406D01*
X134557094Y-121578406D02*
X134557094Y-121070406D01*
X134557094Y-121070406D02*
X134508713Y-121142977D01*
X134508713Y-121142977D02*
X134460332Y-121191358D01*
X134460332Y-121191358D02*
X134411951Y-121215549D01*
X135137666Y-121070406D02*
X135040904Y-121070406D01*
X135040904Y-121070406D02*
X134992523Y-121094596D01*
X134992523Y-121094596D02*
X134968333Y-121118787D01*
X134968333Y-121118787D02*
X134919952Y-121191358D01*
X134919952Y-121191358D02*
X134895761Y-121288120D01*
X134895761Y-121288120D02*
X134895761Y-121481644D01*
X134895761Y-121481644D02*
X134919952Y-121530025D01*
X134919952Y-121530025D02*
X134944142Y-121554216D01*
X134944142Y-121554216D02*
X134992523Y-121578406D01*
X134992523Y-121578406D02*
X135089285Y-121578406D01*
X135089285Y-121578406D02*
X135137666Y-121554216D01*
X135137666Y-121554216D02*
X135161857Y-121530025D01*
X135161857Y-121530025D02*
X135186047Y-121481644D01*
X135186047Y-121481644D02*
X135186047Y-121360692D01*
X135186047Y-121360692D02*
X135161857Y-121312311D01*
X135161857Y-121312311D02*
X135137666Y-121288120D01*
X135137666Y-121288120D02*
X135089285Y-121263930D01*
X135089285Y-121263930D02*
X134992523Y-121263930D01*
X134992523Y-121263930D02*
X134944142Y-121288120D01*
X134944142Y-121288120D02*
X134919952Y-121312311D01*
X134919952Y-121312311D02*
X134895761Y-121360692D01*
X133415333Y-59528406D02*
X133245999Y-59286501D01*
X133125047Y-59528406D02*
X133125047Y-59020406D01*
X133125047Y-59020406D02*
X133318571Y-59020406D01*
X133318571Y-59020406D02*
X133366952Y-59044596D01*
X133366952Y-59044596D02*
X133391142Y-59068787D01*
X133391142Y-59068787D02*
X133415333Y-59117168D01*
X133415333Y-59117168D02*
X133415333Y-59189739D01*
X133415333Y-59189739D02*
X133391142Y-59238120D01*
X133391142Y-59238120D02*
X133366952Y-59262311D01*
X133366952Y-59262311D02*
X133318571Y-59286501D01*
X133318571Y-59286501D02*
X133125047Y-59286501D01*
X133584666Y-59020406D02*
X133899142Y-59020406D01*
X133899142Y-59020406D02*
X133729809Y-59213930D01*
X133729809Y-59213930D02*
X133802380Y-59213930D01*
X133802380Y-59213930D02*
X133850761Y-59238120D01*
X133850761Y-59238120D02*
X133874952Y-59262311D01*
X133874952Y-59262311D02*
X133899142Y-59310692D01*
X133899142Y-59310692D02*
X133899142Y-59431644D01*
X133899142Y-59431644D02*
X133874952Y-59480025D01*
X133874952Y-59480025D02*
X133850761Y-59504216D01*
X133850761Y-59504216D02*
X133802380Y-59528406D01*
X133802380Y-59528406D02*
X133657237Y-59528406D01*
X133657237Y-59528406D02*
X133608856Y-59504216D01*
X133608856Y-59504216D02*
X133584666Y-59480025D01*
X125941666Y-83020406D02*
X125941666Y-83383263D01*
X125941666Y-83383263D02*
X125917475Y-83455835D01*
X125917475Y-83455835D02*
X125869094Y-83504216D01*
X125869094Y-83504216D02*
X125796523Y-83528406D01*
X125796523Y-83528406D02*
X125748142Y-83528406D01*
X126183571Y-83528406D02*
X126183571Y-83020406D01*
X126183571Y-83020406D02*
X126377095Y-83020406D01*
X126377095Y-83020406D02*
X126425476Y-83044596D01*
X126425476Y-83044596D02*
X126449666Y-83068787D01*
X126449666Y-83068787D02*
X126473857Y-83117168D01*
X126473857Y-83117168D02*
X126473857Y-83189739D01*
X126473857Y-83189739D02*
X126449666Y-83238120D01*
X126449666Y-83238120D02*
X126425476Y-83262311D01*
X126425476Y-83262311D02*
X126377095Y-83286501D01*
X126377095Y-83286501D02*
X126183571Y-83286501D01*
X126909285Y-83020406D02*
X126812523Y-83020406D01*
X126812523Y-83020406D02*
X126764142Y-83044596D01*
X126764142Y-83044596D02*
X126739952Y-83068787D01*
X126739952Y-83068787D02*
X126691571Y-83141358D01*
X126691571Y-83141358D02*
X126667380Y-83238120D01*
X126667380Y-83238120D02*
X126667380Y-83431644D01*
X126667380Y-83431644D02*
X126691571Y-83480025D01*
X126691571Y-83480025D02*
X126715761Y-83504216D01*
X126715761Y-83504216D02*
X126764142Y-83528406D01*
X126764142Y-83528406D02*
X126860904Y-83528406D01*
X126860904Y-83528406D02*
X126909285Y-83504216D01*
X126909285Y-83504216D02*
X126933476Y-83480025D01*
X126933476Y-83480025D02*
X126957666Y-83431644D01*
X126957666Y-83431644D02*
X126957666Y-83310692D01*
X126957666Y-83310692D02*
X126933476Y-83262311D01*
X126933476Y-83262311D02*
X126909285Y-83238120D01*
X126909285Y-83238120D02*
X126860904Y-83213930D01*
X126860904Y-83213930D02*
X126764142Y-83213930D01*
X126764142Y-83213930D02*
X126715761Y-83238120D01*
X126715761Y-83238120D02*
X126691571Y-83262311D01*
X126691571Y-83262311D02*
X126667380Y-83310692D01*
X115496025Y-125294571D02*
X115520216Y-125318762D01*
X115520216Y-125318762D02*
X115544406Y-125391333D01*
X115544406Y-125391333D02*
X115544406Y-125439714D01*
X115544406Y-125439714D02*
X115520216Y-125512286D01*
X115520216Y-125512286D02*
X115471835Y-125560667D01*
X115471835Y-125560667D02*
X115423454Y-125584857D01*
X115423454Y-125584857D02*
X115326692Y-125609048D01*
X115326692Y-125609048D02*
X115254120Y-125609048D01*
X115254120Y-125609048D02*
X115157358Y-125584857D01*
X115157358Y-125584857D02*
X115108977Y-125560667D01*
X115108977Y-125560667D02*
X115060596Y-125512286D01*
X115060596Y-125512286D02*
X115036406Y-125439714D01*
X115036406Y-125439714D02*
X115036406Y-125391333D01*
X115036406Y-125391333D02*
X115060596Y-125318762D01*
X115060596Y-125318762D02*
X115084787Y-125294571D01*
X115084787Y-125101048D02*
X115060596Y-125076857D01*
X115060596Y-125076857D02*
X115036406Y-125028476D01*
X115036406Y-125028476D02*
X115036406Y-124907524D01*
X115036406Y-124907524D02*
X115060596Y-124859143D01*
X115060596Y-124859143D02*
X115084787Y-124834952D01*
X115084787Y-124834952D02*
X115133168Y-124810762D01*
X115133168Y-124810762D02*
X115181549Y-124810762D01*
X115181549Y-124810762D02*
X115254120Y-124834952D01*
X115254120Y-124834952D02*
X115544406Y-125125238D01*
X115544406Y-125125238D02*
X115544406Y-124810762D01*
X115036406Y-124496285D02*
X115036406Y-124447904D01*
X115036406Y-124447904D02*
X115060596Y-124399523D01*
X115060596Y-124399523D02*
X115084787Y-124375333D01*
X115084787Y-124375333D02*
X115133168Y-124351142D01*
X115133168Y-124351142D02*
X115229930Y-124326952D01*
X115229930Y-124326952D02*
X115350882Y-124326952D01*
X115350882Y-124326952D02*
X115447644Y-124351142D01*
X115447644Y-124351142D02*
X115496025Y-124375333D01*
X115496025Y-124375333D02*
X115520216Y-124399523D01*
X115520216Y-124399523D02*
X115544406Y-124447904D01*
X115544406Y-124447904D02*
X115544406Y-124496285D01*
X115544406Y-124496285D02*
X115520216Y-124544666D01*
X115520216Y-124544666D02*
X115496025Y-124568857D01*
X115496025Y-124568857D02*
X115447644Y-124593047D01*
X115447644Y-124593047D02*
X115350882Y-124617238D01*
X115350882Y-124617238D02*
X115229930Y-124617238D01*
X115229930Y-124617238D02*
X115133168Y-124593047D01*
X115133168Y-124593047D02*
X115084787Y-124568857D01*
X115084787Y-124568857D02*
X115060596Y-124544666D01*
X115060596Y-124544666D02*
X115036406Y-124496285D01*
X140643428Y-117830406D02*
X140474094Y-117588501D01*
X140353142Y-117830406D02*
X140353142Y-117322406D01*
X140353142Y-117322406D02*
X140546666Y-117322406D01*
X140546666Y-117322406D02*
X140595047Y-117346596D01*
X140595047Y-117346596D02*
X140619237Y-117370787D01*
X140619237Y-117370787D02*
X140643428Y-117419168D01*
X140643428Y-117419168D02*
X140643428Y-117491739D01*
X140643428Y-117491739D02*
X140619237Y-117540120D01*
X140619237Y-117540120D02*
X140595047Y-117564311D01*
X140595047Y-117564311D02*
X140546666Y-117588501D01*
X140546666Y-117588501D02*
X140353142Y-117588501D01*
X140812761Y-117322406D02*
X141127237Y-117322406D01*
X141127237Y-117322406D02*
X140957904Y-117515930D01*
X140957904Y-117515930D02*
X141030475Y-117515930D01*
X141030475Y-117515930D02*
X141078856Y-117540120D01*
X141078856Y-117540120D02*
X141103047Y-117564311D01*
X141103047Y-117564311D02*
X141127237Y-117612692D01*
X141127237Y-117612692D02*
X141127237Y-117733644D01*
X141127237Y-117733644D02*
X141103047Y-117782025D01*
X141103047Y-117782025D02*
X141078856Y-117806216D01*
X141078856Y-117806216D02*
X141030475Y-117830406D01*
X141030475Y-117830406D02*
X140885332Y-117830406D01*
X140885332Y-117830406D02*
X140836951Y-117806216D01*
X140836951Y-117806216D02*
X140812761Y-117782025D01*
X141369142Y-117830406D02*
X141465904Y-117830406D01*
X141465904Y-117830406D02*
X141514285Y-117806216D01*
X141514285Y-117806216D02*
X141538476Y-117782025D01*
X141538476Y-117782025D02*
X141586857Y-117709454D01*
X141586857Y-117709454D02*
X141611047Y-117612692D01*
X141611047Y-117612692D02*
X141611047Y-117419168D01*
X141611047Y-117419168D02*
X141586857Y-117370787D01*
X141586857Y-117370787D02*
X141562666Y-117346596D01*
X141562666Y-117346596D02*
X141514285Y-117322406D01*
X141514285Y-117322406D02*
X141417523Y-117322406D01*
X141417523Y-117322406D02*
X141369142Y-117346596D01*
X141369142Y-117346596D02*
X141344952Y-117370787D01*
X141344952Y-117370787D02*
X141320761Y-117419168D01*
X141320761Y-117419168D02*
X141320761Y-117540120D01*
X141320761Y-117540120D02*
X141344952Y-117588501D01*
X141344952Y-117588501D02*
X141369142Y-117612692D01*
X141369142Y-117612692D02*
X141417523Y-117636882D01*
X141417523Y-117636882D02*
X141514285Y-117636882D01*
X141514285Y-117636882D02*
X141562666Y-117612692D01*
X141562666Y-117612692D02*
X141586857Y-117588501D01*
X141586857Y-117588501D02*
X141611047Y-117540120D01*
X132573428Y-109828406D02*
X132404094Y-109586501D01*
X132283142Y-109828406D02*
X132283142Y-109320406D01*
X132283142Y-109320406D02*
X132476666Y-109320406D01*
X132476666Y-109320406D02*
X132525047Y-109344596D01*
X132525047Y-109344596D02*
X132549237Y-109368787D01*
X132549237Y-109368787D02*
X132573428Y-109417168D01*
X132573428Y-109417168D02*
X132573428Y-109489739D01*
X132573428Y-109489739D02*
X132549237Y-109538120D01*
X132549237Y-109538120D02*
X132525047Y-109562311D01*
X132525047Y-109562311D02*
X132476666Y-109586501D01*
X132476666Y-109586501D02*
X132283142Y-109586501D01*
X132742761Y-109320406D02*
X133057237Y-109320406D01*
X133057237Y-109320406D02*
X132887904Y-109513930D01*
X132887904Y-109513930D02*
X132960475Y-109513930D01*
X132960475Y-109513930D02*
X133008856Y-109538120D01*
X133008856Y-109538120D02*
X133033047Y-109562311D01*
X133033047Y-109562311D02*
X133057237Y-109610692D01*
X133057237Y-109610692D02*
X133057237Y-109731644D01*
X133057237Y-109731644D02*
X133033047Y-109780025D01*
X133033047Y-109780025D02*
X133008856Y-109804216D01*
X133008856Y-109804216D02*
X132960475Y-109828406D01*
X132960475Y-109828406D02*
X132815332Y-109828406D01*
X132815332Y-109828406D02*
X132766951Y-109804216D01*
X132766951Y-109804216D02*
X132742761Y-109780025D01*
X133226571Y-109320406D02*
X133565238Y-109320406D01*
X133565238Y-109320406D02*
X133347523Y-109828406D01*
X129382761Y-137134406D02*
X129382761Y-137497263D01*
X129382761Y-137497263D02*
X129358570Y-137569835D01*
X129358570Y-137569835D02*
X129310189Y-137618216D01*
X129310189Y-137618216D02*
X129237618Y-137642406D01*
X129237618Y-137642406D02*
X129189237Y-137642406D01*
X129890761Y-137642406D02*
X129600475Y-137642406D01*
X129745618Y-137642406D02*
X129745618Y-137134406D01*
X129745618Y-137134406D02*
X129697237Y-137206977D01*
X129697237Y-137206977D02*
X129648856Y-137255358D01*
X129648856Y-137255358D02*
X129600475Y-137279549D01*
X130205238Y-137134406D02*
X130253619Y-137134406D01*
X130253619Y-137134406D02*
X130302000Y-137158596D01*
X130302000Y-137158596D02*
X130326190Y-137182787D01*
X130326190Y-137182787D02*
X130350381Y-137231168D01*
X130350381Y-137231168D02*
X130374571Y-137327930D01*
X130374571Y-137327930D02*
X130374571Y-137448882D01*
X130374571Y-137448882D02*
X130350381Y-137545644D01*
X130350381Y-137545644D02*
X130326190Y-137594025D01*
X130326190Y-137594025D02*
X130302000Y-137618216D01*
X130302000Y-137618216D02*
X130253619Y-137642406D01*
X130253619Y-137642406D02*
X130205238Y-137642406D01*
X130205238Y-137642406D02*
X130156857Y-137618216D01*
X130156857Y-137618216D02*
X130132666Y-137594025D01*
X130132666Y-137594025D02*
X130108476Y-137545644D01*
X130108476Y-137545644D02*
X130084285Y-137448882D01*
X130084285Y-137448882D02*
X130084285Y-137327930D01*
X130084285Y-137327930D02*
X130108476Y-137231168D01*
X130108476Y-137231168D02*
X130132666Y-137182787D01*
X130132666Y-137182787D02*
X130156857Y-137158596D01*
X130156857Y-137158596D02*
X130205238Y-137134406D01*
X124812952Y-65595406D02*
X124812952Y-66006644D01*
X124812952Y-66006644D02*
X124837142Y-66055025D01*
X124837142Y-66055025D02*
X124861333Y-66079216D01*
X124861333Y-66079216D02*
X124909714Y-66103406D01*
X124909714Y-66103406D02*
X125006476Y-66103406D01*
X125006476Y-66103406D02*
X125054857Y-66079216D01*
X125054857Y-66079216D02*
X125079047Y-66055025D01*
X125079047Y-66055025D02*
X125103238Y-66006644D01*
X125103238Y-66006644D02*
X125103238Y-65595406D01*
X125562856Y-65764739D02*
X125562856Y-66103406D01*
X125441904Y-65571216D02*
X125320951Y-65934073D01*
X125320951Y-65934073D02*
X125635428Y-65934073D01*
X128818428Y-116078406D02*
X128649094Y-115836501D01*
X128528142Y-116078406D02*
X128528142Y-115570406D01*
X128528142Y-115570406D02*
X128721666Y-115570406D01*
X128721666Y-115570406D02*
X128770047Y-115594596D01*
X128770047Y-115594596D02*
X128794237Y-115618787D01*
X128794237Y-115618787D02*
X128818428Y-115667168D01*
X128818428Y-115667168D02*
X128818428Y-115739739D01*
X128818428Y-115739739D02*
X128794237Y-115788120D01*
X128794237Y-115788120D02*
X128770047Y-115812311D01*
X128770047Y-115812311D02*
X128721666Y-115836501D01*
X128721666Y-115836501D02*
X128528142Y-115836501D01*
X129253856Y-115739739D02*
X129253856Y-116078406D01*
X129132904Y-115546216D02*
X129011951Y-115909073D01*
X129011951Y-115909073D02*
X129326428Y-115909073D01*
X129786047Y-116078406D02*
X129495761Y-116078406D01*
X129640904Y-116078406D02*
X129640904Y-115570406D01*
X129640904Y-115570406D02*
X129592523Y-115642977D01*
X129592523Y-115642977D02*
X129544142Y-115691358D01*
X129544142Y-115691358D02*
X129495761Y-115715549D01*
X140643428Y-116179406D02*
X140474094Y-115937501D01*
X140353142Y-116179406D02*
X140353142Y-115671406D01*
X140353142Y-115671406D02*
X140546666Y-115671406D01*
X140546666Y-115671406D02*
X140595047Y-115695596D01*
X140595047Y-115695596D02*
X140619237Y-115719787D01*
X140619237Y-115719787D02*
X140643428Y-115768168D01*
X140643428Y-115768168D02*
X140643428Y-115840739D01*
X140643428Y-115840739D02*
X140619237Y-115889120D01*
X140619237Y-115889120D02*
X140595047Y-115913311D01*
X140595047Y-115913311D02*
X140546666Y-115937501D01*
X140546666Y-115937501D02*
X140353142Y-115937501D01*
X141078856Y-115840739D02*
X141078856Y-116179406D01*
X140957904Y-115647216D02*
X140836951Y-116010073D01*
X140836951Y-116010073D02*
X141151428Y-116010073D01*
X141369142Y-116179406D02*
X141465904Y-116179406D01*
X141465904Y-116179406D02*
X141514285Y-116155216D01*
X141514285Y-116155216D02*
X141538476Y-116131025D01*
X141538476Y-116131025D02*
X141586857Y-116058454D01*
X141586857Y-116058454D02*
X141611047Y-115961692D01*
X141611047Y-115961692D02*
X141611047Y-115768168D01*
X141611047Y-115768168D02*
X141586857Y-115719787D01*
X141586857Y-115719787D02*
X141562666Y-115695596D01*
X141562666Y-115695596D02*
X141514285Y-115671406D01*
X141514285Y-115671406D02*
X141417523Y-115671406D01*
X141417523Y-115671406D02*
X141369142Y-115695596D01*
X141369142Y-115695596D02*
X141344952Y-115719787D01*
X141344952Y-115719787D02*
X141320761Y-115768168D01*
X141320761Y-115768168D02*
X141320761Y-115889120D01*
X141320761Y-115889120D02*
X141344952Y-115937501D01*
X141344952Y-115937501D02*
X141369142Y-115961692D01*
X141369142Y-115961692D02*
X141417523Y-115985882D01*
X141417523Y-115985882D02*
X141514285Y-115985882D01*
X141514285Y-115985882D02*
X141562666Y-115961692D01*
X141562666Y-115961692D02*
X141586857Y-115937501D01*
X141586857Y-115937501D02*
X141611047Y-115889120D01*
X114909406Y-69412238D02*
X115272263Y-69412238D01*
X115272263Y-69412238D02*
X115344835Y-69436429D01*
X115344835Y-69436429D02*
X115393216Y-69484810D01*
X115393216Y-69484810D02*
X115417406Y-69557381D01*
X115417406Y-69557381D02*
X115417406Y-69605762D01*
X115417406Y-68904238D02*
X115417406Y-69194524D01*
X115417406Y-69049381D02*
X114909406Y-69049381D01*
X114909406Y-69049381D02*
X114981977Y-69097762D01*
X114981977Y-69097762D02*
X115030358Y-69146143D01*
X115030358Y-69146143D02*
X115054549Y-69194524D01*
X114957787Y-68710714D02*
X114933596Y-68686523D01*
X114933596Y-68686523D02*
X114909406Y-68638142D01*
X114909406Y-68638142D02*
X114909406Y-68517190D01*
X114909406Y-68517190D02*
X114933596Y-68468809D01*
X114933596Y-68468809D02*
X114957787Y-68444618D01*
X114957787Y-68444618D02*
X115006168Y-68420428D01*
X115006168Y-68420428D02*
X115054549Y-68420428D01*
X115054549Y-68420428D02*
X115127120Y-68444618D01*
X115127120Y-68444618D02*
X115417406Y-68734904D01*
X115417406Y-68734904D02*
X115417406Y-68420428D01*
X114909406Y-101419333D02*
X115272263Y-101419333D01*
X115272263Y-101419333D02*
X115344835Y-101443524D01*
X115344835Y-101443524D02*
X115393216Y-101491905D01*
X115393216Y-101491905D02*
X115417406Y-101564476D01*
X115417406Y-101564476D02*
X115417406Y-101612857D01*
X114909406Y-100959714D02*
X114909406Y-101056476D01*
X114909406Y-101056476D02*
X114933596Y-101104857D01*
X114933596Y-101104857D02*
X114957787Y-101129047D01*
X114957787Y-101129047D02*
X115030358Y-101177428D01*
X115030358Y-101177428D02*
X115127120Y-101201619D01*
X115127120Y-101201619D02*
X115320644Y-101201619D01*
X115320644Y-101201619D02*
X115369025Y-101177428D01*
X115369025Y-101177428D02*
X115393216Y-101153238D01*
X115393216Y-101153238D02*
X115417406Y-101104857D01*
X115417406Y-101104857D02*
X115417406Y-101008095D01*
X115417406Y-101008095D02*
X115393216Y-100959714D01*
X115393216Y-100959714D02*
X115369025Y-100935523D01*
X115369025Y-100935523D02*
X115320644Y-100911333D01*
X115320644Y-100911333D02*
X115199692Y-100911333D01*
X115199692Y-100911333D02*
X115151311Y-100935523D01*
X115151311Y-100935523D02*
X115127120Y-100959714D01*
X115127120Y-100959714D02*
X115102930Y-101008095D01*
X115102930Y-101008095D02*
X115102930Y-101104857D01*
X115102930Y-101104857D02*
X115127120Y-101153238D01*
X115127120Y-101153238D02*
X115151311Y-101177428D01*
X115151311Y-101177428D02*
X115199692Y-101201619D01*
X124798428Y-117449406D02*
X124629094Y-117207501D01*
X124508142Y-117449406D02*
X124508142Y-116941406D01*
X124508142Y-116941406D02*
X124701666Y-116941406D01*
X124701666Y-116941406D02*
X124750047Y-116965596D01*
X124750047Y-116965596D02*
X124774237Y-116989787D01*
X124774237Y-116989787D02*
X124798428Y-117038168D01*
X124798428Y-117038168D02*
X124798428Y-117110739D01*
X124798428Y-117110739D02*
X124774237Y-117159120D01*
X124774237Y-117159120D02*
X124750047Y-117183311D01*
X124750047Y-117183311D02*
X124701666Y-117207501D01*
X124701666Y-117207501D02*
X124508142Y-117207501D01*
X125233856Y-117110739D02*
X125233856Y-117449406D01*
X125112904Y-116917216D02*
X124991951Y-117280073D01*
X124991951Y-117280073D02*
X125306428Y-117280073D01*
X125596714Y-116941406D02*
X125645095Y-116941406D01*
X125645095Y-116941406D02*
X125693476Y-116965596D01*
X125693476Y-116965596D02*
X125717666Y-116989787D01*
X125717666Y-116989787D02*
X125741857Y-117038168D01*
X125741857Y-117038168D02*
X125766047Y-117134930D01*
X125766047Y-117134930D02*
X125766047Y-117255882D01*
X125766047Y-117255882D02*
X125741857Y-117352644D01*
X125741857Y-117352644D02*
X125717666Y-117401025D01*
X125717666Y-117401025D02*
X125693476Y-117425216D01*
X125693476Y-117425216D02*
X125645095Y-117449406D01*
X125645095Y-117449406D02*
X125596714Y-117449406D01*
X125596714Y-117449406D02*
X125548333Y-117425216D01*
X125548333Y-117425216D02*
X125524142Y-117401025D01*
X125524142Y-117401025D02*
X125499952Y-117352644D01*
X125499952Y-117352644D02*
X125475761Y-117255882D01*
X125475761Y-117255882D02*
X125475761Y-117134930D01*
X125475761Y-117134930D02*
X125499952Y-117038168D01*
X125499952Y-117038168D02*
X125524142Y-116989787D01*
X125524142Y-116989787D02*
X125548333Y-116965596D01*
X125548333Y-116965596D02*
X125596714Y-116941406D01*
X124006428Y-74777406D02*
X123837094Y-74535501D01*
X123716142Y-74777406D02*
X123716142Y-74269406D01*
X123716142Y-74269406D02*
X123909666Y-74269406D01*
X123909666Y-74269406D02*
X123958047Y-74293596D01*
X123958047Y-74293596D02*
X123982237Y-74317787D01*
X123982237Y-74317787D02*
X124006428Y-74366168D01*
X124006428Y-74366168D02*
X124006428Y-74438739D01*
X124006428Y-74438739D02*
X123982237Y-74487120D01*
X123982237Y-74487120D02*
X123958047Y-74511311D01*
X123958047Y-74511311D02*
X123909666Y-74535501D01*
X123909666Y-74535501D02*
X123716142Y-74535501D01*
X124175761Y-74269406D02*
X124490237Y-74269406D01*
X124490237Y-74269406D02*
X124320904Y-74462930D01*
X124320904Y-74462930D02*
X124393475Y-74462930D01*
X124393475Y-74462930D02*
X124441856Y-74487120D01*
X124441856Y-74487120D02*
X124466047Y-74511311D01*
X124466047Y-74511311D02*
X124490237Y-74559692D01*
X124490237Y-74559692D02*
X124490237Y-74680644D01*
X124490237Y-74680644D02*
X124466047Y-74729025D01*
X124466047Y-74729025D02*
X124441856Y-74753216D01*
X124441856Y-74753216D02*
X124393475Y-74777406D01*
X124393475Y-74777406D02*
X124248332Y-74777406D01*
X124248332Y-74777406D02*
X124199951Y-74753216D01*
X124199951Y-74753216D02*
X124175761Y-74729025D01*
X124925666Y-74438739D02*
X124925666Y-74777406D01*
X124804714Y-74245216D02*
X124683761Y-74608073D01*
X124683761Y-74608073D02*
X124998238Y-74608073D01*
X142533428Y-123593406D02*
X142364094Y-123351501D01*
X142243142Y-123593406D02*
X142243142Y-123085406D01*
X142243142Y-123085406D02*
X142436666Y-123085406D01*
X142436666Y-123085406D02*
X142485047Y-123109596D01*
X142485047Y-123109596D02*
X142509237Y-123133787D01*
X142509237Y-123133787D02*
X142533428Y-123182168D01*
X142533428Y-123182168D02*
X142533428Y-123254739D01*
X142533428Y-123254739D02*
X142509237Y-123303120D01*
X142509237Y-123303120D02*
X142485047Y-123327311D01*
X142485047Y-123327311D02*
X142436666Y-123351501D01*
X142436666Y-123351501D02*
X142243142Y-123351501D01*
X142993047Y-123085406D02*
X142751142Y-123085406D01*
X142751142Y-123085406D02*
X142726951Y-123327311D01*
X142726951Y-123327311D02*
X142751142Y-123303120D01*
X142751142Y-123303120D02*
X142799523Y-123278930D01*
X142799523Y-123278930D02*
X142920475Y-123278930D01*
X142920475Y-123278930D02*
X142968856Y-123303120D01*
X142968856Y-123303120D02*
X142993047Y-123327311D01*
X142993047Y-123327311D02*
X143017237Y-123375692D01*
X143017237Y-123375692D02*
X143017237Y-123496644D01*
X143017237Y-123496644D02*
X142993047Y-123545025D01*
X142993047Y-123545025D02*
X142968856Y-123569216D01*
X142968856Y-123569216D02*
X142920475Y-123593406D01*
X142920475Y-123593406D02*
X142799523Y-123593406D01*
X142799523Y-123593406D02*
X142751142Y-123569216D01*
X142751142Y-123569216D02*
X142726951Y-123545025D01*
X143476857Y-123085406D02*
X143234952Y-123085406D01*
X143234952Y-123085406D02*
X143210761Y-123327311D01*
X143210761Y-123327311D02*
X143234952Y-123303120D01*
X143234952Y-123303120D02*
X143283333Y-123278930D01*
X143283333Y-123278930D02*
X143404285Y-123278930D01*
X143404285Y-123278930D02*
X143452666Y-123303120D01*
X143452666Y-123303120D02*
X143476857Y-123327311D01*
X143476857Y-123327311D02*
X143501047Y-123375692D01*
X143501047Y-123375692D02*
X143501047Y-123496644D01*
X143501047Y-123496644D02*
X143476857Y-123545025D01*
X143476857Y-123545025D02*
X143452666Y-123569216D01*
X143452666Y-123569216D02*
X143404285Y-123593406D01*
X143404285Y-123593406D02*
X143283333Y-123593406D01*
X143283333Y-123593406D02*
X143234952Y-123569216D01*
X143234952Y-123569216D02*
X143210761Y-123545025D01*
X114862428Y-109702406D02*
X114693094Y-109460501D01*
X114572142Y-109702406D02*
X114572142Y-109194406D01*
X114572142Y-109194406D02*
X114765666Y-109194406D01*
X114765666Y-109194406D02*
X114814047Y-109218596D01*
X114814047Y-109218596D02*
X114838237Y-109242787D01*
X114838237Y-109242787D02*
X114862428Y-109291168D01*
X114862428Y-109291168D02*
X114862428Y-109363739D01*
X114862428Y-109363739D02*
X114838237Y-109412120D01*
X114838237Y-109412120D02*
X114814047Y-109436311D01*
X114814047Y-109436311D02*
X114765666Y-109460501D01*
X114765666Y-109460501D02*
X114572142Y-109460501D01*
X115297856Y-109363739D02*
X115297856Y-109702406D01*
X115176904Y-109170216D02*
X115055951Y-109533073D01*
X115055951Y-109533073D02*
X115370428Y-109533073D01*
X115781666Y-109194406D02*
X115684904Y-109194406D01*
X115684904Y-109194406D02*
X115636523Y-109218596D01*
X115636523Y-109218596D02*
X115612333Y-109242787D01*
X115612333Y-109242787D02*
X115563952Y-109315358D01*
X115563952Y-109315358D02*
X115539761Y-109412120D01*
X115539761Y-109412120D02*
X115539761Y-109605644D01*
X115539761Y-109605644D02*
X115563952Y-109654025D01*
X115563952Y-109654025D02*
X115588142Y-109678216D01*
X115588142Y-109678216D02*
X115636523Y-109702406D01*
X115636523Y-109702406D02*
X115733285Y-109702406D01*
X115733285Y-109702406D02*
X115781666Y-109678216D01*
X115781666Y-109678216D02*
X115805857Y-109654025D01*
X115805857Y-109654025D02*
X115830047Y-109605644D01*
X115830047Y-109605644D02*
X115830047Y-109484692D01*
X115830047Y-109484692D02*
X115805857Y-109436311D01*
X115805857Y-109436311D02*
X115781666Y-109412120D01*
X115781666Y-109412120D02*
X115733285Y-109387930D01*
X115733285Y-109387930D02*
X115636523Y-109387930D01*
X115636523Y-109387930D02*
X115588142Y-109412120D01*
X115588142Y-109412120D02*
X115563952Y-109436311D01*
X115563952Y-109436311D02*
X115539761Y-109484692D01*
X115036406Y-123577047D02*
X115447644Y-123577047D01*
X115447644Y-123577047D02*
X115496025Y-123552857D01*
X115496025Y-123552857D02*
X115520216Y-123528666D01*
X115520216Y-123528666D02*
X115544406Y-123480285D01*
X115544406Y-123480285D02*
X115544406Y-123383523D01*
X115544406Y-123383523D02*
X115520216Y-123335142D01*
X115520216Y-123335142D02*
X115496025Y-123310952D01*
X115496025Y-123310952D02*
X115447644Y-123286761D01*
X115447644Y-123286761D02*
X115036406Y-123286761D01*
X115036406Y-122827143D02*
X115036406Y-122923905D01*
X115036406Y-122923905D02*
X115060596Y-122972286D01*
X115060596Y-122972286D02*
X115084787Y-122996476D01*
X115084787Y-122996476D02*
X115157358Y-123044857D01*
X115157358Y-123044857D02*
X115254120Y-123069048D01*
X115254120Y-123069048D02*
X115447644Y-123069048D01*
X115447644Y-123069048D02*
X115496025Y-123044857D01*
X115496025Y-123044857D02*
X115520216Y-123020667D01*
X115520216Y-123020667D02*
X115544406Y-122972286D01*
X115544406Y-122972286D02*
X115544406Y-122875524D01*
X115544406Y-122875524D02*
X115520216Y-122827143D01*
X115520216Y-122827143D02*
X115496025Y-122802952D01*
X115496025Y-122802952D02*
X115447644Y-122778762D01*
X115447644Y-122778762D02*
X115326692Y-122778762D01*
X115326692Y-122778762D02*
X115278311Y-122802952D01*
X115278311Y-122802952D02*
X115254120Y-122827143D01*
X115254120Y-122827143D02*
X115229930Y-122875524D01*
X115229930Y-122875524D02*
X115229930Y-122972286D01*
X115229930Y-122972286D02*
X115254120Y-123020667D01*
X115254120Y-123020667D02*
X115278311Y-123044857D01*
X115278311Y-123044857D02*
X115326692Y-123069048D01*
X130073428Y-109828406D02*
X129904094Y-109586501D01*
X129783142Y-109828406D02*
X129783142Y-109320406D01*
X129783142Y-109320406D02*
X129976666Y-109320406D01*
X129976666Y-109320406D02*
X130025047Y-109344596D01*
X130025047Y-109344596D02*
X130049237Y-109368787D01*
X130049237Y-109368787D02*
X130073428Y-109417168D01*
X130073428Y-109417168D02*
X130073428Y-109489739D01*
X130073428Y-109489739D02*
X130049237Y-109538120D01*
X130049237Y-109538120D02*
X130025047Y-109562311D01*
X130025047Y-109562311D02*
X129976666Y-109586501D01*
X129976666Y-109586501D02*
X129783142Y-109586501D01*
X130508856Y-109489739D02*
X130508856Y-109828406D01*
X130387904Y-109296216D02*
X130266951Y-109659073D01*
X130266951Y-109659073D02*
X130581428Y-109659073D01*
X130992666Y-109489739D02*
X130992666Y-109828406D01*
X130871714Y-109296216D02*
X130750761Y-109659073D01*
X130750761Y-109659073D02*
X131065238Y-109659073D01*
X123183951Y-119354406D02*
X123474237Y-119354406D01*
X123329094Y-119862406D02*
X123329094Y-119354406D01*
X123643571Y-119862406D02*
X123643571Y-119354406D01*
X123643571Y-119354406D02*
X123837095Y-119354406D01*
X123837095Y-119354406D02*
X123885476Y-119378596D01*
X123885476Y-119378596D02*
X123909666Y-119402787D01*
X123909666Y-119402787D02*
X123933857Y-119451168D01*
X123933857Y-119451168D02*
X123933857Y-119523739D01*
X123933857Y-119523739D02*
X123909666Y-119572120D01*
X123909666Y-119572120D02*
X123885476Y-119596311D01*
X123885476Y-119596311D02*
X123837095Y-119620501D01*
X123837095Y-119620501D02*
X123643571Y-119620501D01*
X124103190Y-119354406D02*
X124417666Y-119354406D01*
X124417666Y-119354406D02*
X124248333Y-119547930D01*
X124248333Y-119547930D02*
X124320904Y-119547930D01*
X124320904Y-119547930D02*
X124369285Y-119572120D01*
X124369285Y-119572120D02*
X124393476Y-119596311D01*
X124393476Y-119596311D02*
X124417666Y-119644692D01*
X124417666Y-119644692D02*
X124417666Y-119765644D01*
X124417666Y-119765644D02*
X124393476Y-119814025D01*
X124393476Y-119814025D02*
X124369285Y-119838216D01*
X124369285Y-119838216D02*
X124320904Y-119862406D01*
X124320904Y-119862406D02*
X124175761Y-119862406D01*
X124175761Y-119862406D02*
X124127380Y-119838216D01*
X124127380Y-119838216D02*
X124103190Y-119814025D01*
X136330666Y-65062311D02*
X136161333Y-65062311D01*
X136161333Y-65328406D02*
X136161333Y-64820406D01*
X136161333Y-64820406D02*
X136403238Y-64820406D01*
X136862857Y-65328406D02*
X136572571Y-65328406D01*
X136717714Y-65328406D02*
X136717714Y-64820406D01*
X136717714Y-64820406D02*
X136669333Y-64892977D01*
X136669333Y-64892977D02*
X136620952Y-64941358D01*
X136620952Y-64941358D02*
X136572571Y-64965549D01*
X121466428Y-60124025D02*
X121442237Y-60148216D01*
X121442237Y-60148216D02*
X121369666Y-60172406D01*
X121369666Y-60172406D02*
X121321285Y-60172406D01*
X121321285Y-60172406D02*
X121248713Y-60148216D01*
X121248713Y-60148216D02*
X121200332Y-60099835D01*
X121200332Y-60099835D02*
X121176142Y-60051454D01*
X121176142Y-60051454D02*
X121151951Y-59954692D01*
X121151951Y-59954692D02*
X121151951Y-59882120D01*
X121151951Y-59882120D02*
X121176142Y-59785358D01*
X121176142Y-59785358D02*
X121200332Y-59736977D01*
X121200332Y-59736977D02*
X121248713Y-59688596D01*
X121248713Y-59688596D02*
X121321285Y-59664406D01*
X121321285Y-59664406D02*
X121369666Y-59664406D01*
X121369666Y-59664406D02*
X121442237Y-59688596D01*
X121442237Y-59688596D02*
X121466428Y-59712787D01*
X121950237Y-60172406D02*
X121659951Y-60172406D01*
X121805094Y-60172406D02*
X121805094Y-59664406D01*
X121805094Y-59664406D02*
X121756713Y-59736977D01*
X121756713Y-59736977D02*
X121708332Y-59785358D01*
X121708332Y-59785358D02*
X121659951Y-59809549D01*
X122119571Y-59664406D02*
X122434047Y-59664406D01*
X122434047Y-59664406D02*
X122264714Y-59857930D01*
X122264714Y-59857930D02*
X122337285Y-59857930D01*
X122337285Y-59857930D02*
X122385666Y-59882120D01*
X122385666Y-59882120D02*
X122409857Y-59906311D01*
X122409857Y-59906311D02*
X122434047Y-59954692D01*
X122434047Y-59954692D02*
X122434047Y-60075644D01*
X122434047Y-60075644D02*
X122409857Y-60124025D01*
X122409857Y-60124025D02*
X122385666Y-60148216D01*
X122385666Y-60148216D02*
X122337285Y-60172406D01*
X122337285Y-60172406D02*
X122192142Y-60172406D01*
X122192142Y-60172406D02*
X122143761Y-60148216D01*
X122143761Y-60148216D02*
X122119571Y-60124025D01*
X117848428Y-109578406D02*
X117679094Y-109336501D01*
X117558142Y-109578406D02*
X117558142Y-109070406D01*
X117558142Y-109070406D02*
X117751666Y-109070406D01*
X117751666Y-109070406D02*
X117800047Y-109094596D01*
X117800047Y-109094596D02*
X117824237Y-109118787D01*
X117824237Y-109118787D02*
X117848428Y-109167168D01*
X117848428Y-109167168D02*
X117848428Y-109239739D01*
X117848428Y-109239739D02*
X117824237Y-109288120D01*
X117824237Y-109288120D02*
X117800047Y-109312311D01*
X117800047Y-109312311D02*
X117751666Y-109336501D01*
X117751666Y-109336501D02*
X117558142Y-109336501D01*
X118017761Y-109070406D02*
X118332237Y-109070406D01*
X118332237Y-109070406D02*
X118162904Y-109263930D01*
X118162904Y-109263930D02*
X118235475Y-109263930D01*
X118235475Y-109263930D02*
X118283856Y-109288120D01*
X118283856Y-109288120D02*
X118308047Y-109312311D01*
X118308047Y-109312311D02*
X118332237Y-109360692D01*
X118332237Y-109360692D02*
X118332237Y-109481644D01*
X118332237Y-109481644D02*
X118308047Y-109530025D01*
X118308047Y-109530025D02*
X118283856Y-109554216D01*
X118283856Y-109554216D02*
X118235475Y-109578406D01*
X118235475Y-109578406D02*
X118090332Y-109578406D01*
X118090332Y-109578406D02*
X118041951Y-109554216D01*
X118041951Y-109554216D02*
X118017761Y-109530025D01*
X118622523Y-109288120D02*
X118574142Y-109263930D01*
X118574142Y-109263930D02*
X118549952Y-109239739D01*
X118549952Y-109239739D02*
X118525761Y-109191358D01*
X118525761Y-109191358D02*
X118525761Y-109167168D01*
X118525761Y-109167168D02*
X118549952Y-109118787D01*
X118549952Y-109118787D02*
X118574142Y-109094596D01*
X118574142Y-109094596D02*
X118622523Y-109070406D01*
X118622523Y-109070406D02*
X118719285Y-109070406D01*
X118719285Y-109070406D02*
X118767666Y-109094596D01*
X118767666Y-109094596D02*
X118791857Y-109118787D01*
X118791857Y-109118787D02*
X118816047Y-109167168D01*
X118816047Y-109167168D02*
X118816047Y-109191358D01*
X118816047Y-109191358D02*
X118791857Y-109239739D01*
X118791857Y-109239739D02*
X118767666Y-109263930D01*
X118767666Y-109263930D02*
X118719285Y-109288120D01*
X118719285Y-109288120D02*
X118622523Y-109288120D01*
X118622523Y-109288120D02*
X118574142Y-109312311D01*
X118574142Y-109312311D02*
X118549952Y-109336501D01*
X118549952Y-109336501D02*
X118525761Y-109384882D01*
X118525761Y-109384882D02*
X118525761Y-109481644D01*
X118525761Y-109481644D02*
X118549952Y-109530025D01*
X118549952Y-109530025D02*
X118574142Y-109554216D01*
X118574142Y-109554216D02*
X118622523Y-109578406D01*
X118622523Y-109578406D02*
X118719285Y-109578406D01*
X118719285Y-109578406D02*
X118767666Y-109554216D01*
X118767666Y-109554216D02*
X118791857Y-109530025D01*
X118791857Y-109530025D02*
X118816047Y-109481644D01*
X118816047Y-109481644D02*
X118816047Y-109384882D01*
X118816047Y-109384882D02*
X118791857Y-109336501D01*
X118791857Y-109336501D02*
X118767666Y-109312311D01*
X118767666Y-109312311D02*
X118719285Y-109288120D01*
X141618951Y-131435406D02*
X141909237Y-131435406D01*
X141764094Y-131943406D02*
X141764094Y-131435406D01*
X142078571Y-131943406D02*
X142078571Y-131435406D01*
X142078571Y-131435406D02*
X142272095Y-131435406D01*
X142272095Y-131435406D02*
X142320476Y-131459596D01*
X142320476Y-131459596D02*
X142344666Y-131483787D01*
X142344666Y-131483787D02*
X142368857Y-131532168D01*
X142368857Y-131532168D02*
X142368857Y-131604739D01*
X142368857Y-131604739D02*
X142344666Y-131653120D01*
X142344666Y-131653120D02*
X142320476Y-131677311D01*
X142320476Y-131677311D02*
X142272095Y-131701501D01*
X142272095Y-131701501D02*
X142078571Y-131701501D01*
X142828476Y-131435406D02*
X142586571Y-131435406D01*
X142586571Y-131435406D02*
X142562380Y-131677311D01*
X142562380Y-131677311D02*
X142586571Y-131653120D01*
X142586571Y-131653120D02*
X142634952Y-131628930D01*
X142634952Y-131628930D02*
X142755904Y-131628930D01*
X142755904Y-131628930D02*
X142804285Y-131653120D01*
X142804285Y-131653120D02*
X142828476Y-131677311D01*
X142828476Y-131677311D02*
X142852666Y-131725692D01*
X142852666Y-131725692D02*
X142852666Y-131846644D01*
X142852666Y-131846644D02*
X142828476Y-131895025D01*
X142828476Y-131895025D02*
X142804285Y-131919216D01*
X142804285Y-131919216D02*
X142755904Y-131943406D01*
X142755904Y-131943406D02*
X142634952Y-131943406D01*
X142634952Y-131943406D02*
X142586571Y-131919216D01*
X142586571Y-131919216D02*
X142562380Y-131895025D01*
X131451619Y-67840787D02*
X131403238Y-67816596D01*
X131403238Y-67816596D02*
X131354857Y-67768216D01*
X131354857Y-67768216D02*
X131282285Y-67695644D01*
X131282285Y-67695644D02*
X131233904Y-67671454D01*
X131233904Y-67671454D02*
X131185523Y-67671454D01*
X131209714Y-67792406D02*
X131161333Y-67768216D01*
X131161333Y-67768216D02*
X131112952Y-67719835D01*
X131112952Y-67719835D02*
X131088761Y-67623073D01*
X131088761Y-67623073D02*
X131088761Y-67453739D01*
X131088761Y-67453739D02*
X131112952Y-67356977D01*
X131112952Y-67356977D02*
X131161333Y-67308596D01*
X131161333Y-67308596D02*
X131209714Y-67284406D01*
X131209714Y-67284406D02*
X131306476Y-67284406D01*
X131306476Y-67284406D02*
X131354857Y-67308596D01*
X131354857Y-67308596D02*
X131403238Y-67356977D01*
X131403238Y-67356977D02*
X131427428Y-67453739D01*
X131427428Y-67453739D02*
X131427428Y-67623073D01*
X131427428Y-67623073D02*
X131403238Y-67719835D01*
X131403238Y-67719835D02*
X131354857Y-67768216D01*
X131354857Y-67768216D02*
X131306476Y-67792406D01*
X131306476Y-67792406D02*
X131209714Y-67792406D01*
X131620951Y-67332787D02*
X131645142Y-67308596D01*
X131645142Y-67308596D02*
X131693523Y-67284406D01*
X131693523Y-67284406D02*
X131814475Y-67284406D01*
X131814475Y-67284406D02*
X131862856Y-67308596D01*
X131862856Y-67308596D02*
X131887047Y-67332787D01*
X131887047Y-67332787D02*
X131911237Y-67381168D01*
X131911237Y-67381168D02*
X131911237Y-67429549D01*
X131911237Y-67429549D02*
X131887047Y-67502120D01*
X131887047Y-67502120D02*
X131596761Y-67792406D01*
X131596761Y-67792406D02*
X131911237Y-67792406D01*
X119198428Y-117178406D02*
X119029094Y-116936501D01*
X118908142Y-117178406D02*
X118908142Y-116670406D01*
X118908142Y-116670406D02*
X119101666Y-116670406D01*
X119101666Y-116670406D02*
X119150047Y-116694596D01*
X119150047Y-116694596D02*
X119174237Y-116718787D01*
X119174237Y-116718787D02*
X119198428Y-116767168D01*
X119198428Y-116767168D02*
X119198428Y-116839739D01*
X119198428Y-116839739D02*
X119174237Y-116888120D01*
X119174237Y-116888120D02*
X119150047Y-116912311D01*
X119150047Y-116912311D02*
X119101666Y-116936501D01*
X119101666Y-116936501D02*
X118908142Y-116936501D01*
X119367761Y-116670406D02*
X119682237Y-116670406D01*
X119682237Y-116670406D02*
X119512904Y-116863930D01*
X119512904Y-116863930D02*
X119585475Y-116863930D01*
X119585475Y-116863930D02*
X119633856Y-116888120D01*
X119633856Y-116888120D02*
X119658047Y-116912311D01*
X119658047Y-116912311D02*
X119682237Y-116960692D01*
X119682237Y-116960692D02*
X119682237Y-117081644D01*
X119682237Y-117081644D02*
X119658047Y-117130025D01*
X119658047Y-117130025D02*
X119633856Y-117154216D01*
X119633856Y-117154216D02*
X119585475Y-117178406D01*
X119585475Y-117178406D02*
X119440332Y-117178406D01*
X119440332Y-117178406D02*
X119391951Y-117154216D01*
X119391951Y-117154216D02*
X119367761Y-117130025D01*
X120117666Y-116670406D02*
X120020904Y-116670406D01*
X120020904Y-116670406D02*
X119972523Y-116694596D01*
X119972523Y-116694596D02*
X119948333Y-116718787D01*
X119948333Y-116718787D02*
X119899952Y-116791358D01*
X119899952Y-116791358D02*
X119875761Y-116888120D01*
X119875761Y-116888120D02*
X119875761Y-117081644D01*
X119875761Y-117081644D02*
X119899952Y-117130025D01*
X119899952Y-117130025D02*
X119924142Y-117154216D01*
X119924142Y-117154216D02*
X119972523Y-117178406D01*
X119972523Y-117178406D02*
X120069285Y-117178406D01*
X120069285Y-117178406D02*
X120117666Y-117154216D01*
X120117666Y-117154216D02*
X120141857Y-117130025D01*
X120141857Y-117130025D02*
X120166047Y-117081644D01*
X120166047Y-117081644D02*
X120166047Y-116960692D01*
X120166047Y-116960692D02*
X120141857Y-116912311D01*
X120141857Y-116912311D02*
X120117666Y-116888120D01*
X120117666Y-116888120D02*
X120069285Y-116863930D01*
X120069285Y-116863930D02*
X119972523Y-116863930D01*
X119972523Y-116863930D02*
X119924142Y-116888120D01*
X119924142Y-116888120D02*
X119899952Y-116912311D01*
X119899952Y-116912311D02*
X119875761Y-116960692D01*
X134333428Y-117543406D02*
X134164094Y-117301501D01*
X134043142Y-117543406D02*
X134043142Y-117035406D01*
X134043142Y-117035406D02*
X134236666Y-117035406D01*
X134236666Y-117035406D02*
X134285047Y-117059596D01*
X134285047Y-117059596D02*
X134309237Y-117083787D01*
X134309237Y-117083787D02*
X134333428Y-117132168D01*
X134333428Y-117132168D02*
X134333428Y-117204739D01*
X134333428Y-117204739D02*
X134309237Y-117253120D01*
X134309237Y-117253120D02*
X134285047Y-117277311D01*
X134285047Y-117277311D02*
X134236666Y-117301501D01*
X134236666Y-117301501D02*
X134043142Y-117301501D01*
X134502761Y-117035406D02*
X134817237Y-117035406D01*
X134817237Y-117035406D02*
X134647904Y-117228930D01*
X134647904Y-117228930D02*
X134720475Y-117228930D01*
X134720475Y-117228930D02*
X134768856Y-117253120D01*
X134768856Y-117253120D02*
X134793047Y-117277311D01*
X134793047Y-117277311D02*
X134817237Y-117325692D01*
X134817237Y-117325692D02*
X134817237Y-117446644D01*
X134817237Y-117446644D02*
X134793047Y-117495025D01*
X134793047Y-117495025D02*
X134768856Y-117519216D01*
X134768856Y-117519216D02*
X134720475Y-117543406D01*
X134720475Y-117543406D02*
X134575332Y-117543406D01*
X134575332Y-117543406D02*
X134526951Y-117519216D01*
X134526951Y-117519216D02*
X134502761Y-117495025D01*
X135276857Y-117035406D02*
X135034952Y-117035406D01*
X135034952Y-117035406D02*
X135010761Y-117277311D01*
X135010761Y-117277311D02*
X135034952Y-117253120D01*
X135034952Y-117253120D02*
X135083333Y-117228930D01*
X135083333Y-117228930D02*
X135204285Y-117228930D01*
X135204285Y-117228930D02*
X135252666Y-117253120D01*
X135252666Y-117253120D02*
X135276857Y-117277311D01*
X135276857Y-117277311D02*
X135301047Y-117325692D01*
X135301047Y-117325692D02*
X135301047Y-117446644D01*
X135301047Y-117446644D02*
X135276857Y-117495025D01*
X135276857Y-117495025D02*
X135252666Y-117519216D01*
X135252666Y-117519216D02*
X135204285Y-117543406D01*
X135204285Y-117543406D02*
X135083333Y-117543406D01*
X135083333Y-117543406D02*
X135034952Y-117519216D01*
X135034952Y-117519216D02*
X135010761Y-117495025D01*
X119129095Y-113578406D02*
X119129095Y-113070406D01*
X119661286Y-113530025D02*
X119637095Y-113554216D01*
X119637095Y-113554216D02*
X119564524Y-113578406D01*
X119564524Y-113578406D02*
X119516143Y-113578406D01*
X119516143Y-113578406D02*
X119443571Y-113554216D01*
X119443571Y-113554216D02*
X119395190Y-113505835D01*
X119395190Y-113505835D02*
X119371000Y-113457454D01*
X119371000Y-113457454D02*
X119346809Y-113360692D01*
X119346809Y-113360692D02*
X119346809Y-113288120D01*
X119346809Y-113288120D02*
X119371000Y-113191358D01*
X119371000Y-113191358D02*
X119395190Y-113142977D01*
X119395190Y-113142977D02*
X119443571Y-113094596D01*
X119443571Y-113094596D02*
X119516143Y-113070406D01*
X119516143Y-113070406D02*
X119564524Y-113070406D01*
X119564524Y-113070406D02*
X119637095Y-113094596D01*
X119637095Y-113094596D02*
X119661286Y-113118787D01*
X119854809Y-113118787D02*
X119879000Y-113094596D01*
X119879000Y-113094596D02*
X119927381Y-113070406D01*
X119927381Y-113070406D02*
X120048333Y-113070406D01*
X120048333Y-113070406D02*
X120096714Y-113094596D01*
X120096714Y-113094596D02*
X120120905Y-113118787D01*
X120120905Y-113118787D02*
X120145095Y-113167168D01*
X120145095Y-113167168D02*
X120145095Y-113215549D01*
X120145095Y-113215549D02*
X120120905Y-113288120D01*
X120120905Y-113288120D02*
X119830619Y-113578406D01*
X119830619Y-113578406D02*
X120145095Y-113578406D01*
X120788406Y-133549571D02*
X120546501Y-133718905D01*
X120788406Y-133839857D02*
X120280406Y-133839857D01*
X120280406Y-133839857D02*
X120280406Y-133646333D01*
X120280406Y-133646333D02*
X120304596Y-133597952D01*
X120304596Y-133597952D02*
X120328787Y-133573762D01*
X120328787Y-133573762D02*
X120377168Y-133549571D01*
X120377168Y-133549571D02*
X120449739Y-133549571D01*
X120449739Y-133549571D02*
X120498120Y-133573762D01*
X120498120Y-133573762D02*
X120522311Y-133597952D01*
X120522311Y-133597952D02*
X120546501Y-133646333D01*
X120546501Y-133646333D02*
X120546501Y-133839857D01*
X120280406Y-133114143D02*
X120280406Y-133210905D01*
X120280406Y-133210905D02*
X120304596Y-133259286D01*
X120304596Y-133259286D02*
X120328787Y-133283476D01*
X120328787Y-133283476D02*
X120401358Y-133331857D01*
X120401358Y-133331857D02*
X120498120Y-133356048D01*
X120498120Y-133356048D02*
X120691644Y-133356048D01*
X120691644Y-133356048D02*
X120740025Y-133331857D01*
X120740025Y-133331857D02*
X120764216Y-133307667D01*
X120764216Y-133307667D02*
X120788406Y-133259286D01*
X120788406Y-133259286D02*
X120788406Y-133162524D01*
X120788406Y-133162524D02*
X120764216Y-133114143D01*
X120764216Y-133114143D02*
X120740025Y-133089952D01*
X120740025Y-133089952D02*
X120691644Y-133065762D01*
X120691644Y-133065762D02*
X120570692Y-133065762D01*
X120570692Y-133065762D02*
X120522311Y-133089952D01*
X120522311Y-133089952D02*
X120498120Y-133114143D01*
X120498120Y-133114143D02*
X120473930Y-133162524D01*
X120473930Y-133162524D02*
X120473930Y-133259286D01*
X120473930Y-133259286D02*
X120498120Y-133307667D01*
X120498120Y-133307667D02*
X120522311Y-133331857D01*
X120522311Y-133331857D02*
X120570692Y-133356048D01*
X120280406Y-132896428D02*
X120280406Y-132581952D01*
X120280406Y-132581952D02*
X120473930Y-132751285D01*
X120473930Y-132751285D02*
X120473930Y-132678714D01*
X120473930Y-132678714D02*
X120498120Y-132630333D01*
X120498120Y-132630333D02*
X120522311Y-132606142D01*
X120522311Y-132606142D02*
X120570692Y-132581952D01*
X120570692Y-132581952D02*
X120691644Y-132581952D01*
X120691644Y-132581952D02*
X120740025Y-132606142D01*
X120740025Y-132606142D02*
X120764216Y-132630333D01*
X120764216Y-132630333D02*
X120788406Y-132678714D01*
X120788406Y-132678714D02*
X120788406Y-132823857D01*
X120788406Y-132823857D02*
X120764216Y-132872238D01*
X120764216Y-132872238D02*
X120740025Y-132896428D01*
X129406951Y-119481406D02*
X129697237Y-119481406D01*
X129552094Y-119989406D02*
X129552094Y-119481406D01*
X129866571Y-119989406D02*
X129866571Y-119481406D01*
X129866571Y-119481406D02*
X130060095Y-119481406D01*
X130060095Y-119481406D02*
X130108476Y-119505596D01*
X130108476Y-119505596D02*
X130132666Y-119529787D01*
X130132666Y-119529787D02*
X130156857Y-119578168D01*
X130156857Y-119578168D02*
X130156857Y-119650739D01*
X130156857Y-119650739D02*
X130132666Y-119699120D01*
X130132666Y-119699120D02*
X130108476Y-119723311D01*
X130108476Y-119723311D02*
X130060095Y-119747501D01*
X130060095Y-119747501D02*
X129866571Y-119747501D01*
X130350380Y-119529787D02*
X130374571Y-119505596D01*
X130374571Y-119505596D02*
X130422952Y-119481406D01*
X130422952Y-119481406D02*
X130543904Y-119481406D01*
X130543904Y-119481406D02*
X130592285Y-119505596D01*
X130592285Y-119505596D02*
X130616476Y-119529787D01*
X130616476Y-119529787D02*
X130640666Y-119578168D01*
X130640666Y-119578168D02*
X130640666Y-119626549D01*
X130640666Y-119626549D02*
X130616476Y-119699120D01*
X130616476Y-119699120D02*
X130326190Y-119989406D01*
X130326190Y-119989406D02*
X130640666Y-119989406D01*
X132327952Y-122656406D02*
X132327952Y-123067644D01*
X132327952Y-123067644D02*
X132352142Y-123116025D01*
X132352142Y-123116025D02*
X132376333Y-123140216D01*
X132376333Y-123140216D02*
X132424714Y-123164406D01*
X132424714Y-123164406D02*
X132521476Y-123164406D01*
X132521476Y-123164406D02*
X132569857Y-123140216D01*
X132569857Y-123140216D02*
X132594047Y-123116025D01*
X132594047Y-123116025D02*
X132618238Y-123067644D01*
X132618238Y-123067644D02*
X132618238Y-122656406D01*
X133102047Y-122656406D02*
X132860142Y-122656406D01*
X132860142Y-122656406D02*
X132835951Y-122898311D01*
X132835951Y-122898311D02*
X132860142Y-122874120D01*
X132860142Y-122874120D02*
X132908523Y-122849930D01*
X132908523Y-122849930D02*
X133029475Y-122849930D01*
X133029475Y-122849930D02*
X133077856Y-122874120D01*
X133077856Y-122874120D02*
X133102047Y-122898311D01*
X133102047Y-122898311D02*
X133126237Y-122946692D01*
X133126237Y-122946692D02*
X133126237Y-123067644D01*
X133126237Y-123067644D02*
X133102047Y-123116025D01*
X133102047Y-123116025D02*
X133077856Y-123140216D01*
X133077856Y-123140216D02*
X133029475Y-123164406D01*
X133029475Y-123164406D02*
X132908523Y-123164406D01*
X132908523Y-123164406D02*
X132860142Y-123140216D01*
X132860142Y-123140216D02*
X132835951Y-123116025D01*
X126673428Y-73586025D02*
X126649237Y-73610216D01*
X126649237Y-73610216D02*
X126576666Y-73634406D01*
X126576666Y-73634406D02*
X126528285Y-73634406D01*
X126528285Y-73634406D02*
X126455713Y-73610216D01*
X126455713Y-73610216D02*
X126407332Y-73561835D01*
X126407332Y-73561835D02*
X126383142Y-73513454D01*
X126383142Y-73513454D02*
X126358951Y-73416692D01*
X126358951Y-73416692D02*
X126358951Y-73344120D01*
X126358951Y-73344120D02*
X126383142Y-73247358D01*
X126383142Y-73247358D02*
X126407332Y-73198977D01*
X126407332Y-73198977D02*
X126455713Y-73150596D01*
X126455713Y-73150596D02*
X126528285Y-73126406D01*
X126528285Y-73126406D02*
X126576666Y-73126406D01*
X126576666Y-73126406D02*
X126649237Y-73150596D01*
X126649237Y-73150596D02*
X126673428Y-73174787D01*
X127157237Y-73634406D02*
X126866951Y-73634406D01*
X127012094Y-73634406D02*
X127012094Y-73126406D01*
X127012094Y-73126406D02*
X126963713Y-73198977D01*
X126963713Y-73198977D02*
X126915332Y-73247358D01*
X126915332Y-73247358D02*
X126866951Y-73271549D01*
X127350761Y-73174787D02*
X127374952Y-73150596D01*
X127374952Y-73150596D02*
X127423333Y-73126406D01*
X127423333Y-73126406D02*
X127544285Y-73126406D01*
X127544285Y-73126406D02*
X127592666Y-73150596D01*
X127592666Y-73150596D02*
X127616857Y-73174787D01*
X127616857Y-73174787D02*
X127641047Y-73223168D01*
X127641047Y-73223168D02*
X127641047Y-73271549D01*
X127641047Y-73271549D02*
X127616857Y-73344120D01*
X127616857Y-73344120D02*
X127326571Y-73634406D01*
X127326571Y-73634406D02*
X127641047Y-73634406D01*
X127609406Y-112213571D02*
X127367501Y-112382905D01*
X127609406Y-112503857D02*
X127101406Y-112503857D01*
X127101406Y-112503857D02*
X127101406Y-112310333D01*
X127101406Y-112310333D02*
X127125596Y-112261952D01*
X127125596Y-112261952D02*
X127149787Y-112237762D01*
X127149787Y-112237762D02*
X127198168Y-112213571D01*
X127198168Y-112213571D02*
X127270739Y-112213571D01*
X127270739Y-112213571D02*
X127319120Y-112237762D01*
X127319120Y-112237762D02*
X127343311Y-112261952D01*
X127343311Y-112261952D02*
X127367501Y-112310333D01*
X127367501Y-112310333D02*
X127367501Y-112503857D01*
X127101406Y-111753952D02*
X127101406Y-111995857D01*
X127101406Y-111995857D02*
X127343311Y-112020048D01*
X127343311Y-112020048D02*
X127319120Y-111995857D01*
X127319120Y-111995857D02*
X127294930Y-111947476D01*
X127294930Y-111947476D02*
X127294930Y-111826524D01*
X127294930Y-111826524D02*
X127319120Y-111778143D01*
X127319120Y-111778143D02*
X127343311Y-111753952D01*
X127343311Y-111753952D02*
X127391692Y-111729762D01*
X127391692Y-111729762D02*
X127512644Y-111729762D01*
X127512644Y-111729762D02*
X127561025Y-111753952D01*
X127561025Y-111753952D02*
X127585216Y-111778143D01*
X127585216Y-111778143D02*
X127609406Y-111826524D01*
X127609406Y-111826524D02*
X127609406Y-111947476D01*
X127609406Y-111947476D02*
X127585216Y-111995857D01*
X127585216Y-111995857D02*
X127561025Y-112020048D01*
X127149787Y-111536238D02*
X127125596Y-111512047D01*
X127125596Y-111512047D02*
X127101406Y-111463666D01*
X127101406Y-111463666D02*
X127101406Y-111342714D01*
X127101406Y-111342714D02*
X127125596Y-111294333D01*
X127125596Y-111294333D02*
X127149787Y-111270142D01*
X127149787Y-111270142D02*
X127198168Y-111245952D01*
X127198168Y-111245952D02*
X127246549Y-111245952D01*
X127246549Y-111245952D02*
X127319120Y-111270142D01*
X127319120Y-111270142D02*
X127609406Y-111560428D01*
X127609406Y-111560428D02*
X127609406Y-111245952D01*
X133415333Y-58775406D02*
X133245999Y-58533501D01*
X133125047Y-58775406D02*
X133125047Y-58267406D01*
X133125047Y-58267406D02*
X133318571Y-58267406D01*
X133318571Y-58267406D02*
X133366952Y-58291596D01*
X133366952Y-58291596D02*
X133391142Y-58315787D01*
X133391142Y-58315787D02*
X133415333Y-58364168D01*
X133415333Y-58364168D02*
X133415333Y-58436739D01*
X133415333Y-58436739D02*
X133391142Y-58485120D01*
X133391142Y-58485120D02*
X133366952Y-58509311D01*
X133366952Y-58509311D02*
X133318571Y-58533501D01*
X133318571Y-58533501D02*
X133125047Y-58533501D01*
X133850761Y-58436739D02*
X133850761Y-58775406D01*
X133729809Y-58243216D02*
X133608856Y-58606073D01*
X133608856Y-58606073D02*
X133923333Y-58606073D01*
X131800406Y-104212571D02*
X131558501Y-104381905D01*
X131800406Y-104502857D02*
X131292406Y-104502857D01*
X131292406Y-104502857D02*
X131292406Y-104309333D01*
X131292406Y-104309333D02*
X131316596Y-104260952D01*
X131316596Y-104260952D02*
X131340787Y-104236762D01*
X131340787Y-104236762D02*
X131389168Y-104212571D01*
X131389168Y-104212571D02*
X131461739Y-104212571D01*
X131461739Y-104212571D02*
X131510120Y-104236762D01*
X131510120Y-104236762D02*
X131534311Y-104260952D01*
X131534311Y-104260952D02*
X131558501Y-104309333D01*
X131558501Y-104309333D02*
X131558501Y-104502857D01*
X131340787Y-104019048D02*
X131316596Y-103994857D01*
X131316596Y-103994857D02*
X131292406Y-103946476D01*
X131292406Y-103946476D02*
X131292406Y-103825524D01*
X131292406Y-103825524D02*
X131316596Y-103777143D01*
X131316596Y-103777143D02*
X131340787Y-103752952D01*
X131340787Y-103752952D02*
X131389168Y-103728762D01*
X131389168Y-103728762D02*
X131437549Y-103728762D01*
X131437549Y-103728762D02*
X131510120Y-103752952D01*
X131510120Y-103752952D02*
X131800406Y-104043238D01*
X131800406Y-104043238D02*
X131800406Y-103728762D01*
X131292406Y-103559428D02*
X131292406Y-103220761D01*
X131292406Y-103220761D02*
X131800406Y-103438476D01*
X121913951Y-133035406D02*
X122204237Y-133035406D01*
X122059094Y-133543406D02*
X122059094Y-133035406D01*
X122373571Y-133543406D02*
X122373571Y-133035406D01*
X122373571Y-133035406D02*
X122567095Y-133035406D01*
X122567095Y-133035406D02*
X122615476Y-133059596D01*
X122615476Y-133059596D02*
X122639666Y-133083787D01*
X122639666Y-133083787D02*
X122663857Y-133132168D01*
X122663857Y-133132168D02*
X122663857Y-133204739D01*
X122663857Y-133204739D02*
X122639666Y-133253120D01*
X122639666Y-133253120D02*
X122615476Y-133277311D01*
X122615476Y-133277311D02*
X122567095Y-133301501D01*
X122567095Y-133301501D02*
X122373571Y-133301501D01*
X122954142Y-133253120D02*
X122905761Y-133228930D01*
X122905761Y-133228930D02*
X122881571Y-133204739D01*
X122881571Y-133204739D02*
X122857380Y-133156358D01*
X122857380Y-133156358D02*
X122857380Y-133132168D01*
X122857380Y-133132168D02*
X122881571Y-133083787D01*
X122881571Y-133083787D02*
X122905761Y-133059596D01*
X122905761Y-133059596D02*
X122954142Y-133035406D01*
X122954142Y-133035406D02*
X123050904Y-133035406D01*
X123050904Y-133035406D02*
X123099285Y-133059596D01*
X123099285Y-133059596D02*
X123123476Y-133083787D01*
X123123476Y-133083787D02*
X123147666Y-133132168D01*
X123147666Y-133132168D02*
X123147666Y-133156358D01*
X123147666Y-133156358D02*
X123123476Y-133204739D01*
X123123476Y-133204739D02*
X123099285Y-133228930D01*
X123099285Y-133228930D02*
X123050904Y-133253120D01*
X123050904Y-133253120D02*
X122954142Y-133253120D01*
X122954142Y-133253120D02*
X122905761Y-133277311D01*
X122905761Y-133277311D02*
X122881571Y-133301501D01*
X122881571Y-133301501D02*
X122857380Y-133349882D01*
X122857380Y-133349882D02*
X122857380Y-133446644D01*
X122857380Y-133446644D02*
X122881571Y-133495025D01*
X122881571Y-133495025D02*
X122905761Y-133519216D01*
X122905761Y-133519216D02*
X122954142Y-133543406D01*
X122954142Y-133543406D02*
X123050904Y-133543406D01*
X123050904Y-133543406D02*
X123099285Y-133519216D01*
X123099285Y-133519216D02*
X123123476Y-133495025D01*
X123123476Y-133495025D02*
X123147666Y-133446644D01*
X123147666Y-133446644D02*
X123147666Y-133349882D01*
X123147666Y-133349882D02*
X123123476Y-133301501D01*
X123123476Y-133301501D02*
X123099285Y-133277311D01*
X123099285Y-133277311D02*
X123050904Y-133253120D01*
X119048428Y-121330025D02*
X119024237Y-121354216D01*
X119024237Y-121354216D02*
X118951666Y-121378406D01*
X118951666Y-121378406D02*
X118903285Y-121378406D01*
X118903285Y-121378406D02*
X118830713Y-121354216D01*
X118830713Y-121354216D02*
X118782332Y-121305835D01*
X118782332Y-121305835D02*
X118758142Y-121257454D01*
X118758142Y-121257454D02*
X118733951Y-121160692D01*
X118733951Y-121160692D02*
X118733951Y-121088120D01*
X118733951Y-121088120D02*
X118758142Y-120991358D01*
X118758142Y-120991358D02*
X118782332Y-120942977D01*
X118782332Y-120942977D02*
X118830713Y-120894596D01*
X118830713Y-120894596D02*
X118903285Y-120870406D01*
X118903285Y-120870406D02*
X118951666Y-120870406D01*
X118951666Y-120870406D02*
X119024237Y-120894596D01*
X119024237Y-120894596D02*
X119048428Y-120918787D01*
X119532237Y-121378406D02*
X119241951Y-121378406D01*
X119387094Y-121378406D02*
X119387094Y-120870406D01*
X119387094Y-120870406D02*
X119338713Y-120942977D01*
X119338713Y-120942977D02*
X119290332Y-120991358D01*
X119290332Y-120991358D02*
X119241951Y-121015549D01*
X119701571Y-120870406D02*
X120040238Y-120870406D01*
X120040238Y-120870406D02*
X119822523Y-121378406D01*
X130356428Y-88112406D02*
X130187094Y-87870501D01*
X130066142Y-88112406D02*
X130066142Y-87604406D01*
X130066142Y-87604406D02*
X130259666Y-87604406D01*
X130259666Y-87604406D02*
X130308047Y-87628596D01*
X130308047Y-87628596D02*
X130332237Y-87652787D01*
X130332237Y-87652787D02*
X130356428Y-87701168D01*
X130356428Y-87701168D02*
X130356428Y-87773739D01*
X130356428Y-87773739D02*
X130332237Y-87822120D01*
X130332237Y-87822120D02*
X130308047Y-87846311D01*
X130308047Y-87846311D02*
X130259666Y-87870501D01*
X130259666Y-87870501D02*
X130066142Y-87870501D01*
X130549951Y-87652787D02*
X130574142Y-87628596D01*
X130574142Y-87628596D02*
X130622523Y-87604406D01*
X130622523Y-87604406D02*
X130743475Y-87604406D01*
X130743475Y-87604406D02*
X130791856Y-87628596D01*
X130791856Y-87628596D02*
X130816047Y-87652787D01*
X130816047Y-87652787D02*
X130840237Y-87701168D01*
X130840237Y-87701168D02*
X130840237Y-87749549D01*
X130840237Y-87749549D02*
X130816047Y-87822120D01*
X130816047Y-87822120D02*
X130525761Y-88112406D01*
X130525761Y-88112406D02*
X130840237Y-88112406D01*
X131130523Y-87822120D02*
X131082142Y-87797930D01*
X131082142Y-87797930D02*
X131057952Y-87773739D01*
X131057952Y-87773739D02*
X131033761Y-87725358D01*
X131033761Y-87725358D02*
X131033761Y-87701168D01*
X131033761Y-87701168D02*
X131057952Y-87652787D01*
X131057952Y-87652787D02*
X131082142Y-87628596D01*
X131082142Y-87628596D02*
X131130523Y-87604406D01*
X131130523Y-87604406D02*
X131227285Y-87604406D01*
X131227285Y-87604406D02*
X131275666Y-87628596D01*
X131275666Y-87628596D02*
X131299857Y-87652787D01*
X131299857Y-87652787D02*
X131324047Y-87701168D01*
X131324047Y-87701168D02*
X131324047Y-87725358D01*
X131324047Y-87725358D02*
X131299857Y-87773739D01*
X131299857Y-87773739D02*
X131275666Y-87797930D01*
X131275666Y-87797930D02*
X131227285Y-87822120D01*
X131227285Y-87822120D02*
X131130523Y-87822120D01*
X131130523Y-87822120D02*
X131082142Y-87846311D01*
X131082142Y-87846311D02*
X131057952Y-87870501D01*
X131057952Y-87870501D02*
X131033761Y-87918882D01*
X131033761Y-87918882D02*
X131033761Y-88015644D01*
X131033761Y-88015644D02*
X131057952Y-88064025D01*
X131057952Y-88064025D02*
X131082142Y-88088216D01*
X131082142Y-88088216D02*
X131130523Y-88112406D01*
X131130523Y-88112406D02*
X131227285Y-88112406D01*
X131227285Y-88112406D02*
X131275666Y-88088216D01*
X131275666Y-88088216D02*
X131299857Y-88064025D01*
X131299857Y-88064025D02*
X131324047Y-88015644D01*
X131324047Y-88015644D02*
X131324047Y-87918882D01*
X131324047Y-87918882D02*
X131299857Y-87870501D01*
X131299857Y-87870501D02*
X131275666Y-87846311D01*
X131275666Y-87846311D02*
X131227285Y-87822120D01*
X129721428Y-86207406D02*
X129552094Y-85965501D01*
X129431142Y-86207406D02*
X129431142Y-85699406D01*
X129431142Y-85699406D02*
X129624666Y-85699406D01*
X129624666Y-85699406D02*
X129673047Y-85723596D01*
X129673047Y-85723596D02*
X129697237Y-85747787D01*
X129697237Y-85747787D02*
X129721428Y-85796168D01*
X129721428Y-85796168D02*
X129721428Y-85868739D01*
X129721428Y-85868739D02*
X129697237Y-85917120D01*
X129697237Y-85917120D02*
X129673047Y-85941311D01*
X129673047Y-85941311D02*
X129624666Y-85965501D01*
X129624666Y-85965501D02*
X129431142Y-85965501D01*
X129890761Y-85699406D02*
X130205237Y-85699406D01*
X130205237Y-85699406D02*
X130035904Y-85892930D01*
X130035904Y-85892930D02*
X130108475Y-85892930D01*
X130108475Y-85892930D02*
X130156856Y-85917120D01*
X130156856Y-85917120D02*
X130181047Y-85941311D01*
X130181047Y-85941311D02*
X130205237Y-85989692D01*
X130205237Y-85989692D02*
X130205237Y-86110644D01*
X130205237Y-86110644D02*
X130181047Y-86159025D01*
X130181047Y-86159025D02*
X130156856Y-86183216D01*
X130156856Y-86183216D02*
X130108475Y-86207406D01*
X130108475Y-86207406D02*
X129963332Y-86207406D01*
X129963332Y-86207406D02*
X129914951Y-86183216D01*
X129914951Y-86183216D02*
X129890761Y-86159025D01*
X130519714Y-85699406D02*
X130568095Y-85699406D01*
X130568095Y-85699406D02*
X130616476Y-85723596D01*
X130616476Y-85723596D02*
X130640666Y-85747787D01*
X130640666Y-85747787D02*
X130664857Y-85796168D01*
X130664857Y-85796168D02*
X130689047Y-85892930D01*
X130689047Y-85892930D02*
X130689047Y-86013882D01*
X130689047Y-86013882D02*
X130664857Y-86110644D01*
X130664857Y-86110644D02*
X130640666Y-86159025D01*
X130640666Y-86159025D02*
X130616476Y-86183216D01*
X130616476Y-86183216D02*
X130568095Y-86207406D01*
X130568095Y-86207406D02*
X130519714Y-86207406D01*
X130519714Y-86207406D02*
X130471333Y-86183216D01*
X130471333Y-86183216D02*
X130447142Y-86159025D01*
X130447142Y-86159025D02*
X130422952Y-86110644D01*
X130422952Y-86110644D02*
X130398761Y-86013882D01*
X130398761Y-86013882D02*
X130398761Y-85892930D01*
X130398761Y-85892930D02*
X130422952Y-85796168D01*
X130422952Y-85796168D02*
X130447142Y-85747787D01*
X130447142Y-85747787D02*
X130471333Y-85723596D01*
X130471333Y-85723596D02*
X130519714Y-85699406D01*
X124768428Y-118163025D02*
X124744237Y-118187216D01*
X124744237Y-118187216D02*
X124671666Y-118211406D01*
X124671666Y-118211406D02*
X124623285Y-118211406D01*
X124623285Y-118211406D02*
X124550713Y-118187216D01*
X124550713Y-118187216D02*
X124502332Y-118138835D01*
X124502332Y-118138835D02*
X124478142Y-118090454D01*
X124478142Y-118090454D02*
X124453951Y-117993692D01*
X124453951Y-117993692D02*
X124453951Y-117921120D01*
X124453951Y-117921120D02*
X124478142Y-117824358D01*
X124478142Y-117824358D02*
X124502332Y-117775977D01*
X124502332Y-117775977D02*
X124550713Y-117727596D01*
X124550713Y-117727596D02*
X124623285Y-117703406D01*
X124623285Y-117703406D02*
X124671666Y-117703406D01*
X124671666Y-117703406D02*
X124744237Y-117727596D01*
X124744237Y-117727596D02*
X124768428Y-117751787D01*
X125252237Y-118211406D02*
X124961951Y-118211406D01*
X125107094Y-118211406D02*
X125107094Y-117703406D01*
X125107094Y-117703406D02*
X125058713Y-117775977D01*
X125058713Y-117775977D02*
X125010332Y-117824358D01*
X125010332Y-117824358D02*
X124961951Y-117848549D01*
X125711857Y-117703406D02*
X125469952Y-117703406D01*
X125469952Y-117703406D02*
X125445761Y-117945311D01*
X125445761Y-117945311D02*
X125469952Y-117921120D01*
X125469952Y-117921120D02*
X125518333Y-117896930D01*
X125518333Y-117896930D02*
X125639285Y-117896930D01*
X125639285Y-117896930D02*
X125687666Y-117921120D01*
X125687666Y-117921120D02*
X125711857Y-117945311D01*
X125711857Y-117945311D02*
X125736047Y-117993692D01*
X125736047Y-117993692D02*
X125736047Y-118114644D01*
X125736047Y-118114644D02*
X125711857Y-118163025D01*
X125711857Y-118163025D02*
X125687666Y-118187216D01*
X125687666Y-118187216D02*
X125639285Y-118211406D01*
X125639285Y-118211406D02*
X125518333Y-118211406D01*
X125518333Y-118211406D02*
X125469952Y-118187216D01*
X125469952Y-118187216D02*
X125445761Y-118163025D01*
X114166951Y-119227406D02*
X114457237Y-119227406D01*
X114312094Y-119735406D02*
X114312094Y-119227406D01*
X114626571Y-119735406D02*
X114626571Y-119227406D01*
X114626571Y-119227406D02*
X114820095Y-119227406D01*
X114820095Y-119227406D02*
X114868476Y-119251596D01*
X114868476Y-119251596D02*
X114892666Y-119275787D01*
X114892666Y-119275787D02*
X114916857Y-119324168D01*
X114916857Y-119324168D02*
X114916857Y-119396739D01*
X114916857Y-119396739D02*
X114892666Y-119445120D01*
X114892666Y-119445120D02*
X114868476Y-119469311D01*
X114868476Y-119469311D02*
X114820095Y-119493501D01*
X114820095Y-119493501D02*
X114626571Y-119493501D01*
X115352285Y-119396739D02*
X115352285Y-119735406D01*
X115231333Y-119203216D02*
X115110380Y-119566073D01*
X115110380Y-119566073D02*
X115424857Y-119566073D01*
X132387025Y-133422571D02*
X132411216Y-133446762D01*
X132411216Y-133446762D02*
X132435406Y-133519333D01*
X132435406Y-133519333D02*
X132435406Y-133567714D01*
X132435406Y-133567714D02*
X132411216Y-133640286D01*
X132411216Y-133640286D02*
X132362835Y-133688667D01*
X132362835Y-133688667D02*
X132314454Y-133712857D01*
X132314454Y-133712857D02*
X132217692Y-133737048D01*
X132217692Y-133737048D02*
X132145120Y-133737048D01*
X132145120Y-133737048D02*
X132048358Y-133712857D01*
X132048358Y-133712857D02*
X131999977Y-133688667D01*
X131999977Y-133688667D02*
X131951596Y-133640286D01*
X131951596Y-133640286D02*
X131927406Y-133567714D01*
X131927406Y-133567714D02*
X131927406Y-133519333D01*
X131927406Y-133519333D02*
X131951596Y-133446762D01*
X131951596Y-133446762D02*
X131975787Y-133422571D01*
X132435406Y-132938762D02*
X132435406Y-133229048D01*
X132435406Y-133083905D02*
X131927406Y-133083905D01*
X131927406Y-133083905D02*
X131999977Y-133132286D01*
X131999977Y-133132286D02*
X132048358Y-133180667D01*
X132048358Y-133180667D02*
X132072549Y-133229048D01*
X132435406Y-132696857D02*
X132435406Y-132600095D01*
X132435406Y-132600095D02*
X132411216Y-132551714D01*
X132411216Y-132551714D02*
X132387025Y-132527523D01*
X132387025Y-132527523D02*
X132314454Y-132479142D01*
X132314454Y-132479142D02*
X132217692Y-132454952D01*
X132217692Y-132454952D02*
X132024168Y-132454952D01*
X132024168Y-132454952D02*
X131975787Y-132479142D01*
X131975787Y-132479142D02*
X131951596Y-132503333D01*
X131951596Y-132503333D02*
X131927406Y-132551714D01*
X131927406Y-132551714D02*
X131927406Y-132648476D01*
X131927406Y-132648476D02*
X131951596Y-132696857D01*
X131951596Y-132696857D02*
X131975787Y-132721047D01*
X131975787Y-132721047D02*
X132024168Y-132745238D01*
X132024168Y-132745238D02*
X132145120Y-132745238D01*
X132145120Y-132745238D02*
X132193501Y-132721047D01*
X132193501Y-132721047D02*
X132217692Y-132696857D01*
X132217692Y-132696857D02*
X132241882Y-132648476D01*
X132241882Y-132648476D02*
X132241882Y-132551714D01*
X132241882Y-132551714D02*
X132217692Y-132503333D01*
X132217692Y-132503333D02*
X132193501Y-132479142D01*
X132193501Y-132479142D02*
X132145120Y-132454952D01*
X125876666Y-107520406D02*
X125876666Y-107883263D01*
X125876666Y-107883263D02*
X125852475Y-107955835D01*
X125852475Y-107955835D02*
X125804094Y-108004216D01*
X125804094Y-108004216D02*
X125731523Y-108028406D01*
X125731523Y-108028406D02*
X125683142Y-108028406D01*
X126118571Y-108028406D02*
X126118571Y-107520406D01*
X126118571Y-107520406D02*
X126312095Y-107520406D01*
X126312095Y-107520406D02*
X126360476Y-107544596D01*
X126360476Y-107544596D02*
X126384666Y-107568787D01*
X126384666Y-107568787D02*
X126408857Y-107617168D01*
X126408857Y-107617168D02*
X126408857Y-107689739D01*
X126408857Y-107689739D02*
X126384666Y-107738120D01*
X126384666Y-107738120D02*
X126360476Y-107762311D01*
X126360476Y-107762311D02*
X126312095Y-107786501D01*
X126312095Y-107786501D02*
X126118571Y-107786501D01*
X126892666Y-108028406D02*
X126602380Y-108028406D01*
X126747523Y-108028406D02*
X126747523Y-107520406D01*
X126747523Y-107520406D02*
X126699142Y-107592977D01*
X126699142Y-107592977D02*
X126650761Y-107641358D01*
X126650761Y-107641358D02*
X126602380Y-107665549D01*
X126983428Y-122343406D02*
X126814094Y-122101501D01*
X126693142Y-122343406D02*
X126693142Y-121835406D01*
X126693142Y-121835406D02*
X126886666Y-121835406D01*
X126886666Y-121835406D02*
X126935047Y-121859596D01*
X126935047Y-121859596D02*
X126959237Y-121883787D01*
X126959237Y-121883787D02*
X126983428Y-121932168D01*
X126983428Y-121932168D02*
X126983428Y-122004739D01*
X126983428Y-122004739D02*
X126959237Y-122053120D01*
X126959237Y-122053120D02*
X126935047Y-122077311D01*
X126935047Y-122077311D02*
X126886666Y-122101501D01*
X126886666Y-122101501D02*
X126693142Y-122101501D01*
X127443047Y-121835406D02*
X127201142Y-121835406D01*
X127201142Y-121835406D02*
X127176951Y-122077311D01*
X127176951Y-122077311D02*
X127201142Y-122053120D01*
X127201142Y-122053120D02*
X127249523Y-122028930D01*
X127249523Y-122028930D02*
X127370475Y-122028930D01*
X127370475Y-122028930D02*
X127418856Y-122053120D01*
X127418856Y-122053120D02*
X127443047Y-122077311D01*
X127443047Y-122077311D02*
X127467237Y-122125692D01*
X127467237Y-122125692D02*
X127467237Y-122246644D01*
X127467237Y-122246644D02*
X127443047Y-122295025D01*
X127443047Y-122295025D02*
X127418856Y-122319216D01*
X127418856Y-122319216D02*
X127370475Y-122343406D01*
X127370475Y-122343406D02*
X127249523Y-122343406D01*
X127249523Y-122343406D02*
X127201142Y-122319216D01*
X127201142Y-122319216D02*
X127176951Y-122295025D01*
X127757523Y-122053120D02*
X127709142Y-122028930D01*
X127709142Y-122028930D02*
X127684952Y-122004739D01*
X127684952Y-122004739D02*
X127660761Y-121956358D01*
X127660761Y-121956358D02*
X127660761Y-121932168D01*
X127660761Y-121932168D02*
X127684952Y-121883787D01*
X127684952Y-121883787D02*
X127709142Y-121859596D01*
X127709142Y-121859596D02*
X127757523Y-121835406D01*
X127757523Y-121835406D02*
X127854285Y-121835406D01*
X127854285Y-121835406D02*
X127902666Y-121859596D01*
X127902666Y-121859596D02*
X127926857Y-121883787D01*
X127926857Y-121883787D02*
X127951047Y-121932168D01*
X127951047Y-121932168D02*
X127951047Y-121956358D01*
X127951047Y-121956358D02*
X127926857Y-122004739D01*
X127926857Y-122004739D02*
X127902666Y-122028930D01*
X127902666Y-122028930D02*
X127854285Y-122053120D01*
X127854285Y-122053120D02*
X127757523Y-122053120D01*
X127757523Y-122053120D02*
X127709142Y-122077311D01*
X127709142Y-122077311D02*
X127684952Y-122101501D01*
X127684952Y-122101501D02*
X127660761Y-122149882D01*
X127660761Y-122149882D02*
X127660761Y-122246644D01*
X127660761Y-122246644D02*
X127684952Y-122295025D01*
X127684952Y-122295025D02*
X127709142Y-122319216D01*
X127709142Y-122319216D02*
X127757523Y-122343406D01*
X127757523Y-122343406D02*
X127854285Y-122343406D01*
X127854285Y-122343406D02*
X127902666Y-122319216D01*
X127902666Y-122319216D02*
X127926857Y-122295025D01*
X127926857Y-122295025D02*
X127951047Y-122246644D01*
X127951047Y-122246644D02*
X127951047Y-122149882D01*
X127951047Y-122149882D02*
X127926857Y-122101501D01*
X127926857Y-122101501D02*
X127902666Y-122077311D01*
X127902666Y-122077311D02*
X127854285Y-122053120D01*
X111861406Y-111959571D02*
X111619501Y-112128905D01*
X111861406Y-112249857D02*
X111353406Y-112249857D01*
X111353406Y-112249857D02*
X111353406Y-112056333D01*
X111353406Y-112056333D02*
X111377596Y-112007952D01*
X111377596Y-112007952D02*
X111401787Y-111983762D01*
X111401787Y-111983762D02*
X111450168Y-111959571D01*
X111450168Y-111959571D02*
X111522739Y-111959571D01*
X111522739Y-111959571D02*
X111571120Y-111983762D01*
X111571120Y-111983762D02*
X111595311Y-112007952D01*
X111595311Y-112007952D02*
X111619501Y-112056333D01*
X111619501Y-112056333D02*
X111619501Y-112249857D01*
X111353406Y-111499952D02*
X111353406Y-111741857D01*
X111353406Y-111741857D02*
X111595311Y-111766048D01*
X111595311Y-111766048D02*
X111571120Y-111741857D01*
X111571120Y-111741857D02*
X111546930Y-111693476D01*
X111546930Y-111693476D02*
X111546930Y-111572524D01*
X111546930Y-111572524D02*
X111571120Y-111524143D01*
X111571120Y-111524143D02*
X111595311Y-111499952D01*
X111595311Y-111499952D02*
X111643692Y-111475762D01*
X111643692Y-111475762D02*
X111764644Y-111475762D01*
X111764644Y-111475762D02*
X111813025Y-111499952D01*
X111813025Y-111499952D02*
X111837216Y-111524143D01*
X111837216Y-111524143D02*
X111861406Y-111572524D01*
X111861406Y-111572524D02*
X111861406Y-111693476D01*
X111861406Y-111693476D02*
X111837216Y-111741857D01*
X111837216Y-111741857D02*
X111813025Y-111766048D01*
X111522739Y-111040333D02*
X111861406Y-111040333D01*
X111329216Y-111161285D02*
X111692073Y-111282238D01*
X111692073Y-111282238D02*
X111692073Y-110967761D01*
X116585025Y-133295571D02*
X116609216Y-133319762D01*
X116609216Y-133319762D02*
X116633406Y-133392333D01*
X116633406Y-133392333D02*
X116633406Y-133440714D01*
X116633406Y-133440714D02*
X116609216Y-133513286D01*
X116609216Y-133513286D02*
X116560835Y-133561667D01*
X116560835Y-133561667D02*
X116512454Y-133585857D01*
X116512454Y-133585857D02*
X116415692Y-133610048D01*
X116415692Y-133610048D02*
X116343120Y-133610048D01*
X116343120Y-133610048D02*
X116246358Y-133585857D01*
X116246358Y-133585857D02*
X116197977Y-133561667D01*
X116197977Y-133561667D02*
X116149596Y-133513286D01*
X116149596Y-133513286D02*
X116125406Y-133440714D01*
X116125406Y-133440714D02*
X116125406Y-133392333D01*
X116125406Y-133392333D02*
X116149596Y-133319762D01*
X116149596Y-133319762D02*
X116173787Y-133295571D01*
X116173787Y-133102048D02*
X116149596Y-133077857D01*
X116149596Y-133077857D02*
X116125406Y-133029476D01*
X116125406Y-133029476D02*
X116125406Y-132908524D01*
X116125406Y-132908524D02*
X116149596Y-132860143D01*
X116149596Y-132860143D02*
X116173787Y-132835952D01*
X116173787Y-132835952D02*
X116222168Y-132811762D01*
X116222168Y-132811762D02*
X116270549Y-132811762D01*
X116270549Y-132811762D02*
X116343120Y-132835952D01*
X116343120Y-132835952D02*
X116633406Y-133126238D01*
X116633406Y-133126238D02*
X116633406Y-132811762D01*
X116633406Y-132327952D02*
X116633406Y-132618238D01*
X116633406Y-132473095D02*
X116125406Y-132473095D01*
X116125406Y-132473095D02*
X116197977Y-132521476D01*
X116197977Y-132521476D02*
X116246358Y-132569857D01*
X116246358Y-132569857D02*
X116270549Y-132618238D01*
X121466428Y-58648406D02*
X121297094Y-58406501D01*
X121176142Y-58648406D02*
X121176142Y-58140406D01*
X121176142Y-58140406D02*
X121369666Y-58140406D01*
X121369666Y-58140406D02*
X121418047Y-58164596D01*
X121418047Y-58164596D02*
X121442237Y-58188787D01*
X121442237Y-58188787D02*
X121466428Y-58237168D01*
X121466428Y-58237168D02*
X121466428Y-58309739D01*
X121466428Y-58309739D02*
X121442237Y-58358120D01*
X121442237Y-58358120D02*
X121418047Y-58382311D01*
X121418047Y-58382311D02*
X121369666Y-58406501D01*
X121369666Y-58406501D02*
X121176142Y-58406501D01*
X121635761Y-58140406D02*
X121950237Y-58140406D01*
X121950237Y-58140406D02*
X121780904Y-58333930D01*
X121780904Y-58333930D02*
X121853475Y-58333930D01*
X121853475Y-58333930D02*
X121901856Y-58358120D01*
X121901856Y-58358120D02*
X121926047Y-58382311D01*
X121926047Y-58382311D02*
X121950237Y-58430692D01*
X121950237Y-58430692D02*
X121950237Y-58551644D01*
X121950237Y-58551644D02*
X121926047Y-58600025D01*
X121926047Y-58600025D02*
X121901856Y-58624216D01*
X121901856Y-58624216D02*
X121853475Y-58648406D01*
X121853475Y-58648406D02*
X121708332Y-58648406D01*
X121708332Y-58648406D02*
X121659951Y-58624216D01*
X121659951Y-58624216D02*
X121635761Y-58600025D01*
X122119571Y-58140406D02*
X122434047Y-58140406D01*
X122434047Y-58140406D02*
X122264714Y-58333930D01*
X122264714Y-58333930D02*
X122337285Y-58333930D01*
X122337285Y-58333930D02*
X122385666Y-58358120D01*
X122385666Y-58358120D02*
X122409857Y-58382311D01*
X122409857Y-58382311D02*
X122434047Y-58430692D01*
X122434047Y-58430692D02*
X122434047Y-58551644D01*
X122434047Y-58551644D02*
X122409857Y-58600025D01*
X122409857Y-58600025D02*
X122385666Y-58624216D01*
X122385666Y-58624216D02*
X122337285Y-58648406D01*
X122337285Y-58648406D02*
X122192142Y-58648406D01*
X122192142Y-58648406D02*
X122143761Y-58624216D01*
X122143761Y-58624216D02*
X122119571Y-58600025D01*
X123485047Y-127355406D02*
X123485047Y-126847406D01*
X123485047Y-126847406D02*
X123605999Y-126847406D01*
X123605999Y-126847406D02*
X123678571Y-126871596D01*
X123678571Y-126871596D02*
X123726952Y-126919977D01*
X123726952Y-126919977D02*
X123751142Y-126968358D01*
X123751142Y-126968358D02*
X123775333Y-127065120D01*
X123775333Y-127065120D02*
X123775333Y-127137692D01*
X123775333Y-127137692D02*
X123751142Y-127234454D01*
X123751142Y-127234454D02*
X123726952Y-127282835D01*
X123726952Y-127282835D02*
X123678571Y-127331216D01*
X123678571Y-127331216D02*
X123605999Y-127355406D01*
X123605999Y-127355406D02*
X123485047Y-127355406D01*
X124234952Y-126847406D02*
X123993047Y-126847406D01*
X123993047Y-126847406D02*
X123968856Y-127089311D01*
X123968856Y-127089311D02*
X123993047Y-127065120D01*
X123993047Y-127065120D02*
X124041428Y-127040930D01*
X124041428Y-127040930D02*
X124162380Y-127040930D01*
X124162380Y-127040930D02*
X124210761Y-127065120D01*
X124210761Y-127065120D02*
X124234952Y-127089311D01*
X124234952Y-127089311D02*
X124259142Y-127137692D01*
X124259142Y-127137692D02*
X124259142Y-127258644D01*
X124259142Y-127258644D02*
X124234952Y-127307025D01*
X124234952Y-127307025D02*
X124210761Y-127331216D01*
X124210761Y-127331216D02*
X124162380Y-127355406D01*
X124162380Y-127355406D02*
X124041428Y-127355406D01*
X124041428Y-127355406D02*
X123993047Y-127331216D01*
X123993047Y-127331216D02*
X123968856Y-127307025D01*
X134364095Y-113743406D02*
X134364095Y-113235406D01*
X134896286Y-113695025D02*
X134872095Y-113719216D01*
X134872095Y-113719216D02*
X134799524Y-113743406D01*
X134799524Y-113743406D02*
X134751143Y-113743406D01*
X134751143Y-113743406D02*
X134678571Y-113719216D01*
X134678571Y-113719216D02*
X134630190Y-113670835D01*
X134630190Y-113670835D02*
X134606000Y-113622454D01*
X134606000Y-113622454D02*
X134581809Y-113525692D01*
X134581809Y-113525692D02*
X134581809Y-113453120D01*
X134581809Y-113453120D02*
X134606000Y-113356358D01*
X134606000Y-113356358D02*
X134630190Y-113307977D01*
X134630190Y-113307977D02*
X134678571Y-113259596D01*
X134678571Y-113259596D02*
X134751143Y-113235406D01*
X134751143Y-113235406D02*
X134799524Y-113235406D01*
X134799524Y-113235406D02*
X134872095Y-113259596D01*
X134872095Y-113259596D02*
X134896286Y-113283787D01*
X135380095Y-113743406D02*
X135089809Y-113743406D01*
X135234952Y-113743406D02*
X135234952Y-113235406D01*
X135234952Y-113235406D02*
X135186571Y-113307977D01*
X135186571Y-113307977D02*
X135138190Y-113356358D01*
X135138190Y-113356358D02*
X135089809Y-113380549D01*
X136488406Y-133295571D02*
X136246501Y-133464905D01*
X136488406Y-133585857D02*
X135980406Y-133585857D01*
X135980406Y-133585857D02*
X135980406Y-133392333D01*
X135980406Y-133392333D02*
X136004596Y-133343952D01*
X136004596Y-133343952D02*
X136028787Y-133319762D01*
X136028787Y-133319762D02*
X136077168Y-133295571D01*
X136077168Y-133295571D02*
X136149739Y-133295571D01*
X136149739Y-133295571D02*
X136198120Y-133319762D01*
X136198120Y-133319762D02*
X136222311Y-133343952D01*
X136222311Y-133343952D02*
X136246501Y-133392333D01*
X136246501Y-133392333D02*
X136246501Y-133585857D01*
X135980406Y-132860143D02*
X135980406Y-132956905D01*
X135980406Y-132956905D02*
X136004596Y-133005286D01*
X136004596Y-133005286D02*
X136028787Y-133029476D01*
X136028787Y-133029476D02*
X136101358Y-133077857D01*
X136101358Y-133077857D02*
X136198120Y-133102048D01*
X136198120Y-133102048D02*
X136391644Y-133102048D01*
X136391644Y-133102048D02*
X136440025Y-133077857D01*
X136440025Y-133077857D02*
X136464216Y-133053667D01*
X136464216Y-133053667D02*
X136488406Y-133005286D01*
X136488406Y-133005286D02*
X136488406Y-132908524D01*
X136488406Y-132908524D02*
X136464216Y-132860143D01*
X136464216Y-132860143D02*
X136440025Y-132835952D01*
X136440025Y-132835952D02*
X136391644Y-132811762D01*
X136391644Y-132811762D02*
X136270692Y-132811762D01*
X136270692Y-132811762D02*
X136222311Y-132835952D01*
X136222311Y-132835952D02*
X136198120Y-132860143D01*
X136198120Y-132860143D02*
X136173930Y-132908524D01*
X136173930Y-132908524D02*
X136173930Y-133005286D01*
X136173930Y-133005286D02*
X136198120Y-133053667D01*
X136198120Y-133053667D02*
X136222311Y-133077857D01*
X136222311Y-133077857D02*
X136270692Y-133102048D01*
X136028787Y-132618238D02*
X136004596Y-132594047D01*
X136004596Y-132594047D02*
X135980406Y-132545666D01*
X135980406Y-132545666D02*
X135980406Y-132424714D01*
X135980406Y-132424714D02*
X136004596Y-132376333D01*
X136004596Y-132376333D02*
X136028787Y-132352142D01*
X136028787Y-132352142D02*
X136077168Y-132327952D01*
X136077168Y-132327952D02*
X136125549Y-132327952D01*
X136125549Y-132327952D02*
X136198120Y-132352142D01*
X136198120Y-132352142D02*
X136488406Y-132642428D01*
X136488406Y-132642428D02*
X136488406Y-132327952D01*
X121466428Y-59410406D02*
X121297094Y-59168501D01*
X121176142Y-59410406D02*
X121176142Y-58902406D01*
X121176142Y-58902406D02*
X121369666Y-58902406D01*
X121369666Y-58902406D02*
X121418047Y-58926596D01*
X121418047Y-58926596D02*
X121442237Y-58950787D01*
X121442237Y-58950787D02*
X121466428Y-58999168D01*
X121466428Y-58999168D02*
X121466428Y-59071739D01*
X121466428Y-59071739D02*
X121442237Y-59120120D01*
X121442237Y-59120120D02*
X121418047Y-59144311D01*
X121418047Y-59144311D02*
X121369666Y-59168501D01*
X121369666Y-59168501D02*
X121176142Y-59168501D01*
X121635761Y-58902406D02*
X121950237Y-58902406D01*
X121950237Y-58902406D02*
X121780904Y-59095930D01*
X121780904Y-59095930D02*
X121853475Y-59095930D01*
X121853475Y-59095930D02*
X121901856Y-59120120D01*
X121901856Y-59120120D02*
X121926047Y-59144311D01*
X121926047Y-59144311D02*
X121950237Y-59192692D01*
X121950237Y-59192692D02*
X121950237Y-59313644D01*
X121950237Y-59313644D02*
X121926047Y-59362025D01*
X121926047Y-59362025D02*
X121901856Y-59386216D01*
X121901856Y-59386216D02*
X121853475Y-59410406D01*
X121853475Y-59410406D02*
X121708332Y-59410406D01*
X121708332Y-59410406D02*
X121659951Y-59386216D01*
X121659951Y-59386216D02*
X121635761Y-59362025D01*
X122434047Y-59410406D02*
X122143761Y-59410406D01*
X122288904Y-59410406D02*
X122288904Y-58902406D01*
X122288904Y-58902406D02*
X122240523Y-58974977D01*
X122240523Y-58974977D02*
X122192142Y-59023358D01*
X122192142Y-59023358D02*
X122143761Y-59047549D01*
X142533428Y-122783406D02*
X142364094Y-122541501D01*
X142243142Y-122783406D02*
X142243142Y-122275406D01*
X142243142Y-122275406D02*
X142436666Y-122275406D01*
X142436666Y-122275406D02*
X142485047Y-122299596D01*
X142485047Y-122299596D02*
X142509237Y-122323787D01*
X142509237Y-122323787D02*
X142533428Y-122372168D01*
X142533428Y-122372168D02*
X142533428Y-122444739D01*
X142533428Y-122444739D02*
X142509237Y-122493120D01*
X142509237Y-122493120D02*
X142485047Y-122517311D01*
X142485047Y-122517311D02*
X142436666Y-122541501D01*
X142436666Y-122541501D02*
X142243142Y-122541501D01*
X142993047Y-122275406D02*
X142751142Y-122275406D01*
X142751142Y-122275406D02*
X142726951Y-122517311D01*
X142726951Y-122517311D02*
X142751142Y-122493120D01*
X142751142Y-122493120D02*
X142799523Y-122468930D01*
X142799523Y-122468930D02*
X142920475Y-122468930D01*
X142920475Y-122468930D02*
X142968856Y-122493120D01*
X142968856Y-122493120D02*
X142993047Y-122517311D01*
X142993047Y-122517311D02*
X143017237Y-122565692D01*
X143017237Y-122565692D02*
X143017237Y-122686644D01*
X143017237Y-122686644D02*
X142993047Y-122735025D01*
X142993047Y-122735025D02*
X142968856Y-122759216D01*
X142968856Y-122759216D02*
X142920475Y-122783406D01*
X142920475Y-122783406D02*
X142799523Y-122783406D01*
X142799523Y-122783406D02*
X142751142Y-122759216D01*
X142751142Y-122759216D02*
X142726951Y-122735025D01*
X143186571Y-122275406D02*
X143525238Y-122275406D01*
X143525238Y-122275406D02*
X143307523Y-122783406D01*
X124798428Y-115978406D02*
X124629094Y-115736501D01*
X124508142Y-115978406D02*
X124508142Y-115470406D01*
X124508142Y-115470406D02*
X124701666Y-115470406D01*
X124701666Y-115470406D02*
X124750047Y-115494596D01*
X124750047Y-115494596D02*
X124774237Y-115518787D01*
X124774237Y-115518787D02*
X124798428Y-115567168D01*
X124798428Y-115567168D02*
X124798428Y-115639739D01*
X124798428Y-115639739D02*
X124774237Y-115688120D01*
X124774237Y-115688120D02*
X124750047Y-115712311D01*
X124750047Y-115712311D02*
X124701666Y-115736501D01*
X124701666Y-115736501D02*
X124508142Y-115736501D01*
X125258047Y-115470406D02*
X125016142Y-115470406D01*
X125016142Y-115470406D02*
X124991951Y-115712311D01*
X124991951Y-115712311D02*
X125016142Y-115688120D01*
X125016142Y-115688120D02*
X125064523Y-115663930D01*
X125064523Y-115663930D02*
X125185475Y-115663930D01*
X125185475Y-115663930D02*
X125233856Y-115688120D01*
X125233856Y-115688120D02*
X125258047Y-115712311D01*
X125258047Y-115712311D02*
X125282237Y-115760692D01*
X125282237Y-115760692D02*
X125282237Y-115881644D01*
X125282237Y-115881644D02*
X125258047Y-115930025D01*
X125258047Y-115930025D02*
X125233856Y-115954216D01*
X125233856Y-115954216D02*
X125185475Y-115978406D01*
X125185475Y-115978406D02*
X125064523Y-115978406D01*
X125064523Y-115978406D02*
X125016142Y-115954216D01*
X125016142Y-115954216D02*
X124991951Y-115930025D01*
X125596714Y-115470406D02*
X125645095Y-115470406D01*
X125645095Y-115470406D02*
X125693476Y-115494596D01*
X125693476Y-115494596D02*
X125717666Y-115518787D01*
X125717666Y-115518787D02*
X125741857Y-115567168D01*
X125741857Y-115567168D02*
X125766047Y-115663930D01*
X125766047Y-115663930D02*
X125766047Y-115784882D01*
X125766047Y-115784882D02*
X125741857Y-115881644D01*
X125741857Y-115881644D02*
X125717666Y-115930025D01*
X125717666Y-115930025D02*
X125693476Y-115954216D01*
X125693476Y-115954216D02*
X125645095Y-115978406D01*
X125645095Y-115978406D02*
X125596714Y-115978406D01*
X125596714Y-115978406D02*
X125548333Y-115954216D01*
X125548333Y-115954216D02*
X125524142Y-115930025D01*
X125524142Y-115930025D02*
X125499952Y-115881644D01*
X125499952Y-115881644D02*
X125475761Y-115784882D01*
X125475761Y-115784882D02*
X125475761Y-115663930D01*
X125475761Y-115663930D02*
X125499952Y-115567168D01*
X125499952Y-115567168D02*
X125524142Y-115518787D01*
X125524142Y-115518787D02*
X125548333Y-115494596D01*
X125548333Y-115494596D02*
X125596714Y-115470406D01*
X123625428Y-87096406D02*
X123456094Y-86854501D01*
X123335142Y-87096406D02*
X123335142Y-86588406D01*
X123335142Y-86588406D02*
X123528666Y-86588406D01*
X123528666Y-86588406D02*
X123577047Y-86612596D01*
X123577047Y-86612596D02*
X123601237Y-86636787D01*
X123601237Y-86636787D02*
X123625428Y-86685168D01*
X123625428Y-86685168D02*
X123625428Y-86757739D01*
X123625428Y-86757739D02*
X123601237Y-86806120D01*
X123601237Y-86806120D02*
X123577047Y-86830311D01*
X123577047Y-86830311D02*
X123528666Y-86854501D01*
X123528666Y-86854501D02*
X123335142Y-86854501D01*
X124109237Y-87096406D02*
X123818951Y-87096406D01*
X123964094Y-87096406D02*
X123964094Y-86588406D01*
X123964094Y-86588406D02*
X123915713Y-86660977D01*
X123915713Y-86660977D02*
X123867332Y-86709358D01*
X123867332Y-86709358D02*
X123818951Y-86733549D01*
X124423714Y-86588406D02*
X124472095Y-86588406D01*
X124472095Y-86588406D02*
X124520476Y-86612596D01*
X124520476Y-86612596D02*
X124544666Y-86636787D01*
X124544666Y-86636787D02*
X124568857Y-86685168D01*
X124568857Y-86685168D02*
X124593047Y-86781930D01*
X124593047Y-86781930D02*
X124593047Y-86902882D01*
X124593047Y-86902882D02*
X124568857Y-86999644D01*
X124568857Y-86999644D02*
X124544666Y-87048025D01*
X124544666Y-87048025D02*
X124520476Y-87072216D01*
X124520476Y-87072216D02*
X124472095Y-87096406D01*
X124472095Y-87096406D02*
X124423714Y-87096406D01*
X124423714Y-87096406D02*
X124375333Y-87072216D01*
X124375333Y-87072216D02*
X124351142Y-87048025D01*
X124351142Y-87048025D02*
X124326952Y-86999644D01*
X124326952Y-86999644D02*
X124302761Y-86902882D01*
X124302761Y-86902882D02*
X124302761Y-86781930D01*
X124302761Y-86781930D02*
X124326952Y-86685168D01*
X124326952Y-86685168D02*
X124351142Y-86636787D01*
X124351142Y-86636787D02*
X124375333Y-86612596D01*
X124375333Y-86612596D02*
X124423714Y-86588406D01*
X137718951Y-133070406D02*
X138009237Y-133070406D01*
X137864094Y-133578406D02*
X137864094Y-133070406D01*
X138178571Y-133578406D02*
X138178571Y-133070406D01*
X138178571Y-133070406D02*
X138372095Y-133070406D01*
X138372095Y-133070406D02*
X138420476Y-133094596D01*
X138420476Y-133094596D02*
X138444666Y-133118787D01*
X138444666Y-133118787D02*
X138468857Y-133167168D01*
X138468857Y-133167168D02*
X138468857Y-133239739D01*
X138468857Y-133239739D02*
X138444666Y-133288120D01*
X138444666Y-133288120D02*
X138420476Y-133312311D01*
X138420476Y-133312311D02*
X138372095Y-133336501D01*
X138372095Y-133336501D02*
X138178571Y-133336501D01*
X138638190Y-133070406D02*
X138976857Y-133070406D01*
X138976857Y-133070406D02*
X138759142Y-133578406D01*
X136073428Y-109828406D02*
X135904094Y-109586501D01*
X135783142Y-109828406D02*
X135783142Y-109320406D01*
X135783142Y-109320406D02*
X135976666Y-109320406D01*
X135976666Y-109320406D02*
X136025047Y-109344596D01*
X136025047Y-109344596D02*
X136049237Y-109368787D01*
X136049237Y-109368787D02*
X136073428Y-109417168D01*
X136073428Y-109417168D02*
X136073428Y-109489739D01*
X136073428Y-109489739D02*
X136049237Y-109538120D01*
X136049237Y-109538120D02*
X136025047Y-109562311D01*
X136025047Y-109562311D02*
X135976666Y-109586501D01*
X135976666Y-109586501D02*
X135783142Y-109586501D01*
X136533047Y-109320406D02*
X136291142Y-109320406D01*
X136291142Y-109320406D02*
X136266951Y-109562311D01*
X136266951Y-109562311D02*
X136291142Y-109538120D01*
X136291142Y-109538120D02*
X136339523Y-109513930D01*
X136339523Y-109513930D02*
X136460475Y-109513930D01*
X136460475Y-109513930D02*
X136508856Y-109538120D01*
X136508856Y-109538120D02*
X136533047Y-109562311D01*
X136533047Y-109562311D02*
X136557237Y-109610692D01*
X136557237Y-109610692D02*
X136557237Y-109731644D01*
X136557237Y-109731644D02*
X136533047Y-109780025D01*
X136533047Y-109780025D02*
X136508856Y-109804216D01*
X136508856Y-109804216D02*
X136460475Y-109828406D01*
X136460475Y-109828406D02*
X136339523Y-109828406D01*
X136339523Y-109828406D02*
X136291142Y-109804216D01*
X136291142Y-109804216D02*
X136266951Y-109780025D01*
X137041047Y-109828406D02*
X136750761Y-109828406D01*
X136895904Y-109828406D02*
X136895904Y-109320406D01*
X136895904Y-109320406D02*
X136847523Y-109392977D01*
X136847523Y-109392977D02*
X136799142Y-109441358D01*
X136799142Y-109441358D02*
X136750761Y-109465549D01*
X139801406Y-91482333D02*
X140164263Y-91482333D01*
X140164263Y-91482333D02*
X140236835Y-91506524D01*
X140236835Y-91506524D02*
X140285216Y-91554905D01*
X140285216Y-91554905D02*
X140309406Y-91627476D01*
X140309406Y-91627476D02*
X140309406Y-91675857D01*
X139801406Y-91288809D02*
X139801406Y-90974333D01*
X139801406Y-90974333D02*
X139994930Y-91143666D01*
X139994930Y-91143666D02*
X139994930Y-91071095D01*
X139994930Y-91071095D02*
X140019120Y-91022714D01*
X140019120Y-91022714D02*
X140043311Y-90998523D01*
X140043311Y-90998523D02*
X140091692Y-90974333D01*
X140091692Y-90974333D02*
X140212644Y-90974333D01*
X140212644Y-90974333D02*
X140261025Y-90998523D01*
X140261025Y-90998523D02*
X140285216Y-91022714D01*
X140285216Y-91022714D02*
X140309406Y-91071095D01*
X140309406Y-91071095D02*
X140309406Y-91216238D01*
X140309406Y-91216238D02*
X140285216Y-91264619D01*
X140285216Y-91264619D02*
X140261025Y-91288809D01*
X132816406Y-104212571D02*
X132574501Y-104381905D01*
X132816406Y-104502857D02*
X132308406Y-104502857D01*
X132308406Y-104502857D02*
X132308406Y-104309333D01*
X132308406Y-104309333D02*
X132332596Y-104260952D01*
X132332596Y-104260952D02*
X132356787Y-104236762D01*
X132356787Y-104236762D02*
X132405168Y-104212571D01*
X132405168Y-104212571D02*
X132477739Y-104212571D01*
X132477739Y-104212571D02*
X132526120Y-104236762D01*
X132526120Y-104236762D02*
X132550311Y-104260952D01*
X132550311Y-104260952D02*
X132574501Y-104309333D01*
X132574501Y-104309333D02*
X132574501Y-104502857D01*
X132816406Y-103728762D02*
X132816406Y-104019048D01*
X132816406Y-103873905D02*
X132308406Y-103873905D01*
X132308406Y-103873905D02*
X132380977Y-103922286D01*
X132380977Y-103922286D02*
X132429358Y-103970667D01*
X132429358Y-103970667D02*
X132453549Y-104019048D01*
X132356787Y-103535238D02*
X132332596Y-103511047D01*
X132332596Y-103511047D02*
X132308406Y-103462666D01*
X132308406Y-103462666D02*
X132308406Y-103341714D01*
X132308406Y-103341714D02*
X132332596Y-103293333D01*
X132332596Y-103293333D02*
X132356787Y-103269142D01*
X132356787Y-103269142D02*
X132405168Y-103244952D01*
X132405168Y-103244952D02*
X132453549Y-103244952D01*
X132453549Y-103244952D02*
X132526120Y-103269142D01*
X132526120Y-103269142D02*
X132816406Y-103559428D01*
X132816406Y-103559428D02*
X132816406Y-103244952D01*
X138296951Y-119481406D02*
X138587237Y-119481406D01*
X138442094Y-119989406D02*
X138442094Y-119481406D01*
X138756571Y-119989406D02*
X138756571Y-119481406D01*
X138756571Y-119481406D02*
X138950095Y-119481406D01*
X138950095Y-119481406D02*
X138998476Y-119505596D01*
X138998476Y-119505596D02*
X139022666Y-119529787D01*
X139022666Y-119529787D02*
X139046857Y-119578168D01*
X139046857Y-119578168D02*
X139046857Y-119650739D01*
X139046857Y-119650739D02*
X139022666Y-119699120D01*
X139022666Y-119699120D02*
X138998476Y-119723311D01*
X138998476Y-119723311D02*
X138950095Y-119747501D01*
X138950095Y-119747501D02*
X138756571Y-119747501D01*
X139530666Y-119989406D02*
X139240380Y-119989406D01*
X139385523Y-119989406D02*
X139385523Y-119481406D01*
X139385523Y-119481406D02*
X139337142Y-119553977D01*
X139337142Y-119553977D02*
X139288761Y-119602358D01*
X139288761Y-119602358D02*
X139240380Y-119626549D01*
X113548428Y-115978406D02*
X113379094Y-115736501D01*
X113258142Y-115978406D02*
X113258142Y-115470406D01*
X113258142Y-115470406D02*
X113451666Y-115470406D01*
X113451666Y-115470406D02*
X113500047Y-115494596D01*
X113500047Y-115494596D02*
X113524237Y-115518787D01*
X113524237Y-115518787D02*
X113548428Y-115567168D01*
X113548428Y-115567168D02*
X113548428Y-115639739D01*
X113548428Y-115639739D02*
X113524237Y-115688120D01*
X113524237Y-115688120D02*
X113500047Y-115712311D01*
X113500047Y-115712311D02*
X113451666Y-115736501D01*
X113451666Y-115736501D02*
X113258142Y-115736501D01*
X113983856Y-115639739D02*
X113983856Y-115978406D01*
X113862904Y-115446216D02*
X113741951Y-115809073D01*
X113741951Y-115809073D02*
X114056428Y-115809073D01*
X114225761Y-115518787D02*
X114249952Y-115494596D01*
X114249952Y-115494596D02*
X114298333Y-115470406D01*
X114298333Y-115470406D02*
X114419285Y-115470406D01*
X114419285Y-115470406D02*
X114467666Y-115494596D01*
X114467666Y-115494596D02*
X114491857Y-115518787D01*
X114491857Y-115518787D02*
X114516047Y-115567168D01*
X114516047Y-115567168D02*
X114516047Y-115615549D01*
X114516047Y-115615549D02*
X114491857Y-115688120D01*
X114491857Y-115688120D02*
X114201571Y-115978406D01*
X114201571Y-115978406D02*
X114516047Y-115978406D01*
X126449666Y-65887406D02*
X126449666Y-66250263D01*
X126449666Y-66250263D02*
X126425475Y-66322835D01*
X126425475Y-66322835D02*
X126377094Y-66371216D01*
X126377094Y-66371216D02*
X126304523Y-66395406D01*
X126304523Y-66395406D02*
X126256142Y-66395406D01*
X126691571Y-66395406D02*
X126691571Y-65887406D01*
X126691571Y-65887406D02*
X126885095Y-65887406D01*
X126885095Y-65887406D02*
X126933476Y-65911596D01*
X126933476Y-65911596D02*
X126957666Y-65935787D01*
X126957666Y-65935787D02*
X126981857Y-65984168D01*
X126981857Y-65984168D02*
X126981857Y-66056739D01*
X126981857Y-66056739D02*
X126957666Y-66105120D01*
X126957666Y-66105120D02*
X126933476Y-66129311D01*
X126933476Y-66129311D02*
X126885095Y-66153501D01*
X126885095Y-66153501D02*
X126691571Y-66153501D01*
X127272142Y-66105120D02*
X127223761Y-66080930D01*
X127223761Y-66080930D02*
X127199571Y-66056739D01*
X127199571Y-66056739D02*
X127175380Y-66008358D01*
X127175380Y-66008358D02*
X127175380Y-65984168D01*
X127175380Y-65984168D02*
X127199571Y-65935787D01*
X127199571Y-65935787D02*
X127223761Y-65911596D01*
X127223761Y-65911596D02*
X127272142Y-65887406D01*
X127272142Y-65887406D02*
X127368904Y-65887406D01*
X127368904Y-65887406D02*
X127417285Y-65911596D01*
X127417285Y-65911596D02*
X127441476Y-65935787D01*
X127441476Y-65935787D02*
X127465666Y-65984168D01*
X127465666Y-65984168D02*
X127465666Y-66008358D01*
X127465666Y-66008358D02*
X127441476Y-66056739D01*
X127441476Y-66056739D02*
X127417285Y-66080930D01*
X127417285Y-66080930D02*
X127368904Y-66105120D01*
X127368904Y-66105120D02*
X127272142Y-66105120D01*
X127272142Y-66105120D02*
X127223761Y-66129311D01*
X127223761Y-66129311D02*
X127199571Y-66153501D01*
X127199571Y-66153501D02*
X127175380Y-66201882D01*
X127175380Y-66201882D02*
X127175380Y-66298644D01*
X127175380Y-66298644D02*
X127199571Y-66347025D01*
X127199571Y-66347025D02*
X127223761Y-66371216D01*
X127223761Y-66371216D02*
X127272142Y-66395406D01*
X127272142Y-66395406D02*
X127368904Y-66395406D01*
X127368904Y-66395406D02*
X127417285Y-66371216D01*
X127417285Y-66371216D02*
X127441476Y-66347025D01*
X127441476Y-66347025D02*
X127465666Y-66298644D01*
X127465666Y-66298644D02*
X127465666Y-66201882D01*
X127465666Y-66201882D02*
X127441476Y-66153501D01*
X127441476Y-66153501D02*
X127417285Y-66129311D01*
X127417285Y-66129311D02*
X127368904Y-66105120D01*
X140673428Y-116978406D02*
X140504094Y-116736501D01*
X140383142Y-116978406D02*
X140383142Y-116470406D01*
X140383142Y-116470406D02*
X140576666Y-116470406D01*
X140576666Y-116470406D02*
X140625047Y-116494596D01*
X140625047Y-116494596D02*
X140649237Y-116518787D01*
X140649237Y-116518787D02*
X140673428Y-116567168D01*
X140673428Y-116567168D02*
X140673428Y-116639739D01*
X140673428Y-116639739D02*
X140649237Y-116688120D01*
X140649237Y-116688120D02*
X140625047Y-116712311D01*
X140625047Y-116712311D02*
X140576666Y-116736501D01*
X140576666Y-116736501D02*
X140383142Y-116736501D01*
X141108856Y-116639739D02*
X141108856Y-116978406D01*
X140987904Y-116446216D02*
X140866951Y-116809073D01*
X140866951Y-116809073D02*
X141181428Y-116809073D01*
X141326571Y-116470406D02*
X141641047Y-116470406D01*
X141641047Y-116470406D02*
X141471714Y-116663930D01*
X141471714Y-116663930D02*
X141544285Y-116663930D01*
X141544285Y-116663930D02*
X141592666Y-116688120D01*
X141592666Y-116688120D02*
X141616857Y-116712311D01*
X141616857Y-116712311D02*
X141641047Y-116760692D01*
X141641047Y-116760692D02*
X141641047Y-116881644D01*
X141641047Y-116881644D02*
X141616857Y-116930025D01*
X141616857Y-116930025D02*
X141592666Y-116954216D01*
X141592666Y-116954216D02*
X141544285Y-116978406D01*
X141544285Y-116978406D02*
X141399142Y-116978406D01*
X141399142Y-116978406D02*
X141350761Y-116954216D01*
X141350761Y-116954216D02*
X141326571Y-116930025D01*
X125918951Y-131735406D02*
X126209237Y-131735406D01*
X126064094Y-132243406D02*
X126064094Y-131735406D01*
X126378571Y-132243406D02*
X126378571Y-131735406D01*
X126378571Y-131735406D02*
X126572095Y-131735406D01*
X126572095Y-131735406D02*
X126620476Y-131759596D01*
X126620476Y-131759596D02*
X126644666Y-131783787D01*
X126644666Y-131783787D02*
X126668857Y-131832168D01*
X126668857Y-131832168D02*
X126668857Y-131904739D01*
X126668857Y-131904739D02*
X126644666Y-131953120D01*
X126644666Y-131953120D02*
X126620476Y-131977311D01*
X126620476Y-131977311D02*
X126572095Y-132001501D01*
X126572095Y-132001501D02*
X126378571Y-132001501D01*
X127104285Y-131735406D02*
X127007523Y-131735406D01*
X127007523Y-131735406D02*
X126959142Y-131759596D01*
X126959142Y-131759596D02*
X126934952Y-131783787D01*
X126934952Y-131783787D02*
X126886571Y-131856358D01*
X126886571Y-131856358D02*
X126862380Y-131953120D01*
X126862380Y-131953120D02*
X126862380Y-132146644D01*
X126862380Y-132146644D02*
X126886571Y-132195025D01*
X126886571Y-132195025D02*
X126910761Y-132219216D01*
X126910761Y-132219216D02*
X126959142Y-132243406D01*
X126959142Y-132243406D02*
X127055904Y-132243406D01*
X127055904Y-132243406D02*
X127104285Y-132219216D01*
X127104285Y-132219216D02*
X127128476Y-132195025D01*
X127128476Y-132195025D02*
X127152666Y-132146644D01*
X127152666Y-132146644D02*
X127152666Y-132025692D01*
X127152666Y-132025692D02*
X127128476Y-131977311D01*
X127128476Y-131977311D02*
X127104285Y-131953120D01*
X127104285Y-131953120D02*
X127055904Y-131928930D01*
X127055904Y-131928930D02*
X126959142Y-131928930D01*
X126959142Y-131928930D02*
X126910761Y-131953120D01*
X126910761Y-131953120D02*
X126886571Y-131977311D01*
X126886571Y-131977311D02*
X126862380Y-132025692D01*
X140976047Y-127243406D02*
X140976047Y-126735406D01*
X140976047Y-126735406D02*
X141096999Y-126735406D01*
X141096999Y-126735406D02*
X141169571Y-126759596D01*
X141169571Y-126759596D02*
X141217952Y-126807977D01*
X141217952Y-126807977D02*
X141242142Y-126856358D01*
X141242142Y-126856358D02*
X141266333Y-126953120D01*
X141266333Y-126953120D02*
X141266333Y-127025692D01*
X141266333Y-127025692D02*
X141242142Y-127122454D01*
X141242142Y-127122454D02*
X141217952Y-127170835D01*
X141217952Y-127170835D02*
X141169571Y-127219216D01*
X141169571Y-127219216D02*
X141096999Y-127243406D01*
X141096999Y-127243406D02*
X140976047Y-127243406D01*
X141701761Y-126735406D02*
X141604999Y-126735406D01*
X141604999Y-126735406D02*
X141556618Y-126759596D01*
X141556618Y-126759596D02*
X141532428Y-126783787D01*
X141532428Y-126783787D02*
X141484047Y-126856358D01*
X141484047Y-126856358D02*
X141459856Y-126953120D01*
X141459856Y-126953120D02*
X141459856Y-127146644D01*
X141459856Y-127146644D02*
X141484047Y-127195025D01*
X141484047Y-127195025D02*
X141508237Y-127219216D01*
X141508237Y-127219216D02*
X141556618Y-127243406D01*
X141556618Y-127243406D02*
X141653380Y-127243406D01*
X141653380Y-127243406D02*
X141701761Y-127219216D01*
X141701761Y-127219216D02*
X141725952Y-127195025D01*
X141725952Y-127195025D02*
X141750142Y-127146644D01*
X141750142Y-127146644D02*
X141750142Y-127025692D01*
X141750142Y-127025692D02*
X141725952Y-126977311D01*
X141725952Y-126977311D02*
X141701761Y-126953120D01*
X141701761Y-126953120D02*
X141653380Y-126928930D01*
X141653380Y-126928930D02*
X141556618Y-126928930D01*
X141556618Y-126928930D02*
X141508237Y-126953120D01*
X141508237Y-126953120D02*
X141484047Y-126977311D01*
X141484047Y-126977311D02*
X141459856Y-127025692D01*
X116289666Y-57759406D02*
X116289666Y-58122263D01*
X116289666Y-58122263D02*
X116265475Y-58194835D01*
X116265475Y-58194835D02*
X116217094Y-58243216D01*
X116217094Y-58243216D02*
X116144523Y-58267406D01*
X116144523Y-58267406D02*
X116096142Y-58267406D01*
X116555761Y-58267406D02*
X116652523Y-58267406D01*
X116652523Y-58267406D02*
X116700904Y-58243216D01*
X116700904Y-58243216D02*
X116725095Y-58219025D01*
X116725095Y-58219025D02*
X116773476Y-58146454D01*
X116773476Y-58146454D02*
X116797666Y-58049692D01*
X116797666Y-58049692D02*
X116797666Y-57856168D01*
X116797666Y-57856168D02*
X116773476Y-57807787D01*
X116773476Y-57807787D02*
X116749285Y-57783596D01*
X116749285Y-57783596D02*
X116700904Y-57759406D01*
X116700904Y-57759406D02*
X116604142Y-57759406D01*
X116604142Y-57759406D02*
X116555761Y-57783596D01*
X116555761Y-57783596D02*
X116531571Y-57807787D01*
X116531571Y-57807787D02*
X116507380Y-57856168D01*
X116507380Y-57856168D02*
X116507380Y-57977120D01*
X116507380Y-57977120D02*
X116531571Y-58025501D01*
X116531571Y-58025501D02*
X116555761Y-58049692D01*
X116555761Y-58049692D02*
X116604142Y-58073882D01*
X116604142Y-58073882D02*
X116700904Y-58073882D01*
X116700904Y-58073882D02*
X116749285Y-58049692D01*
X116749285Y-58049692D02*
X116773476Y-58025501D01*
X116773476Y-58025501D02*
X116797666Y-57977120D01*
X123625428Y-86207406D02*
X123456094Y-85965501D01*
X123335142Y-86207406D02*
X123335142Y-85699406D01*
X123335142Y-85699406D02*
X123528666Y-85699406D01*
X123528666Y-85699406D02*
X123577047Y-85723596D01*
X123577047Y-85723596D02*
X123601237Y-85747787D01*
X123601237Y-85747787D02*
X123625428Y-85796168D01*
X123625428Y-85796168D02*
X123625428Y-85868739D01*
X123625428Y-85868739D02*
X123601237Y-85917120D01*
X123601237Y-85917120D02*
X123577047Y-85941311D01*
X123577047Y-85941311D02*
X123528666Y-85965501D01*
X123528666Y-85965501D02*
X123335142Y-85965501D01*
X124109237Y-86207406D02*
X123818951Y-86207406D01*
X123964094Y-86207406D02*
X123964094Y-85699406D01*
X123964094Y-85699406D02*
X123915713Y-85771977D01*
X123915713Y-85771977D02*
X123867332Y-85820358D01*
X123867332Y-85820358D02*
X123818951Y-85844549D01*
X124593047Y-86207406D02*
X124302761Y-86207406D01*
X124447904Y-86207406D02*
X124447904Y-85699406D01*
X124447904Y-85699406D02*
X124399523Y-85771977D01*
X124399523Y-85771977D02*
X124351142Y-85820358D01*
X124351142Y-85820358D02*
X124302761Y-85844549D01*
D12*
%TO.C,R2*%
X127380276Y-74407500D02*
X127889724Y-74407500D01*
X127380276Y-75452500D02*
X127889724Y-75452500D01*
%TO.C,R1*%
X131318724Y-75452500D02*
X130809276Y-75452500D01*
X131318724Y-74407500D02*
X130809276Y-74407500D01*
%TO.C,Q1*%
X130888500Y-73630000D02*
X131538500Y-73630000D01*
X130888500Y-73630000D02*
X130238500Y-73630000D01*
X130888500Y-70510000D02*
X131538500Y-70510000D01*
X130888500Y-70510000D02*
X130238500Y-70510000D01*
X132291000Y-73910000D02*
X131811000Y-73910000D01*
X132051000Y-73580000D01*
X132291000Y-73910000D01*
G36*
X132291000Y-73910000D02*
G01*
X131811000Y-73910000D01*
X132051000Y-73580000D01*
X132291000Y-73910000D01*
G37*
%TO.C,D1*%
X128768000Y-77816000D02*
X128768000Y-76616000D01*
X126808000Y-77816000D02*
X128768000Y-77816000D01*
X126808000Y-76616000D02*
X128768000Y-76616000D01*
%TO.C,D2*%
X129765000Y-59915000D02*
X129765000Y-62200000D01*
X131235000Y-59915000D02*
X129765000Y-59915000D01*
X131235000Y-62200000D02*
X131235000Y-59915000D01*
%TO.C,D3*%
X135428000Y-59310000D02*
X135428000Y-62610000D01*
X135428000Y-59310000D02*
X140938000Y-59310000D01*
X135428000Y-62610000D02*
X140938000Y-62610000D01*
%TO.C,D4*%
X124840000Y-128262500D02*
X124840000Y-130547500D01*
X124840000Y-130547500D02*
X126310000Y-130547500D01*
X126310000Y-130547500D02*
X126310000Y-128262500D01*
%TO.C,J13*%
X116236000Y-139256000D02*
X116236000Y-141756000D01*
X116236000Y-141756000D02*
X118736000Y-141756000D01*
X116536000Y-137436000D02*
X116536000Y-141456000D01*
X116536000Y-139146000D02*
X117036000Y-139146000D01*
X116536000Y-139956000D02*
X117536000Y-139956000D01*
X116536000Y-141456000D02*
X124256000Y-141456000D01*
X117036000Y-137936000D02*
X123756000Y-137936000D01*
X117036000Y-139146000D02*
X117036000Y-137936000D01*
X117536000Y-139956000D02*
X117536000Y-141456000D01*
X123256000Y-139956000D02*
X123256000Y-141456000D01*
X123756000Y-137936000D02*
X123756000Y-139146000D01*
X123756000Y-139146000D02*
X124256000Y-139146000D01*
X124256000Y-137436000D02*
X116536000Y-137436000D01*
X124256000Y-139956000D02*
X123256000Y-139956000D01*
X124256000Y-141456000D02*
X124256000Y-137436000D01*
%TO.C,J11*%
X140890000Y-74559000D02*
X140890000Y-87279000D01*
X140890000Y-87279000D02*
X144910000Y-87279000D01*
X141390000Y-75059000D02*
X142600000Y-75059000D01*
X141390000Y-86779000D02*
X141390000Y-75059000D01*
X142600000Y-75059000D02*
X142600000Y-74559000D01*
X142600000Y-86779000D02*
X141390000Y-86779000D01*
X142600000Y-87279000D02*
X142600000Y-86779000D01*
X142710000Y-87579000D02*
X145210000Y-87579000D01*
X143410000Y-74559000D02*
X143410000Y-75559000D01*
X143410000Y-75559000D02*
X144910000Y-75559000D01*
X143410000Y-86279000D02*
X144910000Y-86279000D01*
X143410000Y-87279000D02*
X143410000Y-86279000D01*
X144910000Y-74559000D02*
X140890000Y-74559000D01*
X144910000Y-87279000D02*
X144910000Y-74559000D01*
X145210000Y-87579000D02*
X145210000Y-85079000D01*
%TO.C,J7*%
X109990000Y-74045000D02*
X109990000Y-76545000D01*
X110290000Y-74345000D02*
X110290000Y-87065000D01*
X110290000Y-87065000D02*
X114310000Y-87065000D01*
X111790000Y-74345000D02*
X111790000Y-75345000D01*
X111790000Y-75345000D02*
X110290000Y-75345000D01*
X111790000Y-86065000D02*
X110290000Y-86065000D01*
X111790000Y-87065000D02*
X111790000Y-86065000D01*
X112490000Y-74045000D02*
X109990000Y-74045000D01*
X112600000Y-74345000D02*
X112600000Y-74845000D01*
X112600000Y-74845000D02*
X113810000Y-74845000D01*
X112600000Y-86565000D02*
X112600000Y-87065000D01*
X113810000Y-74845000D02*
X113810000Y-86565000D01*
X113810000Y-86565000D02*
X112600000Y-86565000D01*
X114310000Y-74345000D02*
X110290000Y-74345000D01*
X114310000Y-87065000D02*
X114310000Y-74345000D01*
%TO.C,R53*%
X121379724Y-110227500D02*
X120870276Y-110227500D01*
X121379724Y-111272500D02*
X120870276Y-111272500D01*
%TO.C,JP2*%
X122477500Y-105854724D02*
X122477500Y-105345276D01*
X123522500Y-105854724D02*
X123522500Y-105345276D01*
%TO.C,R61*%
X122782500Y-129217224D02*
X122782500Y-128707776D01*
X121737500Y-129217224D02*
X121737500Y-128707776D01*
%TO.C,U1*%
X123930000Y-98312500D02*
X123600000Y-98552500D01*
X123600000Y-98072500D01*
X123930000Y-98312500D01*
G36*
X123930000Y-98312500D02*
G01*
X123600000Y-98552500D01*
X123600000Y-98072500D01*
X123930000Y-98312500D01*
G37*
X132735000Y-95612500D02*
X132735000Y-97562500D01*
X132735000Y-95612500D02*
X132735000Y-93662500D01*
X123865000Y-95612500D02*
X123865000Y-97562500D01*
X123865000Y-95612500D02*
X123865000Y-93662500D01*
%TO.C,R45*%
X125279724Y-110627500D02*
X124770276Y-110627500D01*
X125279724Y-111672500D02*
X124770276Y-111672500D01*
%TO.C,C1*%
X122090000Y-93571920D02*
X122090000Y-93853080D01*
X123110000Y-93571920D02*
X123110000Y-93853080D01*
%TO.C,R64*%
X138582500Y-129169724D02*
X138582500Y-128660276D01*
X137537500Y-129169724D02*
X137537500Y-128660276D01*
%TO.C,C14*%
X140004420Y-114040000D02*
X140285580Y-114040000D01*
X140004420Y-115060000D02*
X140285580Y-115060000D01*
%TO.C,J5*%
X145210000Y-105410000D02*
X145210000Y-102910000D01*
X144910000Y-105110000D02*
X144910000Y-97390000D01*
X144910000Y-97390000D02*
X140890000Y-97390000D01*
X143410000Y-105110000D02*
X143410000Y-104110000D01*
X143410000Y-104110000D02*
X144910000Y-104110000D01*
X143410000Y-98390000D02*
X144910000Y-98390000D01*
X143410000Y-97390000D02*
X143410000Y-98390000D01*
X142710000Y-105410000D02*
X145210000Y-105410000D01*
X142600000Y-105110000D02*
X142600000Y-104610000D01*
X142600000Y-104610000D02*
X141390000Y-104610000D01*
X142600000Y-97890000D02*
X142600000Y-97390000D01*
X141390000Y-104610000D02*
X141390000Y-97890000D01*
X141390000Y-97890000D02*
X142600000Y-97890000D01*
X140890000Y-105110000D02*
X144910000Y-105110000D01*
X140890000Y-97390000D02*
X140890000Y-105110000D01*
%TO.C,J8*%
X139181000Y-55262000D02*
X139181000Y-52762000D01*
X139181000Y-52762000D02*
X136681000Y-52762000D01*
X138881000Y-57082000D02*
X138881000Y-53062000D01*
X138881000Y-55372000D02*
X138381000Y-55372000D01*
X138881000Y-54562000D02*
X137881000Y-54562000D01*
X138881000Y-53062000D02*
X131161000Y-53062000D01*
X138381000Y-56582000D02*
X131661000Y-56582000D01*
X138381000Y-55372000D02*
X138381000Y-56582000D01*
X137881000Y-54562000D02*
X137881000Y-53062000D01*
X132161000Y-54562000D02*
X132161000Y-53062000D01*
X131661000Y-56582000D02*
X131661000Y-55372000D01*
X131661000Y-55372000D02*
X131161000Y-55372000D01*
X131161000Y-57082000D02*
X138881000Y-57082000D01*
X131161000Y-54562000D02*
X132161000Y-54562000D01*
X131161000Y-53062000D02*
X131161000Y-57082000D01*
%TO.C,JP7*%
X121077500Y-65920276D02*
X121077500Y-66429724D01*
X122122500Y-65920276D02*
X122122500Y-66429724D01*
%TO.C,JP3*%
X128177500Y-105395276D02*
X128177500Y-105904724D01*
X129222500Y-105395276D02*
X129222500Y-105904724D01*
%TO.C,R13*%
X124077500Y-105345276D02*
X124077500Y-105854724D01*
X125122500Y-105345276D02*
X125122500Y-105854724D01*
%TO.C,JP4*%
X122477500Y-80154724D02*
X122477500Y-79645276D01*
X123522500Y-80154724D02*
X123522500Y-79645276D01*
%TO.C,R32*%
X124777500Y-71320276D02*
X124777500Y-71829724D01*
X125822500Y-71320276D02*
X125822500Y-71829724D01*
%TO.C,C11*%
X122190000Y-97953080D02*
X122190000Y-97671920D01*
X123210000Y-97953080D02*
X123210000Y-97671920D01*
%TO.C,C6*%
X123690000Y-90053080D02*
X123690000Y-89771920D01*
X124710000Y-90053080D02*
X124710000Y-89771920D01*
%TO.C,J2*%
X133910000Y-104230000D02*
X133910000Y-68610000D01*
X136570000Y-68610000D02*
X133910000Y-68610000D01*
X136570000Y-104230000D02*
X133910000Y-104230000D01*
X136570000Y-104230000D02*
X136570000Y-68610000D01*
X136570000Y-105500000D02*
X136570000Y-106830000D01*
X136570000Y-106830000D02*
X135240000Y-106830000D01*
%TO.C,JP5*%
X124077500Y-83045276D02*
X124077500Y-83554724D01*
X125122500Y-83045276D02*
X125122500Y-83554724D01*
%TO.C,C10*%
X125590000Y-101171920D02*
X125590000Y-101453080D01*
X126610000Y-101171920D02*
X126610000Y-101453080D01*
%TO.C,C18*%
X130150000Y-128570580D02*
X130150000Y-128289420D01*
X131170000Y-128570580D02*
X131170000Y-128289420D01*
%TO.C,D7*%
X140395000Y-129815000D02*
X140395000Y-127530000D01*
X140395000Y-127530000D02*
X138925000Y-127530000D01*
X138925000Y-127530000D02*
X138925000Y-129815000D01*
%TO.C,J4*%
X114310000Y-96110000D02*
X114310000Y-88390000D01*
X114310000Y-88390000D02*
X110290000Y-88390000D01*
X113810000Y-95610000D02*
X112600000Y-95610000D01*
X113810000Y-88890000D02*
X113810000Y-95610000D01*
X112600000Y-95610000D02*
X112600000Y-96110000D01*
X112600000Y-88890000D02*
X113810000Y-88890000D01*
X112600000Y-88390000D02*
X112600000Y-88890000D01*
X112490000Y-88090000D02*
X109990000Y-88090000D01*
X111790000Y-96110000D02*
X111790000Y-95110000D01*
X111790000Y-95110000D02*
X110290000Y-95110000D01*
X111790000Y-89390000D02*
X110290000Y-89390000D01*
X111790000Y-88390000D02*
X111790000Y-89390000D01*
X110290000Y-96110000D02*
X114310000Y-96110000D01*
X110290000Y-88390000D02*
X110290000Y-96110000D01*
X109990000Y-88090000D02*
X109990000Y-90590000D01*
%TO.C,C9*%
X128790000Y-101171920D02*
X128790000Y-101453080D01*
X129810000Y-101171920D02*
X129810000Y-101453080D01*
%TO.C,R29*%
X126977500Y-90367224D02*
X126977500Y-89857776D01*
X128022500Y-90367224D02*
X128022500Y-89857776D01*
%TO.C,R56*%
X123537500Y-122560276D02*
X123537500Y-123069724D01*
X124582500Y-122560276D02*
X124582500Y-123069724D01*
%TO.C,C16*%
X134600580Y-119505000D02*
X134319420Y-119505000D01*
X134600580Y-120525000D02*
X134319420Y-120525000D01*
%TO.C,R3*%
X133145276Y-62722500D02*
X133654724Y-62722500D01*
X133145276Y-61677500D02*
X133654724Y-61677500D01*
%TO.C,JP6*%
X122477500Y-83045276D02*
X122477500Y-83554724D01*
X123522500Y-83045276D02*
X123522500Y-83554724D01*
%TO.C,C20*%
X114415000Y-128540580D02*
X114415000Y-128259420D01*
X115435000Y-128540580D02*
X115435000Y-128259420D01*
%TO.C,R39*%
X139990276Y-112427500D02*
X140499724Y-112427500D01*
X139990276Y-113472500D02*
X140499724Y-113472500D01*
%TO.C,R37*%
X133099724Y-110327500D02*
X132590276Y-110327500D01*
X133099724Y-111372500D02*
X132590276Y-111372500D01*
%TO.C,J10*%
X138754000Y-141502000D02*
X138754000Y-137482000D01*
X138754000Y-140002000D02*
X137754000Y-140002000D01*
X138754000Y-137482000D02*
X131034000Y-137482000D01*
X138254000Y-139192000D02*
X138754000Y-139192000D01*
X138254000Y-137982000D02*
X138254000Y-139192000D01*
X137754000Y-140002000D02*
X137754000Y-141502000D01*
X132034000Y-140002000D02*
X132034000Y-141502000D01*
X131534000Y-139192000D02*
X131534000Y-137982000D01*
X131534000Y-137982000D02*
X138254000Y-137982000D01*
X131034000Y-141502000D02*
X138754000Y-141502000D01*
X131034000Y-140002000D02*
X132034000Y-140002000D01*
X131034000Y-139192000D02*
X131534000Y-139192000D01*
X131034000Y-137482000D02*
X131034000Y-141502000D01*
X130734000Y-141802000D02*
X133234000Y-141802000D01*
X130734000Y-139302000D02*
X130734000Y-141802000D01*
%TO.C,U4*%
X122640000Y-65875000D02*
X122640000Y-63925000D01*
X122640000Y-65875000D02*
X122640000Y-67825000D01*
X127760000Y-65875000D02*
X127760000Y-63925000D01*
X127760000Y-65875000D02*
X127760000Y-67825000D01*
X127995000Y-63415000D02*
X127665000Y-63175000D01*
X127995000Y-62935000D01*
X127995000Y-63415000D01*
G36*
X127995000Y-63415000D02*
G01*
X127665000Y-63175000D01*
X127995000Y-62935000D01*
X127995000Y-63415000D01*
G37*
%TO.C,R41*%
X129590276Y-114027500D02*
X130099724Y-114027500D01*
X129590276Y-115072500D02*
X130099724Y-115072500D01*
%TO.C,R22*%
X127177500Y-100857776D02*
X127177500Y-101367224D01*
X128222500Y-100857776D02*
X128222500Y-101367224D01*
%TO.C,R49*%
X140499724Y-109227500D02*
X139990276Y-109227500D01*
X140499724Y-110272500D02*
X139990276Y-110272500D01*
%TO.C,J12*%
X114310000Y-72968000D02*
X114310000Y-65248000D01*
X114310000Y-65248000D02*
X110290000Y-65248000D01*
X113810000Y-72468000D02*
X112600000Y-72468000D01*
X113810000Y-65748000D02*
X113810000Y-72468000D01*
X112600000Y-72468000D02*
X112600000Y-72968000D01*
X112600000Y-65748000D02*
X113810000Y-65748000D01*
X112600000Y-65248000D02*
X112600000Y-65748000D01*
X112490000Y-64948000D02*
X109990000Y-64948000D01*
X111790000Y-72968000D02*
X111790000Y-71968000D01*
X111790000Y-71968000D02*
X110290000Y-71968000D01*
X111790000Y-66248000D02*
X110290000Y-66248000D01*
X111790000Y-65248000D02*
X111790000Y-66248000D01*
X110290000Y-72968000D02*
X114310000Y-72968000D01*
X110290000Y-65248000D02*
X110290000Y-72968000D01*
X109990000Y-64948000D02*
X109990000Y-67448000D01*
%TO.C,J6*%
X114310000Y-105110000D02*
X114310000Y-97390000D01*
X114310000Y-97390000D02*
X110290000Y-97390000D01*
X113810000Y-104610000D02*
X112600000Y-104610000D01*
X113810000Y-97890000D02*
X113810000Y-104610000D01*
X112600000Y-104610000D02*
X112600000Y-105110000D01*
X112600000Y-97890000D02*
X113810000Y-97890000D01*
X112600000Y-97390000D02*
X112600000Y-97890000D01*
X112490000Y-97090000D02*
X109990000Y-97090000D01*
X111790000Y-105110000D02*
X111790000Y-104110000D01*
X111790000Y-104110000D02*
X110290000Y-104110000D01*
X111790000Y-98390000D02*
X110290000Y-98390000D01*
X111790000Y-97390000D02*
X111790000Y-98390000D01*
X110290000Y-105110000D02*
X114310000Y-105110000D01*
X110290000Y-97390000D02*
X110290000Y-105110000D01*
X109990000Y-97090000D02*
X109990000Y-99590000D01*
%TO.C,R40*%
X124770276Y-112227500D02*
X125279724Y-112227500D01*
X124770276Y-113272500D02*
X125279724Y-113272500D01*
%TO.C,R34*%
X123177500Y-71320276D02*
X123177500Y-71829724D01*
X124222500Y-71320276D02*
X124222500Y-71829724D01*
%TO.C,R55*%
X139037500Y-123060276D02*
X139037500Y-123569724D01*
X140082500Y-123060276D02*
X140082500Y-123569724D01*
%TO.C,R46*%
X114502500Y-111904724D02*
X114502500Y-111395276D01*
X115547500Y-111904724D02*
X115547500Y-111395276D01*
%TO.C,U6*%
X121380000Y-125265000D02*
X121050000Y-125025000D01*
X121380000Y-124785000D01*
X121380000Y-125265000D01*
G36*
X121380000Y-125265000D02*
G01*
X121050000Y-125025000D01*
X121380000Y-124785000D01*
X121380000Y-125265000D01*
G37*
D13*
X121150000Y-125625000D02*
X121150000Y-129775000D01*
X116000000Y-125625000D02*
X116000000Y-129775000D01*
D12*
%TO.C,R9*%
X122077500Y-90667224D02*
X122077500Y-90157776D01*
X123122500Y-90667224D02*
X123122500Y-90157776D01*
%TO.C,R44*%
X129722500Y-112004724D02*
X129722500Y-111495276D01*
X130767500Y-112004724D02*
X130767500Y-111495276D01*
%TO.C,TP3*%
X121275000Y-119450000D02*
X122675000Y-119450000D01*
X121275000Y-120850000D02*
X121275000Y-119450000D01*
X122675000Y-119450000D02*
X122675000Y-120850000D01*
X122675000Y-120850000D02*
X121275000Y-120850000D01*
%TO.C,F1*%
X137886252Y-66810000D02*
X135113748Y-66810000D01*
X137886252Y-63390000D02*
X135113748Y-63390000D01*
%TO.C,C13*%
X126390000Y-60415580D02*
X126390000Y-60134420D01*
X127410000Y-60415580D02*
X127410000Y-60134420D01*
%TO.C,J1*%
X118670000Y-68670000D02*
X120000000Y-68670000D01*
X118670000Y-70000000D02*
X118670000Y-68670000D01*
X118670000Y-71270000D02*
X118670000Y-106890000D01*
X118670000Y-71270000D02*
X121330000Y-71270000D01*
X118670000Y-106890000D02*
X121330000Y-106890000D01*
X121330000Y-71270000D02*
X121330000Y-106890000D01*
%TO.C,R38*%
X117879724Y-110227500D02*
X117370276Y-110227500D01*
X117879724Y-111272500D02*
X117370276Y-111272500D01*
%TO.C,TP5*%
X139660000Y-131015000D02*
X141060000Y-131015000D01*
X139660000Y-132415000D02*
X139660000Y-131015000D01*
X141060000Y-131015000D02*
X141060000Y-132415000D01*
X141060000Y-132415000D02*
X139660000Y-132415000D01*
%TO.C,Q2*%
X133340000Y-64140000D02*
X133010000Y-63900000D01*
X133340000Y-63660000D01*
X133340000Y-64140000D01*
G36*
X133340000Y-64140000D02*
G01*
X133010000Y-63900000D01*
X133340000Y-63660000D01*
X133340000Y-64140000D01*
G37*
X133060000Y-65062500D02*
X133060000Y-65712500D01*
X133060000Y-65062500D02*
X133060000Y-64412500D01*
X129940000Y-65062500D02*
X129940000Y-65712500D01*
X129940000Y-65062500D02*
X129940000Y-64412500D01*
%TO.C,R17*%
X123977500Y-100857776D02*
X123977500Y-101367224D01*
X125022500Y-100857776D02*
X125022500Y-101367224D01*
%TO.C,R36*%
X117025000Y-118850000D02*
X121195000Y-118850000D01*
X117855000Y-115450000D02*
X122055000Y-115450000D01*
%TO.C,R35*%
X132160000Y-119015000D02*
X136330000Y-119015000D01*
X132990000Y-115615000D02*
X137190000Y-115615000D01*
%TO.C,IC2*%
X119625000Y-111740000D02*
X118125000Y-111740000D01*
X119625000Y-111740000D02*
X121125000Y-111740000D01*
X119625000Y-114960000D02*
X118125000Y-114960000D01*
X119625000Y-114960000D02*
X121125000Y-114960000D01*
X122077500Y-115090000D02*
X121597500Y-115090000D01*
X121837500Y-114760000D01*
X122077500Y-115090000D01*
G36*
X122077500Y-115090000D02*
G01*
X121597500Y-115090000D01*
X121837500Y-114760000D01*
X122077500Y-115090000D01*
G37*
%TO.C,R63*%
X118702500Y-133954724D02*
X118702500Y-133445276D01*
X119747500Y-133954724D02*
X119747500Y-133445276D01*
%TO.C,TP2*%
X131145000Y-119650000D02*
X132545000Y-119650000D01*
X131145000Y-121050000D02*
X131145000Y-119650000D01*
X132545000Y-119650000D02*
X132545000Y-121050000D01*
X132545000Y-121050000D02*
X131145000Y-121050000D01*
%TO.C,U5*%
X137165000Y-125230000D02*
X136835000Y-124990000D01*
X137165000Y-124750000D01*
X137165000Y-125230000D01*
G36*
X137165000Y-125230000D02*
G01*
X136835000Y-124990000D01*
X137165000Y-124750000D01*
X137165000Y-125230000D01*
G37*
D13*
X136935000Y-125590000D02*
X136935000Y-129740000D01*
X131785000Y-125590000D02*
X131785000Y-129740000D01*
D12*
%TO.C,C12*%
X126390000Y-71334420D02*
X126390000Y-71615580D01*
X127410000Y-71334420D02*
X127410000Y-71615580D01*
%TO.C,R52*%
X128177500Y-111495276D02*
X128177500Y-112004724D01*
X129222500Y-111495276D02*
X129222500Y-112004724D01*
%TO.C,R4*%
X133145276Y-61122500D02*
X133654724Y-61122500D01*
X133145276Y-60077500D02*
X133654724Y-60077500D01*
%TO.C,R27*%
X130377500Y-100857776D02*
X130377500Y-101367224D01*
X131422500Y-100857776D02*
X131422500Y-101367224D01*
%TO.C,TP8*%
X121860000Y-131115000D02*
X123260000Y-131115000D01*
X121860000Y-132515000D02*
X121860000Y-131115000D01*
X123260000Y-131115000D02*
X123260000Y-132515000D01*
X123260000Y-132515000D02*
X121860000Y-132515000D01*
%TO.C,C17*%
X119465580Y-119340000D02*
X119184420Y-119340000D01*
X119465580Y-120360000D02*
X119184420Y-120360000D01*
%TO.C,R28*%
X130177500Y-90267224D02*
X130177500Y-89757776D01*
X131222500Y-90267224D02*
X131222500Y-89757776D01*
%TO.C,R30*%
X125277500Y-90367224D02*
X125277500Y-89857776D01*
X126322500Y-90367224D02*
X126322500Y-89857776D01*
%TO.C,C15*%
X124784420Y-113840000D02*
X125065580Y-113840000D01*
X124784420Y-114860000D02*
X125065580Y-114860000D01*
%TO.C,TP4*%
X115975000Y-119450000D02*
X117375000Y-119450000D01*
X115975000Y-120850000D02*
X115975000Y-119450000D01*
X117375000Y-119450000D02*
X117375000Y-120850000D01*
X117375000Y-120850000D02*
X115975000Y-120850000D01*
%TO.C,C19*%
X129725000Y-131493748D02*
X129725000Y-132016252D01*
X131195000Y-131493748D02*
X131195000Y-132016252D01*
%TO.C,JP1*%
X125677500Y-105345276D02*
X125677500Y-105854724D01*
X126722500Y-105345276D02*
X126722500Y-105854724D01*
%TO.C,R58*%
X125137500Y-122560276D02*
X125137500Y-123069724D01*
X126182500Y-122560276D02*
X126182500Y-123069724D01*
%TO.C,R54*%
X112802500Y-111395276D02*
X112802500Y-111904724D01*
X113847500Y-111395276D02*
X113847500Y-111904724D01*
%TO.C,C21*%
X113990000Y-131438748D02*
X113990000Y-131961252D01*
X115460000Y-131438748D02*
X115460000Y-131961252D01*
%TO.C,R33*%
X123177500Y-59920276D02*
X123177500Y-60429724D01*
X124222500Y-59920276D02*
X124222500Y-60429724D01*
%TO.C,D5*%
X124595000Y-129862500D02*
X124595000Y-127577500D01*
X124595000Y-127577500D02*
X123125000Y-127577500D01*
X123125000Y-127577500D02*
X123125000Y-129862500D01*
%TO.C,IC1*%
X134860000Y-111905000D02*
X133360000Y-111905000D01*
X134860000Y-111905000D02*
X136360000Y-111905000D01*
X134860000Y-115125000D02*
X133360000Y-115125000D01*
X134860000Y-115125000D02*
X136360000Y-115125000D01*
X137312500Y-115255000D02*
X136832500Y-115255000D01*
X137072500Y-114925000D01*
X137312500Y-115255000D01*
G36*
X137312500Y-115255000D02*
G01*
X136832500Y-115255000D01*
X137072500Y-114925000D01*
X137312500Y-115255000D01*
G37*
%TO.C,R62*%
X134437500Y-133869724D02*
X134437500Y-133360276D01*
X135482500Y-133869724D02*
X135482500Y-133360276D01*
%TO.C,R31*%
X124777500Y-59920276D02*
X124777500Y-60429724D01*
X125822500Y-59920276D02*
X125822500Y-60429724D01*
%TO.C,C8*%
X131790000Y-90053080D02*
X131790000Y-89771920D01*
X132810000Y-90053080D02*
X132810000Y-89771920D01*
%TO.C,R14*%
X122177500Y-101367224D02*
X122177500Y-100857776D01*
X123222500Y-101367224D02*
X123222500Y-100857776D01*
%TO.C,R57*%
X140637500Y-123060276D02*
X140637500Y-123569724D01*
X141682500Y-123060276D02*
X141682500Y-123569724D01*
%TO.C,R50*%
X125279724Y-109027500D02*
X124770276Y-109027500D01*
X125279724Y-110072500D02*
X124770276Y-110072500D01*
%TO.C,R10*%
X126445276Y-86727500D02*
X126954724Y-86727500D01*
X126445276Y-87772500D02*
X126954724Y-87772500D01*
%TO.C,TP7*%
X137560000Y-131015000D02*
X138960000Y-131015000D01*
X137560000Y-132415000D02*
X137560000Y-131015000D01*
X138960000Y-131015000D02*
X138960000Y-132415000D01*
X138960000Y-132415000D02*
X137560000Y-132415000D01*
%TO.C,R51*%
X136599724Y-110327500D02*
X136090276Y-110327500D01*
X136599724Y-111372500D02*
X136090276Y-111372500D01*
%TO.C,J3*%
X145210000Y-96410000D02*
X145210000Y-93910000D01*
X144910000Y-96110000D02*
X144910000Y-88390000D01*
X144910000Y-88390000D02*
X140890000Y-88390000D01*
X143410000Y-96110000D02*
X143410000Y-95110000D01*
X143410000Y-95110000D02*
X144910000Y-95110000D01*
X143410000Y-89390000D02*
X144910000Y-89390000D01*
X143410000Y-88390000D02*
X143410000Y-89390000D01*
X142710000Y-96410000D02*
X145210000Y-96410000D01*
X142600000Y-96110000D02*
X142600000Y-95610000D01*
X142600000Y-95610000D02*
X141390000Y-95610000D01*
X142600000Y-88890000D02*
X142600000Y-88390000D01*
X141390000Y-95610000D02*
X141390000Y-88890000D01*
X141390000Y-88890000D02*
X142600000Y-88890000D01*
X140890000Y-96110000D02*
X144910000Y-96110000D01*
X140890000Y-88390000D02*
X140890000Y-96110000D01*
%TO.C,R12*%
X132077500Y-101367224D02*
X132077500Y-100857776D01*
X133122500Y-101367224D02*
X133122500Y-100857776D01*
%TO.C,C7*%
X128590000Y-90053080D02*
X128590000Y-89771920D01*
X129610000Y-90053080D02*
X129610000Y-89771920D01*
%TO.C,TP1*%
X136345000Y-119650000D02*
X137745000Y-119650000D01*
X136345000Y-121050000D02*
X136345000Y-119650000D01*
X137745000Y-119650000D02*
X137745000Y-121050000D01*
X137745000Y-121050000D02*
X136345000Y-121050000D01*
%TO.C,R42*%
X114370276Y-113827500D02*
X114879724Y-113827500D01*
X114370276Y-114872500D02*
X114879724Y-114872500D01*
%TO.C,JP8*%
X128277500Y-65820276D02*
X128277500Y-66329724D01*
X129322500Y-65820276D02*
X129322500Y-66329724D01*
%TO.C,R43*%
X140499724Y-110827500D02*
X139990276Y-110827500D01*
X140499724Y-111872500D02*
X139990276Y-111872500D01*
%TO.C,TP6*%
X123960000Y-131115000D02*
X125360000Y-131115000D01*
X123960000Y-132515000D02*
X123960000Y-131115000D01*
X125360000Y-131115000D02*
X125360000Y-132515000D01*
X125360000Y-132515000D02*
X123960000Y-132515000D01*
%TO.C,D6*%
X142095000Y-130500000D02*
X142095000Y-128215000D01*
X140625000Y-130500000D02*
X142095000Y-130500000D01*
X140625000Y-128215000D02*
X140625000Y-130500000D01*
%TO.C,J9*%
X129402000Y-55262000D02*
X129402000Y-52762000D01*
X129402000Y-52762000D02*
X126902000Y-52762000D01*
X129102000Y-57082000D02*
X129102000Y-53062000D01*
X129102000Y-55372000D02*
X128602000Y-55372000D01*
X129102000Y-54562000D02*
X128102000Y-54562000D01*
X129102000Y-53062000D02*
X116382000Y-53062000D01*
X128602000Y-56582000D02*
X116882000Y-56582000D01*
X128602000Y-55372000D02*
X128602000Y-56582000D01*
X128102000Y-54562000D02*
X128102000Y-53062000D01*
X117382000Y-54562000D02*
X117382000Y-53062000D01*
X116882000Y-56582000D02*
X116882000Y-55372000D01*
X116882000Y-55372000D02*
X116382000Y-55372000D01*
X116382000Y-57082000D02*
X129102000Y-57082000D01*
X116382000Y-54562000D02*
X117382000Y-54562000D01*
X116382000Y-53062000D02*
X116382000Y-57082000D01*
%TO.C,R11*%
X126445276Y-85177500D02*
X126954724Y-85177500D01*
X126445276Y-86222500D02*
X126954724Y-86222500D01*
%TD*%
M02*
