%TF.GenerationSoftware,KiCad,Pcbnew,8.0.1*%
%TF.CreationDate,2024-06-19T16:46:37+02:00*%
%TF.ProjectId,MotorShield,4d6f746f-7253-4686-9965-6c642e6b6963,V_1*%
%TF.SameCoordinates,Original*%
%TF.FileFunction,Legend,Bot*%
%TF.FilePolarity,Positive*%
%FSLAX46Y46*%
G04 Gerber Fmt 4.6, Leading zero omitted, Abs format (unit mm)*
G04 Created by KiCad (PCBNEW 8.0.1) date 2024-06-19 16:46:37*
%MOMM*%
%LPD*%
G01*
G04 APERTURE LIST*
%ADD10C,0.300000*%
%ADD11C,0.127000*%
%ADD12C,0.150000*%
%ADD13C,0.000000*%
%ADD14C,0.120000*%
G04 APERTURE END LIST*
D10*
G36*
X132101252Y-134204590D02*
G01*
X132101252Y-134490460D01*
X133132690Y-134490460D01*
X133120128Y-134414618D01*
X133099190Y-134340825D01*
X133069877Y-134269078D01*
X133032189Y-134199379D01*
X132987729Y-134134832D01*
X132937173Y-134072673D01*
X132886266Y-134016056D01*
X132827381Y-133955058D01*
X132760516Y-133889681D01*
X132701280Y-133834225D01*
X132642811Y-133779661D01*
X132582580Y-133721838D01*
X132526005Y-133664930D01*
X132474937Y-133608461D01*
X132457100Y-133585206D01*
X132420127Y-133517681D01*
X132399330Y-133445239D01*
X132396427Y-133406537D01*
X132406544Y-133329825D01*
X132442883Y-133263266D01*
X132449283Y-133256530D01*
X132516788Y-133215578D01*
X132595196Y-133204046D01*
X132673396Y-133216151D01*
X132738419Y-133255746D01*
X132741853Y-133259136D01*
X132782741Y-133326812D01*
X132800966Y-133404038D01*
X132804759Y-133442271D01*
X133098073Y-133413237D01*
X133087195Y-133337969D01*
X133066921Y-133256835D01*
X133038768Y-133185725D01*
X132995967Y-133115433D01*
X132942443Y-133058785D01*
X132933921Y-133051806D01*
X132870046Y-133009020D01*
X132799581Y-132976742D01*
X132722526Y-132954974D01*
X132638880Y-132943715D01*
X132588123Y-132941999D01*
X132506392Y-132946291D01*
X132431492Y-132959168D01*
X132352742Y-132985040D01*
X132283289Y-133022598D01*
X132231159Y-133064089D01*
X132180541Y-133120208D01*
X132137915Y-133191368D01*
X132111527Y-133270018D01*
X132101759Y-133344982D01*
X132101252Y-133367453D01*
X132106486Y-133443422D01*
X132122189Y-133516669D01*
X132138474Y-133563989D01*
X132172463Y-133635090D01*
X132214288Y-133702565D01*
X132256098Y-133759407D01*
X132308337Y-133818591D01*
X132363318Y-133873972D01*
X132423561Y-133931108D01*
X132448911Y-133954454D01*
X132504936Y-134005924D01*
X132562626Y-134060166D01*
X132617470Y-134114812D01*
X132625346Y-134123445D01*
X132671546Y-134182219D01*
X132685647Y-134204590D01*
X132101252Y-134204590D01*
G37*
G36*
X131478049Y-132945843D02*
G01*
X131552448Y-132960604D01*
X131630514Y-132991818D01*
X131699175Y-133038100D01*
X131758431Y-133099451D01*
X131801861Y-133165183D01*
X131837929Y-133242801D01*
X131861484Y-133313454D01*
X131880328Y-133391715D01*
X131894461Y-133477583D01*
X131903883Y-133571058D01*
X131907858Y-133646157D01*
X131909183Y-133725535D01*
X131909049Y-133752978D01*
X131907043Y-133832137D01*
X131900622Y-133930282D01*
X131889920Y-134019972D01*
X131874938Y-134101204D01*
X131850191Y-134190853D01*
X131818755Y-134267288D01*
X131772204Y-134341569D01*
X131754696Y-134362484D01*
X131698108Y-134417131D01*
X131635421Y-134459635D01*
X131566636Y-134489994D01*
X131491753Y-134508210D01*
X131410772Y-134514282D01*
X131343603Y-134510438D01*
X131269309Y-134495677D01*
X131191332Y-134464463D01*
X131122724Y-134418181D01*
X131063485Y-134356830D01*
X131020056Y-134291044D01*
X130983987Y-134213262D01*
X130960432Y-134142399D01*
X130941589Y-134063859D01*
X130927456Y-133977642D01*
X130918034Y-133883748D01*
X130914059Y-133808290D01*
X130912734Y-133728513D01*
X131220192Y-133728513D01*
X131220669Y-133791733D01*
X131223173Y-133877621D01*
X131227823Y-133952779D01*
X131235960Y-134026901D01*
X131250715Y-134100739D01*
X131270466Y-134157340D01*
X131315482Y-134219107D01*
X131337211Y-134233600D01*
X131410772Y-134252235D01*
X131436665Y-134250211D01*
X131505690Y-134219851D01*
X131547696Y-134162390D01*
X131574179Y-134089200D01*
X131583414Y-134046578D01*
X131592754Y-133971796D01*
X131598141Y-133889529D01*
X131600689Y-133806511D01*
X131601352Y-133728513D01*
X131600875Y-133665362D01*
X131598371Y-133579491D01*
X131593721Y-133504246D01*
X131585584Y-133429891D01*
X131570829Y-133355542D01*
X131551078Y-133298940D01*
X131506062Y-133237174D01*
X131484333Y-133222681D01*
X131410772Y-133204046D01*
X131384903Y-133206117D01*
X131316227Y-133237174D01*
X131273920Y-133295054D01*
X131247365Y-133368570D01*
X131238131Y-133411052D01*
X131228790Y-133485648D01*
X131223403Y-133567752D01*
X131220856Y-133650631D01*
X131220192Y-133728513D01*
X130912734Y-133728513D01*
X130913318Y-133674767D01*
X130916387Y-133597790D01*
X130924570Y-133501953D01*
X130937429Y-133413887D01*
X130954965Y-133333591D01*
X130983460Y-133244148D01*
X131019261Y-133166845D01*
X131062369Y-133101684D01*
X131112951Y-133047416D01*
X131180563Y-132998294D01*
X131257438Y-132964455D01*
X131330703Y-132947613D01*
X131410772Y-132941999D01*
X131478049Y-132945843D01*
G37*
G36*
X129727938Y-134204590D02*
G01*
X129727938Y-134490460D01*
X130759377Y-134490460D01*
X130746814Y-134414618D01*
X130725876Y-134340825D01*
X130696563Y-134269078D01*
X130658876Y-134199379D01*
X130614415Y-134134832D01*
X130563859Y-134072673D01*
X130512953Y-134016056D01*
X130454067Y-133955058D01*
X130387203Y-133889681D01*
X130327967Y-133834225D01*
X130269497Y-133779661D01*
X130209266Y-133721838D01*
X130152692Y-133664930D01*
X130101623Y-133608461D01*
X130083786Y-133585206D01*
X130046814Y-133517681D01*
X130026017Y-133445239D01*
X130023113Y-133406537D01*
X130033230Y-133329825D01*
X130069569Y-133263266D01*
X130075969Y-133256530D01*
X130143475Y-133215578D01*
X130221882Y-133204046D01*
X130300082Y-133216151D01*
X130365106Y-133255746D01*
X130368539Y-133259136D01*
X130409428Y-133326812D01*
X130427652Y-133404038D01*
X130431445Y-133442271D01*
X130724760Y-133413237D01*
X130713882Y-133337969D01*
X130693607Y-133256835D01*
X130665455Y-133185725D01*
X130622653Y-133115433D01*
X130569129Y-133058785D01*
X130560608Y-133051806D01*
X130496733Y-133009020D01*
X130426268Y-132976742D01*
X130349212Y-132954974D01*
X130265566Y-132943715D01*
X130214810Y-132941999D01*
X130133079Y-132946291D01*
X130058178Y-132959168D01*
X129979428Y-132985040D01*
X129909976Y-133022598D01*
X129857845Y-133064089D01*
X129807227Y-133120208D01*
X129764601Y-133191368D01*
X129738214Y-133270018D01*
X129728445Y-133344982D01*
X129727938Y-133367453D01*
X129733172Y-133443422D01*
X129748876Y-133516669D01*
X129765161Y-133563989D01*
X129799150Y-133635090D01*
X129840974Y-133702565D01*
X129882784Y-133759407D01*
X129935024Y-133818591D01*
X129990005Y-133873972D01*
X130050247Y-133931108D01*
X130075597Y-133954454D01*
X130131622Y-134005924D01*
X130189312Y-134060166D01*
X130244157Y-134114812D01*
X130252032Y-134123445D01*
X130298233Y-134182219D01*
X130312333Y-134204590D01*
X129727938Y-134204590D01*
G37*
G36*
X129586120Y-133919837D02*
G01*
X129586120Y-134180767D01*
X128958174Y-134180767D01*
X128958174Y-134490460D01*
X128673422Y-134490460D01*
X128673422Y-134180767D01*
X128482842Y-134180767D01*
X128482842Y-133918720D01*
X128673422Y-133918720D01*
X128673422Y-133413982D01*
X128958174Y-133413982D01*
X128958174Y-133918720D01*
X129310673Y-133918720D01*
X128958174Y-133413982D01*
X128673422Y-133413982D01*
X128673422Y-132965821D01*
X128920207Y-132965821D01*
X129586120Y-133919837D01*
G37*
G36*
X128442269Y-134490460D02*
G01*
X128062226Y-132941999D01*
X127841496Y-132941999D01*
X128225634Y-134490460D01*
X128442269Y-134490460D01*
G37*
G36*
X126762040Y-134204590D02*
G01*
X126762040Y-134490460D01*
X127793479Y-134490460D01*
X127780916Y-134414618D01*
X127759979Y-134340825D01*
X127730666Y-134269078D01*
X127692978Y-134199379D01*
X127648518Y-134134832D01*
X127597962Y-134072673D01*
X127547055Y-134016056D01*
X127488170Y-133955058D01*
X127421305Y-133889681D01*
X127362069Y-133834225D01*
X127303600Y-133779661D01*
X127243369Y-133721838D01*
X127186794Y-133664930D01*
X127135726Y-133608461D01*
X127117889Y-133585206D01*
X127080916Y-133517681D01*
X127060119Y-133445239D01*
X127057216Y-133406537D01*
X127067333Y-133329825D01*
X127103671Y-133263266D01*
X127110072Y-133256530D01*
X127177577Y-133215578D01*
X127255985Y-133204046D01*
X127334185Y-133216151D01*
X127399208Y-133255746D01*
X127402642Y-133259136D01*
X127443530Y-133326812D01*
X127461755Y-133404038D01*
X127465548Y-133442271D01*
X127758862Y-133413237D01*
X127747984Y-133337969D01*
X127727709Y-133256835D01*
X127699557Y-133185725D01*
X127656756Y-133115433D01*
X127603232Y-133058785D01*
X127594710Y-133051806D01*
X127530835Y-133009020D01*
X127460370Y-132976742D01*
X127383315Y-132954974D01*
X127299669Y-132943715D01*
X127248912Y-132941999D01*
X127167181Y-132946291D01*
X127092281Y-132959168D01*
X127013530Y-132985040D01*
X126944078Y-133022598D01*
X126891947Y-133064089D01*
X126841329Y-133120208D01*
X126798704Y-133191368D01*
X126772316Y-133270018D01*
X126762548Y-133344982D01*
X126762040Y-133367453D01*
X126767275Y-133443422D01*
X126782978Y-133516669D01*
X126799263Y-133563989D01*
X126833252Y-133635090D01*
X126875077Y-133702565D01*
X126916887Y-133759407D01*
X126969126Y-133818591D01*
X127024107Y-133873972D01*
X127084350Y-133931108D01*
X127109700Y-133954454D01*
X127165725Y-134005924D01*
X127223415Y-134060166D01*
X127278259Y-134114812D01*
X127286135Y-134123445D01*
X127332335Y-134182219D01*
X127346435Y-134204590D01*
X126762040Y-134204590D01*
G37*
G36*
X126138838Y-132945843D02*
G01*
X126213237Y-132960604D01*
X126291302Y-132991818D01*
X126359964Y-133038100D01*
X126419220Y-133099451D01*
X126462650Y-133165183D01*
X126498718Y-133242801D01*
X126522273Y-133313454D01*
X126541117Y-133391715D01*
X126555250Y-133477583D01*
X126564672Y-133571058D01*
X126568647Y-133646157D01*
X126569972Y-133725535D01*
X126569838Y-133752978D01*
X126567832Y-133832137D01*
X126561411Y-133930282D01*
X126550709Y-134019972D01*
X126535727Y-134101204D01*
X126510980Y-134190853D01*
X126479544Y-134267288D01*
X126432993Y-134341569D01*
X126415485Y-134362484D01*
X126358896Y-134417131D01*
X126296210Y-134459635D01*
X126227425Y-134489994D01*
X126152542Y-134508210D01*
X126071561Y-134514282D01*
X126004391Y-134510438D01*
X125930097Y-134495677D01*
X125852121Y-134464463D01*
X125783513Y-134418181D01*
X125724274Y-134356830D01*
X125680845Y-134291044D01*
X125644776Y-134213262D01*
X125621221Y-134142399D01*
X125602377Y-134063859D01*
X125588244Y-133977642D01*
X125578822Y-133883748D01*
X125574848Y-133808290D01*
X125573523Y-133728513D01*
X125880981Y-133728513D01*
X125881458Y-133791733D01*
X125883962Y-133877621D01*
X125888612Y-133952779D01*
X125896749Y-134026901D01*
X125911504Y-134100739D01*
X125931255Y-134157340D01*
X125976271Y-134219107D01*
X125998000Y-134233600D01*
X126071561Y-134252235D01*
X126097454Y-134250211D01*
X126166479Y-134219851D01*
X126208485Y-134162390D01*
X126234968Y-134089200D01*
X126244203Y-134046578D01*
X126253543Y-133971796D01*
X126258930Y-133889529D01*
X126261477Y-133806511D01*
X126262141Y-133728513D01*
X126261664Y-133665362D01*
X126259160Y-133579491D01*
X126254510Y-133504246D01*
X126246373Y-133429891D01*
X126231618Y-133355542D01*
X126211867Y-133298940D01*
X126166851Y-133237174D01*
X126145122Y-133222681D01*
X126071561Y-133204046D01*
X126045691Y-133206117D01*
X125977016Y-133237174D01*
X125934708Y-133295054D01*
X125908154Y-133368570D01*
X125898919Y-133411052D01*
X125889579Y-133485648D01*
X125884192Y-133567752D01*
X125881645Y-133650631D01*
X125880981Y-133728513D01*
X125573523Y-133728513D01*
X125574107Y-133674767D01*
X125577176Y-133597790D01*
X125585359Y-133501953D01*
X125598218Y-133413887D01*
X125615753Y-133333591D01*
X125644248Y-133244148D01*
X125680050Y-133166845D01*
X125723157Y-133101684D01*
X125773739Y-133047416D01*
X125841352Y-132998294D01*
X125918227Y-132964455D01*
X125991492Y-132947613D01*
X126071561Y-132941999D01*
X126138838Y-132945843D01*
G37*
G36*
X124388727Y-134204590D02*
G01*
X124388727Y-134490460D01*
X125420165Y-134490460D01*
X125407603Y-134414618D01*
X125386665Y-134340825D01*
X125357352Y-134269078D01*
X125319664Y-134199379D01*
X125275204Y-134134832D01*
X125224648Y-134072673D01*
X125173742Y-134016056D01*
X125114856Y-133955058D01*
X125047992Y-133889681D01*
X124988755Y-133834225D01*
X124930286Y-133779661D01*
X124870055Y-133721838D01*
X124813480Y-133664930D01*
X124762412Y-133608461D01*
X124744575Y-133585206D01*
X124707603Y-133517681D01*
X124686805Y-133445239D01*
X124683902Y-133406537D01*
X124694019Y-133329825D01*
X124730358Y-133263266D01*
X124736758Y-133256530D01*
X124804264Y-133215578D01*
X124882671Y-133204046D01*
X124960871Y-133216151D01*
X125025894Y-133255746D01*
X125029328Y-133259136D01*
X125070217Y-133326812D01*
X125088441Y-133404038D01*
X125092234Y-133442271D01*
X125385548Y-133413237D01*
X125374671Y-133337969D01*
X125354396Y-133256835D01*
X125326243Y-133185725D01*
X125283442Y-133115433D01*
X125229918Y-133058785D01*
X125221397Y-133051806D01*
X125157522Y-133009020D01*
X125087056Y-132976742D01*
X125010001Y-132954974D01*
X124926355Y-132943715D01*
X124875599Y-132941999D01*
X124793867Y-132946291D01*
X124718967Y-132959168D01*
X124640217Y-132985040D01*
X124570764Y-133022598D01*
X124518634Y-133064089D01*
X124468016Y-133120208D01*
X124425390Y-133191368D01*
X124399003Y-133270018D01*
X124389234Y-133344982D01*
X124388727Y-133367453D01*
X124393961Y-133443422D01*
X124409665Y-133516669D01*
X124425949Y-133563989D01*
X124459938Y-133635090D01*
X124501763Y-133702565D01*
X124543573Y-133759407D01*
X124595813Y-133818591D01*
X124650794Y-133873972D01*
X124711036Y-133931108D01*
X124736386Y-133954454D01*
X124792411Y-134005924D01*
X124850101Y-134060166D01*
X124904946Y-134114812D01*
X124912821Y-134123445D01*
X124959022Y-134182219D01*
X124973122Y-134204590D01*
X124388727Y-134204590D01*
G37*
G36*
X124191447Y-134047510D02*
G01*
X123898505Y-134014010D01*
X123882104Y-134089979D01*
X123848742Y-134157866D01*
X123824060Y-134188212D01*
X123762043Y-134234166D01*
X123686876Y-134252172D01*
X123681870Y-134252235D01*
X123606582Y-134239410D01*
X123542267Y-134200937D01*
X123525907Y-134185234D01*
X123484454Y-134119252D01*
X123465885Y-134045859D01*
X123461884Y-133982371D01*
X123469361Y-133902416D01*
X123497478Y-133827432D01*
X123525162Y-133791791D01*
X123587869Y-133748280D01*
X123665253Y-133729135D01*
X123690058Y-133728140D01*
X123766612Y-133739773D01*
X123838077Y-133774669D01*
X123898043Y-133825966D01*
X123917116Y-133847253D01*
X124155713Y-133810402D01*
X124004962Y-132965821D01*
X123227381Y-132965821D01*
X123227381Y-133251691D01*
X123781998Y-133251691D01*
X123828154Y-133520438D01*
X123760068Y-133489498D01*
X123684587Y-133470392D01*
X123627152Y-133466093D01*
X123544361Y-133472879D01*
X123467306Y-133493238D01*
X123395986Y-133527169D01*
X123330401Y-133574673D01*
X123295499Y-133607911D01*
X123242415Y-133673855D01*
X123202370Y-133747921D01*
X123175362Y-133830109D01*
X123162590Y-133907020D01*
X123159264Y-133975671D01*
X123164518Y-134056149D01*
X123180282Y-134132779D01*
X123206554Y-134205563D01*
X123243335Y-134274499D01*
X123269071Y-134312163D01*
X123318676Y-134370391D01*
X123385712Y-134427237D01*
X123460939Y-134469871D01*
X123544359Y-134498294D01*
X123620132Y-134511124D01*
X123684847Y-134514282D01*
X123761789Y-134509833D01*
X123844575Y-134493395D01*
X123919844Y-134464846D01*
X123987597Y-134424184D01*
X124031390Y-134387725D01*
X124084850Y-134328189D01*
X124127980Y-134260316D01*
X124160778Y-134184108D01*
X124180669Y-134112152D01*
X124191447Y-134047510D01*
G37*
G36*
X139733890Y-131621250D02*
G01*
X139331886Y-131589487D01*
X139305617Y-131691794D01*
X139262618Y-131786130D01*
X139198524Y-131866388D01*
X139184980Y-131878334D01*
X139099401Y-131930891D01*
X138995525Y-131961632D01*
X138885214Y-131970647D01*
X138780761Y-131964090D01*
X138682936Y-131941427D01*
X138590879Y-131892863D01*
X138584456Y-131887764D01*
X138515245Y-131809488D01*
X138484100Y-131713814D01*
X138483210Y-131693214D01*
X138509261Y-131594572D01*
X138525892Y-131571620D01*
X138609057Y-131511386D01*
X138674286Y-131484271D01*
X138773556Y-131453900D01*
X138874794Y-131426149D01*
X138973783Y-131400113D01*
X139005319Y-131391959D01*
X139104243Y-131364541D01*
X139210188Y-131329273D01*
X139302209Y-131291422D01*
X139391969Y-131243999D01*
X139471346Y-131185498D01*
X139544832Y-131107218D01*
X139600268Y-131021767D01*
X139637656Y-130929143D01*
X139656994Y-130829347D01*
X139659941Y-130769101D01*
X139649502Y-130663001D01*
X139618186Y-130561711D01*
X139571599Y-130473801D01*
X139508466Y-130394015D01*
X139430115Y-130327121D01*
X139336544Y-130273119D01*
X139316004Y-130263866D01*
X139216506Y-130229079D01*
X139118967Y-130207714D01*
X139012867Y-130195346D01*
X138913007Y-130191902D01*
X138797307Y-130196131D01*
X138690912Y-130208817D01*
X138593823Y-130229961D01*
X138489600Y-130266497D01*
X138398777Y-130315212D01*
X138333327Y-130365111D01*
X138256853Y-130446424D01*
X138198095Y-130538803D01*
X138157053Y-130642250D01*
X138135976Y-130739726D01*
X138128355Y-130827168D01*
X138541774Y-130827168D01*
X138570086Y-130724969D01*
X138624817Y-130636257D01*
X138655427Y-130608299D01*
X138748576Y-130562498D01*
X138855033Y-130543654D01*
X138917474Y-130541298D01*
X139022201Y-130548375D01*
X139119936Y-130572504D01*
X139199373Y-130613758D01*
X139259703Y-130697230D01*
X139264885Y-130738826D01*
X139230268Y-130833837D01*
X139203344Y-130860420D01*
X139113428Y-130910136D01*
X139018510Y-130944753D01*
X138912506Y-130976009D01*
X138823673Y-130998888D01*
X138716047Y-131026538D01*
X138619484Y-131054397D01*
X138520807Y-131087163D01*
X138426471Y-131124960D01*
X138377498Y-131148771D01*
X138293388Y-131202017D01*
X138215087Y-131273239D01*
X138151681Y-131357714D01*
X138105058Y-131456147D01*
X138079467Y-131558354D01*
X138070111Y-131660700D01*
X138069791Y-131684777D01*
X138079339Y-131793023D01*
X138107983Y-131896907D01*
X138155723Y-131996429D01*
X138167562Y-132015810D01*
X138228958Y-132096350D01*
X138303152Y-132164328D01*
X138390143Y-132219743D01*
X138444002Y-132245101D01*
X138538827Y-132277888D01*
X138644632Y-132301307D01*
X138746219Y-132314115D01*
X138856214Y-132319750D01*
X138889185Y-132320043D01*
X139006070Y-132315693D01*
X139114159Y-132302643D01*
X139213450Y-132280894D01*
X139320989Y-132243310D01*
X139415860Y-132193199D01*
X139485243Y-132141871D01*
X139557344Y-132069129D01*
X139617685Y-131984907D01*
X139666267Y-131889205D01*
X139703088Y-131782021D01*
X139724789Y-131683931D01*
X139733890Y-131621250D01*
G37*
G36*
X136443411Y-131208328D02*
G01*
X136830030Y-131271854D01*
X136861917Y-131174951D01*
X136918868Y-131105593D01*
X137009511Y-131060246D01*
X137098033Y-131049511D01*
X137199534Y-131064726D01*
X137290749Y-131115547D01*
X137331791Y-131157705D01*
X137381522Y-131249271D01*
X137406856Y-131349750D01*
X137417775Y-131458378D01*
X137419140Y-131519509D01*
X137416034Y-131619411D01*
X137404560Y-131721276D01*
X137381094Y-131818326D01*
X137336233Y-131910588D01*
X137330798Y-131918039D01*
X137255655Y-131988808D01*
X137163482Y-132026915D01*
X137092573Y-132034173D01*
X136991080Y-132018167D01*
X136909934Y-131970150D01*
X136852203Y-131889271D01*
X136819366Y-131795203D01*
X136809185Y-131748304D01*
X136424055Y-131811830D01*
X136455601Y-131916026D01*
X136497690Y-132008443D01*
X136558704Y-132099638D01*
X136633491Y-132175448D01*
X136654339Y-132191997D01*
X136746713Y-132248017D01*
X136839449Y-132283905D01*
X136943299Y-132307538D01*
X137058264Y-132318917D01*
X137110937Y-132320043D01*
X137228217Y-132312802D01*
X137336250Y-132291079D01*
X137435035Y-132254874D01*
X137524573Y-132204187D01*
X137604863Y-132139019D01*
X137629572Y-132114078D01*
X137695182Y-132031106D01*
X137747218Y-131937038D01*
X137785680Y-131831872D01*
X137810567Y-131715610D01*
X137820936Y-131610247D01*
X137822633Y-131543331D01*
X137817895Y-131432082D01*
X137803682Y-131328807D01*
X137774119Y-131215400D01*
X137730912Y-131113474D01*
X137674060Y-131023029D01*
X137628579Y-130969110D01*
X137550993Y-130899283D01*
X137463776Y-130843903D01*
X137366927Y-130802969D01*
X137260447Y-130776483D01*
X137144336Y-130764444D01*
X137103492Y-130763641D01*
X136990451Y-130768914D01*
X136888002Y-130784730D01*
X136783887Y-130815718D01*
X136693607Y-130860478D01*
X136673199Y-130873820D01*
X136590412Y-130944625D01*
X136528754Y-131022854D01*
X136478325Y-131115476D01*
X136443411Y-131208328D01*
G37*
G36*
X135762982Y-130223665D02*
G01*
X135762982Y-130975066D01*
X135689269Y-130903215D01*
X135596656Y-130838177D01*
X135496918Y-130793373D01*
X135390055Y-130768803D01*
X135309362Y-130763641D01*
X135203699Y-130771996D01*
X135106883Y-130797060D01*
X135065182Y-130814264D01*
X134975062Y-130867830D01*
X134904898Y-130938429D01*
X134901402Y-130943303D01*
X134852675Y-131031522D01*
X134825965Y-131117504D01*
X134812055Y-131221117D01*
X134806590Y-131330916D01*
X134805616Y-131413796D01*
X134805616Y-132288280D01*
X135197694Y-132288280D01*
X135197694Y-131490227D01*
X135199090Y-131382436D01*
X135204761Y-131278145D01*
X135220028Y-131188972D01*
X135275826Y-131104991D01*
X135298940Y-131087230D01*
X135394886Y-131052495D01*
X135440386Y-131049511D01*
X135543783Y-131064900D01*
X135615084Y-131098149D01*
X135688593Y-131167854D01*
X135727744Y-131243565D01*
X135751832Y-131346540D01*
X135761296Y-131452506D01*
X135762982Y-131531420D01*
X135762982Y-132288280D01*
X136155060Y-132288280D01*
X136155060Y-130223665D01*
X135762982Y-130223665D01*
G37*
G36*
X133887680Y-130764461D02*
G01*
X133992240Y-130776762D01*
X134089612Y-130803824D01*
X134179796Y-130845647D01*
X134262790Y-130902232D01*
X134338597Y-130973577D01*
X134383729Y-131028449D01*
X134440144Y-131120180D01*
X134483020Y-131223217D01*
X134512356Y-131337560D01*
X134526460Y-131441483D01*
X134531162Y-131553257D01*
X134526014Y-131665658D01*
X134510573Y-131770591D01*
X134484837Y-131868056D01*
X134441801Y-131972326D01*
X134384753Y-132066433D01*
X134321828Y-132139494D01*
X134233331Y-132210822D01*
X134130667Y-132264318D01*
X134034290Y-132295276D01*
X133928075Y-132313851D01*
X133812021Y-132320043D01*
X133709110Y-132315008D01*
X133601095Y-132296924D01*
X133503316Y-132265688D01*
X133405550Y-132214827D01*
X133347576Y-132171800D01*
X133272130Y-132094566D01*
X133210503Y-132002100D01*
X133167325Y-131907120D01*
X133558411Y-131843593D01*
X133586932Y-131911036D01*
X133653701Y-131989010D01*
X133709342Y-132018251D01*
X133808050Y-132034173D01*
X133857289Y-132030649D01*
X133953198Y-131998830D01*
X134034364Y-131933920D01*
X134086542Y-131855496D01*
X134118194Y-131758071D01*
X134129157Y-131653014D01*
X133146480Y-131653014D01*
X133146148Y-131625014D01*
X133148727Y-131517561D01*
X133160213Y-131398907D01*
X133536077Y-131398907D01*
X134122209Y-131398907D01*
X134118776Y-131331545D01*
X134093883Y-131230986D01*
X134039823Y-131143312D01*
X134018164Y-131121327D01*
X133931488Y-131067465D01*
X133827902Y-131049511D01*
X133805701Y-131050296D01*
X133704248Y-131077777D01*
X133623922Y-131138845D01*
X133579304Y-131202415D01*
X133546362Y-131299938D01*
X133536077Y-131398907D01*
X133160213Y-131398907D01*
X133160739Y-131393473D01*
X133182518Y-131280751D01*
X133214063Y-131179395D01*
X133264808Y-131072769D01*
X133329616Y-130982510D01*
X133366668Y-130943396D01*
X133448128Y-130876709D01*
X133539393Y-130825412D01*
X133640464Y-130789504D01*
X133751341Y-130768985D01*
X133851229Y-130763641D01*
X133887680Y-130764461D01*
G37*
G36*
X131867015Y-130970103D02*
G01*
X131913474Y-130921713D01*
X131999814Y-130852557D01*
X132092567Y-130803159D01*
X132191732Y-130773521D01*
X132297309Y-130763641D01*
X132363480Y-130766720D01*
X132472300Y-130786923D01*
X132572238Y-130825983D01*
X132663295Y-130883900D01*
X132745469Y-130960673D01*
X132786995Y-131012769D01*
X132838903Y-131101557D01*
X132878354Y-131203116D01*
X132905346Y-131317448D01*
X132918323Y-131422481D01*
X132922648Y-131536383D01*
X132919803Y-131626392D01*
X132908241Y-131731727D01*
X132887785Y-131829090D01*
X132851499Y-131935401D01*
X132802406Y-132030232D01*
X132740506Y-132113581D01*
X132693822Y-132161971D01*
X132606603Y-132231127D01*
X132512355Y-132280525D01*
X132411076Y-132310163D01*
X132302768Y-132320043D01*
X132247929Y-132317122D01*
X132146588Y-132296197D01*
X132053625Y-132258998D01*
X131986702Y-132219199D01*
X131905534Y-132150011D01*
X131839222Y-132070403D01*
X131839222Y-132288280D01*
X131474937Y-132288280D01*
X131474937Y-131552761D01*
X131866023Y-131552761D01*
X131868349Y-131624906D01*
X131881749Y-131728191D01*
X131911062Y-131826516D01*
X131961313Y-131913572D01*
X131998273Y-131954557D01*
X132088052Y-132014269D01*
X132191100Y-132034173D01*
X132201696Y-132034016D01*
X132299503Y-132015172D01*
X132389960Y-131958169D01*
X132456621Y-131873371D01*
X132482148Y-131818156D01*
X132507739Y-131716452D01*
X132518998Y-131615758D01*
X132522133Y-131513553D01*
X132520660Y-131457533D01*
X132508873Y-131356287D01*
X132481523Y-131259590D01*
X132427836Y-131166142D01*
X132384420Y-131120697D01*
X132292322Y-131065912D01*
X132194078Y-131049511D01*
X132133603Y-131055163D01*
X132034525Y-131095652D01*
X131958335Y-131167631D01*
X131917948Y-131235810D01*
X131886306Y-131334907D01*
X131870440Y-131442899D01*
X131866023Y-131552761D01*
X131474937Y-131552761D01*
X131474937Y-130223665D01*
X131867015Y-130223665D01*
X131867015Y-130970103D01*
G37*
G36*
X130122019Y-132288280D02*
G01*
X130122019Y-132066433D01*
X130189881Y-132148206D01*
X130272119Y-132215602D01*
X130334933Y-132252546D01*
X130427171Y-132290974D01*
X130531941Y-132314704D01*
X130613358Y-132320043D01*
X130720768Y-132310760D01*
X130819664Y-132282913D01*
X130880864Y-132254035D01*
X130966428Y-132191639D01*
X131030367Y-132111714D01*
X131052585Y-132068914D01*
X131084945Y-131966436D01*
X131100503Y-131861524D01*
X131105637Y-131751937D01*
X131105689Y-131738874D01*
X131105689Y-130795405D01*
X130713611Y-130795405D01*
X130713611Y-131488738D01*
X130712860Y-131599382D01*
X130710089Y-131706591D01*
X130703524Y-131809814D01*
X130692270Y-131878831D01*
X130642675Y-131966438D01*
X130613358Y-131992484D01*
X130519888Y-132030102D01*
X130467941Y-132034173D01*
X130367306Y-132018345D01*
X130288280Y-131978091D01*
X130214405Y-131906519D01*
X130179094Y-131839127D01*
X130160135Y-131731656D01*
X130153272Y-131626029D01*
X130150270Y-131508923D01*
X130149812Y-131431663D01*
X130149812Y-130795405D01*
X129757734Y-130795405D01*
X129757734Y-132288280D01*
X130122019Y-132288280D01*
G37*
G36*
X129360693Y-132288280D02*
G01*
X129360693Y-130223665D01*
X128968118Y-130223665D01*
X128968118Y-132288280D01*
X129360693Y-132288280D01*
G37*
G36*
X128041248Y-130764461D02*
G01*
X128145809Y-130776762D01*
X128243181Y-130803824D01*
X128333364Y-130845647D01*
X128416359Y-130902232D01*
X128492165Y-130973577D01*
X128537298Y-131028449D01*
X128593713Y-131120180D01*
X128636589Y-131223217D01*
X128665925Y-131337560D01*
X128680029Y-131441483D01*
X128684730Y-131553257D01*
X128679583Y-131665658D01*
X128664142Y-131770591D01*
X128638406Y-131868056D01*
X128595369Y-131972326D01*
X128538321Y-132066433D01*
X128475397Y-132139494D01*
X128386900Y-132210822D01*
X128284235Y-132264318D01*
X128187859Y-132295276D01*
X128081644Y-132313851D01*
X127965589Y-132320043D01*
X127862679Y-132315008D01*
X127754664Y-132296924D01*
X127656885Y-132265688D01*
X127559119Y-132214827D01*
X127501144Y-132171800D01*
X127425699Y-132094566D01*
X127364072Y-132002100D01*
X127320894Y-131907120D01*
X127711979Y-131843593D01*
X127740501Y-131911036D01*
X127807269Y-131989010D01*
X127862911Y-132018251D01*
X127961619Y-132034173D01*
X128010858Y-132030649D01*
X128106767Y-131998830D01*
X128187933Y-131933920D01*
X128240111Y-131855496D01*
X128271763Y-131758071D01*
X128282726Y-131653014D01*
X127300049Y-131653014D01*
X127299717Y-131625014D01*
X127302296Y-131517561D01*
X127313782Y-131398907D01*
X127689646Y-131398907D01*
X128275778Y-131398907D01*
X128272344Y-131331545D01*
X128247452Y-131230986D01*
X128193392Y-131143312D01*
X128171733Y-131121327D01*
X128085057Y-131067465D01*
X127981471Y-131049511D01*
X127959270Y-131050296D01*
X127857816Y-131077777D01*
X127777491Y-131138845D01*
X127732873Y-131202415D01*
X127699931Y-131299938D01*
X127689646Y-131398907D01*
X127313782Y-131398907D01*
X127314308Y-131393473D01*
X127336087Y-131280751D01*
X127367631Y-131179395D01*
X127418376Y-131072769D01*
X127483184Y-130982510D01*
X127520237Y-130943396D01*
X127601696Y-130876709D01*
X127692961Y-130825412D01*
X127794032Y-130789504D01*
X127904909Y-130768985D01*
X128004797Y-130763641D01*
X128041248Y-130764461D01*
G37*
G36*
X126612672Y-132288280D02*
G01*
X127004750Y-132288280D01*
X127004750Y-130795405D01*
X126640465Y-130795405D01*
X126640465Y-131006333D01*
X126583991Y-130922999D01*
X126516082Y-130844662D01*
X126472715Y-130810294D01*
X126376548Y-130771341D01*
X126302483Y-130763641D01*
X126203378Y-130774948D01*
X126107065Y-130808867D01*
X126044406Y-130844042D01*
X126166000Y-131209320D01*
X126255894Y-131163010D01*
X126350128Y-131144801D01*
X126447573Y-131164037D01*
X126490085Y-131189468D01*
X126551929Y-131273413D01*
X126579916Y-131350766D01*
X126598565Y-131460811D01*
X126606402Y-131562289D01*
X126610624Y-131668740D01*
X126612384Y-131771177D01*
X126612672Y-131838630D01*
X126612672Y-132288280D01*
G37*
G36*
X125194242Y-131621250D02*
G01*
X124792238Y-131589487D01*
X124765970Y-131691794D01*
X124722970Y-131786130D01*
X124658876Y-131866388D01*
X124645333Y-131878334D01*
X124559754Y-131930891D01*
X124455877Y-131961632D01*
X124345567Y-131970647D01*
X124241114Y-131964090D01*
X124143288Y-131941427D01*
X124051232Y-131892863D01*
X124044808Y-131887764D01*
X123975597Y-131809488D01*
X123944452Y-131713814D01*
X123943562Y-131693214D01*
X123969613Y-131594572D01*
X123986244Y-131571620D01*
X124069409Y-131511386D01*
X124134638Y-131484271D01*
X124233908Y-131453900D01*
X124335147Y-131426149D01*
X124434135Y-131400113D01*
X124465672Y-131391959D01*
X124564595Y-131364541D01*
X124670540Y-131329273D01*
X124762561Y-131291422D01*
X124852321Y-131243999D01*
X124931699Y-131185498D01*
X125005184Y-131107218D01*
X125060621Y-131021767D01*
X125098008Y-130929143D01*
X125117346Y-130829347D01*
X125120293Y-130769101D01*
X125109854Y-130663001D01*
X125078538Y-130561711D01*
X125031951Y-130473801D01*
X124968818Y-130394015D01*
X124890467Y-130327121D01*
X124796897Y-130273119D01*
X124776356Y-130263866D01*
X124676858Y-130229079D01*
X124579320Y-130207714D01*
X124473220Y-130195346D01*
X124373359Y-130191902D01*
X124257659Y-130196131D01*
X124151265Y-130208817D01*
X124054176Y-130229961D01*
X123949952Y-130266497D01*
X123859129Y-130315212D01*
X123793679Y-130365111D01*
X123717205Y-130446424D01*
X123658447Y-130538803D01*
X123617406Y-130642250D01*
X123596328Y-130739726D01*
X123588707Y-130827168D01*
X124002126Y-130827168D01*
X124030438Y-130724969D01*
X124085169Y-130636257D01*
X124115779Y-130608299D01*
X124208929Y-130562498D01*
X124315385Y-130543654D01*
X124377826Y-130541298D01*
X124482554Y-130548375D01*
X124580288Y-130572504D01*
X124659725Y-130613758D01*
X124720055Y-130697230D01*
X124725237Y-130738826D01*
X124690620Y-130833837D01*
X124663696Y-130860420D01*
X124573780Y-130910136D01*
X124478862Y-130944753D01*
X124372858Y-130976009D01*
X124284025Y-130998888D01*
X124176399Y-131026538D01*
X124079836Y-131054397D01*
X123981160Y-131087163D01*
X123886824Y-131124960D01*
X123837850Y-131148771D01*
X123753741Y-131202017D01*
X123675439Y-131273239D01*
X123612033Y-131357714D01*
X123565410Y-131456147D01*
X123539820Y-131558354D01*
X123530463Y-131660700D01*
X123530143Y-131684777D01*
X123539691Y-131793023D01*
X123568335Y-131896907D01*
X123616075Y-131996429D01*
X123627915Y-132015810D01*
X123689310Y-132096350D01*
X123763504Y-132164328D01*
X123850496Y-132219743D01*
X123904355Y-132245101D01*
X123999179Y-132277888D01*
X124104984Y-132301307D01*
X124206572Y-132314115D01*
X124316566Y-132319750D01*
X124349537Y-132320043D01*
X124466422Y-132315693D01*
X124574511Y-132302643D01*
X124673803Y-132280894D01*
X124781341Y-132243310D01*
X124876212Y-132193199D01*
X124945595Y-132141871D01*
X125017696Y-132069129D01*
X125078038Y-131984907D01*
X125126619Y-131889205D01*
X125163440Y-131782021D01*
X125185141Y-131683931D01*
X125194242Y-131621250D01*
G37*
G36*
X123382245Y-130795405D02*
G01*
X122964856Y-130795405D01*
X122610000Y-131852527D01*
X122264078Y-130795405D01*
X121857607Y-130795405D01*
X122381205Y-132234183D01*
X122474510Y-132509134D01*
X122515710Y-132600601D01*
X122567363Y-132690797D01*
X122573274Y-132699217D01*
X122640490Y-132774514D01*
X122680475Y-132805426D01*
X122772129Y-132851145D01*
X122829862Y-132868952D01*
X122930695Y-132886766D01*
X123030368Y-132891782D01*
X123135471Y-132886984D01*
X123238611Y-132872589D01*
X123252214Y-132869945D01*
X123286956Y-132585564D01*
X123188915Y-132602018D01*
X123120695Y-132605912D01*
X123021515Y-132591087D01*
X122936187Y-132537136D01*
X122918700Y-132516082D01*
X122866927Y-132428510D01*
X122829571Y-132330351D01*
X122817951Y-132288280D01*
X123382245Y-130795405D01*
G37*
G36*
X121752391Y-131875357D02*
G01*
X121358824Y-131811830D01*
X121320733Y-131907864D01*
X121257083Y-131977595D01*
X121164770Y-132020029D01*
X121058756Y-132033952D01*
X121041688Y-132034173D01*
X120938325Y-132026287D01*
X120838762Y-131994248D01*
X120812893Y-131978091D01*
X120762084Y-131889447D01*
X120761277Y-131873371D01*
X120789070Y-131799423D01*
X120884816Y-131756880D01*
X120920590Y-131747807D01*
X121033778Y-131721906D01*
X121136109Y-131696564D01*
X121248756Y-131665671D01*
X121344439Y-131635651D01*
X121449898Y-131595088D01*
X121522108Y-131556235D01*
X121598972Y-131490041D01*
X121659194Y-131401483D01*
X121691622Y-131298007D01*
X121697798Y-131220735D01*
X121685785Y-131116766D01*
X121649746Y-131022612D01*
X121589681Y-130938272D01*
X121545930Y-130895658D01*
X121459294Y-130837901D01*
X121366338Y-130800900D01*
X121257375Y-130776534D01*
X121151238Y-130765704D01*
X121073947Y-130763641D01*
X120965356Y-130767305D01*
X120852560Y-130780842D01*
X120754725Y-130804354D01*
X120661234Y-130843437D01*
X120621817Y-130867865D01*
X120545686Y-130934420D01*
X120484238Y-131016837D01*
X120437473Y-131115113D01*
X120417837Y-131176564D01*
X120788078Y-131240091D01*
X120831414Y-131145692D01*
X120878405Y-131098645D01*
X120970565Y-131058916D01*
X121066999Y-131049511D01*
X121170780Y-131055583D01*
X121270723Y-131082569D01*
X121288846Y-131092689D01*
X121333513Y-131172594D01*
X121294305Y-131243565D01*
X121198061Y-131284046D01*
X121098367Y-131312723D01*
X120984468Y-131341124D01*
X120928035Y-131354240D01*
X120817228Y-131382006D01*
X120719681Y-131412075D01*
X120622637Y-131450066D01*
X120533830Y-131497323D01*
X120490297Y-131528938D01*
X120420504Y-131610785D01*
X120379682Y-131712337D01*
X120367710Y-131821756D01*
X120381176Y-131932019D01*
X120421573Y-132033332D01*
X120480090Y-132115873D01*
X120537942Y-132173138D01*
X120620231Y-132230379D01*
X120718148Y-132273561D01*
X120814513Y-132299384D01*
X120922360Y-132314878D01*
X121041688Y-132320043D01*
X121150954Y-132315838D01*
X121251321Y-132303223D01*
X121357169Y-132277876D01*
X121450906Y-132241082D01*
X121521611Y-132200434D01*
X121602105Y-132135264D01*
X121667400Y-132059360D01*
X121717495Y-131972725D01*
X121752391Y-131875357D01*
G37*
G36*
X119352278Y-130795405D02*
G01*
X119352278Y-131081274D01*
X119620280Y-131081274D01*
X119620280Y-131729444D01*
X119619553Y-131836546D01*
X119615737Y-131937040D01*
X119612836Y-131959232D01*
X119577598Y-132013328D01*
X119511590Y-132034173D01*
X119413536Y-132016345D01*
X119353766Y-131996454D01*
X119320018Y-132268427D01*
X119418414Y-132297814D01*
X119525254Y-132315002D01*
X119629710Y-132320043D01*
X119730707Y-132310861D01*
X119821282Y-132283316D01*
X119909919Y-132229072D01*
X119946350Y-132188523D01*
X119987989Y-132094569D01*
X120001440Y-132031195D01*
X120010745Y-131924863D01*
X120013411Y-131821987D01*
X120013847Y-131746815D01*
X120013847Y-131081274D01*
X120194005Y-131081274D01*
X120194005Y-130795405D01*
X120013847Y-130795405D01*
X120013847Y-130509535D01*
X119620280Y-130287192D01*
X119620280Y-130795405D01*
X119352278Y-130795405D01*
G37*
G36*
X118555935Y-130764461D02*
G01*
X118660495Y-130776762D01*
X118757867Y-130803824D01*
X118848051Y-130845647D01*
X118931046Y-130902232D01*
X119006852Y-130973577D01*
X119051984Y-131028449D01*
X119108400Y-131120180D01*
X119151275Y-131223217D01*
X119180611Y-131337560D01*
X119194715Y-131441483D01*
X119199417Y-131553257D01*
X119194269Y-131665658D01*
X119178828Y-131770591D01*
X119153092Y-131868056D01*
X119110056Y-131972326D01*
X119053008Y-132066433D01*
X118990083Y-132139494D01*
X118901586Y-132210822D01*
X118798922Y-132264318D01*
X118702545Y-132295276D01*
X118596330Y-132313851D01*
X118480276Y-132320043D01*
X118377366Y-132315008D01*
X118269350Y-132296924D01*
X118171571Y-132265688D01*
X118073805Y-132214827D01*
X118015831Y-132171800D01*
X117940385Y-132094566D01*
X117878758Y-132002100D01*
X117835580Y-131907120D01*
X118226666Y-131843593D01*
X118255188Y-131911036D01*
X118321956Y-131989010D01*
X118377597Y-132018251D01*
X118476305Y-132034173D01*
X118525544Y-132030649D01*
X118621453Y-131998830D01*
X118702619Y-131933920D01*
X118754797Y-131855496D01*
X118786449Y-131758071D01*
X118797412Y-131653014D01*
X117814736Y-131653014D01*
X117814404Y-131625014D01*
X117816982Y-131517561D01*
X117828469Y-131398907D01*
X118204332Y-131398907D01*
X118790464Y-131398907D01*
X118787031Y-131331545D01*
X118762138Y-131230986D01*
X118708078Y-131143312D01*
X118686419Y-131121327D01*
X118599743Y-131067465D01*
X118496157Y-131049511D01*
X118473956Y-131050296D01*
X118372503Y-131077777D01*
X118292178Y-131138845D01*
X118247559Y-131202415D01*
X118214617Y-131299938D01*
X118204332Y-131398907D01*
X117828469Y-131398907D01*
X117828995Y-131393473D01*
X117850773Y-131280751D01*
X117882318Y-131179395D01*
X117933063Y-131072769D01*
X117997871Y-130982510D01*
X118034923Y-130943396D01*
X118116383Y-130876709D01*
X118207648Y-130825412D01*
X118308719Y-130789504D01*
X118419596Y-130768985D01*
X118519484Y-130763641D01*
X118555935Y-130764461D01*
G37*
G36*
X117532340Y-130795405D02*
G01*
X117170536Y-130795405D01*
X117170536Y-130997896D01*
X117095166Y-130918286D01*
X117014597Y-130855147D01*
X116914027Y-130802303D01*
X116806381Y-130771877D01*
X116708480Y-130763641D01*
X116606955Y-130771528D01*
X116508941Y-130797871D01*
X116461321Y-130819723D01*
X116376911Y-130879380D01*
X116311460Y-130954510D01*
X116289601Y-130988466D01*
X116214109Y-130911694D01*
X116134290Y-130851115D01*
X116078673Y-130819723D01*
X115984276Y-130783413D01*
X115884964Y-130765613D01*
X115837471Y-130763641D01*
X115731136Y-130771558D01*
X115628646Y-130798254D01*
X115561031Y-130830642D01*
X115478592Y-130894997D01*
X115415157Y-130979994D01*
X115392288Y-131026185D01*
X115365939Y-131123102D01*
X115354811Y-131224185D01*
X115351591Y-131334884D01*
X115351591Y-132288280D01*
X115744166Y-132288280D01*
X115744166Y-131425211D01*
X115746709Y-131322756D01*
X115757043Y-131222691D01*
X115784863Y-131134875D01*
X115859009Y-131068268D01*
X115952116Y-131049511D01*
X116051415Y-131069479D01*
X116107459Y-131100630D01*
X116176256Y-131173371D01*
X116212178Y-131251009D01*
X116232744Y-131350176D01*
X116241429Y-131452209D01*
X116243941Y-131563183D01*
X116243941Y-132288280D01*
X116636020Y-132288280D01*
X116636020Y-131460449D01*
X116637322Y-131360041D01*
X116643368Y-131253888D01*
X116656864Y-131176068D01*
X116708646Y-131091349D01*
X116721880Y-131080778D01*
X116818193Y-131050274D01*
X116840992Y-131049511D01*
X116942371Y-131067183D01*
X117004275Y-131099637D01*
X117075974Y-131174145D01*
X117108499Y-131243069D01*
X117129873Y-131348798D01*
X117137811Y-131453283D01*
X117139766Y-131554250D01*
X117139766Y-132288280D01*
X117532340Y-132288280D01*
X117532340Y-130795405D01*
G37*
X128575180Y-116383734D02*
X128718038Y-116312305D01*
X128718038Y-116312305D02*
X128932323Y-116312305D01*
X128932323Y-116312305D02*
X129146609Y-116383734D01*
X129146609Y-116383734D02*
X129289466Y-116526591D01*
X129289466Y-116526591D02*
X129360895Y-116669448D01*
X129360895Y-116669448D02*
X129432323Y-116955162D01*
X129432323Y-116955162D02*
X129432323Y-117169448D01*
X129432323Y-117169448D02*
X129360895Y-117455162D01*
X129360895Y-117455162D02*
X129289466Y-117598019D01*
X129289466Y-117598019D02*
X129146609Y-117740877D01*
X129146609Y-117740877D02*
X128932323Y-117812305D01*
X128932323Y-117812305D02*
X128789466Y-117812305D01*
X128789466Y-117812305D02*
X128575180Y-117740877D01*
X128575180Y-117740877D02*
X128503752Y-117669448D01*
X128503752Y-117669448D02*
X128503752Y-117169448D01*
X128503752Y-117169448D02*
X128789466Y-117169448D01*
X127646609Y-116312305D02*
X127646609Y-116669448D01*
X128003752Y-116526591D02*
X127646609Y-116669448D01*
X127646609Y-116669448D02*
X127289466Y-116526591D01*
X127860895Y-116955162D02*
X127646609Y-116669448D01*
X127646609Y-116669448D02*
X127432323Y-116955162D01*
X126503752Y-116312305D02*
X126503752Y-116669448D01*
X126860895Y-116526591D02*
X126503752Y-116669448D01*
X126503752Y-116669448D02*
X126146609Y-116526591D01*
X126718038Y-116955162D02*
X126503752Y-116669448D01*
X126503752Y-116669448D02*
X126289466Y-116955162D01*
X125360895Y-116312305D02*
X125360895Y-116669448D01*
X125718038Y-116526591D02*
X125360895Y-116669448D01*
X125360895Y-116669448D02*
X125003752Y-116526591D01*
X125575181Y-116955162D02*
X125360895Y-116669448D01*
X125360895Y-116669448D02*
X125146609Y-116955162D01*
D11*
X127965524Y-69978311D02*
X127892952Y-70002501D01*
X127892952Y-70002501D02*
X127868762Y-70026692D01*
X127868762Y-70026692D02*
X127844571Y-70075073D01*
X127844571Y-70075073D02*
X127844571Y-70147644D01*
X127844571Y-70147644D02*
X127868762Y-70196025D01*
X127868762Y-70196025D02*
X127892952Y-70220216D01*
X127892952Y-70220216D02*
X127941333Y-70244406D01*
X127941333Y-70244406D02*
X128134857Y-70244406D01*
X128134857Y-70244406D02*
X128134857Y-69736406D01*
X128134857Y-69736406D02*
X127965524Y-69736406D01*
X127965524Y-69736406D02*
X127917143Y-69760596D01*
X127917143Y-69760596D02*
X127892952Y-69784787D01*
X127892952Y-69784787D02*
X127868762Y-69833168D01*
X127868762Y-69833168D02*
X127868762Y-69881549D01*
X127868762Y-69881549D02*
X127892952Y-69929930D01*
X127892952Y-69929930D02*
X127917143Y-69954120D01*
X127917143Y-69954120D02*
X127965524Y-69978311D01*
X127965524Y-69978311D02*
X128134857Y-69978311D01*
X127675238Y-69736406D02*
X127336571Y-69736406D01*
X127336571Y-69736406D02*
X127675238Y-70244406D01*
X127675238Y-70244406D02*
X127336571Y-70244406D01*
X126876952Y-70244406D02*
X127167238Y-70244406D01*
X127022095Y-70244406D02*
X127022095Y-69736406D01*
X127022095Y-69736406D02*
X127070476Y-69808977D01*
X127070476Y-69808977D02*
X127118857Y-69857358D01*
X127118857Y-69857358D02*
X127167238Y-69881549D01*
D12*
X131708951Y-74749866D02*
X130947047Y-74749866D01*
X131327999Y-75130819D02*
X131327999Y-74368914D01*
D13*
%TO.C,G\u002A\u002A\u002A*%
G36*
X137255839Y-116768845D02*
G01*
X137244784Y-117139134D01*
X137226385Y-117492823D01*
X137201137Y-117809549D01*
X137169537Y-118068947D01*
X137140285Y-118247392D01*
X136953685Y-119100888D01*
X136694140Y-119936090D01*
X136364683Y-120746204D01*
X135968348Y-121524434D01*
X135508168Y-122263983D01*
X134987176Y-122958057D01*
X134976452Y-122971050D01*
X134743799Y-123237200D01*
X134470247Y-123525971D01*
X134173370Y-123820407D01*
X133870743Y-124103550D01*
X133579939Y-124358444D01*
X133318532Y-124568131D01*
X132843018Y-124905910D01*
X132800546Y-124936080D01*
X132795799Y-124939452D01*
X132111358Y-125358545D01*
X131405853Y-125714671D01*
X130671034Y-126011068D01*
X129898652Y-126250973D01*
X129080457Y-126437626D01*
X128208201Y-126574265D01*
X128063770Y-126585823D01*
X127854515Y-126593267D01*
X127599993Y-126596463D01*
X127316679Y-126595665D01*
X127021051Y-126591130D01*
X126729584Y-126583112D01*
X126458756Y-126571868D01*
X126225043Y-126557652D01*
X126044921Y-126540721D01*
X125732754Y-126497465D01*
X124865941Y-126325218D01*
X124025799Y-126080381D01*
X123215189Y-125764318D01*
X122436977Y-125378396D01*
X121728180Y-124944867D01*
X122384121Y-124944867D01*
X122403600Y-124964346D01*
X122423078Y-124944867D01*
X122403600Y-124925389D01*
X122384121Y-124944867D01*
X121728180Y-124944867D01*
X121694026Y-124923977D01*
X120989200Y-124402428D01*
X120325362Y-123815112D01*
X119916060Y-123401244D01*
X119434705Y-122851071D01*
X119008671Y-122280566D01*
X118625454Y-121672640D01*
X118272545Y-121010204D01*
X117956132Y-120308902D01*
X117691987Y-119583717D01*
X117488358Y-118843978D01*
X117338661Y-118068947D01*
X117320849Y-117938778D01*
X117292447Y-117647465D01*
X117270663Y-117309597D01*
X117255997Y-116945431D01*
X117252245Y-116748360D01*
X117618296Y-116748360D01*
X117628583Y-117157131D01*
X117651170Y-117533293D01*
X117686064Y-117854683D01*
X117771677Y-118365769D01*
X117975313Y-119227642D01*
X118247448Y-120054482D01*
X118586716Y-120844105D01*
X118991750Y-121594327D01*
X119461185Y-122302965D01*
X119993653Y-122967836D01*
X120587788Y-123586755D01*
X121242224Y-124157538D01*
X121955594Y-124678003D01*
X122115091Y-124783663D01*
X122234045Y-124860070D01*
X122299822Y-124897470D01*
X122318276Y-124898434D01*
X122295260Y-124865529D01*
X122236627Y-124801324D01*
X122217432Y-124780194D01*
X122111674Y-124610514D01*
X122082267Y-124432790D01*
X122129993Y-124251056D01*
X122233182Y-124106370D01*
X122378296Y-124006141D01*
X122543653Y-123963844D01*
X122709741Y-123988322D01*
X122721596Y-123992852D01*
X122783363Y-124023606D01*
X122791575Y-124064914D01*
X122754466Y-124145759D01*
X122744304Y-124165455D01*
X122714547Y-124234176D01*
X122731831Y-124259499D01*
X122805611Y-124263119D01*
X122859909Y-124258653D01*
X122969234Y-124210343D01*
X123029067Y-124122889D01*
X123036506Y-124013732D01*
X122988652Y-123900316D01*
X122882603Y-123800084D01*
X122824564Y-123761848D01*
X122769780Y-123713626D01*
X122764043Y-123666315D01*
X122796609Y-123594199D01*
X122813384Y-123562778D01*
X122848957Y-123516691D01*
X122893470Y-123511200D01*
X122964529Y-123548606D01*
X123079743Y-123631210D01*
X123161973Y-123705492D01*
X123257800Y-123857026D01*
X123295061Y-124022644D01*
X123276659Y-124186675D01*
X123205496Y-124333451D01*
X123084474Y-124447302D01*
X122916497Y-124512558D01*
X122894228Y-124516161D01*
X122776666Y-124517817D01*
X122674771Y-124495200D01*
X122604021Y-124456190D01*
X122579893Y-124408667D01*
X122617864Y-124360511D01*
X122621025Y-124358491D01*
X122658635Y-124302535D01*
X122635220Y-124248423D01*
X122562211Y-124224162D01*
X122460534Y-124248306D01*
X122376291Y-124331722D01*
X122345164Y-124460442D01*
X122353365Y-124523443D01*
X122400529Y-124602076D01*
X122503518Y-124688997D01*
X122558420Y-124727844D01*
X122651185Y-124789138D01*
X122708043Y-124820768D01*
X122717332Y-124825613D01*
X122726948Y-124869349D01*
X122694155Y-124944867D01*
X122687604Y-124959952D01*
X122620994Y-125082077D01*
X123018627Y-125281619D01*
X123129565Y-125336046D01*
X123348064Y-125438088D01*
X123565320Y-125534125D01*
X123747506Y-125608964D01*
X124078753Y-125736767D01*
X124098232Y-125905695D01*
X124117710Y-126074622D01*
X124565716Y-126203356D01*
X124572925Y-126205419D01*
X124791419Y-126263021D01*
X125053383Y-126324873D01*
X125326536Y-126383683D01*
X125578600Y-126432160D01*
X125737824Y-126459310D01*
X125921502Y-126486560D01*
X126100307Y-126506939D01*
X126290795Y-126521667D01*
X126509523Y-126531964D01*
X126773047Y-126539051D01*
X127097925Y-126544148D01*
X127255327Y-126545597D01*
X127537214Y-126545748D01*
X127802372Y-126542971D01*
X128035508Y-126537560D01*
X128221331Y-126529813D01*
X128344551Y-126520025D01*
X128454145Y-126505463D01*
X128637255Y-126478222D01*
X128838275Y-126445820D01*
X129041382Y-126411064D01*
X129230753Y-126376763D01*
X129390562Y-126345724D01*
X129504987Y-126320756D01*
X129558203Y-126304666D01*
X129563082Y-126300064D01*
X129583071Y-126239549D01*
X129591177Y-126140141D01*
X129591177Y-125995995D01*
X129931985Y-125905712D01*
X129988909Y-125890153D01*
X130202156Y-125826484D01*
X130433824Y-125751118D01*
X130642952Y-125677219D01*
X130777215Y-125624548D01*
X130950552Y-125552248D01*
X131142749Y-125468952D01*
X131340871Y-125380589D01*
X131531980Y-125293086D01*
X131703140Y-125212372D01*
X131841414Y-125144374D01*
X131933865Y-125095021D01*
X131967557Y-125070241D01*
X131955982Y-125065656D01*
X131887945Y-125064402D01*
X131779223Y-125071793D01*
X131687959Y-125074843D01*
X131498805Y-125036701D01*
X131479851Y-125024152D01*
X132006514Y-125024152D01*
X132009216Y-125037244D01*
X132036704Y-125032763D01*
X132106200Y-124981675D01*
X132147249Y-124948172D01*
X132153961Y-124936080D01*
X132094167Y-124963567D01*
X132037111Y-124995606D01*
X132006514Y-125024152D01*
X131479851Y-125024152D01*
X131353499Y-124940497D01*
X131331603Y-124905910D01*
X132201299Y-124905910D01*
X132220778Y-124925389D01*
X132240256Y-124905910D01*
X132220778Y-124886431D01*
X132201299Y-124905910D01*
X131331603Y-124905910D01*
X131260277Y-124793243D01*
X131227373Y-124601949D01*
X131228038Y-124585388D01*
X131254856Y-124472392D01*
X131309935Y-124351279D01*
X131378222Y-124250108D01*
X131444663Y-124196938D01*
X131485773Y-124214493D01*
X131531481Y-124281588D01*
X131536840Y-124293059D01*
X131587871Y-124366998D01*
X131636427Y-124363500D01*
X131687769Y-124282597D01*
X131712300Y-124195787D01*
X131687344Y-124086878D01*
X131678565Y-124069413D01*
X131592439Y-123984597D01*
X131468935Y-123962167D01*
X131319333Y-124004643D01*
X131232983Y-124043861D01*
X131160038Y-124062703D01*
X131116229Y-124039542D01*
X131078756Y-123971211D01*
X131061214Y-123927513D01*
X131063705Y-123867654D01*
X131126159Y-123814034D01*
X131272282Y-123741955D01*
X131435202Y-123701457D01*
X131574684Y-123704796D01*
X131730372Y-123771425D01*
X131858069Y-123891062D01*
X131936387Y-124043244D01*
X131960229Y-124211165D01*
X131924495Y-124378019D01*
X131824088Y-124527000D01*
X131724741Y-124626348D01*
X131661819Y-124522647D01*
X131649797Y-124503323D01*
X131590613Y-124432430D01*
X131543332Y-124434224D01*
X131496918Y-124507704D01*
X131483774Y-124544616D01*
X131484106Y-124667008D01*
X131541282Y-124772095D01*
X131643307Y-124833205D01*
X131695384Y-124840146D01*
X131802893Y-124820572D01*
X131946602Y-124754868D01*
X132030630Y-124711114D01*
X132108650Y-124679037D01*
X132152558Y-124680817D01*
X132181821Y-124712988D01*
X132205121Y-124750962D01*
X132246676Y-124810845D01*
X132288263Y-124840569D01*
X132342839Y-124837520D01*
X132423363Y-124799083D01*
X132542791Y-124722643D01*
X132714082Y-124605587D01*
X132963430Y-124429212D01*
X133649741Y-123882002D01*
X134275298Y-123286131D01*
X134839440Y-122642482D01*
X135341504Y-121951938D01*
X135780826Y-121215379D01*
X136156744Y-120433689D01*
X136468595Y-119607750D01*
X136534464Y-119401774D01*
X136686814Y-118854622D01*
X136799527Y-118318945D01*
X136875833Y-117773576D01*
X136918959Y-117197350D01*
X136932136Y-116569100D01*
X136931437Y-116411715D01*
X136922677Y-115998955D01*
X136901733Y-115633133D01*
X136865829Y-115291559D01*
X136812192Y-114951542D01*
X136738046Y-114590394D01*
X136640616Y-114185424D01*
X136543445Y-113830962D01*
X136268049Y-113032173D01*
X135924988Y-112265994D01*
X135517946Y-111536071D01*
X135050606Y-110846052D01*
X134526653Y-110199581D01*
X133949770Y-109600307D01*
X133323642Y-109051876D01*
X132651954Y-108557934D01*
X131938388Y-108122127D01*
X131186630Y-107748103D01*
X130400363Y-107439507D01*
X129583271Y-107199987D01*
X129447057Y-107167075D01*
X129135935Y-107096996D01*
X128853708Y-107043085D01*
X128582596Y-107003425D01*
X128304823Y-106976102D01*
X128002610Y-106959199D01*
X127658180Y-106950802D01*
X127253753Y-106948996D01*
X126925409Y-106950545D01*
X126659240Y-106954400D01*
X126440576Y-106961477D01*
X126254209Y-106972691D01*
X126084929Y-106988956D01*
X125917527Y-107011189D01*
X125736792Y-107040305D01*
X125527493Y-107078345D01*
X124686328Y-107278680D01*
X123870228Y-107549230D01*
X123084111Y-107887149D01*
X122332898Y-108289593D01*
X121621509Y-108753716D01*
X120954864Y-109276674D01*
X120337882Y-109855620D01*
X119775483Y-110487711D01*
X119418877Y-110962028D01*
X119058954Y-111512079D01*
X118726354Y-112093230D01*
X118434429Y-112682077D01*
X118196534Y-113255212D01*
X118146259Y-113397200D01*
X118033659Y-113756340D01*
X117924874Y-114154857D01*
X117826422Y-114566332D01*
X117744819Y-114964345D01*
X117686584Y-115322474D01*
X117661198Y-115548022D01*
X117634608Y-115921642D01*
X117620306Y-116329142D01*
X117618296Y-116748360D01*
X117252245Y-116748360D01*
X117248949Y-116575227D01*
X117250018Y-116219242D01*
X117259706Y-115897735D01*
X117278511Y-115630964D01*
X117348567Y-115082768D01*
X117521845Y-114213184D01*
X117767828Y-113369726D01*
X118085196Y-112555255D01*
X118472629Y-111772631D01*
X118928806Y-111024712D01*
X119452409Y-110314360D01*
X120042115Y-109644432D01*
X120395316Y-109294030D01*
X121047743Y-108729456D01*
X121737882Y-108229378D01*
X122461206Y-107794282D01*
X123213188Y-107424654D01*
X123989303Y-107120980D01*
X124785022Y-106883745D01*
X125595819Y-106713436D01*
X126417168Y-106610538D01*
X127244542Y-106575538D01*
X128073414Y-106608919D01*
X128899258Y-106711169D01*
X129717546Y-106882775D01*
X130523752Y-107124221D01*
X131313350Y-107435994D01*
X132081812Y-107818578D01*
X132824612Y-108272461D01*
X132933228Y-108346480D01*
X133639396Y-108880635D01*
X134289820Y-109467525D01*
X134882356Y-110103565D01*
X135414857Y-110785171D01*
X135885178Y-111508759D01*
X136291175Y-112270744D01*
X136630700Y-113067541D01*
X136901609Y-113895567D01*
X137101756Y-114751236D01*
X137228996Y-115630964D01*
X137239965Y-115762043D01*
X137253926Y-116059935D01*
X137259051Y-116402324D01*
X137257589Y-116569100D01*
X137255839Y-116768845D01*
G37*
G36*
X128749575Y-125402957D02*
G01*
X128770647Y-125604945D01*
X128789620Y-125802904D01*
X128802944Y-125961195D01*
X128809569Y-126067235D01*
X128808445Y-126108443D01*
X128771301Y-126123925D01*
X128689922Y-126146669D01*
X128665555Y-126152243D01*
X128619917Y-126154366D01*
X128592988Y-126126097D01*
X128575930Y-126051728D01*
X128559905Y-125915546D01*
X128551012Y-125839626D01*
X128531897Y-125733139D01*
X128507938Y-125685046D01*
X128474307Y-125682191D01*
X128436861Y-125692974D01*
X128341365Y-125704530D01*
X128299135Y-125711135D01*
X128266637Y-125742025D01*
X128259044Y-125778236D01*
X128230068Y-125871241D01*
X128186845Y-125992783D01*
X128144439Y-126094184D01*
X128085380Y-126185974D01*
X128021278Y-126222681D01*
X127964742Y-126233576D01*
X127906284Y-126244623D01*
X127903790Y-126245015D01*
X127881748Y-126233744D01*
X127884119Y-126183845D01*
X127913114Y-126084373D01*
X127970943Y-125924384D01*
X128064821Y-125674976D01*
X127977539Y-125628264D01*
X127967829Y-125622868D01*
X127851019Y-125515177D01*
X127782999Y-125368386D01*
X127763426Y-125202487D01*
X127767278Y-125180207D01*
X127999884Y-125180207D01*
X128014889Y-125288736D01*
X128096584Y-125390046D01*
X128102580Y-125394696D01*
X128184621Y-125446767D01*
X128242673Y-125464950D01*
X128365410Y-125448356D01*
X128453223Y-125429627D01*
X128492375Y-125399080D01*
X128498136Y-125343089D01*
X128485777Y-125248028D01*
X128479186Y-125197961D01*
X128466472Y-125086400D01*
X128461422Y-125017344D01*
X128461407Y-125016282D01*
X128423649Y-124977297D01*
X128312940Y-124964346D01*
X128276488Y-124965807D01*
X128138536Y-125003292D01*
X128043718Y-125079908D01*
X127999884Y-125180207D01*
X127767278Y-125180207D01*
X127791956Y-125037473D01*
X127868246Y-124893335D01*
X127991951Y-124790066D01*
X128085654Y-124759569D01*
X128229254Y-124734530D01*
X128390167Y-124721232D01*
X128674818Y-124711125D01*
X128743106Y-125343089D01*
X128749575Y-125402957D01*
G37*
G36*
X126611698Y-124751423D02*
G01*
X126654599Y-124787187D01*
X126657003Y-124799557D01*
X126658721Y-124880920D01*
X126653857Y-125019046D01*
X126643480Y-125198643D01*
X126628655Y-125404421D01*
X126610451Y-125621088D01*
X126589932Y-125833353D01*
X126568167Y-126025925D01*
X126559027Y-126093198D01*
X126538493Y-126172216D01*
X126501150Y-126204679D01*
X126432000Y-126210971D01*
X126419811Y-126211063D01*
X126379430Y-126210608D01*
X126350413Y-126201452D01*
X126332081Y-126173749D01*
X126323754Y-126117650D01*
X126324753Y-126023309D01*
X126334400Y-125880877D01*
X126352014Y-125680507D01*
X126376917Y-125412352D01*
X126389593Y-125275099D01*
X126407575Y-125078132D01*
X126421989Y-124917413D01*
X126431605Y-124806717D01*
X126435194Y-124759821D01*
X126435249Y-124758570D01*
X126468089Y-124732882D01*
X126538217Y-124731911D01*
X126611698Y-124751423D01*
G37*
G36*
X124515031Y-124306386D02*
G01*
X124570971Y-124332413D01*
X124571410Y-124372806D01*
X124552015Y-124473305D01*
X124515526Y-124617343D01*
X124465606Y-124789039D01*
X124412708Y-124965543D01*
X124364800Y-125146235D01*
X124341726Y-125276972D01*
X124342475Y-125371048D01*
X124366039Y-125441759D01*
X124411406Y-125502399D01*
X124435525Y-125524396D01*
X124555121Y-125578173D01*
X124693065Y-125583916D01*
X124813015Y-125538370D01*
X124814276Y-125537389D01*
X124852309Y-125479482D01*
X124904866Y-125363553D01*
X124965264Y-125205743D01*
X125026818Y-125022189D01*
X125074938Y-124872182D01*
X125129808Y-124716510D01*
X125173739Y-124617473D01*
X125211859Y-124564078D01*
X125249298Y-124545334D01*
X125304259Y-124541247D01*
X125357796Y-124554612D01*
X125381982Y-124599971D01*
X125377605Y-124687668D01*
X125345453Y-124828051D01*
X125286314Y-125031465D01*
X125267957Y-125091622D01*
X125195737Y-125318063D01*
X125134610Y-125483922D01*
X125077776Y-125601354D01*
X125018438Y-125682516D01*
X124949796Y-125739562D01*
X124865050Y-125784650D01*
X124821072Y-125803452D01*
X124706654Y-125842926D01*
X124624152Y-125858647D01*
X124503349Y-125835322D01*
X124364207Y-125773109D01*
X124240891Y-125689110D01*
X124163943Y-125600459D01*
X124129301Y-125526604D01*
X124096709Y-125422792D01*
X124087582Y-125311597D01*
X124102831Y-125176604D01*
X124143369Y-125001397D01*
X124210108Y-124769560D01*
X124263559Y-124594501D01*
X124310548Y-124450984D01*
X124346897Y-124360733D01*
X124378477Y-124312135D01*
X124411157Y-124293580D01*
X124450808Y-124293456D01*
X124515031Y-124306386D01*
G37*
G36*
X129922928Y-124391140D02*
G01*
X129935446Y-124428791D01*
X129969001Y-124531461D01*
X130018745Y-124684463D01*
X130080448Y-124874778D01*
X130149878Y-125089385D01*
X130360262Y-125740346D01*
X130258158Y-125777798D01*
X130183752Y-125803994D01*
X130136575Y-125818282D01*
X130122438Y-125792295D01*
X130087922Y-125703007D01*
X130037844Y-125561465D01*
X129976366Y-125379471D01*
X129907647Y-125168827D01*
X129849546Y-124988082D01*
X129786656Y-124793065D01*
X129734952Y-124633431D01*
X129698627Y-124522120D01*
X129681874Y-124472071D01*
X129680932Y-124468248D01*
X129708665Y-124426094D01*
X129785956Y-124385829D01*
X129814819Y-124376294D01*
X129890743Y-124363826D01*
X129922928Y-124391140D01*
G37*
G36*
X134549661Y-113336521D02*
G01*
X134832205Y-114075215D01*
X134876182Y-114231677D01*
X135026815Y-114767594D01*
X135169761Y-115542541D01*
X135235869Y-116320002D01*
X135234085Y-116452229D01*
X135225395Y-117096240D01*
X135138592Y-117867517D01*
X134975713Y-118630093D01*
X134737011Y-119380231D01*
X134422740Y-120114192D01*
X134151588Y-120621424D01*
X134113972Y-120691790D01*
X133683577Y-121351937D01*
X133196408Y-121961504D01*
X132655485Y-122517440D01*
X132063830Y-123016692D01*
X131424465Y-123456211D01*
X130740410Y-123832946D01*
X130738364Y-123833944D01*
X130547430Y-123923386D01*
X130338994Y-124014961D01*
X130127766Y-124102875D01*
X129928454Y-124181337D01*
X129755768Y-124244552D01*
X129624419Y-124286729D01*
X129549116Y-124302076D01*
X129544418Y-124300902D01*
X129522270Y-124255860D01*
X129513263Y-124165726D01*
X129512084Y-124115635D01*
X129497899Y-124056836D01*
X129455328Y-124035378D01*
X129369253Y-124047203D01*
X129224559Y-124088256D01*
X129118532Y-124117492D01*
X128900111Y-124168126D01*
X128641716Y-124219842D01*
X128366438Y-124268401D01*
X128097365Y-124309568D01*
X127857588Y-124339104D01*
X127413380Y-124366537D01*
X126825100Y-124356547D01*
X126215017Y-124300353D01*
X125603594Y-124200709D01*
X125011296Y-124060364D01*
X124458585Y-123882071D01*
X124137189Y-123762119D01*
X124137189Y-123915226D01*
X124136278Y-123947015D01*
X124121627Y-124033735D01*
X124094569Y-124068333D01*
X124087249Y-124067700D01*
X124010487Y-124042656D01*
X123882263Y-123986173D01*
X123715816Y-123905193D01*
X123524390Y-123806658D01*
X123321223Y-123697510D01*
X123119557Y-123584691D01*
X122932633Y-123475144D01*
X122773692Y-123375809D01*
X122670144Y-123307318D01*
X122319864Y-123060848D01*
X122002694Y-122809885D01*
X121693839Y-122533897D01*
X121368503Y-122212356D01*
X121285205Y-122125598D01*
X120765649Y-121522367D01*
X120315170Y-120883170D01*
X119933966Y-120208449D01*
X119622236Y-119498648D01*
X119380179Y-118754210D01*
X119207993Y-117975578D01*
X119139755Y-117432714D01*
X119970911Y-117432714D01*
X119978522Y-117580679D01*
X120008364Y-117793587D01*
X120072420Y-118063419D01*
X120162504Y-118356982D01*
X120271145Y-118652249D01*
X120390869Y-118927191D01*
X120514205Y-119159781D01*
X120551982Y-119222210D01*
X120638542Y-119360980D01*
X120726700Y-119494502D01*
X120824446Y-119633674D01*
X120939769Y-119789393D01*
X121080661Y-119972556D01*
X121255112Y-120194061D01*
X121471113Y-120464806D01*
X121626310Y-120662052D01*
X121783397Y-120874205D01*
X121910052Y-121064622D01*
X122019070Y-121252794D01*
X122123246Y-121458211D01*
X122246341Y-121698516D01*
X122378305Y-121914844D01*
X122495235Y-122057786D01*
X122495922Y-122058450D01*
X122607823Y-122153971D01*
X122710376Y-122203577D01*
X122839382Y-122224625D01*
X122856729Y-122225851D01*
X123047764Y-122207483D01*
X123194349Y-122125748D01*
X123299392Y-121979093D01*
X123336199Y-121883552D01*
X123350752Y-121781647D01*
X123342495Y-121728187D01*
X124526759Y-121728187D01*
X124529740Y-121778031D01*
X124530634Y-121781647D01*
X124575436Y-121962955D01*
X124669018Y-122179833D01*
X124801126Y-122415389D01*
X124962397Y-122656349D01*
X125143470Y-122889437D01*
X125334982Y-123101378D01*
X125527573Y-123278897D01*
X125711880Y-123408719D01*
X125842255Y-123473760D01*
X126027485Y-123522079D01*
X126185783Y-123500511D01*
X126321781Y-123409060D01*
X126374032Y-123349496D01*
X126425169Y-123242049D01*
X126425891Y-123113650D01*
X126378797Y-122943049D01*
X126353041Y-122876923D01*
X126275456Y-122725693D01*
X126163050Y-122559114D01*
X126007547Y-122365598D01*
X125800668Y-122133552D01*
X125716417Y-122039738D01*
X125578409Y-121876820D01*
X125456318Y-121722241D01*
X125369344Y-121599762D01*
X125318527Y-121526079D01*
X125172876Y-121370346D01*
X125021951Y-121282946D01*
X124872180Y-121266649D01*
X124729990Y-121324226D01*
X124641321Y-121411542D01*
X124558382Y-121563776D01*
X124526759Y-121728187D01*
X123342495Y-121728187D01*
X123334224Y-121674633D01*
X123282191Y-121554623D01*
X123190227Y-121413728D01*
X123053908Y-121244062D01*
X122868808Y-121037737D01*
X122630501Y-120786866D01*
X122387487Y-120528488D01*
X122307843Y-120436395D01*
X125348897Y-120436395D01*
X125356726Y-120523100D01*
X125406479Y-120577509D01*
X125422228Y-120583069D01*
X125528823Y-120590479D01*
X125596768Y-120541220D01*
X125611226Y-120444900D01*
X125607371Y-120424840D01*
X125560425Y-120336444D01*
X125486306Y-120299231D01*
X125406559Y-120325746D01*
X125382981Y-120350763D01*
X125348897Y-120436395D01*
X122307843Y-120436395D01*
X122050516Y-120138845D01*
X121794456Y-119800575D01*
X123085348Y-119800575D01*
X123086763Y-119829507D01*
X123122012Y-119965294D01*
X123191578Y-120090505D01*
X123277976Y-120171473D01*
X123301624Y-120183092D01*
X123455896Y-120216366D01*
X123607453Y-120188697D01*
X123738161Y-120110275D01*
X123829885Y-119991289D01*
X123864490Y-119841928D01*
X123850635Y-119704745D01*
X123789523Y-119580781D01*
X123670484Y-119491283D01*
X123644340Y-119478371D01*
X123490480Y-119434739D01*
X123353434Y-119462746D01*
X123217802Y-119564898D01*
X123215883Y-119566824D01*
X123119565Y-119690609D01*
X123085348Y-119800575D01*
X121794456Y-119800575D01*
X121765183Y-119761903D01*
X121521215Y-119382524D01*
X121308339Y-118985572D01*
X121116280Y-118555910D01*
X121086792Y-118484764D01*
X121011014Y-118307229D01*
X120939602Y-118146354D01*
X120884815Y-118029990D01*
X120864524Y-117985793D01*
X120806657Y-117820793D01*
X120770473Y-117659898D01*
X120740606Y-117488392D01*
X120678080Y-117289376D01*
X120590029Y-117155370D01*
X120471517Y-117079793D01*
X120317607Y-117056063D01*
X120251925Y-117059756D01*
X120155619Y-117094485D01*
X120065058Y-117181369D01*
X120052339Y-117196634D01*
X120002247Y-117266406D01*
X119976962Y-117336528D01*
X119970911Y-117432714D01*
X119139755Y-117432714D01*
X119105876Y-117163195D01*
X119097347Y-117045763D01*
X119087676Y-116292727D01*
X119116732Y-115963975D01*
X120007741Y-115963975D01*
X120015792Y-116005240D01*
X120080189Y-116117870D01*
X120206565Y-116267247D01*
X120392020Y-116450594D01*
X120633653Y-116665130D01*
X120928562Y-116908078D01*
X121273845Y-117176659D01*
X121471949Y-117324002D01*
X121800332Y-117558613D01*
X122163660Y-117808904D01*
X122549764Y-118067087D01*
X122946472Y-118325374D01*
X123341614Y-118575974D01*
X123723019Y-118811100D01*
X124078517Y-119022961D01*
X124395938Y-119203770D01*
X124663109Y-119345736D01*
X124727438Y-119378915D01*
X124893998Y-119477371D01*
X125017536Y-119577428D01*
X125122116Y-119697531D01*
X125241306Y-119832591D01*
X125254133Y-119841928D01*
X125416601Y-119960196D01*
X125596693Y-120014738D01*
X125776132Y-119994887D01*
X125949466Y-119899313D01*
X126032785Y-119839252D01*
X126124045Y-119801566D01*
X126217783Y-119804688D01*
X126219735Y-119805061D01*
X126298071Y-119821103D01*
X126437705Y-119850685D01*
X126624507Y-119890775D01*
X126844345Y-119938340D01*
X127083087Y-119990349D01*
X127827911Y-120153149D01*
X127627692Y-120444900D01*
X127356096Y-120840658D01*
X126884281Y-121528166D01*
X126754889Y-121507168D01*
X126634144Y-121508494D01*
X126512675Y-121569583D01*
X126470593Y-121600130D01*
X126398297Y-121644236D01*
X126365480Y-121641020D01*
X126357741Y-121592626D01*
X126356199Y-121570468D01*
X126315813Y-121449632D01*
X126232940Y-121309094D01*
X126124113Y-121170518D01*
X126005868Y-121055570D01*
X125894737Y-120985917D01*
X125808402Y-120971212D01*
X125705087Y-121013084D01*
X125646035Y-121061875D01*
X125622389Y-121126182D01*
X125629464Y-121233898D01*
X125637808Y-121279761D01*
X125700275Y-121446019D01*
X125802323Y-121603381D01*
X125928899Y-121735288D01*
X126064950Y-121825181D01*
X126195424Y-121856500D01*
X126243936Y-121857607D01*
X126303920Y-121885799D01*
X126333164Y-121968377D01*
X126339530Y-121995500D01*
X126416061Y-122143370D01*
X126544383Y-122241040D01*
X126709580Y-122276309D01*
X126717198Y-122276244D01*
X126879493Y-122240031D01*
X127002902Y-122147329D01*
X127078894Y-122012931D01*
X127098937Y-121851632D01*
X127054499Y-121678224D01*
X127047543Y-121660266D01*
X127042967Y-121622353D01*
X127054157Y-121572931D01*
X127085953Y-121503297D01*
X127143198Y-121404747D01*
X127230735Y-121268576D01*
X127353404Y-121086079D01*
X127516050Y-120848554D01*
X127623881Y-120693163D01*
X127809752Y-120433910D01*
X127959613Y-120237808D01*
X128072384Y-120106239D01*
X128146984Y-120040590D01*
X128206412Y-120008174D01*
X128264662Y-119989338D01*
X128335967Y-119987839D01*
X128441345Y-120003464D01*
X128601809Y-120036003D01*
X128662573Y-120049179D01*
X128803105Y-120083280D01*
X128904611Y-120113185D01*
X128948352Y-120133616D01*
X128951428Y-120149838D01*
X128913471Y-120205701D01*
X128820195Y-120275146D01*
X128684096Y-120348033D01*
X128563562Y-120429304D01*
X128435892Y-120588489D01*
X128368558Y-120687055D01*
X128256604Y-120823819D01*
X128136102Y-120950304D01*
X128074991Y-121008922D01*
X127999233Y-121087107D01*
X127968221Y-121137257D01*
X127974142Y-121175957D01*
X128009186Y-121219794D01*
X128096636Y-121287883D01*
X128208404Y-121341406D01*
X128248924Y-121355738D01*
X128299518Y-121385143D01*
X128331711Y-121435815D01*
X128355030Y-121526414D01*
X128379000Y-121675599D01*
X128395688Y-121792438D01*
X128415243Y-121966714D01*
X128419171Y-122099197D01*
X128407520Y-122212462D01*
X128380333Y-122329084D01*
X128341501Y-122421711D01*
X128256598Y-122554156D01*
X128149503Y-122682204D01*
X128038993Y-122783976D01*
X127943851Y-122837594D01*
X127918472Y-122847614D01*
X127823854Y-122925369D01*
X127722008Y-123061279D01*
X127693443Y-123113650D01*
X127623281Y-123242283D01*
X127609163Y-123276371D01*
X127594022Y-123418253D01*
X127652143Y-123541845D01*
X127780028Y-123638310D01*
X127890304Y-123670664D01*
X128079968Y-123694130D01*
X128344551Y-123706890D01*
X128545894Y-123707108D01*
X128779770Y-123691765D01*
X129012903Y-123655730D01*
X129262843Y-123595353D01*
X129547142Y-123506986D01*
X129883355Y-123386980D01*
X130154504Y-123280819D01*
X130413929Y-123163094D01*
X130629875Y-123042007D01*
X130820038Y-122907474D01*
X131002111Y-122749411D01*
X131060654Y-122691686D01*
X131206194Y-122524295D01*
X131331974Y-122346622D01*
X131432732Y-122170151D01*
X131503205Y-122006364D01*
X131538133Y-121866742D01*
X131532252Y-121762770D01*
X131480300Y-121705928D01*
X131422912Y-121693903D01*
X131273980Y-121715488D01*
X131081495Y-121796836D01*
X130848409Y-121936871D01*
X130710866Y-122025531D01*
X130584101Y-122094588D01*
X130482491Y-122129851D01*
X130386764Y-122139793D01*
X130386091Y-122139793D01*
X130204039Y-122100917D01*
X130025084Y-121985107D01*
X129850089Y-121793307D01*
X129679914Y-121526460D01*
X129515423Y-121185511D01*
X129468294Y-121073311D01*
X129411247Y-120931309D01*
X129372416Y-120826696D01*
X129358327Y-120776462D01*
X129368715Y-120760751D01*
X129432039Y-120708616D01*
X129540047Y-120634733D01*
X129677837Y-120549679D01*
X129996325Y-120361854D01*
X130240024Y-120423069D01*
X130359127Y-120450155D01*
X130496701Y-120474817D01*
X130592588Y-120484354D01*
X130665596Y-120497578D01*
X130733909Y-120550653D01*
X130812145Y-120659633D01*
X130943830Y-120835425D01*
X131086725Y-120951920D01*
X131229440Y-120990726D01*
X131270224Y-120989388D01*
X131421188Y-120949835D01*
X131516828Y-120855435D01*
X131557121Y-120706224D01*
X131542045Y-120502238D01*
X131524567Y-120418457D01*
X131490904Y-120292055D01*
X131459256Y-120208111D01*
X131435803Y-120152775D01*
X131433520Y-120109323D01*
X131438171Y-120107300D01*
X131496859Y-120116749D01*
X131605199Y-120151193D01*
X131746187Y-120204003D01*
X131902819Y-120268545D01*
X132058091Y-120338189D01*
X132195000Y-120406302D01*
X132196740Y-120407231D01*
X132316633Y-120474910D01*
X132382743Y-120528001D01*
X132411351Y-120585400D01*
X132418737Y-120666006D01*
X132421155Y-120705719D01*
X132456059Y-120816381D01*
X132545962Y-120918844D01*
X132675076Y-121003693D01*
X132819980Y-121024194D01*
X132981220Y-120970844D01*
X133080894Y-120901904D01*
X133153288Y-120786030D01*
X133175226Y-120621424D01*
X133159448Y-120520216D01*
X133084500Y-120390310D01*
X132964456Y-120298699D01*
X132817816Y-120257724D01*
X132663078Y-120279728D01*
X132640875Y-120287146D01*
X132574939Y-120295958D01*
X132489921Y-120284328D01*
X132368342Y-120248762D01*
X132192724Y-120185771D01*
X132128707Y-120161557D01*
X131928075Y-120082716D01*
X131731352Y-120001779D01*
X131573264Y-119932919D01*
X131315322Y-119815105D01*
X131292209Y-119619953D01*
X131290435Y-119605376D01*
X131248391Y-119395962D01*
X131219266Y-119335504D01*
X133222092Y-119335504D01*
X133223655Y-119430643D01*
X133275805Y-119486711D01*
X133307799Y-119498406D01*
X133348949Y-119510358D01*
X133368132Y-119497481D01*
X133399456Y-119453465D01*
X133447147Y-119370466D01*
X133515482Y-119240640D01*
X133608735Y-119056143D01*
X133731182Y-118809131D01*
X133887799Y-118481308D01*
X134048221Y-118110069D01*
X134170141Y-117773240D01*
X134257780Y-117454932D01*
X134315358Y-117139255D01*
X134347097Y-116810317D01*
X134357216Y-116452229D01*
X134351908Y-116115099D01*
X134328705Y-115773163D01*
X134285573Y-115493870D01*
X134220859Y-115269896D01*
X134132909Y-115093913D01*
X134020069Y-114958596D01*
X133948585Y-114902231D01*
X133867232Y-114876585D01*
X133805648Y-114914295D01*
X133762903Y-115017976D01*
X133738068Y-115190244D01*
X133734054Y-115314670D01*
X133730214Y-115433714D01*
X133738410Y-115751002D01*
X133752164Y-116058924D01*
X133766752Y-116393244D01*
X133777837Y-116665715D01*
X133785439Y-116885337D01*
X133789579Y-117061110D01*
X133790277Y-117202032D01*
X133787555Y-117317102D01*
X133781432Y-117415321D01*
X133771930Y-117505686D01*
X133759069Y-117597198D01*
X133742868Y-117698855D01*
X133710512Y-117860772D01*
X133659621Y-118067582D01*
X133596079Y-118298127D01*
X133525034Y-118535828D01*
X133451631Y-118764102D01*
X133381015Y-118966367D01*
X133318335Y-119126043D01*
X133268735Y-119226549D01*
X133222092Y-119335504D01*
X131219266Y-119335504D01*
X131173932Y-119241400D01*
X131053244Y-119121862D01*
X130872513Y-119017517D01*
X130859172Y-119011057D01*
X130732762Y-118943821D01*
X130638548Y-118883264D01*
X130596062Y-118841801D01*
X130590828Y-118824056D01*
X130568420Y-118738015D01*
X130532248Y-118593573D01*
X130485151Y-118402220D01*
X130429968Y-118175447D01*
X130369535Y-117924743D01*
X130161994Y-117059834D01*
X129976495Y-116980034D01*
X129926343Y-116958213D01*
X129832535Y-116918798D01*
X129763741Y-116900063D01*
X129716576Y-116910183D01*
X129687653Y-116957332D01*
X129673586Y-117049685D01*
X129670989Y-117195417D01*
X129676476Y-117402703D01*
X129686659Y-117679717D01*
X129714913Y-118459199D01*
X129618407Y-118422507D01*
X129598458Y-118414366D01*
X129501851Y-118370187D01*
X129366676Y-118304480D01*
X129215664Y-118228211D01*
X129194009Y-118217102D01*
X129104839Y-118171340D01*
X129025752Y-118128048D01*
X128954095Y-118082258D01*
X128887220Y-118029003D01*
X128822475Y-117963316D01*
X128757209Y-117880228D01*
X128688771Y-117774774D01*
X128614512Y-117641985D01*
X128531780Y-117476894D01*
X128437925Y-117274534D01*
X128330295Y-117029937D01*
X128206241Y-116738137D01*
X128063111Y-116394166D01*
X127898256Y-115993056D01*
X127709023Y-115529841D01*
X127492763Y-114999552D01*
X127095305Y-114025145D01*
X127893262Y-114025145D01*
X127919382Y-114136722D01*
X128010466Y-114366777D01*
X128147838Y-114617741D01*
X128320020Y-114874448D01*
X128515534Y-115121736D01*
X128722901Y-115344441D01*
X128930644Y-115527397D01*
X129127285Y-115655442D01*
X129188373Y-115683371D01*
X129370428Y-115728927D01*
X129533618Y-115717250D01*
X129665540Y-115653356D01*
X129753789Y-115542265D01*
X129785962Y-115388992D01*
X129785343Y-115365823D01*
X129765907Y-115278973D01*
X132298219Y-115278973D01*
X132309309Y-115388992D01*
X132315986Y-115455236D01*
X132399135Y-115620579D01*
X132547935Y-115759965D01*
X132571445Y-115774834D01*
X132745433Y-115839836D01*
X132919093Y-115837560D01*
X133078448Y-115775956D01*
X133209521Y-115662974D01*
X133298334Y-115506562D01*
X133330908Y-115314670D01*
X133298172Y-115133887D01*
X133207340Y-114981620D01*
X133073442Y-114870708D01*
X132911520Y-114809817D01*
X132736615Y-114807611D01*
X132563769Y-114872754D01*
X132457758Y-114953847D01*
X132345566Y-115106830D01*
X132298219Y-115278973D01*
X129765907Y-115278973D01*
X129742307Y-115173519D01*
X129633186Y-114949127D01*
X129460321Y-114696697D01*
X129226051Y-114420279D01*
X129105462Y-114285573D01*
X129032311Y-114199568D01*
X133354210Y-114199568D01*
X133379653Y-114331511D01*
X133448222Y-114450219D01*
X133545970Y-114524103D01*
X133627068Y-114549439D01*
X133706679Y-114562812D01*
X133725787Y-114560400D01*
X133810395Y-114513823D01*
X133897605Y-114426855D01*
X133965790Y-114324479D01*
X133993324Y-114231677D01*
X133993240Y-114226963D01*
X133958800Y-114121165D01*
X133878219Y-114015046D01*
X133775302Y-113933280D01*
X133673854Y-113900542D01*
X133567110Y-113923885D01*
X133446936Y-114004207D01*
X133367808Y-114120600D01*
X133354210Y-114199568D01*
X129032311Y-114199568D01*
X128959170Y-114113574D01*
X128830159Y-113953143D01*
X128736798Y-113826569D01*
X128710856Y-113789415D01*
X128563962Y-113616753D01*
X128420048Y-113509117D01*
X128286115Y-113472014D01*
X128183857Y-113490563D01*
X128055180Y-113570808D01*
X127955502Y-113698413D01*
X127897353Y-113855739D01*
X127893262Y-114025145D01*
X127095305Y-114025145D01*
X126713846Y-113089960D01*
X129207562Y-113089960D01*
X129220463Y-113216904D01*
X129297228Y-113337435D01*
X129332639Y-113368362D01*
X129456267Y-113423423D01*
X129581498Y-113417805D01*
X129692678Y-113362232D01*
X129774149Y-113267430D01*
X129810257Y-113144125D01*
X129785345Y-113003041D01*
X129730272Y-112908596D01*
X129666309Y-112847213D01*
X129572267Y-112813351D01*
X129440877Y-112818297D01*
X129328886Y-112875891D01*
X129247408Y-112971367D01*
X129207562Y-113089960D01*
X126713846Y-113089960D01*
X126391726Y-112300250D01*
X126508852Y-112190838D01*
X126529761Y-112170165D01*
X126630840Y-112014831D01*
X126669143Y-111840427D01*
X126648962Y-111663879D01*
X126574591Y-111502107D01*
X126450324Y-111372036D01*
X126280454Y-111290588D01*
X126122892Y-111271804D01*
X125941590Y-111311024D01*
X125789320Y-111410515D01*
X125679858Y-111560560D01*
X125664731Y-111615169D01*
X125626981Y-111751444D01*
X125621671Y-111801020D01*
X125599868Y-111901625D01*
X125554252Y-111964962D01*
X125466957Y-112021141D01*
X125419355Y-112046867D01*
X125344934Y-112077223D01*
X125286575Y-112070039D01*
X125208508Y-112025984D01*
X125190008Y-112014969D01*
X125051355Y-111962380D01*
X124926088Y-111961903D01*
X124835845Y-112014222D01*
X124825965Y-112028930D01*
X124793803Y-112119997D01*
X124776913Y-112237918D01*
X124769049Y-112400081D01*
X123683717Y-112990305D01*
X123533185Y-113072131D01*
X123261735Y-113219176D01*
X123047565Y-113333799D01*
X122883156Y-113419370D01*
X122760984Y-113479258D01*
X122673531Y-113516831D01*
X122613274Y-113535457D01*
X122572692Y-113538507D01*
X122544265Y-113529348D01*
X122520471Y-113511350D01*
X122497677Y-113491821D01*
X122290136Y-113366652D01*
X122064061Y-113310476D01*
X121834071Y-113322768D01*
X121614782Y-113403008D01*
X121420811Y-113550671D01*
X121308858Y-113695473D01*
X121232581Y-113898778D01*
X121224342Y-114135627D01*
X121231611Y-114225668D01*
X121224098Y-114299891D01*
X121183918Y-114344822D01*
X121097122Y-114388144D01*
X121044722Y-114410073D01*
X120948478Y-114431667D01*
X120871967Y-114410821D01*
X120867637Y-114408544D01*
X120721364Y-114370406D01*
X120574244Y-114393020D01*
X120445436Y-114465713D01*
X120354100Y-114577811D01*
X120319397Y-114718640D01*
X120339850Y-114823064D01*
X120420458Y-114946946D01*
X120543377Y-115035454D01*
X120688264Y-115069254D01*
X120814163Y-115049732D01*
X120936466Y-114970750D01*
X121008130Y-114837908D01*
X121023203Y-114658507D01*
X121022904Y-114649341D01*
X121055269Y-114578093D01*
X121156469Y-114512463D01*
X121295782Y-114446029D01*
X121413239Y-114579806D01*
X121545292Y-114696318D01*
X121748365Y-114793661D01*
X121971549Y-114829340D01*
X122196576Y-114801025D01*
X122405177Y-114706384D01*
X122475955Y-114653045D01*
X122623611Y-114484237D01*
X122718059Y-114283552D01*
X122752349Y-114069680D01*
X122719527Y-113861310D01*
X122712367Y-113840317D01*
X122686449Y-113748236D01*
X122691656Y-113699085D01*
X122729242Y-113667860D01*
X122737775Y-113663111D01*
X122806743Y-113625258D01*
X122932229Y-113556683D01*
X123105148Y-113462342D01*
X123316415Y-113347187D01*
X123556943Y-113216175D01*
X123817650Y-113074260D01*
X124842130Y-112516754D01*
X125044797Y-112712790D01*
X125204345Y-112851065D01*
X125391294Y-112970963D01*
X125559637Y-113033649D01*
X125702513Y-113039127D01*
X125813062Y-112987402D01*
X125884423Y-112878475D01*
X125909735Y-112712352D01*
X125907153Y-112655336D01*
X125867359Y-112515438D01*
X125771150Y-112401342D01*
X125607818Y-112298365D01*
X125571148Y-112279194D01*
X125492906Y-112234258D01*
X125461729Y-112209599D01*
X125461763Y-112209204D01*
X125492315Y-112179402D01*
X125562852Y-112129134D01*
X125632591Y-112088422D01*
X125677205Y-112091951D01*
X125723771Y-112148247D01*
X125740172Y-112168892D01*
X125851910Y-112254962D01*
X126000380Y-112317917D01*
X126151965Y-112342508D01*
X126157880Y-112342576D01*
X126179053Y-112345136D01*
X126200419Y-112355097D01*
X126224225Y-112377438D01*
X126252718Y-112417143D01*
X126288143Y-112479191D01*
X126332749Y-112568564D01*
X126388780Y-112690244D01*
X126458485Y-112849210D01*
X126544108Y-113050444D01*
X126647898Y-113298928D01*
X126772100Y-113599642D01*
X126918962Y-113957567D01*
X127090729Y-114377685D01*
X127289648Y-114864977D01*
X127404435Y-115146245D01*
X127572584Y-115558230D01*
X127731488Y-115947521D01*
X127878624Y-116307939D01*
X128011467Y-116633301D01*
X128127494Y-116917428D01*
X128224181Y-117154137D01*
X128299004Y-117337250D01*
X128349439Y-117460584D01*
X128372963Y-117517959D01*
X128426979Y-117648720D01*
X128220197Y-117532745D01*
X128137722Y-117487639D01*
X127993462Y-117410281D01*
X127802549Y-117308801D01*
X127576571Y-117189343D01*
X127327121Y-117058047D01*
X127065789Y-116921055D01*
X126998356Y-116885791D01*
X126715855Y-116738992D01*
X126485065Y-116622558D01*
X126291799Y-116531498D01*
X126121871Y-116460819D01*
X125961094Y-116405532D01*
X125795283Y-116360645D01*
X125610251Y-116321165D01*
X125391813Y-116282102D01*
X125125781Y-116238465D01*
X124848269Y-116193630D01*
X124826719Y-116030752D01*
X124825536Y-116021588D01*
X124813117Y-115912514D01*
X124796209Y-115749058D01*
X124776883Y-115551765D01*
X124757209Y-115341179D01*
X124709248Y-114814485D01*
X124817712Y-114642668D01*
X124866519Y-114561983D01*
X125006426Y-114269346D01*
X125079010Y-113995211D01*
X125084640Y-113744323D01*
X125023687Y-113521432D01*
X124896520Y-113331283D01*
X124703512Y-113178624D01*
X124569606Y-113112863D01*
X124329034Y-113053106D01*
X124094554Y-113063640D01*
X123877605Y-113141432D01*
X123689627Y-113283448D01*
X123542060Y-113486654D01*
X123521872Y-113527165D01*
X123482446Y-113639125D01*
X123462404Y-113773993D01*
X123456837Y-113958977D01*
X123457508Y-114010801D01*
X123480788Y-114237302D01*
X123543223Y-114446272D01*
X123652888Y-114658660D01*
X123817860Y-114895412D01*
X123967639Y-115091662D01*
X123938362Y-115362896D01*
X123927736Y-115503506D01*
X123923648Y-115692422D01*
X123930573Y-115851240D01*
X123952062Y-116068349D01*
X123392095Y-116001033D01*
X122934262Y-115948372D01*
X122310439Y-115885232D01*
X121743687Y-115838671D01*
X121240248Y-115809182D01*
X120806361Y-115797256D01*
X120710690Y-115796781D01*
X120458572Y-115799361D01*
X120272383Y-115809561D01*
X120143164Y-115829253D01*
X120061956Y-115860305D01*
X120019802Y-115904590D01*
X120007741Y-115963975D01*
X119116732Y-115963975D01*
X119154959Y-115531453D01*
X119298959Y-114763749D01*
X119519442Y-113991422D01*
X119623567Y-113699197D01*
X119932372Y-112991080D01*
X120306303Y-112320504D01*
X120741164Y-111691366D01*
X120858363Y-111552183D01*
X122694697Y-111552183D01*
X122729456Y-111735996D01*
X122822903Y-111895346D01*
X122969614Y-112011713D01*
X123037129Y-112039753D01*
X123215624Y-112062473D01*
X123393512Y-112024739D01*
X123548633Y-111933496D01*
X123658823Y-111795692D01*
X123667978Y-111775971D01*
X123704100Y-111615169D01*
X123694760Y-111438384D01*
X123641337Y-111285863D01*
X123636120Y-111277554D01*
X123552839Y-111190554D01*
X123539331Y-111181108D01*
X125054480Y-111181108D01*
X125111741Y-111301845D01*
X125203565Y-111382597D01*
X125326689Y-111407290D01*
X125333149Y-111407230D01*
X125468284Y-111373883D01*
X125563532Y-111292195D01*
X125610638Y-111181116D01*
X125601343Y-111059600D01*
X125527393Y-110946596D01*
X125441669Y-110888759D01*
X125321123Y-110865813D01*
X125208123Y-110895546D01*
X125116678Y-110965987D01*
X125060795Y-111065165D01*
X125054480Y-111181108D01*
X123539331Y-111181108D01*
X123432314Y-111106275D01*
X123304576Y-111042890D01*
X123199659Y-111018575D01*
X123090168Y-111042851D01*
X122955405Y-111108077D01*
X122833761Y-111195273D01*
X122756797Y-111285423D01*
X122724053Y-111362422D01*
X122694697Y-111552183D01*
X120858363Y-111552183D01*
X121232758Y-111107561D01*
X121776889Y-110572986D01*
X122252659Y-110186368D01*
X124188016Y-110186368D01*
X124191531Y-110300319D01*
X124271768Y-110415656D01*
X124373577Y-110490361D01*
X124487258Y-110503000D01*
X124606851Y-110439435D01*
X124643377Y-110400613D01*
X124665112Y-110347529D01*
X126882980Y-110347529D01*
X126921269Y-110556907D01*
X126944148Y-110635816D01*
X127068952Y-110917506D01*
X127247651Y-111174645D01*
X127254228Y-111181116D01*
X127466286Y-111389757D01*
X127710893Y-111545363D01*
X127714477Y-111547057D01*
X127937856Y-111622214D01*
X128134740Y-111625434D01*
X128303488Y-111556687D01*
X128404757Y-111476428D01*
X128515941Y-111332348D01*
X128576407Y-111151242D01*
X128593396Y-110917135D01*
X128592006Y-110849416D01*
X128576893Y-110688309D01*
X128568822Y-110658042D01*
X128792041Y-110658042D01*
X128814518Y-110873090D01*
X128829961Y-110917135D01*
X128861217Y-111006277D01*
X128954626Y-111162704D01*
X129092364Y-111305895D01*
X129282541Y-111442483D01*
X129533267Y-111579105D01*
X129852654Y-111722394D01*
X130135995Y-111846806D01*
X130376757Y-111968686D01*
X130555567Y-112081580D01*
X130679652Y-112190097D01*
X130756236Y-112298846D01*
X130767639Y-112324862D01*
X130805841Y-112456598D01*
X130840590Y-112641200D01*
X130868034Y-112859348D01*
X130891323Y-113061614D01*
X130906053Y-113144125D01*
X130919990Y-113222195D01*
X130957113Y-113343756D01*
X131007476Y-113446438D01*
X131123300Y-113596992D01*
X131305727Y-113750657D01*
X131512348Y-113859408D01*
X131568111Y-113874473D01*
X131698287Y-113893062D01*
X131843483Y-113900161D01*
X132007965Y-113886927D01*
X132257238Y-113811860D01*
X132469531Y-113678960D01*
X132636766Y-113497955D01*
X132750866Y-113278571D01*
X132803751Y-113030536D01*
X132787345Y-112763577D01*
X132712285Y-112490138D01*
X132544226Y-112123293D01*
X132301371Y-111762336D01*
X131985496Y-111409458D01*
X131598379Y-111066847D01*
X131141796Y-110736692D01*
X131045203Y-110673605D01*
X130723355Y-110473407D01*
X130445437Y-110319612D01*
X130200501Y-110207677D01*
X129977601Y-110133056D01*
X129765788Y-110091205D01*
X129554116Y-110077578D01*
X129321775Y-110101793D01*
X129110936Y-110179624D01*
X128947520Y-110303489D01*
X128838798Y-110465568D01*
X128792041Y-110658042D01*
X128568822Y-110658042D01*
X128537923Y-110542160D01*
X128465722Y-110370874D01*
X128389494Y-110216892D01*
X128307263Y-110066047D01*
X128238121Y-109953677D01*
X128237503Y-109952782D01*
X128081403Y-109782629D01*
X127894818Y-109666688D01*
X127691716Y-109605390D01*
X127486068Y-109599167D01*
X127291843Y-109648450D01*
X127123012Y-109753670D01*
X126993545Y-109915258D01*
X126950752Y-109998508D01*
X126891641Y-110171753D01*
X126886033Y-110285564D01*
X126882980Y-110347529D01*
X124665112Y-110347529D01*
X124690483Y-110285564D01*
X124687603Y-110159154D01*
X124632500Y-110054924D01*
X124590914Y-110023761D01*
X124472651Y-109992219D01*
X124347163Y-110011902D01*
X124247989Y-110080573D01*
X124188016Y-110186368D01*
X122252659Y-110186368D01*
X122369359Y-110091536D01*
X123005971Y-109667107D01*
X123682529Y-109303597D01*
X124394836Y-109004901D01*
X125138694Y-108774914D01*
X125373988Y-108717702D01*
X125865521Y-108621205D01*
X126351129Y-108560658D01*
X126857065Y-108533302D01*
X127409582Y-108536379D01*
X127495175Y-108539263D01*
X128212248Y-108593076D01*
X128886562Y-108701010D01*
X129533498Y-108866921D01*
X130168436Y-109094665D01*
X130806756Y-109388098D01*
X130873323Y-109422277D01*
X131558172Y-109820819D01*
X132195118Y-110279096D01*
X132780971Y-110793395D01*
X133312542Y-111360000D01*
X133786640Y-111975199D01*
X134200077Y-112635277D01*
X134397121Y-113030536D01*
X134549661Y-113336521D01*
G37*
G36*
X129536125Y-120283610D02*
G01*
X129605263Y-120300835D01*
X129708231Y-120332931D01*
X129749057Y-120360746D01*
X129737978Y-120389657D01*
X129733496Y-120393389D01*
X129674204Y-120434234D01*
X129561286Y-120507132D01*
X129405617Y-120605219D01*
X129218070Y-120721632D01*
X129009518Y-120849505D01*
X128906782Y-120911905D01*
X128666506Y-121055252D01*
X128484295Y-121159057D01*
X128355052Y-121225811D01*
X128273682Y-121258007D01*
X128235087Y-121258138D01*
X128234173Y-121228695D01*
X128262006Y-121195897D01*
X128338490Y-121118039D01*
X128454178Y-121004838D01*
X128599781Y-120865374D01*
X128766011Y-120708728D01*
X129284863Y-120223491D01*
X129536125Y-120283610D01*
G37*
G36*
X129134992Y-120174160D02*
G01*
X129121150Y-120201973D01*
X129058523Y-120274371D01*
X128954939Y-120383124D01*
X128818225Y-120520002D01*
X128656207Y-120676778D01*
X128653238Y-120679608D01*
X128487272Y-120835782D01*
X128340977Y-120969771D01*
X128223422Y-121073565D01*
X128143676Y-121139153D01*
X128110809Y-121158524D01*
X128111047Y-121153261D01*
X128145998Y-121105965D01*
X128224512Y-121019924D01*
X128335867Y-120905449D01*
X128469343Y-120772851D01*
X128614219Y-120632440D01*
X128759773Y-120494529D01*
X128895286Y-120369427D01*
X129010037Y-120267445D01*
X129093304Y-120198896D01*
X129134367Y-120174089D01*
X129134992Y-120174160D01*
G37*
G36*
X132941483Y-120542720D02*
G01*
X132922005Y-120562198D01*
X132902526Y-120542720D01*
X132922005Y-120523241D01*
X132941483Y-120542720D01*
G37*
G36*
X132863569Y-120503763D02*
G01*
X132844091Y-120523241D01*
X132824612Y-120503763D01*
X132844091Y-120484284D01*
X132863569Y-120503763D01*
G37*
G36*
X132746698Y-120464806D02*
G01*
X132727220Y-120484284D01*
X132707741Y-120464806D01*
X132727220Y-120445327D01*
X132746698Y-120464806D01*
G37*
G36*
X132629827Y-120425849D02*
G01*
X132610348Y-120445327D01*
X132590870Y-120425849D01*
X132610348Y-120406370D01*
X132629827Y-120425849D01*
G37*
G36*
X132512956Y-120386892D02*
G01*
X132493477Y-120406370D01*
X132473999Y-120386892D01*
X132493477Y-120367413D01*
X132512956Y-120386892D01*
G37*
G36*
X132422056Y-120341442D02*
G01*
X132428151Y-120353159D01*
X132396085Y-120367413D01*
X132375461Y-120364602D01*
X132370113Y-120341442D01*
X132375823Y-120336779D01*
X132422056Y-120341442D01*
G37*
G36*
X130158121Y-119627449D02*
G01*
X130337777Y-119692770D01*
X130571373Y-119778844D01*
X130773415Y-119854617D01*
X130933449Y-119916111D01*
X131041019Y-119959349D01*
X131085671Y-119980354D01*
X131090537Y-119985970D01*
X131086343Y-120041473D01*
X131033687Y-120121182D01*
X130946273Y-120208217D01*
X130837802Y-120285698D01*
X130818292Y-120296549D01*
X130698135Y-120345967D01*
X130591742Y-120366518D01*
X130575577Y-120365517D01*
X130482834Y-120351113D01*
X130331733Y-120321715D01*
X130135122Y-120280016D01*
X129905853Y-120228711D01*
X129656773Y-120170494D01*
X129573059Y-120150558D01*
X129326972Y-120092419D01*
X129103700Y-120040330D01*
X128916477Y-119997338D01*
X128778536Y-119966493D01*
X128703110Y-119950842D01*
X128574706Y-119928109D01*
X128765894Y-119818917D01*
X128867171Y-119755246D01*
X129044703Y-119601647D01*
X129203673Y-119395920D01*
X129264176Y-119304180D01*
X130158121Y-119627449D01*
G37*
G36*
X132318170Y-120308977D02*
G01*
X132298692Y-120328456D01*
X132279213Y-120308977D01*
X132298692Y-120289499D01*
X132318170Y-120308977D01*
G37*
G36*
X132201299Y-120270020D02*
G01*
X132181821Y-120289499D01*
X132162342Y-120270020D01*
X132181821Y-120250542D01*
X132201299Y-120270020D01*
G37*
G36*
X132110400Y-120224571D02*
G01*
X132116494Y-120236288D01*
X132084428Y-120250542D01*
X132063804Y-120247730D01*
X132058457Y-120224571D01*
X132064167Y-120219908D01*
X132110400Y-120224571D01*
G37*
G36*
X131993528Y-120185613D02*
G01*
X131999623Y-120197331D01*
X131967557Y-120211585D01*
X131946933Y-120208773D01*
X131941586Y-120185613D01*
X131947295Y-120180951D01*
X131993528Y-120185613D01*
G37*
G36*
X131889643Y-120153149D02*
G01*
X131870164Y-120172628D01*
X131850686Y-120153149D01*
X131870164Y-120133671D01*
X131889643Y-120153149D01*
G37*
G36*
X131772772Y-120114192D02*
G01*
X131753293Y-120133671D01*
X131733815Y-120114192D01*
X131753293Y-120094714D01*
X131772772Y-120114192D01*
G37*
G36*
X131681872Y-120068742D02*
G01*
X131687967Y-120080460D01*
X131655901Y-120094714D01*
X131635277Y-120091902D01*
X131629929Y-120068742D01*
X131635639Y-120064080D01*
X131681872Y-120068742D01*
G37*
G36*
X131565001Y-120029785D02*
G01*
X131571095Y-120041503D01*
X131539029Y-120055757D01*
X131518406Y-120052945D01*
X131513058Y-120029785D01*
X131518768Y-120025123D01*
X131565001Y-120029785D01*
G37*
G36*
X131351139Y-119944878D02*
G01*
X131422158Y-119977842D01*
X131448605Y-119999531D01*
X131441637Y-120015606D01*
X131415264Y-120010807D01*
X131344244Y-119977842D01*
X131317797Y-119956154D01*
X131324766Y-119940079D01*
X131351139Y-119944878D01*
G37*
G36*
X127638471Y-117357420D02*
G01*
X127724421Y-117392910D01*
X127849093Y-117453564D01*
X127998877Y-117531915D01*
X128160164Y-117620497D01*
X128319342Y-117711842D01*
X128462802Y-117798483D01*
X128576935Y-117872953D01*
X128648130Y-117927786D01*
X128705284Y-117990410D01*
X128800542Y-118121961D01*
X128881872Y-118263245D01*
X128909751Y-118322431D01*
X128957718Y-118453986D01*
X128980853Y-118591320D01*
X128986536Y-118770174D01*
X128961649Y-119035873D01*
X128876442Y-119290633D01*
X128726814Y-119512389D01*
X128508811Y-119706854D01*
X128218481Y-119879738D01*
X128196924Y-119890371D01*
X128052520Y-119954529D01*
X127925994Y-119999880D01*
X127842614Y-120017185D01*
X127794651Y-120013083D01*
X127683490Y-119996576D01*
X127535458Y-119970852D01*
X127369505Y-119939621D01*
X127204577Y-119906590D01*
X127059622Y-119875468D01*
X126953588Y-119849961D01*
X126905422Y-119833779D01*
X126904690Y-119832133D01*
X126928546Y-119793245D01*
X126993814Y-119716499D01*
X127088186Y-119616526D01*
X127307622Y-119356026D01*
X127506437Y-119033025D01*
X127644739Y-118697895D01*
X127678340Y-118561726D01*
X127711772Y-118311221D01*
X127720729Y-118043741D01*
X127704712Y-117789431D01*
X127663224Y-117578436D01*
X127642622Y-117508534D01*
X127615563Y-117408323D01*
X127604788Y-117355365D01*
X127604852Y-117354561D01*
X127638471Y-117357420D01*
G37*
G36*
X131253344Y-119912914D02*
G01*
X131259439Y-119924632D01*
X131227373Y-119938885D01*
X131206749Y-119936074D01*
X131201402Y-119912914D01*
X131207111Y-119908252D01*
X131253344Y-119912914D01*
G37*
G36*
X130954674Y-119805388D02*
G01*
X131027196Y-119829166D01*
X131110502Y-119867544D01*
X131117969Y-119872299D01*
X131130173Y-119889027D01*
X131071545Y-119877598D01*
X130999022Y-119853819D01*
X130915716Y-119815442D01*
X130908249Y-119810687D01*
X130896045Y-119793958D01*
X130954674Y-119805388D01*
G37*
G36*
X129169385Y-118345016D02*
G01*
X129266565Y-118386246D01*
X129415528Y-118452735D01*
X129607483Y-118540511D01*
X129833639Y-118645600D01*
X130085202Y-118764028D01*
X130234103Y-118834594D01*
X130503624Y-118963465D01*
X130714042Y-119067811D01*
X130873066Y-119153626D01*
X130988404Y-119226902D01*
X131067765Y-119293635D01*
X131118858Y-119359818D01*
X131149390Y-119431445D01*
X131167070Y-119514509D01*
X131179607Y-119615006D01*
X131182977Y-119651199D01*
X131180828Y-119747669D01*
X131158066Y-119783057D01*
X131128842Y-119775525D01*
X131033775Y-119744600D01*
X130883936Y-119693140D01*
X130689741Y-119624782D01*
X130461603Y-119543164D01*
X130209935Y-119451922D01*
X130012440Y-119379880D01*
X129782867Y-119296160D01*
X129587039Y-119224775D01*
X129434817Y-119169318D01*
X129336065Y-119133382D01*
X129300643Y-119120562D01*
X129299584Y-119098235D01*
X129297644Y-119016910D01*
X129295506Y-118896559D01*
X129285512Y-118764097D01*
X129234463Y-118559728D01*
X129132808Y-118333614D01*
X129132781Y-118333020D01*
X129169385Y-118345016D01*
G37*
G36*
X130837802Y-119763579D02*
G01*
X130818324Y-119783057D01*
X130798845Y-119763579D01*
X130818324Y-119744100D01*
X130837802Y-119763579D01*
G37*
G36*
X129295850Y-119202987D02*
G01*
X129371278Y-119227192D01*
X129498559Y-119271155D01*
X129663772Y-119329785D01*
X129852997Y-119397992D01*
X130052315Y-119470685D01*
X130247805Y-119542773D01*
X130425548Y-119609167D01*
X130571623Y-119664775D01*
X130672110Y-119704507D01*
X130713090Y-119723273D01*
X130721953Y-119734662D01*
X130713166Y-119739874D01*
X130673375Y-119731515D01*
X130594154Y-119706920D01*
X130467080Y-119663427D01*
X130283727Y-119598372D01*
X130035672Y-119509090D01*
X129912821Y-119464542D01*
X129651132Y-119367911D01*
X129459801Y-119294199D01*
X129336222Y-119242337D01*
X129277787Y-119211256D01*
X129281891Y-119199886D01*
X129295850Y-119202987D01*
G37*
G36*
X129126606Y-118566139D02*
G01*
X129149946Y-118624669D01*
X129200457Y-118863588D01*
X129179465Y-119110619D01*
X129085852Y-119345835D01*
X128922101Y-119559054D01*
X128866616Y-119613021D01*
X128776386Y-119692127D01*
X128714991Y-119735453D01*
X128690351Y-119739674D01*
X128710383Y-119701461D01*
X128783005Y-119617490D01*
X128792377Y-119607406D01*
X128962187Y-119366137D01*
X129067351Y-119086880D01*
X129103708Y-118780497D01*
X129103928Y-118716396D01*
X129106167Y-118603341D01*
X129112870Y-118556142D01*
X129126606Y-118566139D01*
G37*
G36*
X122048423Y-115973421D02*
G01*
X122385655Y-116004365D01*
X122875982Y-116056021D01*
X123404712Y-116118009D01*
X123950353Y-116187563D01*
X124491410Y-116261918D01*
X125006392Y-116338312D01*
X125473805Y-116413978D01*
X125659556Y-116446333D01*
X125824068Y-116478811D01*
X125961628Y-116513791D01*
X126091483Y-116557904D01*
X126232877Y-116617780D01*
X126405059Y-116700050D01*
X126627272Y-116811343D01*
X127227938Y-117114499D01*
X127341339Y-117356760D01*
X127358603Y-117395015D01*
X127460222Y-117721879D01*
X127494250Y-118066068D01*
X127463940Y-118414915D01*
X127372544Y-118755752D01*
X127223316Y-119075913D01*
X127019507Y-119362729D01*
X126764372Y-119603535D01*
X126679844Y-119663362D01*
X126580152Y-119721585D01*
X126515733Y-119744100D01*
X126494516Y-119742365D01*
X126402029Y-119727460D01*
X126264325Y-119700586D01*
X126102547Y-119665753D01*
X126064100Y-119657123D01*
X125861446Y-119611858D01*
X125656822Y-119566457D01*
X125489213Y-119529575D01*
X125476642Y-119526794D01*
X125286458Y-119476281D01*
X125083216Y-119405645D01*
X124859767Y-119311234D01*
X124608959Y-119189396D01*
X124323642Y-119036478D01*
X123996665Y-118848827D01*
X123620878Y-118622791D01*
X123189130Y-118354718D01*
X123127596Y-118315831D01*
X122928064Y-118187326D01*
X122707896Y-118042600D01*
X122476621Y-117888208D01*
X122243766Y-117730705D01*
X122018862Y-117576647D01*
X121811436Y-117432588D01*
X121631017Y-117305085D01*
X121487134Y-117200693D01*
X121389314Y-117125966D01*
X121347087Y-117087461D01*
X121353206Y-117055434D01*
X121400350Y-116980597D01*
X121479588Y-116885489D01*
X121538840Y-116816862D01*
X121654909Y-116630265D01*
X121710229Y-116426484D01*
X121712430Y-116182482D01*
X121693245Y-115943485D01*
X122048423Y-115973421D01*
G37*
G36*
X129952419Y-117079725D02*
G01*
X129986584Y-117097120D01*
X130022502Y-117122885D01*
X130053432Y-117162274D01*
X130083247Y-117225642D01*
X130115816Y-117323343D01*
X130155009Y-117465731D01*
X130204697Y-117663161D01*
X130268751Y-117925986D01*
X130283962Y-117988610D01*
X130341024Y-118222047D01*
X130391922Y-118428019D01*
X130433637Y-118594455D01*
X130463151Y-118709284D01*
X130477444Y-118760435D01*
X130482598Y-118776495D01*
X130478585Y-118801954D01*
X130439527Y-118800329D01*
X130353760Y-118769268D01*
X130209622Y-118706418D01*
X130099685Y-118651133D01*
X130013687Y-118595181D01*
X129980747Y-118555627D01*
X129978299Y-118517682D01*
X129969241Y-118412871D01*
X129954958Y-118258911D01*
X129936994Y-118071530D01*
X129916896Y-117866453D01*
X129896205Y-117659407D01*
X129876468Y-117466120D01*
X129859228Y-117302318D01*
X129846030Y-117183728D01*
X129826699Y-117019215D01*
X129952419Y-117079725D01*
G37*
G36*
X129849818Y-118272734D02*
G01*
X129852734Y-118361125D01*
X129851458Y-118433427D01*
X129845577Y-118484468D01*
X129836453Y-118468792D01*
X129829512Y-118389218D01*
X129835921Y-118274007D01*
X129842838Y-118246880D01*
X129849818Y-118272734D01*
G37*
G36*
X129810829Y-117855899D02*
G01*
X129813245Y-117952076D01*
X129811383Y-118039132D01*
X129805508Y-118083376D01*
X129797016Y-118059208D01*
X129790495Y-117970779D01*
X129797016Y-117844944D01*
X129804541Y-117819853D01*
X129810829Y-117855899D01*
G37*
D14*
%TO.C,BZ1*%
X133618000Y-77216000D02*
G75*
G02*
X121418000Y-77216000I-6100000J0D01*
G01*
X121418000Y-77216000D02*
G75*
G02*
X133618000Y-77216000I6100000J0D01*
G01*
%TD*%
M02*
