%TF.GenerationSoftware,KiCad,Pcbnew,8.0.1*%
%TF.CreationDate,2024-06-19T16:46:32+02:00*%
%TF.ProjectId,MotorShield,4d6f746f-7253-4686-9965-6c642e6b6963,V_1*%
%TF.SameCoordinates,Original*%
%TF.FileFunction,Drillmap*%
%TF.FilePolarity,Positive*%
%FSLAX45Y45*%
G04 Gerber Fmt 4.5, Leading zero omitted, Abs format (unit mm)*
G04 Created by KiCad (PCBNEW 8.0.1) date 2024-06-19 16:46:32*
%MOMM*%
%LPD*%
G01*
G04 APERTURE LIST*
%ADD10C,0.200000*%
%ADD11C,0.100000*%
%ADD12C,0.320000*%
G04 APERTURE END LIST*
D10*
X10960000Y-5530000D02*
X10960000Y-13930000D01*
X10960000Y-5530000D02*
G75*
G02*
X11260000Y-5230000I300000J0D01*
G01*
X14560000Y-13930000D02*
G75*
G02*
X14260000Y-14230000I-300000J0D01*
G01*
X11260000Y-14230000D02*
G75*
G02*
X10960000Y-13930000I0J300000D01*
G01*
X14260000Y-5230000D02*
G75*
G02*
X14560000Y-5530000I0J-300000D01*
G01*
X11260000Y-14230000D02*
X14260000Y-14230000D01*
X14560000Y-13930000D02*
X14560000Y-5530000D01*
X14260000Y-5230000D02*
X11260000Y-5230000D01*
D11*
X11135600Y-10754600D02*
X11165600Y-10784600D01*
X11165600Y-10754600D02*
X11135600Y-10784600D01*
X11148300Y-11681700D02*
X11178300Y-11711700D01*
X11178300Y-11681700D02*
X11148300Y-11711700D01*
X11161000Y-13180300D02*
X11191000Y-13210300D01*
X11191000Y-13180300D02*
X11161000Y-13210300D01*
X11173700Y-12329400D02*
X11203700Y-12359400D01*
X11203700Y-12329400D02*
X11173700Y-12359400D01*
X11211800Y-5979400D02*
X11241800Y-6009400D01*
X11241800Y-5979400D02*
X11211800Y-6009400D01*
X11237200Y-7198600D02*
X11267200Y-7228600D01*
X11267200Y-7198600D02*
X11237200Y-7228600D01*
X11237200Y-8608300D02*
X11267200Y-8638300D01*
X11267200Y-8608300D02*
X11237200Y-8638300D01*
X11249900Y-9497300D02*
X11279900Y-9527300D01*
X11279900Y-9497300D02*
X11249900Y-9527300D01*
X11249900Y-10399000D02*
X11279900Y-10429000D01*
X11279900Y-10399000D02*
X11249900Y-10429000D01*
X11313400Y-10945100D02*
X11343400Y-10975100D01*
X11343400Y-10945100D02*
X11313400Y-10975100D01*
X11453100Y-13358100D02*
X11483100Y-13388100D01*
X11483100Y-13358100D02*
X11453100Y-13388100D01*
X11478500Y-12113500D02*
X11508500Y-12143500D01*
X11508500Y-12113500D02*
X11478500Y-12143500D01*
X11478500Y-12634200D02*
X11508500Y-12664200D01*
X11508500Y-12634200D02*
X11478500Y-12664200D01*
X11503900Y-8494000D02*
X11533900Y-8524000D01*
X11533900Y-8494000D02*
X11503900Y-8524000D01*
X11516600Y-8824200D02*
X11546600Y-8854200D01*
X11546600Y-8824200D02*
X11516600Y-8854200D01*
X11516600Y-10653000D02*
X11546600Y-10683000D01*
X11546600Y-10653000D02*
X11516600Y-10683000D01*
X11529300Y-9929100D02*
X11559300Y-9959100D01*
X11559300Y-9929100D02*
X11529300Y-9959100D01*
X11542000Y-7770100D02*
X11572000Y-7800100D01*
X11572000Y-7770100D02*
X11542000Y-7800100D01*
X11656300Y-6335000D02*
X11686300Y-6365000D01*
X11686300Y-6335000D02*
X11656300Y-6365000D01*
X11694400Y-6995400D02*
X11724400Y-7025400D01*
X11724400Y-6995400D02*
X11694400Y-7025400D01*
X11705000Y-10735000D02*
X11735000Y-10765000D01*
X11735000Y-10735000D02*
X11705000Y-10765000D01*
X11707100Y-10856200D02*
X11737100Y-10886200D01*
X11737100Y-10856200D02*
X11707100Y-10886200D01*
X11719800Y-7998700D02*
X11749800Y-8028700D01*
X11749800Y-7998700D02*
X11719800Y-8028700D01*
X11719800Y-8379700D02*
X11749800Y-8409700D01*
X11749800Y-8379700D02*
X11719800Y-8409700D01*
X11783300Y-5928600D02*
X11813300Y-5958600D01*
X11813300Y-5928600D02*
X11783300Y-5958600D01*
X11808700Y-9141700D02*
X11838700Y-9171700D01*
X11838700Y-9141700D02*
X11808700Y-9171700D01*
X11808700Y-9649700D02*
X11838700Y-9679700D01*
X11838700Y-9649700D02*
X11808700Y-9679700D01*
X11923000Y-11783300D02*
X11953000Y-11813300D01*
X11953000Y-11783300D02*
X11923000Y-11813300D01*
X11948400Y-10856200D02*
X11978400Y-10886200D01*
X11978400Y-10856200D02*
X11948400Y-10886200D01*
X12024600Y-13447000D02*
X12054600Y-13477000D01*
X12054600Y-13447000D02*
X12024600Y-13477000D01*
X12126200Y-12405600D02*
X12156200Y-12435600D01*
X12156200Y-12405600D02*
X12126200Y-12435600D01*
X12138900Y-12164300D02*
X12168900Y-12194300D01*
X12168900Y-12164300D02*
X12138900Y-12194300D01*
X12164300Y-7693900D02*
X12194300Y-7723900D01*
X12194300Y-7693900D02*
X12164300Y-7723900D01*
X12164300Y-8506700D02*
X12194300Y-8536700D01*
X12194300Y-8506700D02*
X12164300Y-8536700D01*
X12189700Y-11148300D02*
X12219700Y-11178300D01*
X12219700Y-11148300D02*
X12189700Y-11178300D01*
X12202400Y-7236700D02*
X12232400Y-7266700D01*
X12232400Y-7236700D02*
X12202400Y-7266700D01*
X12202400Y-13421600D02*
X12232400Y-13451600D01*
X12232400Y-13421600D02*
X12202400Y-13451600D01*
X12227800Y-6182600D02*
X12257800Y-6212600D01*
X12257800Y-6182600D02*
X12227800Y-6212600D01*
X12253200Y-7439900D02*
X12283200Y-7469900D01*
X12283200Y-7439900D02*
X12253200Y-7469900D01*
X12253200Y-9560800D02*
X12283200Y-9590800D01*
X12283200Y-9560800D02*
X12253200Y-9590800D01*
X12278600Y-8646400D02*
X12308600Y-8676400D01*
X12308600Y-8646400D02*
X12278600Y-8676400D01*
X12278600Y-8811500D02*
X12308600Y-8841500D01*
X12308600Y-8811500D02*
X12278600Y-8841500D01*
X12285000Y-8505000D02*
X12315000Y-8535000D01*
X12315000Y-8505000D02*
X12285000Y-8535000D01*
X12316700Y-6652500D02*
X12346700Y-6682500D01*
X12346700Y-6652500D02*
X12316700Y-6682500D01*
X12354800Y-13383500D02*
X12384800Y-13413500D01*
X12384800Y-13383500D02*
X12354800Y-13413500D01*
X12364375Y-10374375D02*
X12394375Y-10404375D01*
X12394375Y-10374375D02*
X12364375Y-10404375D01*
X12391000Y-12071000D02*
X12421000Y-12101000D01*
X12421000Y-12071000D02*
X12391000Y-12101000D01*
X12392900Y-12558000D02*
X12422900Y-12588000D01*
X12422900Y-12558000D02*
X12392900Y-12588000D01*
X12418300Y-7516100D02*
X12448300Y-7546100D01*
X12448300Y-7516100D02*
X12418300Y-7546100D01*
X12445000Y-8135000D02*
X12475000Y-8165000D01*
X12475000Y-8135000D02*
X12445000Y-8165000D01*
X12445000Y-8505000D02*
X12475000Y-8535000D01*
X12475000Y-8505000D02*
X12445000Y-8535000D01*
X12445000Y-8745000D02*
X12475000Y-8775000D01*
X12475000Y-8745000D02*
X12445000Y-8775000D01*
X12456400Y-7935200D02*
X12486400Y-7965200D01*
X12486400Y-7935200D02*
X12456400Y-7965200D01*
X12494500Y-10856200D02*
X12524500Y-10886200D01*
X12524500Y-10856200D02*
X12494500Y-10886200D01*
X12505000Y-10365000D02*
X12535000Y-10395000D01*
X12535000Y-10365000D02*
X12505000Y-10395000D01*
X12507200Y-6652500D02*
X12537200Y-6682500D01*
X12537200Y-6652500D02*
X12507200Y-6682500D01*
X12515000Y-5801600D02*
X12545000Y-5831600D01*
X12545000Y-5801600D02*
X12515000Y-5831600D01*
X12545000Y-9495000D02*
X12575000Y-9525000D01*
X12575000Y-9495000D02*
X12545000Y-9525000D01*
X12565000Y-8455000D02*
X12595000Y-8485000D01*
X12595000Y-8455000D02*
X12565000Y-8485000D01*
X12565000Y-9945000D02*
X12595000Y-9975000D01*
X12595000Y-9945000D02*
X12565000Y-9975000D01*
X12580225Y-7373225D02*
X12610225Y-7403225D01*
X12610225Y-7373225D02*
X12580225Y-7403225D01*
X12625000Y-11785000D02*
X12655000Y-11815000D01*
X12655000Y-11785000D02*
X12625000Y-11815000D01*
X12659600Y-5801600D02*
X12689600Y-5831600D01*
X12689600Y-5801600D02*
X12659600Y-5831600D01*
X12659600Y-10322800D02*
X12689600Y-10352800D01*
X12689600Y-10322800D02*
X12659600Y-10352800D01*
X12659600Y-11630900D02*
X12689600Y-11660900D01*
X12689600Y-11630900D02*
X12659600Y-11660900D01*
X12672300Y-11415000D02*
X12702300Y-11445000D01*
X12702300Y-11415000D02*
X12672300Y-11445000D01*
X12723100Y-13612100D02*
X12753100Y-13642100D01*
X12753100Y-13612100D02*
X12723100Y-13642100D01*
X12735800Y-7986000D02*
X12765800Y-8016000D01*
X12765800Y-7986000D02*
X12735800Y-8016000D01*
X12748500Y-12672300D02*
X12778500Y-12702300D01*
X12778500Y-12672300D02*
X12748500Y-12702300D01*
X12748500Y-12926300D02*
X12778500Y-12956300D01*
X12778500Y-12926300D02*
X12748500Y-12956300D01*
X12770200Y-6064600D02*
X12800200Y-6094600D01*
X12800200Y-6064600D02*
X12770200Y-6094600D01*
X12773900Y-7211300D02*
X12803900Y-7241300D01*
X12803900Y-7211300D02*
X12773900Y-7241300D01*
X12775000Y-10805400D02*
X12805000Y-10835400D01*
X12805000Y-10805400D02*
X12775000Y-10835400D01*
X12786600Y-6931900D02*
X12816600Y-6961900D01*
X12816600Y-6931900D02*
X12786600Y-6961900D01*
X12799300Y-7109700D02*
X12829300Y-7139700D01*
X12829300Y-7109700D02*
X12799300Y-7139700D01*
X12805000Y-9465000D02*
X12835000Y-9495000D01*
X12835000Y-9465000D02*
X12805000Y-9495000D01*
X12849250Y-8555000D02*
X12879250Y-8585000D01*
X12879250Y-8555000D02*
X12849250Y-8585000D01*
X12850100Y-8159900D02*
X12880100Y-8189900D01*
X12880100Y-8159900D02*
X12850100Y-8189900D01*
X12850100Y-11656300D02*
X12880100Y-11686300D01*
X12880100Y-11656300D02*
X12850100Y-11686300D01*
X12865000Y-9935000D02*
X12895000Y-9965000D01*
X12895000Y-9935000D02*
X12865000Y-9965000D01*
X12875000Y-11345000D02*
X12905000Y-11375000D01*
X12905000Y-11345000D02*
X12875000Y-11375000D01*
X12875500Y-10945100D02*
X12905500Y-10975100D01*
X12905500Y-10945100D02*
X12875500Y-10975100D01*
X12900900Y-8773400D02*
X12930900Y-8803400D01*
X12930900Y-8773400D02*
X12900900Y-8803400D01*
X12913600Y-10322800D02*
X12943600Y-10352800D01*
X12943600Y-10322800D02*
X12913600Y-10352800D01*
X12939000Y-7071600D02*
X12969000Y-7101600D01*
X12969000Y-7071600D02*
X12939000Y-7101600D01*
X12939000Y-7795500D02*
X12969000Y-7825500D01*
X12969000Y-7795500D02*
X12939000Y-7825500D01*
X12964400Y-7351000D02*
X12994400Y-7381000D01*
X12994400Y-7351000D02*
X12964400Y-7381000D01*
X12970000Y-10540000D02*
X13000000Y-10570000D01*
X13000000Y-10540000D02*
X12970000Y-10570000D01*
X13002500Y-5496800D02*
X13032500Y-5526800D01*
X13032500Y-5496800D02*
X13002500Y-5526800D01*
X13005000Y-9660000D02*
X13035000Y-9690000D01*
X13035000Y-9660000D02*
X13005000Y-9690000D01*
X13027900Y-13370800D02*
X13057900Y-13400800D01*
X13057900Y-13370800D02*
X13027900Y-13400800D01*
X13040600Y-6944600D02*
X13070600Y-6974600D01*
X13070600Y-6944600D02*
X13040600Y-6974600D01*
X13053300Y-12646900D02*
X13083300Y-12676900D01*
X13083300Y-12646900D02*
X13053300Y-12676900D01*
X13078700Y-9471900D02*
X13108700Y-9501900D01*
X13108700Y-9471900D02*
X13078700Y-9501900D01*
X13078700Y-12202400D02*
X13108700Y-12232400D01*
X13108700Y-12202400D02*
X13078700Y-12232400D01*
X13091400Y-8189200D02*
X13121400Y-8219200D01*
X13121400Y-8189200D02*
X13091400Y-8219200D01*
X13129500Y-8405100D02*
X13159500Y-8435100D01*
X13159500Y-8405100D02*
X13129500Y-8435100D01*
X13142200Y-10576800D02*
X13172200Y-10606800D01*
X13172200Y-10576800D02*
X13142200Y-10606800D01*
X13154900Y-5827000D02*
X13184900Y-5857000D01*
X13184900Y-5827000D02*
X13154900Y-5857000D01*
X13180300Y-8786100D02*
X13210300Y-8816100D01*
X13210300Y-8786100D02*
X13180300Y-8816100D01*
X13193000Y-8555000D02*
X13223000Y-8585000D01*
X13223000Y-8555000D02*
X13193000Y-8585000D01*
X13205700Y-9637000D02*
X13235700Y-9667000D01*
X13235700Y-9637000D02*
X13205700Y-9667000D01*
X13281900Y-7592300D02*
X13311900Y-7622300D01*
X13311900Y-7592300D02*
X13281900Y-7622300D01*
X13421600Y-5915900D02*
X13451600Y-5945900D01*
X13451600Y-5915900D02*
X13421600Y-5945900D01*
X13459700Y-11440400D02*
X13489700Y-11470400D01*
X13489700Y-11440400D02*
X13459700Y-11470400D01*
X13459700Y-11618200D02*
X13489700Y-11648200D01*
X13489700Y-11618200D02*
X13459700Y-11648200D01*
X13475000Y-10905000D02*
X13505000Y-10935000D01*
X13505000Y-10905000D02*
X13475000Y-10935000D01*
X13523200Y-6258800D02*
X13553200Y-6288800D01*
X13553200Y-6258800D02*
X13523200Y-6288800D01*
X13599400Y-13434300D02*
X13629400Y-13464300D01*
X13629400Y-13434300D02*
X13599400Y-13464300D01*
X13612100Y-6601700D02*
X13642100Y-6631700D01*
X13642100Y-6601700D02*
X13612100Y-6631700D01*
X13688300Y-8811500D02*
X13718300Y-8841500D01*
X13718300Y-8811500D02*
X13688300Y-8841500D01*
X13701000Y-13497800D02*
X13731000Y-13527800D01*
X13731000Y-13497800D02*
X13701000Y-13527800D01*
X13713700Y-11161000D02*
X13743700Y-11191000D01*
X13743700Y-11161000D02*
X13713700Y-11191000D01*
X13720000Y-10700000D02*
X13750000Y-10730000D01*
X13750000Y-10700000D02*
X13720000Y-10730000D01*
X13751800Y-12532600D02*
X13781800Y-12562600D01*
X13781800Y-12532600D02*
X13751800Y-12562600D01*
X13764500Y-10957800D02*
X13794500Y-10987800D01*
X13794500Y-10957800D02*
X13764500Y-10987800D01*
X13789900Y-7986000D02*
X13819900Y-8016000D01*
X13819900Y-7986000D02*
X13789900Y-8016000D01*
X13802600Y-7224000D02*
X13832600Y-7254000D01*
X13832600Y-7224000D02*
X13802600Y-7254000D01*
X13802600Y-7566900D02*
X13832600Y-7596900D01*
X13832600Y-7566900D02*
X13802600Y-7596900D01*
X13815300Y-8125700D02*
X13845300Y-8155700D01*
X13845300Y-8125700D02*
X13815300Y-8155700D01*
X13815300Y-8328900D02*
X13845300Y-8358900D01*
X13845300Y-8328900D02*
X13815300Y-8358900D01*
X13853400Y-6843000D02*
X13883400Y-6873000D01*
X13883400Y-6843000D02*
X13853400Y-6873000D01*
X13855000Y-10640300D02*
X13885000Y-10670300D01*
X13885000Y-10640300D02*
X13855000Y-10670300D01*
X13929600Y-13320000D02*
X13959600Y-13350000D01*
X13959600Y-13320000D02*
X13929600Y-13350000D01*
X13935000Y-12115000D02*
X13965000Y-12145000D01*
X13965000Y-12115000D02*
X13935000Y-12145000D01*
X13940000Y-11650000D02*
X13970000Y-11680000D01*
X13970000Y-11650000D02*
X13940000Y-11680000D01*
X14056600Y-11999200D02*
X14086600Y-12029200D01*
X14086600Y-11999200D02*
X14056600Y-12029200D01*
X14094700Y-10843500D02*
X14124700Y-10873500D01*
X14124700Y-10843500D02*
X14094700Y-10873500D01*
X14094700Y-12558000D02*
X14124700Y-12588000D01*
X14124700Y-12558000D02*
X14094700Y-12588000D01*
X14145500Y-6246100D02*
X14175500Y-6276100D01*
X14175500Y-6246100D02*
X14145500Y-6276100D01*
X14183600Y-11796000D02*
X14213600Y-11826000D01*
X14213600Y-11796000D02*
X14183600Y-11826000D01*
X14196300Y-11440400D02*
X14226300Y-11470400D01*
X14226300Y-11440400D02*
X14196300Y-11470400D01*
X14209000Y-6614400D02*
X14239000Y-6644400D01*
X14239000Y-6614400D02*
X14209000Y-6644400D01*
X14234400Y-9497300D02*
X14264400Y-9527300D01*
X14264400Y-9497300D02*
X14234400Y-9527300D01*
X14234400Y-9827500D02*
X14264400Y-9857500D01*
X14264400Y-9827500D02*
X14234400Y-9857500D01*
X14234400Y-10399000D02*
X14264400Y-10429000D01*
X14264400Y-10399000D02*
X14234400Y-10429000D01*
X14234400Y-10602200D02*
X14264400Y-10632200D01*
X14264400Y-10602200D02*
X14234400Y-10632200D01*
X14247100Y-7516100D02*
X14277100Y-7546100D01*
X14277100Y-7516100D02*
X14247100Y-7546100D01*
X14247100Y-8913100D02*
X14277100Y-8943100D01*
X14277100Y-8913100D02*
X14247100Y-8943100D01*
X14285200Y-7211300D02*
X14315200Y-7241300D01*
X14315200Y-7211300D02*
X14285200Y-7241300D01*
X14386800Y-12621500D02*
X14416800Y-12651500D01*
X14416800Y-12621500D02*
X14386800Y-12651500D01*
X14412200Y-11186400D02*
X14442200Y-11216400D01*
X14442200Y-11186400D02*
X14412200Y-11216400D01*
X14424900Y-11808700D02*
X14454900Y-11838700D01*
X14454900Y-11808700D02*
X14424900Y-11838700D01*
X14434366Y-13389579D02*
X14464366Y-13419579D01*
X14464366Y-13389579D02*
X14434366Y-13419579D01*
X14437600Y-5979400D02*
X14467600Y-6009400D01*
X14467600Y-5979400D02*
X14437600Y-6009400D01*
X11744000Y-12705000D02*
G75*
G02*
X11711000Y-12705000I-16500J0D01*
G01*
X11711000Y-12705000D02*
G75*
G02*
X11744000Y-12705000I16500J0D01*
G01*
X11744000Y-12835000D02*
G75*
G02*
X11711000Y-12835000I-16500J0D01*
G01*
X11711000Y-12835000D02*
G75*
G02*
X11744000Y-12835000I16500J0D01*
G01*
X11874000Y-12705000D02*
G75*
G02*
X11841000Y-12705000I-16500J0D01*
G01*
X11841000Y-12705000D02*
G75*
G02*
X11874000Y-12705000I16500J0D01*
G01*
X11874000Y-12835000D02*
G75*
G02*
X11841000Y-12835000I-16500J0D01*
G01*
X11841000Y-12835000D02*
G75*
G02*
X11874000Y-12835000I16500J0D01*
G01*
X12004000Y-12705000D02*
G75*
G02*
X11971000Y-12705000I-16500J0D01*
G01*
X11971000Y-12705000D02*
G75*
G02*
X12004000Y-12705000I16500J0D01*
G01*
X12004000Y-12835000D02*
G75*
G02*
X11971000Y-12835000I-16500J0D01*
G01*
X11971000Y-12835000D02*
G75*
G02*
X12004000Y-12835000I16500J0D01*
G01*
X13322500Y-12701500D02*
G75*
G02*
X13289500Y-12701500I-16500J0D01*
G01*
X13289500Y-12701500D02*
G75*
G02*
X13322500Y-12701500I16500J0D01*
G01*
X13322500Y-12831500D02*
G75*
G02*
X13289500Y-12831500I-16500J0D01*
G01*
X13289500Y-12831500D02*
G75*
G02*
X13322500Y-12831500I16500J0D01*
G01*
X13452500Y-12701500D02*
G75*
G02*
X13419500Y-12701500I-16500J0D01*
G01*
X13419500Y-12701500D02*
G75*
G02*
X13452500Y-12701500I16500J0D01*
G01*
X13452500Y-12831500D02*
G75*
G02*
X13419500Y-12831500I-16500J0D01*
G01*
X13419500Y-12831500D02*
G75*
G02*
X13452500Y-12831500I16500J0D01*
G01*
X13582500Y-12701500D02*
G75*
G02*
X13549500Y-12701500I-16500J0D01*
G01*
X13549500Y-12701500D02*
G75*
G02*
X13582500Y-12701500I16500J0D01*
G01*
X13582500Y-12831500D02*
G75*
G02*
X13549500Y-12831500I-16500J0D01*
G01*
X13549500Y-12831500D02*
G75*
G02*
X13582500Y-12831500I16500J0D01*
G01*
X11260000Y-7648000D02*
X11260000Y-7743000D01*
X11212500Y-7695500D02*
X11307500Y-7695500D01*
X11260000Y-7898000D02*
X11260000Y-7993000D01*
X11212500Y-7945500D02*
X11307500Y-7945500D01*
X11260000Y-8148000D02*
X11260000Y-8243000D01*
X11212500Y-8195500D02*
X11307500Y-8195500D01*
X11260000Y-8398000D02*
X11260000Y-8493000D01*
X11212500Y-8445500D02*
X11307500Y-8445500D01*
X11899200Y-5489700D02*
X11899200Y-5584700D01*
X11851700Y-5537200D02*
X11946700Y-5537200D01*
X12149200Y-5489700D02*
X12149200Y-5584700D01*
X12101700Y-5537200D02*
X12196700Y-5537200D01*
X12399200Y-5489700D02*
X12399200Y-5584700D01*
X12351700Y-5537200D02*
X12446700Y-5537200D01*
X12649200Y-5489700D02*
X12649200Y-5584700D01*
X12601700Y-5537200D02*
X12696700Y-5537200D01*
X14260000Y-7669400D02*
X14260000Y-7764400D01*
X14212500Y-7716900D02*
X14307500Y-7716900D01*
X14260000Y-7919400D02*
X14260000Y-8014400D01*
X14212500Y-7966900D02*
X14307500Y-7966900D01*
X14260000Y-8169400D02*
X14260000Y-8264400D01*
X14212500Y-8216900D02*
X14307500Y-8216900D01*
X14260000Y-8419400D02*
X14260000Y-8514400D01*
X14212500Y-8466900D02*
X14307500Y-8466900D01*
X11295356Y-6821156D02*
X11295356Y-6750444D01*
X11224644Y-6750444D01*
X11224644Y-6821156D01*
X11295356Y-6821156D01*
X11295356Y-7071156D02*
X11295356Y-7000444D01*
X11224644Y-7000444D01*
X11224644Y-7071156D01*
X11295356Y-7071156D01*
X11295356Y-9135356D02*
X11295356Y-9064644D01*
X11224644Y-9064644D01*
X11224644Y-9135356D01*
X11295356Y-9135356D01*
X11295356Y-9385356D02*
X11295356Y-9314644D01*
X11224644Y-9314644D01*
X11224644Y-9385356D01*
X11295356Y-9385356D01*
X11295356Y-10035356D02*
X11295356Y-9964644D01*
X11224644Y-9964644D01*
X11224644Y-10035356D01*
X11295356Y-10035356D01*
X11295356Y-10285356D02*
X11295356Y-10214644D01*
X11224644Y-10214644D01*
X11224644Y-10285356D01*
X11295356Y-10285356D01*
X11949956Y-13949956D02*
X11949956Y-13879244D01*
X11879244Y-13879244D01*
X11879244Y-13949956D01*
X11949956Y-13949956D01*
X12035356Y-7035356D02*
X12035356Y-6964644D01*
X11964644Y-6964644D01*
X11964644Y-7035356D01*
X12035356Y-7035356D01*
X12035356Y-7289356D02*
X12035356Y-7218644D01*
X11964644Y-7218644D01*
X11964644Y-7289356D01*
X12035356Y-7289356D01*
X12035356Y-7543356D02*
X12035356Y-7472644D01*
X11964644Y-7472644D01*
X11964644Y-7543356D01*
X12035356Y-7543356D01*
X12035356Y-7797356D02*
X12035356Y-7726644D01*
X11964644Y-7726644D01*
X11964644Y-7797356D01*
X12035356Y-7797356D01*
X12035356Y-8051356D02*
X12035356Y-7980644D01*
X11964644Y-7980644D01*
X11964644Y-8051356D01*
X12035356Y-8051356D01*
X12035356Y-8305356D02*
X12035356Y-8234644D01*
X11964644Y-8234644D01*
X11964644Y-8305356D01*
X12035356Y-8305356D01*
X12035356Y-8559356D02*
X12035356Y-8488644D01*
X11964644Y-8488644D01*
X11964644Y-8559356D01*
X12035356Y-8559356D01*
X12035356Y-8813356D02*
X12035356Y-8742644D01*
X11964644Y-8742644D01*
X11964644Y-8813356D01*
X12035356Y-8813356D01*
X12035356Y-9067356D02*
X12035356Y-8996644D01*
X11964644Y-8996644D01*
X11964644Y-9067356D01*
X12035356Y-9067356D01*
X12035356Y-9321356D02*
X12035356Y-9250644D01*
X11964644Y-9250644D01*
X11964644Y-9321356D01*
X12035356Y-9321356D01*
X12035356Y-9575356D02*
X12035356Y-9504644D01*
X11964644Y-9504644D01*
X11964644Y-9575356D01*
X12035356Y-9575356D01*
X12035356Y-9829356D02*
X12035356Y-9758644D01*
X11964644Y-9758644D01*
X11964644Y-9829356D01*
X12035356Y-9829356D01*
X12035356Y-10083356D02*
X12035356Y-10012644D01*
X11964644Y-10012644D01*
X11964644Y-10083356D01*
X12035356Y-10083356D01*
X12035356Y-10337356D02*
X12035356Y-10266644D01*
X11964644Y-10266644D01*
X11964644Y-10337356D01*
X12035356Y-10337356D01*
X12035356Y-10591356D02*
X12035356Y-10520644D01*
X11964644Y-10520644D01*
X11964644Y-10591356D01*
X12035356Y-10591356D01*
X12199956Y-13949956D02*
X12199956Y-13879244D01*
X12129244Y-13879244D01*
X12129244Y-13949956D01*
X12199956Y-13949956D01*
X12407156Y-7756956D02*
X12407156Y-7686244D01*
X12336444Y-7686244D01*
X12336444Y-7756956D01*
X12407156Y-7756956D01*
X13167156Y-7756956D02*
X13167156Y-7686244D01*
X13096444Y-7686244D01*
X13096444Y-7756956D01*
X13167156Y-7756956D01*
X13399756Y-13954556D02*
X13399756Y-13883844D01*
X13329044Y-13883844D01*
X13329044Y-13954556D01*
X13399756Y-13954556D01*
X13412456Y-5572556D02*
X13412456Y-5501844D01*
X13341744Y-5501844D01*
X13341744Y-5572556D01*
X13412456Y-5572556D01*
X13559356Y-7029356D02*
X13559356Y-6958644D01*
X13488644Y-6958644D01*
X13488644Y-7029356D01*
X13559356Y-7029356D01*
X13559356Y-7283356D02*
X13559356Y-7212644D01*
X13488644Y-7212644D01*
X13488644Y-7283356D01*
X13559356Y-7283356D01*
X13559356Y-7537356D02*
X13559356Y-7466644D01*
X13488644Y-7466644D01*
X13488644Y-7537356D01*
X13559356Y-7537356D01*
X13559356Y-7791356D02*
X13559356Y-7720644D01*
X13488644Y-7720644D01*
X13488644Y-7791356D01*
X13559356Y-7791356D01*
X13559356Y-8045356D02*
X13559356Y-7974644D01*
X13488644Y-7974644D01*
X13488644Y-8045356D01*
X13559356Y-8045356D01*
X13559356Y-8299356D02*
X13559356Y-8228644D01*
X13488644Y-8228644D01*
X13488644Y-8299356D01*
X13559356Y-8299356D01*
X13559356Y-8553356D02*
X13559356Y-8482644D01*
X13488644Y-8482644D01*
X13488644Y-8553356D01*
X13559356Y-8553356D01*
X13559356Y-8807356D02*
X13559356Y-8736644D01*
X13488644Y-8736644D01*
X13488644Y-8807356D01*
X13559356Y-8807356D01*
X13559356Y-9061356D02*
X13559356Y-8990644D01*
X13488644Y-8990644D01*
X13488644Y-9061356D01*
X13559356Y-9061356D01*
X13559356Y-9315356D02*
X13559356Y-9244644D01*
X13488644Y-9244644D01*
X13488644Y-9315356D01*
X13559356Y-9315356D01*
X13559356Y-9569356D02*
X13559356Y-9498644D01*
X13488644Y-9498644D01*
X13488644Y-9569356D01*
X13559356Y-9569356D01*
X13559356Y-9823356D02*
X13559356Y-9752644D01*
X13488644Y-9752644D01*
X13488644Y-9823356D01*
X13559356Y-9823356D01*
X13559356Y-10077356D02*
X13559356Y-10006644D01*
X13488644Y-10006644D01*
X13488644Y-10077356D01*
X13559356Y-10077356D01*
X13559356Y-10331356D02*
X13559356Y-10260644D01*
X13488644Y-10260644D01*
X13488644Y-10331356D01*
X13559356Y-10331356D01*
X13559356Y-10585356D02*
X13559356Y-10514644D01*
X13488644Y-10514644D01*
X13488644Y-10585356D01*
X13559356Y-10585356D01*
X13649756Y-13954556D02*
X13649756Y-13883844D01*
X13579044Y-13883844D01*
X13579044Y-13954556D01*
X13649756Y-13954556D01*
X13662456Y-5572556D02*
X13662456Y-5501844D01*
X13591744Y-5501844D01*
X13591744Y-5572556D01*
X13662456Y-5572556D01*
X14295356Y-9135356D02*
X14295356Y-9064644D01*
X14224644Y-9064644D01*
X14224644Y-9135356D01*
X14295356Y-9135356D01*
X14295356Y-9385356D02*
X14295356Y-9314644D01*
X14224644Y-9314644D01*
X14224644Y-9385356D01*
X14295356Y-9385356D01*
X14295356Y-10035356D02*
X14295356Y-9964644D01*
X14224644Y-9964644D01*
X14224644Y-10035356D01*
X14295356Y-10035356D01*
X14295356Y-10285356D02*
X14295356Y-10214644D01*
X14224644Y-10214644D01*
X14224644Y-10285356D01*
X14295356Y-10285356D01*
D12*
X11260000Y-5690000D02*
X11420000Y-5530000D01*
X11260000Y-5370000D01*
X11100000Y-5530000D01*
X11260000Y-5690000D01*
X11260000Y-14090000D02*
X11420000Y-13930000D01*
X11260000Y-13770000D01*
X11100000Y-13930000D01*
X11260000Y-14090000D01*
X14260000Y-5690000D02*
X14420000Y-5530000D01*
X14260000Y-5370000D01*
X14100000Y-5530000D01*
X14260000Y-5690000D01*
X14260000Y-14090000D02*
X14420000Y-13930000D01*
X14260000Y-13770000D01*
X14100000Y-13930000D01*
X14260000Y-14090000D01*
D10*
X11210777Y-14551484D02*
X11210777Y-14351484D01*
X11210777Y-14351484D02*
X11258396Y-14351484D01*
X11258396Y-14351484D02*
X11286967Y-14361008D01*
X11286967Y-14361008D02*
X11306015Y-14380055D01*
X11306015Y-14380055D02*
X11315539Y-14399103D01*
X11315539Y-14399103D02*
X11325062Y-14437198D01*
X11325062Y-14437198D02*
X11325062Y-14465769D01*
X11325062Y-14465769D02*
X11315539Y-14503865D01*
X11315539Y-14503865D02*
X11306015Y-14522912D01*
X11306015Y-14522912D02*
X11286967Y-14541960D01*
X11286967Y-14541960D02*
X11258396Y-14551484D01*
X11258396Y-14551484D02*
X11210777Y-14551484D01*
X11410777Y-14551484D02*
X11410777Y-14418150D01*
X11410777Y-14456246D02*
X11420301Y-14437198D01*
X11420301Y-14437198D02*
X11429824Y-14427674D01*
X11429824Y-14427674D02*
X11448872Y-14418150D01*
X11448872Y-14418150D02*
X11467920Y-14418150D01*
X11534586Y-14551484D02*
X11534586Y-14418150D01*
X11534586Y-14351484D02*
X11525062Y-14361008D01*
X11525062Y-14361008D02*
X11534586Y-14370531D01*
X11534586Y-14370531D02*
X11544110Y-14361008D01*
X11544110Y-14361008D02*
X11534586Y-14351484D01*
X11534586Y-14351484D02*
X11534586Y-14370531D01*
X11658396Y-14551484D02*
X11639348Y-14541960D01*
X11639348Y-14541960D02*
X11629824Y-14522912D01*
X11629824Y-14522912D02*
X11629824Y-14351484D01*
X11763158Y-14551484D02*
X11744110Y-14541960D01*
X11744110Y-14541960D02*
X11734586Y-14522912D01*
X11734586Y-14522912D02*
X11734586Y-14351484D01*
X11991729Y-14551484D02*
X11991729Y-14351484D01*
X11991729Y-14351484D02*
X12058396Y-14494341D01*
X12058396Y-14494341D02*
X12125062Y-14351484D01*
X12125062Y-14351484D02*
X12125062Y-14551484D01*
X12306015Y-14551484D02*
X12306015Y-14446722D01*
X12306015Y-14446722D02*
X12296491Y-14427674D01*
X12296491Y-14427674D02*
X12277443Y-14418150D01*
X12277443Y-14418150D02*
X12239348Y-14418150D01*
X12239348Y-14418150D02*
X12220301Y-14427674D01*
X12306015Y-14541960D02*
X12286967Y-14551484D01*
X12286967Y-14551484D02*
X12239348Y-14551484D01*
X12239348Y-14551484D02*
X12220301Y-14541960D01*
X12220301Y-14541960D02*
X12210777Y-14522912D01*
X12210777Y-14522912D02*
X12210777Y-14503865D01*
X12210777Y-14503865D02*
X12220301Y-14484817D01*
X12220301Y-14484817D02*
X12239348Y-14475293D01*
X12239348Y-14475293D02*
X12286967Y-14475293D01*
X12286967Y-14475293D02*
X12306015Y-14465769D01*
X12401253Y-14418150D02*
X12401253Y-14618150D01*
X12401253Y-14427674D02*
X12420301Y-14418150D01*
X12420301Y-14418150D02*
X12458396Y-14418150D01*
X12458396Y-14418150D02*
X12477443Y-14427674D01*
X12477443Y-14427674D02*
X12486967Y-14437198D01*
X12486967Y-14437198D02*
X12496491Y-14456246D01*
X12496491Y-14456246D02*
X12496491Y-14513388D01*
X12496491Y-14513388D02*
X12486967Y-14532436D01*
X12486967Y-14532436D02*
X12477443Y-14541960D01*
X12477443Y-14541960D02*
X12458396Y-14551484D01*
X12458396Y-14551484D02*
X12420301Y-14551484D01*
X12420301Y-14551484D02*
X12401253Y-14541960D01*
X12582205Y-14532436D02*
X12591729Y-14541960D01*
X12591729Y-14541960D02*
X12582205Y-14551484D01*
X12582205Y-14551484D02*
X12572682Y-14541960D01*
X12572682Y-14541960D02*
X12582205Y-14532436D01*
X12582205Y-14532436D02*
X12582205Y-14551484D01*
X12582205Y-14427674D02*
X12591729Y-14437198D01*
X12591729Y-14437198D02*
X12582205Y-14446722D01*
X12582205Y-14446722D02*
X12572682Y-14437198D01*
X12572682Y-14437198D02*
X12582205Y-14427674D01*
X12582205Y-14427674D02*
X12582205Y-14446722D01*
D11*
X10920000Y-14865000D02*
X10950000Y-14895000D01*
X10950000Y-14865000D02*
X10920000Y-14895000D01*
D10*
X11248872Y-14771484D02*
X11267920Y-14771484D01*
X11267920Y-14771484D02*
X11286967Y-14781008D01*
X11286967Y-14781008D02*
X11296491Y-14790531D01*
X11296491Y-14790531D02*
X11306015Y-14809579D01*
X11306015Y-14809579D02*
X11315539Y-14847674D01*
X11315539Y-14847674D02*
X11315539Y-14895293D01*
X11315539Y-14895293D02*
X11306015Y-14933388D01*
X11306015Y-14933388D02*
X11296491Y-14952436D01*
X11296491Y-14952436D02*
X11286967Y-14961960D01*
X11286967Y-14961960D02*
X11267920Y-14971484D01*
X11267920Y-14971484D02*
X11248872Y-14971484D01*
X11248872Y-14971484D02*
X11229824Y-14961960D01*
X11229824Y-14961960D02*
X11220301Y-14952436D01*
X11220301Y-14952436D02*
X11210777Y-14933388D01*
X11210777Y-14933388D02*
X11201253Y-14895293D01*
X11201253Y-14895293D02*
X11201253Y-14847674D01*
X11201253Y-14847674D02*
X11210777Y-14809579D01*
X11210777Y-14809579D02*
X11220301Y-14790531D01*
X11220301Y-14790531D02*
X11229824Y-14781008D01*
X11229824Y-14781008D02*
X11248872Y-14771484D01*
X11401253Y-14952436D02*
X11410777Y-14961960D01*
X11410777Y-14961960D02*
X11401253Y-14971484D01*
X11401253Y-14971484D02*
X11391729Y-14961960D01*
X11391729Y-14961960D02*
X11401253Y-14952436D01*
X11401253Y-14952436D02*
X11401253Y-14971484D01*
X11477443Y-14771484D02*
X11601253Y-14771484D01*
X11601253Y-14771484D02*
X11534586Y-14847674D01*
X11534586Y-14847674D02*
X11563158Y-14847674D01*
X11563158Y-14847674D02*
X11582205Y-14857198D01*
X11582205Y-14857198D02*
X11591729Y-14866722D01*
X11591729Y-14866722D02*
X11601253Y-14885769D01*
X11601253Y-14885769D02*
X11601253Y-14933388D01*
X11601253Y-14933388D02*
X11591729Y-14952436D01*
X11591729Y-14952436D02*
X11582205Y-14961960D01*
X11582205Y-14961960D02*
X11563158Y-14971484D01*
X11563158Y-14971484D02*
X11506015Y-14971484D01*
X11506015Y-14971484D02*
X11486967Y-14961960D01*
X11486967Y-14961960D02*
X11477443Y-14952436D01*
X11725062Y-14771484D02*
X11744110Y-14771484D01*
X11744110Y-14771484D02*
X11763158Y-14781008D01*
X11763158Y-14781008D02*
X11772682Y-14790531D01*
X11772682Y-14790531D02*
X11782205Y-14809579D01*
X11782205Y-14809579D02*
X11791729Y-14847674D01*
X11791729Y-14847674D02*
X11791729Y-14895293D01*
X11791729Y-14895293D02*
X11782205Y-14933388D01*
X11782205Y-14933388D02*
X11772682Y-14952436D01*
X11772682Y-14952436D02*
X11763158Y-14961960D01*
X11763158Y-14961960D02*
X11744110Y-14971484D01*
X11744110Y-14971484D02*
X11725062Y-14971484D01*
X11725062Y-14971484D02*
X11706015Y-14961960D01*
X11706015Y-14961960D02*
X11696491Y-14952436D01*
X11696491Y-14952436D02*
X11686967Y-14933388D01*
X11686967Y-14933388D02*
X11677443Y-14895293D01*
X11677443Y-14895293D02*
X11677443Y-14847674D01*
X11677443Y-14847674D02*
X11686967Y-14809579D01*
X11686967Y-14809579D02*
X11696491Y-14790531D01*
X11696491Y-14790531D02*
X11706015Y-14781008D01*
X11706015Y-14781008D02*
X11725062Y-14771484D01*
X11915539Y-14771484D02*
X11934586Y-14771484D01*
X11934586Y-14771484D02*
X11953634Y-14781008D01*
X11953634Y-14781008D02*
X11963158Y-14790531D01*
X11963158Y-14790531D02*
X11972682Y-14809579D01*
X11972682Y-14809579D02*
X11982205Y-14847674D01*
X11982205Y-14847674D02*
X11982205Y-14895293D01*
X11982205Y-14895293D02*
X11972682Y-14933388D01*
X11972682Y-14933388D02*
X11963158Y-14952436D01*
X11963158Y-14952436D02*
X11953634Y-14961960D01*
X11953634Y-14961960D02*
X11934586Y-14971484D01*
X11934586Y-14971484D02*
X11915539Y-14971484D01*
X11915539Y-14971484D02*
X11896491Y-14961960D01*
X11896491Y-14961960D02*
X11886967Y-14952436D01*
X11886967Y-14952436D02*
X11877443Y-14933388D01*
X11877443Y-14933388D02*
X11867920Y-14895293D01*
X11867920Y-14895293D02*
X11867920Y-14847674D01*
X11867920Y-14847674D02*
X11877443Y-14809579D01*
X11877443Y-14809579D02*
X11886967Y-14790531D01*
X11886967Y-14790531D02*
X11896491Y-14781008D01*
X11896491Y-14781008D02*
X11915539Y-14771484D01*
X12067920Y-14971484D02*
X12067920Y-14838150D01*
X12067920Y-14857198D02*
X12077443Y-14847674D01*
X12077443Y-14847674D02*
X12096491Y-14838150D01*
X12096491Y-14838150D02*
X12125063Y-14838150D01*
X12125063Y-14838150D02*
X12144110Y-14847674D01*
X12144110Y-14847674D02*
X12153634Y-14866722D01*
X12153634Y-14866722D02*
X12153634Y-14971484D01*
X12153634Y-14866722D02*
X12163158Y-14847674D01*
X12163158Y-14847674D02*
X12182205Y-14838150D01*
X12182205Y-14838150D02*
X12210777Y-14838150D01*
X12210777Y-14838150D02*
X12229824Y-14847674D01*
X12229824Y-14847674D02*
X12239348Y-14866722D01*
X12239348Y-14866722D02*
X12239348Y-14971484D01*
X12334586Y-14971484D02*
X12334586Y-14838150D01*
X12334586Y-14857198D02*
X12344110Y-14847674D01*
X12344110Y-14847674D02*
X12363158Y-14838150D01*
X12363158Y-14838150D02*
X12391729Y-14838150D01*
X12391729Y-14838150D02*
X12410777Y-14847674D01*
X12410777Y-14847674D02*
X12420301Y-14866722D01*
X12420301Y-14866722D02*
X12420301Y-14971484D01*
X12420301Y-14866722D02*
X12429824Y-14847674D01*
X12429824Y-14847674D02*
X12448872Y-14838150D01*
X12448872Y-14838150D02*
X12477443Y-14838150D01*
X12477443Y-14838150D02*
X12496491Y-14847674D01*
X12496491Y-14847674D02*
X12506015Y-14866722D01*
X12506015Y-14866722D02*
X12506015Y-14971484D01*
X12896491Y-14761960D02*
X12725063Y-15019103D01*
X13153634Y-14771484D02*
X13172682Y-14771484D01*
X13172682Y-14771484D02*
X13191729Y-14781008D01*
X13191729Y-14781008D02*
X13201253Y-14790531D01*
X13201253Y-14790531D02*
X13210777Y-14809579D01*
X13210777Y-14809579D02*
X13220301Y-14847674D01*
X13220301Y-14847674D02*
X13220301Y-14895293D01*
X13220301Y-14895293D02*
X13210777Y-14933388D01*
X13210777Y-14933388D02*
X13201253Y-14952436D01*
X13201253Y-14952436D02*
X13191729Y-14961960D01*
X13191729Y-14961960D02*
X13172682Y-14971484D01*
X13172682Y-14971484D02*
X13153634Y-14971484D01*
X13153634Y-14971484D02*
X13134586Y-14961960D01*
X13134586Y-14961960D02*
X13125063Y-14952436D01*
X13125063Y-14952436D02*
X13115539Y-14933388D01*
X13115539Y-14933388D02*
X13106015Y-14895293D01*
X13106015Y-14895293D02*
X13106015Y-14847674D01*
X13106015Y-14847674D02*
X13115539Y-14809579D01*
X13115539Y-14809579D02*
X13125063Y-14790531D01*
X13125063Y-14790531D02*
X13134586Y-14781008D01*
X13134586Y-14781008D02*
X13153634Y-14771484D01*
X13306015Y-14952436D02*
X13315539Y-14961960D01*
X13315539Y-14961960D02*
X13306015Y-14971484D01*
X13306015Y-14971484D02*
X13296491Y-14961960D01*
X13296491Y-14961960D02*
X13306015Y-14952436D01*
X13306015Y-14952436D02*
X13306015Y-14971484D01*
X13439348Y-14771484D02*
X13458396Y-14771484D01*
X13458396Y-14771484D02*
X13477444Y-14781008D01*
X13477444Y-14781008D02*
X13486967Y-14790531D01*
X13486967Y-14790531D02*
X13496491Y-14809579D01*
X13496491Y-14809579D02*
X13506015Y-14847674D01*
X13506015Y-14847674D02*
X13506015Y-14895293D01*
X13506015Y-14895293D02*
X13496491Y-14933388D01*
X13496491Y-14933388D02*
X13486967Y-14952436D01*
X13486967Y-14952436D02*
X13477444Y-14961960D01*
X13477444Y-14961960D02*
X13458396Y-14971484D01*
X13458396Y-14971484D02*
X13439348Y-14971484D01*
X13439348Y-14971484D02*
X13420301Y-14961960D01*
X13420301Y-14961960D02*
X13410777Y-14952436D01*
X13410777Y-14952436D02*
X13401253Y-14933388D01*
X13401253Y-14933388D02*
X13391729Y-14895293D01*
X13391729Y-14895293D02*
X13391729Y-14847674D01*
X13391729Y-14847674D02*
X13401253Y-14809579D01*
X13401253Y-14809579D02*
X13410777Y-14790531D01*
X13410777Y-14790531D02*
X13420301Y-14781008D01*
X13420301Y-14781008D02*
X13439348Y-14771484D01*
X13696491Y-14971484D02*
X13582206Y-14971484D01*
X13639348Y-14971484D02*
X13639348Y-14771484D01*
X13639348Y-14771484D02*
X13620301Y-14800055D01*
X13620301Y-14800055D02*
X13601253Y-14819103D01*
X13601253Y-14819103D02*
X13582206Y-14828627D01*
X13886967Y-14971484D02*
X13772682Y-14971484D01*
X13829825Y-14971484D02*
X13829825Y-14771484D01*
X13829825Y-14771484D02*
X13810777Y-14800055D01*
X13810777Y-14800055D02*
X13791729Y-14819103D01*
X13791729Y-14819103D02*
X13772682Y-14828627D01*
X14001253Y-14857198D02*
X13982206Y-14847674D01*
X13982206Y-14847674D02*
X13972682Y-14838150D01*
X13972682Y-14838150D02*
X13963158Y-14819103D01*
X13963158Y-14819103D02*
X13963158Y-14809579D01*
X13963158Y-14809579D02*
X13972682Y-14790531D01*
X13972682Y-14790531D02*
X13982206Y-14781008D01*
X13982206Y-14781008D02*
X14001253Y-14771484D01*
X14001253Y-14771484D02*
X14039348Y-14771484D01*
X14039348Y-14771484D02*
X14058396Y-14781008D01*
X14058396Y-14781008D02*
X14067920Y-14790531D01*
X14067920Y-14790531D02*
X14077444Y-14809579D01*
X14077444Y-14809579D02*
X14077444Y-14819103D01*
X14077444Y-14819103D02*
X14067920Y-14838150D01*
X14067920Y-14838150D02*
X14058396Y-14847674D01*
X14058396Y-14847674D02*
X14039348Y-14857198D01*
X14039348Y-14857198D02*
X14001253Y-14857198D01*
X14001253Y-14857198D02*
X13982206Y-14866722D01*
X13982206Y-14866722D02*
X13972682Y-14876246D01*
X13972682Y-14876246D02*
X13963158Y-14895293D01*
X13963158Y-14895293D02*
X13963158Y-14933388D01*
X13963158Y-14933388D02*
X13972682Y-14952436D01*
X13972682Y-14952436D02*
X13982206Y-14961960D01*
X13982206Y-14961960D02*
X14001253Y-14971484D01*
X14001253Y-14971484D02*
X14039348Y-14971484D01*
X14039348Y-14971484D02*
X14058396Y-14961960D01*
X14058396Y-14961960D02*
X14067920Y-14952436D01*
X14067920Y-14952436D02*
X14077444Y-14933388D01*
X14077444Y-14933388D02*
X14077444Y-14895293D01*
X14077444Y-14895293D02*
X14067920Y-14876246D01*
X14067920Y-14876246D02*
X14058396Y-14866722D01*
X14058396Y-14866722D02*
X14039348Y-14857198D01*
X14153634Y-14771484D02*
X14153634Y-14809579D01*
X14229825Y-14771484D02*
X14229825Y-14809579D01*
X14525063Y-15047674D02*
X14515539Y-15038150D01*
X14515539Y-15038150D02*
X14496491Y-15009579D01*
X14496491Y-15009579D02*
X14486968Y-14990531D01*
X14486968Y-14990531D02*
X14477444Y-14961960D01*
X14477444Y-14961960D02*
X14467920Y-14914341D01*
X14467920Y-14914341D02*
X14467920Y-14876246D01*
X14467920Y-14876246D02*
X14477444Y-14828627D01*
X14477444Y-14828627D02*
X14486968Y-14800055D01*
X14486968Y-14800055D02*
X14496491Y-14781008D01*
X14496491Y-14781008D02*
X14515539Y-14752436D01*
X14515539Y-14752436D02*
X14525063Y-14742912D01*
X14706015Y-14971484D02*
X14591729Y-14971484D01*
X14648872Y-14971484D02*
X14648872Y-14771484D01*
X14648872Y-14771484D02*
X14629825Y-14800055D01*
X14629825Y-14800055D02*
X14610777Y-14819103D01*
X14610777Y-14819103D02*
X14591729Y-14828627D01*
X14877444Y-14838150D02*
X14877444Y-14971484D01*
X14829825Y-14761960D02*
X14782206Y-14904817D01*
X14782206Y-14904817D02*
X14906015Y-14904817D01*
X15077444Y-14771484D02*
X14982206Y-14771484D01*
X14982206Y-14771484D02*
X14972682Y-14866722D01*
X14972682Y-14866722D02*
X14982206Y-14857198D01*
X14982206Y-14857198D02*
X15001253Y-14847674D01*
X15001253Y-14847674D02*
X15048872Y-14847674D01*
X15048872Y-14847674D02*
X15067920Y-14857198D01*
X15067920Y-14857198D02*
X15077444Y-14866722D01*
X15077444Y-14866722D02*
X15086968Y-14885769D01*
X15086968Y-14885769D02*
X15086968Y-14933388D01*
X15086968Y-14933388D02*
X15077444Y-14952436D01*
X15077444Y-14952436D02*
X15067920Y-14961960D01*
X15067920Y-14961960D02*
X15048872Y-14971484D01*
X15048872Y-14971484D02*
X15001253Y-14971484D01*
X15001253Y-14971484D02*
X14982206Y-14961960D01*
X14982206Y-14961960D02*
X14972682Y-14952436D01*
X15325063Y-14971484D02*
X15325063Y-14771484D01*
X15410777Y-14971484D02*
X15410777Y-14866722D01*
X15410777Y-14866722D02*
X15401253Y-14847674D01*
X15401253Y-14847674D02*
X15382206Y-14838150D01*
X15382206Y-14838150D02*
X15353634Y-14838150D01*
X15353634Y-14838150D02*
X15334587Y-14847674D01*
X15334587Y-14847674D02*
X15325063Y-14857198D01*
X15534587Y-14971484D02*
X15515539Y-14961960D01*
X15515539Y-14961960D02*
X15506015Y-14952436D01*
X15506015Y-14952436D02*
X15496491Y-14933388D01*
X15496491Y-14933388D02*
X15496491Y-14876246D01*
X15496491Y-14876246D02*
X15506015Y-14857198D01*
X15506015Y-14857198D02*
X15515539Y-14847674D01*
X15515539Y-14847674D02*
X15534587Y-14838150D01*
X15534587Y-14838150D02*
X15563158Y-14838150D01*
X15563158Y-14838150D02*
X15582206Y-14847674D01*
X15582206Y-14847674D02*
X15591730Y-14857198D01*
X15591730Y-14857198D02*
X15601253Y-14876246D01*
X15601253Y-14876246D02*
X15601253Y-14933388D01*
X15601253Y-14933388D02*
X15591730Y-14952436D01*
X15591730Y-14952436D02*
X15582206Y-14961960D01*
X15582206Y-14961960D02*
X15563158Y-14971484D01*
X15563158Y-14971484D02*
X15534587Y-14971484D01*
X15715539Y-14971484D02*
X15696491Y-14961960D01*
X15696491Y-14961960D02*
X15686968Y-14942912D01*
X15686968Y-14942912D02*
X15686968Y-14771484D01*
X15867920Y-14961960D02*
X15848872Y-14971484D01*
X15848872Y-14971484D02*
X15810777Y-14971484D01*
X15810777Y-14971484D02*
X15791730Y-14961960D01*
X15791730Y-14961960D02*
X15782206Y-14942912D01*
X15782206Y-14942912D02*
X15782206Y-14866722D01*
X15782206Y-14866722D02*
X15791730Y-14847674D01*
X15791730Y-14847674D02*
X15810777Y-14838150D01*
X15810777Y-14838150D02*
X15848872Y-14838150D01*
X15848872Y-14838150D02*
X15867920Y-14847674D01*
X15867920Y-14847674D02*
X15877444Y-14866722D01*
X15877444Y-14866722D02*
X15877444Y-14885769D01*
X15877444Y-14885769D02*
X15782206Y-14904817D01*
X15953634Y-14961960D02*
X15972682Y-14971484D01*
X15972682Y-14971484D02*
X16010777Y-14971484D01*
X16010777Y-14971484D02*
X16029825Y-14961960D01*
X16029825Y-14961960D02*
X16039349Y-14942912D01*
X16039349Y-14942912D02*
X16039349Y-14933388D01*
X16039349Y-14933388D02*
X16029825Y-14914341D01*
X16029825Y-14914341D02*
X16010777Y-14904817D01*
X16010777Y-14904817D02*
X15982206Y-14904817D01*
X15982206Y-14904817D02*
X15963158Y-14895293D01*
X15963158Y-14895293D02*
X15953634Y-14876246D01*
X15953634Y-14876246D02*
X15953634Y-14866722D01*
X15953634Y-14866722D02*
X15963158Y-14847674D01*
X15963158Y-14847674D02*
X15982206Y-14838150D01*
X15982206Y-14838150D02*
X16010777Y-14838150D01*
X16010777Y-14838150D02*
X16029825Y-14847674D01*
X16106015Y-15047674D02*
X16115539Y-15038150D01*
X16115539Y-15038150D02*
X16134587Y-15009579D01*
X16134587Y-15009579D02*
X16144111Y-14990531D01*
X16144111Y-14990531D02*
X16153634Y-14961960D01*
X16153634Y-14961960D02*
X16163158Y-14914341D01*
X16163158Y-14914341D02*
X16163158Y-14876246D01*
X16163158Y-14876246D02*
X16153634Y-14828627D01*
X16153634Y-14828627D02*
X16144111Y-14800055D01*
X16144111Y-14800055D02*
X16134587Y-14781008D01*
X16134587Y-14781008D02*
X16115539Y-14752436D01*
X16115539Y-14752436D02*
X16106015Y-14742912D01*
D11*
X10950000Y-15144000D02*
G75*
G02*
X10917000Y-15144000I-16500J0D01*
G01*
X10917000Y-15144000D02*
G75*
G02*
X10950000Y-15144000I16500J0D01*
G01*
D10*
X11248872Y-15035484D02*
X11267920Y-15035484D01*
X11267920Y-15035484D02*
X11286967Y-15045008D01*
X11286967Y-15045008D02*
X11296491Y-15054531D01*
X11296491Y-15054531D02*
X11306015Y-15073579D01*
X11306015Y-15073579D02*
X11315539Y-15111674D01*
X11315539Y-15111674D02*
X11315539Y-15159293D01*
X11315539Y-15159293D02*
X11306015Y-15197388D01*
X11306015Y-15197388D02*
X11296491Y-15216436D01*
X11296491Y-15216436D02*
X11286967Y-15225960D01*
X11286967Y-15225960D02*
X11267920Y-15235484D01*
X11267920Y-15235484D02*
X11248872Y-15235484D01*
X11248872Y-15235484D02*
X11229824Y-15225960D01*
X11229824Y-15225960D02*
X11220301Y-15216436D01*
X11220301Y-15216436D02*
X11210777Y-15197388D01*
X11210777Y-15197388D02*
X11201253Y-15159293D01*
X11201253Y-15159293D02*
X11201253Y-15111674D01*
X11201253Y-15111674D02*
X11210777Y-15073579D01*
X11210777Y-15073579D02*
X11220301Y-15054531D01*
X11220301Y-15054531D02*
X11229824Y-15045008D01*
X11229824Y-15045008D02*
X11248872Y-15035484D01*
X11401253Y-15216436D02*
X11410777Y-15225960D01*
X11410777Y-15225960D02*
X11401253Y-15235484D01*
X11401253Y-15235484D02*
X11391729Y-15225960D01*
X11391729Y-15225960D02*
X11401253Y-15216436D01*
X11401253Y-15216436D02*
X11401253Y-15235484D01*
X11477443Y-15035484D02*
X11601253Y-15035484D01*
X11601253Y-15035484D02*
X11534586Y-15111674D01*
X11534586Y-15111674D02*
X11563158Y-15111674D01*
X11563158Y-15111674D02*
X11582205Y-15121198D01*
X11582205Y-15121198D02*
X11591729Y-15130722D01*
X11591729Y-15130722D02*
X11601253Y-15149769D01*
X11601253Y-15149769D02*
X11601253Y-15197388D01*
X11601253Y-15197388D02*
X11591729Y-15216436D01*
X11591729Y-15216436D02*
X11582205Y-15225960D01*
X11582205Y-15225960D02*
X11563158Y-15235484D01*
X11563158Y-15235484D02*
X11506015Y-15235484D01*
X11506015Y-15235484D02*
X11486967Y-15225960D01*
X11486967Y-15225960D02*
X11477443Y-15216436D01*
X11667920Y-15035484D02*
X11791729Y-15035484D01*
X11791729Y-15035484D02*
X11725062Y-15111674D01*
X11725062Y-15111674D02*
X11753634Y-15111674D01*
X11753634Y-15111674D02*
X11772682Y-15121198D01*
X11772682Y-15121198D02*
X11782205Y-15130722D01*
X11782205Y-15130722D02*
X11791729Y-15149769D01*
X11791729Y-15149769D02*
X11791729Y-15197388D01*
X11791729Y-15197388D02*
X11782205Y-15216436D01*
X11782205Y-15216436D02*
X11772682Y-15225960D01*
X11772682Y-15225960D02*
X11753634Y-15235484D01*
X11753634Y-15235484D02*
X11696491Y-15235484D01*
X11696491Y-15235484D02*
X11677443Y-15225960D01*
X11677443Y-15225960D02*
X11667920Y-15216436D01*
X11915539Y-15035484D02*
X11934586Y-15035484D01*
X11934586Y-15035484D02*
X11953634Y-15045008D01*
X11953634Y-15045008D02*
X11963158Y-15054531D01*
X11963158Y-15054531D02*
X11972682Y-15073579D01*
X11972682Y-15073579D02*
X11982205Y-15111674D01*
X11982205Y-15111674D02*
X11982205Y-15159293D01*
X11982205Y-15159293D02*
X11972682Y-15197388D01*
X11972682Y-15197388D02*
X11963158Y-15216436D01*
X11963158Y-15216436D02*
X11953634Y-15225960D01*
X11953634Y-15225960D02*
X11934586Y-15235484D01*
X11934586Y-15235484D02*
X11915539Y-15235484D01*
X11915539Y-15235484D02*
X11896491Y-15225960D01*
X11896491Y-15225960D02*
X11886967Y-15216436D01*
X11886967Y-15216436D02*
X11877443Y-15197388D01*
X11877443Y-15197388D02*
X11867920Y-15159293D01*
X11867920Y-15159293D02*
X11867920Y-15111674D01*
X11867920Y-15111674D02*
X11877443Y-15073579D01*
X11877443Y-15073579D02*
X11886967Y-15054531D01*
X11886967Y-15054531D02*
X11896491Y-15045008D01*
X11896491Y-15045008D02*
X11915539Y-15035484D01*
X12067920Y-15235484D02*
X12067920Y-15102150D01*
X12067920Y-15121198D02*
X12077443Y-15111674D01*
X12077443Y-15111674D02*
X12096491Y-15102150D01*
X12096491Y-15102150D02*
X12125063Y-15102150D01*
X12125063Y-15102150D02*
X12144110Y-15111674D01*
X12144110Y-15111674D02*
X12153634Y-15130722D01*
X12153634Y-15130722D02*
X12153634Y-15235484D01*
X12153634Y-15130722D02*
X12163158Y-15111674D01*
X12163158Y-15111674D02*
X12182205Y-15102150D01*
X12182205Y-15102150D02*
X12210777Y-15102150D01*
X12210777Y-15102150D02*
X12229824Y-15111674D01*
X12229824Y-15111674D02*
X12239348Y-15130722D01*
X12239348Y-15130722D02*
X12239348Y-15235484D01*
X12334586Y-15235484D02*
X12334586Y-15102150D01*
X12334586Y-15121198D02*
X12344110Y-15111674D01*
X12344110Y-15111674D02*
X12363158Y-15102150D01*
X12363158Y-15102150D02*
X12391729Y-15102150D01*
X12391729Y-15102150D02*
X12410777Y-15111674D01*
X12410777Y-15111674D02*
X12420301Y-15130722D01*
X12420301Y-15130722D02*
X12420301Y-15235484D01*
X12420301Y-15130722D02*
X12429824Y-15111674D01*
X12429824Y-15111674D02*
X12448872Y-15102150D01*
X12448872Y-15102150D02*
X12477443Y-15102150D01*
X12477443Y-15102150D02*
X12496491Y-15111674D01*
X12496491Y-15111674D02*
X12506015Y-15130722D01*
X12506015Y-15130722D02*
X12506015Y-15235484D01*
X12896491Y-15025960D02*
X12725063Y-15283103D01*
X13153634Y-15035484D02*
X13172682Y-15035484D01*
X13172682Y-15035484D02*
X13191729Y-15045008D01*
X13191729Y-15045008D02*
X13201253Y-15054531D01*
X13201253Y-15054531D02*
X13210777Y-15073579D01*
X13210777Y-15073579D02*
X13220301Y-15111674D01*
X13220301Y-15111674D02*
X13220301Y-15159293D01*
X13220301Y-15159293D02*
X13210777Y-15197388D01*
X13210777Y-15197388D02*
X13201253Y-15216436D01*
X13201253Y-15216436D02*
X13191729Y-15225960D01*
X13191729Y-15225960D02*
X13172682Y-15235484D01*
X13172682Y-15235484D02*
X13153634Y-15235484D01*
X13153634Y-15235484D02*
X13134586Y-15225960D01*
X13134586Y-15225960D02*
X13125063Y-15216436D01*
X13125063Y-15216436D02*
X13115539Y-15197388D01*
X13115539Y-15197388D02*
X13106015Y-15159293D01*
X13106015Y-15159293D02*
X13106015Y-15111674D01*
X13106015Y-15111674D02*
X13115539Y-15073579D01*
X13115539Y-15073579D02*
X13125063Y-15054531D01*
X13125063Y-15054531D02*
X13134586Y-15045008D01*
X13134586Y-15045008D02*
X13153634Y-15035484D01*
X13306015Y-15216436D02*
X13315539Y-15225960D01*
X13315539Y-15225960D02*
X13306015Y-15235484D01*
X13306015Y-15235484D02*
X13296491Y-15225960D01*
X13296491Y-15225960D02*
X13306015Y-15216436D01*
X13306015Y-15216436D02*
X13306015Y-15235484D01*
X13439348Y-15035484D02*
X13458396Y-15035484D01*
X13458396Y-15035484D02*
X13477444Y-15045008D01*
X13477444Y-15045008D02*
X13486967Y-15054531D01*
X13486967Y-15054531D02*
X13496491Y-15073579D01*
X13496491Y-15073579D02*
X13506015Y-15111674D01*
X13506015Y-15111674D02*
X13506015Y-15159293D01*
X13506015Y-15159293D02*
X13496491Y-15197388D01*
X13496491Y-15197388D02*
X13486967Y-15216436D01*
X13486967Y-15216436D02*
X13477444Y-15225960D01*
X13477444Y-15225960D02*
X13458396Y-15235484D01*
X13458396Y-15235484D02*
X13439348Y-15235484D01*
X13439348Y-15235484D02*
X13420301Y-15225960D01*
X13420301Y-15225960D02*
X13410777Y-15216436D01*
X13410777Y-15216436D02*
X13401253Y-15197388D01*
X13401253Y-15197388D02*
X13391729Y-15159293D01*
X13391729Y-15159293D02*
X13391729Y-15111674D01*
X13391729Y-15111674D02*
X13401253Y-15073579D01*
X13401253Y-15073579D02*
X13410777Y-15054531D01*
X13410777Y-15054531D02*
X13420301Y-15045008D01*
X13420301Y-15045008D02*
X13439348Y-15035484D01*
X13696491Y-15235484D02*
X13582206Y-15235484D01*
X13639348Y-15235484D02*
X13639348Y-15035484D01*
X13639348Y-15035484D02*
X13620301Y-15064055D01*
X13620301Y-15064055D02*
X13601253Y-15083103D01*
X13601253Y-15083103D02*
X13582206Y-15092627D01*
X13763158Y-15035484D02*
X13886967Y-15035484D01*
X13886967Y-15035484D02*
X13820301Y-15111674D01*
X13820301Y-15111674D02*
X13848872Y-15111674D01*
X13848872Y-15111674D02*
X13867920Y-15121198D01*
X13867920Y-15121198D02*
X13877444Y-15130722D01*
X13877444Y-15130722D02*
X13886967Y-15149769D01*
X13886967Y-15149769D02*
X13886967Y-15197388D01*
X13886967Y-15197388D02*
X13877444Y-15216436D01*
X13877444Y-15216436D02*
X13867920Y-15225960D01*
X13867920Y-15225960D02*
X13848872Y-15235484D01*
X13848872Y-15235484D02*
X13791729Y-15235484D01*
X13791729Y-15235484D02*
X13772682Y-15225960D01*
X13772682Y-15225960D02*
X13763158Y-15216436D01*
X14010777Y-15035484D02*
X14029825Y-15035484D01*
X14029825Y-15035484D02*
X14048872Y-15045008D01*
X14048872Y-15045008D02*
X14058396Y-15054531D01*
X14058396Y-15054531D02*
X14067920Y-15073579D01*
X14067920Y-15073579D02*
X14077444Y-15111674D01*
X14077444Y-15111674D02*
X14077444Y-15159293D01*
X14077444Y-15159293D02*
X14067920Y-15197388D01*
X14067920Y-15197388D02*
X14058396Y-15216436D01*
X14058396Y-15216436D02*
X14048872Y-15225960D01*
X14048872Y-15225960D02*
X14029825Y-15235484D01*
X14029825Y-15235484D02*
X14010777Y-15235484D01*
X14010777Y-15235484D02*
X13991729Y-15225960D01*
X13991729Y-15225960D02*
X13982206Y-15216436D01*
X13982206Y-15216436D02*
X13972682Y-15197388D01*
X13972682Y-15197388D02*
X13963158Y-15159293D01*
X13963158Y-15159293D02*
X13963158Y-15111674D01*
X13963158Y-15111674D02*
X13972682Y-15073579D01*
X13972682Y-15073579D02*
X13982206Y-15054531D01*
X13982206Y-15054531D02*
X13991729Y-15045008D01*
X13991729Y-15045008D02*
X14010777Y-15035484D01*
X14153634Y-15035484D02*
X14153634Y-15073579D01*
X14229825Y-15035484D02*
X14229825Y-15073579D01*
X14525063Y-15311674D02*
X14515539Y-15302150D01*
X14515539Y-15302150D02*
X14496491Y-15273579D01*
X14496491Y-15273579D02*
X14486968Y-15254531D01*
X14486968Y-15254531D02*
X14477444Y-15225960D01*
X14477444Y-15225960D02*
X14467920Y-15178341D01*
X14467920Y-15178341D02*
X14467920Y-15140246D01*
X14467920Y-15140246D02*
X14477444Y-15092627D01*
X14477444Y-15092627D02*
X14486968Y-15064055D01*
X14486968Y-15064055D02*
X14496491Y-15045008D01*
X14496491Y-15045008D02*
X14515539Y-15016436D01*
X14515539Y-15016436D02*
X14525063Y-15006912D01*
X14706015Y-15235484D02*
X14591729Y-15235484D01*
X14648872Y-15235484D02*
X14648872Y-15035484D01*
X14648872Y-15035484D02*
X14629825Y-15064055D01*
X14629825Y-15064055D02*
X14610777Y-15083103D01*
X14610777Y-15083103D02*
X14591729Y-15092627D01*
X14782206Y-15054531D02*
X14791729Y-15045008D01*
X14791729Y-15045008D02*
X14810777Y-15035484D01*
X14810777Y-15035484D02*
X14858396Y-15035484D01*
X14858396Y-15035484D02*
X14877444Y-15045008D01*
X14877444Y-15045008D02*
X14886968Y-15054531D01*
X14886968Y-15054531D02*
X14896491Y-15073579D01*
X14896491Y-15073579D02*
X14896491Y-15092627D01*
X14896491Y-15092627D02*
X14886968Y-15121198D01*
X14886968Y-15121198D02*
X14772682Y-15235484D01*
X14772682Y-15235484D02*
X14896491Y-15235484D01*
X15134587Y-15235484D02*
X15134587Y-15035484D01*
X15220301Y-15235484D02*
X15220301Y-15130722D01*
X15220301Y-15130722D02*
X15210777Y-15111674D01*
X15210777Y-15111674D02*
X15191730Y-15102150D01*
X15191730Y-15102150D02*
X15163158Y-15102150D01*
X15163158Y-15102150D02*
X15144110Y-15111674D01*
X15144110Y-15111674D02*
X15134587Y-15121198D01*
X15344110Y-15235484D02*
X15325063Y-15225960D01*
X15325063Y-15225960D02*
X15315539Y-15216436D01*
X15315539Y-15216436D02*
X15306015Y-15197388D01*
X15306015Y-15197388D02*
X15306015Y-15140246D01*
X15306015Y-15140246D02*
X15315539Y-15121198D01*
X15315539Y-15121198D02*
X15325063Y-15111674D01*
X15325063Y-15111674D02*
X15344110Y-15102150D01*
X15344110Y-15102150D02*
X15372682Y-15102150D01*
X15372682Y-15102150D02*
X15391730Y-15111674D01*
X15391730Y-15111674D02*
X15401253Y-15121198D01*
X15401253Y-15121198D02*
X15410777Y-15140246D01*
X15410777Y-15140246D02*
X15410777Y-15197388D01*
X15410777Y-15197388D02*
X15401253Y-15216436D01*
X15401253Y-15216436D02*
X15391730Y-15225960D01*
X15391730Y-15225960D02*
X15372682Y-15235484D01*
X15372682Y-15235484D02*
X15344110Y-15235484D01*
X15525063Y-15235484D02*
X15506015Y-15225960D01*
X15506015Y-15225960D02*
X15496491Y-15206912D01*
X15496491Y-15206912D02*
X15496491Y-15035484D01*
X15677444Y-15225960D02*
X15658396Y-15235484D01*
X15658396Y-15235484D02*
X15620301Y-15235484D01*
X15620301Y-15235484D02*
X15601253Y-15225960D01*
X15601253Y-15225960D02*
X15591730Y-15206912D01*
X15591730Y-15206912D02*
X15591730Y-15130722D01*
X15591730Y-15130722D02*
X15601253Y-15111674D01*
X15601253Y-15111674D02*
X15620301Y-15102150D01*
X15620301Y-15102150D02*
X15658396Y-15102150D01*
X15658396Y-15102150D02*
X15677444Y-15111674D01*
X15677444Y-15111674D02*
X15686968Y-15130722D01*
X15686968Y-15130722D02*
X15686968Y-15149769D01*
X15686968Y-15149769D02*
X15591730Y-15168817D01*
X15763158Y-15225960D02*
X15782206Y-15235484D01*
X15782206Y-15235484D02*
X15820301Y-15235484D01*
X15820301Y-15235484D02*
X15839349Y-15225960D01*
X15839349Y-15225960D02*
X15848872Y-15206912D01*
X15848872Y-15206912D02*
X15848872Y-15197388D01*
X15848872Y-15197388D02*
X15839349Y-15178341D01*
X15839349Y-15178341D02*
X15820301Y-15168817D01*
X15820301Y-15168817D02*
X15791730Y-15168817D01*
X15791730Y-15168817D02*
X15772682Y-15159293D01*
X15772682Y-15159293D02*
X15763158Y-15140246D01*
X15763158Y-15140246D02*
X15763158Y-15130722D01*
X15763158Y-15130722D02*
X15772682Y-15111674D01*
X15772682Y-15111674D02*
X15791730Y-15102150D01*
X15791730Y-15102150D02*
X15820301Y-15102150D01*
X15820301Y-15102150D02*
X15839349Y-15111674D01*
X15915539Y-15311674D02*
X15925063Y-15302150D01*
X15925063Y-15302150D02*
X15944111Y-15273579D01*
X15944111Y-15273579D02*
X15953634Y-15254531D01*
X15953634Y-15254531D02*
X15963158Y-15225960D01*
X15963158Y-15225960D02*
X15972682Y-15178341D01*
X15972682Y-15178341D02*
X15972682Y-15140246D01*
X15972682Y-15140246D02*
X15963158Y-15092627D01*
X15963158Y-15092627D02*
X15953634Y-15064055D01*
X15953634Y-15064055D02*
X15944111Y-15045008D01*
X15944111Y-15045008D02*
X15925063Y-15016436D01*
X15925063Y-15016436D02*
X15915539Y-15006912D01*
D11*
X10902500Y-15360500D02*
X10902500Y-15455500D01*
X10855000Y-15408000D02*
X10950000Y-15408000D01*
D10*
X11248872Y-15299484D02*
X11267920Y-15299484D01*
X11267920Y-15299484D02*
X11286967Y-15309008D01*
X11286967Y-15309008D02*
X11296491Y-15318531D01*
X11296491Y-15318531D02*
X11306015Y-15337579D01*
X11306015Y-15337579D02*
X11315539Y-15375674D01*
X11315539Y-15375674D02*
X11315539Y-15423293D01*
X11315539Y-15423293D02*
X11306015Y-15461388D01*
X11306015Y-15461388D02*
X11296491Y-15480436D01*
X11296491Y-15480436D02*
X11286967Y-15489960D01*
X11286967Y-15489960D02*
X11267920Y-15499484D01*
X11267920Y-15499484D02*
X11248872Y-15499484D01*
X11248872Y-15499484D02*
X11229824Y-15489960D01*
X11229824Y-15489960D02*
X11220301Y-15480436D01*
X11220301Y-15480436D02*
X11210777Y-15461388D01*
X11210777Y-15461388D02*
X11201253Y-15423293D01*
X11201253Y-15423293D02*
X11201253Y-15375674D01*
X11201253Y-15375674D02*
X11210777Y-15337579D01*
X11210777Y-15337579D02*
X11220301Y-15318531D01*
X11220301Y-15318531D02*
X11229824Y-15309008D01*
X11229824Y-15309008D02*
X11248872Y-15299484D01*
X11401253Y-15480436D02*
X11410777Y-15489960D01*
X11410777Y-15489960D02*
X11401253Y-15499484D01*
X11401253Y-15499484D02*
X11391729Y-15489960D01*
X11391729Y-15489960D02*
X11401253Y-15480436D01*
X11401253Y-15480436D02*
X11401253Y-15499484D01*
X11506015Y-15499484D02*
X11544110Y-15499484D01*
X11544110Y-15499484D02*
X11563158Y-15489960D01*
X11563158Y-15489960D02*
X11572682Y-15480436D01*
X11572682Y-15480436D02*
X11591729Y-15451865D01*
X11591729Y-15451865D02*
X11601253Y-15413769D01*
X11601253Y-15413769D02*
X11601253Y-15337579D01*
X11601253Y-15337579D02*
X11591729Y-15318531D01*
X11591729Y-15318531D02*
X11582205Y-15309008D01*
X11582205Y-15309008D02*
X11563158Y-15299484D01*
X11563158Y-15299484D02*
X11525062Y-15299484D01*
X11525062Y-15299484D02*
X11506015Y-15309008D01*
X11506015Y-15309008D02*
X11496491Y-15318531D01*
X11496491Y-15318531D02*
X11486967Y-15337579D01*
X11486967Y-15337579D02*
X11486967Y-15385198D01*
X11486967Y-15385198D02*
X11496491Y-15404246D01*
X11496491Y-15404246D02*
X11506015Y-15413769D01*
X11506015Y-15413769D02*
X11525062Y-15423293D01*
X11525062Y-15423293D02*
X11563158Y-15423293D01*
X11563158Y-15423293D02*
X11582205Y-15413769D01*
X11582205Y-15413769D02*
X11591729Y-15404246D01*
X11591729Y-15404246D02*
X11601253Y-15385198D01*
X11782205Y-15299484D02*
X11686967Y-15299484D01*
X11686967Y-15299484D02*
X11677443Y-15394722D01*
X11677443Y-15394722D02*
X11686967Y-15385198D01*
X11686967Y-15385198D02*
X11706015Y-15375674D01*
X11706015Y-15375674D02*
X11753634Y-15375674D01*
X11753634Y-15375674D02*
X11772682Y-15385198D01*
X11772682Y-15385198D02*
X11782205Y-15394722D01*
X11782205Y-15394722D02*
X11791729Y-15413769D01*
X11791729Y-15413769D02*
X11791729Y-15461388D01*
X11791729Y-15461388D02*
X11782205Y-15480436D01*
X11782205Y-15480436D02*
X11772682Y-15489960D01*
X11772682Y-15489960D02*
X11753634Y-15499484D01*
X11753634Y-15499484D02*
X11706015Y-15499484D01*
X11706015Y-15499484D02*
X11686967Y-15489960D01*
X11686967Y-15489960D02*
X11677443Y-15480436D01*
X11915539Y-15299484D02*
X11934586Y-15299484D01*
X11934586Y-15299484D02*
X11953634Y-15309008D01*
X11953634Y-15309008D02*
X11963158Y-15318531D01*
X11963158Y-15318531D02*
X11972682Y-15337579D01*
X11972682Y-15337579D02*
X11982205Y-15375674D01*
X11982205Y-15375674D02*
X11982205Y-15423293D01*
X11982205Y-15423293D02*
X11972682Y-15461388D01*
X11972682Y-15461388D02*
X11963158Y-15480436D01*
X11963158Y-15480436D02*
X11953634Y-15489960D01*
X11953634Y-15489960D02*
X11934586Y-15499484D01*
X11934586Y-15499484D02*
X11915539Y-15499484D01*
X11915539Y-15499484D02*
X11896491Y-15489960D01*
X11896491Y-15489960D02*
X11886967Y-15480436D01*
X11886967Y-15480436D02*
X11877443Y-15461388D01*
X11877443Y-15461388D02*
X11867920Y-15423293D01*
X11867920Y-15423293D02*
X11867920Y-15375674D01*
X11867920Y-15375674D02*
X11877443Y-15337579D01*
X11877443Y-15337579D02*
X11886967Y-15318531D01*
X11886967Y-15318531D02*
X11896491Y-15309008D01*
X11896491Y-15309008D02*
X11915539Y-15299484D01*
X12067920Y-15499484D02*
X12067920Y-15366150D01*
X12067920Y-15385198D02*
X12077443Y-15375674D01*
X12077443Y-15375674D02*
X12096491Y-15366150D01*
X12096491Y-15366150D02*
X12125063Y-15366150D01*
X12125063Y-15366150D02*
X12144110Y-15375674D01*
X12144110Y-15375674D02*
X12153634Y-15394722D01*
X12153634Y-15394722D02*
X12153634Y-15499484D01*
X12153634Y-15394722D02*
X12163158Y-15375674D01*
X12163158Y-15375674D02*
X12182205Y-15366150D01*
X12182205Y-15366150D02*
X12210777Y-15366150D01*
X12210777Y-15366150D02*
X12229824Y-15375674D01*
X12229824Y-15375674D02*
X12239348Y-15394722D01*
X12239348Y-15394722D02*
X12239348Y-15499484D01*
X12334586Y-15499484D02*
X12334586Y-15366150D01*
X12334586Y-15385198D02*
X12344110Y-15375674D01*
X12344110Y-15375674D02*
X12363158Y-15366150D01*
X12363158Y-15366150D02*
X12391729Y-15366150D01*
X12391729Y-15366150D02*
X12410777Y-15375674D01*
X12410777Y-15375674D02*
X12420301Y-15394722D01*
X12420301Y-15394722D02*
X12420301Y-15499484D01*
X12420301Y-15394722D02*
X12429824Y-15375674D01*
X12429824Y-15375674D02*
X12448872Y-15366150D01*
X12448872Y-15366150D02*
X12477443Y-15366150D01*
X12477443Y-15366150D02*
X12496491Y-15375674D01*
X12496491Y-15375674D02*
X12506015Y-15394722D01*
X12506015Y-15394722D02*
X12506015Y-15499484D01*
X12896491Y-15289960D02*
X12725063Y-15547103D01*
X13153634Y-15299484D02*
X13172682Y-15299484D01*
X13172682Y-15299484D02*
X13191729Y-15309008D01*
X13191729Y-15309008D02*
X13201253Y-15318531D01*
X13201253Y-15318531D02*
X13210777Y-15337579D01*
X13210777Y-15337579D02*
X13220301Y-15375674D01*
X13220301Y-15375674D02*
X13220301Y-15423293D01*
X13220301Y-15423293D02*
X13210777Y-15461388D01*
X13210777Y-15461388D02*
X13201253Y-15480436D01*
X13201253Y-15480436D02*
X13191729Y-15489960D01*
X13191729Y-15489960D02*
X13172682Y-15499484D01*
X13172682Y-15499484D02*
X13153634Y-15499484D01*
X13153634Y-15499484D02*
X13134586Y-15489960D01*
X13134586Y-15489960D02*
X13125063Y-15480436D01*
X13125063Y-15480436D02*
X13115539Y-15461388D01*
X13115539Y-15461388D02*
X13106015Y-15423293D01*
X13106015Y-15423293D02*
X13106015Y-15375674D01*
X13106015Y-15375674D02*
X13115539Y-15337579D01*
X13115539Y-15337579D02*
X13125063Y-15318531D01*
X13125063Y-15318531D02*
X13134586Y-15309008D01*
X13134586Y-15309008D02*
X13153634Y-15299484D01*
X13306015Y-15480436D02*
X13315539Y-15489960D01*
X13315539Y-15489960D02*
X13306015Y-15499484D01*
X13306015Y-15499484D02*
X13296491Y-15489960D01*
X13296491Y-15489960D02*
X13306015Y-15480436D01*
X13306015Y-15480436D02*
X13306015Y-15499484D01*
X13439348Y-15299484D02*
X13458396Y-15299484D01*
X13458396Y-15299484D02*
X13477444Y-15309008D01*
X13477444Y-15309008D02*
X13486967Y-15318531D01*
X13486967Y-15318531D02*
X13496491Y-15337579D01*
X13496491Y-15337579D02*
X13506015Y-15375674D01*
X13506015Y-15375674D02*
X13506015Y-15423293D01*
X13506015Y-15423293D02*
X13496491Y-15461388D01*
X13496491Y-15461388D02*
X13486967Y-15480436D01*
X13486967Y-15480436D02*
X13477444Y-15489960D01*
X13477444Y-15489960D02*
X13458396Y-15499484D01*
X13458396Y-15499484D02*
X13439348Y-15499484D01*
X13439348Y-15499484D02*
X13420301Y-15489960D01*
X13420301Y-15489960D02*
X13410777Y-15480436D01*
X13410777Y-15480436D02*
X13401253Y-15461388D01*
X13401253Y-15461388D02*
X13391729Y-15423293D01*
X13391729Y-15423293D02*
X13391729Y-15375674D01*
X13391729Y-15375674D02*
X13401253Y-15337579D01*
X13401253Y-15337579D02*
X13410777Y-15318531D01*
X13410777Y-15318531D02*
X13420301Y-15309008D01*
X13420301Y-15309008D02*
X13439348Y-15299484D01*
X13572682Y-15299484D02*
X13696491Y-15299484D01*
X13696491Y-15299484D02*
X13629825Y-15375674D01*
X13629825Y-15375674D02*
X13658396Y-15375674D01*
X13658396Y-15375674D02*
X13677444Y-15385198D01*
X13677444Y-15385198D02*
X13686967Y-15394722D01*
X13686967Y-15394722D02*
X13696491Y-15413769D01*
X13696491Y-15413769D02*
X13696491Y-15461388D01*
X13696491Y-15461388D02*
X13686967Y-15480436D01*
X13686967Y-15480436D02*
X13677444Y-15489960D01*
X13677444Y-15489960D02*
X13658396Y-15499484D01*
X13658396Y-15499484D02*
X13601253Y-15499484D01*
X13601253Y-15499484D02*
X13582206Y-15489960D01*
X13582206Y-15489960D02*
X13572682Y-15480436D01*
X13763158Y-15299484D02*
X13896491Y-15299484D01*
X13896491Y-15299484D02*
X13810777Y-15499484D01*
X14058396Y-15366150D02*
X14058396Y-15499484D01*
X14010777Y-15289960D02*
X13963158Y-15432817D01*
X13963158Y-15432817D02*
X14086967Y-15432817D01*
X14153634Y-15299484D02*
X14153634Y-15337579D01*
X14229825Y-15299484D02*
X14229825Y-15337579D01*
X14525063Y-15575674D02*
X14515539Y-15566150D01*
X14515539Y-15566150D02*
X14496491Y-15537579D01*
X14496491Y-15537579D02*
X14486968Y-15518531D01*
X14486968Y-15518531D02*
X14477444Y-15489960D01*
X14477444Y-15489960D02*
X14467920Y-15442341D01*
X14467920Y-15442341D02*
X14467920Y-15404246D01*
X14467920Y-15404246D02*
X14477444Y-15356627D01*
X14477444Y-15356627D02*
X14486968Y-15328055D01*
X14486968Y-15328055D02*
X14496491Y-15309008D01*
X14496491Y-15309008D02*
X14515539Y-15280436D01*
X14515539Y-15280436D02*
X14525063Y-15270912D01*
X14706015Y-15499484D02*
X14591729Y-15499484D01*
X14648872Y-15499484D02*
X14648872Y-15299484D01*
X14648872Y-15299484D02*
X14629825Y-15328055D01*
X14629825Y-15328055D02*
X14610777Y-15347103D01*
X14610777Y-15347103D02*
X14591729Y-15356627D01*
X14782206Y-15318531D02*
X14791729Y-15309008D01*
X14791729Y-15309008D02*
X14810777Y-15299484D01*
X14810777Y-15299484D02*
X14858396Y-15299484D01*
X14858396Y-15299484D02*
X14877444Y-15309008D01*
X14877444Y-15309008D02*
X14886968Y-15318531D01*
X14886968Y-15318531D02*
X14896491Y-15337579D01*
X14896491Y-15337579D02*
X14896491Y-15356627D01*
X14896491Y-15356627D02*
X14886968Y-15385198D01*
X14886968Y-15385198D02*
X14772682Y-15499484D01*
X14772682Y-15499484D02*
X14896491Y-15499484D01*
X15134587Y-15499484D02*
X15134587Y-15299484D01*
X15220301Y-15499484D02*
X15220301Y-15394722D01*
X15220301Y-15394722D02*
X15210777Y-15375674D01*
X15210777Y-15375674D02*
X15191730Y-15366150D01*
X15191730Y-15366150D02*
X15163158Y-15366150D01*
X15163158Y-15366150D02*
X15144110Y-15375674D01*
X15144110Y-15375674D02*
X15134587Y-15385198D01*
X15344110Y-15499484D02*
X15325063Y-15489960D01*
X15325063Y-15489960D02*
X15315539Y-15480436D01*
X15315539Y-15480436D02*
X15306015Y-15461388D01*
X15306015Y-15461388D02*
X15306015Y-15404246D01*
X15306015Y-15404246D02*
X15315539Y-15385198D01*
X15315539Y-15385198D02*
X15325063Y-15375674D01*
X15325063Y-15375674D02*
X15344110Y-15366150D01*
X15344110Y-15366150D02*
X15372682Y-15366150D01*
X15372682Y-15366150D02*
X15391730Y-15375674D01*
X15391730Y-15375674D02*
X15401253Y-15385198D01*
X15401253Y-15385198D02*
X15410777Y-15404246D01*
X15410777Y-15404246D02*
X15410777Y-15461388D01*
X15410777Y-15461388D02*
X15401253Y-15480436D01*
X15401253Y-15480436D02*
X15391730Y-15489960D01*
X15391730Y-15489960D02*
X15372682Y-15499484D01*
X15372682Y-15499484D02*
X15344110Y-15499484D01*
X15525063Y-15499484D02*
X15506015Y-15489960D01*
X15506015Y-15489960D02*
X15496491Y-15470912D01*
X15496491Y-15470912D02*
X15496491Y-15299484D01*
X15677444Y-15489960D02*
X15658396Y-15499484D01*
X15658396Y-15499484D02*
X15620301Y-15499484D01*
X15620301Y-15499484D02*
X15601253Y-15489960D01*
X15601253Y-15489960D02*
X15591730Y-15470912D01*
X15591730Y-15470912D02*
X15591730Y-15394722D01*
X15591730Y-15394722D02*
X15601253Y-15375674D01*
X15601253Y-15375674D02*
X15620301Y-15366150D01*
X15620301Y-15366150D02*
X15658396Y-15366150D01*
X15658396Y-15366150D02*
X15677444Y-15375674D01*
X15677444Y-15375674D02*
X15686968Y-15394722D01*
X15686968Y-15394722D02*
X15686968Y-15413769D01*
X15686968Y-15413769D02*
X15591730Y-15432817D01*
X15763158Y-15489960D02*
X15782206Y-15499484D01*
X15782206Y-15499484D02*
X15820301Y-15499484D01*
X15820301Y-15499484D02*
X15839349Y-15489960D01*
X15839349Y-15489960D02*
X15848872Y-15470912D01*
X15848872Y-15470912D02*
X15848872Y-15461388D01*
X15848872Y-15461388D02*
X15839349Y-15442341D01*
X15839349Y-15442341D02*
X15820301Y-15432817D01*
X15820301Y-15432817D02*
X15791730Y-15432817D01*
X15791730Y-15432817D02*
X15772682Y-15423293D01*
X15772682Y-15423293D02*
X15763158Y-15404246D01*
X15763158Y-15404246D02*
X15763158Y-15394722D01*
X15763158Y-15394722D02*
X15772682Y-15375674D01*
X15772682Y-15375674D02*
X15791730Y-15366150D01*
X15791730Y-15366150D02*
X15820301Y-15366150D01*
X15820301Y-15366150D02*
X15839349Y-15375674D01*
X15915539Y-15575674D02*
X15925063Y-15566150D01*
X15925063Y-15566150D02*
X15944111Y-15537579D01*
X15944111Y-15537579D02*
X15953634Y-15518531D01*
X15953634Y-15518531D02*
X15963158Y-15489960D01*
X15963158Y-15489960D02*
X15972682Y-15442341D01*
X15972682Y-15442341D02*
X15972682Y-15404246D01*
X15972682Y-15404246D02*
X15963158Y-15356627D01*
X15963158Y-15356627D02*
X15953634Y-15328055D01*
X15953634Y-15328055D02*
X15944111Y-15309008D01*
X15944111Y-15309008D02*
X15925063Y-15280436D01*
X15925063Y-15280436D02*
X15915539Y-15270912D01*
D11*
X10935356Y-15707356D02*
X10935356Y-15636644D01*
X10864644Y-15636644D01*
X10864644Y-15707356D01*
X10935356Y-15707356D01*
D10*
X11315539Y-15763484D02*
X11201253Y-15763484D01*
X11258396Y-15763484D02*
X11258396Y-15563484D01*
X11258396Y-15563484D02*
X11239348Y-15592055D01*
X11239348Y-15592055D02*
X11220301Y-15611103D01*
X11220301Y-15611103D02*
X11201253Y-15620627D01*
X11401253Y-15744436D02*
X11410777Y-15753960D01*
X11410777Y-15753960D02*
X11401253Y-15763484D01*
X11401253Y-15763484D02*
X11391729Y-15753960D01*
X11391729Y-15753960D02*
X11401253Y-15744436D01*
X11401253Y-15744436D02*
X11401253Y-15763484D01*
X11534586Y-15563484D02*
X11553634Y-15563484D01*
X11553634Y-15563484D02*
X11572682Y-15573008D01*
X11572682Y-15573008D02*
X11582205Y-15582531D01*
X11582205Y-15582531D02*
X11591729Y-15601579D01*
X11591729Y-15601579D02*
X11601253Y-15639674D01*
X11601253Y-15639674D02*
X11601253Y-15687293D01*
X11601253Y-15687293D02*
X11591729Y-15725388D01*
X11591729Y-15725388D02*
X11582205Y-15744436D01*
X11582205Y-15744436D02*
X11572682Y-15753960D01*
X11572682Y-15753960D02*
X11553634Y-15763484D01*
X11553634Y-15763484D02*
X11534586Y-15763484D01*
X11534586Y-15763484D02*
X11515539Y-15753960D01*
X11515539Y-15753960D02*
X11506015Y-15744436D01*
X11506015Y-15744436D02*
X11496491Y-15725388D01*
X11496491Y-15725388D02*
X11486967Y-15687293D01*
X11486967Y-15687293D02*
X11486967Y-15639674D01*
X11486967Y-15639674D02*
X11496491Y-15601579D01*
X11496491Y-15601579D02*
X11506015Y-15582531D01*
X11506015Y-15582531D02*
X11515539Y-15573008D01*
X11515539Y-15573008D02*
X11534586Y-15563484D01*
X11725062Y-15563484D02*
X11744110Y-15563484D01*
X11744110Y-15563484D02*
X11763158Y-15573008D01*
X11763158Y-15573008D02*
X11772682Y-15582531D01*
X11772682Y-15582531D02*
X11782205Y-15601579D01*
X11782205Y-15601579D02*
X11791729Y-15639674D01*
X11791729Y-15639674D02*
X11791729Y-15687293D01*
X11791729Y-15687293D02*
X11782205Y-15725388D01*
X11782205Y-15725388D02*
X11772682Y-15744436D01*
X11772682Y-15744436D02*
X11763158Y-15753960D01*
X11763158Y-15753960D02*
X11744110Y-15763484D01*
X11744110Y-15763484D02*
X11725062Y-15763484D01*
X11725062Y-15763484D02*
X11706015Y-15753960D01*
X11706015Y-15753960D02*
X11696491Y-15744436D01*
X11696491Y-15744436D02*
X11686967Y-15725388D01*
X11686967Y-15725388D02*
X11677443Y-15687293D01*
X11677443Y-15687293D02*
X11677443Y-15639674D01*
X11677443Y-15639674D02*
X11686967Y-15601579D01*
X11686967Y-15601579D02*
X11696491Y-15582531D01*
X11696491Y-15582531D02*
X11706015Y-15573008D01*
X11706015Y-15573008D02*
X11725062Y-15563484D01*
X11915539Y-15563484D02*
X11934586Y-15563484D01*
X11934586Y-15563484D02*
X11953634Y-15573008D01*
X11953634Y-15573008D02*
X11963158Y-15582531D01*
X11963158Y-15582531D02*
X11972682Y-15601579D01*
X11972682Y-15601579D02*
X11982205Y-15639674D01*
X11982205Y-15639674D02*
X11982205Y-15687293D01*
X11982205Y-15687293D02*
X11972682Y-15725388D01*
X11972682Y-15725388D02*
X11963158Y-15744436D01*
X11963158Y-15744436D02*
X11953634Y-15753960D01*
X11953634Y-15753960D02*
X11934586Y-15763484D01*
X11934586Y-15763484D02*
X11915539Y-15763484D01*
X11915539Y-15763484D02*
X11896491Y-15753960D01*
X11896491Y-15753960D02*
X11886967Y-15744436D01*
X11886967Y-15744436D02*
X11877443Y-15725388D01*
X11877443Y-15725388D02*
X11867920Y-15687293D01*
X11867920Y-15687293D02*
X11867920Y-15639674D01*
X11867920Y-15639674D02*
X11877443Y-15601579D01*
X11877443Y-15601579D02*
X11886967Y-15582531D01*
X11886967Y-15582531D02*
X11896491Y-15573008D01*
X11896491Y-15573008D02*
X11915539Y-15563484D01*
X12067920Y-15763484D02*
X12067920Y-15630150D01*
X12067920Y-15649198D02*
X12077443Y-15639674D01*
X12077443Y-15639674D02*
X12096491Y-15630150D01*
X12096491Y-15630150D02*
X12125063Y-15630150D01*
X12125063Y-15630150D02*
X12144110Y-15639674D01*
X12144110Y-15639674D02*
X12153634Y-15658722D01*
X12153634Y-15658722D02*
X12153634Y-15763484D01*
X12153634Y-15658722D02*
X12163158Y-15639674D01*
X12163158Y-15639674D02*
X12182205Y-15630150D01*
X12182205Y-15630150D02*
X12210777Y-15630150D01*
X12210777Y-15630150D02*
X12229824Y-15639674D01*
X12229824Y-15639674D02*
X12239348Y-15658722D01*
X12239348Y-15658722D02*
X12239348Y-15763484D01*
X12334586Y-15763484D02*
X12334586Y-15630150D01*
X12334586Y-15649198D02*
X12344110Y-15639674D01*
X12344110Y-15639674D02*
X12363158Y-15630150D01*
X12363158Y-15630150D02*
X12391729Y-15630150D01*
X12391729Y-15630150D02*
X12410777Y-15639674D01*
X12410777Y-15639674D02*
X12420301Y-15658722D01*
X12420301Y-15658722D02*
X12420301Y-15763484D01*
X12420301Y-15658722D02*
X12429824Y-15639674D01*
X12429824Y-15639674D02*
X12448872Y-15630150D01*
X12448872Y-15630150D02*
X12477443Y-15630150D01*
X12477443Y-15630150D02*
X12496491Y-15639674D01*
X12496491Y-15639674D02*
X12506015Y-15658722D01*
X12506015Y-15658722D02*
X12506015Y-15763484D01*
X12896491Y-15553960D02*
X12725063Y-15811103D01*
X13153634Y-15563484D02*
X13172682Y-15563484D01*
X13172682Y-15563484D02*
X13191729Y-15573008D01*
X13191729Y-15573008D02*
X13201253Y-15582531D01*
X13201253Y-15582531D02*
X13210777Y-15601579D01*
X13210777Y-15601579D02*
X13220301Y-15639674D01*
X13220301Y-15639674D02*
X13220301Y-15687293D01*
X13220301Y-15687293D02*
X13210777Y-15725388D01*
X13210777Y-15725388D02*
X13201253Y-15744436D01*
X13201253Y-15744436D02*
X13191729Y-15753960D01*
X13191729Y-15753960D02*
X13172682Y-15763484D01*
X13172682Y-15763484D02*
X13153634Y-15763484D01*
X13153634Y-15763484D02*
X13134586Y-15753960D01*
X13134586Y-15753960D02*
X13125063Y-15744436D01*
X13125063Y-15744436D02*
X13115539Y-15725388D01*
X13115539Y-15725388D02*
X13106015Y-15687293D01*
X13106015Y-15687293D02*
X13106015Y-15639674D01*
X13106015Y-15639674D02*
X13115539Y-15601579D01*
X13115539Y-15601579D02*
X13125063Y-15582531D01*
X13125063Y-15582531D02*
X13134586Y-15573008D01*
X13134586Y-15573008D02*
X13153634Y-15563484D01*
X13306015Y-15744436D02*
X13315539Y-15753960D01*
X13315539Y-15753960D02*
X13306015Y-15763484D01*
X13306015Y-15763484D02*
X13296491Y-15753960D01*
X13296491Y-15753960D02*
X13306015Y-15744436D01*
X13306015Y-15744436D02*
X13306015Y-15763484D01*
X13439348Y-15563484D02*
X13458396Y-15563484D01*
X13458396Y-15563484D02*
X13477444Y-15573008D01*
X13477444Y-15573008D02*
X13486967Y-15582531D01*
X13486967Y-15582531D02*
X13496491Y-15601579D01*
X13496491Y-15601579D02*
X13506015Y-15639674D01*
X13506015Y-15639674D02*
X13506015Y-15687293D01*
X13506015Y-15687293D02*
X13496491Y-15725388D01*
X13496491Y-15725388D02*
X13486967Y-15744436D01*
X13486967Y-15744436D02*
X13477444Y-15753960D01*
X13477444Y-15753960D02*
X13458396Y-15763484D01*
X13458396Y-15763484D02*
X13439348Y-15763484D01*
X13439348Y-15763484D02*
X13420301Y-15753960D01*
X13420301Y-15753960D02*
X13410777Y-15744436D01*
X13410777Y-15744436D02*
X13401253Y-15725388D01*
X13401253Y-15725388D02*
X13391729Y-15687293D01*
X13391729Y-15687293D02*
X13391729Y-15639674D01*
X13391729Y-15639674D02*
X13401253Y-15601579D01*
X13401253Y-15601579D02*
X13410777Y-15582531D01*
X13410777Y-15582531D02*
X13420301Y-15573008D01*
X13420301Y-15573008D02*
X13439348Y-15563484D01*
X13572682Y-15563484D02*
X13696491Y-15563484D01*
X13696491Y-15563484D02*
X13629825Y-15639674D01*
X13629825Y-15639674D02*
X13658396Y-15639674D01*
X13658396Y-15639674D02*
X13677444Y-15649198D01*
X13677444Y-15649198D02*
X13686967Y-15658722D01*
X13686967Y-15658722D02*
X13696491Y-15677769D01*
X13696491Y-15677769D02*
X13696491Y-15725388D01*
X13696491Y-15725388D02*
X13686967Y-15744436D01*
X13686967Y-15744436D02*
X13677444Y-15753960D01*
X13677444Y-15753960D02*
X13658396Y-15763484D01*
X13658396Y-15763484D02*
X13601253Y-15763484D01*
X13601253Y-15763484D02*
X13582206Y-15753960D01*
X13582206Y-15753960D02*
X13572682Y-15744436D01*
X13791729Y-15763484D02*
X13829825Y-15763484D01*
X13829825Y-15763484D02*
X13848872Y-15753960D01*
X13848872Y-15753960D02*
X13858396Y-15744436D01*
X13858396Y-15744436D02*
X13877444Y-15715865D01*
X13877444Y-15715865D02*
X13886967Y-15677769D01*
X13886967Y-15677769D02*
X13886967Y-15601579D01*
X13886967Y-15601579D02*
X13877444Y-15582531D01*
X13877444Y-15582531D02*
X13867920Y-15573008D01*
X13867920Y-15573008D02*
X13848872Y-15563484D01*
X13848872Y-15563484D02*
X13810777Y-15563484D01*
X13810777Y-15563484D02*
X13791729Y-15573008D01*
X13791729Y-15573008D02*
X13782206Y-15582531D01*
X13782206Y-15582531D02*
X13772682Y-15601579D01*
X13772682Y-15601579D02*
X13772682Y-15649198D01*
X13772682Y-15649198D02*
X13782206Y-15668246D01*
X13782206Y-15668246D02*
X13791729Y-15677769D01*
X13791729Y-15677769D02*
X13810777Y-15687293D01*
X13810777Y-15687293D02*
X13848872Y-15687293D01*
X13848872Y-15687293D02*
X13867920Y-15677769D01*
X13867920Y-15677769D02*
X13877444Y-15668246D01*
X13877444Y-15668246D02*
X13886967Y-15649198D01*
X14058396Y-15630150D02*
X14058396Y-15763484D01*
X14010777Y-15553960D02*
X13963158Y-15696817D01*
X13963158Y-15696817D02*
X14086967Y-15696817D01*
X14153634Y-15563484D02*
X14153634Y-15601579D01*
X14229825Y-15563484D02*
X14229825Y-15601579D01*
X14525063Y-15839674D02*
X14515539Y-15830150D01*
X14515539Y-15830150D02*
X14496491Y-15801579D01*
X14496491Y-15801579D02*
X14486968Y-15782531D01*
X14486968Y-15782531D02*
X14477444Y-15753960D01*
X14477444Y-15753960D02*
X14467920Y-15706341D01*
X14467920Y-15706341D02*
X14467920Y-15668246D01*
X14467920Y-15668246D02*
X14477444Y-15620627D01*
X14477444Y-15620627D02*
X14486968Y-15592055D01*
X14486968Y-15592055D02*
X14496491Y-15573008D01*
X14496491Y-15573008D02*
X14515539Y-15544436D01*
X14515539Y-15544436D02*
X14525063Y-15534912D01*
X14686968Y-15630150D02*
X14686968Y-15763484D01*
X14639348Y-15553960D02*
X14591729Y-15696817D01*
X14591729Y-15696817D02*
X14715539Y-15696817D01*
X14820301Y-15649198D02*
X14801253Y-15639674D01*
X14801253Y-15639674D02*
X14791729Y-15630150D01*
X14791729Y-15630150D02*
X14782206Y-15611103D01*
X14782206Y-15611103D02*
X14782206Y-15601579D01*
X14782206Y-15601579D02*
X14791729Y-15582531D01*
X14791729Y-15582531D02*
X14801253Y-15573008D01*
X14801253Y-15573008D02*
X14820301Y-15563484D01*
X14820301Y-15563484D02*
X14858396Y-15563484D01*
X14858396Y-15563484D02*
X14877444Y-15573008D01*
X14877444Y-15573008D02*
X14886968Y-15582531D01*
X14886968Y-15582531D02*
X14896491Y-15601579D01*
X14896491Y-15601579D02*
X14896491Y-15611103D01*
X14896491Y-15611103D02*
X14886968Y-15630150D01*
X14886968Y-15630150D02*
X14877444Y-15639674D01*
X14877444Y-15639674D02*
X14858396Y-15649198D01*
X14858396Y-15649198D02*
X14820301Y-15649198D01*
X14820301Y-15649198D02*
X14801253Y-15658722D01*
X14801253Y-15658722D02*
X14791729Y-15668246D01*
X14791729Y-15668246D02*
X14782206Y-15687293D01*
X14782206Y-15687293D02*
X14782206Y-15725388D01*
X14782206Y-15725388D02*
X14791729Y-15744436D01*
X14791729Y-15744436D02*
X14801253Y-15753960D01*
X14801253Y-15753960D02*
X14820301Y-15763484D01*
X14820301Y-15763484D02*
X14858396Y-15763484D01*
X14858396Y-15763484D02*
X14877444Y-15753960D01*
X14877444Y-15753960D02*
X14886968Y-15744436D01*
X14886968Y-15744436D02*
X14896491Y-15725388D01*
X14896491Y-15725388D02*
X14896491Y-15687293D01*
X14896491Y-15687293D02*
X14886968Y-15668246D01*
X14886968Y-15668246D02*
X14877444Y-15658722D01*
X14877444Y-15658722D02*
X14858396Y-15649198D01*
X15134587Y-15763484D02*
X15134587Y-15563484D01*
X15220301Y-15763484D02*
X15220301Y-15658722D01*
X15220301Y-15658722D02*
X15210777Y-15639674D01*
X15210777Y-15639674D02*
X15191730Y-15630150D01*
X15191730Y-15630150D02*
X15163158Y-15630150D01*
X15163158Y-15630150D02*
X15144110Y-15639674D01*
X15144110Y-15639674D02*
X15134587Y-15649198D01*
X15344110Y-15763484D02*
X15325063Y-15753960D01*
X15325063Y-15753960D02*
X15315539Y-15744436D01*
X15315539Y-15744436D02*
X15306015Y-15725388D01*
X15306015Y-15725388D02*
X15306015Y-15668246D01*
X15306015Y-15668246D02*
X15315539Y-15649198D01*
X15315539Y-15649198D02*
X15325063Y-15639674D01*
X15325063Y-15639674D02*
X15344110Y-15630150D01*
X15344110Y-15630150D02*
X15372682Y-15630150D01*
X15372682Y-15630150D02*
X15391730Y-15639674D01*
X15391730Y-15639674D02*
X15401253Y-15649198D01*
X15401253Y-15649198D02*
X15410777Y-15668246D01*
X15410777Y-15668246D02*
X15410777Y-15725388D01*
X15410777Y-15725388D02*
X15401253Y-15744436D01*
X15401253Y-15744436D02*
X15391730Y-15753960D01*
X15391730Y-15753960D02*
X15372682Y-15763484D01*
X15372682Y-15763484D02*
X15344110Y-15763484D01*
X15525063Y-15763484D02*
X15506015Y-15753960D01*
X15506015Y-15753960D02*
X15496491Y-15734912D01*
X15496491Y-15734912D02*
X15496491Y-15563484D01*
X15677444Y-15753960D02*
X15658396Y-15763484D01*
X15658396Y-15763484D02*
X15620301Y-15763484D01*
X15620301Y-15763484D02*
X15601253Y-15753960D01*
X15601253Y-15753960D02*
X15591730Y-15734912D01*
X15591730Y-15734912D02*
X15591730Y-15658722D01*
X15591730Y-15658722D02*
X15601253Y-15639674D01*
X15601253Y-15639674D02*
X15620301Y-15630150D01*
X15620301Y-15630150D02*
X15658396Y-15630150D01*
X15658396Y-15630150D02*
X15677444Y-15639674D01*
X15677444Y-15639674D02*
X15686968Y-15658722D01*
X15686968Y-15658722D02*
X15686968Y-15677769D01*
X15686968Y-15677769D02*
X15591730Y-15696817D01*
X15763158Y-15753960D02*
X15782206Y-15763484D01*
X15782206Y-15763484D02*
X15820301Y-15763484D01*
X15820301Y-15763484D02*
X15839349Y-15753960D01*
X15839349Y-15753960D02*
X15848872Y-15734912D01*
X15848872Y-15734912D02*
X15848872Y-15725388D01*
X15848872Y-15725388D02*
X15839349Y-15706341D01*
X15839349Y-15706341D02*
X15820301Y-15696817D01*
X15820301Y-15696817D02*
X15791730Y-15696817D01*
X15791730Y-15696817D02*
X15772682Y-15687293D01*
X15772682Y-15687293D02*
X15763158Y-15668246D01*
X15763158Y-15668246D02*
X15763158Y-15658722D01*
X15763158Y-15658722D02*
X15772682Y-15639674D01*
X15772682Y-15639674D02*
X15791730Y-15630150D01*
X15791730Y-15630150D02*
X15820301Y-15630150D01*
X15820301Y-15630150D02*
X15839349Y-15639674D01*
X15915539Y-15839674D02*
X15925063Y-15830150D01*
X15925063Y-15830150D02*
X15944111Y-15801579D01*
X15944111Y-15801579D02*
X15953634Y-15782531D01*
X15953634Y-15782531D02*
X15963158Y-15753960D01*
X15963158Y-15753960D02*
X15972682Y-15706341D01*
X15972682Y-15706341D02*
X15972682Y-15668246D01*
X15972682Y-15668246D02*
X15963158Y-15620627D01*
X15963158Y-15620627D02*
X15953634Y-15592055D01*
X15953634Y-15592055D02*
X15944111Y-15573008D01*
X15944111Y-15573008D02*
X15925063Y-15544436D01*
X15925063Y-15544436D02*
X15915539Y-15534912D01*
X10850000Y-16036000D02*
X10950000Y-15936000D01*
X10850000Y-15836000D01*
X10750000Y-15936000D01*
X10850000Y-16036000D01*
X11191729Y-15827484D02*
X11315539Y-15827484D01*
X11315539Y-15827484D02*
X11248872Y-15903674D01*
X11248872Y-15903674D02*
X11277443Y-15903674D01*
X11277443Y-15903674D02*
X11296491Y-15913198D01*
X11296491Y-15913198D02*
X11306015Y-15922722D01*
X11306015Y-15922722D02*
X11315539Y-15941769D01*
X11315539Y-15941769D02*
X11315539Y-15989388D01*
X11315539Y-15989388D02*
X11306015Y-16008436D01*
X11306015Y-16008436D02*
X11296491Y-16017960D01*
X11296491Y-16017960D02*
X11277443Y-16027484D01*
X11277443Y-16027484D02*
X11220301Y-16027484D01*
X11220301Y-16027484D02*
X11201253Y-16017960D01*
X11201253Y-16017960D02*
X11191729Y-16008436D01*
X11401253Y-16008436D02*
X11410777Y-16017960D01*
X11410777Y-16017960D02*
X11401253Y-16027484D01*
X11401253Y-16027484D02*
X11391729Y-16017960D01*
X11391729Y-16017960D02*
X11401253Y-16008436D01*
X11401253Y-16008436D02*
X11401253Y-16027484D01*
X11486967Y-15846531D02*
X11496491Y-15837008D01*
X11496491Y-15837008D02*
X11515539Y-15827484D01*
X11515539Y-15827484D02*
X11563158Y-15827484D01*
X11563158Y-15827484D02*
X11582205Y-15837008D01*
X11582205Y-15837008D02*
X11591729Y-15846531D01*
X11591729Y-15846531D02*
X11601253Y-15865579D01*
X11601253Y-15865579D02*
X11601253Y-15884627D01*
X11601253Y-15884627D02*
X11591729Y-15913198D01*
X11591729Y-15913198D02*
X11477443Y-16027484D01*
X11477443Y-16027484D02*
X11601253Y-16027484D01*
X11725062Y-15827484D02*
X11744110Y-15827484D01*
X11744110Y-15827484D02*
X11763158Y-15837008D01*
X11763158Y-15837008D02*
X11772682Y-15846531D01*
X11772682Y-15846531D02*
X11782205Y-15865579D01*
X11782205Y-15865579D02*
X11791729Y-15903674D01*
X11791729Y-15903674D02*
X11791729Y-15951293D01*
X11791729Y-15951293D02*
X11782205Y-15989388D01*
X11782205Y-15989388D02*
X11772682Y-16008436D01*
X11772682Y-16008436D02*
X11763158Y-16017960D01*
X11763158Y-16017960D02*
X11744110Y-16027484D01*
X11744110Y-16027484D02*
X11725062Y-16027484D01*
X11725062Y-16027484D02*
X11706015Y-16017960D01*
X11706015Y-16017960D02*
X11696491Y-16008436D01*
X11696491Y-16008436D02*
X11686967Y-15989388D01*
X11686967Y-15989388D02*
X11677443Y-15951293D01*
X11677443Y-15951293D02*
X11677443Y-15903674D01*
X11677443Y-15903674D02*
X11686967Y-15865579D01*
X11686967Y-15865579D02*
X11696491Y-15846531D01*
X11696491Y-15846531D02*
X11706015Y-15837008D01*
X11706015Y-15837008D02*
X11725062Y-15827484D01*
X11915539Y-15827484D02*
X11934586Y-15827484D01*
X11934586Y-15827484D02*
X11953634Y-15837008D01*
X11953634Y-15837008D02*
X11963158Y-15846531D01*
X11963158Y-15846531D02*
X11972682Y-15865579D01*
X11972682Y-15865579D02*
X11982205Y-15903674D01*
X11982205Y-15903674D02*
X11982205Y-15951293D01*
X11982205Y-15951293D02*
X11972682Y-15989388D01*
X11972682Y-15989388D02*
X11963158Y-16008436D01*
X11963158Y-16008436D02*
X11953634Y-16017960D01*
X11953634Y-16017960D02*
X11934586Y-16027484D01*
X11934586Y-16027484D02*
X11915539Y-16027484D01*
X11915539Y-16027484D02*
X11896491Y-16017960D01*
X11896491Y-16017960D02*
X11886967Y-16008436D01*
X11886967Y-16008436D02*
X11877443Y-15989388D01*
X11877443Y-15989388D02*
X11867920Y-15951293D01*
X11867920Y-15951293D02*
X11867920Y-15903674D01*
X11867920Y-15903674D02*
X11877443Y-15865579D01*
X11877443Y-15865579D02*
X11886967Y-15846531D01*
X11886967Y-15846531D02*
X11896491Y-15837008D01*
X11896491Y-15837008D02*
X11915539Y-15827484D01*
X12067920Y-16027484D02*
X12067920Y-15894150D01*
X12067920Y-15913198D02*
X12077443Y-15903674D01*
X12077443Y-15903674D02*
X12096491Y-15894150D01*
X12096491Y-15894150D02*
X12125063Y-15894150D01*
X12125063Y-15894150D02*
X12144110Y-15903674D01*
X12144110Y-15903674D02*
X12153634Y-15922722D01*
X12153634Y-15922722D02*
X12153634Y-16027484D01*
X12153634Y-15922722D02*
X12163158Y-15903674D01*
X12163158Y-15903674D02*
X12182205Y-15894150D01*
X12182205Y-15894150D02*
X12210777Y-15894150D01*
X12210777Y-15894150D02*
X12229824Y-15903674D01*
X12229824Y-15903674D02*
X12239348Y-15922722D01*
X12239348Y-15922722D02*
X12239348Y-16027484D01*
X12334586Y-16027484D02*
X12334586Y-15894150D01*
X12334586Y-15913198D02*
X12344110Y-15903674D01*
X12344110Y-15903674D02*
X12363158Y-15894150D01*
X12363158Y-15894150D02*
X12391729Y-15894150D01*
X12391729Y-15894150D02*
X12410777Y-15903674D01*
X12410777Y-15903674D02*
X12420301Y-15922722D01*
X12420301Y-15922722D02*
X12420301Y-16027484D01*
X12420301Y-15922722D02*
X12429824Y-15903674D01*
X12429824Y-15903674D02*
X12448872Y-15894150D01*
X12448872Y-15894150D02*
X12477443Y-15894150D01*
X12477443Y-15894150D02*
X12496491Y-15903674D01*
X12496491Y-15903674D02*
X12506015Y-15922722D01*
X12506015Y-15922722D02*
X12506015Y-16027484D01*
X12896491Y-15817960D02*
X12725063Y-16075103D01*
X13153634Y-15827484D02*
X13172682Y-15827484D01*
X13172682Y-15827484D02*
X13191729Y-15837008D01*
X13191729Y-15837008D02*
X13201253Y-15846531D01*
X13201253Y-15846531D02*
X13210777Y-15865579D01*
X13210777Y-15865579D02*
X13220301Y-15903674D01*
X13220301Y-15903674D02*
X13220301Y-15951293D01*
X13220301Y-15951293D02*
X13210777Y-15989388D01*
X13210777Y-15989388D02*
X13201253Y-16008436D01*
X13201253Y-16008436D02*
X13191729Y-16017960D01*
X13191729Y-16017960D02*
X13172682Y-16027484D01*
X13172682Y-16027484D02*
X13153634Y-16027484D01*
X13153634Y-16027484D02*
X13134586Y-16017960D01*
X13134586Y-16017960D02*
X13125063Y-16008436D01*
X13125063Y-16008436D02*
X13115539Y-15989388D01*
X13115539Y-15989388D02*
X13106015Y-15951293D01*
X13106015Y-15951293D02*
X13106015Y-15903674D01*
X13106015Y-15903674D02*
X13115539Y-15865579D01*
X13115539Y-15865579D02*
X13125063Y-15846531D01*
X13125063Y-15846531D02*
X13134586Y-15837008D01*
X13134586Y-15837008D02*
X13153634Y-15827484D01*
X13306015Y-16008436D02*
X13315539Y-16017960D01*
X13315539Y-16017960D02*
X13306015Y-16027484D01*
X13306015Y-16027484D02*
X13296491Y-16017960D01*
X13296491Y-16017960D02*
X13306015Y-16008436D01*
X13306015Y-16008436D02*
X13306015Y-16027484D01*
X13506015Y-16027484D02*
X13391729Y-16027484D01*
X13448872Y-16027484D02*
X13448872Y-15827484D01*
X13448872Y-15827484D02*
X13429825Y-15856055D01*
X13429825Y-15856055D02*
X13410777Y-15875103D01*
X13410777Y-15875103D02*
X13391729Y-15884627D01*
X13582206Y-15846531D02*
X13591729Y-15837008D01*
X13591729Y-15837008D02*
X13610777Y-15827484D01*
X13610777Y-15827484D02*
X13658396Y-15827484D01*
X13658396Y-15827484D02*
X13677444Y-15837008D01*
X13677444Y-15837008D02*
X13686967Y-15846531D01*
X13686967Y-15846531D02*
X13696491Y-15865579D01*
X13696491Y-15865579D02*
X13696491Y-15884627D01*
X13696491Y-15884627D02*
X13686967Y-15913198D01*
X13686967Y-15913198D02*
X13572682Y-16027484D01*
X13572682Y-16027484D02*
X13696491Y-16027484D01*
X13867920Y-15827484D02*
X13829825Y-15827484D01*
X13829825Y-15827484D02*
X13810777Y-15837008D01*
X13810777Y-15837008D02*
X13801253Y-15846531D01*
X13801253Y-15846531D02*
X13782206Y-15875103D01*
X13782206Y-15875103D02*
X13772682Y-15913198D01*
X13772682Y-15913198D02*
X13772682Y-15989388D01*
X13772682Y-15989388D02*
X13782206Y-16008436D01*
X13782206Y-16008436D02*
X13791729Y-16017960D01*
X13791729Y-16017960D02*
X13810777Y-16027484D01*
X13810777Y-16027484D02*
X13848872Y-16027484D01*
X13848872Y-16027484D02*
X13867920Y-16017960D01*
X13867920Y-16017960D02*
X13877444Y-16008436D01*
X13877444Y-16008436D02*
X13886967Y-15989388D01*
X13886967Y-15989388D02*
X13886967Y-15941769D01*
X13886967Y-15941769D02*
X13877444Y-15922722D01*
X13877444Y-15922722D02*
X13867920Y-15913198D01*
X13867920Y-15913198D02*
X13848872Y-15903674D01*
X13848872Y-15903674D02*
X13810777Y-15903674D01*
X13810777Y-15903674D02*
X13791729Y-15913198D01*
X13791729Y-15913198D02*
X13782206Y-15922722D01*
X13782206Y-15922722D02*
X13772682Y-15941769D01*
X14010777Y-15827484D02*
X14029825Y-15827484D01*
X14029825Y-15827484D02*
X14048872Y-15837008D01*
X14048872Y-15837008D02*
X14058396Y-15846531D01*
X14058396Y-15846531D02*
X14067920Y-15865579D01*
X14067920Y-15865579D02*
X14077444Y-15903674D01*
X14077444Y-15903674D02*
X14077444Y-15951293D01*
X14077444Y-15951293D02*
X14067920Y-15989388D01*
X14067920Y-15989388D02*
X14058396Y-16008436D01*
X14058396Y-16008436D02*
X14048872Y-16017960D01*
X14048872Y-16017960D02*
X14029825Y-16027484D01*
X14029825Y-16027484D02*
X14010777Y-16027484D01*
X14010777Y-16027484D02*
X13991729Y-16017960D01*
X13991729Y-16017960D02*
X13982206Y-16008436D01*
X13982206Y-16008436D02*
X13972682Y-15989388D01*
X13972682Y-15989388D02*
X13963158Y-15951293D01*
X13963158Y-15951293D02*
X13963158Y-15903674D01*
X13963158Y-15903674D02*
X13972682Y-15865579D01*
X13972682Y-15865579D02*
X13982206Y-15846531D01*
X13982206Y-15846531D02*
X13991729Y-15837008D01*
X13991729Y-15837008D02*
X14010777Y-15827484D01*
X14153634Y-15827484D02*
X14153634Y-15865579D01*
X14229825Y-15827484D02*
X14229825Y-15865579D01*
X14525063Y-16103674D02*
X14515539Y-16094150D01*
X14515539Y-16094150D02*
X14496491Y-16065579D01*
X14496491Y-16065579D02*
X14486968Y-16046531D01*
X14486968Y-16046531D02*
X14477444Y-16017960D01*
X14477444Y-16017960D02*
X14467920Y-15970341D01*
X14467920Y-15970341D02*
X14467920Y-15932246D01*
X14467920Y-15932246D02*
X14477444Y-15884627D01*
X14477444Y-15884627D02*
X14486968Y-15856055D01*
X14486968Y-15856055D02*
X14496491Y-15837008D01*
X14496491Y-15837008D02*
X14515539Y-15808436D01*
X14515539Y-15808436D02*
X14525063Y-15798912D01*
X14686968Y-15894150D02*
X14686968Y-16027484D01*
X14639348Y-15817960D02*
X14591729Y-15960817D01*
X14591729Y-15960817D02*
X14715539Y-15960817D01*
X14944110Y-16027484D02*
X14944110Y-15827484D01*
X15029825Y-16027484D02*
X15029825Y-15922722D01*
X15029825Y-15922722D02*
X15020301Y-15903674D01*
X15020301Y-15903674D02*
X15001253Y-15894150D01*
X15001253Y-15894150D02*
X14972682Y-15894150D01*
X14972682Y-15894150D02*
X14953634Y-15903674D01*
X14953634Y-15903674D02*
X14944110Y-15913198D01*
X15153634Y-16027484D02*
X15134587Y-16017960D01*
X15134587Y-16017960D02*
X15125063Y-16008436D01*
X15125063Y-16008436D02*
X15115539Y-15989388D01*
X15115539Y-15989388D02*
X15115539Y-15932246D01*
X15115539Y-15932246D02*
X15125063Y-15913198D01*
X15125063Y-15913198D02*
X15134587Y-15903674D01*
X15134587Y-15903674D02*
X15153634Y-15894150D01*
X15153634Y-15894150D02*
X15182206Y-15894150D01*
X15182206Y-15894150D02*
X15201253Y-15903674D01*
X15201253Y-15903674D02*
X15210777Y-15913198D01*
X15210777Y-15913198D02*
X15220301Y-15932246D01*
X15220301Y-15932246D02*
X15220301Y-15989388D01*
X15220301Y-15989388D02*
X15210777Y-16008436D01*
X15210777Y-16008436D02*
X15201253Y-16017960D01*
X15201253Y-16017960D02*
X15182206Y-16027484D01*
X15182206Y-16027484D02*
X15153634Y-16027484D01*
X15334587Y-16027484D02*
X15315539Y-16017960D01*
X15315539Y-16017960D02*
X15306015Y-15998912D01*
X15306015Y-15998912D02*
X15306015Y-15827484D01*
X15486968Y-16017960D02*
X15467920Y-16027484D01*
X15467920Y-16027484D02*
X15429825Y-16027484D01*
X15429825Y-16027484D02*
X15410777Y-16017960D01*
X15410777Y-16017960D02*
X15401253Y-15998912D01*
X15401253Y-15998912D02*
X15401253Y-15922722D01*
X15401253Y-15922722D02*
X15410777Y-15903674D01*
X15410777Y-15903674D02*
X15429825Y-15894150D01*
X15429825Y-15894150D02*
X15467920Y-15894150D01*
X15467920Y-15894150D02*
X15486968Y-15903674D01*
X15486968Y-15903674D02*
X15496491Y-15922722D01*
X15496491Y-15922722D02*
X15496491Y-15941769D01*
X15496491Y-15941769D02*
X15401253Y-15960817D01*
X15572682Y-16017960D02*
X15591730Y-16027484D01*
X15591730Y-16027484D02*
X15629825Y-16027484D01*
X15629825Y-16027484D02*
X15648872Y-16017960D01*
X15648872Y-16017960D02*
X15658396Y-15998912D01*
X15658396Y-15998912D02*
X15658396Y-15989388D01*
X15658396Y-15989388D02*
X15648872Y-15970341D01*
X15648872Y-15970341D02*
X15629825Y-15960817D01*
X15629825Y-15960817D02*
X15601253Y-15960817D01*
X15601253Y-15960817D02*
X15582206Y-15951293D01*
X15582206Y-15951293D02*
X15572682Y-15932246D01*
X15572682Y-15932246D02*
X15572682Y-15922722D01*
X15572682Y-15922722D02*
X15582206Y-15903674D01*
X15582206Y-15903674D02*
X15601253Y-15894150D01*
X15601253Y-15894150D02*
X15629825Y-15894150D01*
X15629825Y-15894150D02*
X15648872Y-15903674D01*
X15725063Y-16103674D02*
X15734587Y-16094150D01*
X15734587Y-16094150D02*
X15753634Y-16065579D01*
X15753634Y-16065579D02*
X15763158Y-16046531D01*
X15763158Y-16046531D02*
X15772682Y-16017960D01*
X15772682Y-16017960D02*
X15782206Y-15970341D01*
X15782206Y-15970341D02*
X15782206Y-15932246D01*
X15782206Y-15932246D02*
X15772682Y-15884627D01*
X15772682Y-15884627D02*
X15763158Y-15856055D01*
X15763158Y-15856055D02*
X15753634Y-15837008D01*
X15753634Y-15837008D02*
X15734587Y-15808436D01*
X15734587Y-15808436D02*
X15725063Y-15798912D01*
M02*
