%TF.GenerationSoftware,KiCad,Pcbnew,8.0.1*%
%TF.CreationDate,2024-06-19T16:46:36+02:00*%
%TF.ProjectId,MotorShield,4d6f746f-7253-4686-9965-6c642e6b6963,V_1*%
%TF.SameCoordinates,Original*%
%TF.FileFunction,Copper,L3,Inr*%
%TF.FilePolarity,Positive*%
%FSLAX46Y46*%
G04 Gerber Fmt 4.6, Leading zero omitted, Abs format (unit mm)*
G04 Created by KiCad (PCBNEW 8.0.1) date 2024-06-19 16:46:36*
%MOMM*%
%LPD*%
G01*
G04 APERTURE LIST*
G04 Aperture macros list*
%AMRoundRect*
0 Rectangle with rounded corners*
0 $1 Rounding radius*
0 $2 $3 $4 $5 $6 $7 $8 $9 X,Y pos of 4 corners*
0 Add a 4 corners polygon primitive as box body*
4,1,4,$2,$3,$4,$5,$6,$7,$8,$9,$2,$3,0*
0 Add four circle primitives for the rounded corners*
1,1,$1+$1,$2,$3*
1,1,$1+$1,$4,$5*
1,1,$1+$1,$6,$7*
1,1,$1+$1,$8,$9*
0 Add four rect primitives between the rounded corners*
20,1,$1+$1,$2,$3,$4,$5,0*
20,1,$1+$1,$4,$5,$6,$7,0*
20,1,$1+$1,$6,$7,$8,$9,0*
20,1,$1+$1,$8,$9,$2,$3,0*%
G04 Aperture macros list end*
%TA.AperFunction,ComponentPad*%
%ADD10C,2.000000*%
%TD*%
%TA.AperFunction,ComponentPad*%
%ADD11R,2.000000X2.000000*%
%TD*%
%TA.AperFunction,ComponentPad*%
%ADD12RoundRect,0.250000X-0.600000X-0.750000X0.600000X-0.750000X0.600000X0.750000X-0.600000X0.750000X0*%
%TD*%
%TA.AperFunction,ComponentPad*%
%ADD13O,1.700000X2.000000*%
%TD*%
%TA.AperFunction,ComponentPad*%
%ADD14RoundRect,0.250000X0.725000X-0.600000X0.725000X0.600000X-0.725000X0.600000X-0.725000X-0.600000X0*%
%TD*%
%TA.AperFunction,ComponentPad*%
%ADD15O,1.950000X1.700000*%
%TD*%
%TA.AperFunction,ComponentPad*%
%ADD16RoundRect,0.250000X-0.725000X0.600000X-0.725000X-0.600000X0.725000X-0.600000X0.725000X0.600000X0*%
%TD*%
%TA.AperFunction,ComponentPad*%
%ADD17O,2.000000X1.700000*%
%TD*%
%TA.AperFunction,ComponentPad*%
%ADD18RoundRect,0.250000X0.750000X-0.600000X0.750000X0.600000X-0.750000X0.600000X-0.750000X-0.600000X0*%
%TD*%
%TA.AperFunction,ComponentPad*%
%ADD19RoundRect,0.250000X0.600000X0.750000X-0.600000X0.750000X-0.600000X-0.750000X0.600000X-0.750000X0*%
%TD*%
%TA.AperFunction,ComponentPad*%
%ADD20R,1.700000X1.700000*%
%TD*%
%TA.AperFunction,ComponentPad*%
%ADD21O,1.700000X1.700000*%
%TD*%
%TA.AperFunction,ComponentPad*%
%ADD22RoundRect,0.250000X-0.750000X0.600000X-0.750000X-0.600000X0.750000X-0.600000X0.750000X0.600000X0*%
%TD*%
%TA.AperFunction,ComponentPad*%
%ADD23C,3.600000*%
%TD*%
%TA.AperFunction,ComponentPad*%
%ADD24C,0.630000*%
%TD*%
%TA.AperFunction,ComponentPad*%
%ADD25O,1.700000X1.950000*%
%TD*%
%TA.AperFunction,ComponentPad*%
%ADD26RoundRect,0.250000X0.600000X0.725000X-0.600000X0.725000X-0.600000X-0.725000X0.600000X-0.725000X0*%
%TD*%
%TA.AperFunction,ViaPad*%
%ADD27C,0.600000*%
%TD*%
%TA.AperFunction,ViaPad*%
%ADD28C,0.500000*%
%TD*%
G04 APERTURE END LIST*
D10*
%TO.N,Net-(BZ1--)*%
%TO.C,BZ1*%
X123718000Y-77216000D03*
D11*
%TO.N,+5V*%
X131318000Y-77216000D03*
%TD*%
D12*
%TO.N,/OUTB_M2*%
%TO.C,J13*%
X119146000Y-139146000D03*
D13*
%TO.N,/OUTA_M2*%
X121646000Y-139146000D03*
%TD*%
D14*
%TO.N,/ENCODER_2B*%
%TO.C,J11*%
X142600000Y-84669000D03*
D15*
%TO.N,/ENCODER_2A*%
X142600000Y-82169000D03*
%TO.N,+3.3V*%
X142600000Y-79669000D03*
%TO.N,GND*%
X142600000Y-77169000D03*
%TD*%
D16*
%TO.N,/ENCODER_1A*%
%TO.C,J7*%
X112600000Y-76955000D03*
D15*
%TO.N,/ENCODER_1B*%
X112600000Y-79455000D03*
%TO.N,+3.3V*%
X112600000Y-81955000D03*
%TO.N,GND*%
X112600000Y-84455000D03*
%TD*%
D17*
%TO.N,GND*%
%TO.C,J5*%
X142600000Y-100000000D03*
D18*
%TO.N,/IN_GPIO{slash}IT_3*%
X142600000Y-102500000D03*
%TD*%
D13*
%TO.N,GND*%
%TO.C,J8*%
X133771000Y-55372000D03*
D19*
%TO.N,+BATT*%
X136271000Y-55372000D03*
%TD*%
D20*
%TO.N,unconnected-(J2-Pin_1-Pad1)*%
%TO.C,J2*%
X135240000Y-105500000D03*
D21*
%TO.N,+3.3V*%
X135240000Y-102960000D03*
X135240000Y-100420000D03*
%TO.N,unconnected-(J2-Pin_4-Pad4)*%
X135240000Y-97880000D03*
%TO.N,/ENCODER_2A*%
X135240000Y-95340000D03*
%TO.N,/UART2-STLINK*%
X135240000Y-92800000D03*
%TO.N,/ADC9*%
X135240000Y-90260000D03*
%TO.N,/ENCODER_2B*%
X135240000Y-87720000D03*
%TO.N,/GPIO{slash}IT_6*%
X135240000Y-85180000D03*
%TO.N,/GPIO{slash}IT_5*%
X135240000Y-82640000D03*
%TO.N,unconnected-(J2-Pin_11-Pad11)*%
X135240000Y-80100000D03*
%TO.N,+5V*%
X135240000Y-77560000D03*
%TO.N,unconnected-(J2-Pin_13-Pad13)*%
X135240000Y-75020000D03*
%TO.N,GND*%
X135240000Y-72480000D03*
%TO.N,VCC*%
X135240000Y-69940000D03*
%TD*%
D17*
%TO.N,GND*%
%TO.C,J4*%
X112600000Y-93500000D03*
D22*
%TO.N,/IN_GPIO{slash}IT_1*%
X112600000Y-91000000D03*
%TD*%
D13*
%TO.N,/OUTA_M1*%
%TO.C,J10*%
X136144000Y-139192000D03*
D12*
%TO.N,/OUTB_M1*%
X133644000Y-139192000D03*
%TD*%
D23*
%TO.N,N/C*%
%TO.C,REF\u002A\u002A*%
X112600000Y-55300000D03*
%TD*%
D17*
%TO.N,GND*%
%TO.C,J12*%
X112600000Y-70358000D03*
D22*
%TO.N,/UART2-STLINK*%
X112600000Y-67858000D03*
%TD*%
D17*
%TO.N,GND*%
%TO.C,J6*%
X112600000Y-102500000D03*
D22*
%TO.N,/IN_GPIO{slash}IT_2*%
X112600000Y-100000000D03*
%TD*%
D24*
%TO.N,GND*%
%TO.C,U6*%
X117275000Y-128350000D03*
X118575000Y-128350000D03*
X119875000Y-128350000D03*
X117275000Y-127050000D03*
X118575000Y-127050000D03*
X119875000Y-127050000D03*
%TD*%
D20*
%TO.N,/ENCODER_1A*%
%TO.C,J1*%
X120000000Y-70000000D03*
D21*
%TO.N,/PWM_2*%
X120000000Y-72540000D03*
%TO.N,unconnected-(J1-Pin_3-Pad3)*%
X120000000Y-75080000D03*
%TO.N,GND*%
X120000000Y-77620000D03*
%TO.N,/GPIO{slash}IT_4*%
X120000000Y-80160000D03*
%TO.N,/ADC15*%
X120000000Y-82700000D03*
%TO.N,/UART1-RX*%
X120000000Y-85240000D03*
%TO.N,/UART1-TX*%
X120000000Y-87780000D03*
%TO.N,/GPIO{slash}IT_3*%
X120000000Y-90320000D03*
%TO.N,unconnected-(J1-Pin_10-Pad10)*%
X120000000Y-92860000D03*
%TO.N,unconnected-(J1-Pin_11-Pad11)*%
X120000000Y-95400000D03*
%TO.N,/ENCODER_1B*%
X120000000Y-97940000D03*
%TO.N,/PWM_1*%
X120000000Y-100480000D03*
%TO.N,/GPIO{slash}IT_2*%
X120000000Y-103020000D03*
%TO.N,/GPIO{slash}IT_1*%
X120000000Y-105560000D03*
%TD*%
D24*
%TO.N,GND*%
%TO.C,U5*%
X133060000Y-128315000D03*
X134360000Y-128315000D03*
X135660000Y-128315000D03*
X133060000Y-127015000D03*
X134360000Y-127015000D03*
X135660000Y-127015000D03*
%TD*%
D17*
%TO.N,GND*%
%TO.C,J3*%
X142600000Y-91000000D03*
D18*
%TO.N,/IN_GPIO{slash}IT_4*%
X142600000Y-93500000D03*
%TD*%
D23*
%TO.N,N/C*%
%TO.C,REF\u002A\u002A*%
X142600000Y-55300000D03*
%TD*%
%TO.N,N/C*%
%TO.C,REF\u002A\u002A*%
X142600000Y-139300000D03*
%TD*%
D25*
%TO.N,GNDD-EXT*%
%TO.C,J9*%
X118992000Y-55372000D03*
%TO.N,/UART1-TX-EXT*%
X121492000Y-55372000D03*
%TO.N,/UART1-RX-EXT*%
X123992000Y-55372000D03*
D26*
%TO.N,+3.3V-EXT*%
X126492000Y-55372000D03*
%TD*%
D23*
%TO.N,N/C*%
%TO.C,REF\u002A\u002A*%
X112600000Y-139300000D03*
%TD*%
D27*
%TO.N,GND*%
X127635000Y-129413000D03*
X118237000Y-91567000D03*
X122936000Y-86614000D03*
X122174000Y-72517000D03*
X138176000Y-72390000D03*
X142494000Y-104140000D03*
X142494000Y-95123000D03*
X139446000Y-133350000D03*
X141986000Y-118110000D03*
X117221000Y-108712000D03*
X117348000Y-83947000D03*
X111633000Y-116967000D03*
X144399000Y-118237000D03*
X121793000Y-77089000D03*
X115316000Y-106680000D03*
X115189000Y-85090000D03*
X131445000Y-84201000D03*
X129540000Y-70866000D03*
X129794000Y-73660000D03*
X127508000Y-80010000D03*
%TO.N,/UART2-STLINK*%
X132969000Y-76073000D03*
%TO.N,/UART1-RX*%
X122682000Y-74549000D03*
%TO.N,GND*%
X126746000Y-58166000D03*
X119380000Y-117983000D03*
X134747000Y-114554000D03*
X134747000Y-116332000D03*
X128651000Y-116713000D03*
X124079000Y-125730000D03*
X119634000Y-108712000D03*
X117983000Y-59436000D03*
X138684000Y-68580000D03*
X130556000Y-69596000D03*
X142494000Y-98425000D03*
X130429000Y-133858000D03*
X138049000Y-80010000D03*
X130175000Y-55118000D03*
X131064000Y-82042000D03*
X122047000Y-111633000D03*
X122936000Y-88265000D03*
X115570000Y-77851000D03*
X143002000Y-72263000D03*
X142621000Y-75311000D03*
X111887000Y-123444000D03*
X115443000Y-99441000D03*
X121412000Y-124206000D03*
X117348000Y-80137000D03*
X141097000Y-108585000D03*
X128905000Y-109601000D03*
X131699000Y-58420000D03*
X144493664Y-134045788D03*
X123698000Y-133985000D03*
X135382000Y-62738000D03*
X116713000Y-63500000D03*
X129540000Y-78105000D03*
X132207000Y-96520000D03*
X142113000Y-114554000D03*
X141097000Y-125730000D03*
X127889000Y-72263000D03*
X112522000Y-72136000D03*
X112522000Y-86233000D03*
X122682000Y-95758000D03*
X129286000Y-103378000D03*
X115316000Y-88392000D03*
X123317000Y-66675000D03*
X130683000Y-126619000D03*
X136144000Y-134493000D03*
X142621000Y-89281000D03*
X144272000Y-112014000D03*
X126873000Y-114300000D03*
X136271000Y-66167000D03*
X131572000Y-105918000D03*
X127635000Y-126873000D03*
X114935000Y-126492000D03*
X134366000Y-59309000D03*
X138303000Y-83439000D03*
X114935000Y-121285000D03*
X144018000Y-126365000D03*
X130937000Y-94869000D03*
X127381000Y-136271000D03*
X114681000Y-133731000D03*
X137287000Y-111760000D03*
X126746000Y-116459000D03*
X112649000Y-104140000D03*
X144526000Y-59944000D03*
X120396000Y-134620000D03*
X121539000Y-121793000D03*
X137668000Y-125476000D03*
X125222000Y-66675000D03*
X128016000Y-69469000D03*
X112649000Y-95123000D03*
X137795000Y-109728000D03*
X130937000Y-122174000D03*
X117094000Y-70104000D03*
X112268000Y-59944000D03*
X140716000Y-120142000D03*
X131953000Y-88011000D03*
X137033000Y-88265000D03*
X121793000Y-85217000D03*
X129159000Y-87884000D03*
X124333000Y-75311000D03*
X142240000Y-66294000D03*
X111760000Y-131953000D03*
X111506000Y-107696000D03*
X125095000Y-108712000D03*
X141605000Y-62611000D03*
X113284000Y-109601000D03*
X126746000Y-103378000D03*
X118237000Y-96647000D03*
X142494000Y-106172000D03*
X138176000Y-75819000D03*
D28*
%TO.N,+3.3V*%
X125200000Y-103800000D03*
X128143000Y-71247000D03*
X124600000Y-87600000D03*
X127900000Y-108204000D03*
X125800000Y-84700000D03*
D27*
X128651000Y-81749000D03*
D28*
%TO.N,/UART1-TX*%
X125952250Y-73882250D03*
X124600000Y-81500000D03*
D27*
%TO.N,+3.3V-EXT*%
X127852000Y-60796000D03*
%TO.N,GNDD-EXT*%
X122428000Y-61976000D03*
D28*
%TO.N,VCC*%
X139550000Y-116650000D03*
X126400000Y-118000000D03*
%TO.N,/PWM_2*%
X124060000Y-120860000D03*
%TO.N,/GPIO{slash}IT_4*%
X124714000Y-79502000D03*
%TO.N,/GPIO{slash}IT_2*%
X123793750Y-103893750D03*
X128800000Y-99500000D03*
%TO.N,/GPIO{slash}IT_1*%
X125800000Y-99600000D03*
%TO.N,/GPIO{slash}IT_3*%
X130200000Y-96750000D03*
X129850000Y-105550000D03*
%TO.N,/PWM_1*%
X139500000Y-121300000D03*
%TO.N,/ADC15*%
X117200000Y-107500000D03*
%TO.N,/ADC9*%
X137350000Y-107150000D03*
X128900000Y-113600000D03*
D27*
%TO.N,/ENCODER_2A*%
X138303000Y-81407000D03*
D28*
%TO.N,/GPIO{slash}IT_5*%
X138700000Y-106553000D03*
%TO.N,/GPIO{slash}IT_6*%
X134900000Y-109200000D03*
%TO.N,/Avionic - GPIO/OUT_ISO_N1*%
X124600000Y-85200000D03*
X128200000Y-94800000D03*
%TO.N,/Avionic - GPIO/OUT_ISO_N2*%
X123000000Y-85200000D03*
X125600000Y-95100000D03*
D27*
%TO.N,/UART1-RX-EXT*%
X125300000Y-58166000D03*
%TO.N,/OUTB_M1*%
X137160000Y-135128000D03*
%TO.N,/OUTB_M2*%
X122174000Y-134366000D03*
%TO.N,/IN_GPIO{slash}IT_4*%
X132080000Y-85700000D03*
X128642500Y-85700000D03*
%TD*%
%TA.AperFunction,Conductor*%
%TO.N,GND*%
G36*
X142181909Y-52820185D02*
G01*
X142227664Y-52872989D01*
X142237608Y-52942147D01*
X142208583Y-53005703D01*
X142149805Y-53043477D01*
X142139061Y-53046117D01*
X142003316Y-53073118D01*
X142003301Y-53073122D01*
X141717752Y-53170053D01*
X141717731Y-53170062D01*
X141447286Y-53303431D01*
X141447279Y-53303435D01*
X141196540Y-53470973D01*
X140969810Y-53669810D01*
X140770973Y-53896540D01*
X140603435Y-54147279D01*
X140603431Y-54147286D01*
X140470062Y-54417731D01*
X140470053Y-54417752D01*
X140373122Y-54703301D01*
X140373118Y-54703316D01*
X140314288Y-54999069D01*
X140314287Y-54999081D01*
X140294564Y-55300000D01*
X140314287Y-55600918D01*
X140314288Y-55600930D01*
X140373118Y-55896683D01*
X140373122Y-55896698D01*
X140470053Y-56182247D01*
X140470062Y-56182268D01*
X140603431Y-56452713D01*
X140603435Y-56452720D01*
X140770973Y-56703459D01*
X140969810Y-56930189D01*
X141196540Y-57129026D01*
X141447279Y-57296564D01*
X141447286Y-57296568D01*
X141717731Y-57429937D01*
X141717736Y-57429939D01*
X141717748Y-57429945D01*
X142003309Y-57526880D01*
X142203251Y-57566651D01*
X142299069Y-57585711D01*
X142299070Y-57585711D01*
X142299080Y-57585713D01*
X142600000Y-57605436D01*
X142900920Y-57585713D01*
X143196691Y-57526880D01*
X143482252Y-57429945D01*
X143752718Y-57296566D01*
X144003461Y-57129025D01*
X144230189Y-56930189D01*
X144429025Y-56703461D01*
X144596566Y-56452718D01*
X144729945Y-56182252D01*
X144826880Y-55896691D01*
X144853883Y-55760939D01*
X144886268Y-55699028D01*
X144946984Y-55664454D01*
X145016753Y-55668193D01*
X145073425Y-55709060D01*
X145099006Y-55774078D01*
X145099500Y-55785130D01*
X145099500Y-138814869D01*
X145079815Y-138881908D01*
X145027011Y-138927663D01*
X144957853Y-138937607D01*
X144894297Y-138908582D01*
X144856523Y-138849804D01*
X144853883Y-138839061D01*
X144849071Y-138814869D01*
X144826880Y-138703309D01*
X144729945Y-138417748D01*
X144694558Y-138345991D01*
X144596568Y-138147286D01*
X144596564Y-138147279D01*
X144429026Y-137896540D01*
X144230189Y-137669810D01*
X144003459Y-137470973D01*
X143752720Y-137303435D01*
X143752713Y-137303431D01*
X143482268Y-137170062D01*
X143482247Y-137170053D01*
X143196698Y-137073122D01*
X143196692Y-137073120D01*
X143196691Y-137073120D01*
X143196689Y-137073119D01*
X143196683Y-137073118D01*
X142900930Y-137014288D01*
X142900921Y-137014287D01*
X142900920Y-137014287D01*
X142600000Y-136994564D01*
X142299080Y-137014287D01*
X142299079Y-137014287D01*
X142299069Y-137014288D01*
X142003316Y-137073118D01*
X142003301Y-137073122D01*
X141717752Y-137170053D01*
X141717731Y-137170062D01*
X141447286Y-137303431D01*
X141447279Y-137303435D01*
X141196540Y-137470973D01*
X140969810Y-137669810D01*
X140770973Y-137896540D01*
X140603435Y-138147279D01*
X140603431Y-138147286D01*
X140470062Y-138417731D01*
X140470053Y-138417752D01*
X140373122Y-138703301D01*
X140373118Y-138703316D01*
X140314288Y-138999069D01*
X140314287Y-138999081D01*
X140294564Y-139300000D01*
X140314287Y-139600918D01*
X140314288Y-139600930D01*
X140373118Y-139896683D01*
X140373122Y-139896698D01*
X140470053Y-140182247D01*
X140470062Y-140182268D01*
X140603431Y-140452713D01*
X140603435Y-140452720D01*
X140770973Y-140703459D01*
X140969810Y-140930189D01*
X141196540Y-141129026D01*
X141447279Y-141296564D01*
X141447286Y-141296568D01*
X141717731Y-141429937D01*
X141717736Y-141429939D01*
X141717748Y-141429945D01*
X142003309Y-141526880D01*
X142131446Y-141552368D01*
X142139061Y-141553883D01*
X142200972Y-141586268D01*
X142235546Y-141646984D01*
X142231807Y-141716753D01*
X142190940Y-141773425D01*
X142125922Y-141799006D01*
X142114870Y-141799500D01*
X113085130Y-141799500D01*
X113018091Y-141779815D01*
X112972336Y-141727011D01*
X112962392Y-141657853D01*
X112991417Y-141594297D01*
X113050195Y-141556523D01*
X113060939Y-141553883D01*
X113066089Y-141552858D01*
X113196691Y-141526880D01*
X113482252Y-141429945D01*
X113752718Y-141296566D01*
X114003461Y-141129025D01*
X114230189Y-140930189D01*
X114429025Y-140703461D01*
X114596566Y-140452718D01*
X114729945Y-140182252D01*
X114810141Y-139946001D01*
X117795500Y-139946001D01*
X117795501Y-139946018D01*
X117806000Y-140048796D01*
X117806001Y-140048799D01*
X117861185Y-140215331D01*
X117861187Y-140215336D01*
X117865169Y-140221792D01*
X117953288Y-140364656D01*
X118077344Y-140488712D01*
X118226666Y-140580814D01*
X118393203Y-140635999D01*
X118495991Y-140646500D01*
X119796008Y-140646499D01*
X119898797Y-140635999D01*
X120065334Y-140580814D01*
X120214656Y-140488712D01*
X120338712Y-140364656D01*
X120430814Y-140215334D01*
X120430814Y-140215331D01*
X120434178Y-140209879D01*
X120486126Y-140163154D01*
X120555088Y-140151931D01*
X120619170Y-140179774D01*
X120627398Y-140187294D01*
X120766213Y-140326109D01*
X120938179Y-140451048D01*
X120938181Y-140451049D01*
X120938184Y-140451051D01*
X121127588Y-140547557D01*
X121329757Y-140613246D01*
X121539713Y-140646500D01*
X121539714Y-140646500D01*
X121752286Y-140646500D01*
X121752287Y-140646500D01*
X121962243Y-140613246D01*
X122164412Y-140547557D01*
X122353816Y-140451051D01*
X122409414Y-140410657D01*
X122525786Y-140326109D01*
X122525788Y-140326106D01*
X122525792Y-140326104D01*
X122676104Y-140175792D01*
X122676106Y-140175788D01*
X122676109Y-140175786D01*
X122801048Y-140003820D01*
X122801047Y-140003820D01*
X122801051Y-140003816D01*
X122807071Y-139992001D01*
X132293500Y-139992001D01*
X132293501Y-139992018D01*
X132304000Y-140094796D01*
X132304001Y-140094799D01*
X132349894Y-140233294D01*
X132359186Y-140261334D01*
X132451288Y-140410656D01*
X132575344Y-140534712D01*
X132724666Y-140626814D01*
X132891203Y-140681999D01*
X132993991Y-140692500D01*
X134294008Y-140692499D01*
X134396797Y-140681999D01*
X134563334Y-140626814D01*
X134712656Y-140534712D01*
X134836712Y-140410656D01*
X134928814Y-140261334D01*
X134928814Y-140261331D01*
X134932178Y-140255879D01*
X134984126Y-140209154D01*
X135053088Y-140197931D01*
X135117170Y-140225774D01*
X135125398Y-140233294D01*
X135264213Y-140372109D01*
X135436179Y-140497048D01*
X135436181Y-140497049D01*
X135436184Y-140497051D01*
X135625588Y-140593557D01*
X135827757Y-140659246D01*
X136037713Y-140692500D01*
X136037714Y-140692500D01*
X136250286Y-140692500D01*
X136250287Y-140692500D01*
X136460243Y-140659246D01*
X136662412Y-140593557D01*
X136851816Y-140497051D01*
X136873789Y-140481086D01*
X137023786Y-140372109D01*
X137023788Y-140372106D01*
X137023792Y-140372104D01*
X137174104Y-140221792D01*
X137174106Y-140221788D01*
X137174109Y-140221786D01*
X137299048Y-140049820D01*
X137299047Y-140049820D01*
X137299051Y-140049816D01*
X137395557Y-139860412D01*
X137461246Y-139658243D01*
X137494500Y-139448287D01*
X137494500Y-138935713D01*
X137461246Y-138725757D01*
X137395557Y-138523588D01*
X137299051Y-138334184D01*
X137299049Y-138334181D01*
X137299048Y-138334179D01*
X137174109Y-138162213D01*
X137023786Y-138011890D01*
X136851820Y-137886951D01*
X136662414Y-137790444D01*
X136662413Y-137790443D01*
X136662412Y-137790443D01*
X136460243Y-137724754D01*
X136460241Y-137724753D01*
X136460240Y-137724753D01*
X136298957Y-137699208D01*
X136250287Y-137691500D01*
X136037713Y-137691500D01*
X135989042Y-137699208D01*
X135827760Y-137724753D01*
X135625585Y-137790444D01*
X135436179Y-137886951D01*
X135264215Y-138011889D01*
X135125398Y-138150706D01*
X135064075Y-138184190D01*
X134994383Y-138179206D01*
X134938450Y-138137334D01*
X134932178Y-138128120D01*
X134836712Y-137973344D01*
X134712657Y-137849289D01*
X134712656Y-137849288D01*
X134563334Y-137757186D01*
X134396797Y-137702001D01*
X134396795Y-137702000D01*
X134294010Y-137691500D01*
X132993998Y-137691500D01*
X132993981Y-137691501D01*
X132891203Y-137702000D01*
X132891200Y-137702001D01*
X132724668Y-137757185D01*
X132724663Y-137757187D01*
X132575342Y-137849289D01*
X132451289Y-137973342D01*
X132359187Y-138122663D01*
X132359185Y-138122668D01*
X132349894Y-138150706D01*
X132304001Y-138289203D01*
X132304001Y-138289204D01*
X132304000Y-138289204D01*
X132293500Y-138391983D01*
X132293500Y-139992001D01*
X122807071Y-139992001D01*
X122897557Y-139814412D01*
X122963246Y-139612243D01*
X122996500Y-139402287D01*
X122996500Y-138889713D01*
X122963246Y-138679757D01*
X122897557Y-138477588D01*
X122801051Y-138288184D01*
X122801049Y-138288181D01*
X122801048Y-138288179D01*
X122676109Y-138116213D01*
X122525786Y-137965890D01*
X122353820Y-137840951D01*
X122164414Y-137744444D01*
X122164413Y-137744443D01*
X122164412Y-137744443D01*
X121962243Y-137678754D01*
X121962241Y-137678753D01*
X121962240Y-137678753D01*
X121800957Y-137653208D01*
X121752287Y-137645500D01*
X121539713Y-137645500D01*
X121491042Y-137653208D01*
X121329760Y-137678753D01*
X121127585Y-137744444D01*
X120938179Y-137840951D01*
X120766215Y-137965889D01*
X120627398Y-138104706D01*
X120566075Y-138138190D01*
X120496383Y-138133206D01*
X120440450Y-138091334D01*
X120434178Y-138082120D01*
X120338712Y-137927344D01*
X120214657Y-137803289D01*
X120214656Y-137803288D01*
X120119253Y-137744443D01*
X120065336Y-137711187D01*
X120065331Y-137711185D01*
X120063862Y-137710698D01*
X119898797Y-137656001D01*
X119898795Y-137656000D01*
X119796010Y-137645500D01*
X118495998Y-137645500D01*
X118495981Y-137645501D01*
X118393203Y-137656000D01*
X118393200Y-137656001D01*
X118226668Y-137711185D01*
X118226663Y-137711187D01*
X118077342Y-137803289D01*
X117953289Y-137927342D01*
X117861187Y-138076663D01*
X117861185Y-138076668D01*
X117833349Y-138160670D01*
X117806001Y-138243203D01*
X117806001Y-138243204D01*
X117806000Y-138243204D01*
X117795500Y-138345983D01*
X117795500Y-139946001D01*
X114810141Y-139946001D01*
X114826880Y-139896691D01*
X114885713Y-139600920D01*
X114905436Y-139300000D01*
X114885713Y-138999080D01*
X114826880Y-138703309D01*
X114729945Y-138417748D01*
X114694558Y-138345991D01*
X114596568Y-138147286D01*
X114596564Y-138147279D01*
X114429026Y-137896540D01*
X114230189Y-137669810D01*
X114003459Y-137470973D01*
X113752720Y-137303435D01*
X113752713Y-137303431D01*
X113482268Y-137170062D01*
X113482247Y-137170053D01*
X113196698Y-137073122D01*
X113196692Y-137073120D01*
X113196691Y-137073120D01*
X113196689Y-137073119D01*
X113196683Y-137073118D01*
X112900930Y-137014288D01*
X112900921Y-137014287D01*
X112900920Y-137014287D01*
X112600000Y-136994564D01*
X112299080Y-137014287D01*
X112299079Y-137014287D01*
X112299069Y-137014288D01*
X112003316Y-137073118D01*
X112003301Y-137073122D01*
X111717752Y-137170053D01*
X111717731Y-137170062D01*
X111447286Y-137303431D01*
X111447279Y-137303435D01*
X111196540Y-137470973D01*
X110969810Y-137669810D01*
X110770973Y-137896540D01*
X110603435Y-138147279D01*
X110603431Y-138147286D01*
X110470062Y-138417731D01*
X110470053Y-138417752D01*
X110373122Y-138703301D01*
X110373119Y-138703313D01*
X110346117Y-138839061D01*
X110313732Y-138900971D01*
X110253016Y-138935546D01*
X110183247Y-138931806D01*
X110126575Y-138890939D01*
X110100994Y-138825921D01*
X110100500Y-138814869D01*
X110100500Y-134366003D01*
X121368435Y-134366003D01*
X121388630Y-134545249D01*
X121388631Y-134545254D01*
X121448211Y-134715523D01*
X121487769Y-134778478D01*
X121544184Y-134868262D01*
X121671738Y-134995816D01*
X121824478Y-135091789D01*
X121927952Y-135127996D01*
X121994745Y-135151368D01*
X121994750Y-135151369D01*
X122173996Y-135171565D01*
X122174000Y-135171565D01*
X122174004Y-135171565D01*
X122353249Y-135151369D01*
X122353252Y-135151368D01*
X122353255Y-135151368D01*
X122420028Y-135128003D01*
X136354435Y-135128003D01*
X136374630Y-135307249D01*
X136374631Y-135307254D01*
X136434211Y-135477523D01*
X136530184Y-135630262D01*
X136657738Y-135757816D01*
X136810478Y-135853789D01*
X136980745Y-135913368D01*
X136980750Y-135913369D01*
X137159996Y-135933565D01*
X137160000Y-135933565D01*
X137160004Y-135933565D01*
X137339249Y-135913369D01*
X137339252Y-135913368D01*
X137339255Y-135913368D01*
X137509522Y-135853789D01*
X137662262Y-135757816D01*
X137789816Y-135630262D01*
X137885789Y-135477522D01*
X137945368Y-135307255D01*
X137945369Y-135307249D01*
X137965565Y-135128003D01*
X137965565Y-135127996D01*
X137945369Y-134948750D01*
X137945368Y-134948745D01*
X137885788Y-134778476D01*
X137789815Y-134625737D01*
X137662262Y-134498184D01*
X137509523Y-134402211D01*
X137339254Y-134342631D01*
X137339249Y-134342630D01*
X137160004Y-134322435D01*
X137159996Y-134322435D01*
X136980750Y-134342630D01*
X136980745Y-134342631D01*
X136810476Y-134402211D01*
X136657737Y-134498184D01*
X136530184Y-134625737D01*
X136434211Y-134778476D01*
X136374631Y-134948745D01*
X136374630Y-134948750D01*
X136354435Y-135127996D01*
X136354435Y-135128003D01*
X122420028Y-135128003D01*
X122523522Y-135091789D01*
X122676262Y-134995816D01*
X122803816Y-134868262D01*
X122899789Y-134715522D01*
X122959368Y-134545255D01*
X122979565Y-134366000D01*
X122976932Y-134342632D01*
X122959369Y-134186750D01*
X122959368Y-134186745D01*
X122899788Y-134016476D01*
X122803815Y-133863737D01*
X122676262Y-133736184D01*
X122523523Y-133640211D01*
X122353254Y-133580631D01*
X122353249Y-133580630D01*
X122174004Y-133560435D01*
X122173996Y-133560435D01*
X121994750Y-133580630D01*
X121994745Y-133580631D01*
X121824476Y-133640211D01*
X121671737Y-133736184D01*
X121544184Y-133863737D01*
X121448211Y-134016476D01*
X121388631Y-134186745D01*
X121388630Y-134186750D01*
X121368435Y-134365996D01*
X121368435Y-134366003D01*
X110100500Y-134366003D01*
X110100500Y-129077540D01*
X116901010Y-129077540D01*
X116901011Y-129077541D01*
X116919147Y-129088936D01*
X117092490Y-129149592D01*
X117092503Y-129149595D01*
X117274996Y-129170157D01*
X117275004Y-129170157D01*
X117457496Y-129149595D01*
X117457509Y-129149592D01*
X117630849Y-129088937D01*
X117630855Y-129088935D01*
X117648987Y-129077541D01*
X117648987Y-129077540D01*
X118201010Y-129077540D01*
X118201011Y-129077541D01*
X118219147Y-129088936D01*
X118392490Y-129149592D01*
X118392503Y-129149595D01*
X118574996Y-129170157D01*
X118575004Y-129170157D01*
X118757496Y-129149595D01*
X118757509Y-129149592D01*
X118930849Y-129088937D01*
X118930855Y-129088935D01*
X118948987Y-129077541D01*
X118948987Y-129077540D01*
X119501010Y-129077540D01*
X119501011Y-129077541D01*
X119519147Y-129088936D01*
X119692490Y-129149592D01*
X119692503Y-129149595D01*
X119874996Y-129170157D01*
X119875004Y-129170157D01*
X120057496Y-129149595D01*
X120057509Y-129149592D01*
X120230849Y-129088937D01*
X120230855Y-129088935D01*
X120248987Y-129077541D01*
X120248987Y-129077540D01*
X120213987Y-129042540D01*
X132686010Y-129042540D01*
X132686011Y-129042541D01*
X132704147Y-129053936D01*
X132877490Y-129114592D01*
X132877503Y-129114595D01*
X133059996Y-129135157D01*
X133060004Y-129135157D01*
X133242496Y-129114595D01*
X133242509Y-129114592D01*
X133415849Y-129053937D01*
X133415855Y-129053935D01*
X133433987Y-129042541D01*
X133433987Y-129042540D01*
X133986010Y-129042540D01*
X133986011Y-129042541D01*
X134004147Y-129053936D01*
X134177490Y-129114592D01*
X134177503Y-129114595D01*
X134359996Y-129135157D01*
X134360004Y-129135157D01*
X134542496Y-129114595D01*
X134542509Y-129114592D01*
X134715849Y-129053937D01*
X134715855Y-129053935D01*
X134733987Y-129042541D01*
X134733987Y-129042540D01*
X135286010Y-129042540D01*
X135286011Y-129042541D01*
X135304147Y-129053936D01*
X135477490Y-129114592D01*
X135477503Y-129114595D01*
X135659996Y-129135157D01*
X135660004Y-129135157D01*
X135842496Y-129114595D01*
X135842509Y-129114592D01*
X136015849Y-129053937D01*
X136015855Y-129053935D01*
X136033987Y-129042541D01*
X136033987Y-129042540D01*
X135660001Y-128668553D01*
X135660000Y-128668553D01*
X135286010Y-129042540D01*
X134733987Y-129042540D01*
X134360001Y-128668553D01*
X134360000Y-128668553D01*
X133986010Y-129042540D01*
X133433987Y-129042540D01*
X133060001Y-128668553D01*
X133060000Y-128668553D01*
X132686010Y-129042540D01*
X120213987Y-129042540D01*
X119875001Y-128703553D01*
X119875000Y-128703553D01*
X119501010Y-129077540D01*
X118948987Y-129077540D01*
X118575001Y-128703553D01*
X118575000Y-128703553D01*
X118201010Y-129077540D01*
X117648987Y-129077540D01*
X117275001Y-128703553D01*
X117275000Y-128703553D01*
X116901010Y-129077540D01*
X110100500Y-129077540D01*
X110100500Y-128350003D01*
X116454843Y-128350003D01*
X116475404Y-128532496D01*
X116475407Y-128532509D01*
X116536060Y-128705843D01*
X116536065Y-128705854D01*
X116547458Y-128723987D01*
X116888626Y-128382821D01*
X117110000Y-128382821D01*
X117135119Y-128443465D01*
X117181535Y-128489881D01*
X117242179Y-128515000D01*
X117307821Y-128515000D01*
X117368465Y-128489881D01*
X117414881Y-128443465D01*
X117440000Y-128382821D01*
X117440000Y-128317179D01*
X117414881Y-128256535D01*
X117368465Y-128210119D01*
X117307821Y-128185000D01*
X117242179Y-128185000D01*
X117181535Y-128210119D01*
X117135119Y-128256535D01*
X117110000Y-128317179D01*
X117110000Y-128382821D01*
X116888626Y-128382821D01*
X116921447Y-128350000D01*
X116547458Y-127976011D01*
X116536066Y-127994144D01*
X116536060Y-127994156D01*
X116475407Y-128167490D01*
X116475404Y-128167503D01*
X116454843Y-128349996D01*
X116454843Y-128350003D01*
X110100500Y-128350003D01*
X110100500Y-127700000D01*
X116978553Y-127700000D01*
X117925000Y-128646447D01*
X118188626Y-128382821D01*
X118410000Y-128382821D01*
X118435119Y-128443465D01*
X118481535Y-128489881D01*
X118542179Y-128515000D01*
X118607821Y-128515000D01*
X118668465Y-128489881D01*
X118714881Y-128443465D01*
X118740000Y-128382821D01*
X118740000Y-128317179D01*
X118714881Y-128256535D01*
X118668465Y-128210119D01*
X118607821Y-128185000D01*
X118542179Y-128185000D01*
X118481535Y-128210119D01*
X118435119Y-128256535D01*
X118410000Y-128317179D01*
X118410000Y-128382821D01*
X118188626Y-128382821D01*
X118487319Y-128084128D01*
X118548642Y-128050643D01*
X118618334Y-128055627D01*
X118662681Y-128084128D01*
X119225000Y-128646447D01*
X119488626Y-128382821D01*
X119710000Y-128382821D01*
X119735119Y-128443465D01*
X119781535Y-128489881D01*
X119842179Y-128515000D01*
X119907821Y-128515000D01*
X119968465Y-128489881D01*
X120014881Y-128443465D01*
X120040000Y-128382821D01*
X120040000Y-128350000D01*
X120228553Y-128350000D01*
X120602540Y-128723987D01*
X120602541Y-128723987D01*
X120613935Y-128705855D01*
X120613937Y-128705849D01*
X120674592Y-128532509D01*
X120674595Y-128532496D01*
X120695157Y-128350003D01*
X120695157Y-128349996D01*
X120691214Y-128315003D01*
X132239843Y-128315003D01*
X132260404Y-128497496D01*
X132260407Y-128497509D01*
X132321060Y-128670843D01*
X132321065Y-128670854D01*
X132332458Y-128688987D01*
X132673626Y-128347821D01*
X132895000Y-128347821D01*
X132920119Y-128408465D01*
X132966535Y-128454881D01*
X133027179Y-128480000D01*
X133092821Y-128480000D01*
X133153465Y-128454881D01*
X133199881Y-128408465D01*
X133225000Y-128347821D01*
X133225000Y-128282179D01*
X133199881Y-128221535D01*
X133153465Y-128175119D01*
X133092821Y-128150000D01*
X133027179Y-128150000D01*
X132966535Y-128175119D01*
X132920119Y-128221535D01*
X132895000Y-128282179D01*
X132895000Y-128347821D01*
X132673626Y-128347821D01*
X132706447Y-128315000D01*
X132332458Y-127941011D01*
X132321066Y-127959144D01*
X132321060Y-127959156D01*
X132260407Y-128132490D01*
X132260404Y-128132503D01*
X132239843Y-128314996D01*
X132239843Y-128315003D01*
X120691214Y-128315003D01*
X120674595Y-128167503D01*
X120674592Y-128167490D01*
X120613936Y-127994147D01*
X120602541Y-127976011D01*
X120602540Y-127976010D01*
X120228553Y-128349999D01*
X120228553Y-128350000D01*
X120040000Y-128350000D01*
X120040000Y-128317179D01*
X120014881Y-128256535D01*
X119968465Y-128210119D01*
X119907821Y-128185000D01*
X119842179Y-128185000D01*
X119781535Y-128210119D01*
X119735119Y-128256535D01*
X119710000Y-128317179D01*
X119710000Y-128382821D01*
X119488626Y-128382821D01*
X120171447Y-127700000D01*
X120136447Y-127665000D01*
X132763553Y-127665000D01*
X133710000Y-128611447D01*
X133973626Y-128347821D01*
X134195000Y-128347821D01*
X134220119Y-128408465D01*
X134266535Y-128454881D01*
X134327179Y-128480000D01*
X134392821Y-128480000D01*
X134453465Y-128454881D01*
X134499881Y-128408465D01*
X134525000Y-128347821D01*
X134525000Y-128282179D01*
X134499881Y-128221535D01*
X134453465Y-128175119D01*
X134392821Y-128150000D01*
X134327179Y-128150000D01*
X134266535Y-128175119D01*
X134220119Y-128221535D01*
X134195000Y-128282179D01*
X134195000Y-128347821D01*
X133973626Y-128347821D01*
X134272319Y-128049128D01*
X134333642Y-128015643D01*
X134403334Y-128020627D01*
X134447681Y-128049128D01*
X135010000Y-128611447D01*
X135273626Y-128347821D01*
X135495000Y-128347821D01*
X135520119Y-128408465D01*
X135566535Y-128454881D01*
X135627179Y-128480000D01*
X135692821Y-128480000D01*
X135753465Y-128454881D01*
X135799881Y-128408465D01*
X135825000Y-128347821D01*
X135825000Y-128315000D01*
X136013553Y-128315000D01*
X136387540Y-128688987D01*
X136387541Y-128688987D01*
X136398935Y-128670855D01*
X136398937Y-128670849D01*
X136459592Y-128497509D01*
X136459595Y-128497496D01*
X136480157Y-128315003D01*
X136480157Y-128314996D01*
X136459595Y-128132503D01*
X136459592Y-128132490D01*
X136398936Y-127959147D01*
X136387541Y-127941011D01*
X136387540Y-127941010D01*
X136013553Y-128314999D01*
X136013553Y-128315000D01*
X135825000Y-128315000D01*
X135825000Y-128282179D01*
X135799881Y-128221535D01*
X135753465Y-128175119D01*
X135692821Y-128150000D01*
X135627179Y-128150000D01*
X135566535Y-128175119D01*
X135520119Y-128221535D01*
X135495000Y-128282179D01*
X135495000Y-128347821D01*
X135273626Y-128347821D01*
X135956447Y-127665000D01*
X135339268Y-127047821D01*
X135495000Y-127047821D01*
X135520119Y-127108465D01*
X135566535Y-127154881D01*
X135627179Y-127180000D01*
X135692821Y-127180000D01*
X135753465Y-127154881D01*
X135799881Y-127108465D01*
X135825000Y-127047821D01*
X135825000Y-127015000D01*
X136013553Y-127015000D01*
X136387540Y-127388987D01*
X136387541Y-127388987D01*
X136398935Y-127370855D01*
X136398937Y-127370849D01*
X136459592Y-127197509D01*
X136459595Y-127197496D01*
X136480157Y-127015003D01*
X136480157Y-127014996D01*
X136459595Y-126832503D01*
X136459592Y-126832490D01*
X136398936Y-126659147D01*
X136387541Y-126641011D01*
X136387540Y-126641010D01*
X136013553Y-127014999D01*
X136013553Y-127015000D01*
X135825000Y-127015000D01*
X135825000Y-126982179D01*
X135799881Y-126921535D01*
X135753465Y-126875119D01*
X135692821Y-126850000D01*
X135627179Y-126850000D01*
X135566535Y-126875119D01*
X135520119Y-126921535D01*
X135495000Y-126982179D01*
X135495000Y-127047821D01*
X135339268Y-127047821D01*
X135010000Y-126718553D01*
X134447681Y-127280872D01*
X134386358Y-127314357D01*
X134316666Y-127309373D01*
X134272319Y-127280872D01*
X134039268Y-127047821D01*
X134195000Y-127047821D01*
X134220119Y-127108465D01*
X134266535Y-127154881D01*
X134327179Y-127180000D01*
X134392821Y-127180000D01*
X134453465Y-127154881D01*
X134499881Y-127108465D01*
X134525000Y-127047821D01*
X134525000Y-126982179D01*
X134499881Y-126921535D01*
X134453465Y-126875119D01*
X134392821Y-126850000D01*
X134327179Y-126850000D01*
X134266535Y-126875119D01*
X134220119Y-126921535D01*
X134195000Y-126982179D01*
X134195000Y-127047821D01*
X134039268Y-127047821D01*
X133710000Y-126718553D01*
X132763553Y-127665000D01*
X120136447Y-127665000D01*
X119554268Y-127082821D01*
X119710000Y-127082821D01*
X119735119Y-127143465D01*
X119781535Y-127189881D01*
X119842179Y-127215000D01*
X119907821Y-127215000D01*
X119968465Y-127189881D01*
X120014881Y-127143465D01*
X120040000Y-127082821D01*
X120040000Y-127050000D01*
X120228553Y-127050000D01*
X120602540Y-127423987D01*
X120602541Y-127423987D01*
X120613935Y-127405855D01*
X120613937Y-127405849D01*
X120674592Y-127232509D01*
X120674595Y-127232496D01*
X120695157Y-127050003D01*
X120695157Y-127049996D01*
X120691214Y-127015003D01*
X132239843Y-127015003D01*
X132260404Y-127197496D01*
X132260407Y-127197509D01*
X132321060Y-127370843D01*
X132321065Y-127370854D01*
X132332458Y-127388987D01*
X132673626Y-127047821D01*
X132895000Y-127047821D01*
X132920119Y-127108465D01*
X132966535Y-127154881D01*
X133027179Y-127180000D01*
X133092821Y-127180000D01*
X133153465Y-127154881D01*
X133199881Y-127108465D01*
X133225000Y-127047821D01*
X133225000Y-126982179D01*
X133199881Y-126921535D01*
X133153465Y-126875119D01*
X133092821Y-126850000D01*
X133027179Y-126850000D01*
X132966535Y-126875119D01*
X132920119Y-126921535D01*
X132895000Y-126982179D01*
X132895000Y-127047821D01*
X132673626Y-127047821D01*
X132706447Y-127015000D01*
X132332458Y-126641011D01*
X132321066Y-126659144D01*
X132321060Y-126659156D01*
X132260407Y-126832490D01*
X132260404Y-126832503D01*
X132239843Y-127014996D01*
X132239843Y-127015003D01*
X120691214Y-127015003D01*
X120674595Y-126867503D01*
X120674592Y-126867490D01*
X120613936Y-126694147D01*
X120602541Y-126676011D01*
X120602540Y-126676010D01*
X120228553Y-127049999D01*
X120228553Y-127050000D01*
X120040000Y-127050000D01*
X120040000Y-127017179D01*
X120014881Y-126956535D01*
X119968465Y-126910119D01*
X119907821Y-126885000D01*
X119842179Y-126885000D01*
X119781535Y-126910119D01*
X119735119Y-126956535D01*
X119710000Y-127017179D01*
X119710000Y-127082821D01*
X119554268Y-127082821D01*
X119225000Y-126753553D01*
X118662681Y-127315872D01*
X118601358Y-127349357D01*
X118531666Y-127344373D01*
X118487319Y-127315872D01*
X118254268Y-127082821D01*
X118410000Y-127082821D01*
X118435119Y-127143465D01*
X118481535Y-127189881D01*
X118542179Y-127215000D01*
X118607821Y-127215000D01*
X118668465Y-127189881D01*
X118714881Y-127143465D01*
X118740000Y-127082821D01*
X118740000Y-127017179D01*
X118714881Y-126956535D01*
X118668465Y-126910119D01*
X118607821Y-126885000D01*
X118542179Y-126885000D01*
X118481535Y-126910119D01*
X118435119Y-126956535D01*
X118410000Y-127017179D01*
X118410000Y-127082821D01*
X118254268Y-127082821D01*
X117925000Y-126753553D01*
X116978553Y-127700000D01*
X110100500Y-127700000D01*
X110100500Y-127050003D01*
X116454843Y-127050003D01*
X116475404Y-127232496D01*
X116475407Y-127232509D01*
X116536060Y-127405843D01*
X116536065Y-127405854D01*
X116547458Y-127423987D01*
X116888626Y-127082821D01*
X117110000Y-127082821D01*
X117135119Y-127143465D01*
X117181535Y-127189881D01*
X117242179Y-127215000D01*
X117307821Y-127215000D01*
X117368465Y-127189881D01*
X117414881Y-127143465D01*
X117440000Y-127082821D01*
X117440000Y-127017179D01*
X117414881Y-126956535D01*
X117368465Y-126910119D01*
X117307821Y-126885000D01*
X117242179Y-126885000D01*
X117181535Y-126910119D01*
X117135119Y-126956535D01*
X117110000Y-127017179D01*
X117110000Y-127082821D01*
X116888626Y-127082821D01*
X116921447Y-127050000D01*
X116547458Y-126676011D01*
X116536066Y-126694144D01*
X116536060Y-126694156D01*
X116475407Y-126867490D01*
X116475404Y-126867503D01*
X116454843Y-127049996D01*
X116454843Y-127050003D01*
X110100500Y-127050003D01*
X110100500Y-126322458D01*
X116901011Y-126322458D01*
X117275000Y-126696447D01*
X117275001Y-126696447D01*
X117648988Y-126322458D01*
X118201011Y-126322458D01*
X118575000Y-126696447D01*
X118575001Y-126696447D01*
X118948988Y-126322458D01*
X119501011Y-126322458D01*
X119875000Y-126696447D01*
X119875001Y-126696447D01*
X120248988Y-126322458D01*
X120230854Y-126311065D01*
X120230843Y-126311060D01*
X120163393Y-126287458D01*
X132686011Y-126287458D01*
X133060000Y-126661447D01*
X133060001Y-126661447D01*
X133433988Y-126287458D01*
X133986011Y-126287458D01*
X134360000Y-126661447D01*
X134360001Y-126661447D01*
X134733988Y-126287458D01*
X135286011Y-126287458D01*
X135660000Y-126661447D01*
X135660001Y-126661447D01*
X136033988Y-126287458D01*
X136015854Y-126276065D01*
X136015843Y-126276060D01*
X135842509Y-126215407D01*
X135842496Y-126215404D01*
X135660004Y-126194843D01*
X135659996Y-126194843D01*
X135477503Y-126215404D01*
X135477490Y-126215407D01*
X135304156Y-126276060D01*
X135304144Y-126276066D01*
X135286011Y-126287458D01*
X134733988Y-126287458D01*
X134715854Y-126276065D01*
X134715843Y-126276060D01*
X134542509Y-126215407D01*
X134542496Y-126215404D01*
X134360004Y-126194843D01*
X134359996Y-126194843D01*
X134177503Y-126215404D01*
X134177490Y-126215407D01*
X134004156Y-126276060D01*
X134004144Y-126276066D01*
X133986011Y-126287458D01*
X133433988Y-126287458D01*
X133415854Y-126276065D01*
X133415843Y-126276060D01*
X133242509Y-126215407D01*
X133242496Y-126215404D01*
X133060004Y-126194843D01*
X133059996Y-126194843D01*
X132877503Y-126215404D01*
X132877490Y-126215407D01*
X132704156Y-126276060D01*
X132704144Y-126276066D01*
X132686011Y-126287458D01*
X120163393Y-126287458D01*
X120057509Y-126250407D01*
X120057496Y-126250404D01*
X119875004Y-126229843D01*
X119874996Y-126229843D01*
X119692503Y-126250404D01*
X119692490Y-126250407D01*
X119519156Y-126311060D01*
X119519144Y-126311066D01*
X119501011Y-126322458D01*
X118948988Y-126322458D01*
X118930854Y-126311065D01*
X118930843Y-126311060D01*
X118757509Y-126250407D01*
X118757496Y-126250404D01*
X118575004Y-126229843D01*
X118574996Y-126229843D01*
X118392503Y-126250404D01*
X118392490Y-126250407D01*
X118219156Y-126311060D01*
X118219144Y-126311066D01*
X118201011Y-126322458D01*
X117648988Y-126322458D01*
X117630854Y-126311065D01*
X117630843Y-126311060D01*
X117457509Y-126250407D01*
X117457496Y-126250404D01*
X117275004Y-126229843D01*
X117274996Y-126229843D01*
X117092503Y-126250404D01*
X117092490Y-126250407D01*
X116919156Y-126311060D01*
X116919144Y-126311066D01*
X116901011Y-126322458D01*
X110100500Y-126322458D01*
X110100500Y-120860002D01*
X123304751Y-120860002D01*
X123323685Y-121028056D01*
X123379545Y-121187694D01*
X123379547Y-121187697D01*
X123469518Y-121330884D01*
X123469523Y-121330890D01*
X123589109Y-121450476D01*
X123589115Y-121450481D01*
X123732302Y-121540452D01*
X123732305Y-121540454D01*
X123732309Y-121540455D01*
X123732310Y-121540456D01*
X123804913Y-121565860D01*
X123891943Y-121596314D01*
X124059997Y-121615249D01*
X124060000Y-121615249D01*
X124060003Y-121615249D01*
X124228056Y-121596314D01*
X124228059Y-121596313D01*
X124387690Y-121540456D01*
X124387692Y-121540454D01*
X124387694Y-121540454D01*
X124387697Y-121540452D01*
X124530884Y-121450481D01*
X124530885Y-121450480D01*
X124530890Y-121450477D01*
X124650477Y-121330890D01*
X124650481Y-121330884D01*
X124669886Y-121300002D01*
X138744751Y-121300002D01*
X138763685Y-121468056D01*
X138819545Y-121627694D01*
X138819547Y-121627697D01*
X138909518Y-121770884D01*
X138909523Y-121770890D01*
X139029109Y-121890476D01*
X139029115Y-121890481D01*
X139172302Y-121980452D01*
X139172305Y-121980454D01*
X139172309Y-121980455D01*
X139172310Y-121980456D01*
X139244913Y-122005860D01*
X139331943Y-122036314D01*
X139499997Y-122055249D01*
X139500000Y-122055249D01*
X139500003Y-122055249D01*
X139668056Y-122036314D01*
X139668059Y-122036313D01*
X139827690Y-121980456D01*
X139827692Y-121980454D01*
X139827694Y-121980454D01*
X139827697Y-121980452D01*
X139970884Y-121890481D01*
X139970885Y-121890480D01*
X139970890Y-121890477D01*
X140090477Y-121770890D01*
X140180452Y-121627697D01*
X140180454Y-121627694D01*
X140180454Y-121627692D01*
X140180456Y-121627690D01*
X140236313Y-121468059D01*
X140236313Y-121468058D01*
X140236314Y-121468056D01*
X140255249Y-121300002D01*
X140255249Y-121299997D01*
X140236314Y-121131943D01*
X140180454Y-120972305D01*
X140180452Y-120972302D01*
X140090481Y-120829115D01*
X140090476Y-120829109D01*
X139970890Y-120709523D01*
X139970884Y-120709518D01*
X139827697Y-120619547D01*
X139827694Y-120619545D01*
X139668056Y-120563685D01*
X139500003Y-120544751D01*
X139499997Y-120544751D01*
X139331943Y-120563685D01*
X139172305Y-120619545D01*
X139172302Y-120619547D01*
X139029115Y-120709518D01*
X139029109Y-120709523D01*
X138909523Y-120829109D01*
X138909518Y-120829115D01*
X138819547Y-120972302D01*
X138819545Y-120972305D01*
X138763685Y-121131943D01*
X138744751Y-121299997D01*
X138744751Y-121300002D01*
X124669886Y-121300002D01*
X124740452Y-121187697D01*
X124740454Y-121187694D01*
X124740454Y-121187692D01*
X124740456Y-121187690D01*
X124796313Y-121028059D01*
X124796313Y-121028058D01*
X124796314Y-121028056D01*
X124815249Y-120860002D01*
X124815249Y-120859997D01*
X124796314Y-120691943D01*
X124751435Y-120563687D01*
X124740456Y-120532310D01*
X124740455Y-120532309D01*
X124740454Y-120532305D01*
X124740452Y-120532302D01*
X124650481Y-120389115D01*
X124650476Y-120389109D01*
X124530890Y-120269523D01*
X124530884Y-120269518D01*
X124387697Y-120179547D01*
X124387694Y-120179545D01*
X124228056Y-120123685D01*
X124060003Y-120104751D01*
X124059997Y-120104751D01*
X123891943Y-120123685D01*
X123732305Y-120179545D01*
X123732302Y-120179547D01*
X123589115Y-120269518D01*
X123589109Y-120269523D01*
X123469523Y-120389109D01*
X123469518Y-120389115D01*
X123379547Y-120532302D01*
X123379545Y-120532305D01*
X123323685Y-120691943D01*
X123304751Y-120859997D01*
X123304751Y-120860002D01*
X110100500Y-120860002D01*
X110100500Y-118000002D01*
X125644751Y-118000002D01*
X125663685Y-118168056D01*
X125719545Y-118327694D01*
X125719547Y-118327697D01*
X125809518Y-118470884D01*
X125809523Y-118470890D01*
X125929109Y-118590476D01*
X125929115Y-118590481D01*
X126072302Y-118680452D01*
X126072305Y-118680454D01*
X126072309Y-118680455D01*
X126072310Y-118680456D01*
X126144913Y-118705860D01*
X126231943Y-118736314D01*
X126399997Y-118755249D01*
X126400000Y-118755249D01*
X126400003Y-118755249D01*
X126568056Y-118736314D01*
X126568059Y-118736313D01*
X126727690Y-118680456D01*
X126727692Y-118680454D01*
X126727694Y-118680454D01*
X126727697Y-118680452D01*
X126870884Y-118590481D01*
X126870885Y-118590480D01*
X126870890Y-118590477D01*
X126990477Y-118470890D01*
X127080452Y-118327697D01*
X127080454Y-118327694D01*
X127080454Y-118327692D01*
X127080456Y-118327690D01*
X127136313Y-118168059D01*
X127136313Y-118168058D01*
X127136314Y-118168056D01*
X127155249Y-118000002D01*
X127155249Y-117999997D01*
X127136314Y-117831943D01*
X127080454Y-117672305D01*
X127080452Y-117672302D01*
X126990481Y-117529115D01*
X126990476Y-117529109D01*
X126870890Y-117409523D01*
X126870884Y-117409518D01*
X126727697Y-117319547D01*
X126727694Y-117319545D01*
X126568056Y-117263685D01*
X126400003Y-117244751D01*
X126399997Y-117244751D01*
X126231943Y-117263685D01*
X126072305Y-117319545D01*
X126072302Y-117319547D01*
X125929115Y-117409518D01*
X125929109Y-117409523D01*
X125809523Y-117529109D01*
X125809518Y-117529115D01*
X125719547Y-117672302D01*
X125719545Y-117672305D01*
X125663685Y-117831943D01*
X125644751Y-117999997D01*
X125644751Y-118000002D01*
X110100500Y-118000002D01*
X110100500Y-116650002D01*
X138794751Y-116650002D01*
X138813685Y-116818056D01*
X138869545Y-116977694D01*
X138869547Y-116977697D01*
X138959518Y-117120884D01*
X138959523Y-117120890D01*
X139079109Y-117240476D01*
X139079115Y-117240481D01*
X139222302Y-117330452D01*
X139222305Y-117330454D01*
X139222309Y-117330455D01*
X139222310Y-117330456D01*
X139294913Y-117355860D01*
X139381943Y-117386314D01*
X139549997Y-117405249D01*
X139550000Y-117405249D01*
X139550003Y-117405249D01*
X139718056Y-117386314D01*
X139718059Y-117386313D01*
X139877690Y-117330456D01*
X139877692Y-117330454D01*
X139877694Y-117330454D01*
X139877697Y-117330452D01*
X140020884Y-117240481D01*
X140020885Y-117240480D01*
X140020890Y-117240477D01*
X140140477Y-117120890D01*
X140230452Y-116977697D01*
X140230454Y-116977694D01*
X140230454Y-116977692D01*
X140230456Y-116977690D01*
X140286313Y-116818059D01*
X140286313Y-116818058D01*
X140286314Y-116818056D01*
X140305249Y-116650002D01*
X140305249Y-116649997D01*
X140286314Y-116481943D01*
X140230454Y-116322305D01*
X140230452Y-116322302D01*
X140140481Y-116179115D01*
X140140476Y-116179109D01*
X140020890Y-116059523D01*
X140020884Y-116059518D01*
X139877697Y-115969547D01*
X139877694Y-115969545D01*
X139718056Y-115913685D01*
X139550003Y-115894751D01*
X139549997Y-115894751D01*
X139381943Y-115913685D01*
X139222305Y-115969545D01*
X139222302Y-115969547D01*
X139079115Y-116059518D01*
X139079109Y-116059523D01*
X138959523Y-116179109D01*
X138959518Y-116179115D01*
X138869547Y-116322302D01*
X138869545Y-116322305D01*
X138813685Y-116481943D01*
X138794751Y-116649997D01*
X138794751Y-116650002D01*
X110100500Y-116650002D01*
X110100500Y-113600002D01*
X128144751Y-113600002D01*
X128163685Y-113768056D01*
X128219545Y-113927694D01*
X128219547Y-113927697D01*
X128309518Y-114070884D01*
X128309523Y-114070890D01*
X128429109Y-114190476D01*
X128429115Y-114190481D01*
X128572302Y-114280452D01*
X128572305Y-114280454D01*
X128572309Y-114280455D01*
X128572310Y-114280456D01*
X128644913Y-114305860D01*
X128731943Y-114336314D01*
X128899997Y-114355249D01*
X128900000Y-114355249D01*
X128900003Y-114355249D01*
X129068056Y-114336314D01*
X129068059Y-114336313D01*
X129227690Y-114280456D01*
X129227692Y-114280454D01*
X129227694Y-114280454D01*
X129227697Y-114280452D01*
X129370884Y-114190481D01*
X129370885Y-114190480D01*
X129370890Y-114190477D01*
X129490477Y-114070890D01*
X129580452Y-113927697D01*
X129580454Y-113927694D01*
X129580454Y-113927692D01*
X129580456Y-113927690D01*
X129636313Y-113768059D01*
X129636313Y-113768058D01*
X129636314Y-113768056D01*
X129655249Y-113600002D01*
X129655249Y-113599997D01*
X129636314Y-113431943D01*
X129580454Y-113272305D01*
X129580452Y-113272302D01*
X129490481Y-113129115D01*
X129490476Y-113129109D01*
X129370890Y-113009523D01*
X129370884Y-113009518D01*
X129227697Y-112919547D01*
X129227694Y-112919545D01*
X129068056Y-112863685D01*
X128900003Y-112844751D01*
X128899997Y-112844751D01*
X128731943Y-112863685D01*
X128572305Y-112919545D01*
X128572302Y-112919547D01*
X128429115Y-113009518D01*
X128429109Y-113009523D01*
X128309523Y-113129109D01*
X128309518Y-113129115D01*
X128219547Y-113272302D01*
X128219545Y-113272305D01*
X128163685Y-113431943D01*
X128144751Y-113599997D01*
X128144751Y-113600002D01*
X110100500Y-113600002D01*
X110100500Y-109200002D01*
X134144751Y-109200002D01*
X134163685Y-109368056D01*
X134219545Y-109527694D01*
X134219547Y-109527697D01*
X134309518Y-109670884D01*
X134309523Y-109670890D01*
X134429109Y-109790476D01*
X134429115Y-109790481D01*
X134572302Y-109880452D01*
X134572305Y-109880454D01*
X134572309Y-109880455D01*
X134572310Y-109880456D01*
X134644913Y-109905860D01*
X134731943Y-109936314D01*
X134899997Y-109955249D01*
X134900000Y-109955249D01*
X134900003Y-109955249D01*
X135068056Y-109936314D01*
X135068059Y-109936313D01*
X135227690Y-109880456D01*
X135227692Y-109880454D01*
X135227694Y-109880454D01*
X135227697Y-109880452D01*
X135370884Y-109790481D01*
X135370885Y-109790480D01*
X135370890Y-109790477D01*
X135490477Y-109670890D01*
X135580452Y-109527697D01*
X135580454Y-109527694D01*
X135580454Y-109527692D01*
X135580456Y-109527690D01*
X135636313Y-109368059D01*
X135636313Y-109368058D01*
X135636314Y-109368056D01*
X135655249Y-109200002D01*
X135655249Y-109199997D01*
X135636314Y-109031943D01*
X135584705Y-108884454D01*
X135580456Y-108872310D01*
X135580455Y-108872309D01*
X135580454Y-108872305D01*
X135580452Y-108872302D01*
X135490481Y-108729115D01*
X135490476Y-108729109D01*
X135370890Y-108609523D01*
X135370884Y-108609518D01*
X135227697Y-108519547D01*
X135227694Y-108519545D01*
X135068056Y-108463685D01*
X134900003Y-108444751D01*
X134899997Y-108444751D01*
X134731943Y-108463685D01*
X134572305Y-108519545D01*
X134572302Y-108519547D01*
X134429115Y-108609518D01*
X134429109Y-108609523D01*
X134309523Y-108729109D01*
X134309518Y-108729115D01*
X134219547Y-108872302D01*
X134219545Y-108872305D01*
X134163685Y-109031943D01*
X134144751Y-109199997D01*
X134144751Y-109200002D01*
X110100500Y-109200002D01*
X110100500Y-107500002D01*
X116444751Y-107500002D01*
X116463685Y-107668056D01*
X116519545Y-107827694D01*
X116519547Y-107827697D01*
X116609518Y-107970884D01*
X116609523Y-107970890D01*
X116729109Y-108090476D01*
X116729115Y-108090481D01*
X116872302Y-108180452D01*
X116872305Y-108180454D01*
X116872309Y-108180455D01*
X116872310Y-108180456D01*
X116939587Y-108203997D01*
X117031943Y-108236314D01*
X117199997Y-108255249D01*
X117200000Y-108255249D01*
X117200003Y-108255249D01*
X117368056Y-108236314D01*
X117368059Y-108236313D01*
X117460399Y-108204002D01*
X127144751Y-108204002D01*
X127163685Y-108372056D01*
X127219545Y-108531694D01*
X127219547Y-108531697D01*
X127309518Y-108674884D01*
X127309523Y-108674890D01*
X127429109Y-108794476D01*
X127429115Y-108794481D01*
X127572302Y-108884452D01*
X127572305Y-108884454D01*
X127572309Y-108884455D01*
X127572310Y-108884456D01*
X127644913Y-108909860D01*
X127731943Y-108940314D01*
X127899997Y-108959249D01*
X127900000Y-108959249D01*
X127900003Y-108959249D01*
X128068056Y-108940314D01*
X128068059Y-108940313D01*
X128227690Y-108884456D01*
X128227692Y-108884454D01*
X128227694Y-108884454D01*
X128227697Y-108884452D01*
X128370884Y-108794481D01*
X128370885Y-108794480D01*
X128370890Y-108794477D01*
X128490477Y-108674890D01*
X128580452Y-108531697D01*
X128580454Y-108531694D01*
X128580454Y-108531692D01*
X128580456Y-108531690D01*
X128636313Y-108372059D01*
X128636313Y-108372058D01*
X128636314Y-108372056D01*
X128655249Y-108204002D01*
X128655249Y-108203997D01*
X128636314Y-108035943D01*
X128590582Y-107905249D01*
X128580456Y-107876310D01*
X128580455Y-107876309D01*
X128580454Y-107876305D01*
X128580452Y-107876302D01*
X128490481Y-107733115D01*
X128490476Y-107733109D01*
X128370890Y-107613523D01*
X128370884Y-107613518D01*
X128227697Y-107523547D01*
X128227694Y-107523545D01*
X128068056Y-107467685D01*
X127900003Y-107448751D01*
X127899997Y-107448751D01*
X127731943Y-107467685D01*
X127572305Y-107523545D01*
X127572302Y-107523547D01*
X127429115Y-107613518D01*
X127429109Y-107613523D01*
X127309523Y-107733109D01*
X127309518Y-107733115D01*
X127219547Y-107876302D01*
X127219545Y-107876305D01*
X127163685Y-108035943D01*
X127144751Y-108203997D01*
X127144751Y-108204002D01*
X117460399Y-108204002D01*
X117527690Y-108180456D01*
X117527692Y-108180454D01*
X117527694Y-108180454D01*
X117527697Y-108180452D01*
X117670884Y-108090481D01*
X117670885Y-108090480D01*
X117670890Y-108090477D01*
X117790477Y-107970890D01*
X117878718Y-107830456D01*
X117880452Y-107827697D01*
X117880454Y-107827694D01*
X117880454Y-107827692D01*
X117880456Y-107827690D01*
X117936313Y-107668059D01*
X117936313Y-107668058D01*
X117936314Y-107668056D01*
X117955249Y-107500002D01*
X117955249Y-107499997D01*
X117936314Y-107331943D01*
X117891166Y-107202917D01*
X117880456Y-107172310D01*
X117880455Y-107172309D01*
X117880454Y-107172305D01*
X117880452Y-107172302D01*
X117866440Y-107150002D01*
X136594751Y-107150002D01*
X136613685Y-107318056D01*
X136669545Y-107477694D01*
X136669547Y-107477697D01*
X136759518Y-107620884D01*
X136759523Y-107620890D01*
X136879109Y-107740476D01*
X136879115Y-107740481D01*
X137022302Y-107830452D01*
X137022305Y-107830454D01*
X137022309Y-107830455D01*
X137022310Y-107830456D01*
X137094913Y-107855860D01*
X137181943Y-107886314D01*
X137349997Y-107905249D01*
X137350000Y-107905249D01*
X137350003Y-107905249D01*
X137518056Y-107886314D01*
X137546669Y-107876302D01*
X137677690Y-107830456D01*
X137677692Y-107830454D01*
X137677694Y-107830454D01*
X137677697Y-107830452D01*
X137820884Y-107740481D01*
X137820885Y-107740480D01*
X137820890Y-107740477D01*
X137940477Y-107620890D01*
X138001642Y-107523547D01*
X138030452Y-107477697D01*
X138030454Y-107477694D01*
X138030454Y-107477692D01*
X138030456Y-107477690D01*
X138086313Y-107318059D01*
X138086313Y-107318057D01*
X138086314Y-107318055D01*
X138092029Y-107267331D01*
X138119095Y-107202917D01*
X138176689Y-107163362D01*
X138246526Y-107161223D01*
X138281222Y-107176221D01*
X138372306Y-107233454D01*
X138372307Y-107233454D01*
X138372310Y-107233456D01*
X138469120Y-107267331D01*
X138531943Y-107289314D01*
X138699997Y-107308249D01*
X138700000Y-107308249D01*
X138700003Y-107308249D01*
X138868056Y-107289314D01*
X138930880Y-107267331D01*
X139027690Y-107233456D01*
X139027692Y-107233454D01*
X139027694Y-107233454D01*
X139027697Y-107233452D01*
X139170884Y-107143481D01*
X139170885Y-107143480D01*
X139170890Y-107143477D01*
X139290477Y-107023890D01*
X139290481Y-107023884D01*
X139380452Y-106880697D01*
X139380454Y-106880694D01*
X139380454Y-106880692D01*
X139380456Y-106880690D01*
X139436313Y-106721059D01*
X139436313Y-106721058D01*
X139436314Y-106721056D01*
X139455249Y-106553002D01*
X139455249Y-106552997D01*
X139436314Y-106384943D01*
X139384837Y-106237830D01*
X139380456Y-106225310D01*
X139380455Y-106225309D01*
X139380454Y-106225305D01*
X139380452Y-106225302D01*
X139290481Y-106082115D01*
X139290476Y-106082109D01*
X139170890Y-105962523D01*
X139170884Y-105962518D01*
X139027697Y-105872547D01*
X139027694Y-105872545D01*
X138868056Y-105816685D01*
X138700003Y-105797751D01*
X138699997Y-105797751D01*
X138531943Y-105816685D01*
X138372305Y-105872545D01*
X138372302Y-105872547D01*
X138229115Y-105962518D01*
X138229109Y-105962523D01*
X138109523Y-106082109D01*
X138109518Y-106082115D01*
X138019547Y-106225302D01*
X138019545Y-106225305D01*
X137963686Y-106384943D01*
X137957970Y-106435670D01*
X137930903Y-106500084D01*
X137873307Y-106539638D01*
X137803470Y-106541775D01*
X137768777Y-106526778D01*
X137677692Y-106469545D01*
X137677694Y-106469545D01*
X137518056Y-106413685D01*
X137350003Y-106394751D01*
X137349997Y-106394751D01*
X137181943Y-106413685D01*
X137022305Y-106469545D01*
X137022302Y-106469547D01*
X136879115Y-106559518D01*
X136879109Y-106559523D01*
X136754599Y-106684034D01*
X136753717Y-106683152D01*
X136702390Y-106719174D01*
X136671059Y-106720450D01*
X136680825Y-106738335D01*
X136675841Y-106808027D01*
X136671384Y-106818486D01*
X136669548Y-106822298D01*
X136613685Y-106981943D01*
X136594751Y-107149997D01*
X136594751Y-107150002D01*
X117866440Y-107150002D01*
X117790481Y-107029115D01*
X117790476Y-107029109D01*
X117670890Y-106909523D01*
X117670884Y-106909518D01*
X117527697Y-106819547D01*
X117527694Y-106819545D01*
X117368056Y-106763685D01*
X117200003Y-106744751D01*
X117199997Y-106744751D01*
X117031943Y-106763685D01*
X116872305Y-106819545D01*
X116872302Y-106819547D01*
X116729115Y-106909518D01*
X116729109Y-106909523D01*
X116609523Y-107029109D01*
X116609518Y-107029115D01*
X116519547Y-107172302D01*
X116519545Y-107172305D01*
X116463685Y-107331943D01*
X116444751Y-107499997D01*
X116444751Y-107500002D01*
X110100500Y-107500002D01*
X110100500Y-105560000D01*
X118644341Y-105560000D01*
X118664936Y-105795403D01*
X118664938Y-105795413D01*
X118726094Y-106023655D01*
X118726096Y-106023659D01*
X118726097Y-106023663D01*
X118820127Y-106225310D01*
X118825965Y-106237830D01*
X118825967Y-106237834D01*
X118873172Y-106305249D01*
X118961505Y-106431401D01*
X119128599Y-106598495D01*
X119225384Y-106666265D01*
X119322165Y-106734032D01*
X119322167Y-106734033D01*
X119322170Y-106734035D01*
X119536337Y-106833903D01*
X119536343Y-106833904D01*
X119536344Y-106833905D01*
X119591285Y-106848626D01*
X119764592Y-106895063D01*
X119929810Y-106909518D01*
X119999999Y-106915659D01*
X120000000Y-106915659D01*
X120000001Y-106915659D01*
X120039234Y-106912226D01*
X120235408Y-106895063D01*
X120463663Y-106833903D01*
X120677830Y-106734035D01*
X120871401Y-106598495D01*
X121038495Y-106431401D01*
X121174035Y-106237830D01*
X121273903Y-106023663D01*
X121335063Y-105795408D01*
X121355659Y-105560000D01*
X121354784Y-105550002D01*
X129094751Y-105550002D01*
X129113685Y-105718056D01*
X129169545Y-105877694D01*
X129169547Y-105877697D01*
X129259518Y-106020884D01*
X129259523Y-106020890D01*
X129379109Y-106140476D01*
X129379115Y-106140481D01*
X129522302Y-106230452D01*
X129522305Y-106230454D01*
X129522309Y-106230455D01*
X129522310Y-106230456D01*
X129594913Y-106255860D01*
X129681943Y-106286314D01*
X129849997Y-106305249D01*
X129850000Y-106305249D01*
X129850003Y-106305249D01*
X130018056Y-106286314D01*
X130018059Y-106286313D01*
X130177690Y-106230456D01*
X130177692Y-106230454D01*
X130177694Y-106230454D01*
X130177697Y-106230452D01*
X130320884Y-106140481D01*
X130320885Y-106140480D01*
X130320890Y-106140477D01*
X130440477Y-106020890D01*
X130530452Y-105877697D01*
X130530454Y-105877694D01*
X130530454Y-105877692D01*
X130530456Y-105877690D01*
X130586313Y-105718059D01*
X130586313Y-105718058D01*
X130586314Y-105718056D01*
X130605249Y-105550002D01*
X130605249Y-105549997D01*
X130586314Y-105381943D01*
X130530454Y-105222305D01*
X130530452Y-105222302D01*
X130440481Y-105079115D01*
X130440476Y-105079109D01*
X130320890Y-104959523D01*
X130320884Y-104959518D01*
X130177697Y-104869547D01*
X130177694Y-104869545D01*
X130018056Y-104813685D01*
X129850003Y-104794751D01*
X129849997Y-104794751D01*
X129681943Y-104813685D01*
X129522305Y-104869545D01*
X129522302Y-104869547D01*
X129379115Y-104959518D01*
X129379109Y-104959523D01*
X129259523Y-105079109D01*
X129259518Y-105079115D01*
X129169547Y-105222302D01*
X129169545Y-105222305D01*
X129113685Y-105381943D01*
X129094751Y-105549997D01*
X129094751Y-105550002D01*
X121354784Y-105550002D01*
X121335063Y-105324592D01*
X121273903Y-105096337D01*
X121174035Y-104882171D01*
X121165195Y-104869545D01*
X121038494Y-104688597D01*
X120871402Y-104521506D01*
X120871396Y-104521501D01*
X120685842Y-104391575D01*
X120642217Y-104336998D01*
X120635023Y-104267500D01*
X120666546Y-104205145D01*
X120685842Y-104188425D01*
X120730451Y-104157189D01*
X120871401Y-104058495D01*
X121036144Y-103893752D01*
X123038501Y-103893752D01*
X123057435Y-104061806D01*
X123113295Y-104221444D01*
X123113297Y-104221447D01*
X123203268Y-104364634D01*
X123203273Y-104364640D01*
X123322859Y-104484226D01*
X123322865Y-104484231D01*
X123466052Y-104574202D01*
X123466055Y-104574204D01*
X123466059Y-104574205D01*
X123466060Y-104574206D01*
X123538663Y-104599610D01*
X123625693Y-104630064D01*
X123793747Y-104648999D01*
X123793750Y-104648999D01*
X123793753Y-104648999D01*
X123961806Y-104630064D01*
X123961809Y-104630063D01*
X124121440Y-104574206D01*
X124121442Y-104574204D01*
X124121444Y-104574204D01*
X124121447Y-104574202D01*
X124264634Y-104484231D01*
X124264635Y-104484230D01*
X124264640Y-104484227D01*
X124384227Y-104364640D01*
X124424614Y-104300363D01*
X124476947Y-104254073D01*
X124546000Y-104243424D01*
X124609849Y-104271799D01*
X124617288Y-104278655D01*
X124729109Y-104390476D01*
X124729115Y-104390481D01*
X124872302Y-104480452D01*
X124872305Y-104480454D01*
X124872309Y-104480455D01*
X124872310Y-104480456D01*
X124944913Y-104505860D01*
X125031943Y-104536314D01*
X125199997Y-104555249D01*
X125200000Y-104555249D01*
X125200003Y-104555249D01*
X125368056Y-104536314D01*
X125410389Y-104521501D01*
X125527690Y-104480456D01*
X125527692Y-104480454D01*
X125527694Y-104480454D01*
X125527697Y-104480452D01*
X125670884Y-104390481D01*
X125670885Y-104390480D01*
X125670890Y-104390477D01*
X125790477Y-104270890D01*
X125807735Y-104243424D01*
X125880452Y-104127697D01*
X125880454Y-104127694D01*
X125880454Y-104127692D01*
X125880456Y-104127690D01*
X125936313Y-103968059D01*
X125936313Y-103968058D01*
X125936314Y-103968056D01*
X125955249Y-103800002D01*
X125955249Y-103799997D01*
X125936314Y-103631943D01*
X125884429Y-103483664D01*
X125880456Y-103472310D01*
X125880455Y-103472309D01*
X125880454Y-103472305D01*
X125880452Y-103472302D01*
X125790481Y-103329115D01*
X125790476Y-103329109D01*
X125670890Y-103209523D01*
X125670884Y-103209518D01*
X125527697Y-103119547D01*
X125527694Y-103119545D01*
X125368056Y-103063685D01*
X125200003Y-103044751D01*
X125199997Y-103044751D01*
X125031943Y-103063685D01*
X124872305Y-103119545D01*
X124872302Y-103119547D01*
X124729115Y-103209518D01*
X124729109Y-103209523D01*
X124609521Y-103329111D01*
X124569135Y-103393386D01*
X124516801Y-103439676D01*
X124447747Y-103450324D01*
X124383899Y-103421949D01*
X124376461Y-103415094D01*
X124264640Y-103303273D01*
X124264634Y-103303268D01*
X124121447Y-103213297D01*
X124121444Y-103213295D01*
X123961806Y-103157435D01*
X123793753Y-103138501D01*
X123793747Y-103138501D01*
X123625693Y-103157435D01*
X123466055Y-103213295D01*
X123466052Y-103213297D01*
X123322865Y-103303268D01*
X123322859Y-103303273D01*
X123203273Y-103422859D01*
X123203268Y-103422865D01*
X123113297Y-103566052D01*
X123113295Y-103566055D01*
X123057435Y-103725693D01*
X123038501Y-103893747D01*
X123038501Y-103893752D01*
X121036144Y-103893752D01*
X121038495Y-103891401D01*
X121174035Y-103697830D01*
X121273903Y-103483663D01*
X121335063Y-103255408D01*
X121355659Y-103020000D01*
X121350410Y-102960000D01*
X133884341Y-102960000D01*
X133904936Y-103195403D01*
X133904938Y-103195413D01*
X133966094Y-103423655D01*
X133966096Y-103423659D01*
X133966097Y-103423663D01*
X133988782Y-103472310D01*
X134065965Y-103637830D01*
X134065967Y-103637834D01*
X134107977Y-103697830D01*
X134201501Y-103831396D01*
X134201506Y-103831402D01*
X134323430Y-103953326D01*
X134356915Y-104014649D01*
X134351931Y-104084341D01*
X134310059Y-104140274D01*
X134279083Y-104157189D01*
X134147669Y-104206203D01*
X134147664Y-104206206D01*
X134032455Y-104292452D01*
X134032452Y-104292455D01*
X133946206Y-104407664D01*
X133946202Y-104407671D01*
X133895908Y-104542517D01*
X133889501Y-104602116D01*
X133889501Y-104602123D01*
X133889500Y-104602135D01*
X133889500Y-106397870D01*
X133889501Y-106397876D01*
X133895908Y-106457483D01*
X133946202Y-106592328D01*
X133946206Y-106592335D01*
X134032452Y-106707544D01*
X134032455Y-106707547D01*
X134147664Y-106793793D01*
X134147671Y-106793797D01*
X134282517Y-106844091D01*
X134282516Y-106844091D01*
X134289444Y-106844835D01*
X134342127Y-106850500D01*
X136137872Y-106850499D01*
X136197483Y-106844091D01*
X136332331Y-106793796D01*
X136447546Y-106707546D01*
X136460393Y-106690384D01*
X136516324Y-106648514D01*
X136551688Y-106645983D01*
X136540722Y-106624349D01*
X136546457Y-106558385D01*
X136579592Y-106469545D01*
X136584091Y-106457483D01*
X136590500Y-106397873D01*
X136590499Y-104602128D01*
X136584091Y-104542517D01*
X136581777Y-104536314D01*
X136533797Y-104407671D01*
X136533793Y-104407664D01*
X136447547Y-104292455D01*
X136447544Y-104292452D01*
X136332335Y-104206206D01*
X136332328Y-104206202D01*
X136200917Y-104157189D01*
X136144983Y-104115318D01*
X136120566Y-104049853D01*
X136135418Y-103981580D01*
X136156563Y-103953332D01*
X136278495Y-103831401D01*
X136414035Y-103637830D01*
X136513903Y-103423663D01*
X136575063Y-103195408D01*
X136579036Y-103150001D01*
X141099500Y-103150001D01*
X141099501Y-103150018D01*
X141110000Y-103252796D01*
X141110001Y-103252799D01*
X141135289Y-103329111D01*
X141165186Y-103419334D01*
X141257288Y-103568656D01*
X141381344Y-103692712D01*
X141530666Y-103784814D01*
X141697203Y-103839999D01*
X141799991Y-103850500D01*
X143400008Y-103850499D01*
X143502797Y-103839999D01*
X143669334Y-103784814D01*
X143818656Y-103692712D01*
X143942712Y-103568656D01*
X144034814Y-103419334D01*
X144089999Y-103252797D01*
X144100500Y-103150009D01*
X144100499Y-101849992D01*
X144089999Y-101747203D01*
X144034814Y-101580666D01*
X143942712Y-101431344D01*
X143818656Y-101307288D01*
X143669334Y-101215186D01*
X143669332Y-101215185D01*
X143663440Y-101211551D01*
X143616716Y-101159603D01*
X143605493Y-101090641D01*
X143633337Y-101026558D01*
X143640856Y-101018330D01*
X143779728Y-100879458D01*
X143904620Y-100707557D01*
X144001095Y-100518217D01*
X144066757Y-100316129D01*
X144066757Y-100316126D01*
X144077231Y-100250000D01*
X143033012Y-100250000D01*
X143065925Y-100192993D01*
X143100000Y-100065826D01*
X143100000Y-99934174D01*
X143065925Y-99807007D01*
X143033012Y-99750000D01*
X144077231Y-99750000D01*
X144066757Y-99683873D01*
X144066757Y-99683870D01*
X144001095Y-99481782D01*
X143904620Y-99292442D01*
X143779727Y-99120540D01*
X143779723Y-99120535D01*
X143629464Y-98970276D01*
X143629459Y-98970272D01*
X143457557Y-98845379D01*
X143268217Y-98748904D01*
X143066129Y-98683242D01*
X142856246Y-98650000D01*
X142850000Y-98650000D01*
X142850000Y-99566988D01*
X142792993Y-99534075D01*
X142665826Y-99500000D01*
X142534174Y-99500000D01*
X142407007Y-99534075D01*
X142350000Y-99566988D01*
X142350000Y-98650000D01*
X142343754Y-98650000D01*
X142133872Y-98683242D01*
X142133869Y-98683242D01*
X141931782Y-98748904D01*
X141742442Y-98845379D01*
X141570540Y-98970272D01*
X141570535Y-98970276D01*
X141420276Y-99120535D01*
X141420272Y-99120540D01*
X141295379Y-99292442D01*
X141198904Y-99481782D01*
X141133242Y-99683870D01*
X141133242Y-99683873D01*
X141122769Y-99750000D01*
X142166988Y-99750000D01*
X142134075Y-99807007D01*
X142100000Y-99934174D01*
X142100000Y-100065826D01*
X142134075Y-100192993D01*
X142166988Y-100250000D01*
X141122769Y-100250000D01*
X141133242Y-100316126D01*
X141133242Y-100316129D01*
X141198904Y-100518217D01*
X141295379Y-100707557D01*
X141420272Y-100879459D01*
X141420276Y-100879464D01*
X141559143Y-101018331D01*
X141592628Y-101079654D01*
X141587644Y-101149346D01*
X141545772Y-101205279D01*
X141536559Y-101211551D01*
X141381342Y-101307289D01*
X141257289Y-101431342D01*
X141165187Y-101580663D01*
X141165186Y-101580666D01*
X141110001Y-101747203D01*
X141110001Y-101747204D01*
X141110000Y-101747204D01*
X141099500Y-101849983D01*
X141099500Y-103150001D01*
X136579036Y-103150001D01*
X136595659Y-102960000D01*
X136575063Y-102724592D01*
X136513903Y-102496337D01*
X136414035Y-102282171D01*
X136351593Y-102192993D01*
X136278494Y-102088597D01*
X136111402Y-101921506D01*
X136111396Y-101921501D01*
X135925842Y-101791575D01*
X135882217Y-101736998D01*
X135875023Y-101667500D01*
X135906546Y-101605145D01*
X135925842Y-101588425D01*
X136025715Y-101518493D01*
X136111401Y-101458495D01*
X136278495Y-101291401D01*
X136414035Y-101097830D01*
X136513903Y-100883663D01*
X136575063Y-100655408D01*
X136595659Y-100420000D01*
X136575063Y-100184592D01*
X136528626Y-100011285D01*
X136513905Y-99956344D01*
X136513904Y-99956343D01*
X136513903Y-99956337D01*
X136414035Y-99742171D01*
X136379601Y-99692993D01*
X136278494Y-99548597D01*
X136111402Y-99381506D01*
X136111396Y-99381501D01*
X135925842Y-99251575D01*
X135882217Y-99196998D01*
X135875023Y-99127500D01*
X135906546Y-99065145D01*
X135925842Y-99048425D01*
X136037450Y-98970276D01*
X136111401Y-98918495D01*
X136278495Y-98751401D01*
X136414035Y-98557830D01*
X136513903Y-98343663D01*
X136575063Y-98115408D01*
X136595659Y-97880000D01*
X136575063Y-97644592D01*
X136513903Y-97416337D01*
X136414035Y-97202171D01*
X136320508Y-97068599D01*
X136278494Y-97008597D01*
X136111402Y-96841506D01*
X136111396Y-96841501D01*
X135925842Y-96711575D01*
X135882217Y-96656998D01*
X135875023Y-96587500D01*
X135906546Y-96525145D01*
X135925842Y-96508425D01*
X136025715Y-96438493D01*
X136111401Y-96378495D01*
X136278495Y-96211401D01*
X136414035Y-96017830D01*
X136513903Y-95803663D01*
X136575063Y-95575408D01*
X136595659Y-95340000D01*
X136575063Y-95104592D01*
X136513903Y-94876337D01*
X136414035Y-94662171D01*
X136392870Y-94631943D01*
X136278494Y-94468597D01*
X136111402Y-94301506D01*
X136111396Y-94301501D01*
X135925842Y-94171575D01*
X135908597Y-94150001D01*
X141099500Y-94150001D01*
X141099501Y-94150018D01*
X141110000Y-94252796D01*
X141110001Y-94252799D01*
X141165185Y-94419331D01*
X141165187Y-94419336D01*
X141165316Y-94419545D01*
X141257288Y-94568656D01*
X141381344Y-94692712D01*
X141530666Y-94784814D01*
X141697203Y-94839999D01*
X141799991Y-94850500D01*
X143400008Y-94850499D01*
X143502797Y-94839999D01*
X143669334Y-94784814D01*
X143818656Y-94692712D01*
X143942712Y-94568656D01*
X144034814Y-94419334D01*
X144089999Y-94252797D01*
X144100500Y-94150009D01*
X144100499Y-92849992D01*
X144089999Y-92747203D01*
X144034814Y-92580666D01*
X143942712Y-92431344D01*
X143818656Y-92307288D01*
X143669334Y-92215186D01*
X143669332Y-92215185D01*
X143663440Y-92211551D01*
X143616716Y-92159603D01*
X143605493Y-92090641D01*
X143633337Y-92026558D01*
X143640856Y-92018330D01*
X143779728Y-91879458D01*
X143904620Y-91707557D01*
X144001095Y-91518217D01*
X144066757Y-91316129D01*
X144066757Y-91316126D01*
X144077231Y-91250000D01*
X143033012Y-91250000D01*
X143065925Y-91192993D01*
X143100000Y-91065826D01*
X143100000Y-90934174D01*
X143065925Y-90807007D01*
X143033012Y-90750000D01*
X144077231Y-90750000D01*
X144066757Y-90683873D01*
X144066757Y-90683870D01*
X144001095Y-90481782D01*
X143904620Y-90292442D01*
X143779727Y-90120540D01*
X143779723Y-90120535D01*
X143629464Y-89970276D01*
X143629459Y-89970272D01*
X143457557Y-89845379D01*
X143268217Y-89748904D01*
X143066129Y-89683242D01*
X142856246Y-89650000D01*
X142850000Y-89650000D01*
X142850000Y-90566988D01*
X142792993Y-90534075D01*
X142665826Y-90500000D01*
X142534174Y-90500000D01*
X142407007Y-90534075D01*
X142350000Y-90566988D01*
X142350000Y-89650000D01*
X142343754Y-89650000D01*
X142133872Y-89683242D01*
X142133869Y-89683242D01*
X141931782Y-89748904D01*
X141742442Y-89845379D01*
X141570540Y-89970272D01*
X141570535Y-89970276D01*
X141420276Y-90120535D01*
X141420272Y-90120540D01*
X141295379Y-90292442D01*
X141198904Y-90481782D01*
X141133242Y-90683870D01*
X141133242Y-90683873D01*
X141122769Y-90750000D01*
X142166988Y-90750000D01*
X142134075Y-90807007D01*
X142100000Y-90934174D01*
X142100000Y-91065826D01*
X142134075Y-91192993D01*
X142166988Y-91250000D01*
X141122769Y-91250000D01*
X141133242Y-91316126D01*
X141133242Y-91316129D01*
X141198904Y-91518217D01*
X141295379Y-91707557D01*
X141420272Y-91879459D01*
X141420276Y-91879464D01*
X141559143Y-92018331D01*
X141592628Y-92079654D01*
X141587644Y-92149346D01*
X141545772Y-92205279D01*
X141536559Y-92211551D01*
X141381342Y-92307289D01*
X141257289Y-92431342D01*
X141165187Y-92580663D01*
X141165186Y-92580666D01*
X141110001Y-92747203D01*
X141110001Y-92747204D01*
X141110000Y-92747204D01*
X141099500Y-92849983D01*
X141099500Y-94150001D01*
X135908597Y-94150001D01*
X135882217Y-94116998D01*
X135875023Y-94047500D01*
X135906546Y-93985145D01*
X135925842Y-93968425D01*
X136025715Y-93898493D01*
X136111401Y-93838495D01*
X136278495Y-93671401D01*
X136414035Y-93477830D01*
X136513903Y-93263663D01*
X136575063Y-93035408D01*
X136595659Y-92800000D01*
X136575063Y-92564592D01*
X136513903Y-92336337D01*
X136414035Y-92122171D01*
X136384265Y-92079654D01*
X136278494Y-91928597D01*
X136111402Y-91761506D01*
X136111396Y-91761501D01*
X135925842Y-91631575D01*
X135882217Y-91576998D01*
X135875023Y-91507500D01*
X135906546Y-91445145D01*
X135925842Y-91428425D01*
X136025715Y-91358493D01*
X136111401Y-91298495D01*
X136278495Y-91131401D01*
X136414035Y-90937830D01*
X136513903Y-90723663D01*
X136575063Y-90495408D01*
X136595659Y-90260000D01*
X136594539Y-90247204D01*
X136591539Y-90212918D01*
X136575063Y-90024592D01*
X136513903Y-89796337D01*
X136414035Y-89582171D01*
X136320508Y-89448599D01*
X136278494Y-89388597D01*
X136111402Y-89221506D01*
X136111396Y-89221501D01*
X135925842Y-89091575D01*
X135882217Y-89036998D01*
X135875023Y-88967500D01*
X135906546Y-88905145D01*
X135925842Y-88888425D01*
X136025715Y-88818493D01*
X136111401Y-88758495D01*
X136278495Y-88591401D01*
X136414035Y-88397830D01*
X136513903Y-88183663D01*
X136575063Y-87955408D01*
X136595659Y-87720000D01*
X136575063Y-87484592D01*
X136513903Y-87256337D01*
X136414035Y-87042171D01*
X136391172Y-87009518D01*
X136278494Y-86848597D01*
X136111402Y-86681506D01*
X136111396Y-86681501D01*
X135925842Y-86551575D01*
X135882217Y-86496998D01*
X135875023Y-86427500D01*
X135906546Y-86365145D01*
X135925842Y-86348425D01*
X136025715Y-86278493D01*
X136111401Y-86218495D01*
X136278495Y-86051401D01*
X136414035Y-85857830D01*
X136513903Y-85643663D01*
X136575063Y-85415408D01*
X136583498Y-85319001D01*
X141124500Y-85319001D01*
X141124501Y-85319018D01*
X141135000Y-85421796D01*
X141135001Y-85421799D01*
X141170091Y-85527692D01*
X141190186Y-85588334D01*
X141282288Y-85737656D01*
X141406344Y-85861712D01*
X141555666Y-85953814D01*
X141722203Y-86008999D01*
X141824991Y-86019500D01*
X143375008Y-86019499D01*
X143477797Y-86008999D01*
X143644334Y-85953814D01*
X143793656Y-85861712D01*
X143917712Y-85737656D01*
X144009814Y-85588334D01*
X144064999Y-85421797D01*
X144075500Y-85319009D01*
X144075499Y-84018992D01*
X144064999Y-83916203D01*
X144009814Y-83749666D01*
X143917712Y-83600344D01*
X143793656Y-83476288D01*
X143644334Y-83384186D01*
X143644333Y-83384185D01*
X143638878Y-83380821D01*
X143592154Y-83328873D01*
X143580931Y-83259910D01*
X143608775Y-83195828D01*
X143616272Y-83187623D01*
X143755104Y-83048792D01*
X143801377Y-82985103D01*
X143880048Y-82876820D01*
X143880047Y-82876820D01*
X143880051Y-82876816D01*
X143976557Y-82687412D01*
X144042246Y-82485243D01*
X144075500Y-82275287D01*
X144075500Y-82062713D01*
X144042246Y-81852757D01*
X143976557Y-81650588D01*
X143880051Y-81461184D01*
X143880049Y-81461181D01*
X143880048Y-81461179D01*
X143755109Y-81289213D01*
X143604792Y-81138896D01*
X143604237Y-81138493D01*
X143440204Y-81019316D01*
X143397540Y-80963989D01*
X143391561Y-80894376D01*
X143424166Y-80832580D01*
X143440199Y-80818686D01*
X143604792Y-80699104D01*
X143755104Y-80548792D01*
X143755106Y-80548788D01*
X143755109Y-80548786D01*
X143880048Y-80376820D01*
X143880047Y-80376820D01*
X143880051Y-80376816D01*
X143976557Y-80187412D01*
X144042246Y-79985243D01*
X144075500Y-79775287D01*
X144075500Y-79562713D01*
X144042246Y-79352757D01*
X143976557Y-79150588D01*
X143880051Y-78961184D01*
X143880049Y-78961181D01*
X143880048Y-78961179D01*
X143755109Y-78789213D01*
X143604790Y-78638894D01*
X143604785Y-78638890D01*
X143439781Y-78519008D01*
X143397115Y-78463678D01*
X143391136Y-78394065D01*
X143423741Y-78332270D01*
X143439781Y-78318371D01*
X143604466Y-78198721D01*
X143754723Y-78048464D01*
X143754727Y-78048459D01*
X143879620Y-77876557D01*
X143976095Y-77687217D01*
X144041757Y-77485129D01*
X144041757Y-77485126D01*
X144052231Y-77419000D01*
X143004146Y-77419000D01*
X143042630Y-77352343D01*
X143075000Y-77231535D01*
X143075000Y-77106465D01*
X143042630Y-76985657D01*
X143004146Y-76919000D01*
X144052231Y-76919000D01*
X144041757Y-76852873D01*
X144041757Y-76852870D01*
X143976095Y-76650782D01*
X143879620Y-76461442D01*
X143754727Y-76289540D01*
X143754723Y-76289535D01*
X143604464Y-76139276D01*
X143604459Y-76139272D01*
X143432557Y-76014379D01*
X143243217Y-75917904D01*
X143041128Y-75852242D01*
X142850000Y-75821969D01*
X142850000Y-76764854D01*
X142783343Y-76726370D01*
X142662535Y-76694000D01*
X142537465Y-76694000D01*
X142416657Y-76726370D01*
X142350000Y-76764854D01*
X142350000Y-75821969D01*
X142158872Y-75852242D01*
X142158869Y-75852242D01*
X141956782Y-75917904D01*
X141767442Y-76014379D01*
X141595540Y-76139272D01*
X141595535Y-76139276D01*
X141445276Y-76289535D01*
X141445272Y-76289540D01*
X141320379Y-76461442D01*
X141223904Y-76650782D01*
X141158242Y-76852870D01*
X141158242Y-76852873D01*
X141147769Y-76919000D01*
X142195854Y-76919000D01*
X142157370Y-76985657D01*
X142125000Y-77106465D01*
X142125000Y-77231535D01*
X142157370Y-77352343D01*
X142195854Y-77419000D01*
X141147769Y-77419000D01*
X141158242Y-77485126D01*
X141158242Y-77485129D01*
X141223904Y-77687217D01*
X141320379Y-77876557D01*
X141445272Y-78048459D01*
X141445276Y-78048464D01*
X141595535Y-78198723D01*
X141595540Y-78198727D01*
X141760218Y-78318372D01*
X141802884Y-78373701D01*
X141808863Y-78443315D01*
X141776258Y-78505110D01*
X141760218Y-78519008D01*
X141595214Y-78638890D01*
X141595209Y-78638894D01*
X141444890Y-78789213D01*
X141319951Y-78961179D01*
X141223444Y-79150585D01*
X141157753Y-79352760D01*
X141124500Y-79562713D01*
X141124500Y-79775286D01*
X141155796Y-79972884D01*
X141157754Y-79985243D01*
X141221831Y-80182452D01*
X141223444Y-80187414D01*
X141319951Y-80376820D01*
X141444890Y-80548786D01*
X141595209Y-80699105D01*
X141595214Y-80699109D01*
X141759793Y-80818682D01*
X141802459Y-80874011D01*
X141808438Y-80943625D01*
X141775833Y-81005420D01*
X141759793Y-81019318D01*
X141595214Y-81138890D01*
X141595209Y-81138894D01*
X141444890Y-81289213D01*
X141319951Y-81461179D01*
X141223444Y-81650585D01*
X141157753Y-81852760D01*
X141124500Y-82062713D01*
X141124500Y-82275286D01*
X141154483Y-82464596D01*
X141157754Y-82485243D01*
X141215451Y-82662816D01*
X141223444Y-82687414D01*
X141319951Y-82876820D01*
X141444890Y-83048786D01*
X141583705Y-83187601D01*
X141617190Y-83248924D01*
X141612206Y-83318616D01*
X141570334Y-83374549D01*
X141561121Y-83380821D01*
X141406342Y-83476289D01*
X141282289Y-83600342D01*
X141190187Y-83749663D01*
X141190186Y-83749666D01*
X141135001Y-83916203D01*
X141135001Y-83916204D01*
X141135000Y-83916204D01*
X141124500Y-84018983D01*
X141124500Y-85319001D01*
X136583498Y-85319001D01*
X136595659Y-85180000D01*
X136594861Y-85170884D01*
X136582334Y-85027697D01*
X136575063Y-84944592D01*
X136517327Y-84729115D01*
X136513905Y-84716344D01*
X136513904Y-84716343D01*
X136513903Y-84716337D01*
X136414035Y-84502171D01*
X136387089Y-84463687D01*
X136278494Y-84308597D01*
X136111402Y-84141506D01*
X136111396Y-84141501D01*
X135925842Y-84011575D01*
X135882217Y-83956998D01*
X135875023Y-83887500D01*
X135906546Y-83825145D01*
X135925842Y-83808425D01*
X135948026Y-83792891D01*
X136111401Y-83678495D01*
X136278495Y-83511401D01*
X136414035Y-83317830D01*
X136513903Y-83103663D01*
X136575063Y-82875408D01*
X136595659Y-82640000D01*
X136575063Y-82404592D01*
X136518199Y-82192369D01*
X136513905Y-82176344D01*
X136513904Y-82176343D01*
X136513903Y-82176337D01*
X136414035Y-81962171D01*
X136390287Y-81928254D01*
X136278494Y-81768597D01*
X136111402Y-81601506D01*
X136111396Y-81601501D01*
X135925842Y-81471575D01*
X135882217Y-81416998D01*
X135881182Y-81407003D01*
X137497435Y-81407003D01*
X137517630Y-81586249D01*
X137517631Y-81586254D01*
X137577211Y-81756523D01*
X137637681Y-81852760D01*
X137673184Y-81909262D01*
X137800738Y-82036816D01*
X137953478Y-82132789D01*
X138123745Y-82192368D01*
X138123750Y-82192369D01*
X138302996Y-82212565D01*
X138303000Y-82212565D01*
X138303004Y-82212565D01*
X138482249Y-82192369D01*
X138482252Y-82192368D01*
X138482255Y-82192368D01*
X138652522Y-82132789D01*
X138805262Y-82036816D01*
X138932816Y-81909262D01*
X139028789Y-81756522D01*
X139088368Y-81586255D01*
X139090228Y-81569750D01*
X139108565Y-81407003D01*
X139108565Y-81406996D01*
X139088369Y-81227750D01*
X139088368Y-81227745D01*
X139050381Y-81119184D01*
X139028789Y-81057478D01*
X139004811Y-81019318D01*
X138970046Y-80963989D01*
X138932816Y-80904738D01*
X138805262Y-80777184D01*
X138783782Y-80763687D01*
X138652523Y-80681211D01*
X138482254Y-80621631D01*
X138482249Y-80621630D01*
X138303004Y-80601435D01*
X138302996Y-80601435D01*
X138123750Y-80621630D01*
X138123745Y-80621631D01*
X137953476Y-80681211D01*
X137800737Y-80777184D01*
X137673184Y-80904737D01*
X137577211Y-81057476D01*
X137517631Y-81227745D01*
X137517630Y-81227750D01*
X137497435Y-81406996D01*
X137497435Y-81407003D01*
X135881182Y-81407003D01*
X135875023Y-81347500D01*
X135906546Y-81285145D01*
X135925842Y-81268425D01*
X136063115Y-81172305D01*
X136111401Y-81138495D01*
X136278495Y-80971401D01*
X136414035Y-80777830D01*
X136513903Y-80563663D01*
X136575063Y-80335408D01*
X136595659Y-80100000D01*
X136575063Y-79864592D01*
X136513903Y-79636337D01*
X136414035Y-79422171D01*
X136365434Y-79352760D01*
X136278494Y-79228597D01*
X136111402Y-79061506D01*
X136111396Y-79061501D01*
X135925842Y-78931575D01*
X135882217Y-78876998D01*
X135875023Y-78807500D01*
X135906546Y-78745145D01*
X135925842Y-78728425D01*
X136001325Y-78675571D01*
X136111401Y-78598495D01*
X136278495Y-78431401D01*
X136414035Y-78237830D01*
X136513903Y-78023663D01*
X136575063Y-77795408D01*
X136595659Y-77560000D01*
X136575063Y-77324592D01*
X136513903Y-77096337D01*
X136414035Y-76882171D01*
X136411510Y-76878564D01*
X136278494Y-76688597D01*
X136111402Y-76521506D01*
X136111396Y-76521501D01*
X135925842Y-76391575D01*
X135882217Y-76336998D01*
X135875023Y-76267500D01*
X135906546Y-76205145D01*
X135925842Y-76188425D01*
X135996034Y-76139276D01*
X136111401Y-76058495D01*
X136278495Y-75891401D01*
X136414035Y-75697830D01*
X136513903Y-75483663D01*
X136575063Y-75255408D01*
X136595659Y-75020000D01*
X136575063Y-74784592D01*
X136515609Y-74562704D01*
X136513905Y-74556344D01*
X136513904Y-74556343D01*
X136513903Y-74556337D01*
X136414035Y-74342171D01*
X136321452Y-74209947D01*
X136278494Y-74148597D01*
X136111402Y-73981506D01*
X136111401Y-73981505D01*
X135925405Y-73851269D01*
X135881781Y-73796692D01*
X135874588Y-73727193D01*
X135906110Y-73664839D01*
X135925405Y-73648119D01*
X136111082Y-73518105D01*
X136278105Y-73351082D01*
X136413600Y-73157578D01*
X136513429Y-72943492D01*
X136513432Y-72943486D01*
X136570636Y-72730000D01*
X135673012Y-72730000D01*
X135705925Y-72672993D01*
X135740000Y-72545826D01*
X135740000Y-72414174D01*
X135705925Y-72287007D01*
X135673012Y-72230000D01*
X136570636Y-72230000D01*
X136570635Y-72229999D01*
X136513432Y-72016513D01*
X136513429Y-72016507D01*
X136413600Y-71802422D01*
X136413599Y-71802420D01*
X136278113Y-71608926D01*
X136278108Y-71608920D01*
X136111078Y-71441890D01*
X135925405Y-71311879D01*
X135881780Y-71257302D01*
X135874588Y-71187804D01*
X135906110Y-71125449D01*
X135925406Y-71108730D01*
X136111401Y-70978495D01*
X136278495Y-70811401D01*
X136414035Y-70617830D01*
X136513903Y-70403663D01*
X136575063Y-70175408D01*
X136595659Y-69940000D01*
X136575063Y-69704592D01*
X136513903Y-69476337D01*
X136414035Y-69262171D01*
X136376562Y-69208653D01*
X136278494Y-69068597D01*
X136111402Y-68901506D01*
X136111395Y-68901501D01*
X135917834Y-68765967D01*
X135917830Y-68765965D01*
X135917828Y-68765964D01*
X135703663Y-68666097D01*
X135703659Y-68666096D01*
X135703655Y-68666094D01*
X135475413Y-68604938D01*
X135475403Y-68604936D01*
X135240001Y-68584341D01*
X135239999Y-68584341D01*
X135004596Y-68604936D01*
X135004586Y-68604938D01*
X134776344Y-68666094D01*
X134776335Y-68666098D01*
X134562171Y-68765964D01*
X134562169Y-68765965D01*
X134368597Y-68901505D01*
X134201505Y-69068597D01*
X134065965Y-69262169D01*
X134065964Y-69262171D01*
X133966098Y-69476335D01*
X133966094Y-69476344D01*
X133904938Y-69704586D01*
X133904936Y-69704596D01*
X133884341Y-69939999D01*
X133884341Y-69940000D01*
X133904936Y-70175403D01*
X133904938Y-70175413D01*
X133966094Y-70403655D01*
X133966096Y-70403659D01*
X133966097Y-70403663D01*
X134034798Y-70550993D01*
X134065965Y-70617830D01*
X134065967Y-70617834D01*
X134174281Y-70772521D01*
X134201505Y-70811401D01*
X134368599Y-70978495D01*
X134512053Y-71078943D01*
X134554594Y-71108730D01*
X134598219Y-71163307D01*
X134605413Y-71232805D01*
X134573890Y-71295160D01*
X134554595Y-71311880D01*
X134368922Y-71441890D01*
X134368920Y-71441891D01*
X134201891Y-71608920D01*
X134201886Y-71608926D01*
X134066400Y-71802420D01*
X134066399Y-71802422D01*
X133966570Y-72016507D01*
X133966567Y-72016513D01*
X133909364Y-72229999D01*
X133909364Y-72230000D01*
X134806988Y-72230000D01*
X134774075Y-72287007D01*
X134740000Y-72414174D01*
X134740000Y-72545826D01*
X134774075Y-72672993D01*
X134806988Y-72730000D01*
X133909364Y-72730000D01*
X133966567Y-72943486D01*
X133966570Y-72943492D01*
X134066399Y-73157578D01*
X134201894Y-73351082D01*
X134368917Y-73518105D01*
X134554595Y-73648119D01*
X134598219Y-73702696D01*
X134605412Y-73772195D01*
X134573890Y-73834549D01*
X134554595Y-73851269D01*
X134368594Y-73981508D01*
X134201505Y-74148597D01*
X134065965Y-74342169D01*
X134065964Y-74342171D01*
X133966098Y-74556335D01*
X133966094Y-74556344D01*
X133904938Y-74784586D01*
X133904936Y-74784596D01*
X133884341Y-75019999D01*
X133884341Y-75020000D01*
X133904936Y-75255403D01*
X133904938Y-75255413D01*
X133966094Y-75483655D01*
X133966096Y-75483659D01*
X133966097Y-75483663D01*
X134022445Y-75604501D01*
X134065965Y-75697830D01*
X134065967Y-75697834D01*
X134201501Y-75891395D01*
X134201506Y-75891402D01*
X134368597Y-76058493D01*
X134368603Y-76058498D01*
X134554158Y-76188425D01*
X134597783Y-76243002D01*
X134604977Y-76312500D01*
X134573454Y-76374855D01*
X134554158Y-76391575D01*
X134368597Y-76521505D01*
X134201505Y-76688597D01*
X134065965Y-76882169D01*
X134065964Y-76882171D01*
X133966098Y-77096335D01*
X133966094Y-77096344D01*
X133904938Y-77324586D01*
X133904936Y-77324596D01*
X133884341Y-77559999D01*
X133884341Y-77560000D01*
X133904936Y-77795403D01*
X133904938Y-77795413D01*
X133966094Y-78023655D01*
X133966095Y-78023657D01*
X133966097Y-78023663D01*
X134011020Y-78120000D01*
X134065965Y-78237830D01*
X134065967Y-78237834D01*
X134154372Y-78364088D01*
X134199243Y-78428171D01*
X134201501Y-78431395D01*
X134201506Y-78431402D01*
X134368597Y-78598493D01*
X134368603Y-78598498D01*
X134554158Y-78728425D01*
X134597783Y-78783002D01*
X134604977Y-78852500D01*
X134573454Y-78914855D01*
X134554158Y-78931575D01*
X134368597Y-79061505D01*
X134201505Y-79228597D01*
X134065965Y-79422169D01*
X134065964Y-79422171D01*
X133966098Y-79636335D01*
X133966094Y-79636344D01*
X133904938Y-79864586D01*
X133904936Y-79864596D01*
X133884341Y-80099999D01*
X133884341Y-80100000D01*
X133904936Y-80335403D01*
X133904938Y-80335413D01*
X133966094Y-80563655D01*
X133966096Y-80563659D01*
X133966097Y-80563663D01*
X134059369Y-80763685D01*
X134065965Y-80777830D01*
X134065967Y-80777834D01*
X134164813Y-80919000D01*
X134196064Y-80963631D01*
X134201501Y-80971395D01*
X134201506Y-80971402D01*
X134368597Y-81138493D01*
X134368603Y-81138498D01*
X134554158Y-81268425D01*
X134597783Y-81323002D01*
X134604977Y-81392500D01*
X134573454Y-81454855D01*
X134554158Y-81471575D01*
X134368597Y-81601505D01*
X134201505Y-81768597D01*
X134065965Y-81962169D01*
X134065964Y-81962171D01*
X133966098Y-82176335D01*
X133966094Y-82176344D01*
X133904938Y-82404586D01*
X133904936Y-82404596D01*
X133884341Y-82639999D01*
X133884341Y-82640000D01*
X133904936Y-82875403D01*
X133904938Y-82875413D01*
X133966094Y-83103655D01*
X133966096Y-83103659D01*
X133966097Y-83103663D01*
X134044709Y-83272246D01*
X134065965Y-83317830D01*
X134065967Y-83317834D01*
X134201501Y-83511395D01*
X134201506Y-83511402D01*
X134368597Y-83678493D01*
X134368603Y-83678498D01*
X134554158Y-83808425D01*
X134597783Y-83863002D01*
X134604977Y-83932500D01*
X134573454Y-83994855D01*
X134554158Y-84011575D01*
X134368597Y-84141505D01*
X134201505Y-84308597D01*
X134065965Y-84502169D01*
X134065964Y-84502171D01*
X133966098Y-84716335D01*
X133966094Y-84716344D01*
X133904938Y-84944586D01*
X133904936Y-84944596D01*
X133884341Y-85179999D01*
X133884341Y-85180000D01*
X133904936Y-85415403D01*
X133904938Y-85415413D01*
X133966094Y-85643655D01*
X133966096Y-85643659D01*
X133966097Y-85643663D01*
X134065965Y-85857830D01*
X134065967Y-85857834D01*
X134171814Y-86008998D01*
X134200189Y-86049522D01*
X134201501Y-86051395D01*
X134201506Y-86051402D01*
X134368597Y-86218493D01*
X134368603Y-86218498D01*
X134554158Y-86348425D01*
X134597783Y-86403002D01*
X134604977Y-86472500D01*
X134573454Y-86534855D01*
X134554158Y-86551575D01*
X134368597Y-86681505D01*
X134201505Y-86848597D01*
X134065965Y-87042169D01*
X134065964Y-87042171D01*
X133966098Y-87256335D01*
X133966094Y-87256344D01*
X133904938Y-87484586D01*
X133904936Y-87484596D01*
X133884341Y-87719999D01*
X133884341Y-87720000D01*
X133904936Y-87955403D01*
X133904938Y-87955413D01*
X133966094Y-88183655D01*
X133966096Y-88183659D01*
X133966097Y-88183663D01*
X134037279Y-88336313D01*
X134065965Y-88397830D01*
X134065967Y-88397834D01*
X134201501Y-88591395D01*
X134201506Y-88591402D01*
X134368597Y-88758493D01*
X134368603Y-88758498D01*
X134554158Y-88888425D01*
X134597783Y-88943002D01*
X134604977Y-89012500D01*
X134573454Y-89074855D01*
X134554158Y-89091575D01*
X134368597Y-89221505D01*
X134201505Y-89388597D01*
X134065965Y-89582169D01*
X134065964Y-89582171D01*
X133966098Y-89796335D01*
X133966094Y-89796344D01*
X133904938Y-90024586D01*
X133904936Y-90024596D01*
X133884341Y-90259999D01*
X133884341Y-90260000D01*
X133904936Y-90495403D01*
X133904938Y-90495413D01*
X133966094Y-90723655D01*
X133966096Y-90723659D01*
X133966097Y-90723663D01*
X133994072Y-90783655D01*
X134065965Y-90937830D01*
X134065967Y-90937834D01*
X134201501Y-91131395D01*
X134201506Y-91131402D01*
X134368597Y-91298493D01*
X134368603Y-91298498D01*
X134554158Y-91428425D01*
X134597783Y-91483002D01*
X134604977Y-91552500D01*
X134573454Y-91614855D01*
X134554158Y-91631575D01*
X134368597Y-91761505D01*
X134201505Y-91928597D01*
X134065965Y-92122169D01*
X134065964Y-92122171D01*
X133966098Y-92336335D01*
X133966094Y-92336344D01*
X133904938Y-92564586D01*
X133904936Y-92564596D01*
X133884341Y-92799999D01*
X133884341Y-92800000D01*
X133904936Y-93035403D01*
X133904938Y-93035413D01*
X133966094Y-93263655D01*
X133966096Y-93263659D01*
X133966097Y-93263663D01*
X133986309Y-93307007D01*
X134065965Y-93477830D01*
X134065967Y-93477834D01*
X134201501Y-93671395D01*
X134201506Y-93671402D01*
X134368597Y-93838493D01*
X134368603Y-93838498D01*
X134554158Y-93968425D01*
X134597783Y-94023002D01*
X134604977Y-94092500D01*
X134573454Y-94154855D01*
X134554158Y-94171575D01*
X134368597Y-94301505D01*
X134201505Y-94468597D01*
X134065965Y-94662169D01*
X134065964Y-94662171D01*
X133966098Y-94876335D01*
X133966094Y-94876344D01*
X133904938Y-95104586D01*
X133904936Y-95104596D01*
X133884341Y-95339999D01*
X133884341Y-95340000D01*
X133904936Y-95575403D01*
X133904938Y-95575413D01*
X133966094Y-95803655D01*
X133966096Y-95803659D01*
X133966097Y-95803663D01*
X133990152Y-95855249D01*
X134065965Y-96017830D01*
X134065967Y-96017834D01*
X134201501Y-96211395D01*
X134201506Y-96211402D01*
X134368597Y-96378493D01*
X134368603Y-96378498D01*
X134554158Y-96508425D01*
X134597783Y-96563002D01*
X134604977Y-96632500D01*
X134573454Y-96694855D01*
X134554158Y-96711575D01*
X134368597Y-96841505D01*
X134201505Y-97008597D01*
X134065965Y-97202169D01*
X134065964Y-97202171D01*
X133966098Y-97416335D01*
X133966094Y-97416344D01*
X133904938Y-97644586D01*
X133904936Y-97644596D01*
X133884341Y-97879999D01*
X133884341Y-97880000D01*
X133904936Y-98115403D01*
X133904938Y-98115413D01*
X133966094Y-98343655D01*
X133966096Y-98343659D01*
X133966097Y-98343663D01*
X133994072Y-98403655D01*
X134065965Y-98557830D01*
X134065967Y-98557834D01*
X134201501Y-98751395D01*
X134201506Y-98751402D01*
X134368597Y-98918493D01*
X134368603Y-98918498D01*
X134554158Y-99048425D01*
X134597783Y-99103002D01*
X134604977Y-99172500D01*
X134573454Y-99234855D01*
X134554158Y-99251575D01*
X134368597Y-99381505D01*
X134201505Y-99548597D01*
X134065965Y-99742169D01*
X134065964Y-99742171D01*
X133966098Y-99956335D01*
X133966094Y-99956344D01*
X133904938Y-100184586D01*
X133904936Y-100184596D01*
X133884341Y-100419999D01*
X133884341Y-100420000D01*
X133904936Y-100655403D01*
X133904938Y-100655413D01*
X133966094Y-100883655D01*
X133966096Y-100883659D01*
X133966097Y-100883663D01*
X134028894Y-101018331D01*
X134065965Y-101097830D01*
X134065967Y-101097834D01*
X134201501Y-101291395D01*
X134201506Y-101291402D01*
X134368597Y-101458493D01*
X134368603Y-101458498D01*
X134554158Y-101588425D01*
X134597783Y-101643002D01*
X134604977Y-101712500D01*
X134573454Y-101774855D01*
X134554158Y-101791575D01*
X134368597Y-101921505D01*
X134201505Y-102088597D01*
X134065965Y-102282169D01*
X134065964Y-102282171D01*
X133966098Y-102496335D01*
X133966094Y-102496344D01*
X133904938Y-102724586D01*
X133904936Y-102724596D01*
X133884341Y-102959999D01*
X133884341Y-102960000D01*
X121350410Y-102960000D01*
X121335063Y-102784592D01*
X121273903Y-102556337D01*
X121174035Y-102342171D01*
X121132022Y-102282169D01*
X121038494Y-102148597D01*
X120871402Y-101981506D01*
X120871396Y-101981501D01*
X120685842Y-101851575D01*
X120642217Y-101796998D01*
X120635023Y-101727500D01*
X120666546Y-101665145D01*
X120685842Y-101648425D01*
X120763519Y-101594035D01*
X120871401Y-101518495D01*
X121038495Y-101351401D01*
X121174035Y-101157830D01*
X121273903Y-100943663D01*
X121335063Y-100715408D01*
X121355659Y-100480000D01*
X121335063Y-100244592D01*
X121273903Y-100016337D01*
X121174035Y-99802171D01*
X121132022Y-99742169D01*
X121038494Y-99608597D01*
X121029899Y-99600002D01*
X125044751Y-99600002D01*
X125063685Y-99768056D01*
X125119545Y-99927694D01*
X125119547Y-99927697D01*
X125209518Y-100070884D01*
X125209523Y-100070890D01*
X125329109Y-100190476D01*
X125329115Y-100190481D01*
X125472302Y-100280452D01*
X125472305Y-100280454D01*
X125472309Y-100280455D01*
X125472310Y-100280456D01*
X125544913Y-100305860D01*
X125631943Y-100336314D01*
X125799997Y-100355249D01*
X125800000Y-100355249D01*
X125800003Y-100355249D01*
X125968056Y-100336314D01*
X125968059Y-100336313D01*
X126127690Y-100280456D01*
X126127692Y-100280454D01*
X126127694Y-100280454D01*
X126127697Y-100280452D01*
X126270884Y-100190481D01*
X126270885Y-100190480D01*
X126270890Y-100190477D01*
X126390477Y-100070890D01*
X126424755Y-100016337D01*
X126480452Y-99927697D01*
X126480454Y-99927694D01*
X126480454Y-99927692D01*
X126480456Y-99927690D01*
X126536313Y-99768059D01*
X126536313Y-99768058D01*
X126536314Y-99768056D01*
X126555249Y-99600002D01*
X126555249Y-99599997D01*
X126543982Y-99500002D01*
X128044751Y-99500002D01*
X128063685Y-99668056D01*
X128119545Y-99827694D01*
X128119547Y-99827697D01*
X128209518Y-99970884D01*
X128209523Y-99970890D01*
X128329109Y-100090476D01*
X128329115Y-100090481D01*
X128472302Y-100180452D01*
X128472305Y-100180454D01*
X128472309Y-100180455D01*
X128472310Y-100180456D01*
X128484142Y-100184596D01*
X128631943Y-100236314D01*
X128799997Y-100255249D01*
X128800000Y-100255249D01*
X128800003Y-100255249D01*
X128968056Y-100236314D01*
X128968059Y-100236313D01*
X129127690Y-100180456D01*
X129127692Y-100180454D01*
X129127694Y-100180454D01*
X129127697Y-100180452D01*
X129270884Y-100090481D01*
X129270885Y-100090480D01*
X129270890Y-100090477D01*
X129390477Y-99970890D01*
X129399617Y-99956344D01*
X129480452Y-99827697D01*
X129480454Y-99827694D01*
X129480454Y-99827692D01*
X129480456Y-99827690D01*
X129536313Y-99668059D01*
X129536313Y-99668058D01*
X129536314Y-99668056D01*
X129555249Y-99500002D01*
X129555249Y-99499997D01*
X129536314Y-99331943D01*
X129493644Y-99210000D01*
X129480456Y-99172310D01*
X129480455Y-99172309D01*
X129480454Y-99172305D01*
X129480452Y-99172302D01*
X129390481Y-99029115D01*
X129390476Y-99029109D01*
X129270890Y-98909523D01*
X129270884Y-98909518D01*
X129127697Y-98819547D01*
X129127694Y-98819545D01*
X128968056Y-98763685D01*
X128800003Y-98744751D01*
X128799997Y-98744751D01*
X128631943Y-98763685D01*
X128472305Y-98819545D01*
X128472302Y-98819547D01*
X128329115Y-98909518D01*
X128329109Y-98909523D01*
X128209523Y-99029109D01*
X128209518Y-99029115D01*
X128119547Y-99172302D01*
X128119545Y-99172305D01*
X128063685Y-99331943D01*
X128044751Y-99499997D01*
X128044751Y-99500002D01*
X126543982Y-99500002D01*
X126536314Y-99431943D01*
X126480454Y-99272305D01*
X126480452Y-99272302D01*
X126390481Y-99129115D01*
X126390476Y-99129109D01*
X126270890Y-99009523D01*
X126270884Y-99009518D01*
X126127697Y-98919547D01*
X126127694Y-98919545D01*
X125968056Y-98863685D01*
X125800003Y-98844751D01*
X125799997Y-98844751D01*
X125631943Y-98863685D01*
X125472305Y-98919545D01*
X125472302Y-98919547D01*
X125329115Y-99009518D01*
X125329109Y-99009523D01*
X125209523Y-99129109D01*
X125209518Y-99129115D01*
X125119547Y-99272302D01*
X125119545Y-99272305D01*
X125063685Y-99431943D01*
X125044751Y-99599997D01*
X125044751Y-99600002D01*
X121029899Y-99600002D01*
X120871402Y-99441506D01*
X120871396Y-99441501D01*
X120685842Y-99311575D01*
X120642217Y-99256998D01*
X120635023Y-99187500D01*
X120666546Y-99125145D01*
X120685842Y-99108425D01*
X120763519Y-99054035D01*
X120871401Y-98978495D01*
X121038495Y-98811401D01*
X121174035Y-98617830D01*
X121273903Y-98403663D01*
X121335063Y-98175408D01*
X121355659Y-97940000D01*
X121335063Y-97704592D01*
X121273903Y-97476337D01*
X121174035Y-97262171D01*
X121132022Y-97202169D01*
X121038494Y-97068597D01*
X120871402Y-96901506D01*
X120871396Y-96901501D01*
X120685842Y-96771575D01*
X120668598Y-96750002D01*
X129444751Y-96750002D01*
X129463685Y-96918056D01*
X129519545Y-97077694D01*
X129519547Y-97077697D01*
X129609518Y-97220884D01*
X129609523Y-97220890D01*
X129729109Y-97340476D01*
X129729115Y-97340481D01*
X129872302Y-97430452D01*
X129872305Y-97430454D01*
X129872309Y-97430455D01*
X129872310Y-97430456D01*
X129944913Y-97455860D01*
X130031943Y-97486314D01*
X130199997Y-97505249D01*
X130200000Y-97505249D01*
X130200003Y-97505249D01*
X130368056Y-97486314D01*
X130368059Y-97486313D01*
X130527690Y-97430456D01*
X130527692Y-97430454D01*
X130527694Y-97430454D01*
X130527697Y-97430452D01*
X130670884Y-97340481D01*
X130670885Y-97340480D01*
X130670890Y-97340477D01*
X130790477Y-97220890D01*
X130880452Y-97077697D01*
X130880454Y-97077694D01*
X130880454Y-97077692D01*
X130880456Y-97077690D01*
X130936313Y-96918059D01*
X130936313Y-96918058D01*
X130936314Y-96918056D01*
X130955249Y-96750002D01*
X130955249Y-96749995D01*
X130936314Y-96581943D01*
X130886119Y-96438495D01*
X130880456Y-96422310D01*
X130880455Y-96422309D01*
X130880454Y-96422305D01*
X130880452Y-96422302D01*
X130790481Y-96279115D01*
X130790476Y-96279109D01*
X130670890Y-96159523D01*
X130670884Y-96159518D01*
X130527697Y-96069547D01*
X130527694Y-96069545D01*
X130368056Y-96013685D01*
X130200003Y-95994751D01*
X130199997Y-95994751D01*
X130031943Y-96013685D01*
X129872305Y-96069545D01*
X129872302Y-96069547D01*
X129729115Y-96159518D01*
X129729109Y-96159523D01*
X129609523Y-96279109D01*
X129609518Y-96279115D01*
X129519547Y-96422302D01*
X129519545Y-96422305D01*
X129463685Y-96581943D01*
X129444751Y-96749995D01*
X129444751Y-96750002D01*
X120668598Y-96750002D01*
X120642217Y-96716998D01*
X120635023Y-96647500D01*
X120666546Y-96585145D01*
X120685842Y-96568425D01*
X120763519Y-96514035D01*
X120871401Y-96438495D01*
X121038495Y-96271401D01*
X121174035Y-96077830D01*
X121273903Y-95863663D01*
X121335063Y-95635408D01*
X121355659Y-95400000D01*
X121335063Y-95164592D01*
X121317756Y-95100002D01*
X124844751Y-95100002D01*
X124863685Y-95268056D01*
X124919545Y-95427694D01*
X124919547Y-95427697D01*
X125009518Y-95570884D01*
X125009523Y-95570890D01*
X125129109Y-95690476D01*
X125129115Y-95690481D01*
X125272302Y-95780452D01*
X125272305Y-95780454D01*
X125272309Y-95780455D01*
X125272310Y-95780456D01*
X125338609Y-95803655D01*
X125431943Y-95836314D01*
X125599997Y-95855249D01*
X125600000Y-95855249D01*
X125600003Y-95855249D01*
X125768056Y-95836314D01*
X125768059Y-95836313D01*
X125927690Y-95780456D01*
X125927692Y-95780454D01*
X125927694Y-95780454D01*
X125927697Y-95780452D01*
X126070884Y-95690481D01*
X126070885Y-95690480D01*
X126070890Y-95690477D01*
X126190477Y-95570890D01*
X126212203Y-95536314D01*
X126280452Y-95427697D01*
X126280454Y-95427694D01*
X126280454Y-95427692D01*
X126280456Y-95427690D01*
X126336313Y-95268059D01*
X126336313Y-95268058D01*
X126336314Y-95268056D01*
X126355249Y-95100002D01*
X126355249Y-95099997D01*
X126336314Y-94931943D01*
X126304141Y-94839998D01*
X126290146Y-94800002D01*
X127444751Y-94800002D01*
X127463685Y-94968056D01*
X127519545Y-95127694D01*
X127519547Y-95127697D01*
X127609518Y-95270884D01*
X127609523Y-95270890D01*
X127729109Y-95390476D01*
X127729115Y-95390481D01*
X127872302Y-95480452D01*
X127872305Y-95480454D01*
X127872309Y-95480455D01*
X127872310Y-95480456D01*
X127944913Y-95505860D01*
X128031943Y-95536314D01*
X128199997Y-95555249D01*
X128200000Y-95555249D01*
X128200003Y-95555249D01*
X128368056Y-95536314D01*
X128368059Y-95536313D01*
X128527690Y-95480456D01*
X128527692Y-95480454D01*
X128527694Y-95480454D01*
X128527697Y-95480452D01*
X128670884Y-95390481D01*
X128670885Y-95390480D01*
X128670890Y-95390477D01*
X128790477Y-95270890D01*
X128792258Y-95268056D01*
X128880452Y-95127697D01*
X128880454Y-95127694D01*
X128880454Y-95127692D01*
X128880456Y-95127690D01*
X128936313Y-94968059D01*
X128936313Y-94968058D01*
X128936314Y-94968056D01*
X128955249Y-94800002D01*
X128955249Y-94799997D01*
X128936314Y-94631943D01*
X128893477Y-94509523D01*
X128880456Y-94472310D01*
X128880455Y-94472309D01*
X128880454Y-94472305D01*
X128880452Y-94472302D01*
X128790481Y-94329115D01*
X128790476Y-94329109D01*
X128670890Y-94209523D01*
X128670884Y-94209518D01*
X128527697Y-94119547D01*
X128527694Y-94119545D01*
X128368056Y-94063685D01*
X128200003Y-94044751D01*
X128199997Y-94044751D01*
X128031943Y-94063685D01*
X127872305Y-94119545D01*
X127872302Y-94119547D01*
X127729115Y-94209518D01*
X127729109Y-94209523D01*
X127609523Y-94329109D01*
X127609518Y-94329115D01*
X127519547Y-94472302D01*
X127519545Y-94472305D01*
X127463685Y-94631943D01*
X127444751Y-94799997D01*
X127444751Y-94800002D01*
X126290146Y-94800002D01*
X126280456Y-94772310D01*
X126280455Y-94772309D01*
X126280454Y-94772305D01*
X126280452Y-94772302D01*
X126190481Y-94629115D01*
X126190476Y-94629109D01*
X126070890Y-94509523D01*
X126070884Y-94509518D01*
X125927697Y-94419547D01*
X125927694Y-94419545D01*
X125768056Y-94363685D01*
X125600003Y-94344751D01*
X125599997Y-94344751D01*
X125431943Y-94363685D01*
X125272305Y-94419545D01*
X125272302Y-94419547D01*
X125129115Y-94509518D01*
X125129109Y-94509523D01*
X125009523Y-94629109D01*
X125009518Y-94629115D01*
X124919547Y-94772302D01*
X124919545Y-94772305D01*
X124863685Y-94931943D01*
X124844751Y-95099997D01*
X124844751Y-95100002D01*
X121317756Y-95100002D01*
X121273903Y-94936337D01*
X121174035Y-94722171D01*
X121153407Y-94692710D01*
X121038494Y-94528597D01*
X120871402Y-94361506D01*
X120871396Y-94361501D01*
X120685842Y-94231575D01*
X120642217Y-94176998D01*
X120635023Y-94107500D01*
X120666546Y-94045145D01*
X120685842Y-94028425D01*
X120763519Y-93974035D01*
X120871401Y-93898495D01*
X121038495Y-93731401D01*
X121174035Y-93537830D01*
X121273903Y-93323663D01*
X121335063Y-93095408D01*
X121355659Y-92860000D01*
X121354782Y-92849981D01*
X121335063Y-92624596D01*
X121335063Y-92624592D01*
X121273903Y-92396337D01*
X121174035Y-92182171D01*
X121158512Y-92160001D01*
X121038494Y-91988597D01*
X120871402Y-91821506D01*
X120871396Y-91821501D01*
X120685842Y-91691575D01*
X120642217Y-91636998D01*
X120635023Y-91567500D01*
X120666546Y-91505145D01*
X120685842Y-91488425D01*
X120763519Y-91434035D01*
X120871401Y-91358495D01*
X121038495Y-91191401D01*
X121174035Y-90997830D01*
X121273903Y-90783663D01*
X121335063Y-90555408D01*
X121355659Y-90320000D01*
X121335063Y-90084592D01*
X121273903Y-89856337D01*
X121174035Y-89642171D01*
X121132022Y-89582169D01*
X121038494Y-89448597D01*
X120871402Y-89281506D01*
X120871396Y-89281501D01*
X120685842Y-89151575D01*
X120642217Y-89096998D01*
X120635023Y-89027500D01*
X120666546Y-88965145D01*
X120685842Y-88948425D01*
X120763519Y-88894035D01*
X120871401Y-88818495D01*
X121038495Y-88651401D01*
X121174035Y-88457830D01*
X121273903Y-88243663D01*
X121335063Y-88015408D01*
X121355659Y-87780000D01*
X121339911Y-87600002D01*
X123844751Y-87600002D01*
X123863685Y-87768056D01*
X123919545Y-87927694D01*
X123919547Y-87927697D01*
X124009518Y-88070884D01*
X124009523Y-88070890D01*
X124129109Y-88190476D01*
X124129115Y-88190481D01*
X124272302Y-88280452D01*
X124272305Y-88280454D01*
X124272309Y-88280455D01*
X124272310Y-88280456D01*
X124344913Y-88305860D01*
X124431943Y-88336314D01*
X124599997Y-88355249D01*
X124600000Y-88355249D01*
X124600003Y-88355249D01*
X124768056Y-88336314D01*
X124768059Y-88336313D01*
X124927690Y-88280456D01*
X124927692Y-88280454D01*
X124927694Y-88280454D01*
X124927697Y-88280452D01*
X125070884Y-88190481D01*
X125070885Y-88190480D01*
X125070890Y-88190477D01*
X125190477Y-88070890D01*
X125225342Y-88015403D01*
X125280452Y-87927697D01*
X125280454Y-87927694D01*
X125280454Y-87927692D01*
X125280456Y-87927690D01*
X125336313Y-87768059D01*
X125336313Y-87768058D01*
X125336314Y-87768056D01*
X125355249Y-87600002D01*
X125355249Y-87599997D01*
X125336314Y-87431943D01*
X125280454Y-87272305D01*
X125280452Y-87272302D01*
X125190481Y-87129115D01*
X125190476Y-87129109D01*
X125070890Y-87009523D01*
X125070884Y-87009518D01*
X124927697Y-86919547D01*
X124927694Y-86919545D01*
X124768056Y-86863685D01*
X124600003Y-86844751D01*
X124599997Y-86844751D01*
X124431943Y-86863685D01*
X124272305Y-86919545D01*
X124272302Y-86919547D01*
X124129115Y-87009518D01*
X124129109Y-87009523D01*
X124009523Y-87129109D01*
X124009518Y-87129115D01*
X123919547Y-87272302D01*
X123919545Y-87272305D01*
X123863685Y-87431943D01*
X123844751Y-87599997D01*
X123844751Y-87600002D01*
X121339911Y-87600002D01*
X121335063Y-87544592D01*
X121273903Y-87316337D01*
X121174035Y-87102171D01*
X121132022Y-87042169D01*
X121038494Y-86908597D01*
X120871402Y-86741506D01*
X120871396Y-86741501D01*
X120685842Y-86611575D01*
X120642217Y-86556998D01*
X120635023Y-86487500D01*
X120666546Y-86425145D01*
X120685842Y-86408425D01*
X120763519Y-86354035D01*
X120871401Y-86278495D01*
X121038495Y-86111401D01*
X121174035Y-85917830D01*
X121273903Y-85703663D01*
X121335063Y-85475408D01*
X121355659Y-85240000D01*
X121352160Y-85200002D01*
X122244751Y-85200002D01*
X122263685Y-85368056D01*
X122319545Y-85527694D01*
X122319547Y-85527697D01*
X122409518Y-85670884D01*
X122409523Y-85670890D01*
X122529109Y-85790476D01*
X122529115Y-85790481D01*
X122672302Y-85880452D01*
X122672305Y-85880454D01*
X122672309Y-85880455D01*
X122672310Y-85880456D01*
X122744913Y-85905860D01*
X122831943Y-85936314D01*
X122999997Y-85955249D01*
X123000000Y-85955249D01*
X123000003Y-85955249D01*
X123168056Y-85936314D01*
X123220869Y-85917834D01*
X123327690Y-85880456D01*
X123327692Y-85880454D01*
X123327694Y-85880454D01*
X123327697Y-85880452D01*
X123470884Y-85790481D01*
X123470885Y-85790480D01*
X123470890Y-85790477D01*
X123590477Y-85670890D01*
X123590481Y-85670884D01*
X123680452Y-85527697D01*
X123680453Y-85527693D01*
X123680456Y-85527690D01*
X123682317Y-85522369D01*
X123682958Y-85520540D01*
X123723679Y-85463764D01*
X123788631Y-85438015D01*
X123857193Y-85451470D01*
X123907596Y-85499857D01*
X123917042Y-85520540D01*
X123919543Y-85527689D01*
X123919547Y-85527697D01*
X124009518Y-85670884D01*
X124009523Y-85670890D01*
X124129109Y-85790476D01*
X124129115Y-85790481D01*
X124272302Y-85880452D01*
X124272305Y-85880454D01*
X124272309Y-85880455D01*
X124272310Y-85880456D01*
X124344913Y-85905860D01*
X124431943Y-85936314D01*
X124599997Y-85955249D01*
X124600000Y-85955249D01*
X124600003Y-85955249D01*
X124768056Y-85936314D01*
X124820869Y-85917834D01*
X124927690Y-85880456D01*
X124927692Y-85880454D01*
X124927694Y-85880454D01*
X124927697Y-85880452D01*
X125070884Y-85790481D01*
X125070885Y-85790480D01*
X125070890Y-85790477D01*
X125161364Y-85700003D01*
X127836935Y-85700003D01*
X127857130Y-85879249D01*
X127857131Y-85879254D01*
X127916711Y-86049523D01*
X128012684Y-86202262D01*
X128140238Y-86329816D01*
X128196464Y-86365145D01*
X128274271Y-86414035D01*
X128292978Y-86425789D01*
X128463245Y-86485368D01*
X128463250Y-86485369D01*
X128642496Y-86505565D01*
X128642500Y-86505565D01*
X128642504Y-86505565D01*
X128821749Y-86485369D01*
X128821752Y-86485368D01*
X128821755Y-86485368D01*
X128992022Y-86425789D01*
X129144762Y-86329816D01*
X129272316Y-86202262D01*
X129368289Y-86049522D01*
X129427868Y-85879255D01*
X129430282Y-85857830D01*
X129448065Y-85700003D01*
X131274435Y-85700003D01*
X131294630Y-85879249D01*
X131294631Y-85879254D01*
X131354211Y-86049523D01*
X131450184Y-86202262D01*
X131577738Y-86329816D01*
X131633964Y-86365145D01*
X131711771Y-86414035D01*
X131730478Y-86425789D01*
X131900745Y-86485368D01*
X131900750Y-86485369D01*
X132079996Y-86505565D01*
X132080000Y-86505565D01*
X132080004Y-86505565D01*
X132259249Y-86485369D01*
X132259252Y-86485368D01*
X132259255Y-86485368D01*
X132429522Y-86425789D01*
X132582262Y-86329816D01*
X132709816Y-86202262D01*
X132805789Y-86049522D01*
X132865368Y-85879255D01*
X132867782Y-85857830D01*
X132885565Y-85700003D01*
X132885565Y-85699996D01*
X132865369Y-85520750D01*
X132865368Y-85520745D01*
X132841128Y-85451470D01*
X132805789Y-85350478D01*
X132709816Y-85197738D01*
X132582262Y-85070184D01*
X132521399Y-85031941D01*
X132429523Y-84974211D01*
X132259254Y-84914631D01*
X132259249Y-84914630D01*
X132080004Y-84894435D01*
X132079996Y-84894435D01*
X131900750Y-84914630D01*
X131900745Y-84914631D01*
X131730476Y-84974211D01*
X131577737Y-85070184D01*
X131450184Y-85197737D01*
X131354211Y-85350476D01*
X131294631Y-85520745D01*
X131294630Y-85520750D01*
X131274435Y-85699996D01*
X131274435Y-85700003D01*
X129448065Y-85700003D01*
X129448065Y-85699996D01*
X129427869Y-85520750D01*
X129427868Y-85520745D01*
X129403628Y-85451470D01*
X129368289Y-85350478D01*
X129272316Y-85197738D01*
X129144762Y-85070184D01*
X129083899Y-85031941D01*
X128992023Y-84974211D01*
X128821754Y-84914631D01*
X128821749Y-84914630D01*
X128642504Y-84894435D01*
X128642496Y-84894435D01*
X128463250Y-84914630D01*
X128463245Y-84914631D01*
X128292976Y-84974211D01*
X128140237Y-85070184D01*
X128012684Y-85197737D01*
X127916711Y-85350476D01*
X127857131Y-85520745D01*
X127857130Y-85520750D01*
X127836935Y-85699996D01*
X127836935Y-85700003D01*
X125161364Y-85700003D01*
X125190477Y-85670890D01*
X125190481Y-85670884D01*
X125280452Y-85527697D01*
X125280455Y-85527692D01*
X125295489Y-85484727D01*
X125306385Y-85453588D01*
X125347105Y-85396814D01*
X125412058Y-85371066D01*
X125464881Y-85380604D01*
X125465738Y-85378156D01*
X125472308Y-85380455D01*
X125472310Y-85380456D01*
X125519059Y-85396814D01*
X125631943Y-85436314D01*
X125799997Y-85455249D01*
X125800000Y-85455249D01*
X125800003Y-85455249D01*
X125968056Y-85436314D01*
X125968059Y-85436313D01*
X126127690Y-85380456D01*
X126127692Y-85380454D01*
X126127694Y-85380454D01*
X126127697Y-85380452D01*
X126270884Y-85290481D01*
X126270885Y-85290480D01*
X126270890Y-85290477D01*
X126390477Y-85170890D01*
X126480452Y-85027697D01*
X126480454Y-85027694D01*
X126480454Y-85027692D01*
X126480456Y-85027690D01*
X126536313Y-84868059D01*
X126536313Y-84868058D01*
X126536314Y-84868056D01*
X126555249Y-84700002D01*
X126555249Y-84699997D01*
X126536314Y-84531943D01*
X126505804Y-84444751D01*
X126480456Y-84372310D01*
X126480455Y-84372309D01*
X126480454Y-84372305D01*
X126480452Y-84372302D01*
X126390481Y-84229115D01*
X126390476Y-84229109D01*
X126270890Y-84109523D01*
X126270884Y-84109518D01*
X126127697Y-84019547D01*
X126127694Y-84019545D01*
X125968056Y-83963685D01*
X125800003Y-83944751D01*
X125799997Y-83944751D01*
X125631943Y-83963685D01*
X125472305Y-84019545D01*
X125472302Y-84019547D01*
X125329115Y-84109518D01*
X125329109Y-84109523D01*
X125209523Y-84229109D01*
X125209518Y-84229115D01*
X125119547Y-84372302D01*
X125119542Y-84372313D01*
X125093614Y-84446410D01*
X125052892Y-84503186D01*
X124987939Y-84528933D01*
X124935116Y-84519403D01*
X124934262Y-84521844D01*
X124927691Y-84519544D01*
X124927690Y-84519544D01*
X124878035Y-84502169D01*
X124768056Y-84463685D01*
X124600003Y-84444751D01*
X124599997Y-84444751D01*
X124431943Y-84463685D01*
X124272305Y-84519545D01*
X124272302Y-84519547D01*
X124129115Y-84609518D01*
X124129109Y-84609523D01*
X124009523Y-84729109D01*
X124009518Y-84729115D01*
X123919547Y-84872302D01*
X123919542Y-84872313D01*
X123917041Y-84879461D01*
X123876319Y-84936237D01*
X123811366Y-84961984D01*
X123742805Y-84948527D01*
X123692402Y-84900140D01*
X123682959Y-84879461D01*
X123680457Y-84872313D01*
X123680452Y-84872302D01*
X123590481Y-84729115D01*
X123590476Y-84729109D01*
X123470890Y-84609523D01*
X123470884Y-84609518D01*
X123327697Y-84519547D01*
X123327694Y-84519545D01*
X123168056Y-84463685D01*
X123000003Y-84444751D01*
X122999997Y-84444751D01*
X122831943Y-84463685D01*
X122672305Y-84519545D01*
X122672302Y-84519547D01*
X122529115Y-84609518D01*
X122529109Y-84609523D01*
X122409523Y-84729109D01*
X122409518Y-84729115D01*
X122319547Y-84872302D01*
X122319545Y-84872305D01*
X122263685Y-85031943D01*
X122244751Y-85199997D01*
X122244751Y-85200002D01*
X121352160Y-85200002D01*
X121335063Y-85004592D01*
X121273903Y-84776337D01*
X121174035Y-84562171D01*
X121152870Y-84531943D01*
X121038494Y-84368597D01*
X120871402Y-84201506D01*
X120871396Y-84201501D01*
X120685842Y-84071575D01*
X120642217Y-84016998D01*
X120635023Y-83947500D01*
X120666546Y-83885145D01*
X120685842Y-83868425D01*
X120763519Y-83814035D01*
X120871401Y-83738495D01*
X121038495Y-83571401D01*
X121174035Y-83377830D01*
X121273903Y-83163663D01*
X121335063Y-82935408D01*
X121355659Y-82700000D01*
X121335063Y-82464592D01*
X121288626Y-82291285D01*
X121273905Y-82236344D01*
X121273904Y-82236343D01*
X121273903Y-82236337D01*
X121174035Y-82022171D01*
X121132022Y-81962169D01*
X121038494Y-81828597D01*
X120871402Y-81661506D01*
X120871396Y-81661501D01*
X120685842Y-81531575D01*
X120660605Y-81500002D01*
X123844751Y-81500002D01*
X123863685Y-81668056D01*
X123919545Y-81827694D01*
X123919547Y-81827697D01*
X124009518Y-81970884D01*
X124009523Y-81970890D01*
X124129109Y-82090476D01*
X124129115Y-82090481D01*
X124272302Y-82180452D01*
X124272305Y-82180454D01*
X124272309Y-82180455D01*
X124272310Y-82180456D01*
X124306353Y-82192368D01*
X124431943Y-82236314D01*
X124599997Y-82255249D01*
X124600000Y-82255249D01*
X124600003Y-82255249D01*
X124768056Y-82236314D01*
X124768059Y-82236313D01*
X124927690Y-82180456D01*
X124927692Y-82180454D01*
X124927694Y-82180454D01*
X124927697Y-82180452D01*
X125070884Y-82090481D01*
X125070885Y-82090480D01*
X125070890Y-82090477D01*
X125190477Y-81970890D01*
X125195957Y-81962169D01*
X125280452Y-81827697D01*
X125280454Y-81827694D01*
X125280454Y-81827692D01*
X125280456Y-81827690D01*
X125307990Y-81749003D01*
X127845435Y-81749003D01*
X127865630Y-81928249D01*
X127865631Y-81928254D01*
X127925211Y-82098523D01*
X128011805Y-82236335D01*
X128021184Y-82251262D01*
X128148738Y-82378816D01*
X128189767Y-82404596D01*
X128299289Y-82473414D01*
X128301478Y-82474789D01*
X128471745Y-82534368D01*
X128471750Y-82534369D01*
X128650996Y-82554565D01*
X128651000Y-82554565D01*
X128651004Y-82554565D01*
X128830249Y-82534369D01*
X128830252Y-82534368D01*
X128830255Y-82534368D01*
X129000522Y-82474789D01*
X129153262Y-82378816D01*
X129280816Y-82251262D01*
X129376789Y-82098522D01*
X129436368Y-81928255D01*
X129445330Y-81848713D01*
X129456565Y-81749003D01*
X129456565Y-81748996D01*
X129436369Y-81569750D01*
X129436368Y-81569745D01*
X129387469Y-81430000D01*
X129376789Y-81399478D01*
X129372404Y-81392500D01*
X129307505Y-81289213D01*
X129280816Y-81246738D01*
X129153262Y-81119184D01*
X129055058Y-81057478D01*
X129000523Y-81023211D01*
X128830254Y-80963631D01*
X128830249Y-80963630D01*
X128651004Y-80943435D01*
X128650996Y-80943435D01*
X128471750Y-80963630D01*
X128471745Y-80963631D01*
X128301476Y-81023211D01*
X128148737Y-81119184D01*
X128021184Y-81246737D01*
X127925211Y-81399476D01*
X127865631Y-81569745D01*
X127865630Y-81569750D01*
X127845435Y-81748996D01*
X127845435Y-81749003D01*
X125307990Y-81749003D01*
X125336313Y-81668059D01*
X125336313Y-81668058D01*
X125336314Y-81668056D01*
X125355249Y-81500002D01*
X125355249Y-81499997D01*
X125336314Y-81331943D01*
X125299853Y-81227745D01*
X125280456Y-81172310D01*
X125280455Y-81172309D01*
X125280454Y-81172305D01*
X125280452Y-81172302D01*
X125190481Y-81029115D01*
X125190476Y-81029109D01*
X125070890Y-80909523D01*
X125070884Y-80909518D01*
X124927697Y-80819547D01*
X124927694Y-80819545D01*
X124768056Y-80763685D01*
X124600003Y-80744751D01*
X124599997Y-80744751D01*
X124431943Y-80763685D01*
X124272305Y-80819545D01*
X124272302Y-80819547D01*
X124129115Y-80909518D01*
X124129109Y-80909523D01*
X124009523Y-81029109D01*
X124009518Y-81029115D01*
X123919547Y-81172302D01*
X123919545Y-81172305D01*
X123863685Y-81331943D01*
X123844751Y-81499997D01*
X123844751Y-81500002D01*
X120660605Y-81500002D01*
X120642217Y-81476998D01*
X120635023Y-81407500D01*
X120666546Y-81345145D01*
X120685842Y-81328425D01*
X120741842Y-81289213D01*
X120871401Y-81198495D01*
X121038495Y-81031401D01*
X121174035Y-80837830D01*
X121273903Y-80623663D01*
X121335063Y-80395408D01*
X121355659Y-80160000D01*
X121335063Y-79924592D01*
X121273903Y-79696337D01*
X121183282Y-79502002D01*
X123958751Y-79502002D01*
X123977685Y-79670056D01*
X124033545Y-79829694D01*
X124033547Y-79829697D01*
X124123518Y-79972884D01*
X124123523Y-79972890D01*
X124243109Y-80092476D01*
X124243115Y-80092481D01*
X124386302Y-80182452D01*
X124386305Y-80182454D01*
X124386309Y-80182455D01*
X124386310Y-80182456D01*
X124458913Y-80207860D01*
X124545943Y-80238314D01*
X124713997Y-80257249D01*
X124714000Y-80257249D01*
X124714003Y-80257249D01*
X124882056Y-80238314D01*
X124882059Y-80238313D01*
X125041690Y-80182456D01*
X125041692Y-80182454D01*
X125041694Y-80182454D01*
X125041697Y-80182452D01*
X125184884Y-80092481D01*
X125184885Y-80092480D01*
X125184890Y-80092477D01*
X125304477Y-79972890D01*
X125304481Y-79972884D01*
X125394452Y-79829697D01*
X125394454Y-79829694D01*
X125394454Y-79829692D01*
X125394456Y-79829690D01*
X125450313Y-79670059D01*
X125450313Y-79670058D01*
X125450314Y-79670056D01*
X125469249Y-79502002D01*
X125469249Y-79501997D01*
X125450314Y-79333943D01*
X125394454Y-79174305D01*
X125394452Y-79174302D01*
X125304481Y-79031115D01*
X125304476Y-79031109D01*
X125184890Y-78911523D01*
X125184884Y-78911518D01*
X125041697Y-78821547D01*
X125041694Y-78821545D01*
X124882056Y-78765685D01*
X124714003Y-78746751D01*
X124713997Y-78746751D01*
X124545940Y-78765686D01*
X124486270Y-78786565D01*
X124416491Y-78790126D01*
X124399922Y-78780634D01*
X124399448Y-78785474D01*
X124356121Y-78840288D01*
X124350419Y-78844094D01*
X124243112Y-78911521D01*
X124243109Y-78911523D01*
X124123523Y-79031109D01*
X124123518Y-79031115D01*
X124033547Y-79174302D01*
X124033545Y-79174305D01*
X123977685Y-79333943D01*
X123958751Y-79501997D01*
X123958751Y-79502002D01*
X121183282Y-79502002D01*
X121174035Y-79482171D01*
X121132022Y-79422169D01*
X121038494Y-79288597D01*
X120871402Y-79121506D01*
X120871401Y-79121505D01*
X120685405Y-78991269D01*
X120641781Y-78936692D01*
X120634588Y-78867193D01*
X120666110Y-78804839D01*
X120685405Y-78788119D01*
X120871082Y-78658105D01*
X121038105Y-78491082D01*
X121173600Y-78297578D01*
X121273429Y-78083492D01*
X121273432Y-78083486D01*
X121330636Y-77870000D01*
X120433012Y-77870000D01*
X120465925Y-77812993D01*
X120500000Y-77685826D01*
X120500000Y-77554174D01*
X120465925Y-77427007D01*
X120433012Y-77370000D01*
X121330636Y-77370000D01*
X121330635Y-77369999D01*
X121289373Y-77216005D01*
X122212357Y-77216005D01*
X122232890Y-77463812D01*
X122232892Y-77463824D01*
X122293936Y-77704881D01*
X122393826Y-77932606D01*
X122529833Y-78140782D01*
X122529836Y-78140785D01*
X122698256Y-78323738D01*
X122894491Y-78476474D01*
X122894493Y-78476475D01*
X123065020Y-78568760D01*
X123113190Y-78594828D01*
X123348386Y-78675571D01*
X123593665Y-78716500D01*
X123842335Y-78716500D01*
X124087614Y-78675571D01*
X124087617Y-78675570D01*
X124244185Y-78621819D01*
X124313981Y-78618670D01*
X124329679Y-78627785D01*
X124330044Y-78623827D01*
X124373048Y-78568760D01*
X124386289Y-78560474D01*
X124541509Y-78476474D01*
X124737744Y-78323738D01*
X124792856Y-78263870D01*
X129817500Y-78263870D01*
X129817501Y-78263876D01*
X129823908Y-78323483D01*
X129874202Y-78458328D01*
X129874206Y-78458335D01*
X129960452Y-78573544D01*
X129960455Y-78573547D01*
X130075664Y-78659793D01*
X130075671Y-78659797D01*
X130210517Y-78710091D01*
X130210516Y-78710091D01*
X130217444Y-78710835D01*
X130270127Y-78716500D01*
X132365872Y-78716499D01*
X132425483Y-78710091D01*
X132560331Y-78659796D01*
X132675546Y-78573546D01*
X132761796Y-78458331D01*
X132812091Y-78323483D01*
X132818500Y-78263873D01*
X132818499Y-77000362D01*
X132838184Y-76933324D01*
X132890987Y-76887569D01*
X132956384Y-76877143D01*
X132969000Y-76878565D01*
X133089351Y-76865004D01*
X133148249Y-76858369D01*
X133148252Y-76858368D01*
X133148255Y-76858368D01*
X133318522Y-76798789D01*
X133471262Y-76702816D01*
X133598816Y-76575262D01*
X133694789Y-76422522D01*
X133754368Y-76252255D01*
X133759676Y-76205145D01*
X133774565Y-76073003D01*
X133774565Y-76072996D01*
X133754369Y-75893750D01*
X133754368Y-75893745D01*
X133729252Y-75821969D01*
X133694789Y-75723478D01*
X133598816Y-75570738D01*
X133471262Y-75443184D01*
X133318523Y-75347211D01*
X133148254Y-75287631D01*
X133148249Y-75287630D01*
X132969004Y-75267435D01*
X132968996Y-75267435D01*
X132789750Y-75287630D01*
X132789745Y-75287631D01*
X132619476Y-75347211D01*
X132466737Y-75443184D01*
X132339182Y-75570739D01*
X132339181Y-75570741D01*
X132284683Y-75657473D01*
X132232348Y-75703764D01*
X132179690Y-75715500D01*
X130270129Y-75715500D01*
X130270123Y-75715501D01*
X130210516Y-75721908D01*
X130075671Y-75772202D01*
X130075664Y-75772206D01*
X129960455Y-75858452D01*
X129960452Y-75858455D01*
X129874206Y-75973664D01*
X129874202Y-75973671D01*
X129823908Y-76108517D01*
X129817501Y-76168116D01*
X129817500Y-76168135D01*
X129817500Y-78263870D01*
X124792856Y-78263870D01*
X124906164Y-78140785D01*
X125042173Y-77932607D01*
X125142063Y-77704881D01*
X125203108Y-77463821D01*
X125203370Y-77460657D01*
X125223643Y-77216005D01*
X125223643Y-77215994D01*
X125203109Y-76968187D01*
X125203107Y-76968175D01*
X125142063Y-76727118D01*
X125042173Y-76499393D01*
X124906166Y-76291217D01*
X124826931Y-76205145D01*
X124737744Y-76108262D01*
X124541509Y-75955526D01*
X124541507Y-75955525D01*
X124541506Y-75955524D01*
X124322811Y-75837172D01*
X124322802Y-75837169D01*
X124087616Y-75756429D01*
X123842335Y-75715500D01*
X123593665Y-75715500D01*
X123348383Y-75756429D01*
X123113197Y-75837169D01*
X123113188Y-75837172D01*
X122894493Y-75955524D01*
X122698257Y-76108261D01*
X122529833Y-76291217D01*
X122393826Y-76499393D01*
X122293936Y-76727118D01*
X122232892Y-76968175D01*
X122232890Y-76968187D01*
X122212357Y-77215994D01*
X122212357Y-77216005D01*
X121289373Y-77216005D01*
X121273432Y-77156513D01*
X121273429Y-77156507D01*
X121173600Y-76942422D01*
X121173599Y-76942420D01*
X121038113Y-76748926D01*
X121038108Y-76748920D01*
X120871078Y-76581890D01*
X120685405Y-76451879D01*
X120641780Y-76397302D01*
X120634588Y-76327804D01*
X120666110Y-76265449D01*
X120685406Y-76248730D01*
X120871401Y-76118495D01*
X121038495Y-75951401D01*
X121174035Y-75757830D01*
X121273903Y-75543663D01*
X121335063Y-75315408D01*
X121355659Y-75080000D01*
X121335063Y-74844592D01*
X121274500Y-74618564D01*
X121273905Y-74616344D01*
X121273904Y-74616343D01*
X121273903Y-74616337D01*
X121242504Y-74549003D01*
X121876435Y-74549003D01*
X121896630Y-74728249D01*
X121896631Y-74728254D01*
X121956211Y-74898523D01*
X122032540Y-75019999D01*
X122052184Y-75051262D01*
X122179738Y-75178816D01*
X122332478Y-75274789D01*
X122448575Y-75315413D01*
X122502745Y-75334368D01*
X122502750Y-75334369D01*
X122681996Y-75354565D01*
X122682000Y-75354565D01*
X122682004Y-75354565D01*
X122861249Y-75334369D01*
X122861252Y-75334368D01*
X122861255Y-75334368D01*
X123031522Y-75274789D01*
X123184262Y-75178816D01*
X123311816Y-75051262D01*
X123407789Y-74898522D01*
X123467368Y-74728255D01*
X123479727Y-74618564D01*
X123487565Y-74549003D01*
X123487565Y-74548996D01*
X123467369Y-74369750D01*
X123467368Y-74369745D01*
X123411450Y-74209940D01*
X123407789Y-74199478D01*
X123311816Y-74046738D01*
X123184262Y-73919184D01*
X123145543Y-73894855D01*
X123125486Y-73882252D01*
X125197001Y-73882252D01*
X125215935Y-74050306D01*
X125271795Y-74209944D01*
X125271797Y-74209947D01*
X125361768Y-74353134D01*
X125361773Y-74353140D01*
X125481359Y-74472726D01*
X125481365Y-74472731D01*
X125624552Y-74562702D01*
X125624555Y-74562704D01*
X125624559Y-74562705D01*
X125624560Y-74562706D01*
X125697163Y-74588110D01*
X125784193Y-74618564D01*
X125952247Y-74637499D01*
X125952250Y-74637499D01*
X125952253Y-74637499D01*
X126120306Y-74618564D01*
X126120309Y-74618563D01*
X126279940Y-74562706D01*
X126279942Y-74562704D01*
X126279944Y-74562704D01*
X126279947Y-74562702D01*
X126423134Y-74472731D01*
X126423135Y-74472730D01*
X126423140Y-74472727D01*
X126542727Y-74353140D01*
X126542731Y-74353134D01*
X126632702Y-74209947D01*
X126632704Y-74209944D01*
X126632704Y-74209942D01*
X126632706Y-74209940D01*
X126688563Y-74050309D01*
X126688563Y-74050308D01*
X126688564Y-74050306D01*
X126707499Y-73882252D01*
X126707499Y-73882247D01*
X126688564Y-73714193D01*
X126632704Y-73554555D01*
X126632702Y-73554552D01*
X126542731Y-73411365D01*
X126542726Y-73411359D01*
X126423140Y-73291773D01*
X126423134Y-73291768D01*
X126279947Y-73201797D01*
X126279944Y-73201795D01*
X126120306Y-73145935D01*
X125952253Y-73127001D01*
X125952247Y-73127001D01*
X125784193Y-73145935D01*
X125624555Y-73201795D01*
X125624552Y-73201797D01*
X125481365Y-73291768D01*
X125481359Y-73291773D01*
X125361773Y-73411359D01*
X125361768Y-73411365D01*
X125271797Y-73554552D01*
X125271795Y-73554555D01*
X125215935Y-73714193D01*
X125197001Y-73882247D01*
X125197001Y-73882252D01*
X123125486Y-73882252D01*
X123031523Y-73823211D01*
X122861254Y-73763631D01*
X122861249Y-73763630D01*
X122682004Y-73743435D01*
X122681996Y-73743435D01*
X122502750Y-73763630D01*
X122502745Y-73763631D01*
X122332476Y-73823211D01*
X122179737Y-73919184D01*
X122052184Y-74046737D01*
X121956211Y-74199476D01*
X121896631Y-74369745D01*
X121896630Y-74369750D01*
X121876435Y-74548996D01*
X121876435Y-74549003D01*
X121242504Y-74549003D01*
X121174035Y-74402171D01*
X121151331Y-74369745D01*
X121038494Y-74208597D01*
X120871402Y-74041506D01*
X120871396Y-74041501D01*
X120685842Y-73911575D01*
X120642217Y-73856998D01*
X120635023Y-73787500D01*
X120666546Y-73725145D01*
X120685842Y-73708425D01*
X120748800Y-73664341D01*
X120871401Y-73578495D01*
X121038495Y-73411401D01*
X121174035Y-73217830D01*
X121273903Y-73003663D01*
X121335063Y-72775408D01*
X121355659Y-72540000D01*
X121335063Y-72304592D01*
X121273903Y-72076337D01*
X121174035Y-71862171D01*
X121156744Y-71837477D01*
X121038496Y-71668600D01*
X120978816Y-71608920D01*
X120916567Y-71546671D01*
X120883084Y-71485351D01*
X120888068Y-71415659D01*
X120929939Y-71359725D01*
X120960915Y-71342810D01*
X121092331Y-71293796D01*
X121154840Y-71247002D01*
X127387751Y-71247002D01*
X127406685Y-71415056D01*
X127462545Y-71574694D01*
X127462547Y-71574697D01*
X127552518Y-71717884D01*
X127552523Y-71717890D01*
X127672109Y-71837476D01*
X127672115Y-71837481D01*
X127815302Y-71927452D01*
X127815305Y-71927454D01*
X127815309Y-71927455D01*
X127815310Y-71927456D01*
X127887913Y-71952860D01*
X127974943Y-71983314D01*
X128142997Y-72002249D01*
X128143000Y-72002249D01*
X128143003Y-72002249D01*
X128311056Y-71983314D01*
X128320527Y-71980000D01*
X128470690Y-71927456D01*
X128470692Y-71927454D01*
X128470694Y-71927454D01*
X128470697Y-71927452D01*
X128613884Y-71837481D01*
X128613885Y-71837480D01*
X128613890Y-71837477D01*
X128733477Y-71717890D01*
X128733481Y-71717884D01*
X128823452Y-71574697D01*
X128823454Y-71574694D01*
X128823454Y-71574692D01*
X128823456Y-71574690D01*
X128879313Y-71415059D01*
X128879313Y-71415058D01*
X128879314Y-71415056D01*
X128898249Y-71247002D01*
X128898249Y-71246997D01*
X128879314Y-71078943D01*
X128823454Y-70919305D01*
X128823452Y-70919302D01*
X128733481Y-70776115D01*
X128733476Y-70776109D01*
X128613890Y-70656523D01*
X128613884Y-70656518D01*
X128470697Y-70566547D01*
X128470694Y-70566545D01*
X128311056Y-70510685D01*
X128143003Y-70491751D01*
X128142997Y-70491751D01*
X127974943Y-70510685D01*
X127815305Y-70566545D01*
X127815302Y-70566547D01*
X127672115Y-70656518D01*
X127672109Y-70656523D01*
X127552523Y-70776109D01*
X127552518Y-70776115D01*
X127462547Y-70919302D01*
X127462545Y-70919305D01*
X127406685Y-71078943D01*
X127387751Y-71246997D01*
X127387751Y-71247002D01*
X121154840Y-71247002D01*
X121207546Y-71207546D01*
X121293796Y-71092331D01*
X121344091Y-70957483D01*
X121350500Y-70897873D01*
X121350499Y-69102128D01*
X121344091Y-69042517D01*
X121293796Y-68907669D01*
X121293795Y-68907668D01*
X121293793Y-68907664D01*
X121207547Y-68792455D01*
X121207544Y-68792452D01*
X121092335Y-68706206D01*
X121092328Y-68706202D01*
X120957482Y-68655908D01*
X120957483Y-68655908D01*
X120897883Y-68649501D01*
X120897881Y-68649500D01*
X120897873Y-68649500D01*
X120897864Y-68649500D01*
X119102129Y-68649500D01*
X119102123Y-68649501D01*
X119042516Y-68655908D01*
X118907671Y-68706202D01*
X118907664Y-68706206D01*
X118792455Y-68792452D01*
X118792452Y-68792455D01*
X118706206Y-68907664D01*
X118706202Y-68907671D01*
X118655908Y-69042517D01*
X118649501Y-69102116D01*
X118649501Y-69102123D01*
X118649500Y-69102135D01*
X118649500Y-70897870D01*
X118649501Y-70897876D01*
X118655908Y-70957483D01*
X118706202Y-71092328D01*
X118706206Y-71092335D01*
X118792452Y-71207544D01*
X118792455Y-71207547D01*
X118907664Y-71293793D01*
X118907671Y-71293797D01*
X119039081Y-71342810D01*
X119095015Y-71384681D01*
X119119432Y-71450145D01*
X119104580Y-71518418D01*
X119083430Y-71546673D01*
X118961503Y-71668600D01*
X118825965Y-71862169D01*
X118825964Y-71862171D01*
X118726098Y-72076335D01*
X118726094Y-72076344D01*
X118664938Y-72304586D01*
X118664936Y-72304596D01*
X118644341Y-72539999D01*
X118644341Y-72540000D01*
X118664936Y-72775403D01*
X118664938Y-72775413D01*
X118726094Y-73003655D01*
X118726096Y-73003659D01*
X118726097Y-73003663D01*
X118783611Y-73127001D01*
X118825965Y-73217830D01*
X118825967Y-73217834D01*
X118961501Y-73411395D01*
X118961506Y-73411402D01*
X119128597Y-73578493D01*
X119128603Y-73578498D01*
X119314158Y-73708425D01*
X119357783Y-73763002D01*
X119364977Y-73832500D01*
X119333454Y-73894855D01*
X119314158Y-73911575D01*
X119128597Y-74041505D01*
X118961505Y-74208597D01*
X118825965Y-74402169D01*
X118825964Y-74402171D01*
X118726098Y-74616335D01*
X118726094Y-74616344D01*
X118664938Y-74844586D01*
X118664936Y-74844596D01*
X118644341Y-75079999D01*
X118644341Y-75080000D01*
X118664936Y-75315403D01*
X118664938Y-75315413D01*
X118726094Y-75543655D01*
X118726096Y-75543659D01*
X118726097Y-75543663D01*
X118809946Y-75723478D01*
X118825965Y-75757830D01*
X118825967Y-75757834D01*
X118961501Y-75951395D01*
X118961506Y-75951402D01*
X119128597Y-76118493D01*
X119128603Y-76118498D01*
X119158277Y-76139276D01*
X119306413Y-76243002D01*
X119314594Y-76248730D01*
X119358219Y-76303307D01*
X119365413Y-76372805D01*
X119333890Y-76435160D01*
X119314595Y-76451880D01*
X119128922Y-76581890D01*
X119128920Y-76581891D01*
X118961891Y-76748920D01*
X118961886Y-76748926D01*
X118826400Y-76942420D01*
X118826399Y-76942422D01*
X118726570Y-77156507D01*
X118726567Y-77156513D01*
X118669364Y-77369999D01*
X118669364Y-77370000D01*
X119566988Y-77370000D01*
X119534075Y-77427007D01*
X119500000Y-77554174D01*
X119500000Y-77685826D01*
X119534075Y-77812993D01*
X119566988Y-77870000D01*
X118669364Y-77870000D01*
X118726567Y-78083486D01*
X118726570Y-78083492D01*
X118826399Y-78297578D01*
X118961894Y-78491082D01*
X119128917Y-78658105D01*
X119314595Y-78788119D01*
X119358219Y-78842696D01*
X119365412Y-78912195D01*
X119333890Y-78974549D01*
X119314595Y-78991269D01*
X119128594Y-79121508D01*
X118961505Y-79288597D01*
X118825965Y-79482169D01*
X118825964Y-79482171D01*
X118726098Y-79696335D01*
X118726094Y-79696344D01*
X118664938Y-79924586D01*
X118664936Y-79924596D01*
X118644341Y-80159999D01*
X118644341Y-80160000D01*
X118664936Y-80395403D01*
X118664938Y-80395413D01*
X118726094Y-80623655D01*
X118726096Y-80623659D01*
X118726097Y-80623663D01*
X118819540Y-80824051D01*
X118825965Y-80837830D01*
X118825967Y-80837834D01*
X118919493Y-80971402D01*
X118959904Y-81029115D01*
X118961501Y-81031395D01*
X118961506Y-81031402D01*
X119128597Y-81198493D01*
X119128603Y-81198498D01*
X119314158Y-81328425D01*
X119357783Y-81383002D01*
X119364977Y-81452500D01*
X119333454Y-81514855D01*
X119314158Y-81531575D01*
X119128597Y-81661505D01*
X118961505Y-81828597D01*
X118825965Y-82022169D01*
X118825964Y-82022171D01*
X118726098Y-82236335D01*
X118726094Y-82236344D01*
X118664938Y-82464586D01*
X118664936Y-82464596D01*
X118644341Y-82699999D01*
X118644341Y-82700000D01*
X118664936Y-82935403D01*
X118664938Y-82935413D01*
X118726094Y-83163655D01*
X118726096Y-83163659D01*
X118726097Y-83163663D01*
X118801025Y-83324346D01*
X118825965Y-83377830D01*
X118825967Y-83377834D01*
X118961501Y-83571395D01*
X118961506Y-83571402D01*
X119128597Y-83738493D01*
X119128603Y-83738498D01*
X119314158Y-83868425D01*
X119357783Y-83923002D01*
X119364977Y-83992500D01*
X119333454Y-84054855D01*
X119314158Y-84071575D01*
X119128597Y-84201505D01*
X118961505Y-84368597D01*
X118825965Y-84562169D01*
X118825964Y-84562171D01*
X118726098Y-84776335D01*
X118726094Y-84776344D01*
X118664938Y-85004586D01*
X118664936Y-85004596D01*
X118644341Y-85239999D01*
X118644341Y-85240000D01*
X118664936Y-85475403D01*
X118664938Y-85475413D01*
X118726094Y-85703655D01*
X118726096Y-85703659D01*
X118726097Y-85703663D01*
X118797988Y-85857834D01*
X118825965Y-85917830D01*
X118825967Y-85917834D01*
X118961501Y-86111395D01*
X118961506Y-86111402D01*
X119128597Y-86278493D01*
X119128603Y-86278498D01*
X119314158Y-86408425D01*
X119357783Y-86463002D01*
X119364977Y-86532500D01*
X119333454Y-86594855D01*
X119314158Y-86611575D01*
X119128597Y-86741505D01*
X118961505Y-86908597D01*
X118825965Y-87102169D01*
X118825964Y-87102171D01*
X118726098Y-87316335D01*
X118726094Y-87316344D01*
X118664938Y-87544586D01*
X118664936Y-87544596D01*
X118644341Y-87779999D01*
X118644341Y-87780000D01*
X118664936Y-88015403D01*
X118664938Y-88015413D01*
X118726094Y-88243655D01*
X118726096Y-88243659D01*
X118726097Y-88243663D01*
X118797988Y-88397834D01*
X118825965Y-88457830D01*
X118825967Y-88457834D01*
X118961501Y-88651395D01*
X118961506Y-88651402D01*
X119128597Y-88818493D01*
X119128603Y-88818498D01*
X119314158Y-88948425D01*
X119357783Y-89003002D01*
X119364977Y-89072500D01*
X119333454Y-89134855D01*
X119314158Y-89151575D01*
X119128597Y-89281505D01*
X118961505Y-89448597D01*
X118825965Y-89642169D01*
X118825964Y-89642171D01*
X118726098Y-89856335D01*
X118726094Y-89856344D01*
X118664938Y-90084586D01*
X118664936Y-90084596D01*
X118644341Y-90319999D01*
X118644341Y-90320000D01*
X118664936Y-90555403D01*
X118664938Y-90555413D01*
X118726094Y-90783655D01*
X118726096Y-90783659D01*
X118726097Y-90783663D01*
X118797988Y-90937834D01*
X118825965Y-90997830D01*
X118825967Y-90997834D01*
X118961501Y-91191395D01*
X118961506Y-91191402D01*
X119128597Y-91358493D01*
X119128603Y-91358498D01*
X119314158Y-91488425D01*
X119357783Y-91543002D01*
X119364977Y-91612500D01*
X119333454Y-91674855D01*
X119314158Y-91691575D01*
X119128597Y-91821505D01*
X118961505Y-91988597D01*
X118825965Y-92182169D01*
X118825964Y-92182171D01*
X118726098Y-92396335D01*
X118726094Y-92396344D01*
X118664938Y-92624586D01*
X118664936Y-92624596D01*
X118644341Y-92859999D01*
X118644341Y-92860000D01*
X118664936Y-93095403D01*
X118664938Y-93095413D01*
X118726094Y-93323655D01*
X118726096Y-93323659D01*
X118726097Y-93323663D01*
X118797988Y-93477834D01*
X118825965Y-93537830D01*
X118825967Y-93537834D01*
X118961501Y-93731395D01*
X118961506Y-93731402D01*
X119128597Y-93898493D01*
X119128603Y-93898498D01*
X119314158Y-94028425D01*
X119357783Y-94083002D01*
X119364977Y-94152500D01*
X119333454Y-94214855D01*
X119314158Y-94231575D01*
X119128597Y-94361505D01*
X118961505Y-94528597D01*
X118825965Y-94722169D01*
X118825964Y-94722171D01*
X118726098Y-94936335D01*
X118726094Y-94936344D01*
X118664938Y-95164586D01*
X118664936Y-95164596D01*
X118644341Y-95399999D01*
X118644341Y-95400000D01*
X118664936Y-95635403D01*
X118664938Y-95635413D01*
X118726094Y-95863655D01*
X118726096Y-95863659D01*
X118726097Y-95863663D01*
X118797988Y-96017834D01*
X118825965Y-96077830D01*
X118825967Y-96077834D01*
X118961501Y-96271395D01*
X118961506Y-96271402D01*
X119128597Y-96438493D01*
X119128603Y-96438498D01*
X119314158Y-96568425D01*
X119357783Y-96623002D01*
X119364977Y-96692500D01*
X119333454Y-96754855D01*
X119314158Y-96771575D01*
X119128597Y-96901505D01*
X118961505Y-97068597D01*
X118825965Y-97262169D01*
X118825964Y-97262171D01*
X118726098Y-97476335D01*
X118726094Y-97476344D01*
X118664938Y-97704586D01*
X118664936Y-97704596D01*
X118644341Y-97939999D01*
X118644341Y-97940000D01*
X118664936Y-98175403D01*
X118664938Y-98175413D01*
X118726094Y-98403655D01*
X118726096Y-98403659D01*
X118726097Y-98403663D01*
X118797988Y-98557834D01*
X118825965Y-98617830D01*
X118825967Y-98617834D01*
X118961501Y-98811395D01*
X118961506Y-98811402D01*
X119128597Y-98978493D01*
X119128603Y-98978498D01*
X119314158Y-99108425D01*
X119357783Y-99163002D01*
X119364977Y-99232500D01*
X119333454Y-99294855D01*
X119314158Y-99311575D01*
X119128597Y-99441505D01*
X118961505Y-99608597D01*
X118825965Y-99802169D01*
X118825964Y-99802171D01*
X118726098Y-100016335D01*
X118726094Y-100016344D01*
X118664938Y-100244586D01*
X118664936Y-100244596D01*
X118644341Y-100479999D01*
X118644341Y-100480000D01*
X118664936Y-100715403D01*
X118664938Y-100715413D01*
X118726094Y-100943655D01*
X118726096Y-100943659D01*
X118726097Y-100943663D01*
X118797988Y-101097834D01*
X118825965Y-101157830D01*
X118825967Y-101157834D01*
X118919493Y-101291402D01*
X118960873Y-101350499D01*
X118961501Y-101351395D01*
X118961506Y-101351402D01*
X119128597Y-101518493D01*
X119128603Y-101518498D01*
X119314158Y-101648425D01*
X119357783Y-101703002D01*
X119364977Y-101772500D01*
X119333454Y-101834855D01*
X119314158Y-101851575D01*
X119128597Y-101981505D01*
X118961505Y-102148597D01*
X118825965Y-102342169D01*
X118825964Y-102342171D01*
X118726098Y-102556335D01*
X118726094Y-102556344D01*
X118664938Y-102784586D01*
X118664936Y-102784596D01*
X118644341Y-103019999D01*
X118644341Y-103020000D01*
X118664936Y-103255403D01*
X118664938Y-103255413D01*
X118726094Y-103483655D01*
X118726096Y-103483659D01*
X118726097Y-103483663D01*
X118823578Y-103692712D01*
X118825965Y-103697830D01*
X118825967Y-103697834D01*
X118961501Y-103891395D01*
X118961506Y-103891402D01*
X119128597Y-104058493D01*
X119128603Y-104058498D01*
X119314158Y-104188425D01*
X119357783Y-104243002D01*
X119364977Y-104312500D01*
X119333454Y-104374855D01*
X119314158Y-104391575D01*
X119128597Y-104521505D01*
X118961505Y-104688597D01*
X118825965Y-104882169D01*
X118825964Y-104882171D01*
X118726098Y-105096335D01*
X118726094Y-105096344D01*
X118664938Y-105324586D01*
X118664936Y-105324596D01*
X118644341Y-105559999D01*
X118644341Y-105560000D01*
X110100500Y-105560000D01*
X110100500Y-100650001D01*
X111099500Y-100650001D01*
X111099501Y-100650018D01*
X111110000Y-100752796D01*
X111110001Y-100752799D01*
X111151972Y-100879458D01*
X111165186Y-100919334D01*
X111257288Y-101068656D01*
X111381344Y-101192712D01*
X111401718Y-101205279D01*
X111536558Y-101288448D01*
X111583283Y-101340396D01*
X111594506Y-101409358D01*
X111566663Y-101473441D01*
X111559144Y-101481668D01*
X111420271Y-101620541D01*
X111295379Y-101792442D01*
X111198904Y-101981782D01*
X111133242Y-102183870D01*
X111133242Y-102183873D01*
X111122769Y-102250000D01*
X112166988Y-102250000D01*
X112134075Y-102307007D01*
X112100000Y-102434174D01*
X112100000Y-102565826D01*
X112134075Y-102692993D01*
X112166988Y-102750000D01*
X111122769Y-102750000D01*
X111133242Y-102816126D01*
X111133242Y-102816129D01*
X111198904Y-103018217D01*
X111295379Y-103207557D01*
X111420272Y-103379459D01*
X111420276Y-103379464D01*
X111570535Y-103529723D01*
X111570540Y-103529727D01*
X111742442Y-103654620D01*
X111931782Y-103751095D01*
X112133870Y-103816757D01*
X112343754Y-103850000D01*
X112350000Y-103850000D01*
X112350000Y-102933012D01*
X112407007Y-102965925D01*
X112534174Y-103000000D01*
X112665826Y-103000000D01*
X112792993Y-102965925D01*
X112850000Y-102933012D01*
X112850000Y-103850000D01*
X112856246Y-103850000D01*
X113066127Y-103816757D01*
X113066130Y-103816757D01*
X113268217Y-103751095D01*
X113457557Y-103654620D01*
X113629459Y-103529727D01*
X113629464Y-103529723D01*
X113779723Y-103379464D01*
X113779727Y-103379459D01*
X113904620Y-103207557D01*
X114001095Y-103018217D01*
X114066757Y-102816129D01*
X114066757Y-102816126D01*
X114077231Y-102750000D01*
X113033012Y-102750000D01*
X113065925Y-102692993D01*
X113100000Y-102565826D01*
X113100000Y-102434174D01*
X113065925Y-102307007D01*
X113033012Y-102250000D01*
X114077231Y-102250000D01*
X114066757Y-102183873D01*
X114066757Y-102183870D01*
X114001095Y-101981782D01*
X113904620Y-101792442D01*
X113779727Y-101620540D01*
X113779723Y-101620535D01*
X113640856Y-101481668D01*
X113607371Y-101420345D01*
X113612355Y-101350653D01*
X113654227Y-101294720D01*
X113663441Y-101288448D01*
X113669331Y-101284814D01*
X113669334Y-101284814D01*
X113818656Y-101192712D01*
X113942712Y-101068656D01*
X114034814Y-100919334D01*
X114089999Y-100752797D01*
X114100500Y-100650009D01*
X114100499Y-99349992D01*
X114089999Y-99247203D01*
X114034814Y-99080666D01*
X113942712Y-98931344D01*
X113818656Y-98807288D01*
X113669334Y-98715186D01*
X113502797Y-98660001D01*
X113502795Y-98660000D01*
X113400010Y-98649500D01*
X111799998Y-98649500D01*
X111799981Y-98649501D01*
X111697203Y-98660000D01*
X111697200Y-98660001D01*
X111530668Y-98715185D01*
X111530663Y-98715187D01*
X111381342Y-98807289D01*
X111257289Y-98931342D01*
X111165187Y-99080663D01*
X111165185Y-99080668D01*
X111137349Y-99164670D01*
X111110001Y-99247203D01*
X111110001Y-99247204D01*
X111110000Y-99247204D01*
X111099500Y-99349983D01*
X111099500Y-100650001D01*
X110100500Y-100650001D01*
X110100500Y-91650001D01*
X111099500Y-91650001D01*
X111099501Y-91650018D01*
X111110000Y-91752796D01*
X111110001Y-91752799D01*
X111165185Y-91919331D01*
X111165187Y-91919336D01*
X111200069Y-91975888D01*
X111257288Y-92068656D01*
X111381344Y-92192712D01*
X111401718Y-92205279D01*
X111536558Y-92288448D01*
X111583283Y-92340396D01*
X111594506Y-92409358D01*
X111566663Y-92473441D01*
X111559144Y-92481668D01*
X111420271Y-92620541D01*
X111295379Y-92792442D01*
X111198904Y-92981782D01*
X111133242Y-93183870D01*
X111133242Y-93183873D01*
X111122769Y-93250000D01*
X112166988Y-93250000D01*
X112134075Y-93307007D01*
X112100000Y-93434174D01*
X112100000Y-93565826D01*
X112134075Y-93692993D01*
X112166988Y-93750000D01*
X111122769Y-93750000D01*
X111133242Y-93816126D01*
X111133242Y-93816129D01*
X111198904Y-94018217D01*
X111295379Y-94207557D01*
X111420272Y-94379459D01*
X111420276Y-94379464D01*
X111570535Y-94529723D01*
X111570540Y-94529727D01*
X111742442Y-94654620D01*
X111931782Y-94751095D01*
X112133870Y-94816757D01*
X112343754Y-94850000D01*
X112350000Y-94850000D01*
X112350000Y-93933012D01*
X112407007Y-93965925D01*
X112534174Y-94000000D01*
X112665826Y-94000000D01*
X112792993Y-93965925D01*
X112850000Y-93933012D01*
X112850000Y-94850000D01*
X112856246Y-94850000D01*
X113066127Y-94816757D01*
X113066130Y-94816757D01*
X113268217Y-94751095D01*
X113457557Y-94654620D01*
X113629459Y-94529727D01*
X113629464Y-94529723D01*
X113779723Y-94379464D01*
X113779727Y-94379459D01*
X113904620Y-94207557D01*
X114001095Y-94018217D01*
X114066757Y-93816129D01*
X114066757Y-93816126D01*
X114077231Y-93750000D01*
X113033012Y-93750000D01*
X113065925Y-93692993D01*
X113100000Y-93565826D01*
X113100000Y-93434174D01*
X113065925Y-93307007D01*
X113033012Y-93250000D01*
X114077231Y-93250000D01*
X114066757Y-93183873D01*
X114066757Y-93183870D01*
X114001095Y-92981782D01*
X113904620Y-92792442D01*
X113779727Y-92620540D01*
X113779723Y-92620535D01*
X113640856Y-92481668D01*
X113607371Y-92420345D01*
X113612355Y-92350653D01*
X113654227Y-92294720D01*
X113663441Y-92288448D01*
X113669331Y-92284814D01*
X113669334Y-92284814D01*
X113818656Y-92192712D01*
X113942712Y-92068656D01*
X114034814Y-91919334D01*
X114089999Y-91752797D01*
X114100500Y-91650009D01*
X114100499Y-90349992D01*
X114089999Y-90247203D01*
X114034814Y-90080666D01*
X113942712Y-89931344D01*
X113818656Y-89807288D01*
X113669334Y-89715186D01*
X113502797Y-89660001D01*
X113502795Y-89660000D01*
X113400010Y-89649500D01*
X111799998Y-89649500D01*
X111799981Y-89649501D01*
X111697203Y-89660000D01*
X111697200Y-89660001D01*
X111530668Y-89715185D01*
X111530663Y-89715187D01*
X111381342Y-89807289D01*
X111257289Y-89931342D01*
X111165187Y-90080663D01*
X111165185Y-90080668D01*
X111151975Y-90120535D01*
X111110001Y-90247203D01*
X111110001Y-90247204D01*
X111110000Y-90247204D01*
X111099500Y-90349983D01*
X111099500Y-91650001D01*
X110100500Y-91650001D01*
X110100500Y-82061287D01*
X111124500Y-82061287D01*
X111130398Y-82098523D01*
X111155220Y-82255249D01*
X111157754Y-82271243D01*
X111220578Y-82464596D01*
X111223444Y-82473414D01*
X111319951Y-82662820D01*
X111444890Y-82834786D01*
X111595209Y-82985105D01*
X111595214Y-82985109D01*
X111760218Y-83104991D01*
X111802884Y-83160320D01*
X111808863Y-83229934D01*
X111776258Y-83291729D01*
X111760218Y-83305627D01*
X111595540Y-83425272D01*
X111595535Y-83425276D01*
X111445276Y-83575535D01*
X111445272Y-83575540D01*
X111320379Y-83747442D01*
X111223904Y-83936782D01*
X111158242Y-84138870D01*
X111158242Y-84138873D01*
X111147769Y-84205000D01*
X112195854Y-84205000D01*
X112157370Y-84271657D01*
X112125000Y-84392465D01*
X112125000Y-84517535D01*
X112157370Y-84638343D01*
X112195854Y-84705000D01*
X111147769Y-84705000D01*
X111158242Y-84771126D01*
X111158242Y-84771129D01*
X111223904Y-84973217D01*
X111320379Y-85162557D01*
X111445272Y-85334459D01*
X111445276Y-85334464D01*
X111595535Y-85484723D01*
X111595540Y-85484727D01*
X111767442Y-85609620D01*
X111956782Y-85706095D01*
X112158872Y-85771757D01*
X112350000Y-85802029D01*
X112350000Y-84859145D01*
X112416657Y-84897630D01*
X112537465Y-84930000D01*
X112662535Y-84930000D01*
X112783343Y-84897630D01*
X112850000Y-84859145D01*
X112850000Y-85802028D01*
X113041127Y-85771757D01*
X113243217Y-85706095D01*
X113432557Y-85609620D01*
X113604459Y-85484727D01*
X113604464Y-85484723D01*
X113754723Y-85334464D01*
X113754727Y-85334459D01*
X113879620Y-85162557D01*
X113976095Y-84973217D01*
X114041757Y-84771129D01*
X114041757Y-84771126D01*
X114052231Y-84705000D01*
X113004146Y-84705000D01*
X113042630Y-84638343D01*
X113075000Y-84517535D01*
X113075000Y-84392465D01*
X113042630Y-84271657D01*
X113004146Y-84205000D01*
X114052231Y-84205000D01*
X114041757Y-84138873D01*
X114041757Y-84138870D01*
X113976095Y-83936782D01*
X113879620Y-83747442D01*
X113754727Y-83575540D01*
X113754723Y-83575535D01*
X113604464Y-83425276D01*
X113604459Y-83425272D01*
X113439781Y-83305627D01*
X113397115Y-83250297D01*
X113391136Y-83180684D01*
X113423741Y-83118889D01*
X113439776Y-83104994D01*
X113604792Y-82985104D01*
X113755104Y-82834792D01*
X113755106Y-82834788D01*
X113755109Y-82834786D01*
X113880048Y-82662820D01*
X113880047Y-82662820D01*
X113880051Y-82662816D01*
X113976557Y-82473412D01*
X114042246Y-82271243D01*
X114075500Y-82061287D01*
X114075500Y-81848713D01*
X114042246Y-81638757D01*
X113976557Y-81436588D01*
X113880051Y-81247184D01*
X113880049Y-81247181D01*
X113880048Y-81247179D01*
X113755109Y-81075213D01*
X113604792Y-80924896D01*
X113583626Y-80909518D01*
X113440204Y-80805316D01*
X113397540Y-80749989D01*
X113391561Y-80680376D01*
X113424166Y-80618580D01*
X113440199Y-80604686D01*
X113604792Y-80485104D01*
X113755104Y-80334792D01*
X113755106Y-80334788D01*
X113755109Y-80334786D01*
X113880048Y-80162820D01*
X113880047Y-80162820D01*
X113880051Y-80162816D01*
X113976557Y-79973412D01*
X114042246Y-79771243D01*
X114075500Y-79561287D01*
X114075500Y-79348713D01*
X114042246Y-79138757D01*
X113976557Y-78936588D01*
X113880051Y-78747184D01*
X113880049Y-78747181D01*
X113880048Y-78747179D01*
X113755109Y-78575213D01*
X113616294Y-78436398D01*
X113582809Y-78375075D01*
X113587793Y-78305383D01*
X113629665Y-78249450D01*
X113638879Y-78243178D01*
X113644331Y-78239814D01*
X113644334Y-78239814D01*
X113793656Y-78147712D01*
X113917712Y-78023656D01*
X114009814Y-77874334D01*
X114064999Y-77707797D01*
X114075500Y-77605009D01*
X114075499Y-76304992D01*
X114064999Y-76202203D01*
X114009814Y-76035666D01*
X113917712Y-75886344D01*
X113793656Y-75762288D01*
X113644334Y-75670186D01*
X113477797Y-75615001D01*
X113477795Y-75615000D01*
X113375010Y-75604500D01*
X111824998Y-75604500D01*
X111824981Y-75604501D01*
X111722203Y-75615000D01*
X111722200Y-75615001D01*
X111555668Y-75670185D01*
X111555663Y-75670187D01*
X111406342Y-75762289D01*
X111282289Y-75886342D01*
X111190187Y-76035663D01*
X111190185Y-76035668D01*
X111162740Y-76118493D01*
X111135001Y-76202203D01*
X111135001Y-76202204D01*
X111135000Y-76202204D01*
X111124500Y-76304983D01*
X111124500Y-77605001D01*
X111124501Y-77605018D01*
X111135000Y-77707796D01*
X111135001Y-77707799D01*
X111188750Y-77870000D01*
X111190186Y-77874334D01*
X111282288Y-78023656D01*
X111406344Y-78147712D01*
X111489046Y-78198723D01*
X111561120Y-78243178D01*
X111607845Y-78295126D01*
X111619068Y-78364088D01*
X111591224Y-78428171D01*
X111583706Y-78436398D01*
X111444889Y-78575215D01*
X111319951Y-78747179D01*
X111223444Y-78936585D01*
X111157753Y-79138760D01*
X111124500Y-79348713D01*
X111124500Y-79561286D01*
X111145889Y-79696335D01*
X111157754Y-79771243D01*
X111223273Y-79972890D01*
X111223444Y-79973414D01*
X111319951Y-80162820D01*
X111444890Y-80334786D01*
X111595209Y-80485105D01*
X111595214Y-80485109D01*
X111759793Y-80604682D01*
X111802459Y-80660011D01*
X111808438Y-80729625D01*
X111775833Y-80791420D01*
X111759793Y-80805318D01*
X111595214Y-80924890D01*
X111595209Y-80924894D01*
X111444890Y-81075213D01*
X111319951Y-81247179D01*
X111223444Y-81436585D01*
X111157753Y-81638760D01*
X111137189Y-81768597D01*
X111124500Y-81848713D01*
X111124500Y-82061287D01*
X110100500Y-82061287D01*
X110100500Y-68508001D01*
X111099500Y-68508001D01*
X111099501Y-68508018D01*
X111110000Y-68610796D01*
X111110001Y-68610799D01*
X111165185Y-68777331D01*
X111165187Y-68777336D01*
X111200069Y-68833888D01*
X111257288Y-68926656D01*
X111381344Y-69050712D01*
X111464714Y-69102135D01*
X111536558Y-69146448D01*
X111583283Y-69198396D01*
X111594506Y-69267358D01*
X111566663Y-69331441D01*
X111559144Y-69339668D01*
X111420271Y-69478541D01*
X111295379Y-69650442D01*
X111198904Y-69839782D01*
X111133242Y-70041870D01*
X111133242Y-70041873D01*
X111122769Y-70108000D01*
X112166988Y-70108000D01*
X112134075Y-70165007D01*
X112100000Y-70292174D01*
X112100000Y-70423826D01*
X112134075Y-70550993D01*
X112166988Y-70608000D01*
X111122769Y-70608000D01*
X111133242Y-70674126D01*
X111133242Y-70674129D01*
X111198904Y-70876217D01*
X111295379Y-71065557D01*
X111420272Y-71237459D01*
X111420276Y-71237464D01*
X111570535Y-71387723D01*
X111570540Y-71387727D01*
X111742442Y-71512620D01*
X111931782Y-71609095D01*
X112133870Y-71674757D01*
X112343754Y-71708000D01*
X112350000Y-71708000D01*
X112350000Y-70791012D01*
X112407007Y-70823925D01*
X112534174Y-70858000D01*
X112665826Y-70858000D01*
X112792993Y-70823925D01*
X112850000Y-70791012D01*
X112850000Y-71708000D01*
X112856246Y-71708000D01*
X113066127Y-71674757D01*
X113066130Y-71674757D01*
X113268217Y-71609095D01*
X113457557Y-71512620D01*
X113629459Y-71387727D01*
X113629464Y-71387723D01*
X113779723Y-71237464D01*
X113779727Y-71237459D01*
X113904620Y-71065557D01*
X114001095Y-70876217D01*
X114066757Y-70674129D01*
X114066757Y-70674126D01*
X114077231Y-70608000D01*
X113033012Y-70608000D01*
X113065925Y-70550993D01*
X113100000Y-70423826D01*
X113100000Y-70292174D01*
X113065925Y-70165007D01*
X113033012Y-70108000D01*
X114077231Y-70108000D01*
X114066757Y-70041873D01*
X114066757Y-70041870D01*
X114001095Y-69839782D01*
X113904620Y-69650442D01*
X113779727Y-69478540D01*
X113779723Y-69478535D01*
X113640856Y-69339668D01*
X113607371Y-69278345D01*
X113612355Y-69208653D01*
X113654227Y-69152720D01*
X113663441Y-69146448D01*
X113669331Y-69142814D01*
X113669334Y-69142814D01*
X113818656Y-69050712D01*
X113942712Y-68926656D01*
X114034814Y-68777334D01*
X114089999Y-68610797D01*
X114100500Y-68508009D01*
X114100499Y-67207992D01*
X114089999Y-67105203D01*
X114034814Y-66938666D01*
X113942712Y-66789344D01*
X113818656Y-66665288D01*
X113669334Y-66573186D01*
X113502797Y-66518001D01*
X113502795Y-66518000D01*
X113400010Y-66507500D01*
X111799998Y-66507500D01*
X111799981Y-66507501D01*
X111697203Y-66518000D01*
X111697200Y-66518001D01*
X111530668Y-66573185D01*
X111530663Y-66573187D01*
X111381342Y-66665289D01*
X111257289Y-66789342D01*
X111165187Y-66938663D01*
X111165186Y-66938666D01*
X111110001Y-67105203D01*
X111110001Y-67105204D01*
X111110000Y-67105204D01*
X111099500Y-67207983D01*
X111099500Y-68508001D01*
X110100500Y-68508001D01*
X110100500Y-61976003D01*
X121622435Y-61976003D01*
X121642630Y-62155249D01*
X121642631Y-62155254D01*
X121702211Y-62325523D01*
X121798184Y-62478262D01*
X121925738Y-62605816D01*
X122078478Y-62701789D01*
X122248745Y-62761368D01*
X122248750Y-62761369D01*
X122427996Y-62781565D01*
X122428000Y-62781565D01*
X122428004Y-62781565D01*
X122607249Y-62761369D01*
X122607252Y-62761368D01*
X122607255Y-62761368D01*
X122777522Y-62701789D01*
X122930262Y-62605816D01*
X123057816Y-62478262D01*
X123153789Y-62325522D01*
X123213368Y-62155255D01*
X123233565Y-61976000D01*
X123213368Y-61796745D01*
X123153789Y-61626478D01*
X123125444Y-61581368D01*
X123057815Y-61473737D01*
X122930262Y-61346184D01*
X122777523Y-61250211D01*
X122607254Y-61190631D01*
X122607249Y-61190630D01*
X122428004Y-61170435D01*
X122427996Y-61170435D01*
X122248750Y-61190630D01*
X122248745Y-61190631D01*
X122078476Y-61250211D01*
X121925737Y-61346184D01*
X121798184Y-61473737D01*
X121702211Y-61626476D01*
X121642631Y-61796745D01*
X121642630Y-61796750D01*
X121622435Y-61975996D01*
X121622435Y-61976003D01*
X110100500Y-61976003D01*
X110100500Y-60796003D01*
X127046435Y-60796003D01*
X127066630Y-60975249D01*
X127066631Y-60975254D01*
X127126211Y-61145523D01*
X127222184Y-61298262D01*
X127349738Y-61425816D01*
X127502478Y-61521789D01*
X127672745Y-61581368D01*
X127672750Y-61581369D01*
X127851996Y-61601565D01*
X127852000Y-61601565D01*
X127852004Y-61601565D01*
X128031249Y-61581369D01*
X128031252Y-61581368D01*
X128031255Y-61581368D01*
X128201522Y-61521789D01*
X128354262Y-61425816D01*
X128481816Y-61298262D01*
X128577789Y-61145522D01*
X128637368Y-60975255D01*
X128657565Y-60796000D01*
X128637368Y-60616745D01*
X128577789Y-60446478D01*
X128481816Y-60293738D01*
X128354262Y-60166184D01*
X128201523Y-60070211D01*
X128031254Y-60010631D01*
X128031249Y-60010630D01*
X127852004Y-59990435D01*
X127851996Y-59990435D01*
X127672750Y-60010630D01*
X127672745Y-60010631D01*
X127502476Y-60070211D01*
X127349737Y-60166184D01*
X127222184Y-60293737D01*
X127126211Y-60446476D01*
X127066631Y-60616745D01*
X127066630Y-60616750D01*
X127046435Y-60795996D01*
X127046435Y-60796003D01*
X110100500Y-60796003D01*
X110100500Y-58166003D01*
X124494435Y-58166003D01*
X124514630Y-58345249D01*
X124514631Y-58345254D01*
X124574211Y-58515523D01*
X124670184Y-58668262D01*
X124797738Y-58795816D01*
X124950478Y-58891789D01*
X125120745Y-58951368D01*
X125120750Y-58951369D01*
X125299996Y-58971565D01*
X125300000Y-58971565D01*
X125300004Y-58971565D01*
X125479249Y-58951369D01*
X125479252Y-58951368D01*
X125479255Y-58951368D01*
X125649522Y-58891789D01*
X125802262Y-58795816D01*
X125929816Y-58668262D01*
X126025789Y-58515522D01*
X126085368Y-58345255D01*
X126105565Y-58166000D01*
X126085368Y-57986745D01*
X126025789Y-57816478D01*
X125929816Y-57663738D01*
X125802262Y-57536184D01*
X125787450Y-57526877D01*
X125649523Y-57440211D01*
X125479254Y-57380631D01*
X125479249Y-57380630D01*
X125300004Y-57360435D01*
X125299996Y-57360435D01*
X125120750Y-57380630D01*
X125120745Y-57380631D01*
X124950476Y-57440211D01*
X124797737Y-57536184D01*
X124670184Y-57663737D01*
X124574211Y-57816476D01*
X124514631Y-57986745D01*
X124514630Y-57986750D01*
X124494435Y-58165996D01*
X124494435Y-58166003D01*
X110100500Y-58166003D01*
X110100500Y-55785130D01*
X110120185Y-55718091D01*
X110172989Y-55672336D01*
X110242147Y-55662392D01*
X110305703Y-55691417D01*
X110343477Y-55750195D01*
X110346117Y-55760939D01*
X110373118Y-55896683D01*
X110373122Y-55896698D01*
X110470053Y-56182247D01*
X110470062Y-56182268D01*
X110603431Y-56452713D01*
X110603435Y-56452720D01*
X110770973Y-56703459D01*
X110969810Y-56930189D01*
X111196540Y-57129026D01*
X111447279Y-57296564D01*
X111447286Y-57296568D01*
X111717731Y-57429937D01*
X111717736Y-57429939D01*
X111717748Y-57429945D01*
X112003309Y-57526880D01*
X112203251Y-57566651D01*
X112299069Y-57585711D01*
X112299070Y-57585711D01*
X112299080Y-57585713D01*
X112600000Y-57605436D01*
X112900920Y-57585713D01*
X113196691Y-57526880D01*
X113482252Y-57429945D01*
X113752718Y-57296566D01*
X114003461Y-57129025D01*
X114230189Y-56930189D01*
X114429025Y-56703461D01*
X114596566Y-56452718D01*
X114729945Y-56182252D01*
X114826880Y-55896691D01*
X114885242Y-55603286D01*
X117641500Y-55603286D01*
X117655458Y-55691417D01*
X117674754Y-55813243D01*
X117701870Y-55896698D01*
X117740444Y-56015414D01*
X117836951Y-56204820D01*
X117961890Y-56376786D01*
X118112213Y-56527109D01*
X118284179Y-56652048D01*
X118284181Y-56652049D01*
X118284184Y-56652051D01*
X118473588Y-56748557D01*
X118675757Y-56814246D01*
X118885713Y-56847500D01*
X118885714Y-56847500D01*
X119098286Y-56847500D01*
X119098287Y-56847500D01*
X119308243Y-56814246D01*
X119510412Y-56748557D01*
X119699816Y-56652051D01*
X119721789Y-56636086D01*
X119871786Y-56527109D01*
X119871788Y-56527106D01*
X119871792Y-56527104D01*
X120022104Y-56376792D01*
X120141683Y-56212204D01*
X120197011Y-56169540D01*
X120266624Y-56163561D01*
X120328420Y-56196166D01*
X120342313Y-56212199D01*
X120387793Y-56274797D01*
X120461896Y-56376792D01*
X120612213Y-56527109D01*
X120784179Y-56652048D01*
X120784181Y-56652049D01*
X120784184Y-56652051D01*
X120973588Y-56748557D01*
X121175757Y-56814246D01*
X121385713Y-56847500D01*
X121385714Y-56847500D01*
X121598286Y-56847500D01*
X121598287Y-56847500D01*
X121808243Y-56814246D01*
X122010412Y-56748557D01*
X122199816Y-56652051D01*
X122221789Y-56636086D01*
X122371786Y-56527109D01*
X122371788Y-56527106D01*
X122371792Y-56527104D01*
X122522104Y-56376792D01*
X122641683Y-56212204D01*
X122697011Y-56169540D01*
X122766624Y-56163561D01*
X122828420Y-56196166D01*
X122842313Y-56212199D01*
X122887793Y-56274797D01*
X122961896Y-56376792D01*
X123112213Y-56527109D01*
X123284179Y-56652048D01*
X123284181Y-56652049D01*
X123284184Y-56652051D01*
X123473588Y-56748557D01*
X123675757Y-56814246D01*
X123885713Y-56847500D01*
X123885714Y-56847500D01*
X124098286Y-56847500D01*
X124098287Y-56847500D01*
X124308243Y-56814246D01*
X124510412Y-56748557D01*
X124699816Y-56652051D01*
X124871792Y-56527104D01*
X125010604Y-56388291D01*
X125071923Y-56354809D01*
X125141615Y-56359793D01*
X125197549Y-56401664D01*
X125203821Y-56410878D01*
X125207185Y-56416333D01*
X125207186Y-56416334D01*
X125299288Y-56565656D01*
X125423344Y-56689712D01*
X125572666Y-56781814D01*
X125739203Y-56836999D01*
X125841991Y-56847500D01*
X127142008Y-56847499D01*
X127244797Y-56836999D01*
X127411334Y-56781814D01*
X127560656Y-56689712D01*
X127684712Y-56565656D01*
X127776814Y-56416334D01*
X127831999Y-56249797D01*
X127842500Y-56147009D01*
X127842500Y-55628246D01*
X132421000Y-55628246D01*
X132454242Y-55838127D01*
X132454242Y-55838130D01*
X132519904Y-56040217D01*
X132616379Y-56229557D01*
X132741272Y-56401459D01*
X132741276Y-56401464D01*
X132891535Y-56551723D01*
X132891540Y-56551727D01*
X133063442Y-56676620D01*
X133252782Y-56773095D01*
X133454871Y-56838757D01*
X133521000Y-56849231D01*
X133521000Y-55805012D01*
X133578007Y-55837925D01*
X133705174Y-55872000D01*
X133836826Y-55872000D01*
X133963993Y-55837925D01*
X134021000Y-55805012D01*
X134021000Y-56849230D01*
X134087126Y-56838757D01*
X134087129Y-56838757D01*
X134289217Y-56773095D01*
X134478557Y-56676620D01*
X134650458Y-56551728D01*
X134789330Y-56412856D01*
X134850653Y-56379371D01*
X134920345Y-56384355D01*
X134976279Y-56426226D01*
X134982551Y-56435440D01*
X134986185Y-56441331D01*
X134986186Y-56441334D01*
X135078288Y-56590656D01*
X135202344Y-56714712D01*
X135351666Y-56806814D01*
X135518203Y-56861999D01*
X135620991Y-56872500D01*
X136921008Y-56872499D01*
X137023797Y-56861999D01*
X137190334Y-56806814D01*
X137339656Y-56714712D01*
X137463712Y-56590656D01*
X137555814Y-56441334D01*
X137610999Y-56274797D01*
X137621500Y-56172009D01*
X137621499Y-54571992D01*
X137610999Y-54469203D01*
X137555814Y-54302666D01*
X137463712Y-54153344D01*
X137339656Y-54029288D01*
X137190334Y-53937186D01*
X137023797Y-53882001D01*
X137023795Y-53882000D01*
X136921010Y-53871500D01*
X135620998Y-53871500D01*
X135620981Y-53871501D01*
X135518203Y-53882000D01*
X135518200Y-53882001D01*
X135351668Y-53937185D01*
X135351663Y-53937187D01*
X135202342Y-54029289D01*
X135078289Y-54153342D01*
X134982551Y-54308559D01*
X134930603Y-54355283D01*
X134861640Y-54366506D01*
X134797558Y-54338662D01*
X134789331Y-54331143D01*
X134650464Y-54192276D01*
X134650459Y-54192272D01*
X134478557Y-54067379D01*
X134289215Y-53970903D01*
X134087124Y-53905241D01*
X134021000Y-53894768D01*
X134021000Y-54938988D01*
X133963993Y-54906075D01*
X133836826Y-54872000D01*
X133705174Y-54872000D01*
X133578007Y-54906075D01*
X133521000Y-54938988D01*
X133521000Y-53894768D01*
X133520999Y-53894768D01*
X133454875Y-53905241D01*
X133252784Y-53970903D01*
X133063442Y-54067379D01*
X132891540Y-54192272D01*
X132891535Y-54192276D01*
X132741276Y-54342535D01*
X132741272Y-54342540D01*
X132616379Y-54514442D01*
X132519904Y-54703782D01*
X132454242Y-54905869D01*
X132454242Y-54905872D01*
X132421000Y-55115753D01*
X132421000Y-55122000D01*
X133337988Y-55122000D01*
X133305075Y-55179007D01*
X133271000Y-55306174D01*
X133271000Y-55437826D01*
X133305075Y-55564993D01*
X133337988Y-55622000D01*
X132421000Y-55622000D01*
X132421000Y-55628246D01*
X127842500Y-55628246D01*
X127842499Y-54596992D01*
X127831999Y-54494203D01*
X127776814Y-54327666D01*
X127684712Y-54178344D01*
X127560656Y-54054288D01*
X127411334Y-53962186D01*
X127244797Y-53907001D01*
X127244795Y-53907000D01*
X127142010Y-53896500D01*
X125841998Y-53896500D01*
X125841981Y-53896501D01*
X125739203Y-53907000D01*
X125739200Y-53907001D01*
X125572668Y-53962185D01*
X125572663Y-53962187D01*
X125423342Y-54054289D01*
X125299289Y-54178342D01*
X125203821Y-54333121D01*
X125151873Y-54379845D01*
X125082910Y-54391068D01*
X125018828Y-54363224D01*
X125010601Y-54355705D01*
X124871786Y-54216890D01*
X124699820Y-54091951D01*
X124510414Y-53995444D01*
X124510413Y-53995443D01*
X124510412Y-53995443D01*
X124308243Y-53929754D01*
X124308241Y-53929753D01*
X124308240Y-53929753D01*
X124146957Y-53904208D01*
X124098287Y-53896500D01*
X123885713Y-53896500D01*
X123837042Y-53904208D01*
X123675760Y-53929753D01*
X123473585Y-53995444D01*
X123284179Y-54091951D01*
X123112213Y-54216890D01*
X122961894Y-54367209D01*
X122961890Y-54367214D01*
X122842318Y-54531793D01*
X122786989Y-54574459D01*
X122717375Y-54580438D01*
X122655580Y-54547833D01*
X122641682Y-54531793D01*
X122522109Y-54367214D01*
X122522105Y-54367209D01*
X122371786Y-54216890D01*
X122199820Y-54091951D01*
X122010414Y-53995444D01*
X122010413Y-53995443D01*
X122010412Y-53995443D01*
X121808243Y-53929754D01*
X121808241Y-53929753D01*
X121808240Y-53929753D01*
X121646957Y-53904208D01*
X121598287Y-53896500D01*
X121385713Y-53896500D01*
X121337042Y-53904208D01*
X121175760Y-53929753D01*
X120973585Y-53995444D01*
X120784179Y-54091951D01*
X120612213Y-54216890D01*
X120461894Y-54367209D01*
X120461890Y-54367214D01*
X120342318Y-54531793D01*
X120286989Y-54574459D01*
X120217375Y-54580438D01*
X120155580Y-54547833D01*
X120141682Y-54531793D01*
X120022109Y-54367214D01*
X120022105Y-54367209D01*
X119871786Y-54216890D01*
X119699820Y-54091951D01*
X119510414Y-53995444D01*
X119510413Y-53995443D01*
X119510412Y-53995443D01*
X119308243Y-53929754D01*
X119308241Y-53929753D01*
X119308240Y-53929753D01*
X119146957Y-53904208D01*
X119098287Y-53896500D01*
X118885713Y-53896500D01*
X118837042Y-53904208D01*
X118675760Y-53929753D01*
X118473585Y-53995444D01*
X118284179Y-54091951D01*
X118112213Y-54216890D01*
X117961890Y-54367213D01*
X117836951Y-54539179D01*
X117740444Y-54728585D01*
X117674753Y-54930760D01*
X117641500Y-55140713D01*
X117641500Y-55603286D01*
X114885242Y-55603286D01*
X114885713Y-55600920D01*
X114905436Y-55300000D01*
X114885713Y-54999080D01*
X114826880Y-54703309D01*
X114729945Y-54417748D01*
X114727931Y-54413665D01*
X114596568Y-54147286D01*
X114596564Y-54147279D01*
X114429026Y-53896540D01*
X114230189Y-53669810D01*
X114003459Y-53470973D01*
X113752720Y-53303435D01*
X113752713Y-53303431D01*
X113482268Y-53170062D01*
X113482247Y-53170053D01*
X113196698Y-53073122D01*
X113196692Y-53073120D01*
X113196691Y-53073120D01*
X113196689Y-53073119D01*
X113196683Y-53073118D01*
X113060939Y-53046117D01*
X112999028Y-53013732D01*
X112964454Y-52953016D01*
X112968193Y-52883247D01*
X113009060Y-52826575D01*
X113074078Y-52800994D01*
X113085130Y-52800500D01*
X142114870Y-52800500D01*
X142181909Y-52820185D01*
G37*
%TD.AperFunction*%
%TD*%
M02*
